<svg xmlns="http://www.w3.org/2000/svg">
<defs>
<font id="Antibiotech" horiz-adv-x="1113" >
  <font-face 
    font-family="Antibiotech"
    font-weight="400"
    font-stretch="normal"
    units-per-em="2048"
    panose-1="2 11 0 0 0 0 0 0 0 0"
    ascent="1638"
    descent="-410"
    x-height="1600"
    cap-height="1750"
    bbox="-254 -314.184 2470 1972"
    underline-thickness="48"
    underline-position="-140"
    unicode-range="U+0020-U+0178"
  />
<missing-glyph horiz-adv-x="2460" 
d="M1602 1472q-19 -7 -35 -28q-6 -16 -12 -25l-12 -37q-10 -44 -28 -72q-16 0 -28 10q-62 83 -112 49q0 -18 3 -31l6 -6l16 -19q22 -28 37 -40l59 -43q3 -19 0 -44v-12l-9 -78q6 -74 43 3l6 13q7 28 16 49l9 31q10 31 13 53l6 34v13l9 34l6 9l7 25q18 56 24 93q-9 12 -21 19
h-3zM1087 1341l-87 -49l-6 -7q-35 -18 -52 -33.5t-26 -21.5q-25 -19 -37 -35l-56 -55q-16 59 -59 28l-9 -35q-3 -6 -3 -13.5t-4 -10.5v-16q0 -31 -3 -53v-46l-9 -19l-19 13q-24 55 -68 71q-15 -3 -25 -9l-6 -13q3 -46 -15 -80q-103 52 -180 -19q-28 -6 -47 -19
q-31 -12 -53 -31q-18 -9 -31 -12q-24 46 -9 90q9 18 23 27.5t24 12.5l12 9l12 10q41 21 66 46q0 16 -16 22q-34 0 -56 -9l-139 -90l-19 -16l-34 -31q-16 -9 -25 -18l-59 -59l-3 -7l-43 -46q-10 -19 -13 -34q6 -22 25 -25l15 6l35 37l43 44l12 9l62 59q56 -84 -43 -152
q-6 -15 -6 -28q31 -25 65 -3q12 -12 12 -28q-9 -46 22 -74q31 15 28 49q-3 112 40 134q-12 -90 53 -131q75 -18 121 38q37 34 56 65l19 15q18 -87 65 -18l9 37q6 56 28 96l15 -3q66 -71 81 -102q19 0 34 6l22 65l-3 6l-19 25q0 9 -3 12l-3 72l3 12l3 22v18l6 38
q47 -13 78 28l12 -7q10 -27 10 -49q-3 -34 3 -56v-34q-9 -40 -6 -68l9 -13q15 0 25 9l25 50v13l6 43l-3 28l-3 93q-7 28 -4 50q16 24 32 37l9 6l22 19l18 15l25 16l25 21q31 25 53 38q9 12 12 24q-16 7 -31 7zM1152 1199q6 -50 49 -10l13 -12q6 -25 6 -44q16 -65 9 -118
q7 -15 13 -24q74 -31 124 24q59 59 40 131q-25 37 -65 43l-6 3l-16 13q47 136 -12 139q-106 -52 -155 -145zM1797 1131.5q-9 -29.5 -12 -50.5l-3 -10l-7 -37l-28 -71l-6 -10q-3 -15 -9 -24l-16 -28q-9 -22 -18 -34q-22 -25 -44 -35l-9 16v78q-12 21 -37 21q-41 -53 -31 -146

<glyph glyph-name=".notdef" horiz-adv-x="2460" 
d="M1602 1472q-19 -7 -35 -28q-6 -16 -12 -25l-12 -37q-10 -44 -28 -72q-16 0 -28 10q-62 83 -112 49q0 -18 3 -31l6 -6l16 -19q22 -28 37 -40l59 -43q3 -19 0 -44v-12l-9 -78q6 -74 43 3l6 13q7 28 16 49l9 31q10 31 13 53l6 34v13l9 34l6 9l7 25q18 56 24 93q-9 12 -21 19
h-3zM1087 1341l-87 -49l-6 -7q-35 -18 -52 -33.5t-26 -21.5q-25 -19 -37 -35l-56 -55q-16 59 -59 28l-9 -35q-3 -6 -3 -13.5t-4 -10.5v-16q0 -31 -3 -53v-46l-9 -19l-19 13q-24 55 -68 71q-15 -3 -25 -9l-6 -13q3 -46 -15 -80q-103 52 -180 -19q-28 -6 -47 -19
q-31 -12 -53 -31q-18 -9 -31 -12q-24 46 -9 90q9 18 23 27.5t24 12.5l12 9l12 10q41 21 66 46q0 16 -16 22q-34 0 -56 -9l-139 -90l-19 -16l-34 -31q-16 -9 -25 -18l-59 -59l-3 -7l-43 -46q-10 -19 -13 -34q6 -22 25 -25l15 6l35 37l43 44l12 9l62 59q56 -84 -43 -152
q-6 -15 -6 -28q31 -25 65 -3q12 -12 12 -28q-9 -46 22 -74q31 15 28 49q-3 112 40 134q-12 -90 53 -131q75 -18 121 38q37 34 56 65l19 15q18 -87 65 -18l9 37q6 56 28 96l15 -3q66 -71 81 -102q19 0 34 6l22 65l-3 6l-19 25q0 9 -3 12l-3 72l3 12l3 22v18l6 38
q47 -13 78 28l12 -7q10 -27 10 -49q-3 -34 3 -56v-34q-9 -40 -6 -68l9 -13q15 0 25 9l25 50v13l6 43l-3 28l-3 93q-7 28 -4 50q16 24 32 37l9 6l22 19l18 15l25 16l25 21q31 25 53 38q9 12 12 24q-16 7 -31 7zM1152 1199q6 -50 49 -10l13 -12q6 -25 6 -44q16 -65 9 -118
q7 -15 13 -24q74 -31 124 24q59 59 40 131q-25 37 -65 43l-6 3l-16 13q47 136 -12 139q-106 -52 -155 -145zM1797 1131.5q-9 -29.5 -12 -50.5l-3 -10l-7 -37l-28 -71l-6 -10q-3 -15 -9 -24l-16 -28q-9 -22 -18 -34q-22 -25 -44 -35l-9 16v78q-12 21 -37 21q-41 -53 -31 -146
q-10 -28 -10 -49q-18 -68 -9 -127l3 -7l19 -21l-6 -10q-16 -9 -25 -12l-44 -25l-9 -3l-136 -74q-10 -7 -28 -13l-19 -9l-136 -72q-31 -12 -50 -24q-19 -7 -31 -16l-9 -3q-25 -9 -41 -19q-21 -21 -18 -46q43 -19 124 25l9 3l84 43q25 19 43 28l143 72l19 9l65 40q18 13 34 19
l130 68q25 9 41 19l34 18l52 28q19 9 31 19q25 9 38 18l21 13q19 6 31 15l47 25q25 6 40 19l16 3q18 9 21 12l94 50l9 3q28 19 50 28l158 78l9 3l31 21q44 19 68 44q0 21 -62 0l-77 -31q-34 -10 -56 -25l-25 -9l-50 -28q-21 -10 -34 -19l-21 -12q-19 -7 -31 -16l-115 -50
q-31 -12 -50 -24l-59 -31q-34 -19 -59 -25l-12 22l3 12q-6 46 -3 78l3 15l3 40l3 13l3 53l3 15l3 28l4 12l3 22v19q6 21 6 40q15 34 15 59q0 34 -31 34q-28 -25 -37 -54.5zM1353 1102q-9 -46 -52 -65q-38 0 -25 72l18 15q35 0 59 -22zM1232 910q0 -152 -99 -242l-18 -31
l-7 -6q-15 -13 -25 -25l-21 -22l-13 3v13q0 18 3 31q28 65 28 121l-15 15q-53 -15 -62 -90q-19 87 -81 -65q-6 -15 -15 -25l-7 -18l-49 -96l-16 -10q-25 72 6 162q0 21 -3 37q-15 9 -31 9l-12 -9l-6 -13l-16 -49q-3 -28 -9 -47v-34q-12 -65 9 -121q19 -19 39 -23.5t36 1.5
q18 13 43 41q6 18 16 31l12 28q12 21 16 40l3 6q24 40 31 72q-3 -146 114 -90q16 -31 47 -28l6 6q13 15 19 28q18 77 77 118q13 -10 19 -19q12 -174 62 -81v10l3 24q-3 44 6 78q121 -53 199 31q-16 65 -75 75l-15 15q78 87 59 118l-25 3l-25 -15l-21 -16l-31 -25
q-19 -25 -44 -40q-19 -6 -31 -6l-6 9l-6 31l-3 22q0 46 -16 80q-12 13 -28 13q-15 -13 -22 -25zM451 749q-72 -28 -53 55q40 81 112 115q102 -21 -59 -170zM1757 817l3 -9l6 -112l-9 -16l-37 -24l-10 -4l-18 -9q-38 -22 -69 -31l-12 6v10q0 18 6 49q3 34 9 56l19 16
q62 28 99 74zM1363 680q-6 10 -6 19q40 -9 6 -19zM472 491q-59 -74 -40 -155q68 -74 155 -34q44 -50 71 -44q13 22 16 41v25l28 121l3 6l12 53v9q7 18 3 37q-9 16 -21 25q-25 -3 -37 -22l-4 -9l-9 -68l-3 -7l-3 -12q-19 -43 -25 -74q-50 -41 -102 -31q-16 15 -22 27
q40 149 155 227q40 -34 62 0q0 74 -68 68q-121 -71 -171 -183z" />
    <glyph glyph-name=".null" horiz-adv-x="0" 
 />
    <glyph glyph-name="nonmarkingreturn" horiz-adv-x="390" 
 />
    <glyph glyph-name="space" unicode=" " horiz-adv-x="390" 
 />
    <glyph glyph-name="space" unicode="&#xa0;" horiz-adv-x="390" 
 />
    <glyph glyph-name="exclam" unicode="!" horiz-adv-x="551" 
d="M28 1571l-4 -32v-100q-8 -76 -8 -124l-4 -24v-48l-4 -28l-4 -28v-428l16 -60q56 -80 132 -112q52 8 68 48v80l-4 16v96l-4 12v28q8 48 4 80l4 64l4 24l12 232l4 44l4 56v88q-48 156 -196 152zM180 1487l-4 -8q20 -40 16 -76v-48l-4 -16v-60l-4 -8q0 -36 -4 -64l-4 -56
v-24q0 -36 -4 -64l-4 -60l-4 -28v-72q-4 -32 0 -76l4 -168q-20 -32 -96 56q-16 44 -20 76l4 368q0 48 8 80v52l4 12l4 92q0 12 4 16q-4 88 8 144q64 -20 96 -68zM44 331l4 -28q-4 -28 -6 -38t-6 -14v-56l-4 -28q-8 -52 -8 -88l4 -8l44 -32q20 -12 32 -24l24 -16l8 -4l52 -40
h48l8 12l4 32v40l4 24l4 32v120q-16 148 -168 172q-32 -24 -44 -56zM200 67q-4 -28 -4 -48l-20 12l-12 12q-56 36 -88 64l4 20l4 16l4 44v44l4 20q4 48 12 80q144 -60 96 -264z" />
    <glyph glyph-name="quotedbl" unicode="&#x22;" horiz-adv-x="851" 
d="M48 1548q-8 -32 -8 -80l-4 -8q0 -36 -4 -64l-4 -20l-4 -24q-4 -48 -4 -80q-4 -8 -8 -28q0 -36 -8 -64v-48q-4 -24 -4 -40v-176l12 -8q20 -12 24 -16l32 -20l8 -8l16 -12q60 -40 80 -48h32l12 16v48l4 20q4 24 0 44q8 52 8 88q0 24 8 44l4 52l4 8v28q8 24 4 56q8 24 8 44
v12l4 44l4 28v116q-64 132 -192 128q-16 -16 -24 -32zM440 1536q-4 -48 -4 -82t-4 -62l-4 -12q0 -32 -4 -56l-4 -12q0 -44 -12 -96l-4 -32q-4 -32 -4 -56l-4 -16v-32l-8 -28q4 -44 -4 -72l4 -16l60 -40l8 -8q60 -36 76 -52l44 -28l32 8l4 20v32l8 44v36l4 12l4 68
q12 40 16 104l8 44l4 244q-64 116 -180 128q-24 -20 -36 -40zM208 1444q8 -44 4 -76l-8 -80l-4 -44q-4 -32 -8 -72v-28l-8 -56l-8 -40q0 -44 -8 -72v-36q0 -28 -4 -72q-28 24 -52 36q-36 32 -64 44v116l4 28l4 64l4 20l4 20q0 40 8 68q0 32 4 56l4 40l4 16l4 24v40l4 12
q0 44 8 76q76 -20 108 -84zM604 1432l4 -12v-104l-16 -124l4 -8l-4 -32l-12 -44l4 -16l-8 -32v-32l-12 -40q4 -44 -4 -76q-8 8 -28 20q-28 20 -44 28l-8 8q-24 12 -40 28l4 24l4 52l4 40q0 32 8 80l4 20l4 24l4 40q0 32 8 56v16q0 24 8 40v32q0 60 8 100q76 -24 108 -88z
" />
    <glyph glyph-name="quotedbl" unicode="&#x201e;" horiz-adv-x="851" 
d="M48 1548q-8 -32 -8 -80l-4 -8q0 -36 -4 -64l-4 -20l-4 -24q-4 -48 -4 -80q-4 -8 -8 -28q0 -36 -8 -64v-48q-4 -24 -4 -40v-176l12 -8q20 -12 24 -16l32 -20l8 -8l16 -12q60 -40 80 -48h32l12 16v48l4 20q4 24 0 44q8 52 8 88q0 24 8 44l4 52l4 8v28q8 24 4 56q8 24 8 44
v12l4 44l4 28v116q-64 132 -192 128q-16 -16 -24 -32zM440 1536q-4 -48 -4 -82t-4 -62l-4 -12q0 -32 -4 -56l-4 -12q0 -44 -12 -96l-4 -32q-4 -32 -4 -56l-4 -16v-32l-8 -28q4 -44 -4 -72l4 -16l60 -40l8 -8q60 -36 76 -52l44 -28l32 8l4 20v32l8 44v36l4 12l4 68
q12 40 16 104l8 44l4 244q-64 116 -180 128q-24 -20 -36 -40zM208 1444q8 -44 4 -76l-8 -80l-4 -44q-4 -32 -8 -72v-28l-8 -56l-8 -40q0 -44 -8 -72v-36q0 -28 -4 -72q-28 24 -52 36q-36 32 -64 44v116l4 28l4 64l4 20l4 20q0 40 8 68q0 32 4 56l4 40l4 16l4 24v40l4 12
q0 44 8 76q76 -20 108 -84zM604 1432l4 -12v-104l-16 -124l4 -8l-4 -32l-12 -44l4 -16l-8 -32v-32l-12 -40q4 -44 -4 -76q-8 8 -28 20q-28 20 -44 28l-8 8q-24 12 -40 28l4 24l4 52l4 40q0 32 8 80l4 20l4 24l4 40q0 32 8 56v16q0 24 8 40v32q0 60 8 100q76 -24 108 -88z
" />
    <glyph glyph-name="quotedbl" unicode="&#x201d;" horiz-adv-x="851" 
d="M48 1548q-8 -32 -8 -80l-4 -8q0 -36 -4 -64l-4 -20l-4 -24q-4 -48 -4 -80q-4 -8 -8 -28q0 -36 -8 -64v-48q-4 -24 -4 -40v-176l12 -8q20 -12 24 -16l32 -20l8 -8l16 -12q60 -40 80 -48h32l12 16v48l4 20q4 24 0 44q8 52 8 88q0 24 8 44l4 52l4 8v28q8 24 4 56q8 24 8 44
v12l4 44l4 28v116q-64 132 -192 128q-16 -16 -24 -32zM440 1536q-4 -48 -4 -82t-4 -62l-4 -12q0 -32 -4 -56l-4 -12q0 -44 -12 -96l-4 -32q-4 -32 -4 -56l-4 -16v-32l-8 -28q4 -44 -4 -72l4 -16l60 -40l8 -8q60 -36 76 -52l44 -28l32 8l4 20v32l8 44v36l4 12l4 68
q12 40 16 104l8 44l4 244q-64 116 -180 128q-24 -20 -36 -40zM208 1444q8 -44 4 -76l-8 -80l-4 -44q-4 -32 -8 -72v-28l-8 -56l-8 -40q0 -44 -8 -72v-36q0 -28 -4 -72q-28 24 -52 36q-36 32 -64 44v116l4 28l4 64l4 20l4 20q0 40 8 68q0 32 4 56l4 40l4 16l4 24v40l4 12
q0 44 8 76q76 -20 108 -84zM604 1432l4 -12v-104l-16 -124l4 -8l-4 -32l-12 -44l4 -16l-8 -32v-32l-12 -40q4 -44 -4 -76q-8 8 -28 20q-28 20 -44 28l-8 8q-24 12 -40 28l4 24l4 52l4 40q0 32 8 80l4 20l4 24l4 40q0 32 8 56v16q0 24 8 40v32q0 60 8 100q76 -24 108 -88z
" />
    <glyph glyph-name="numbersign" unicode="#" horiz-adv-x="1233" 
d="M412 1576q0 -52 -16 -92v-36l-12 -44v-16q-8 -24 -8 -40l-16 -68v-40q-8 -44 -8 -72q-32 -8 -56 -4h-256q-24 -12 -40 -28q0 -156 128 -224l32 -4l28 8l144 -4q0 -64 24 -116q-48 -24 -56 -124q-32 0 -56 -4l-44 -4l-140 -4q-20 -12 -36 -32q20 -216 220 -220
q-16 -44 -20 -80l-16 -12l-16 -24q-32 -40 -56 -60q0 -24 -24 -36l8 -32l16 -8q12 -20 32 -36l120 -116q88 20 96 104l24 12q8 16 4 28q112 120 56 256l44 28l124 12q-12 -28 -12 -52q-24 -52 -24 -100q-48 -44 -52 -100l16 -28q40 -76 84 -116l28 -48q120 8 88 116l36 16
q88 124 40 248q64 48 64 120l16 -12l24 -12h48l16 4l128 4q24 20 36 36q-32 228 -252 220v20l8 44v28l4 8l4 84q24 -12 40 -16l12 4h116l8 4l44 4q24 56 16 108q-68 132 -204 140l8 20q8 56 28 92q20 64 52 104l4 52q-228 440 -340 -268l-12 -4h-116l12 56v16l20 108l8 24
l4 36q12 64 12 108q-56 148 -200 148q-24 -32 -36 -84zM596 1496q-4 -36 -12 -64l-12 -88l-8 -28v-16l-8 -44l-8 -28l-4 -44q-8 -28 -8 -48q32 -40 84 -24h32q48 4 84 -8l28 12q4 8 8 24l4 24q0 20 4 34t8 42l8 40q0 12 4 16l4 28l4 24l8 28l32 100l44 72q20 4 32 0l4 -8
q52 -56 76 -116v-16l-12 -24q-40 -64 -52 -124l-4 -8l-24 -92l-4 -28l16 -20q160 12 200 -128l-8 -16h-80q-32 4 -60 -4l-8 4q-32 12 -48 28l-24 -4l-12 -16v-52l-4 -32l-4 -28l-4 -44v-12l-8 -80q-56 8 -60 -40l24 -20q244 68 288 -128q-24 -4 -60 -4l-28 -4h-72l-20 12
l-48 44l-28 -4l-8 -32q4 -64 -20 -112q-40 -8 -64 -28l4 -28q76 -92 -12 -212q-56 32 -80 -4v-24q48 -36 28 -88l-8 8l-40 56l-8 8l-20 24q-16 36 -32 56l8 16q20 -28 44 -36l8 8l16 24q-40 80 0 148q0 36 16 64q44 0 72 16q0 36 -28 56l-16 4l-56 -8q-24 0 -60 -4l-8 -4
l-60 -4l-32 -4l-28 -4l-20 -20q-36 8 -64 0l-4 -32q84 -120 0 -228q-40 -12 -64 -24q16 -68 -20 -112l-96 96q32 32 -4 60q28 44 68 64l8 24q0 64 28 112l4 28l-20 16q-172 -24 -212 132l12 12h44l8 4h64l44 4l92 8l4 8l12 48l4 32l4 28q104 8 36 84q-28 64 -16 124l-12 12
q-24 4 -28 8h-136q-32 4 -60 -4q-96 48 -100 144q28 8 52 4h192q32 4 60 -4q28 4 44 16l4 20l4 40l4 44v28q4 12 6 24t4 22t6 38l4 20l4 24l16 80q4 40 12 68q0 44 16 76q92 -28 116 -112zM516 944q0 -28 -4 -56l-4 -52l-4 -8q8 -44 -8 -76q-56 4 -60 -40q16 -16 24 -28
l32 -44l64 4l8 4l28 4q60 0 102 8t50 60q60 -16 60 36q-44 48 -56 100q8 64 -12 108l-16 4h-180q-16 -12 -24 -24zM688 916l4 -32l16 -80l16 -28q-32 -32 -48 -64h-12q-44 -8 -72 -8h-12q-36 -8 -64 -8l28 16q4 12 6 22l6 30l16 152h116z" />
    <glyph glyph-name="dollar" unicode="$" horiz-adv-x="1109" 
d="M380 1732l-8 -68q4 -20 0 -32l4 -8l-4 -12v-80l-8 -4q-52 8 -92 0q-8 -4 -28 -24l-28 -20q-40 -24 -68 -48l-4 -8l-4 -20l-4 -44q-60 -140 32 -240q-8 -20 -8 -36q68 -156 196 -240q-56 -160 16 -296l-88 -52q-36 32 -72 44q-72 164 -212 108q4 -288 272 -360l8 4
q28 0 48 8q8 -32 24 -56q-92 -172 104 -248q160 16 52 156q52 52 52 116l20 -4q24 8 40 8q32 0 52 -4l12 4h16l28 4h72q168 144 140 348q-16 100 -80 168q-64 180 -280 208l4 44l16 220h88q100 -128 184 -24q-48 240 -268 284q20 244 -200 252q-16 -24 -24 -48zM544 1504
l8 -24q220 -24 264 -224l-20 -8l-8 4q-36 24 -76 68q-100 8 -164 -4l-4 -12q-4 -64 -4 -100q-8 -28 -4 -52q-8 -32 -4 -56v-40l-4 -8q4 -44 -4 -72q8 -16 20 -24q216 -12 272 -192q108 -124 68 -276q-36 -96 -108 -152h-88q-16 -4 -44 -4q-80 4 -136 -12l-8 -20
q8 -48 -12 -88q-32 -8 -52 -20v-24q96 -104 28 -116q-168 120 -36 160l4 24q-48 52 -56 116l-28 48q-60 36 -52 -36l-12 -12q-192 60 -232 236v24q92 4 112 -100q76 -32 120 -92q20 0 32 4q8 24 8 44q40 8 64 36q36 0 60 12l4 24q-104 128 -48 272l48 8l8 32
q-172 92 -244 248l8 40q-68 72 -60 152l8 16q20 60 24 104l16 8q52 28 80 60q76 -12 128 12q4 24 4 40v60l4 24q-4 68 12 116q152 -60 104 -224zM320 1268l-8 -28l-20 -56q-8 -44 -24 -72q120 -188 140 -16v40q8 36 4 68v24q4 36 0 64l-20 16h-16zM360 1176l-4 -24
q0 -36 -4 -64l-24 20l28 96zM516 824q-36 -4 -60 -20l4 -28q32 -32 48 -68l4 -20v-108q-8 -60 -4 -100q60 -12 108 0h28q164 80 120 280l-12 12q-112 20 -180 84l-32 8q-20 -20 -24 -40zM708 728q32 -120 -68 -196q-40 4 -72 -4q8 160 -32 240q16 12 24 24q72 -52 148 -64z
" />
    <glyph glyph-name="percent" unicode="%" horiz-adv-x="1002" 
d="M44 1624l-8 -24q0 -16 -8 -40q0 -44 -12 -76l4 -16v-92l-4 -8l4 -12q-4 -52 8 -92q-4 -336 308 -248q8 24 20 40q48 -12 56 -64q-32 -12 -48 -28q-8 -24 -8 -44q-56 -64 -48 -140l-4 -12q-36 -12 -56 -36l-4 -32l-12 -32l-64 -192q-12 -52 -32 -88l-8 -12
q-16 -24 -28 -36l-48 -44q-28 -20 -44 -40v-52l20 -20l8 -12q28 -28 44 -52l24 -28q72 -104 152 -4q96 84 124 192q52 -160 204 -192q192 -72 288 100q40 160 -44 284q-20 244 -284 224q68 88 24 176q64 36 68 100q36 72 16 136l40 12l84 192q8 24 20 40l36 60l40 64
q4 48 -4 84q-48 88 -124 132q-72 8 -120 -32l-44 -12h-44q-64 24 -116 16q-12 -12 -16 -24q-128 96 -276 72q-56 -36 -84 -88zM408 1556q40 8 44 56q136 -40 240 28h32q64 -44 92 -100q8 -32 -4 -56l-80 -128q-4 -24 -16 -40q-12 -32 -28 -52q-8 -60 -36 -100q-48 20 -76 -8
l4 -28q48 -72 4 -136q0 -40 -24 -64q-44 16 -72 -8l4 -32q72 -76 12 -152q-24 -56 -104 -36q-12 -16 -12 -36q16 -20 24 -40l16 -28q32 -8 52 -20q40 4 72 68q220 4 224 -188q108 -152 12 -292q-96 -80 -196 -20q-108 28 -152 116q0 12 -4 16v64l4 12l4 116q-8 20 -20 32
l-32 -8q-60 -280 -216 -400q-20 28 -48 56l-4 8l-16 16l-4 8l-44 48q4 12 24 24l80 76l56 120l4 16l12 36l12 28l4 20l8 28l4 16l16 40q8 44 20 72q68 -4 88 16q-60 104 16 168q8 24 8 44q76 -12 80 36q-44 56 -44 120l-12 20q-68 -12 -108 36h-28l-12 -16q8 -44 -4 -72
q-84 -16 -148 16q-24 28 -40 56l-8 28q-12 72 -8 120l-4 8l-4 24l4 196q4 16 8 44l8 48q20 36 52 64q168 16 264 -104zM432 1516l4 -28l16 -32q24 -56 32 -96l-12 -24q-80 -16 -8 -80q24 -72 92 -84q12 8 20 24q-60 124 12 224v32q-12 4 -16 12q-68 24 -108 68h-16
q-12 -8 -16 -16zM192 1212q36 -28 60 -56q20 -4 32 0q16 40 0 76l16 12q44 48 68 84q28 4 44 12l8 32l-12 12l-44 64q-16 40 -36 60q-44 8 -76 4q-88 -136 -60 -300zM344 1380l-24 -20l-16 -28l-16 -20l-40 -44q-16 108 32 192q36 -16 64 -80zM648 488q-48 4 -80 -16
q-4 -60 -4 -80v-28q0 -48 -4 -80q16 -16 32 -24q152 68 120 224l-24 16h-24zM664 416q-60 -160 -44 12l32 8q12 -8 12 -20z" />
    <glyph glyph-name="ampersand" unicode="&#x26;" horiz-adv-x="1092" 
d="M316 1368q-84 128 -176 84l-24 -20q-28 -108 -4 -208q12 -40 32 -68q-24 -20 -32 -36q12 -184 116 -308l-44 -8l-8 -8l-24 -20l-52 -32q-24 -12 -36 -32q-28 -12 -44 -32l-8 -68v-32l-4 -16v-28l-4 -16q-4 -24 -4 -40v-152q84 -348 376 -328q16 16 20 32q144 -76 260 20
l8 28q48 -12 84 8q72 -100 180 -76l8 32q-4 132 -88 220q100 52 92 156q24 68 8 128l-88 68q-48 44 -96 64q-20 -12 -28 -24q-4 -40 -16 -68q-8 -52 -20 -84l-24 24l-8 12l-44 52l-8 4q-16 24 -20 28l-16 16l-20 32l-12 16l-24 32h48l32 32l40 56l12 12q44 32 72 64l4 8
l8 36l8 28v12q8 28 8 52l4 12v128q-8 28 -8 52l-4 8l-48 64q-64 144 -184 216h-188q-40 -68 -12 -132zM492 1452q120 -76 156 -192l8 -4l28 -40l16 -24q24 -156 -24 -284l-16 -16q-24 -20 -40 -28l-16 -20l-20 -20q-16 -32 -36 -52q-48 36 -88 20l-4 -20q16 -36 16 -68
l20 -32q16 -24 28 -36q12 -28 44 -64l20 -16q24 -32 40 -48l4 -8l20 -20q28 -40 52 -64l32 8l8 40l24 56q4 16 8 44l8 48l60 -52q52 -36 68 -52l-4 -20l-20 -72q4 -112 -104 -96q-8 -20 -8 -40q100 -104 108 -224q-32 8 -76 44q-16 36 -40 56q-76 -52 -128 8l-28 -8
q-8 -36 4 -68q-132 -84 -232 32q-44 -16 -24 -56l-12 -16q-184 12 -260 188q-56 168 -20 324v32q8 32 4 60q20 12 32 16l32 32q52 24 80 56q32 -4 56 -12q32 -28 48 -60l16 -60l-32 -32l-20 -16l-24 -12l-28 -28q-24 -12 -36 -24l-4 -12v-24l-4 -8q0 -36 -4 -64l-4 -20
q-4 -32 -4 -52q-8 -72 4 -120l24 -12q72 -16 120 -68l20 -8l24 8q4 40 24 64q20 4 32 0l8 4h112l28 -16q20 0 32 4l8 24q-12 24 -4 48q44 44 52 92l-4 8l-16 20l-8 16l-40 52q-12 20 -24 28l-32 36q-28 28 -44 52l-8 12l-24 28q-24 44 -44 68l-12 16l-12 20l-8 8l-44 64
q-152 136 -168 320q56 0 56 44q-92 104 -64 232q20 84 116 -44l16 -48l-12 -28v-56q-4 -44 -4 -72q-44 0 -52 -36q68 -96 80 -192q64 -56 128 -68l16 20q-12 48 0 84l28 28q32 56 84 80q64 148 -16 264q-92 -8 -148 48q-48 44 -32 96h128zM512 1256l24 -40q0 -80 -20 -136
q-44 -24 -72 -56q-12 -32 -40 -56q-16 -36 -16 -64l-40 40q-12 76 -48 132l28 28l4 12q-8 96 16 172l-20 68q72 -100 184 -100zM412 572l68 -80q0 -8 8 -12q20 -28 40 -44l16 -24l12 -8l44 -64q-40 -36 -56 -84q-64 16 -120 -4q-68 0 -100 -48l-8 8q-20 12 -32 16
q-40 16 -64 36l4 20v68l4 28q12 64 12 100l48 36l8 8q52 28 84 72l4 20zM532 208q-36 -8 -64 4z" />
    <glyph glyph-name="quotesingle" unicode="'" horiz-adv-x="430" 
d="M101 1521v-172l-4 -32q8 -36 -4 -64q4 -20 -4 -40l4 -8q-12 -36 -12 -64q-28 -44 -40 -72v-108q72 -152 200 -116l8 16v12l28 64q20 44 28 76l4 20l4 44l4 24v368q-60 132 -184 124q-28 -32 -32 -72zM265 1453l4 -16v-188q0 -36 -4 -64q8 -36 -4 -64l4 -12l-4 -20l-4 -20
q0 -36 -8 -64l-28 -60q-16 -28 -20 -52l-20 -8q-64 44 -92 104q-4 40 4 68l32 44v12l8 20q4 40 16 88v40l4 20v108q-4 96 8 156q72 -28 104 -92z" />
    <glyph glyph-name="quotesingle" unicode="&#x2019;" horiz-adv-x="430" 
d="M101 1521v-172l-4 -32q8 -36 -4 -64q4 -20 -4 -40l4 -8q-12 -36 -12 -64q-28 -44 -40 -72v-108q72 -152 200 -116l8 16v12l28 64q20 44 28 76l4 20l4 44l4 24v368q-60 132 -184 124q-28 -32 -32 -72zM265 1453l4 -16v-188q0 -36 -4 -64q8 -36 -4 -64l4 -12l-4 -20l-4 -20
q0 -36 -8 -64l-28 -60q-16 -28 -20 -52l-20 -8q-64 44 -92 104q-4 40 4 68l32 44v12l8 20q4 40 16 88v40l4 20v108q-4 96 8 156q72 -28 104 -92z" />
    <glyph glyph-name="quotesingle" unicode="&#x2018;" horiz-adv-x="430" 
d="M101 1521v-172l-4 -32q8 -36 -4 -64q4 -20 -4 -40l4 -8q-12 -36 -12 -64q-28 -44 -40 -72v-108q72 -152 200 -116l8 16v12l28 64q20 44 28 76l4 20l4 44l4 24v368q-60 132 -184 124q-28 -32 -32 -72zM265 1453l4 -16v-188q0 -36 -4 -64q8 -36 -4 -64l4 -12l-4 -20l-4 -20
q0 -36 -8 -64l-28 -60q-16 -28 -20 -52l-20 -8q-64 44 -92 104q-4 40 4 68l32 44v12l8 20q4 40 16 88v40l4 20v108q-4 96 8 156q72 -28 104 -92z" />
    <glyph glyph-name="parenleft" unicode="(" horiz-adv-x="653" 
d="M372 1676q-60 -68 -88 -124l-12 -12l-20 -24l-4 -8l-20 -20l-4 -8q-20 -20 -32 -40q-20 -20 -28 -32l-108 -164q-16 -56 -32 -88q4 -56 20 -92q-32 -24 -44 -48q-24 -188 72 -316l-20 -24q0 -76 36 -132l-4 -8l8 -8q16 -48 40 -76q52 -128 160 -184q12 -108 84 -168
q32 -56 76 -88q72 -28 128 4q4 84 -28 148q-72 116 -176 164q4 32 -8 60l-68 124q-12 32 -24 52l-4 12l-32 64l-28 24l16 24v60l-4 12v144q-8 28 -24 44l32 12l8 12q8 36 24 64l4 8q20 52 44 88l12 16l12 12q20 32 40 52l36 48l20 20l12 16l16 24l8 8l48 64l8 16l20 24
l36 60q-20 196 -200 196zM524 1500l-12 -16l-12 -16q-40 -52 -60 -88l-8 -8q-32 -36 -48 -68l-8 4q-12 -28 -40 -56q-16 -24 -32 -40l-4 -8l-60 -84q-16 -44 -36 -72q0 -24 -8 -40q-48 0 -72 -28q8 -28 28 -48q8 -20 16 -32l4 -196q-28 -20 -32 -44q24 -28 52 -44
q8 -28 20 -44l28 -52q8 -24 20 -40l-4 -8q56 -72 68 -144l-32 -4q-148 148 -184 332q32 16 36 44q-124 128 -92 296l12 8q48 -16 68 20q-48 60 -52 124l8 16l20 64l12 16l16 24q16 32 32 52q16 28 36 48l20 28l20 24l52 60q12 20 28 32l8 20l8 8l16 24l4 8l48 64
q112 -28 116 -136zM452 192q76 -60 72 -144q-80 20 -108 92q-72 56 -68 140q72 -24 104 -88z" />
    <glyph glyph-name="parenright" unicode=")" horiz-adv-x="590" 
d="M12 1616l4 -12q4 -28 12 -48l40 -116q12 -40 28 -68l4 -28l16 -28v-12q20 -44 28 -80l8 -12l12 -44q28 -72 36 -120l8 -32l4 -8l28 -128l4 -44l4 -28v-88q12 -44 24 -68l-20 -16q-48 -112 -40 -216q-132 -52 -140 -176q-76 -8 -72 -72l12 -8q12 -20 24 -32l28 -32
q12 -20 24 -28q32 -48 60 -72q72 8 68 80q64 4 92 56q56 60 52 132l48 20q80 136 20 264q28 20 40 40v168l-4 16l-4 20v16l-8 20q-4 32 -12 56v12l-8 24l-4 16l-20 100l-4 16l-80 236l-12 24l-4 20l-8 16l-48 128q-16 84 -44 140q-24 36 -48 56q-60 36 -124 28
q-24 -48 -24 -88zM156 1600q8 -20 24 -48l12 -40q8 -52 24 -88l20 -48l4 -20l8 -16l92 -264l4 -16l4 -16l8 -20v-20l8 -20q0 -8 8 -28q4 -32 16 -84l24 -92l4 -24v-64q0 -20 -4 -32q8 -24 8 -44l-8 -12q-32 0 -56 -16v-24q80 -100 20 -228l-12 -12q-52 24 -84 0l4 -32
q56 -76 -44 -156q-44 0 -76 24l-24 -12q0 -44 20 -80l-8 8l-12 16q-12 20 -32 40l-40 44q56 -16 72 4q-4 36 -20 64q24 72 76 116q48 -16 84 -8l4 28q-48 120 16 220q32 -4 52 12v12l-12 28q-32 44 -40 88l-4 136l-4 16l-16 68l-4 36l-12 40l-4 20l-56 172q-16 56 -32 88
q0 12 -4 16q0 12 -4 16l-12 28l-4 16q-8 24 -12 28l-20 64q-16 24 -20 40q-28 72 -20 132q56 -20 84 -56z" />
    <glyph glyph-name="asterisk" unicode="*" horiz-adv-x="929" 
d="M448 1282l-20 -36q-28 -96 -84 -164l-40 44l-48 52l-4 8l-44 48q-32 32 -60 48l-68 4q-84 -128 56 -232l4 -8q20 -20 28 -32q24 -32 40 -48l-12 -8l-20 -8q-40 -12 -68 -16l-60 -20q-32 -16 -48 -32v-80q72 -176 240 -124q12 -168 156 -216q48 -8 76 28v184q-8 60 4 104
h76q164 -160 256 -96q4 172 -140 240l-8 8q-24 28 -48 48q64 116 12 220q-60 100 -168 92zM552 986q0 -24 8 -40q44 -28 68 -64q116 -52 128 -168l-8 -4l-28 16l-12 4l-12 12l-28 16l-8 8q-24 12 -40 32l-44 32l-24 4q-36 -8 -66 -6t-58 -6q-4 -12 -8 -16l-4 -36v-192
q0 -36 -4 -64q-136 52 -116 204l-16 24h-28q-140 -68 -200 72l-4 36q32 20 56 28q104 16 176 72q0 12 -12 32l-20 24q-24 20 -40 48l-36 40q-28 28 -44 52l-8 8l-24 44q4 20 12 32l32 -8l12 -8l28 -28q16 -28 40 -48q16 -16 24 -32l20 -16q32 -48 68 -76q120 72 152 228
q188 -80 68 -256z" />
    <glyph glyph-name="plus" unicode="+" horiz-adv-x="953" 
d="M361 1363v-412q-36 -8 -68 0h-272q-24 -12 -40 -24q-4 -148 108 -220l56 -8h12q20 0 32 -4l16 4h144l16 -12l4 -188q44 -72 104 -108q56 -16 104 0l4 16l4 16q4 24 4 40v228l20 4l232 -4l36 20q12 148 -104 224q-24 4 -68 4q-12 0 -16 4l-12 4q-52 -4 -88 4v280
q-8 24 -8 48q-68 132 -196 124q-16 -20 -24 -40zM529 1263l4 -24l4 -332l32 -12q56 0 100 -4q44 -8 76 -4q76 -56 84 -140l-16 -4h-112q-44 8 -76 4l-76 -4q-24 -48 -16 -100v-208q-84 12 -112 84l-4 200l-12 20q-8 0 -18 4t-38 8l-232 4q-64 44 -84 112q0 20 4 32h172
q24 0 40 -4h96q32 -4 60 4l12 20v340q-4 56 4 92q80 -20 108 -88z" />
    <glyph glyph-name="comma" unicode="," horiz-adv-x="572" 
d="M303 347q-88 -316 -356 -452v-88q192 -316 512 192q132 228 -56 372h-80zM383 319q184 -156 -72 -436q-200 -256 -316 -52v32q292 168 356 460z" />
    <glyph glyph-name="hyphen" unicode="-" horiz-adv-x="948" 
d="M80 690h708q48 148 -96 224h-704q-56 -148 92 -224zM668 866q64 -48 88 -112q-8 -12 -16 -16h-552q-56 -4 -92 4q-80 44 -68 124h640z" />
    <glyph glyph-name="hyphen" unicode="&#x2010;" horiz-adv-x="948" 
d="M80 690h708q48 148 -96 224h-704q-56 -148 92 -224zM668 866q64 -48 88 -112q-8 -12 -16 -16h-552q-56 -4 -92 4q-80 44 -68 124h640z" />
    <glyph glyph-name="hyphen" unicode="&#xad;" horiz-adv-x="948" 
d="M80 690h708q48 148 -96 224h-704q-56 -148 92 -224zM668 866q64 -48 88 -112q-8 -12 -16 -16h-552q-56 -4 -92 4q-80 44 -68 124h640z" />
    <glyph glyph-name="period" unicode="." horiz-adv-x="403" 
d="M28 188q-68 -84 8 -144q68 -60 148 -36l32 28q144 320 -144 308q-44 -76 -44 -156zM184 92q-52 -88 -136 12v16q16 28 28 40q12 100 28 136q164 -16 80 -204z" />
    <glyph glyph-name="slash" unicode="/" horiz-adv-x="1147" 
d="M941 1648q-32 -24 -60 -36l-8 -16l-24 -100l-8 -8q-12 -20 -16 -32q-24 -24 -32 -48q-104 -120 -132 -252l-28 -60l4 -76q-124 -80 -108 -216q-76 -20 -96 -92q-40 -60 -28 -124q-24 -8 -40 -8l-12 -12l-4 -12l-56 -116q-204 -136 -296 -328q-20 -72 8 -132
q-48 -40 -40 -96l16 -8l52 -36l8 -8l48 -32q32 -20 48 -36h36q20 56 -8 100q28 16 40 32q96 232 300 336l20 52q0 8 12 28l32 76q0 32 -12 56q52 16 80 56q52 84 40 152q60 24 84 72q44 80 40 156q40 8 56 40l20 64q24 56 32 88l4 12q16 28 32 44l32 52l8 8l72 112l12 32
l24 64q36 20 56 40q0 140 -104 212l-12 4h-84zM1097 1464l-20 -16q-20 -8 -32 -20l-24 -76q-24 -52 -46 -84t-46 -52q-20 -60 -60 -92l-4 -16l-64 -172q-56 24 -84 -4q56 -112 -16 -208q-44 -16 -88 4l-16 -16l4 -32q60 -48 -24 -172q-36 -12 -68 4l-28 -16q0 -16 8 -36
q20 -32 28 -56l-4 -8q-12 -36 -28 -60l-24 -64l-12 -16q-220 -124 -296 -336q-116 24 -40 -64q-32 12 -52 32q-28 16 -44 32l4 8q44 -16 68 16q-60 72 -40 148q104 200 276 304q16 12 28 32l44 104q44 -16 80 0l4 24q-56 72 28 188q68 -12 92 8q-48 116 36 212q44 -28 80 -4
l4 12q-32 52 -36 104q20 36 28 64q32 136 116 224l40 60q44 72 52 144q32 20 48 36q124 -16 128 -140z" />
    <glyph glyph-name="zero" unicode="0" horiz-adv-x="1166" 
d="M388 1700q-380 -24 -376 -496q12 -28 24 -44l-28 -28q-36 -172 40 -304l-24 -16q-32 -208 88 -348q-32 -48 -20 -100q240 -596 780 -228q24 48 16 92q40 12 64 36q56 124 12 240l28 12q68 160 -4 296q24 12 36 28v192l-4 12l-4 80q-92 388 -416 552h-24q-32 12 -60 12
l-8 8l-28 16h-80zM444 1664q72 -36 136 -40q428 -236 392 -756q-32 -4 -56 -24l4 -32q96 -120 28 -252q-48 4 -60 -12v-24q64 -96 32 -196q-12 -28 -32 -44q-40 32 -76 12v-36q28 -36 24 -80q-492 -332 -692 200v36l28 20l12 -28q84 -72 100 -168l24 -28q196 -40 340 72
l8 -4l8 8q40 16 64 40q44 -20 84 -8l4 24q-44 80 -8 156q0 28 4 48l16 12q36 -4 60 24l-4 20q-44 52 -44 116q12 36 8 68l4 24l4 36q36 0 60 20l-4 24q-36 36 -56 80q40 368 -216 508q-244 72 -404 -112l-12 -44l-16 -52l-4 -16l-4 -16l-4 -28l-12 -88l-4 -8q-36 -4 -60 -20
v-24q32 -36 48 -64v-104q8 -28 0 -48q8 -24 8 -44q-52 -8 -56 -48q80 -92 80 -196q16 -48 16 -92q-16 -16 -28 -24q-136 148 -112 324q44 4 48 44q-112 136 -60 288q32 -8 56 12l-4 28q-36 32 -52 72q4 316 188 380q68 60 152 44l28 20h12zM804 956l28 -52q-52 -68 -36 -144
q-20 -84 16 -148q-60 -32 -56 -96q-28 -72 -16 -132q-20 -8 -36 -4q-48 -40 -92 -56q-128 -84 -264 -68l-20 20q-24 92 -80 152q28 48 20 100l-12 40q-4 112 -60 188q24 20 32 44v52q-8 32 -4 56v40q-8 48 -4 80l-8 8l-16 24q24 16 36 28v12l28 152l4 24l24 64
q76 76 164 108q396 8 352 -492z" />
    <glyph glyph-name="one" unicode="1" horiz-adv-x="990" 
d="M384 1664l-68 -44l-40 -12l-16 -4q-32 -12 -56 -16l-68 -24q-28 -12 -48 -16q-36 -20 -56 -48q20 -148 140 -208h48l12 8q20 4 32 12l28 12l72 20q4 -56 28 -96l-28 -16q-60 -156 8 -284q-24 -12 -36 -32q-40 -176 56 -312q-20 -16 -28 -28v-52q4 -24 0 -44l8 -12
q-4 -24 0 -44v-68q4 -60 -4 -100l-8 -4h-136q-24 0 -40 4h-128l-28 -4q-20 -12 -28 -24q-4 -144 104 -216q52 -12 88 -12h696q24 56 16 108q-44 84 -108 128l-40 8h-32l-8 4h-16q-60 -4 -100 0q16 192 -60 296l20 28q20 152 -36 272l40 44q24 144 -16 256q24 12 36 32l4 12
l12 148l4 8v32q16 100 -8 180q-68 124 -200 112zM552 1520v-16l4 -44q-8 -40 -4 -68v-16q-4 -52 -8 -56v-28l-8 -88q-40 -4 -68 -20l4 -32q80 -108 36 -248q-52 8 -64 -32q84 -132 64 -272q-44 -16 -48 -52l8 -16q40 -24 60 -56l4 -32l4 -16l-4 -8q16 -40 12 -76v-44l4 -12
l4 -80q16 -12 36 -16h152l28 -4q60 -48 88 -108l-8 -32l-592 4q-72 -4 -120 8q-52 32 -76 80q-8 32 -4 60q12 4 32 0h92l12 -4h192l24 4q8 12 16 16l4 156l-4 12v96l-4 8l-4 64q40 12 48 44q-108 136 -80 292q44 0 64 28q-92 140 -36 280q28 0 48 4l8 32q-56 64 -44 140
l-12 28q-24 8 -48 4l-56 -20l-8 -4l-32 -8q-44 -24 -80 -28q-84 56 -100 140l16 12l36 12l80 28l20 4l16 4l100 32l8 8q36 20 56 36q100 -12 132 -100z" />
    <glyph glyph-name="two" unicode="2" horiz-adv-x="1206" 
d="M176 1544q-20 -16 -32 -34t-24 -30q-20 -12 -32 -24q-56 -36 -88 -68q-4 -140 100 -212q48 -16 92 -8l12 12l16 12l20 16l48 32l24 20l40 40q44 72 100 112q128 12 232 -44q-12 -88 16 -156q-60 -40 -56 -108q-40 -68 -16 -132q-20 -8 -36 -8l-8 -8l-44 -60l-12 -16
l-16 -24q-60 -52 -96 -88q-64 -112 -164 -172l-20 -32q-48 -56 -56 -112q-60 -4 -88 -48q-48 -84 -52 -164l24 -48q20 -116 104 -176q176 -48 248 20l8 -4l28 -24q12 -4 32 -8h404q56 -4 92 4l20 28v276l-4 24q-16 44 -32 68l-16 4h-28l-12 4h-116l-12 -12l-4 -12
q12 -76 -4 -136h-244l-24 4q-104 16 -156 -32l-8 8l-24 16l8 40q32 -8 56 0l4 8l32 32q20 32 40 52l68 64q64 56 100 116l36 36l8 4l68 72l56 88q4 44 -8 76q72 28 76 96q36 92 4 172l8 8l28 12q88 320 -156 380q-156 208 -404 168q-108 -40 -160 -124zM712 1444q24 -4 40 4
q160 -104 100 -284q-52 0 -76 -28q84 -124 8 -244q-52 20 -84 -4v-12q32 -52 36 -100l-12 -24q-44 -72 -96 -112l-40 -36q-32 -52 -60 -84l-24 -24q-12 -8 -40 -32l-16 -16q-28 -32 -52 -48l-12 -20l-20 -24l-16 -24q-52 36 -96 16q16 -76 0 -136l8 -8q60 -32 100 -76
q40 16 32 68q28 8 52 4q60 0 84 -4h280l16 20v16l4 8l4 112l12 4l80 -4l12 -28l12 -44v-164q0 -36 -4 -64l-24 -4l-52 4h-368l-24 4l-8 8q-20 12 -28 24q-24 24 -40 36q-36 -4 -36 -64q-92 -20 -172 4q-76 64 -76 144l-28 44q16 88 68 148q56 -28 92 -12l4 12q-16 36 -20 68
l24 36q28 44 56 68l40 28l92 108q8 8 20 28l32 32q32 24 50 42t26 34l4 8l48 64q48 -20 80 4l4 12l-4 8q-28 48 -36 92q32 56 36 116l8 8q40 -8 68 12q-64 120 -36 236q-44 28 -96 32q-108 52 -212 28l-16 -8l-8 -8q-28 -16 -72 -60l-4 -8q-16 -32 -28 -48q-28 -32 -54 -48
t-42 -32q-32 -16 -52 -36q-60 20 -92 68q-16 44 -16 76l20 20l88 60q20 36 52 56q52 96 148 120l44 4q212 -8 308 -176z" />
    <glyph glyph-name="three" unicode="3" horiz-adv-x="1180" 
d="M112 1592l-72 -20q-36 -76 -28 -152q-28 -108 8 -200q60 -84 148 -104l44 28q12 40 20 100l4 28q0 44 8 72q12 0 16 4h16l44 4h40q28 0 48 -4h44l28 -4l88 -4l-16 -12l-144 -148l-20 -28l-68 -76q-28 -20 -40 -44q-36 -196 196 -264q116 -36 220 -12l12 20q32 -24 60 -36
q16 -48 48 -76q-16 -12 -24 -24q-4 -96 -32 -160l8 -32q-56 -12 -84 -48q-176 -124 -368 -136l-12 -4l-44 -4l-8 -4h-60l-24 -4q-24 -16 -36 -36q-40 24 -80 28q-36 -12 -32 -44l16 -24l20 -44l32 -56l4 -12q12 -20 16 -32l16 -28q52 -8 84 28q24 -20 44 -28q388 -8 660 212
l8 80l36 4l32 32q64 160 -28 280l28 20q-32 260 -256 360l-52 4q-28 -16 -40 -36l-28 20q128 104 160 208q68 -4 104 44q56 48 60 116q156 92 -72 252h-56q-96 4 -156 -12l-16 -24q-16 16 -44 24l-28 4h-48l-24 4l-360 4zM392 1544q28 0 48 -8q16 4 28 0q72 4 120 -8l16 -12
l60 -48q36 24 28 72h28l12 4q88 -4 116 0q72 -52 100 -124l-4 -8l-12 -8q-32 -8 -56 -24q16 -100 -80 -148q-52 36 -92 16q0 -24 8 -40l4 -36q-8 -20 -16 -32l-116 -112l-4 -8l-32 -40v-28q56 -28 84 -76l12 -4l28 4q26 73 49.5 58l90.5 -58q100 -96 120 -220
q-40 -12 -44 -48q124 -124 40 -264q-48 24 -80 0q4 -36 16 -64v-36q-280 -208 -596 -192q-44 32 -68 64h-16q-36 -20 -16 -52q-8 -8 -16 -4l-8 20q-32 48 -40 88q28 -32 56 -40q24 28 28 68q52 -4 88 8l28 4l144 20l16 4l24 8l16 4l32 12h12l4 8l24 8q32 16 60 24q8 4 24 20
l44 32q32 24 48 44q44 -32 84 -16q4 40 -16 68l-4 32l4 8l20 68l4 64q36 8 44 44q-56 56 -76 116q-16 16 -36 20l-32 20q-32 32 -56 48q-36 -24 -36 -64q-272 -12 -328 184q4 8 8 28l44 40l24 28l4 8q20 20 28 32l32 40l140 140q44 -28 88 -20q4 52 -16 92q-92 32 -176 24
l-8 4h-28l-8 4h-56l-8 4h-72l-20 -4l-32 -4q-36 0 -64 -12q-16 -28 -20 -56q4 -92 -28 -160q-144 84 -92 236q-4 68 16 120q48 8 80 20z" />
    <glyph glyph-name="four" unicode="4" horiz-adv-x="1058" 
d="M156 1676l-4 -16l-4 -24l-8 -40l-12 -24v-12l-4 -28q-12 -28 -12 -52q-4 -8 -8 -24l-8 -44l-8 -20q-4 -36 -12 -64l-4 -16l-4 -16l-4 -16l-4 -20q0 -36 -12 -64l-4 -24q-4 -44 -8 -48v-16q-4 -24 -8 -60q-12 -48 -8 -84l24 -48q-32 -16 -44 -44v-228q12 -24 24 -36
q-8 -56 8 -96q132 -184 332 -108l12 24q80 -52 160 -44q8 -16 8 -28q12 -64 40 -104q-48 -56 -36 -128q40 -36 80 -56q60 -56 120 -68q64 28 -8 164q20 12 28 24q4 24 4 40v32l4 12l-8 28v80l8 4h60q112 -20 168 28q-8 240 -244 228v348l4 44l4 8v112l4 28l4 28l4 28v32
q12 64 -4 116q-64 108 -172 124q-32 -24 -44 -52q0 -40 -8 -68v-16l-8 -68q0 -56 -8 -92q8 -40 -4 -76l4 -8l4 -492l-12 4h-100q-64 8 -112 -8l-12 -28q-40 28 -76 40q8 96 -28 164l40 24l4 12l4 44l8 24q0 36 8 64l8 48l4 24l20 104q0 12 8 32q0 20 12 52l4 24q4 36 12 60
l4 8l28 108q8 48 20 80l4 28l-4 32q-8 24 -8 44q-64 124 -188 116q-24 -32 -32 -60zM324 1604q12 -48 4 -88l-16 -60l-4 -16l-28 -92v-20q-12 -32 -12 -56l-32 -132v-12l-4 -24q-8 -32 -8 -60l-8 -12l-8 -64l-8 -28v-24l-4 -12l-4 -36q-48 0 -68 -28q68 -116 48 -236l8 -8
q40 -8 68 -20q40 -28 64 -52q44 12 44 64l16 4l100 -4q20 0 32 -4h60l24 4l16 16q-4 48 -16 80v452q8 40 4 68v12q8 24 4 48v32l4 16l4 28v28q8 40 8 72l16 12q64 -36 96 -88l8 -28q0 -40 -4 -68l-4 -12v-40q-12 -60 -8 -100v-16l-8 -88v-404q64 -44 156 -28q80 -56 88 -140
l-12 -4q-128 12 -216 -12l-8 -12l4 -192q-48 -4 -60 -44q48 -52 60 -108l-16 12l-28 20l-76 52q-4 52 44 48q16 16 20 36q-76 88 -72 192q-20 12 -36 16q-112 -20 -188 60q-44 -4 -44 -56q-176 -40 -252 108l8 68l-8 8l-24 36v88l4 28v48l4 24q44 0 72 24l-8 24
q-32 40 -48 76q0 12 4 32l12 80l4 20l4 32q4 40 12 64q4 36 10 66t14 54l4 16q4 32 12 56l4 16l8 40l4 16q8 24 8 44l8 24v12l8 12q8 72 32 120q76 -16 104 -80z" />
    <glyph glyph-name="five" unicode="5" horiz-adv-x="1058" 
d="M96 1628q-36 -124 24 -224q-24 -20 -36 -44q-24 -144 24 -264q-40 -60 -28 -124q36 -100 124 -144q116 8 180 80q36 -28 72 -40l44 -4l32 -8q72 -8 120 -36v-28q4 -12 8 -40l4 -52q4 -28 12 -56l4 -108q-12 -72 0 -124q-132 -28 -164 -120q-64 16 -120 -8
q-64 -4 -100 -48q-28 20 -52 28l-68 -4q-64 -16 -108 -16q-20 -16 -24 -28q-60 -4 -44 -64q44 -100 132 -152h72q96 -4 156 16q16 20 20 40q84 -44 164 -16q76 12 96 80q80 -16 140 32q80 36 64 116q32 12 52 32l4 24l4 24v120q4 56 -4 92l-4 12v24l-12 68q0 32 -8 60v48
l-4 32l-12 44l-44 64l-40 40q-48 60 -100 92l-108 40l-40 8l-24 4q-40 16 -72 16q-48 12 -84 12q-20 -12 -32 -36l-12 20q20 116 -36 208q44 40 52 88l536 4q28 8 48 24q12 152 -108 224h-636q-40 -4 -64 -28zM772 1608q80 -56 84 -140l-28 -4h-236l-24 -4l-20 -4l-272 -4
q-20 -36 -20 -72q-24 -16 -48 -16l-16 -20l8 -28q84 -108 48 -228l4 -8q52 -64 76 -84q48 12 28 56l12 16h24l16 -4l80 -20q36 -4 64 -16q64 -12 104 -36q28 -24 48 -36l20 -28l16 -20l16 -12q20 -28 36 -44l16 -24l8 -28q4 -12 4 -40q8 -40 4 -68l12 -60v-12l12 -68v-56
l4 -28v-56q4 -48 -12 -88q-48 20 -76 -8q60 -100 -12 -116q-64 -60 -156 0q-32 -32 -12 -84q-124 -76 -224 24q-28 -8 -36 -80l-52 -4l-32 -8h-84q-68 48 -100 108l12 4l64 4q12 20 16 32q100 32 156 -44l20 -4q32 28 24 72q116 36 204 -12l16 4l12 16q-8 40 -8 72
q72 56 152 44q20 8 32 16q-4 40 -28 72v36l4 44l-12 200l-4 12l-4 28l-4 28l-4 28l-4 44l-8 8q-52 28 -76 32l-36 12q-12 0 -16 4l-28 4l-72 12q-52 24 -80 64l-32 4q-16 -32 -16 -64q-28 -16 -52 -16q-40 -40 -88 -16q-72 64 -60 148q36 -4 48 28q-84 140 -44 280
q36 4 56 24q-80 112 -48 224q24 0 40 4h108q60 -4 100 4h376zM508 240q-112 -16 -60 8q32 0 60 -8z" />
    <glyph glyph-name="six" unicode="6" horiz-adv-x="1160" 
d="M128 1577q-40 -64 -20 -128q-80 -36 -64 -120q-24 -92 16 -168q-32 -16 -48 -44v-48q-32 -124 8 -216l-20 -20q-20 -272 92 -492q44 -144 136 -236q44 -84 112 -128l40 -8l248 -4l12 32l8 -4q24 -16 48 -24q192 12 168 176q32 16 52 32q60 128 16 244l36 20q8 24 8 44
v208l-4 8q-20 104 -76 184l-56 56q-20 12 -32 24q-284 136 -560 112l4 8l4 16l4 20l4 28v32l4 12q0 20 4 32l4 64l-8 28q56 24 84 72l60 60l24 16l12 4l48 8l24 4h196l12 -8l60 -60l24 -16q44 -4 80 4q24 24 28 52v36q-160 300 -500 248q-184 -32 -292 -160zM868 1469
l-4 -16l-32 -4l-12 12q-20 12 -28 24q-28 32 -56 48h-244l-80 -20q-20 -12 -40 -28l-44 -40l-8 -12l-52 -56q-48 16 -80 -4q12 -56 36 -92l-4 -16l-4 -52l-8 -28l4 -8q-8 -36 -8 -64q-56 4 -64 -40l4 -12q16 -12 24 -24l16 -28q20 -36 40 -56q52 -20 52 72q276 12 500 -104
l72 -64q64 -92 72 -184l8 -8v-48q4 -80 -8 -136q-40 -4 -64 -16l4 -36q76 -88 8 -224q-36 0 -64 12l-20 -16v-32q60 -60 4 -116q-96 -64 -160 32h-24q-20 -28 -8 -64l-8 -8l-84 4h-12q-20 0 -32 4q-60 -4 -100 8q-328 348 -308 776q24 16 32 36l-28 52v104q12 60 8 100
q32 16 60 8l16 16v20q-72 88 -44 232q8 16 20 24q40 -16 72 4v24q-40 48 -32 96q104 136 256 160q324 44 456 -212zM260 869q-32 -24 -64 -32q-12 -12 -16 -24q-20 -28 -40 -44q8 -44 28 -72v-80l4 -12v-24q0 -36 8 -64l-4 -8l4 -28l8 -20v-12l16 -60q32 -32 48 -68
q12 -88 72 -148q12 -4 16 -8h44q8 0 28 -8q56 4 92 -4l8 -4l40 -32q12 -24 40 -24q24 28 16 68q60 28 96 64q44 -4 76 8l4 20q-44 88 -8 164v44l20 16q52 -8 60 36q-32 36 -48 68v52q0 20 4 32q0 76 -8 124l-12 16l-140 52h-12l-28 8l-16 4l-28 4l-28 4l-44 4h-128
q-44 24 -68 52q-12 8 -24 8q-28 -28 -16 -72zM380 825q208 16 376 -68l4 -60q-20 -92 16 -168q-60 -40 -56 -108q-28 -72 -8 -136q-48 -20 -76 -48q-52 -16 -80 -56q-56 40 -120 28q-40 12 -72 8q-56 60 -64 132l-52 80q-8 44 -16 68v44q-12 48 -8 84q-8 52 -4 88l-20 40
l32 36q52 20 80 60q36 -20 68 -24z" />
    <glyph glyph-name="seven" unicode="7" horiz-adv-x="961" 
d="M112 1332l24 -4h432q-16 -44 -8 -84q-80 -20 -106 -98t-6 -146q-28 -12 -44 -36q-12 -40 -16 -68l-24 -88q0 -12 -4 -16l-4 -20l-24 -76l-4 -16l-28 -92q-16 -16 -24 -36l-76 -80q-28 -32 -48 -48q-16 -44 -16 -76q-88 -12 -120 -88q-28 -84 -8 -156q116 -176 208 -56
q60 64 60 140q32 -8 56 4q16 20 32 32l44 44q20 28 40 44l28 32q20 36 40 56l36 104l4 16l12 36q0 8 4 28l12 36q4 32 16 76l4 20q20 72 20 128l-16 36q56 36 64 88q44 60 32 124q72 24 92 88q40 68 24 136l40 8q60 164 -88 248h-756q-52 -160 96 -240zM744 1524
q100 -52 80 -148q-48 12 -76 -16q52 -124 -36 -212q-48 20 -80 -4q40 -84 -8 -144q-4 -76 -72 -64l-16 -12q4 -52 36 -92v-16q-4 -8 -4 -16t-8 -28q-4 -40 -12 -64l-4 -16l-80 -272l-12 -12l-32 -44l-8 -12l-44 -44l-4 -8l-20 -20q-32 -24 -48 -44q-40 24 -76 28
q-20 -40 4 -72v-28q-32 -72 -76 -116q-44 20 -68 52q-12 20 -24 32q-20 100 56 160q72 -32 96 -16l4 12q-24 48 -20 92l36 40l20 24l60 60q16 28 36 44l24 76l4 16l12 44l4 16q12 24 20 60l8 24l4 16l8 28l20 100l4 12q44 0 72 16v24q-48 60 -28 128q16 48 44 76q48 -8 84 0
l8 20q-40 76 4 140v24q-28 20 -56 16h-448q-88 52 -76 140h688z" />
    <glyph glyph-name="eight" unicode="8" horiz-adv-x="1056" 
d="M260 1632q-20 -12 -36 -16l-12 -12q-20 -8 -32 -16l-28 -16q-56 -16 -92 -48l-4 -24l-4 -28v-48l-4 -24l-4 -44q-8 -44 -4 -76q-8 -44 -4 -76v-48l4 -12l4 -68l4 -32l8 -28q52 -80 116 -120l12 -36q-136 -104 -124 -240q-40 -12 -60 -48v-160q20 -88 72 -152
q-44 -100 36 -168q112 -120 272 -92q20 16 28 36q68 -44 140 -36h164q140 92 208 208q40 160 0 296q-24 56 -52 88q-16 148 -156 220q228 116 152 392v56l-4 8v48q-4 12 -8 32q-36 64 -76 100q-12 20 -32 36l-4 8l-12 12l-4 8l-44 48l-20 20q-44 48 -88 68q-64 8 -104 -28
q-64 48 -140 40q-40 -20 -68 -28zM452 1548l20 -8l28 12q28 108 152 -40l12 -16q24 -24 32 -44l16 -12q12 -20 24 -28l28 -28l4 -8q24 -32 36 -56l8 -124q32 -136 -16 -252q-156 -176 -276 8q-4 24 0 44q196 32 180 212v60q-8 32 -8 48v44l-8 12l-68 76q-56 24 -84 64
l-20 12q-32 -12 -28 -44l-16 -12l-28 -8l-28 -12l-64 -32l-24 -16l-20 -8l-8 -8q-40 -12 -68 -36l-4 -12v-44l-4 -12v-20l-4 -12v-56q-8 -36 -4 -64v-12q-4 -40 -4 -68l4 -12q0 -48 8 -80q88 -28 120 -68q100 -32 144 -116l24 -8q-16 -24 -24 -44q-28 4 -44 12
q-44 32 -84 40q-28 -40 0 -84l-44 -20l-28 -36q-12 -20 -24 -32l-24 -40l-20 -28q-40 20 -72 4q0 -36 16 -60q16 -68 4 -128q16 -44 16 -80q-20 -12 -28 -32l8 -32q112 8 172 -72l20 -8q32 8 40 72q32 0 52 -4l32 8q84 -4 112 0l20 16q204 140 148 344q8 24 8 48l-20 16
q-116 32 -184 108q-12 24 -32 36l12 36h12q60 -8 100 -24q156 -68 164 -212q116 -152 56 -336q-20 -36 -60 -76q-12 -12 -32 -28q-48 -52 -88 -76h-68q-96 -4 -156 8l-8 4l-20 16q-28 20 -40 40l-12 4q-32 -8 -32 -72q-192 -16 -252 156q28 32 28 68q-116 136 -72 288
q48 -20 76 8q-12 36 -28 60q20 140 136 200l4 24q-24 44 -32 76q-76 48 -112 112l-8 44l-4 216q4 24 8 60l4 28l4 100q8 8 24 16l48 16l24 16q24 8 52 28q20 8 32 16q40 12 64 28q68 -8 100 -64zM532 1432q32 -24 56 -36q28 -36 52 -56q8 -76 4 -124q20 -152 -136 -164
q-28 -12 -44 -36q-4 -92 48 -148q4 -12 -12 -20q-48 56 -108 80l-16 8q-56 44 -108 60l-4 44v124l4 12l8 128l8 16l12 4q24 8 40 24l56 28q24 12 28 16l48 20q32 8 56 24zM528 688q80 -80 176 -112q0 -36 12 -60q16 -132 -84 -200q-24 -32 -48 -52l-12 -8q-32 -8 -56 -4h-68
l-8 -4h-76q-20 -16 -28 -36q-48 32 -96 40l-4 24l-16 72q12 72 -8 128q24 8 36 8l8 8l12 16q16 16 24 36l48 72q72 20 68 72q64 -36 120 0z" />
    <glyph glyph-name="nine" unicode="9" horiz-adv-x="1140" 
d="M88 1648l-8 -16v-76l-4 -12q-4 -44 -4 -72l-8 -32v-84l20 -32l-28 -12q-68 -148 -8 -280q-32 -20 -48 -48q12 -320 268 -320q16 8 24 20l40 -40q200 -84 384 -24q-20 -112 4 -200q-48 -36 -64 -84l-8 -8l-20 -24q-248 -100 -464 4l-56 4q-40 -48 -36 -104q36 -80 92 -128
q336 -156 636 -12l32 32q24 32 44 48v12l24 64q0 40 -16 68q24 16 40 36q44 152 -20 280q52 48 36 172q0 88 -40 152q16 92 -32 164q24 20 36 36q20 208 -104 352q-16 44 -36 72q-224 176 -484 148h-132q-40 -28 -60 -56zM236 1652q32 4 60 -4q256 24 432 -136l16 -36
q8 -20 16 -32q108 -132 92 -288q-72 -12 -64 -48q80 -80 56 -176q56 -108 40 -212q8 -32 4 -56q-68 -8 -56 -56q100 -124 36 -260q-40 12 -68 -4q4 -36 28 -60l20 -44l-28 -72l-56 -56q-304 -128 -572 16q-44 44 -68 96q0 24 20 32q272 -120 512 0l32 32l4 8l44 68
q32 -16 60 -4l4 28q-56 80 -32 168q-4 48 8 88q116 24 -8 80q-116 -92 -244 -76l-12 4l-48 8l-16 4l-24 4l-64 24l-64 68q-40 -8 -44 -44q-108 4 -152 100q-48 76 -48 152l12 8q32 4 56 20v20q-88 124 -20 252q36 -4 60 16l-4 24q-28 40 -40 68v40l8 40l4 56l4 28v72l36 40
h68zM344 1504q-36 4 -64 0l-24 -24l-4 -16v-44l-4 -16l-4 -28q0 -60 -8 -100q-32 -12 -56 -8l-16 -16l4 -32q60 -72 28 -156q12 -84 -64 -80q-12 -16 -12 -36l8 -12q24 -20 32 -44q16 -40 44 -64q24 -36 44 -56q44 4 52 52l20 -4l44 -8q36 -12 68 -12q284 -44 304 328
q48 0 56 40q-88 120 -72 256q-160 104 -336 88q-16 -4 -40 -8zM664 1400q0 -124 52 -220q-20 -12 -32 -24q0 -92 -24 -160q-36 -92 -112 -144h-12q-48 -8 -80 -4l-16 4l-28 4l-88 20h-44l-28 -20l-28 28q-12 32 -28 52l32 20q56 132 12 256q24 12 40 24l12 44v28l8 24l-4 16
l8 20l-4 8q8 44 4 72l16 4q60 0 100 8q136 0 244 -60zM480 256q-92 -20 -168 0h168z" />
    <glyph glyph-name="colon" unicode=":" horiz-adv-x="416" 
d="M24 1035l-8 -24v-12l-4 -28v-24q-4 -36 -4 -64v-16q-12 -72 -8 -120q56 -128 160 -136l48 24l8 24q8 40 8 68l4 12v128q-16 188 -188 192q-12 -12 -16 -24zM164 675l-16 -12q-72 40 -100 108q0 24 8 44v24l4 32q-4 80 16 136q152 -64 88 -332zM0 415v-128q0 -12 4 -16
v-84q-4 -44 -4 -72l36 -32q28 -32 40 -56l12 -4q12 -12 24 -28q28 -28 52 -44h32l20 32q60 412 -188 460zM124 339q68 -148 44 -320l-20 20l-12 8q-20 28 -36 44l-48 48l4 32v92q-12 72 -4 124q44 -20 72 -48z" />
    <glyph glyph-name="semicolon" unicode=";" horiz-adv-x="560" 
d="M115 932l-4 -16q0 -28 -16 -76q0 -12 -4 -16v-12l-8 -32l-4 -20q-8 -36 -8 -64l8 -12l40 -28l16 -8q16 -16 32 -24l8 -8q48 -24 76 -52l28 -4l20 24l20 76v12l8 28v100q-16 176 -188 172q-12 -12 -24 -40zM255 632l-16 12l-24 16q-56 32 -88 60v16q8 24 8 44l8 24l4 16
l8 28l8 24q0 28 8 48q164 -52 84 -288zM95 392q-44 -280 -288 -396h-32q-16 -16 -28 -24q-12 -160 120 -220l12 -4h92l40 40q20 12 32 24q144 92 220 224q128 228 -64 384q-36 8 -64 8q-28 -16 -40 -36zM195 356q208 -244 -220 -524q-20 -20 -28 -32l-32 -4q-72 12 -104 72
q-12 44 -12 72q300 136 352 432q28 -4 44 -16z" />
    <glyph glyph-name="semicolon" unicode="&#x37e;" horiz-adv-x="560" 
d="M115 932l-4 -16q0 -28 -16 -76q0 -12 -4 -16v-12l-8 -32l-4 -20q-8 -36 -8 -64l8 -12l40 -28l16 -8q16 -16 32 -24l8 -8q48 -24 76 -52l28 -4l20 24l20 76v12l8 28v100q-16 176 -188 172q-12 -12 -24 -40zM255 632l-16 12l-24 16q-56 32 -88 60v16q8 24 8 44l8 24l4 16
l8 28l8 24q0 28 8 48q164 -52 84 -288zM95 392q-44 -280 -288 -396h-32q-16 -16 -28 -24q-12 -160 120 -220l12 -4h92l40 40q20 12 32 24q144 92 220 224q128 228 -64 384q-36 8 -64 8q-28 -16 -40 -36zM195 356q208 -244 -220 -524q-20 -20 -28 -32l-32 -4q-72 12 -104 72
q-12 44 -12 72q300 136 352 432q28 -4 44 -16z" />
    <glyph glyph-name="less" unicode="&#x3c;" horiz-adv-x="1320" 
d="M919 1022l-80 -32q-20 -12 -32 -16l-72 -32q-32 -12 -48 -24q-12 0 -32 -12l-80 -36q-40 -16 -68 -40l-12 -4q-24 -12 -44 -16l-64 -24q-16 -20 -24 -40q-72 28 -140 0q-72 -8 -92 -68q-92 44 -148 -40q-16 -88 36 -148q32 -36 64 -56q40 -12 76 -8l16 -12l40 -20l24 -8
l20 -8q40 -12 64 -28q28 -4 52 -16q12 -4 16 -8l92 -36l32 -12l48 -20q24 -12 56 -32q24 -12 40 -24l16 -4l64 -36q24 -16 48 -24q84 -40 112 -48q64 -16 120 0v28l-4 12l-12 24l-12 24l-12 24l-68 116l-64 20q-44 16 -72 32l-52 28l-24 8l-16 12l-80 40q-12 4 -32 16
l-24 12l-56 28q-28 8 -44 20q16 16 24 32q44 -24 84 -20l8 4q36 20 68 24l64 24q20 24 44 36l52 20q28 16 52 24l152 68l12 8l40 16q24 12 40 16l24 12q36 156 -100 228q-52 8 -84 4zM1067 838l-24 -12l-108 -44l-12 -8l-124 -56q-88 -28 -140 -76q-92 -28 -124 -44
q-52 20 -84 52h-24q-20 -32 -12 -72q-44 -24 -68 -44q4 -24 20 -36q40 -8 68 -20l12 -8l44 -16l168 -88q24 -8 40 -20l56 -24q52 -32 92 -40l32 -12l24 -40q8 -24 20 -36q8 -36 28 -56q-60 8 -104 32l-424 204l-16 4l-12 8l-104 36l-12 8l-28 12q-24 4 -40 16q-28 12 -44 24
q-40 -8 -72 8q-64 52 -64 124q60 60 108 -16l32 -4q24 32 8 76q104 52 196 4l-4 -8l32 -4l20 16q-8 40 4 68l76 24l16 4l40 28q40 16 64 36l20 4l16 4q28 16 52 24l36 20l64 24l24 12q28 12 44 24q48 12 76 32q120 -28 112 -144z" />
    <glyph glyph-name="equal" unicode="=" horiz-adv-x="1147" 
d="M86 780q40 -12 72 -16l632 -8l8 -4q40 8 72 4q52 64 24 132q-40 64 -96 104q-48 16 -88 12h-696q-60 -136 72 -224zM654 952q72 4 120 -8q64 -48 76 -120q-8 -12 -16 -16l-300 4l-8 4h-372l-44 16q-72 52 -60 124zM18 748q-20 -12 -32 -24q0 -144 112 -212h756
q20 12 28 28q68 -36 132 -28q32 64 16 128q-40 68 -100 100q-72 28 -120 -24q-36 28 -72 36h-712zM734 700q20 -8 32 -16q32 -40 72 -56q28 28 20 64q28 8 48 0q88 -48 72 -132q-68 16 -104 64q-40 8 -44 -64h-708q-80 56 -80 140h692z" />
    <glyph glyph-name="greater" unicode="&#x3e;" horiz-adv-x="1120" 
d="M59 796q24 -12 40 -28q24 -12 36 -24l84 -40l24 -12l96 -40l40 -24q24 -8 40 -20l12 -4l24 -12l28 -16l120 -44q-88 -20 -128 -88q-76 24 -132 -16q-60 -16 -92 -64q-20 12 -32 16l-48 -4l-64 -20q-16 0 -40 -12l-96 -40v-48l8 -8q20 -28 32 -40q4 -12 8 -16
q12 -20 24 -32l60 -84h48l12 8l164 48q20 12 28 24l4 28q156 -52 228 84q48 -20 96 -12q92 24 132 92q44 -20 84 -12q84 56 72 148q-36 68 -76 108l-12 8l-100 40l-44 28q-24 20 -40 28q-28 24 -64 40q-36 24 -68 32q-76 36 -100 44l-84 40l-12 4l-256 124h-72
q-44 -100 16 -184zM147 908q20 -12 36 -16q8 -8 24 -16l92 -44l24 -12l100 -48q12 -4 16 -8q92 -44 128 -52l44 -24q4 -4 24 -12l24 -16l8 -8q44 -28 52 -40q12 -4 16 -8l12 -4l32 -20q56 -12 88 -36q52 -52 52 -112q-56 -80 -128 -4h-24q-20 -40 -12 -80q-108 -76 -188 0
h-24q-12 -8 -16 -16q20 -72 -40 -88q-88 -48 -152 24h-24q-20 -40 -4 -80l-28 -12l-72 -20q-44 -20 -80 -24l-24 40l-8 8l-40 60l-8 8l-16 24q60 32 112 36q36 20 72 16q40 -40 80 -52l20 20q-44 108 160 88q20 -24 48 -28q8 12 16 16q-40 136 164 108q16 12 24 24
q-28 44 -68 60l-20 12q-40 20 -68 28l-44 20l-28 8l-40 24l-12 4l-28 16l-12 4q-20 12 -32 16l-28 16l-20 4l-32 20l-36 12l-24 16l-32 12q-20 12 -32 16l-28 16l-8 8q-28 20 -44 40q-24 40 -12 80z" />
    <glyph glyph-name="question" unicode="?" horiz-adv-x="1017" 
d="M192 1608q-12 -12 -16 -24l-16 -20q-28 -16 -40 -36l-36 -28q-36 -80 -88 -124q-16 -88 0 -160q60 -116 172 -136l12 8q32 48 36 100l20 20q8 8 20 24q20 24 40 60l8 8l24 20q24 32 40 48q64 8 104 32l144 -4l4 -8q32 -92 88 -152l-8 -8q-28 -40 -40 -68q-36 -36 -44 -84
q-28 -8 -52 -4q-32 -24 -48 -40l-24 -24l-12 -8l-16 -28l-44 -44l-4 -8l-56 -76q-4 -24 -4 -40l-32 -152l8 -28l16 -12l116 -76q28 -24 52 -36q20 0 40 20v28l8 24l8 44q8 24 8 40l8 8q28 52 60 76l4 8l20 28l80 76q8 32 4 60q92 -8 132 72q36 116 -32 204q48 60 -36 208
q-24 196 -204 212l-16 -12q-32 36 -68 52h-232q-52 -36 -108 -40zM424 1600q28 0 48 -8l44 4q48 -28 68 -68l28 -8q20 12 28 32q52 -8 84 -40q40 -68 44 -132l4 -12l24 -48v-12q24 -36 28 -72q-40 -12 -40 -48q68 -64 68 -148q-40 -116 -132 -52l-28 -8l-8 -24
q20 -40 20 -72l-96 -96l-4 -12l-8 -8q-20 -20 -28 -32q-20 -36 -36 -52l-4 -8q-4 -52 -20 -92l-4 -12l-20 16l-56 36l-24 20l-24 16l8 24q0 24 12 60l12 80l60 80q32 28 52 60l60 56q44 -8 72 -32q20 4 32 12q0 44 -20 80l4 12q12 20 36 32q0 8 8 24q12 32 30 46t30 30
l-8 24q-72 80 -100 172q-12 28 -24 44q-24 0 -44 -16q-144 20 -264 -36l-28 -28l-8 -12l-36 -32q-40 -72 -96 -116q-4 -48 -20 -84q-48 20 -80 52q-72 124 28 212l36 64q28 16 40 40q36 24 52 52q64 8 108 40h92zM324 376l4 -24v-120l4 -8v-72l12 -40l68 -72q20 -32 40 -44
l24 -24l48 8q0 28 -8 48q20 -8 36 0l8 28v52l-4 16v32l-4 20v68q4 32 -4 60q-64 120 -180 132q-32 -28 -44 -60zM504 108q-20 -88 -116 40v56q-20 96 0 176q140 -44 116 -272z" />
    <glyph glyph-name="at" unicode="@" horiz-adv-x="1380" 
d="M486 1327q-68 17 -116 -25q-73 2 -96 -83q-52 4 -88 -20q-84 -72 -72 -172q-44 -12 -68 -40q-4 -44 -12 -68q-12 -32 -20 -76l-4 -36l-4 -8l-4 -24l-4 -28l-4 -28l-4 -28l-4 -44v-200q0 -56 8 -92v-12q0 -24 8 -44v-16l4 -24q8 -24 8 -44l24 -88q40 -64 96 -100
q28 -88 88 -144q76 -40 148 -36l8 20l-4 16l-48 96q-32 52 -40 92l-8 8l-36 28q-80 388 36 716q-8 36 -8 64q116 48 140 164q144 -24 204 96l28 -8l24 4h104l28 4l48 -4l24 -4l104 -60l4 -116l4 -44l4 -12q-4 -48 4 -80q16 -32 32 -48l-20 -16q-36 -160 24 -288l-28 -20
q-44 -124 -28 -236l-4 -8q-36 -32 -60 -16q0 40 -8 68v212l4 16v136l-12 44q-48 72 -104 108q-64 16 -104 -24q-228 72 -376 -16l-8 -12q0 -52 -16 -96q-116 -200 -16 -376q12 -20 32 -36q-32 -140 88 -220l-4 -8q152 -116 264 -8q88 -24 164 4l40 -28q32 -8 56 -8l48 -8
l20 -4q40 -8 68 -4q32 -8 60 0q44 76 28 152q76 44 68 124q24 88 -12 160l28 32v248q-20 32 -36 48q20 16 32 32q0 60 -4 84v64q0 24 -4 40v56q0 72 -8 120q-236 348 -640 300q-48 -24 -68 -68zM978 1231q112 -56 164 -156l4 -28l4 -20v-32q-4 -24 0 -44l8 -196l-8 -8
q-28 0 -48 -16v-24q40 -36 60 -76l4 -200q-36 -4 -64 -16l4 -36q72 -72 36 -160q12 -92 -72 -72l-12 -8l-4 -32q48 -64 12 -120h-56q-72 16 -120 16l-28 12q-28 24 -56 28l-12 -4q-24 -8 -44 -8q-40 -8 -68 -8q-40 36 -80 56q-32 -36 -8 -76q-56 -24 -104 -12
q-192 104 -128 244q-68 56 -88 132q0 152 68 268q4 44 16 72q104 44 204 12q80 0 136 -28q32 20 48 44l20 -8q52 -40 80 -92l4 -20v-96q0 -12 -4 -16v-256q8 -48 8 -80q68 -72 124 -8l48 -8l20 40q-48 76 -16 148q0 44 12 76q48 0 64 32q-88 136 -56 280q44 4 52 40l-4 8
q-40 40 -56 68l-4 16q0 56 -4 76v68q-12 48 -4 92q-48 56 -164 100h-12l-44 4l-172 -4q-36 28 -68 40l-20 -16q24 -72 -32 -100q-80 -44 -140 12h-24l-16 -20q40 -100 -64 -168q-52 24 -84 0v-12q32 -56 32 -108q-120 -388 -28 -748q16 -20 36 -28l8 -12l12 -24
q32 -60 44 -104q-92 56 -116 156l-20 16q-48 32 -72 72q-104 428 12 808q40 8 68 -8l24 8l4 32q-52 64 -8 128q52 80 112 20q24 -4 40 0l12 28q18 145 176 77l24 3q8 44 -8 76q16 16 36 24q240 24 400 -116zM474 567l-4 -12l-4 -28l-28 -80q-4 -24 -24 -52q0 -20 -4 -32
l-20 -64v-60l-20 -44q52 -68 136 -68q104 -88 84 20l8 20q88 8 144 60v20l-4 12l-4 24q0 24 -4 28l-4 56v188q-112 44 -216 32q-24 -8 -36 -20zM614 531l32 -4l28 -8v-128q-4 -32 4 -60v-12q0 -36 8 -64q-52 -36 -104 -36q-36 -20 -40 -52l-20 12q-52 4 -88 24q8 16 12 44
q0 48 8 80l8 16l12 44l12 32l20 48q8 36 20 64h88z" />
    <glyph glyph-name="A" unicode="A" 
d="M434 1539q-32 0 -56 -4l-32 -4q-32 0 -52 -8q-68 4 -116 -16q-28 -92 24 -164q40 -48 92 -72l28 -4l20 4h24l12 4h84l28 4q32 4 56 12h28q16 0 44 4l44 4q40 4 68 -4q4 -72 40 -120l-28 -28q-28 -152 28 -272q-40 0 -92 12l-24 4l-68 16q-32 0 -92 12h-16l-8 4l-92 8
q-32 0 -52 -4l-144 -4q-80 -28 -132 -72q-4 -44 4 -72q-24 -12 -40 -16q-88 -148 -8 -292q-20 -8 -32 -24v-224q36 -88 96 -144q68 -28 116 12l40 -40q36 -12 64 -16l40 -16l100 -24l32 -12l80 -16h200q48 16 76 32q60 -28 112 4l24 28l4 108l4 20v76l4 12v152
q-16 32 -28 48q28 32 28 64v204l-28 52l28 40q16 156 -40 276l4 8q20 24 28 44q20 248 -156 380l-24 8q-48 8 -80 20h-252zM578 1495q56 4 92 -4h12l80 -20l12 -8l16 -16l52 -36q72 -132 60 -264q-40 -8 -56 -40q92 -136 68 -280q-44 -8 -64 -32l4 -16q40 -40 56 -72v-200
q-40 -4 -56 -32l8 -24q32 -28 48 -60v-144l-4 -16v-96q-8 -48 -4 -84q-28 -20 -92 4l-8 -4q-52 -28 -88 -36h-140l-36 8l-124 32q-56 8 -96 28l-64 16l-68 68q-48 -4 -48 -48q-24 4 -40 12q-48 48 -72 104v180q36 4 60 24v20q-108 128 -36 264q40 -24 76 -8l4 16
q-24 48 -28 92q48 36 92 48l204 4l24 -4l36 -4l28 -4h24l16 -4l28 -8q44 0 72 -8l12 -4q32 -4 80 -16l28 -4q52 -8 88 -8q12 20 16 36q-88 128 -56 272q40 8 52 44q-64 72 -64 160l-16 20l-32 8l-164 -4q-32 -8 -56 -8l-8 -4l-44 -4l-28 -4q-80 -8 -136 4q-88 52 -72 136
l20 4h16q24 -4 44 0l28 8h24l120 16h100zM162 699l-28 -12q4 -44 28 -76q-8 -32 -8 -56q-4 -8 -8 -24q0 -56 -16 -96q-24 0 -40 -4q-8 -20 -8 -36q60 -68 64 -148l32 -12q28 -4 48 -12q12 0 16 -4l88 -20q116 -52 224 -44q128 24 220 92l4 12q8 24 12 56v48l4 8v112
q52 0 64 44q-60 64 -64 144l-20 16h-12l-20 8q-44 4 -72 12h-412q-48 -28 -96 -8zM586 651q96 4 156 -12q8 -60 36 -100q-24 -20 -36 -36l-4 -20v-68q0 -40 -4 -68q4 -32 -4 -60q-192 -132 -384 -36l-44 8l-16 8h-12l-80 24q-8 56 -32 96l24 16v12q16 56 12 100q20 64 8 116
q36 8 60 20h320z" />
    <glyph glyph-name="B" unicode="B" horiz-adv-x="1009" 
d="M0 1604v-864q12 -24 24 -40l-24 -24v-248q16 -32 28 -48l-8 -4l-20 -16l4 -244l16 -20q44 -64 96 -96q72 -12 100 44q40 0 64 24q28 -24 56 -40q288 -56 508 76l24 64l4 172q0 72 -8 120q-16 28 -32 44q32 36 24 76q16 132 -24 228l28 24q48 200 -64 344q12 32 12 56
q-64 176 -196 272l-292 -16l-12 -4q-52 -8 -84 -24q-36 184 -204 184q-16 -20 -20 -40zM168 1420l20 -24l24 4l28 12l72 20l24 4l40 8l16 4l200 4q84 -60 112 -148q36 -40 48 -76q-8 -36 -20 -56q120 -144 80 -304q-40 -4 -60 -32l4 -12q36 -44 48 -88v-16q0 -32 -4 -52
l4 -12v-96q-32 -4 -52 -32q12 -24 24 -36l36 -52q12 -60 4 -112l4 -8v-28q0 -60 -4 -100l-12 -44q-204 -124 -452 -68l-8 8q-48 48 -84 64q-28 -24 -28 -56q-28 8 -52 4q-12 -36 -36 -52q-60 44 -92 96q0 12 -4 16l4 32v136q48 4 56 44q-40 36 -56 72v204q36 0 56 24v12
l-8 8l-48 64l4 836q124 -48 112 -172zM168 1164l-4 -16l4 -16v-400q0 -36 -4 -64q-40 -8 -60 -32q92 -140 60 -284q-40 -8 -56 -36l4 -12l60 -64q24 -48 56 -72q36 20 44 56l316 4l32 12l60 32q36 128 16 248q36 20 56 40q-100 140 -68 292q64 0 68 40q-68 80 -52 172
q-12 76 12 140l-12 8l-44 44q-20 32 -40 52h-96q-204 -32 -352 -144zM588 1256l12 -12q24 -40 52 -60q-36 -148 20 -272q-20 -12 -32 -28q-40 -156 24 -284l12 -20q-28 -20 -32 -44l-4 -32q20 -104 -4 -192l-56 -28l-16 -4l-24 -4h-284l-28 -20q-20 28 -36 40l20 20
q36 168 -32 296q24 12 36 28l4 24v468q156 108 324 124h44z" />
    <glyph glyph-name="C" unicode="C" horiz-adv-x="925" 
d="M236 1544q-4 -8 -20 -24l-16 -28q-12 -20 -24 -28l-16 -20l-28 -40q-100 -84 -56 -192q-80 -148 -28 -288q-28 -20 -40 -40q-32 -156 28 -280q-28 -24 -36 -52v-32q12 -32 12 -60l4 -8q20 -56 40 -88l8 -48l56 -88q24 -60 56 -100q40 -84 112 -128h156q12 4 40 8l20 4
l16 4l20 4h20q32 12 56 12q8 4 24 8h24l8 4q36 4 64 12q20 40 24 76q136 36 116 212q-44 96 -128 132q-76 28 -92 -52q-40 -64 -48 -124q-40 0 -96 -12l-24 -4l-32 -8q-8 -4 -28 -4q-28 -8 -52 -8q-36 -12 -64 -12l-12 20q-4 24 -20 60q-20 52 -44 84q-16 64 -44 108l20 20
q44 152 -8 276q24 8 40 20l4 8l4 48q28 100 8 188l-12 20l16 12l12 16l12 16q52 52 56 68l20 20l56 64q40 8 68 20l24 -12l28 -16q44 -16 72 -32q16 -20 24 -24l20 -24l20 -20q32 -40 60 -60q76 -24 124 28l-4 68l-48 84l-12 16l-44 44l-32 32l-12 8l-56 60l-12 8l-28 28
l-24 12l-20 4l-48 12l-8 4l-24 8l-80 16h-132zM364 1512q32 0 56 -6t40 -6l124 -40q24 -20 36 -40q8 -4 8 -12l12 -4l68 -64l8 -12l8 -4q20 -24 36 -36l-4 -8q20 -20 48 -68q0 -44 -40 -32l-40 36q-112 140 -276 168l-16 -12q-32 -4 -52 -16q-12 -16 -16 -36
q-12 -20 -28 -28l-4 -12l-32 -32l-12 -28q-40 -28 -60 -60q-40 8 -64 -20q20 -52 48 -80q4 -44 0 -56v-40q-12 -60 -12 -80l-8 -12q-40 8 -68 -16l4 -24q60 -76 52 -160v-12l-16 -80q-32 -8 -52 -28q12 -36 36 -56l8 -16q24 -44 28 -84l56 -104q12 -60 48 -100q12 0 22 2
t14 6l20 4h28l12 4l40 8h12l28 4l112 24q36 0 60 -20q20 0 36 8q4 12 8 16q-32 84 24 140q4 28 16 44q96 -48 108 -144q-20 -64 -60 -104q-40 28 -76 12l-4 -12q16 -48 8 -84l-20 -4h-24q-24 -8 -48 -8l-24 -8h-12l-32 -8q-48 -4 -80 -16h-24q-28 -8 -52 -4q-36 -8 -64 -4
q-100 80 -140 188l-12 28l-12 20l-8 8q-12 24 -28 40l-4 36l-16 36l-12 28l-20 40q-4 44 -12 68l12 16q44 0 56 32q-104 128 -60 276q44 0 68 28q-80 132 -28 260q48 0 68 28q-100 108 0 176l4 12l36 44l4 8l32 40q16 28 32 44l36 12q32 0 52 -4z" />
    <glyph glyph-name="D" unicode="D" horiz-adv-x="1036" 
d="M656 1756v-24l-4 -16v-232q-220 104 -436 84q-120 -132 -152 -284q4 -24 16 -40q-28 -16 -44 -32q-56 -148 4 -272q-60 -56 -40 -148q-4 -96 36 -168l-8 -8l-20 -20l-8 -32q0 -24 4 -40v-60q-4 -84 12 -140q236 -288 576 -276l8 4q40 44 80 68q120 -180 308 -96
q8 152 -116 216q16 116 -40 204q32 24 40 52l-4 16l4 20l-4 64v120l-8 12q-12 20 -24 32q24 16 36 32l8 456l-4 16l4 52v272l-4 28l-4 44q-64 128 -192 124zM808 1668q16 -32 16 -60l4 -272q-4 -36 -4 -64v-68l-4 -12l4 -32v-280q0 -36 -4 -64q-40 -12 -60 -32l8 -24
q32 -36 48 -64v-196q-48 -4 -64 -36q88 -108 64 -232l12 -28q96 -48 108 -140q-160 -44 -232 120q-84 -20 -132 -84q-328 16 -508 252l-4 44l-4 168q48 4 60 44q-84 100 -64 232q-8 56 52 56l12 16v16q-92 128 -28 256q44 -16 72 16q-16 48 -40 76q28 144 120 240
q236 8 420 -100q24 0 40 12l4 16v56l4 16v124q-4 56 4 92q60 -20 96 -64zM280 1264q-12 -20 -16 -32l-32 -64q-36 16 -68 0q12 -60 40 -100l-4 -12q-4 -48 -8 -52v-28q-12 -40 -12 -72q-44 -4 -64 -32l16 -28q24 -24 36 -52l4 -200q-48 0 -64 -32q84 -96 68 -208l12 -28
l64 -36l100 -32q16 -4 44 -8q32 0 52 -8l12 8l48 44l8 -4q56 48 148 16l28 12q-12 64 8 112q-8 24 -4 44q40 12 60 32v16q-88 132 -52 276q44 -4 60 24v12q-44 44 -64 88l4 364q-12 16 -24 24l-124 44h-12l-28 8l-64 4l-32 4l-64 4q-40 -36 -76 -108zM408 1316q24 0 44 -8
q112 0 196 -48v-360q16 -32 32 -52l-32 -32q-28 -160 36 -288q-48 -40 -40 -100l-12 -44q-84 0 -144 -40l-52 -44q-116 8 -204 64q12 100 -40 168l32 40v228l-24 44l28 28l4 24l8 48q0 8 4 28l4 32q12 48 8 84l-12 20q24 16 36 28l4 12q8 20 16 32l12 28l8 20l8 8
q24 52 52 84z" />
    <glyph glyph-name="E" unicode="E" horiz-adv-x="1162" 
d="M340 1704q-44 0 -72 -12q-16 -16 -20 -36q-20 -20 -28 -36l-16 -12q-20 -40 -44 -60l-8 -20q-4 -36 -20 -64q-96 -144 -96 -300l20 -36q-32 -16 -52 -32q-8 -60 8 -108q-8 -108 44 -184q-24 -16 -32 -32q-24 -216 108 -348q-40 -80 16 -144q24 -92 96 -140l20 -8l12 -16
l24 -20l20 -24l16 -8q44 -40 84 -60q124 -20 228 16l8 -4q52 16 92 20q44 60 64 108q76 72 64 164q92 44 80 148l-20 20l-8 4l-160 104h-24q-40 -64 -20 -124q-36 -4 -60 -24q-20 -52 -60 -80q-12 -48 -40 -80h-16l-24 -8l-16 -4q-60 -16 -100 -20l-12 8l-48 44
q-44 72 -88 112l12 16v40l-4 16q-4 44 -12 72q0 100 -52 176q48 64 40 136l28 4l24 -4h56l32 -4l28 -4h56l16 -4l76 -4q56 -8 92 -4l12 -4q24 -4 44 0l24 -4h172q28 52 16 100l36 20l4 20v208q-20 72 -68 116l20 20v68q-100 244 -328 300q-20 -12 -28 -28q-100 64 -208 48z
M560 1572q44 8 44 56q212 -84 256 -284q-40 -16 -40 -52q64 -52 88 -116v-120q-4 -32 4 -60q-36 -4 -60 -16v-20q24 -40 12 -76h-60l-16 4l-248 12l-12 4l-200 12q-76 12 -132 0l-8 -12q8 -72 -8 -124q-32 -12 -48 -32v-16l4 -8q44 -48 60 -96l4 -32l20 -152l-20 -24l-4 16
q-148 136 -116 316q44 4 52 40q-84 96 -64 204q-16 36 -20 68q40 12 76 8l16 20v12q-36 44 -52 76q12 148 92 256l8 16l20 64l12 16l40 52l12 16l16 20l20 28l56 8q128 12 196 -84zM560 1512h-28l-16 -4q-60 0 -100 -8q-28 -48 -64 -76l-4 -16l-44 -84l-8 -8l-8 -20l-8 -12
q-12 -32 -28 -52l-4 -8l-12 -28l-12 -28q-8 -36 -20 -64q8 -24 20 -36l24 -4l24 -8h64q32 0 80 -8l120 -4l16 -4l44 -4h44l28 -4q44 4 72 -4q36 -4 64 12l4 24q-12 48 -12 84v20q0 12 -4 16l-4 28l-4 76q32 24 40 56l-12 12q-56 48 -80 104q-36 32 -72 48l-20 16l-12 16
l-20 24h-24q-16 -28 -24 -52zM624 1468l68 -44q24 -52 56 -84l-16 -24v-56q4 -24 4 -40v-32q4 -64 12 -100q-32 -8 -56 -4l-32 4q-48 0 -80 8q-64 -4 -92 4q-32 0 -56 4l-140 4q-16 4 -24 12l12 44q8 24 20 40l16 24q12 32 24 48l12 24q16 40 40 64q28 56 60 88
q92 -8 156 28zM800 500q28 -16 44 -32q36 -16 56 -36q-4 -40 -24 -68q-36 24 -68 12l-4 -36q52 -100 -40 -168q-28 -100 -128 -100q-108 -36 -200 -16l-16 12l-80 68l-12 8q-28 28 -48 40l-40 36q-32 40 -40 80q-56 60 -8 116l12 -32q40 -24 80 -96l16 -20l32 -32
q32 -24 48 -44q96 -4 164 28q36 4 64 16l28 44q4 20 16 44q40 32 60 76q48 -12 88 -4l4 12q-32 60 -32 112z" />
    <glyph glyph-name="F" unicode="F" horiz-adv-x="945" 
d="M416 1632h-12q-40 4 -72 -4q-96 -88 -92 -208q-48 -148 24 -272q-12 -4 -24 -20l-8 -24l-4 -16l4 -96l-4 -48l-12 -8h-100q-44 -8 -76 -4q-60 -36 -36 -96q40 -152 192 -160q0 -80 36 -136q-24 -20 -36 -48v-64l4 -20v-84q8 -24 4 -40q4 -116 0 -156q32 -36 64 -52
l68 -44l8 -8l36 -24h48l8 20l-4 40v128l-4 24v88q-12 64 -8 108l-28 44q20 20 32 52v80l4 28v72l16 4h56l20 4l16 4l20 -4h56l12 4h72l28 4l76 -4q40 20 56 44q-12 140 -120 208l-16 4h-88q-32 0 -56 -4h-120q-4 68 -40 116l24 16l4 20q8 32 8 56v60l4 8v16q12 60 12 100
l36 40l44 4h168l16 -4q56 -24 96 -28q36 16 48 48v68q-136 216 -428 172zM820 1460q8 -28 -4 -52q-48 12 -76 28h-240l-24 -4q-16 -20 -32 -32l-8 -8l-16 -24l-8 -40v-36l-4 -12l-8 -44v-16q0 -60 -4 -100q-48 -8 -60 -40q68 -80 68 -164l16 -24h80q28 0 48 4h36q20 0 32 4
q60 4 100 -4q72 -56 88 -136l-20 -8h-156l-16 -4h-96l-12 -4h-96q-24 -4 -36 -16l-4 -24q8 -32 8 -60v-16q-12 -72 -8 -120q-44 -4 -60 -40l32 -36q12 -24 24 -36l4 -52q0 -32 4 -56v-84l4 -12q4 -76 0 -124l-24 16l-8 8l-84 56q4 12 4 32q-12 44 -8 80l-4 124q-4 60 0 100
q40 8 60 36q-72 92 -64 196l-20 16q-156 -4 -176 140q12 8 20 8h48q96 0 156 16q8 40 4 72l4 8v112q40 8 60 32q-108 148 -48 304q-4 92 60 152l12 4q60 -4 100 8q228 32 352 -128z" />
    <glyph glyph-name="G" unicode="G" horiz-adv-x="1071" 
d="M168 1668q-16 -40 -32 -64l-12 -16l-20 -44l-8 -12q-20 -28 -28 -52l-24 -48l4 -8q0 -52 16 -96q-28 -12 -48 -32q-48 -164 28 -288l-8 -4l-20 -16q-16 -116 32 -208q12 -104 88 -164q-8 -32 -4 -56q156 -268 452 -244q-16 -32 -16 -56l-12 4l-24 -4l-100 -16l-116 8
q-88 84 -176 92l-12 -28l4 -20l4 -28l8 -56q0 -48 8 -84l24 -12l64 -36q44 -48 84 -72q12 0 16 -4l24 -4h284q64 32 64 92q72 -4 100 56q48 92 16 176q60 28 68 84l4 44v44l-4 28q0 28 -4 72l-20 24q24 16 32 32v348l-4 20l-8 68l-4 28q-8 48 -8 80v244q8 56 -4 100
q-52 84 -132 132q-60 0 -88 -44h-16q-28 4 -40 6t-36 10q-24 4 -40 4l-44 12l-44 8l-28 4q-24 8 -60 8l-12 4h-152zM304 1636q28 -12 52 -8l20 -4l16 -4l20 -4h16l16 -8l28 -4q32 -8 56 -8l12 -4l76 -16q36 0 64 -8l20 12q4 28 24 40q72 -48 104 -112q0 -60 -4 -84
q8 -52 4 -84v-84q0 -36 -4 -64l4 -16l4 -44q4 -28 8 -48v-24l8 -24q0 -44 8 -72v-288q-44 -8 -64 -40q84 -112 44 -240l-20 -20q-44 24 -68 -12l4 -24q68 -84 8 -176q-40 -36 -84 0l-24 -8q-8 -48 4 -84q-16 -16 -36 -20h-128q-36 -8 -68 0q-48 0 -80 8l-28 20l-32 36
l-44 28q-24 12 -40 24v16l-4 8v36l-4 12l-4 36l32 -20l8 -8l48 -32q8 -12 24 -20h68q92 -16 172 12q40 -8 64 -32q28 4 36 24q-32 72 12 128q-4 28 -16 44l-20 8q-296 -44 -432 200v12q12 24 12 44q-92 68 -96 164q-40 80 -36 156q32 8 52 28l-4 24q-100 124 -44 264
q44 -12 72 8l-4 24q-36 60 -36 120l32 60l4 12l60 100q8 24 20 40h88zM320 1476l-32 -56l-20 -40l-44 -80l-8 -44q-40 16 -72 -8v-20q52 -84 24 -164q8 -44 -4 -80l-8 -8q-20 0 -40 -12v-24q68 -76 72 -164q40 -72 20 -144q4 -20 16 -32q40 -32 60 -56l24 -8q32 0 72 -12
l232 -4q48 48 68 104q40 12 64 40q32 -4 48 20v12q-40 44 -56 80l-4 288l-4 16l-4 32v28l-4 12q0 32 -4 56v12l-8 52v144q-12 12 -40 24q-32 8 -52 8q-40 12 -96 20l-56 12h-16l-32 8h-12q-28 0 -72 4zM400 1432h24l12 -4l24 -4q24 0 40 -8q96 -8 156 -36l4 -188l4 -16
l4 -20q0 -44 8 -72v-28q4 -12 4 -36l4 -20v-140q-8 -52 2 -92t26 -60q-40 -28 -72 -40l-4 -8q-20 -52 -44 -88l-16 4h-184q-36 12 -68 12q-36 24 -56 48q8 84 -24 152q-8 84 -52 140q40 60 32 124q16 80 -4 148q20 4 44 28l12 56l84 152q24 0 40 -4z" />
    <glyph glyph-name="H" unicode="H" horiz-adv-x="1130" 
d="M128 1556l8 -16v-100l4 -16l-4 -8l4 -16q-4 -60 4 -100q-16 -32 -16 -64l8 -32v-12l8 -28v-12l4 -28v-56q12 -36 28 -64q-72 -148 -16 -292l-12 -8q-12 -20 -24 -28q-32 -156 32 -284q-16 -16 -28 -24q-8 -32 -8 -56v-56q-8 -36 -8 -64q20 -16 40 -12l64 -120l4 -12
l24 -44l48 -4q40 36 52 80q20 124 -32 216l4 8q20 16 32 40l-4 20v204q-12 20 -16 32q92 164 8 316q28 20 40 40l-4 16l-4 152q136 148 316 184q16 -12 16 -28q-12 -120 44 -208q-52 -80 -32 -160q0 -96 44 -168q-24 -24 -36 -48q-4 -44 8 -76l-4 -44l4 -28l8 -312
q8 -48 8 -80l20 -52q112 -148 196 -76v308l-4 12v88l-4 8v112q-12 64 -40 104l28 28l-8 232q-8 44 -32 72l28 24q24 172 -52 304q12 24 12 48q-52 124 -152 188q-208 16 -376 -64l-4 16l-4 156q-36 76 -96 124l-16 4l-20 4h-204q-56 -172 112 -240zM236 1736l20 -24l44 -64
v-84l4 -32q-4 -60 8 -100q20 -8 36 -8q184 96 368 80q84 -64 116 -144q-8 -32 -8 -56q60 -96 56 -196q12 -72 -48 -76l-12 -12v-28q88 -84 64 -192l4 -28v-56q-48 0 -56 -40l4 -16q40 -28 52 -64v-12q12 -36 12 -64v-88l4 -16v-76q0 -32 4 -56v-64l4 -8q4 -116 -4 -152
q-68 20 -100 76l-8 24q-4 12 -8 32v128l-4 16q4 56 -4 92v44q-8 24 -4 40l-4 176q36 12 56 28v16q-100 136 -60 288q36 -8 52 24l-4 16q-48 56 -64 112v16l-4 44l4 28q-8 52 -8 88q-12 8 -16 16q-264 -28 -416 -216v-100q8 -44 4 -76q-36 -12 -56 -28l4 -28q92 -128 28 -260
q-32 8 -56 -12v-24q36 -36 52 -72v-192q-48 4 -60 -36q104 -132 44 -260l-16 28q-4 12 -8 16l-4 12l-52 104l-24 20l4 96q48 0 56 40q-96 136 -52 280q36 -4 60 12v24q-80 112 -36 252l52 28v20q-40 44 -56 84l4 28l-4 12q0 76 -20 128l16 40l-4 32v120l-4 16l-4 128l-12 16
q-132 40 -116 152q108 8 180 -12z" />
    <glyph glyph-name="I" unicode="I" horiz-adv-x="719" 
d="M0 1670q-28 -300 184 -332q148 -12 112 120q100 32 56 144q-68 168 -232 148q-104 -8 -120 -80zM296 1598q16 -44 8 -84q-52 36 -100 16l8 -36q36 -40 44 -84l-16 -20q-232 0 -180 288l44 12q32 4 52 12q104 -12 140 -104zM-112 1218q24 -220 236 -224v-84q-4 -48 -4 -80
l-8 -68l-4 -12q4 -28 -4 -48q4 -60 -12 -108l12 -48l-20 -40l-4 -16l4 -16v-164l28 -60l-16 -4h-180q-52 -52 -36 -116q44 -80 112 -128h600q20 40 16 80q-28 200 -296 164l-4 36q8 80 -12 140l20 24q0 20 -4 32l12 20v16l4 8l4 44q8 36 8 64l8 304q-8 40 -8 72l-4 12v24
l-4 12q-20 52 -28 88l-8 8l-8 16l-8 8q-36 44 -68 68l-40 12h-244q-28 -16 -40 -36zM220 1166q76 -116 68 -236l4 -8l4 -28q4 -96 -8 -156l4 -28q-4 -32 -4 -56v-16q-8 -24 -4 -40l-4 -16l-4 -24v-12l-16 -80l-20 -20v-24q24 -84 12 -156q8 -24 4 -44q12 -20 52 -32h164
l32 -20q60 -52 48 -120h-532q-64 48 -92 108l8 32h124q72 -4 120 8q12 16 12 32q-44 52 -56 104v156q24 28 28 56l-12 24l8 20l-4 84l4 12l8 100l4 16v16q0 24 4 40v176l-28 20q-156 -20 -204 124v20h128q32 -4 60 4q52 -4 88 -36z" />
    <glyph glyph-name="J" unicode="J" horiz-adv-x="980" 
d="M259 1704v-168l4 -24q68 -164 200 -240h48q156 96 64 280q-96 196 -288 188q-20 -20 -28 -36zM523 1540q36 -80 24 -152q-60 -120 -140 -4q-128 144 -88 308q144 -28 204 -152zM363 1272l-12 -12h-192q-32 -24 -44 -48q32 -204 228 -212l4 -12q0 -32 4 -52q8 -36 8 -64
v-12l8 -32l4 -24q0 -36 8 -64v-36q8 -40 4 -68v-12q0 -60 -8 -100q-40 -104 -12 -168q-92 -36 -128 -160q-88 36 -80 136q0 112 120 140l4 20l-4 12l-60 92l-4 8q-40 72 -84 108q-52 -12 -88 -32q-204 -176 -44 -372q-32 -116 68 -212q124 -160 284 -120l8 40q84 -20 124 56
q52 72 36 148q32 12 52 28q4 28 16 56l4 28q12 28 16 52l4 68q-4 36 4 60l-4 32v56l-4 8q0 52 -12 116v24l-16 104l-4 24v28q-12 64 -12 100q24 8 40 4h108q56 68 0 172l-16 16q-36 36 -64 56l-16 4l-88 4l-32 -4l-24 4q-60 12 -100 12h-4zM439 1208l28 -4h28q60 4 100 0
q48 -28 72 -64q16 -40 12 -76l-12 -4h-36l-28 4l-76 -4q-16 -12 -24 -28q8 -32 4 -84l8 -12l8 -116l4 -16l8 -52l4 -16v-32l4 -16v-16l8 -44v-36l4 -16v-40q-4 -20 0 -32q-8 -60 -4 -100l-4 -12l-8 -44q-16 -36 -20 -64q-64 8 -84 -20l4 -24q56 -72 -8 -136q-40 -80 -112 4
q-20 -8 -32 -20q44 -172 -172 32q-64 72 -80 148q24 16 36 40q-152 140 -40 296q40 36 80 48l12 -12l44 -72l8 -8q16 -36 36 -56q-128 -60 -104 -192q-12 -140 128 -176q20 -20 36 -28q24 8 32 24q-24 64 20 108q12 36 36 60q52 -12 80 16v12q-28 40 -36 80q0 12 4 16l8 24
l4 16l4 24q4 40 12 68v168q-8 28 -8 52q-8 40 -8 68l-4 12q0 24 -8 60q0 24 -4 28l-12 100q-16 12 -28 16q-160 -12 -192 140l8 8h120q32 4 60 -4l28 16q32 0 52 -12z" />
    <glyph glyph-name="K" unicode="K" horiz-adv-x="1013" 
d="M44 1612v-300q0 -12 -4 -16v-508l12 -36q-52 -36 -52 -92q24 -24 36 -44q-20 -120 40 -212q-24 -12 -36 -24l-4 -12v-36l-4 -12v-52l-8 -88l12 -56q128 -172 216 -88q32 148 -24 272l32 44l-4 236l24 -12l260 -248q32 -20 52 -40l52 -40l16 -12l48 -44q12 -20 24 -32
q12 -48 52 -72l16 -8l60 -40l4 -8l56 -32h36l4 12v84l-4 8l-20 64l-36 56l-8 8l-12 24l-40 52l-140 132l-16 12l-132 100q-8 12 -16 16l-84 84q-28 32 -52 48q12 24 12 40q32 0 72 20l40 40l20 16l20 20q40 32 60 56q32 24 52 48l8 8q28 20 44 44l116 120l20 24l40 36
q8 64 -8 112q-60 100 -164 120l-20 -8l-188 -200l-12 -4q-24 -36 -52 -56l-184 -172q-4 -32 -4 -52q-8 16 -4 28l4 500l-4 12l-4 76q-64 128 -192 124q-20 -24 -28 -40zM208 1520l4 -28l4 -24v-408q-8 -32 -4 -56v-120l8 -12q64 -20 96 -40q40 16 8 104q8 4 18 12t14 16
q12 8 16 16q12 8 16 16l12 8l68 64q12 8 16 12q8 12 28 24l8 12l24 20q32 40 56 60l140 152q116 -40 112 -148l-44 -44q-20 -28 -40 -44q-8 -12 -16 -16l-12 -16l-76 -76l-12 -8l-72 -72q-12 -8 -28 -28q-24 -20 -28 -24l-20 -16q-40 -40 -68 -60q-72 40 -96 24
q0 -44 20 -72l-4 -12q-12 -28 -16 -48q20 -24 40 -36l12 -16l96 -96q16 -20 32 -32l8 -4l120 -96q196 -136 260 -336l-12 8l-20 12l-28 24l-48 28q-44 88 -108 136l-20 16l-24 20l-36 28l-16 12l-16 12l-24 20l-8 4l-40 32l-212 212q-36 4 -60 16q-36 24 -64 0q4 -28 16 -52
q16 -24 20 -48v-180q-52 -4 -60 -44q88 -120 60 -256q-12 -8 -20 -8q-84 36 -112 120l8 44l4 120q48 0 64 40q-92 116 -60 248l-8 8q-12 24 -28 40q40 20 64 52l-24 48l-4 12l8 564l-4 44v136q-4 32 4 60q76 -20 108 -80z" />
    <glyph glyph-name="L" unicode="L" horiz-adv-x="700" 
d="M9 1477q56 -88 200 -92v-372q12 -36 32 -60l-28 -28q-32 -160 32 -288l-24 -20q-48 -168 28 -300q-44 -36 -44 -88l-16 -4h-20l-12 -4h-36l-28 -4q-60 0 -88 -8q-28 -48 -24 -96l4 -8q36 -76 88 -124q24 -12 48 -12h136q52 8 92 0q32 0 56 4l44 8h44l28 4h72q24 16 40 32
q-4 224 -216 224q56 164 -20 304q20 16 32 36l4 44v52l-4 16v128l-28 44l28 28l4 20v300l4 12v112q4 96 -12 156q-56 92 -132 144h-300q-40 -92 16 -160zM269 1589q72 -56 108 -124v-24q8 -12 8 -20v-72l-4 -12v-408q-16 -20 -40 -16l-20 -12v-24l4 -12q36 -28 52 -64
l4 -196q-56 -4 -60 -48q100 -132 48 -276q-24 0 -40 -4q-8 -20 -8 -36l52 -56q172 24 208 -124l-4 -20h-24l-192 -24l-12 4l-44 4h-52q-72 -12 -120 -8q-20 4 -32 12l-16 16l-8 12q-32 40 -44 72l8 32h56l24 8l24 -4l12 4q40 4 68 0l24 8q12 28 8 52l4 28q36 16 60 36
q-100 148 -48 292q24 0 44 12l4 24q-92 136 -56 280q36 0 60 16l-4 24q-44 44 -60 88l-4 404l-24 12q-216 -16 -200 144h236z" />
    <glyph glyph-name="M" unicode="M" horiz-adv-x="1270" 
d="M0 1632q-4 -136 100 -208v-64l-4 -12v-140l4 -8v-336q12 -32 28 -48l-20 -16q-48 -164 24 -300q-24 -16 -36 -28q-4 -24 -4 -40l4 -208l8 -8l16 -28q72 -120 188 -72q40 160 -24 292l20 12q44 160 -12 292l-8 12q36 24 40 56v328l4 24v196q76 44 112 112q36 32 60 44
q4 -96 48 -164q-40 -40 -36 -88q0 -32 4 -56q-12 -104 40 -180q-20 -8 -32 -20q-4 -8 -8 -28v-40l4 -12v-152q12 -36 32 -60q-20 -12 -32 -56l-4 -24q0 -36 -4 -64l4 -16v-40l-4 -12q0 -36 -4 -64l4 -24l-4 -44l-4 -44q4 -52 -8 -92q16 -32 48 -28q8 -24 20 -36l8 -24
l16 -28q24 -56 52 -88q60 4 84 56l4 20l8 216q4 24 4 40v68l4 8l-4 132q-12 32 -28 52q20 24 32 44q24 152 -40 272l28 16q40 172 -32 308q20 12 28 24q12 52 8 88q64 48 92 108q40 16 64 40l8 -20q0 -108 56 -184q-20 -20 -28 -36q0 -24 -4 -40l4 -12q0 -32 4 -80l12 -108
q12 -28 28 -44q-20 -16 -32 -32l-4 -12q-4 -24 0 -44l4 -168q12 -32 28 -56q-20 -12 -32 -28q-8 -40 -8 -68v-92l-4 -24v-160l-4 -12v-120l8 -16l72 -48l8 -4q32 -24 56 -36q28 -20 44 -36l28 4l12 20l4 256q8 32 4 56v152q-12 36 -28 64q20 12 28 24q0 12 4 16l-8 244l-4 8
l-16 20l28 36q24 176 -52 296q24 24 32 56l-4 24l-4 28q-8 52 -4 88l-4 20q-4 32 -16 52l-4 16l-12 44q-4 48 -20 84l-12 16l-52 64l-12 4l-20 16l-48 24h-200q-24 -20 -36 -36q-36 -20 -60 -44q-160 128 -328 40q-68 76 -160 72zM280 1640h28q72 56 152 36q104 0 156 -76
h28l12 16l52 40q32 16 44 36q132 4 180 -8q60 -44 92 -92l4 -12q12 -32 12 -56l4 -12q8 -44 20 -72q4 -8 8 -28l12 -144l-8 -8q-24 0 -40 -8l-4 24q-88 104 -84 232q-12 24 -28 36q-112 -4 -160 -104l-32 -32q-32 -20 -48 -40q4 -48 0 -80q-36 -8 -56 -24l4 -32
q92 -120 60 -264l-52 -20l-4 -28q92 -132 56 -272q-52 0 -56 -44q32 -32 52 -64q8 -44 8 -72v-36l-4 -20q-4 -36 0 -48q0 -36 -4 -64q0 -36 -4 -64v-80q-8 -24 -4 -48l-12 -44l-12 20q-12 20 -16 32l-16 28q-24 64 -64 100l4 84l4 16l8 280q64 0 64 44q-44 44 -64 92v180
q52 4 60 44q-92 116 -64 276q44 4 60 32q-80 112 -68 228l-20 12q-48 8 -84 0q-32 -40 -68 -64q-40 -76 -112 -108l-4 -28v-200l-4 -24v-328q-52 0 -64 -36q96 -128 60 -272q-44 -8 -60 -40q96 -140 52 -280h-24q-72 48 -88 124v164q40 12 64 32q-96 144 -56 288q44 4 56 40
l-20 24q-24 28 -36 52v468l4 28v72q-96 68 -104 164l120 120q76 -24 108 -88zM1032 1208q108 -108 76 -272q-52 -4 -64 -40l4 -8q40 -36 56 -72q0 -28 4 -48l-4 -32v-120q-48 0 -56 -40l4 -8q36 -32 48 -64l4 -16v-56q-4 -48 -4 -80v-44l-4 -20v-136q4 -32 -4 -60
q-8 8 -28 20q-28 20 -44 28l-8 8q-24 12 -40 28v72l4 24v156l4 24l4 144q56 0 68 40q-88 92 -64 272q44 4 64 36q-48 60 -64 108l-4 32l-4 148q28 4 44 16z" />
    <glyph glyph-name="N" unicode="N" horiz-adv-x="1120" 
d="M520 1744q-48 0 -80 -8l-8 -8l-36 -28l-8 -8q-40 -72 -92 -108q-140 140 -296 -4q0 -144 108 -216v-56l4 -8l4 -44v-56l4 -8l4 -64l4 -20v-48l4 -20q0 -32 4 -52v-12l4 -20q0 -52 4 -72v-40q12 -72 8 -120q12 -32 32 -52q-48 -80 -36 -160q-12 -72 16 -132
q-80 -80 -56 -184q16 -20 36 -24l28 -44q12 -20 16 -36l12 -24l36 -68h48l8 4l32 28q32 128 0 236q76 60 52 200q-4 68 -40 112q36 20 40 56l-4 28v80l-4 24v28q0 40 -8 68q4 32 -4 60l-8 168q-4 24 -8 60l-4 20l-4 108l16 12l68 32q28 12 44 24l48 36l8 8l24 20l52 56
q12 16 24 24q48 4 80 0l4 -16l4 -144q4 -44 32 -76q-20 -24 -32 -44q-20 -160 48 -280q-28 -12 -40 -44v-12q0 -40 4 -64q-4 -36 0 -64q8 -44 4 -76l4 -228l4 -12v-68q0 -24 -4 -40q12 -56 4 -100l16 -48q64 -104 168 -128q24 16 36 28l-12 716q-12 36 -32 56l32 36v72
q0 32 -4 56v60l-4 32l-4 28l-28 40l24 16q48 212 -80 356q20 116 -72 180l-8 4l-20 16l-44 4h-144zM796 1584q-12 -32 -12 -60q124 -128 88 -296q-52 -8 -56 -48q84 -84 60 -188q12 -48 4 -92q-40 0 -56 -28l4 -20q40 -32 56 -72l4 -28v-84l4 -12v-120q-4 -12 0 -16l4 -296
q8 -72 0 -120q-88 44 -116 128l4 28l-4 188l-4 20l-4 284l-4 16v68l-4 36q40 12 64 28v20q-100 128 -68 280q52 4 56 44q-36 36 -56 72v16q-8 40 -8 68v60q0 28 -4 72l-12 16l-16 4l-16 -4l-116 -4q-28 -20 -52 -56l-20 -24l-68 -56l-168 -92l-4 -28l4 -28v-40q4 -8 4 -28
q0 -48 8 -80v-52q8 -32 8 -56v-44l4 -20v-36l4 -20q0 -32 4 -56l4 -32v-56l4 -28v-72q-40 -8 -60 -36q92 -128 56 -268l-12 -12q-44 8 -68 -16q20 -44 44 -68q12 -48 0 -84q8 -56 -8 -104l-8 8l-12 28l-32 68l-16 24q-20 36 -44 60q-12 92 68 84l16 20q-76 128 -36 264
q40 8 60 32v12q-44 44 -64 88v72l-8 32v100l-4 24l-4 20l-4 24v52l-4 16v44l-4 20l4 8q-12 32 -8 56l-4 12v68l-4 20q-4 24 0 44l-4 36q-88 60 -108 152q93 121 213 2l-5 2q16 -16 32 -20q92 52 140 132l36 32l60 4q44 0 72 8q156 24 196 -116z" />
    <glyph glyph-name="O" unicode="O" horiz-adv-x="1030" 
d="M340 1660l-100 -68l-8 -8q-20 -12 -32 -16l-44 -20l-16 -24l-4 -8l-12 -36q-20 -20 -32 -28l-28 -68l-12 -32l-4 -8l-28 -88v-16q-20 -72 -16 -120q12 -28 28 -44l-8 -8l-24 -16v-236l8 -20q20 -40 36 -60q-36 -116 16 -216q28 -124 120 -192q-12 -48 0 -88
q128 -220 336 -240h68q24 4 40 12l68 20q48 16 84 20l8 12l12 24l28 84q68 100 56 208q-4 36 -16 60l8 4q12 20 24 28q28 140 -16 260q24 16 40 40v244l-28 48q16 12 24 20q-16 468 -440 592h-104q-20 -12 -32 -16zM448 1628q404 -128 412 -512q-32 -8 -52 -24l4 -28
q40 -32 60 -76v-100q4 -56 -4 -92q-64 4 -64 -48q76 -116 44 -248q-80 -4 -68 -44q44 -40 52 -92q0 -40 -8 -70t-20 -50q-12 -28 -32 -44q0 -24 -8 -40q-16 -28 -20 -56q-252 -108 -400 20q-136 120 -104 192l48 -28l16 -16l8 -4q32 -52 76 -76l12 -4l52 4l24 8h12l68 24
q32 12 60 16l8 8l52 116q32 60 36 112l8 8q36 4 60 24v20q-68 80 -48 168q-8 48 0 88l12 12q32 -8 56 16l-4 24q-28 32 -44 60v72q0 20 4 32v60l-4 24q52 8 60 48l-56 64q-20 248 -248 288l-20 -12q-32 -16 -52 -32q-32 -16 -52 -36l-80 -52l-8 -12q-16 -44 -48 -72
q-12 -44 -36 -68q0 -24 -12 -52l-24 -112q-44 -8 -68 -28q20 -44 48 -68q0 -28 8 -44l4 -172q-32 -12 -48 -28l8 -32q80 -76 84 -176q36 -68 24 -132q-108 72 -124 180q-36 76 -32 148q40 12 48 44q-124 128 -72 296q36 -12 60 12v16q-44 52 -60 88l4 12l8 68l4 24l12 40
l4 16l48 116l28 20l12 28l16 40q80 36 120 72l32 20q28 20 52 32h52zM672 1324l8 -16l8 -28q8 -84 40 -136l-4 -8q-16 -16 -24 -36l4 -68q-24 -104 16 -184q-20 -8 -32 -20q-36 -160 16 -288q-52 -48 -56 -108l-68 -144q-120 -40 -172 -44l-20 16q-44 56 -96 88
q12 56 -24 140q-12 108 -72 184q12 8 24 28v56q0 32 -4 56l4 8v32q-8 48 -8 80l-20 44q24 16 36 32q12 156 96 256q12 32 28 56l52 28l12 12l8 4l20 16l20 16q32 12 52 32q100 -28 156 -104z" />
    <glyph glyph-name="P" unicode="P" horiz-adv-x="1040" 
d="M12 1592v-280l-8 -80l4 -28v-444l8 -8q8 -24 24 -40l-24 -16q-48 -164 24 -296l-8 -8l-24 -20l-4 -12v-72l-4 -12l4 -16l-4 -20l4 -32q0 -60 8 -100q72 -116 192 -108q64 168 -16 312q28 20 36 44q212 -152 424 -52q68 12 92 68q80 72 60 168q84 28 88 108q28 92 -12 164
l28 28q24 200 -80 340q40 56 12 116l-24 48q-12 20 -16 32l-16 28l-8 8l-36 56l-4 8l-32 40l-20 24l-68 64q-224 56 -408 -32q-68 84 -168 76q-16 -28 -24 -56zM168 1520l24 -12q200 96 392 48l8 -8q20 -16 32 -32q128 -132 172 -288l-8 -8l-24 -16q-20 36 -48 56
q-32 44 -44 84q-48 44 -72 84l-12 4l-64 4l-20 -4l-64 -20l-16 -4l-152 -52q-56 -12 -88 -32v-184q-8 -40 -4 -68v-268q0 -76 -4 -124q-56 -4 -60 -44l20 -20q64 -88 144 -132h136q32 4 60 -4q36 20 68 24l8 8l20 24q48 44 72 88q40 -20 72 -4q-4 48 -28 80l4 28
q12 32 28 52q0 36 8 64q64 20 64 44l-4 12q-32 32 -48 60l-4 68l-4 16v28l-12 100l8 8l24 12l8 -24q120 -136 92 -296q-56 0 -60 -44q100 -112 20 -228l-8 -4q-44 8 -76 -8v-32q56 -96 -40 -156q-24 -44 -68 -48q-216 -92 -412 80q-40 -16 -36 -64q-32 -8 -56 -24l4 -32
q92 -124 44 -260q-72 24 -104 88l-4 200q40 4 64 24v12q-52 72 -68 144l-4 28l4 60q8 24 8 44q52 4 60 44q-40 44 -60 84v472l4 24l4 324q72 -20 100 -80zM568 1380q4 -8 20 -28q28 -32 40 -52q24 -52 56 -84l-20 -28l4 -16l-4 -24q12 -32 12 -80l4 -16q0 -20 4 -32
q-4 -32 0 -60q12 -36 32 -56q-48 -44 -48 -104q-40 -56 -28 -120q-28 -12 -44 -28l-4 -8q-36 -56 -76 -88q-32 -4 -52 -20h-164l-16 12q-56 32 -88 72l28 24l4 20l4 40v400l4 16v164q32 16 56 20q40 12 64 28l28 8l128 40h56z" />
    <glyph glyph-name="Q" unicode="Q" horiz-adv-x="1050" 
d="M176 1672l-64 -132l-8 -8l-8 -28l-52 -88q0 -36 12 -64q-32 -8 -56 -28v-240l4 -24l20 -28q-16 -16 -24 -32v-108q-4 -96 8 -156l24 -28q-36 -36 -32 -84q176 -524 644 -460q64 -136 192 -136q32 -28 60 -28q120 -16 112 92q-12 44 -32 76q-48 56 -112 80q-8 56 -32 96
l32 32q28 160 -40 284q28 16 40 36v580l4 44v196q-8 24 -8 48q-48 84 -116 128q-96 8 -112 -80q-56 20 -104 20l-140 40l-20 4l-60 16h-116zM292 1640l56 -12l16 -4l28 -8l28 -8l36 -12h12l44 -16h12l80 -12q32 -32 64 -40l20 16q-16 68 28 100q64 -44 92 -100l4 -24v-780
l-4 -24q-40 -8 -56 -40q116 -172 24 -344l4 -8q28 -48 32 -96l8 -24q116 -36 140 -140q-64 -36 -116 28q-100 -32 -168 128q-492 -72 -620 436q36 12 48 44l-24 28l-28 48l-4 68l4 12v120q44 0 60 28v12l-8 8q-32 32 -48 56v12l-4 32l-4 24v44l4 28q-4 44 4 72q48 -12 76 12
v12q-28 44 -32 88l56 96q0 8 12 24l8 20l24 40q12 40 24 60q40 4 68 -4zM328 1476l-8 -20l-8 -12l-12 -24q-28 -64 -52 -100l-28 -48q-48 0 -80 -12q-4 -20 -4 -32q52 -112 28 -224l-12 -12q-32 4 -48 -24q96 -140 56 -288q-32 -8 -44 -32l8 -20q40 -44 56 -80l12 -24
l12 -28q24 -64 56 -100q236 -116 388 56l8 8q24 16 36 28l4 16l-4 20v164l16 8q40 0 48 32l-16 24q-32 28 -44 60l-4 540l-4 28l-52 52h-16l-28 8q-24 4 -28 8q-28 4 -44 12l-24 4l-20 8h-12q-64 28 -120 24zM500 1408l16 -4l100 -28l20 -20l4 -344q4 -24 4 -40v-176
q12 -32 32 -52l-28 -16l-12 -56v-36l4 -28v-88l-28 -24q-48 -64 -112 -88q-112 -12 -204 32l-12 16l-16 28q-4 16 -20 44q-24 64 -56 100l20 20q32 164 -28 296l28 20q24 136 -8 248l56 16l32 56l4 12l28 48q12 28 24 44q12 32 28 52z" />
    <glyph glyph-name="R" unicode="R" horiz-adv-x="891" 
d="M0 1532q0 -80 48 -136v-320l-4 -16l4 -296q12 -28 28 -44q-20 -20 -32 -40q-24 -152 32 -272q-24 -24 -36 -44q4 -24 0 -44v-168l24 -60q112 -148 192 -60q36 152 -24 280q24 16 32 36q28 156 -32 280l36 32q4 24 0 44v168l20 20l28 68l60 172q32 48 40 84q44 52 64 68
l64 72q24 24 36 40l24 -24q48 -136 172 -168q80 -8 60 120l-12 16q-72 164 -192 264q-44 16 -80 20q-20 -12 -28 -24q-56 40 -116 44q-8 -4 -24 -20q-12 -28 -40 -60l-4 -8q-40 -36 -60 -64q-48 168 -204 164q-56 -56 -76 -124zM228 1416l20 -20l24 8l12 12q16 24 48 52
l84 88l12 32q52 -16 80 -56q48 -16 64 36l28 -8q4 -8 24 -20l36 -40q12 -24 28 -36l60 -80q0 -20 4 -32l8 -4l28 -52v-36q-116 32 -144 152l-8 4l-16 20q-24 28 -36 48l-12 4l-20 -4q-12 -32 -16 -60l-60 -60q-24 -32 -40 -48l-64 -68l-8 -12q-20 -60 -44 -96
q-28 -144 -104 -248v-184l-4 -24q-40 -4 -60 -24l4 -24q84 -108 64 -232q-4 -24 -12 -40q-48 8 -56 -36q64 -80 68 -172q0 -64 -24 -108q-72 44 -104 116l4 184q56 4 56 48q-52 60 -60 128l4 136q36 8 60 32l-8 20q-32 40 -48 68v172q0 32 -4 56l4 304q-4 56 4 92
q-44 64 -56 116q28 52 56 84q140 -40 124 -188z" />
    <glyph glyph-name="S" unicode="S" horiz-adv-x="934" 
d="M104 1560q-60 -96 -12 -188q-48 -44 -40 -104q32 -228 212 -332l28 -48l12 -8q28 -32 52 -48q12 -8 16 -12q32 -20 52 -44l112 -96l44 -4l8 -32q12 -20 16 -32l12 -28v-16l4 -8v-112q-20 -16 -28 -40q0 -40 12 -68q-40 -20 -60 -60l-8 -4h-32q-112 -36 -212 -20l-12 16
l-12 24l-32 64q-20 88 -68 148q-148 128 -168 8v-48q4 -12 8 -40l28 -80l80 -156q36 -56 64 -88q196 -164 424 -84q208 0 172 180q40 8 68 28l4 12q8 48 0 88v16q0 32 -4 52l-4 108q-28 188 -180 280h-32l-16 48l-100 108l-24 20l-32 32l-8 4q-60 56 -120 80l-8 4l-24 40
q-8 88 -48 148q16 12 32 16l12 40q4 12 8 16l28 64q20 0 32 4l56 -4l12 -4q44 -8 76 -24q24 -8 60 -36q24 -44 52 -68q72 -224 240 -168v92l-20 44q-12 32 -26 54t-26 38q-20 36 -36 56l-16 28q-24 32 -52 80q-24 40 -52 60l-8 4q-52 24 -92 28q-164 88 -324 76
q-92 -24 -100 -104zM504 1536q52 -4 96 -28l8 -8q36 -44 56 -80l8 -16l8 -8l16 -24l4 -16l16 -16l92 -168q0 -20 -4 -32q-44 8 -72 36l-12 16l-32 52l-4 12q-44 72 -64 92l-4 8q-16 28 -32 44q-160 92 -304 40q-24 -72 -44 -112q-44 0 -68 -24v-16q68 -88 76 -184
q20 -36 28 -60l44 -20l44 -28l16 -16l8 -4l44 -32l76 -76q44 -36 68 -76q12 -32 4 -60h-20l-8 8l-16 12l-24 20l-20 16l-4 8l-24 20l-32 32q-80 48 -120 124q-204 124 -204 340q64 4 76 24l-8 24q-84 88 -16 180q8 68 84 76q152 -4 264 -80zM648 728q168 -136 140 -332
q12 -36 4 -68q8 -36 4 -64q-56 -8 -92 -24v-24q56 -72 -8 -132l-12 -4l-64 -4l-32 -4q-96 -32 -180 -20q-228 48 -288 260q-64 100 -68 200q56 -16 88 -56l24 -44q12 -36 16 -64l20 -32v-12l8 -8q20 -56 48 -88q140 -28 260 16q36 -4 64 12l32 48q32 0 56 12l4 8l-4 20
q-20 36 -24 68q24 16 32 32v44l-4 12l-4 124q-36 64 -40 124h20z" />
    <glyph glyph-name="T" unicode="T" horiz-adv-x="808" 
d="M196 1620l-4 -16l-4 -36l-4 -28l-4 -52l-16 -100l-44 -4h-92l-28 -20q-8 -172 140 -228q-4 -56 -4 -88t-4 -56v-52l4 -28v-72l32 -56l-28 -28q-28 -180 60 -312q-24 -20 -32 -44q64 -292 320 -368l16 20q108 -72 232 -52l8 4q36 28 60 56l4 28v72q-28 28 -48 40l-8 8
q-32 40 -60 56q-36 8 -64 24q-36 -8 -52 -36h-28q-52 8 -96 -4l-28 28l-20 24l-16 24q-20 40 -40 60q16 16 20 32q20 160 -44 284l8 4l20 16l4 28l4 52q0 24 -4 40q8 48 6 82t2 58q-4 48 8 84l-4 8q8 32 4 60l20 -4h156q24 0 40 -4h68q52 -4 88 4q28 40 28 84
q-44 108 -132 160h-16l-44 4h-12q-96 -4 -156 8q60 284 -184 300q-20 -20 -32 -64zM352 1368l4 -24q16 -12 32 -16l36 -4l196 -4q68 -48 96 -116l-4 -28h-104q-36 8 -64 4h-80q-72 12 -128 0q-12 -16 -16 -36v-36l-4 -16q0 -20 -4 -32v-64l-4 -16v-108q-8 -48 0 -84l-4 -32
q-36 -8 -56 -28l8 -28q88 -128 60 -268q-32 -12 -44 -44l12 -16q24 -20 36 -36q56 -108 144 -168q24 12 36 36q84 -28 128 24q24 -12 44 -16l12 -12l20 -16l20 -24l36 -32q-8 -28 -8 -44q-108 -88 -248 36q-24 -8 -36 -28q-88 32 -132 104q-92 88 -112 196q44 12 52 48
q-116 128 -84 288q48 8 52 48l-12 16q-32 36 -44 64v96l-4 16l4 12v80l4 28q-4 40 4 72l-12 20q-120 36 -136 148l12 4q84 -8 148 12q12 28 12 52t8 44q4 28 8 60l4 32q0 60 16 100q164 -48 96 -264z" />
    <glyph glyph-name="U" unicode="U" horiz-adv-x="1022" 
d="M0 1608v-852q8 -28 24 -48l-24 -28q-20 -188 56 -316q-8 -52 0 -96q84 -136 204 -208q80 -32 128 20q148 -96 256 32q76 -132 212 -112q28 80 -4 144q0 84 -36 148l24 16q36 168 -36 304q28 16 40 36l-8 244l4 28l-4 388l-4 12v144q-4 52 -24 92q-80 132 -200 68l-4 -32
l12 -812q8 -52 36 -88q-48 -48 -32 -144l-12 -12l-8 -28l-4 -8q-28 -28 -40 -52l-64 -60l-20 -24q-24 -44 -44 -68q-60 -4 -100 -36q-24 20 -44 28l-8 4q-36 20 -56 40q36 160 -36 288q24 16 36 40l-4 852q-60 136 -196 136q-16 -20 -20 -40zM168 1488q-4 -20 0 -36v-776
q-44 -8 -64 -36q104 -148 60 -300l4 -24q20 -28 60 -60q60 -28 96 -76q20 -8 36 -4q16 24 20 56l24 4l60 12q48 96 120 144l16 24q32 52 72 80v140q40 12 60 36l-60 92l-4 32v140l-4 32v232l-4 28v272l-4 8v76q20 8 40 8q60 -40 80 -100v-32l4 -20l-4 -44v-44l4 -28v-216
l4 -16v-208q0 -24 4 -40v-176q-40 -8 -64 -28l8 -28q100 -120 60 -268q-36 -20 -44 -52q56 -76 48 -156q24 -44 20 -88q-112 20 -152 152q-44 -4 -68 -64q-120 -96 -208 28q-52 -4 -40 -52l-16 -12q-164 56 -228 200q0 44 12 76q-64 80 -56 168q-8 24 -8 48q-8 32 -4 60
q48 0 60 36l-4 8q-40 36 -56 76l4 824q88 -28 116 -108z" />
    <glyph glyph-name="V" unicode="V" horiz-adv-x="1030" 
d="M748 1404q-36 -12 -56 -44q-44 -116 -16 -212q-36 -12 -56 -36v-28q-20 -44 -24 -76l-4 -16l-4 -16l-28 -100l-20 -68l-8 -28l-8 -24q-8 -44 -20 -76l-4 -16l-4 -16l-8 -28l-16 -48q-12 -64 -36 -112q-20 36 -44 60q20 24 24 56l-4 12q-4 44 -16 76q0 12 -4 16
q0 24 -8 60l-20 100q0 12 -4 16v12l-8 48q0 12 -8 36l-12 64l-4 16l-4 28q-4 28 -12 52q-4 44 -16 76v12l-8 24q-4 44 -16 72l-4 24q-4 36 -16 60v12l-16 40q-20 96 -60 156q-60 68 -140 60q-52 -20 -36 -104v-12l8 -8q4 -20 12 -32v-12l32 -112l4 -32l8 -12l4 -20l8 -56
l4 -16q8 -24 8 -44l8 -24q4 -40 16 -88l4 -20l4 -24l4 -20l4 -20v-20l8 -24l4 -16l4 -36l4 -16l4 -16v-20q4 -8 4 -28l8 -16q4 -32 12 -56q0 -28 8 -48q4 -44 16 -72q20 -40 48 -60l-16 -16v-68l4 -16l4 -28q8 -52 20 -88l4 -12l44 -88q32 -48 56 -72q24 -76 56 -120
q68 -76 156 -52q68 124 36 244l48 32l36 124l4 24l8 24l4 16l44 156q8 20 8 36q12 32 16 52l36 124l4 16l8 28l8 28v12l12 60q-4 28 -16 48q60 40 64 104q32 80 4 152q64 24 82 154t-82 202h-4l-36 16l-16 4h-52q-76 -128 -44 -256zM936 1480l-4 -8q-4 -76 -40 -132
q-40 8 -64 -8q-4 -20 0 -32q56 -80 12 -156q0 -36 -16 -60q-44 16 -72 -12q16 -52 40 -80v-32l-48 -168v-16l-8 -24l-4 -12q-12 -32 -16 -56l-24 -84l-4 -8l-8 -44l-4 -16l-8 -16l-12 -56l-12 -32l-4 -16l-28 -100l-12 -8q-40 16 -64 -12l4 -28q68 -108 -4 -212
q-96 12 -120 148q-128 144 -132 316l8 8l24 12l4 -8l8 -24q76 -72 88 -164l16 -20h32q36 -12 60 -12q24 48 -24 88l-8 32l4 16v16q28 84 32 112l12 36l48 164q8 36 16 56q8 44 16 68l4 8l24 96q20 48 24 84l8 8q40 -4 68 12l4 20q-68 100 0 228q48 -20 76 8q-72 132 -4 248
q104 -28 112 -128zM128 1564q4 -24 20 -36q12 -28 18 -46t10 -34l36 -112v-12l20 -80l4 -28l4 -32l16 -56l4 -8q0 -40 12 -72l4 -28l4 -28l12 -56l4 -16q4 -32 12 -56l4 -44q4 -40 16 -64q4 -16 8 -44q0 -28 8 -52q0 -28 12 -44q0 -24 4 -40l-36 -40v28l-68 68l-16 40l-4 36
l-4 24l-4 24l-12 60l-12 48l-4 28l-4 24l-4 28l-4 28q-8 24 -8 44l-8 20v12l-12 60q0 8 -4 28l-4 28q-12 28 -12 52l-12 56l-4 20q-8 44 -16 68l-4 16l-12 44l-4 12l-4 20l-12 48q-24 52 -20 92q44 0 76 -28z" />
    <glyph glyph-name="W" unicode="W" 
d="M4 1692l-4 -12l4 -176l4 -24v-48l4 -24v-40q4 -16 4 -32t8 -44v-52l4 -12q0 -32 4 -56l8 -60l36 -48q-16 -12 -24 -24q-20 -176 56 -308l-28 -28q-20 -176 56 -308q-20 -12 -28 -24q0 -28 -4 -48l4 -20l4 -28v-40l4 -28v-48l4 -24q12 -20 16 -32q12 -28 24 -44
q80 -84 176 -52l4 20q12 32 20 84l16 68q4 32 12 56v16l8 16q0 12 4 16l4 28l4 24l16 68q0 12 4 16v12q4 32 12 56l12 48l8 100q-8 24 -20 36q68 48 60 124l20 -68q4 -36 16 -64l4 -24l4 -24l24 -72q4 -40 16 -68l4 -16q8 -24 12 -60l12 -36l12 -56l12 -32l12 -28
q20 -8 32 -24q48 -52 104 -80q76 -32 116 36q76 92 40 196l20 12l4 8l20 56v12q12 36 12 68q4 84 -36 148q32 16 44 64v84l4 28v88l4 32l16 384l4 12q8 40 8 68v112q-52 88 -128 132q-48 0 -84 -28l-4 -16l-8 -36v-28l-4 -12q-4 -44 -12 -76l-4 -56q0 -48 -4 -80l-4 -24v-52
q0 -36 -4 -64v-68l-4 -16v-120q0 -32 -4 -56v-120q12 -36 28 -56q-52 -80 -44 -172l-16 44l-4 20l-4 24l-12 28l-24 100l-4 16l-8 24q-4 40 -12 64l-12 40q-12 32 -16 56l-8 44l-8 24q-8 72 -60 168q-56 60 -128 72l-68 -4q-80 -136 -32 -268q-68 -36 -72 -148
q-24 56 -44 88q20 16 32 32v52q-12 60 -8 100l-8 24v64l-4 32q0 36 -8 64l-4 96l-4 8v16l-4 28v24l-4 12l-4 36q-68 128 -196 120zM148 1588q16 -32 20 -80l4 -68l4 -24l4 -72l4 -20v-36q8 -32 4 -56l4 -12v-28l4 -12l4 -32l4 -100q-40 -12 -52 -44q96 -128 88 -276l4 -16
q-120 -44 8 -92q40 40 12 84l36 28q40 -8 64 16l-8 28q-32 40 -36 80v32l16 56l4 44q12 12 24 16q32 -8 52 16q-72 136 -4 256h28q60 -20 96 -64l12 -20l32 -96l4 -24l4 -28l4 -24l16 -52l4 -24q24 -84 32 -136q16 -36 20 -64l8 -20q4 -36 16 -64q0 -12 4 -16v-16l8 -20
q0 -8 4 -28l8 -24l4 -16l12 -32q8 -44 16 -68q52 -20 100 -12q8 12 12 32q-64 88 -36 184q-4 44 8 80q36 -4 56 20v12l-8 12l-20 24l-24 44l4 172q0 32 -4 52l4 64q0 32 4 56v64l4 12v84l4 16v64l4 16v20l24 164l20 12q64 -48 96 -104v-68l-12 -32l4 -12l-8 -40
q0 -48 -8 -80q0 -48 -8 -80l4 -20q-8 -36 -4 -68v-96q-4 -40 -4 -68v-76q0 -24 -8 -40l4 -8v-68l-4 -36q-36 -4 -64 -16l4 -36q88 -108 36 -232l-8 -20q-36 8 -60 -12v-24q96 -88 -20 -212l-20 4q-148 84 -164 236l-4 24l-24 76l-4 20q-4 44 -20 76l-4 28l-12 44
q-12 28 -12 52l-4 16l-12 40l-4 20l-8 28q-4 20 -12 36l-4 24q-12 40 -16 68q-36 28 -72 32q-20 -16 -20 -40q76 -120 8 -240q-40 4 -64 -16q12 -52 44 -88v-12l-4 -32l-4 -28l-4 -24l-8 -28q-20 -72 -24 -120l-16 -52l-4 -32l-4 -24q-12 -32 -12 -60l-24 -96q0 -40 -16 -68
q-84 20 -112 96l-4 16l-4 112l-4 8l-4 64q40 8 56 32q-104 144 -84 304q40 8 52 36q-100 140 -80 296q40 8 52 40l-12 16q-24 24 -52 68l-4 20l-8 52v28q0 12 -4 16q0 60 -8 100v36l-4 16v32l-4 20l-4 68l-4 32v100q64 -24 96 -68z" />
    <glyph glyph-name="X" unicode="X" horiz-adv-x="1050" 
d="M0 1480l20 -24l60 -108l4 -12l52 -88l12 -24l44 -76q12 -24 24 -40q8 -24 20 -40l52 -92q16 -36 32 -56l4 -8q24 -56 52 -88q-16 -48 -8 -88q-72 -24 -92 -92q-36 -60 -28 -120q-140 -72 -36 -216q60 -72 136 -56q76 44 52 128q100 40 124 164l4 -8l16 -24q24 -36 44 -56
l60 -56q0 -116 88 -224q60 -172 216 -176q24 24 32 56q-12 80 -56 136q-12 36 -36 64q-44 112 -128 172q4 28 0 52l-20 40l-40 80l-12 20l-60 104q12 48 12 84q28 0 44 16l120 212l12 16l20 44l12 16l60 108l12 20l72 132q8 76 -24 136q-64 76 -152 88q-24 -20 -36 -36
l-64 -112q-24 -36 -36 -64l-40 -68l-20 -36q-16 -28 -24 -52l-104 -184q-12 -24 -16 -44q-28 40 -40 72l-12 16l-12 24l-48 84q-4 12 -24 40l-12 24l-84 148l-4 12l-16 28l-4 12l-52 84l-40 36q-56 24 -112 20q-28 -60 -20 -120zM132 1504l16 -24q4 -12 12 -22t16 -34l8 -12
l12 -16q20 -44 40 -72l44 -80l12 -24q28 -44 40 -72l12 -16l12 -20l20 -36v-12l8 -8l12 -16l16 -36q32 -44 44 -80q40 -32 76 -44q40 24 0 116l76 136l12 24q20 28 28 52l28 48q16 40 36 64l100 180q12 24 24 40l40 -16q68 -52 72 -124l-16 -24l-8 -24l-24 -40l-8 -8
q-8 -20 -16 -32l-24 -44l-12 -20l-8 -20l-52 -88l-4 -12l-44 -76q-4 -12 -8 -16l-36 -60q-20 -48 -44 -76q-52 36 -84 4v-28q44 -56 16 -124l132 -236q4 -24 -4 -44q-120 84 -168 204q-40 24 -80 28q-12 -24 -12 -44q64 -88 -40 -184q-44 12 -76 -4q52 -140 -24 -132
q-76 52 -80 132l12 24q52 -8 88 0l4 24q-52 80 0 148q20 72 92 44l20 16q-8 36 -24 64q12 56 12 88l-32 48l-4 12l-68 120q-4 12 -20 36l-52 100q-16 20 -28 48l-88 152q-4 12 -8 16l-32 60q-32 44 -44 80q-4 20 4 40q48 -16 76 -48zM236 460l12 8q40 -8 -12 -8zM764 364
l28 -40l8 -16l8 -8l44 -80l12 -20l12 -28l16 -24q24 -40 36 -72l-4 -24q-28 4 -48 12l-8 8l-24 20l-16 20l-32 64l-4 12l-20 28l-4 12l-12 24q-12 20 -16 32q-28 32 -40 68l4 36q32 -4 60 -24zM136 -36h60q112 68 116 180q-56 132 -184 152q-216 -180 8 -332zM256 136
q-52 -216 -176 -40q-16 92 64 144q80 -32 112 -104z" />
    <glyph glyph-name="Y" unicode="Y" horiz-adv-x="968" 
d="M0 1584l12 -32l8 -16l12 -44l20 -64q8 -32 20 -52q8 -52 28 -92q12 -28 12 -52l12 -32l4 -16q12 -36 24 -56l28 -88l4 -28l52 -152q12 -52 28 -88l4 -16l4 -16l16 -36q0 -28 12 -48l4 -12q12 -28 16 -48q32 -24 52 -52q-36 -120 48 -208l-16 -36q-8 -32 -28 -56h-144
q-96 4 -156 -8q-48 -96 20 -176q40 -40 72 -60h364q20 4 36 16l20 36q40 64 52 120q100 156 40 304l36 20q44 168 -8 280q20 12 40 40v56l8 20v44q12 44 8 72l-20 48q24 20 40 44q36 212 144 364v60l-32 28q-64 104 -176 112l-16 -16l-20 -32l-28 -48l-16 -52l-28 -56
l-20 -64q-4 -32 -16 -60l-20 -88l4 -12q4 -36 20 -64q-20 -8 -32 -20q-52 -148 4 -276l-28 -16l-16 -40v-24q-8 -76 -8 -124l-8 16q-8 36 -20 64q-12 48 -28 80q-4 28 -12 44l-24 72q-8 44 -24 72l-4 24q-12 28 -16 48l-16 48l-4 16l-36 108l-4 16l-4 16l-4 16
q-20 44 -24 64q-12 52 -28 88l-4 12q-24 96 -60 156q-68 72 -160 64q-28 -56 -20 -112zM136 1604l-4 -8q28 -32 36 -64l16 -60q20 -48 24 -84l8 -8v-12l8 -20q16 -36 20 -64q24 -52 28 -92l8 -8l36 -124q16 -36 16 -64l12 -16l8 -24v-20q16 -32 24 -60l4 -16l4 -16l48 -136
l4 -16l4 -20l28 -80q-4 -28 -24 -40l-12 20q-48 32 -68 68l-12 36l-12 28q-12 52 -28 88l-24 72v12l-24 68l-4 20l-60 188l-12 32l-24 64v12l-20 64l-8 12l-8 24v12l-20 64l-12 36l-16 44q0 12 -4 16l-28 92l8 24q48 -16 80 -44zM856 1512l24 -16l-12 -28l-16 -20l-44 -76
l-4 -16q-12 -20 -16 -32l-16 -40q-4 -32 -16 -52v-12l-8 -20l-16 -80q-48 8 -72 -16l4 -28q32 -32 44 -68v-48l-4 -16l-4 -16q0 -60 -12 -100q-36 4 -64 -16v-20q96 -100 40 -264q-40 8 -64 -16l4 -24q100 -140 -16 -292q-20 -84 -64 -144l-32 -4l-52 4l-264 8
q-68 48 -68 120l16 12h200q52 -4 88 4q52 76 64 148q-68 80 -60 172l12 12q92 -112 112 -4q56 -8 60 40q-32 32 -48 68l4 64q-4 72 12 124q40 -4 64 20q-92 140 -32 276q40 -8 64 20l-4 16q-36 44 -48 84v24l4 16l20 68q12 28 12 52q12 24 16 44l16 40l8 12l12 28
q20 52 44 88q80 -28 112 -96z" />
    <glyph glyph-name="Z" unicode="Z" horiz-adv-x="909" 
d="M372 1668l-80 -8l-28 -4l-24 -4l-40 -8l-60 -4l-28 -4l-44 -4q-20 -20 -28 -36q16 -140 128 -208l20 -4l44 4l88 8l44 4l40 8h24l12 4l44 4q44 8 72 8q-88 -104 -68 -220q-68 -20 -80 -84q-44 -72 -24 -144q-28 -4 -44 -16l-24 -40l-12 -28l-24 -52q-20 -52 -36 -72
l-20 -52q-8 -20 -16 -32l-12 -28l-20 -52l-8 -12l-64 -152q-32 -56 -44 -100q4 -32 16 -56q-100 -40 -76 -156q48 -96 136 -128q124 -20 168 40q148 -80 264 16q24 -24 56 -32h28q24 8 56 4l44 4l28 4q36 0 88 12q60 148 -120 244h-44l-20 -4h-40l-12 -4l-116 -8
q-20 -16 -32 -36q-72 44 -164 24l8 12q24 64 44 100l8 24l16 28l60 140q12 20 16 36l76 172q0 36 -12 60q68 28 80 92q36 72 20 140q72 28 84 92q40 72 20 140q108 48 104 176q-124 244 -452 200zM788 1472q0 -132 -104 -108l-20 -20l4 -28q48 -64 4 -128q-4 -32 -20 -56
q-12 -4 -16 -8q-44 16 -76 -8q60 -124 -16 -220l-8 -4l-64 12q-8 -12 -16 -16l4 -32q28 -28 36 -64l-4 -16l-8 -20l-8 -12l-20 -44l-8 -12q0 -8 -8 -28l-16 -20q-8 -40 -24 -68l-28 -64q-12 -20 -16 -32l-64 -148q-32 -56 -40 -104q12 -12 24 -16l16 4l132 4q40 -24 60 -52
l24 -16q36 16 32 76q24 0 40 4h64l24 8l64 4q84 -52 104 -136l-12 -12h-24l-16 -4q-24 0 -28 -4l-128 -4q-28 16 -44 32l-36 32q-36 -8 -36 -72q-136 -40 -228 56q-44 -16 -28 -64l-12 -12q-148 -20 -196 112q0 40 28 64q48 -28 80 4v12q-32 48 -40 96l12 32l24 44
q12 24 16 40q20 32 24 56l24 48l4 12q12 32 24 52l4 16l44 88l4 12l28 56l8 24q24 64 48 100q48 -16 76 8q-52 120 20 216q52 -4 84 12l4 16q-52 80 -4 152q20 72 92 48q12 16 16 32q-28 48 -56 76h-56l-20 -4q-40 0 -68 -8q-32 0 -56 -4l-12 -4l-56 -8h-24l-8 -4h-16
l-28 -4h-24l-48 -8q-80 56 -104 140q12 8 20 8h20q12 4 32 4l20 4h16q40 4 68 12h12l24 4q36 0 64 8l48 8q256 36 372 -152z" />
    <glyph glyph-name="bracketleft" unicode="[" horiz-adv-x="597" 
d="M-23 1550v-552q16 -40 36 -64l-24 -20l-12 -56l4 -16v-116q8 -44 8 -72q16 -28 28 -40l-24 -20q-36 -172 36 -304q-84 -80 -12 -236l8 -8q24 -32 44 -46t28 -26l20 -4h252l8 4h72l8 8l24 20q-8 260 -284 224l16 24l-4 32l4 16l-8 188l-28 40q48 84 28 164q4 84 -32 148
l-4 8q36 32 36 72v24q0 12 -4 16v268l-4 12v116l16 4l72 -4l32 -4q52 -8 84 -4q40 48 36 96q-36 88 -100 140q-36 16 -64 16l-68 4q-32 8 -56 4l-28 4h-128q-16 -32 -16 -60zM89 1558l16 -4q32 0 84 -4l8 -4q64 8 112 -12q52 -48 76 -108l-12 -28l-68 4q-28 8 -68 12h-72
l-20 -12q-8 -36 -4 -68v-64l4 -20v-272q8 -44 4 -76q-44 0 -64 -32q100 -136 64 -288q-40 -8 -52 -36l8 -20q32 -32 48 -60q-4 -40 4 -68v-132q-60 -8 -48 -56l48 -44q244 48 272 -136q-12 -4 -32 -4q-44 4 -72 -4h-28l-16 -4l-32 4h-120l-8 4l-56 56q-32 80 -24 148l12 12
q40 -4 56 28q-108 140 -64 292q44 0 52 40q-36 36 -56 68v16q-4 24 -8 60v52q4 44 0 76q56 8 56 52q-40 40 -56 76l-4 468q-8 52 4 88h56z" />
    <glyph glyph-name="backslash" unicode="\" horiz-adv-x="920" 
d="M-176 1541l36 -100v-12q16 -24 20 -44l20 -32l4 -12q8 -24 20 -36l4 -12l24 -44q4 -8 20 -28q12 -32 24 -48l4 -8l44 -64l12 -24q12 -28 24 -44l12 -24q4 -20 12 -32l20 -40q4 -20 12 -32l36 -80l12 -12q24 -20 68 -48l8 -4l20 -20l28 -28q28 -116 104 -184
q-8 -32 -8 -56q8 -20 12 -24q4 -24 16 -44l12 -12l60 -84q12 -20 24 -32l20 -28l8 -8l32 -44q40 -36 60 -60l32 -8v-24l12 -48l8 -12l36 -80q8 -84 52 -144q72 -72 164 -60q24 148 -40 276q-56 100 -140 156v36l-24 52q-20 20 -36 48q-20 20 -28 32q-20 32 -40 52
q-48 80 -104 124q12 116 -32 208q-8 8 -20 24l-48 60q-20 20 -32 40l-32 32q-40 36 -60 60q-20 56 -44 88l-4 12l-20 32l-4 12l-56 96l-8 20l-8 8l-12 20l-8 16l-8 8l-84 168l-24 80l-12 28l-32 52q-72 60 -152 52q-24 -56 -16 -112zM-48 1565l32 -56l24 -80l4 -8
q12 -40 40 -84q24 -56 44 -88q8 -12 12 -16l48 -84q16 -24 20 -40l16 -20l8 -20l28 -48l12 -20l8 -20q24 -44 32 -72l28 -16l116 -136q32 -32 52 -68v-12l4 -32l4 -8v-24l4 -12l4 -36l-16 -20q-100 84 -120 196l-12 16l-44 44q-52 24 -84 60l-20 36l-8 24l-4 16l-16 28
l-4 16l-16 28l-24 60l-20 28l-4 12l-76 124l-4 12l-40 64l-4 16q-28 44 -40 72l-8 16q-8 32 -20 48l-4 16l-32 92l4 36q48 -16 76 -40zM500 497l12 -8q32 -24 52 -56l12 -16l12 -16l20 -28q20 -28 32 -40l12 -24l8 -4l12 -16l48 -72l-4 -32q-20 -4 -40 4l-8 8l-24 20
q-20 20 -28 32l-24 36l-32 36l-28 44l-8 8l-52 72q-4 24 -16 44l16 36zM768 133q140 -144 140 -324q-120 52 -124 184q-48 72 -48 144z" />
    <glyph glyph-name="bracketright" unicode="]" horiz-adv-x="656" 
d="M13 1574q48 -216 252 -204q16 -48 40 -80q-20 -16 -36 -40q-20 -152 36 -276q-20 -16 -32 -32l-4 -16l-4 -20q4 -24 4 -40l4 -28v-128q12 -32 32 -56q-24 -16 -36 -36q-4 -36 0 -64v-332l-16 -4l-20 4h-32q-48 12 -112 8q-56 8 -100 -4q-24 -56 -16 -108q40 -76 96 -120
q24 -12 44 -16l360 -12l12 12l4 32v512q-16 32 -28 48l8 8l16 24v12l4 44l-4 172l-24 52l24 16l4 12v144q4 72 -8 120q-12 16 -20 24l28 20v256q-40 80 -100 124l-44 12l-16 4h-288q-20 -24 -28 -44zM269 1566q52 0 84 -8q36 -28 60 -56q12 -24 24 -40v-208q-44 -4 -56 -40
l8 -12q24 -20 40 -44q8 -24 8 -40v-180q-36 -4 -56 -24v-16q72 -88 56 -184q8 -52 -4 -92q-44 0 -52 -36q40 -44 56 -76v-492l-20 4l-140 4q-32 0 -80 8q-52 -4 -96 8q-52 44 -80 100l8 36h68l12 -4h60q80 -16 144 -4q12 36 8 68v360q48 4 68 32v12q-40 36 -64 80l-4 192
q44 4 64 36q-92 136 -64 280q60 4 60 48q-56 60 -68 132l-20 16q-188 -28 -220 144z" />
    <glyph glyph-name="asciicircum" unicode="^" horiz-adv-x="794" 
d="M190 1480l-44 -44l-4 -8q-12 -20 -24 -30t-32 -34q-20 -20 -28 -32l-20 -24q-20 -20 -28 -32l-44 -48v-92q60 -112 172 -132q40 28 60 56l20 20l108 120q24 32 40 48l24 -24q24 -32 56 -60l124 -136q36 -40 72 -64q152 -12 96 136l-12 16l-56 64q-8 12 -16 16l-8 12
l-92 96l-4 8l-76 80q-24 112 -108 176l-28 8h-128q-28 -48 -20 -96zM266 1524l72 -4q76 -60 80 -144l20 -28l48 -48q20 -16 24 -36q44 -28 68 -68q84 -72 124 -156q-8 -32 -40 -24l-20 16l-40 40q-8 12 -24 28l-20 24l-60 60q-12 20 -24 28q-20 20 -24 28l-16 16
q-32 40 -60 60h-20l-32 -32l-20 -24l-56 -64q-4 -8 -20 -24l-20 -24l-12 -4q-32 -52 -72 -84q-60 24 -92 72q-16 36 -16 68l144 160l12 16l12 12l28 36q24 24 36 40q-8 36 0 64z" />
    <glyph glyph-name="underscore" unicode="_" horiz-adv-x="1592" 
d="M116 -9h28l8 4h72l16 -4l460 -4q12 0 16 -4l12 4l28 -4h88q24 16 32 32l8 -4l44 -28h204l20 28l44 -28h224q32 136 -72 212q-184 64 -264 -16q-40 32 -84 40q-160 24 -192 -32q-32 28 -68 36l-748 4q-60 -172 124 -236zM376 179l28 -4h176l12 -4h144l16 -12l32 -20
q16 -28 40 -36q36 24 36 68q144 20 236 -72q40 8 32 52l12 12l8 4l32 4q24 0 68 -8l68 -12q60 -48 64 -116l-16 -4h-144l-24 16q-36 36 -68 52q-32 -20 -16 -52l-12 -16l-156 4l-84 64q-32 -16 -40 -64h-56l-32 4h-224l-12 4h-244q-72 12 -120 0q-116 40 -100 136h344z" />
    <glyph glyph-name="underscore" unicode="&#x2014;" horiz-adv-x="1592" 
d="M116 -9h28l8 4h72l16 -4l460 -4q12 0 16 -4l12 4l28 -4h88q24 16 32 32l8 -4l44 -28h204l20 28l44 -28h224q32 136 -72 212q-184 64 -264 -16q-40 32 -84 40q-160 24 -192 -32q-32 28 -68 36l-748 4q-60 -172 124 -236zM376 179l28 -4h176l12 -4h144l16 -12l32 -20
q16 -28 40 -36q36 24 36 68q144 20 236 -72q40 8 32 52l12 12l8 4l32 4q24 0 68 -8l68 -12q60 -48 64 -116l-16 -4h-144l-24 16q-36 36 -68 52q-32 -20 -16 -52l-12 -16l-156 4l-84 64q-32 -16 -40 -64h-56l-32 4h-224l-12 4h-244q-72 12 -120 0q-116 40 -100 136h344z" />
    <glyph glyph-name="grave" unicode="`" horiz-adv-x="510" 
d="M-55 1482q100 -204 256 -324q48 -64 108 -92l80 4q28 124 -36 216q-56 52 -108 68l-72 76q-60 156 -208 152q-28 -48 -20 -100zM125 1398l8 -4l16 -16l8 -12q32 -28 48 -56q156 -48 136 -196l-36 12l-56 64q-176 136 -256 316l8 28q100 -40 124 -136z" />
    <glyph glyph-name="a" unicode="a" horiz-adv-x="1132" 
d="M434 1539q-32 0 -56 -4l-32 -4q-32 0 -52 -8q-68 4 -116 -16q-28 -92 24 -164q40 -48 92 -72l28 -4l20 4h24l12 4h84l28 4q32 4 56 12h28q16 0 44 4l44 4q40 4 68 -4q4 -72 40 -120l-28 -28q-28 -152 28 -272q-40 0 -92 12l-24 4l-68 16q-32 0 -92 12h-16l-8 4l-92 8
q-32 0 -52 -4l-144 -4q-80 -28 -132 -72q-4 -44 4 -72q-24 -12 -40 -16q-88 -148 -8 -292q-20 -8 -32 -24v-224q36 -88 96 -144q68 -28 116 12l40 -40q36 -12 64 -16l40 -16l100 -24l32 -12l80 -16h200q48 16 76 32q60 -28 112 4l24 28l4 108l4 20v76l4 12v152
q-16 32 -28 48q28 32 28 64v204l-28 52l28 40q16 156 -40 276l4 8q20 24 28 44q20 248 -156 380l-24 8q-48 8 -80 20h-252zM578 1495q56 4 92 -4h12l80 -20l12 -8l16 -16l52 -36q72 -132 60 -264q-40 -8 -56 -40q92 -136 68 -280q-44 -8 -64 -32l4 -16q40 -40 56 -72v-200
q-40 -4 -56 -32l8 -24q32 -28 48 -60v-144l-4 -16v-96q-8 -48 -4 -84q-28 -20 -92 4l-8 -4q-52 -28 -88 -36h-140l-36 8l-124 32q-56 8 -96 28l-64 16l-68 68q-48 -4 -48 -48q-24 4 -40 12q-48 48 -72 104v180q36 4 60 24v20q-108 128 -36 264q40 -24 76 -8l4 16
q-24 48 -28 92q48 36 92 48l204 4l24 -4l36 -4l28 -4h24l16 -4l28 -8q44 0 72 -8l12 -4q32 -4 80 -16l28 -4q52 -8 88 -8q12 20 16 36q-88 128 -56 272q40 8 52 44q-64 72 -64 160l-16 20l-32 8l-164 -4q-32 -8 -56 -8l-8 -4l-44 -4l-28 -4q-80 -8 -136 4q-88 52 -72 136
l20 4h16q24 -4 44 0l28 8h24l120 16h100zM162 699l-28 -12q4 -44 28 -76q-8 -32 -8 -56q-4 -8 -8 -24q0 -56 -16 -96q-24 0 -40 -4q-8 -20 -8 -36q60 -68 64 -148l32 -12q28 -4 48 -12q12 0 16 -4l88 -20q116 -52 224 -44q128 24 220 92l4 12q8 24 12 56v48l4 8v112
q52 0 64 44q-60 64 -64 144l-20 16h-12l-20 8q-44 4 -72 12h-412q-48 -28 -96 -8zM586 651q96 4 156 -12q8 -60 36 -100q-24 -20 -36 -36l-4 -20v-68q0 -40 -4 -68q4 -32 -4 -60q-192 -132 -384 -36l-44 8l-16 8h-12l-80 24q-8 56 -32 96l24 16v12q16 56 12 100q20 64 8 116
q36 8 60 20h320z" />
    <glyph glyph-name="b" unicode="b" horiz-adv-x="1049" 
d="M0 1604v-864q12 -24 24 -40l-24 -24v-248q16 -32 28 -48l-8 -4l-20 -16l4 -244l16 -20q44 -64 96 -96q72 -12 100 44q40 0 64 24q28 -24 56 -40q288 -56 508 76l24 64l4 172q0 72 -8 120q-16 28 -32 44q32 36 24 76q16 132 -24 228l28 24q48 200 -64 344q12 32 12 56
q-64 176 -196 272l-292 -16l-12 -4q-52 -8 -84 -24q-36 184 -204 184q-16 -20 -20 -40zM168 1420l20 -24l24 4l28 12l72 20l24 4l40 8l16 4l200 4q84 -60 112 -148q36 -40 48 -76q-8 -36 -20 -56q120 -144 80 -304q-40 -4 -60 -32l4 -12q36 -44 48 -88v-16q0 -32 -4 -52
l4 -12v-96q-32 -4 -52 -32q12 -24 24 -36l36 -52q12 -60 4 -112l4 -8v-28q0 -60 -4 -100l-12 -44q-204 -124 -452 -68l-8 8q-48 48 -84 64q-28 -24 -28 -56q-28 8 -52 4q-12 -36 -36 -52q-60 44 -92 96q0 12 -4 16l4 32v136q48 4 56 44q-40 36 -56 72v204q36 0 56 24v12
l-8 8l-48 64l4 836q124 -48 112 -172zM168 1164l-4 -16l4 -16v-400q0 -36 -4 -64q-40 -8 -60 -32q92 -140 60 -284q-40 -8 -56 -36l4 -12l60 -64q24 -48 56 -72q36 20 44 56l316 4l32 12l60 32q36 128 16 248q36 20 56 40q-100 140 -68 292q64 0 68 40q-68 80 -52 172
q-12 76 12 140l-12 8l-44 44q-20 32 -40 52h-96q-204 -32 -352 -144zM588 1256l12 -12q24 -40 52 -60q-36 -148 20 -272q-20 -12 -32 -28q-40 -156 24 -284l12 -20q-28 -20 -32 -44l-4 -32q20 -104 -4 -192l-56 -28l-16 -4l-24 -4h-284l-28 -20q-20 28 -36 40l20 20
q36 168 -32 296q24 12 36 28l4 24v468q156 108 324 124h44z" />
    <glyph glyph-name="c" unicode="c" horiz-adv-x="1017" 
d="M236 1544q-4 -8 -20 -24l-16 -28q-12 -20 -24 -28l-16 -20l-28 -40q-100 -84 -56 -192q-80 -148 -28 -288q-28 -20 -40 -40q-32 -156 28 -280q-28 -24 -36 -52v-32q12 -32 12 -60l4 -8q20 -56 40 -88l8 -48l56 -88q24 -60 56 -100q40 -84 112 -128h156q12 4 40 8l20 4
l16 4l20 4h20q32 12 56 12q8 4 24 8h24l8 4q36 4 64 12q20 40 24 76q136 36 116 212q-44 96 -128 132q-76 28 -92 -52q-40 -64 -48 -124q-40 0 -96 -12l-24 -4l-32 -8q-8 -4 -28 -4q-28 -8 -52 -8q-36 -12 -64 -12l-12 20q-4 24 -20 60q-20 52 -44 84q-16 64 -44 108l20 20
q44 152 -8 276q24 8 40 20l4 8l4 48q28 100 8 188l-12 20l16 12l12 16l12 16q52 52 56 68l20 20l56 64q40 8 68 20l24 -12l28 -16q44 -16 72 -32q16 -20 24 -24l20 -24l20 -20q32 -40 60 -60q76 -24 124 28l-4 68l-48 84l-12 16l-44 44l-32 32l-12 8l-56 60l-12 8l-28 28
l-24 12l-20 4l-48 12l-8 4l-24 8l-80 16h-132zM364 1512q32 0 56 -6t40 -6l124 -40q24 -20 36 -40q8 -4 8 -12l12 -4l68 -64l8 -12l8 -4q20 -24 36 -36l-4 -8q20 -20 48 -68q0 -44 -40 -32l-40 36q-112 140 -276 168l-16 -12q-32 -4 -52 -16q-12 -16 -16 -36
q-12 -20 -28 -28l-4 -12l-32 -32l-12 -28q-40 -28 -60 -60q-40 8 -64 -20q20 -52 48 -80q4 -44 0 -56v-40q-12 -60 -12 -80l-8 -12q-40 8 -68 -16l4 -24q60 -76 52 -160v-12l-16 -80q-32 -8 -52 -28q12 -36 36 -56l8 -16q24 -44 28 -84l56 -104q12 -60 48 -100q12 0 22 2
t14 6l20 4h28l12 4l40 8h12l28 4l112 24q36 0 60 -20q20 0 36 8q4 12 8 16q-32 84 24 140q4 28 16 44q96 -48 108 -144q-20 -64 -60 -104q-40 28 -76 12l-4 -12q16 -48 8 -84l-20 -4h-24q-24 -8 -48 -8l-24 -8h-12l-32 -8q-48 -4 -80 -16h-24q-28 -8 -52 -4q-36 -8 -64 -4
q-100 80 -140 188l-12 28l-12 20l-8 8q-12 24 -28 40l-4 36l-16 36l-12 28l-20 40q-4 44 -12 68l12 16q44 0 56 32q-104 128 -60 276q44 0 68 28q-80 132 -28 260q48 0 68 28q-100 108 0 176l4 12l36 44l4 8l32 40q16 28 32 44l36 12q32 0 52 -4z" />
    <glyph glyph-name="d" unicode="d" horiz-adv-x="1084" 
d="M656 1756v-24l-4 -16v-232q-220 104 -436 84q-120 -132 -152 -284q4 -24 16 -40q-28 -16 -44 -32q-56 -148 4 -272q-60 -56 -40 -148q-4 -96 36 -168l-8 -8l-20 -20l-8 -32q0 -24 4 -40v-60q-4 -84 12 -140q236 -288 576 -276l8 4q40 44 80 68q120 -180 308 -96
q8 152 -116 216q16 116 -40 204q32 24 40 52l-4 16l4 20l-4 64v120l-8 12q-12 20 -24 32q24 16 36 32l8 456l-4 16l4 52v272l-4 28l-4 44q-64 128 -192 124zM808 1668q16 -32 16 -60l4 -272q-4 -36 -4 -64v-68l-4 -12l4 -32v-280q0 -36 -4 -64q-40 -12 -60 -32l8 -24
q32 -36 48 -64v-196q-48 -4 -64 -36q88 -108 64 -232l12 -28q96 -48 108 -140q-160 -44 -232 120q-84 -20 -132 -84q-328 16 -508 252l-4 44l-4 168q48 4 60 44q-84 100 -64 232q-8 56 52 56l12 16v16q-92 128 -28 256q44 -16 72 16q-16 48 -40 76q28 144 120 240
q236 8 420 -100q24 0 40 12l4 16v56l4 16v124q-4 56 4 92q60 -20 96 -64zM280 1264q-12 -20 -16 -32l-32 -64q-36 16 -68 0q12 -60 40 -100l-4 -12q-4 -48 -8 -52v-28q-12 -40 -12 -72q-44 -4 -64 -32l16 -28q24 -24 36 -52l4 -200q-48 0 -64 -32q84 -96 68 -208l12 -28
l64 -36l100 -32q16 -4 44 -8q32 0 52 -8l12 8l48 44l8 -4q56 48 148 16l28 12q-12 64 8 112q-8 24 -4 44q40 12 60 32v16q-88 132 -52 276q44 -4 60 24v12q-44 44 -64 88l4 364q-12 16 -24 24l-124 44h-12l-28 8l-64 4l-32 4l-64 4q-40 -36 -76 -108zM408 1316q24 0 44 -8
q112 0 196 -48v-360q16 -32 32 -52l-32 -32q-28 -160 36 -288q-48 -40 -40 -100l-12 -44q-84 0 -144 -40l-52 -44q-116 8 -204 64q12 100 -40 168l32 40v228l-24 44l28 28l4 24l8 48q0 8 4 28l4 32q12 48 8 84l-12 20q24 16 36 28l4 12q8 20 16 32l12 28l8 20l8 8
q24 52 52 84z" />
    <glyph glyph-name="e" unicode="e" horiz-adv-x="1079" 
d="M340 1704q-44 0 -72 -12q-16 -16 -20 -36q-20 -20 -28 -36l-16 -12q-20 -40 -44 -60l-8 -20q-4 -36 -20 -64q-96 -144 -96 -300l20 -36q-32 -16 -52 -32q-8 -60 8 -108q-8 -108 44 -184q-24 -16 -32 -32q-24 -216 108 -348q-40 -80 16 -144q24 -92 96 -140l20 -8l12 -16
l24 -20l20 -24l16 -8q44 -40 84 -60q124 -20 228 16l8 -4q52 16 92 20q44 60 64 108q76 72 64 164q92 44 80 148l-20 20l-8 4l-160 104h-24q-40 -64 -20 -124q-36 -4 -60 -24q-20 -52 -60 -80q-12 -48 -40 -80h-16l-24 -8l-16 -4q-60 -16 -100 -20l-12 8l-48 44
q-44 72 -88 112l12 16v40l-4 16q-4 44 -12 72q0 100 -52 176q48 64 40 136l28 4l24 -4h56l32 -4l28 -4h56l16 -4l76 -4q56 -8 92 -4l12 -4q24 -4 44 0l24 -4h172q28 52 16 100l36 20l4 20v208q-20 72 -68 116l20 20v68q-100 244 -328 300q-20 -12 -28 -28q-100 64 -208 48z
M560 1572q44 8 44 56q212 -84 256 -284q-40 -16 -40 -52q64 -52 88 -116v-120q-4 -32 4 -60q-36 -4 -60 -16v-20q24 -40 12 -76h-60l-16 4l-248 12l-12 4l-200 12q-76 12 -132 0l-8 -12q8 -72 -8 -124q-32 -12 -48 -32v-16l4 -8q44 -48 60 -96l4 -32l20 -152l-20 -24l-4 16
q-148 136 -116 316q44 4 52 40q-84 96 -64 204q-16 36 -20 68q40 12 76 8l16 20v12q-36 44 -52 76q12 148 92 256l8 16l20 64l12 16l40 52l12 16l16 20l20 28l56 8q128 12 196 -84zM560 1512h-28l-16 -4q-60 0 -100 -8q-28 -48 -64 -76l-4 -16l-44 -84l-8 -8l-8 -20l-8 -12
q-12 -32 -28 -52l-4 -8l-12 -28l-12 -28q-8 -36 -20 -64q8 -24 20 -36l24 -4l24 -8h64q32 0 80 -8l120 -4l16 -4l44 -4h44l28 -4q44 4 72 -4q36 -4 64 12l4 24q-12 48 -12 84v20q0 12 -4 16l-4 28l-4 76q32 24 40 56l-12 12q-56 48 -80 104q-36 32 -72 48l-20 16l-12 16
l-20 24h-24q-16 -28 -24 -52zM624 1468l68 -44q24 -52 56 -84l-16 -24v-56q4 -24 4 -40v-32q4 -64 12 -100q-32 -8 -56 -4l-32 4q-48 0 -80 8q-64 -4 -92 4q-32 0 -56 4l-140 4q-16 4 -24 12l12 44q8 24 20 40l16 24q12 32 24 48l12 24q16 40 40 64q28 56 60 88
q92 -8 156 28zM800 500q28 -16 44 -32q36 -16 56 -36q-4 -40 -24 -68q-36 24 -68 12l-4 -36q52 -100 -40 -168q-28 -100 -128 -100q-108 -36 -200 -16l-16 12l-80 68l-12 8q-28 28 -48 40l-40 36q-32 40 -40 80q-56 60 -8 116l12 -32q40 -24 80 -96l16 -20l32 -32
q32 -24 48 -44q96 -4 164 28q36 4 64 16l28 44q4 20 16 44q40 32 60 76q48 -12 88 -4l4 12q-32 60 -32 112z" />
    <glyph glyph-name="f" unicode="f" horiz-adv-x="966" 
d="M416 1632h-12q-40 4 -72 -4q-96 -88 -92 -208q-48 -148 24 -272q-12 -4 -24 -20l-8 -24l-4 -16l4 -96l-4 -48l-12 -8h-100q-44 -8 -76 -4q-60 -36 -36 -96q40 -152 192 -160q0 -80 36 -136q-24 -20 -36 -48v-64l4 -20v-84q8 -24 4 -40q4 -116 0 -156q32 -36 64 -52
l68 -44l8 -8l36 -24h48l8 20l-4 40v128l-4 24v88q-12 64 -8 108l-28 44q20 20 32 52v80l4 28v72l16 4h56l20 4l16 4l20 -4h56l12 4h72l28 4l76 -4q40 20 56 44q-12 140 -120 208l-16 4h-88q-32 0 -56 -4h-120q-4 68 -40 116l24 16l4 20q8 32 8 56v60l4 8v16q12 60 12 100
l36 40l44 4h168l16 -4q56 -24 96 -28q36 16 48 48v68q-136 216 -428 172zM820 1460q8 -28 -4 -52q-48 12 -76 28h-240l-24 -4q-16 -20 -32 -32l-8 -8l-16 -24l-8 -40v-36l-4 -12l-8 -44v-16q0 -60 -4 -100q-48 -8 -60 -40q68 -80 68 -164l16 -24h80q28 0 48 4h36q20 0 32 4
q60 4 100 -4q72 -56 88 -136l-20 -8h-156l-16 -4h-96l-12 -4h-96q-24 -4 -36 -16l-4 -24q8 -32 8 -60v-16q-12 -72 -8 -120q-44 -4 -60 -40l32 -36q12 -24 24 -36l4 -52q0 -32 4 -56v-84l4 -12q4 -76 0 -124l-24 16l-8 8l-84 56q4 12 4 32q-12 44 -8 80l-4 124q-4 60 0 100
q40 8 60 36q-72 92 -64 196l-20 16q-156 -4 -176 140q12 8 20 8h48q96 0 156 16q8 40 4 72l4 8v112q40 8 60 32q-108 148 -48 304q-4 92 60 152l12 4q60 -4 100 8q228 32 352 -128z" />
    <glyph glyph-name="g" unicode="g" horiz-adv-x="941" 
d="M168 1668q-16 -40 -32 -64l-12 -16l-20 -44l-8 -12q-20 -28 -28 -52l-24 -48l4 -8q0 -52 16 -96q-28 -12 -48 -32q-48 -164 28 -288l-8 -4l-20 -16q-16 -116 32 -208q12 -104 88 -164q-8 -32 -4 -56q156 -268 452 -244q-16 -32 -16 -56l-12 4l-24 -4l-100 -16l-116 8
q-88 84 -176 92l-12 -28l4 -20l4 -28l8 -56q0 -48 8 -84l24 -12l64 -36q44 -48 84 -72q12 0 16 -4l24 -4h284q64 32 64 92q72 -4 100 56q48 92 16 176q60 28 68 84l4 44v44l-4 28q0 28 -4 72l-20 24q24 16 32 32v348l-4 20l-8 68l-4 28q-8 48 -8 80v244q8 56 -4 100
q-52 84 -132 132q-60 0 -88 -44h-16q-28 4 -40 6t-36 10q-24 4 -40 4l-44 12l-44 8l-28 4q-24 8 -60 8l-12 4h-152zM304 1636q28 -12 52 -8l20 -4l16 -4l20 -4h16l16 -8l28 -4q32 -8 56 -8l12 -4l76 -16q36 0 64 -8l20 12q4 28 24 40q72 -48 104 -112q0 -60 -4 -84
q8 -52 4 -84v-84q0 -36 -4 -64l4 -16l4 -44q4 -28 8 -48v-24l8 -24q0 -44 8 -72v-288q-44 -8 -64 -40q84 -112 44 -240l-20 -20q-44 24 -68 -12l4 -24q68 -84 8 -176q-40 -36 -84 0l-24 -8q-8 -48 4 -84q-16 -16 -36 -20h-128q-36 -8 -68 0q-48 0 -80 8l-28 20l-32 36
l-44 28q-24 12 -40 24v16l-4 8v36l-4 12l-4 36l32 -20l8 -8l48 -32q8 -12 24 -20h68q92 -16 172 12q40 -8 64 -32q28 4 36 24q-32 72 12 128q-4 28 -16 44l-20 8q-296 -44 -432 200v12q12 24 12 44q-92 68 -96 164q-40 80 -36 156q32 8 52 28l-4 24q-100 124 -44 264
q44 -12 72 8l-4 24q-36 60 -36 120l32 60l4 12l60 100q8 24 20 40h88zM320 1476l-32 -56l-20 -40l-44 -80l-8 -44q-40 16 -72 -8v-20q52 -84 24 -164q8 -44 -4 -80l-8 -8q-20 0 -40 -12v-24q68 -76 72 -164q40 -72 20 -144q4 -20 16 -32q40 -32 60 -56l24 -8q32 0 72 -12
l232 -4q48 48 68 104q40 12 64 40q32 -4 48 20v12q-40 44 -56 80l-4 288l-4 16l-4 32v28l-4 12q0 32 -4 56v12l-8 52v144q-12 12 -40 24q-32 8 -52 8q-40 12 -96 20l-56 12h-16l-32 8h-12q-28 0 -72 4zM400 1432h24l12 -4l24 -4q24 0 40 -8q96 -8 156 -36l4 -188l4 -16
l4 -20q0 -44 8 -72v-28q4 -12 4 -36l4 -20v-140q-8 -52 2 -92t26 -60q-40 -28 -72 -40l-4 -8q-20 -52 -44 -88l-16 4h-184q-36 12 -68 12q-36 24 -56 48q8 84 -24 152q-8 84 -52 140q40 60 32 124q16 80 -4 148q20 4 44 28l12 56l84 152q24 0 40 -4z" />
    <glyph glyph-name="h" unicode="h" horiz-adv-x="1140" 
d="M128 1556l8 -16v-100l4 -16l-4 -8l4 -16q-4 -60 4 -100q-16 -32 -16 -64l8 -32v-12l8 -28v-12l4 -28v-56q12 -36 28 -64q-72 -148 -16 -292l-12 -8q-12 -20 -24 -28q-32 -156 32 -284q-16 -16 -28 -24q-8 -32 -8 -56v-56q-8 -36 -8 -64q20 -16 40 -12l64 -120l4 -12
l24 -44l48 -4q40 36 52 80q20 124 -32 216l4 8q20 16 32 40l-4 20v204q-12 20 -16 32q92 164 8 316q28 20 40 40l-4 16l-4 152q136 148 316 184q16 -12 16 -28q-12 -120 44 -208q-52 -80 -32 -160q0 -96 44 -168q-24 -24 -36 -48q-4 -44 8 -76l-4 -44l4 -28l8 -312
q8 -48 8 -80l20 -52q112 -148 196 -76v308l-4 12v88l-4 8v112q-12 64 -40 104l28 28l-8 232q-8 44 -32 72l28 24q24 172 -52 304q12 24 12 48q-52 124 -152 188q-208 16 -376 -64l-4 16l-4 156q-36 76 -96 124l-16 4l-20 4h-204q-56 -172 112 -240zM236 1736l20 -24l44 -64
v-84l4 -32q-4 -60 8 -100q20 -8 36 -8q184 96 368 80q84 -64 116 -144q-8 -32 -8 -56q60 -96 56 -196q12 -72 -48 -76l-12 -12v-28q88 -84 64 -192l4 -28v-56q-48 0 -56 -40l4 -16q40 -28 52 -64v-12q12 -36 12 -64v-88l4 -16v-76q0 -32 4 -56v-64l4 -8q4 -116 -4 -152
q-68 20 -100 76l-8 24q-4 12 -8 32v128l-4 16q4 56 -4 92v44q-8 24 -4 40l-4 176q36 12 56 28v16q-100 136 -60 288q36 -8 52 24l-4 16q-48 56 -64 112v16l-4 44l4 28q-8 52 -8 88q-12 8 -16 16q-264 -28 -416 -216v-100q8 -44 4 -76q-36 -12 -56 -28l4 -28q92 -128 28 -260
q-32 8 -56 -12v-24q36 -36 52 -72v-192q-48 4 -60 -36q104 -132 44 -260l-16 28q-4 12 -8 16l-4 12l-52 104l-24 20l4 96q48 0 56 40q-96 136 -52 280q36 -4 60 12v24q-80 112 -36 252l52 28v20q-40 44 -56 84l4 28l-4 12q0 76 -20 128l16 40l-4 32v120l-4 16l-4 128l-12 16
q-132 40 -116 152q108 8 180 -12z" />
    <glyph glyph-name="i" unicode="i" horiz-adv-x="804" 
d="M0 1670q-28 -300 184 -332q148 -12 112 120q100 32 56 144q-68 168 -232 148q-104 -8 -120 -80zM296 1598q16 -44 8 -84q-52 36 -100 16l8 -36q36 -40 44 -84l-16 -20q-232 0 -180 288l44 12q32 4 52 12q104 -12 140 -104zM-112 1218q24 -220 236 -224v-84q-4 -48 -4 -80
l-8 -68l-4 -12q4 -28 -4 -48q4 -60 -12 -108l12 -48l-20 -40l-4 -16l4 -16v-164l28 -60l-16 -4h-180q-52 -52 -36 -116q44 -80 112 -128h600q20 40 16 80q-28 200 -296 164l-4 36q8 80 -12 140l20 24q0 20 -4 32l12 20v16l4 8l4 44q8 36 8 64l8 304q-8 40 -8 72l-4 12v24
l-4 12q-20 52 -28 88l-8 8l-8 16l-8 8q-36 44 -68 68l-40 12h-244q-28 -16 -40 -36zM220 1166q76 -116 68 -236l4 -8l4 -28q4 -96 -8 -156l4 -28q-4 -32 -4 -56v-16q-8 -24 -4 -40l-4 -16l-4 -24v-12l-16 -80l-20 -20v-24q24 -84 12 -156q8 -24 4 -44q12 -20 52 -32h164
l32 -20q60 -52 48 -120h-532q-64 48 -92 108l8 32h124q72 -4 120 8q12 16 12 32q-44 52 -56 104v156q24 28 28 56l-12 24l8 20l-4 84l4 12l8 100l4 16v16q0 24 4 40v176l-28 20q-156 -20 -204 124v20h128q32 -4 60 4q52 -4 88 -36z" />
    <glyph glyph-name="j" unicode="j" horiz-adv-x="886" 
d="M259 1704v-168l4 -24q68 -164 200 -240h48q156 96 64 280q-96 196 -288 188q-20 -20 -28 -36zM523 1540q36 -80 24 -152q-60 -120 -140 -4q-128 144 -88 308q144 -28 204 -152zM363 1272l-12 -12h-192q-32 -24 -44 -48q32 -204 228 -212l4 -12q0 -32 4 -52q8 -36 8 -64
v-12l8 -32l4 -24q0 -36 8 -64v-36q8 -40 4 -68v-12q0 -60 -8 -100q-40 -104 -12 -168q-92 -36 -128 -160q-88 36 -80 136q0 112 120 140l4 20l-4 12l-60 92l-4 8q-40 72 -84 108q-52 -12 -88 -32q-204 -176 -44 -372q-32 -116 68 -212q124 -160 284 -120l8 40q84 -20 124 56
q52 72 36 148q32 12 52 28q4 28 16 56l4 28q12 28 16 52l4 68q-4 36 4 60l-4 32v56l-4 8q0 52 -12 116v24l-16 104l-4 24v28q-12 64 -12 100q24 8 40 4h108q56 68 0 172l-16 16q-36 36 -64 56l-16 4l-88 4l-32 -4l-24 4q-60 12 -100 12h-4zM439 1208l28 -4h28q60 4 100 0
q48 -28 72 -64q16 -40 12 -76l-12 -4h-36l-28 4l-76 -4q-16 -12 -24 -28q8 -32 4 -84l8 -12l8 -116l4 -16l8 -52l4 -16v-32l4 -16v-16l8 -44v-36l4 -16v-40q-4 -20 0 -32q-8 -60 -4 -100l-4 -12l-8 -44q-16 -36 -20 -64q-64 8 -84 -20l4 -24q56 -72 -8 -136q-40 -80 -112 4
q-20 -8 -32 -20q44 -172 -172 32q-64 72 -80 148q24 16 36 40q-152 140 -40 296q40 36 80 48l12 -12l44 -72l8 -8q16 -36 36 -56q-128 -60 -104 -192q-12 -140 128 -176q20 -20 36 -28q24 8 32 24q-24 64 20 108q12 36 36 60q52 -12 80 16v12q-28 40 -36 80q0 12 4 16l8 24
l4 16l4 24q4 40 12 68v168q-8 28 -8 52q-8 40 -8 68l-4 12q0 24 -8 60q0 24 -4 28l-12 100q-16 12 -28 16q-160 -12 -192 140l8 8h120q32 4 60 -4l28 16q32 0 52 -12z" />
    <glyph glyph-name="k" unicode="k" horiz-adv-x="1040" 
d="M44 1612v-300q0 -12 -4 -16v-508l12 -36q-52 -36 -52 -92q24 -24 36 -44q-20 -120 40 -212q-24 -12 -36 -24l-4 -12v-36l-4 -12v-52l-8 -88l12 -56q128 -172 216 -88q32 148 -24 272l32 44l-4 236l24 -12l260 -248q32 -20 52 -40l52 -40l16 -12l48 -44q12 -20 24 -32
q12 -48 52 -72l16 -8l60 -40l4 -8l56 -32h36l4 12v84l-4 8l-20 64l-36 56l-8 8l-12 24l-40 52l-140 132l-16 12l-132 100q-8 12 -16 16l-84 84q-28 32 -52 48q12 24 12 40q32 0 72 20l40 40l20 16l20 20q40 32 60 56q32 24 52 48l8 8q28 20 44 44l116 120l20 24l40 36
q8 64 -8 112q-60 100 -164 120l-20 -8l-188 -200l-12 -4q-24 -36 -52 -56l-184 -172q-4 -32 -4 -52q-8 16 -4 28l4 500l-4 12l-4 76q-64 128 -192 124q-20 -24 -28 -40zM208 1520l4 -28l4 -24v-408q-8 -32 -4 -56v-120l8 -12q64 -20 96 -40q40 16 8 104q8 4 18 12t14 16
q12 8 16 16q12 8 16 16l12 8l68 64q12 8 16 12q8 12 28 24l8 12l24 20q32 40 56 60l140 152q116 -40 112 -148l-44 -44q-20 -28 -40 -44q-8 -12 -16 -16l-12 -16l-76 -76l-12 -8l-72 -72q-12 -8 -28 -28q-24 -20 -28 -24l-20 -16q-40 -40 -68 -60q-72 40 -96 24
q0 -44 20 -72l-4 -12q-12 -28 -16 -48q20 -24 40 -36l12 -16l96 -96q16 -20 32 -32l8 -4l120 -96q196 -136 260 -336l-12 8l-20 12l-28 24l-48 28q-44 88 -108 136l-20 16l-24 20l-36 28l-16 12l-16 12l-24 20l-8 4l-40 32l-212 212q-36 4 -60 16q-36 24 -64 0q4 -28 16 -52
q16 -24 20 -48v-180q-52 -4 -60 -44q88 -120 60 -256q-12 -8 -20 -8q-84 36 -112 120l8 44l4 120q48 0 64 40q-92 116 -60 248l-8 8q-12 24 -28 40q40 20 64 52l-24 48l-4 12l8 564l-4 44v136q-4 32 4 60q76 -20 108 -80z" />
    <glyph glyph-name="l" unicode="l" horiz-adv-x="839" 
d="M9 1477q56 -88 200 -92v-372q12 -36 32 -60l-28 -28q-32 -160 32 -288l-24 -20q-48 -168 28 -300q-44 -36 -44 -88l-16 -4h-20l-12 -4h-36l-28 -4q-60 0 -88 -8q-28 -48 -24 -96l4 -8q36 -76 88 -124q24 -12 48 -12h136q52 8 92 0q32 0 56 4l44 8h44l28 4h72q24 16 40 32
q-4 224 -216 224q56 164 -20 304q20 16 32 36l4 44v52l-4 16v128l-28 44l28 28l4 20v300l4 12v112q4 96 -12 156q-56 92 -132 144h-300q-40 -92 16 -160zM269 1589q72 -56 108 -124v-24q8 -12 8 -20v-72l-4 -12v-408q-16 -20 -40 -16l-20 -12v-24l4 -12q36 -28 52 -64
l4 -196q-56 -4 -60 -48q100 -132 48 -276q-24 0 -40 -4q-8 -20 -8 -36l52 -56q172 24 208 -124l-4 -20h-24l-192 -24l-12 4l-44 4h-52q-72 -12 -120 -8q-20 4 -32 12l-16 16l-8 12q-32 40 -44 72l8 32h56l24 8l24 -4l12 4q40 4 68 0l24 8q12 28 8 52l4 28q36 16 60 36
q-100 148 -48 292q24 0 44 12l4 24q-92 136 -56 280q36 0 60 16l-4 24q-44 44 -60 88l-4 404l-24 12q-216 -16 -200 144h236z" />
    <glyph glyph-name="m" unicode="m" horiz-adv-x="1342" 
d="M0 1632q-4 -136 100 -208v-64l-4 -12v-140l4 -8v-336q12 -32 28 -48l-20 -16q-48 -164 24 -300q-24 -16 -36 -28q-4 -24 -4 -40l4 -208l8 -8l16 -28q72 -120 188 -72q40 160 -24 292l20 12q44 160 -12 292l-8 12q36 24 40 56v328l4 24v196q76 44 112 112q36 32 60 44
q4 -96 48 -164q-40 -40 -36 -88q0 -32 4 -56q-12 -104 40 -180q-20 -8 -32 -20q-4 -8 -8 -28v-40l4 -12v-152q12 -36 32 -60q-20 -12 -32 -56l-4 -24q0 -36 -4 -64l4 -16v-40l-4 -12q0 -36 -4 -64l4 -24l-4 -44l-4 -44q4 -52 -8 -92q16 -32 48 -28q8 -24 20 -36l8 -24
l16 -28q24 -56 52 -88q60 4 84 56l4 20l8 216q4 24 4 40v68l4 8l-4 132q-12 32 -28 52q20 24 32 44q24 152 -40 272l28 16q40 172 -32 308q20 12 28 24q12 52 8 88q64 48 92 108q40 16 64 40l8 -20q0 -108 56 -184q-20 -20 -28 -36q0 -24 -4 -40l4 -12q0 -32 4 -80l12 -108
q12 -28 28 -44q-20 -16 -32 -32l-4 -12q-4 -24 0 -44l4 -168q12 -32 28 -56q-20 -12 -32 -28q-8 -40 -8 -68v-92l-4 -24v-160l-4 -12v-120l8 -16l72 -48l8 -4q32 -24 56 -36q28 -20 44 -36l28 4l12 20l4 256q8 32 4 56v152q-12 36 -28 64q20 12 28 24q0 12 4 16l-8 244l-4 8
l-16 20l28 36q24 176 -52 296q24 24 32 56l-4 24l-4 28q-8 52 -4 88l-4 20q-4 32 -16 52l-4 16l-12 44q-4 48 -20 84l-12 16l-52 64l-12 4l-20 16l-48 24h-200q-24 -20 -36 -36q-36 -20 -60 -44q-160 128 -328 40q-68 76 -160 72zM280 1640h28q72 56 152 36q104 0 156 -76
h28l12 16l52 40q32 16 44 36q132 4 180 -8q60 -44 92 -92l4 -12q12 -32 12 -56l4 -12q8 -44 20 -72q4 -8 8 -28l12 -144l-8 -8q-24 0 -40 -8l-4 24q-88 104 -84 232q-12 24 -28 36q-112 -4 -160 -104l-32 -32q-32 -20 -48 -40q4 -48 0 -80q-36 -8 -56 -24l4 -32
q92 -120 60 -264l-52 -20l-4 -28q92 -132 56 -272q-52 0 -56 -44q32 -32 52 -64q8 -44 8 -72v-36l-4 -20q-4 -36 0 -48q0 -36 -4 -64q0 -36 -4 -64v-80q-8 -24 -4 -48l-12 -44l-12 20q-12 20 -16 32l-16 28q-24 64 -64 100l4 84l4 16l8 280q64 0 64 44q-44 44 -64 92v180
q52 4 60 44q-92 116 -64 276q44 4 60 32q-80 112 -68 228l-20 12q-48 8 -84 0q-32 -40 -68 -64q-40 -76 -112 -108l-4 -28v-200l-4 -24v-328q-52 0 -64 -36q96 -128 60 -272q-44 -8 -60 -40q96 -140 52 -280h-24q-72 48 -88 124v164q40 12 64 32q-96 144 -56 288q44 4 56 40
l-20 24q-24 28 -36 52v468l4 28v72q-96 68 -104 164l120 120q76 -24 108 -88zM1032 1208q108 -108 76 -272q-52 -4 -64 -40l4 -8q40 -36 56 -72q0 -28 4 -48l-4 -32v-120q-48 0 -56 -40l4 -8q36 -32 48 -64l4 -16v-56q-4 -48 -4 -80v-44l-4 -20v-136q4 -32 -4 -60
q-8 8 -28 20q-28 20 -44 28l-8 8q-24 12 -40 28v72l4 24v156l4 24l4 144q56 0 68 40q-88 92 -64 272q44 4 64 36q-48 60 -64 108l-4 32l-4 148q28 4 44 16z" />
    <glyph glyph-name="n" unicode="n" horiz-adv-x="1121" 
d="M520 1744q-48 0 -80 -8l-8 -8l-36 -28l-8 -8q-40 -72 -92 -108q-140 140 -296 -4q0 -144 108 -216v-56l4 -8l4 -44v-56l4 -8l4 -64l4 -20v-48l4 -20q0 -32 4 -52v-12l4 -20q0 -52 4 -72v-40q12 -72 8 -120q12 -32 32 -52q-48 -80 -36 -160q-12 -72 16 -132
q-80 -80 -56 -184q16 -20 36 -24l28 -44q12 -20 16 -36l12 -24l36 -68h48l8 4l32 28q32 128 0 236q76 60 52 200q-4 68 -40 112q36 20 40 56l-4 28v80l-4 24v28q0 40 -8 68q4 32 -4 60l-8 168q-4 24 -8 60l-4 20l-4 108l16 12l68 32q28 12 44 24l48 36l8 8l24 20l52 56
q12 16 24 24q48 4 80 0l4 -16l4 -144q4 -44 32 -76q-20 -24 -32 -44q-20 -160 48 -280q-28 -12 -40 -44v-12q0 -40 4 -64q-4 -36 0 -64q8 -44 4 -76l4 -228l4 -12v-68q0 -24 -4 -40q12 -56 4 -100l16 -48q64 -104 168 -128q24 16 36 28l-12 716q-12 36 -32 56l32 36v72
q0 32 -4 56v60l-4 32l-4 28l-28 40l24 16q48 212 -80 356q20 116 -72 180l-8 4l-20 16l-44 4h-144zM796 1584q-12 -32 -12 -60q124 -128 88 -296q-52 -8 -56 -48q84 -84 60 -188q12 -48 4 -92q-40 0 -56 -28l4 -20q40 -32 56 -72l4 -28v-84l4 -12v-120q-4 -12 0 -16l4 -296
q8 -72 0 -120q-88 44 -116 128l4 28l-4 188l-4 20l-4 284l-4 16v68l-4 36q40 12 64 28v20q-100 128 -68 280q52 4 56 44q-36 36 -56 72v16q-8 40 -8 68v60q0 28 -4 72l-12 16l-16 4l-16 -4l-116 -4q-28 -20 -52 -56l-20 -24l-68 -56l-168 -92l-4 -28l4 -28v-40q4 -8 4 -28
q0 -48 8 -80v-52q8 -32 8 -56v-44l4 -20v-36l4 -20q0 -32 4 -56l4 -32v-56l4 -28v-72q-40 -8 -60 -36q92 -128 56 -268l-12 -12q-44 8 -68 -16q20 -44 44 -68q12 -48 0 -84q8 -56 -8 -104l-8 8l-12 28l-32 68l-16 24q-20 36 -44 60q-12 92 68 84l16 20q-76 128 -36 264
q40 8 60 32v12q-44 44 -64 88v72l-8 32v100l-4 24l-4 20l-4 24v52l-4 16v44l-4 20l4 8q-12 32 -8 56l-4 12v68l-4 20q-4 24 0 44l-4 36q-88 60 -108 152q93 121 213 2l-5 2q16 -16 32 -20q92 52 140 132l36 32l60 4q44 0 72 8q156 24 196 -116z" />
    <glyph glyph-name="o" unicode="o" horiz-adv-x="1079" 
d="M340 1660l-100 -68l-8 -8q-20 -12 -32 -16l-44 -20l-16 -24l-4 -8l-12 -36q-20 -20 -32 -28l-28 -68l-12 -32l-4 -8l-28 -88v-16q-20 -72 -16 -120q12 -28 28 -44l-8 -8l-24 -16v-236l8 -20q20 -40 36 -60q-36 -116 16 -216q28 -124 120 -192q-12 -48 0 -88
q128 -220 336 -240h68q24 4 40 12l68 20q48 16 84 20l8 12l12 24l28 84q68 100 56 208q-4 36 -16 60l8 4q12 20 24 28q28 140 -16 260q24 16 40 40v244l-28 48q16 12 24 20q-16 468 -440 592h-104q-20 -12 -32 -16zM448 1628q404 -128 412 -512q-32 -8 -52 -24l4 -28
q40 -32 60 -76v-100q4 -56 -4 -92q-64 4 -64 -48q76 -116 44 -248q-80 -4 -68 -44q44 -40 52 -92q0 -40 -8 -70t-20 -50q-12 -28 -32 -44q0 -24 -8 -40q-16 -28 -20 -56q-252 -108 -400 20q-136 120 -104 192l48 -28l16 -16l8 -4q32 -52 76 -76l12 -4l52 4l24 8h12l68 24
q32 12 60 16l8 8l52 116q32 60 36 112l8 8q36 4 60 24v20q-68 80 -48 168q-8 48 0 88l12 12q32 -8 56 16l-4 24q-28 32 -44 60v72q0 20 4 32v60l-4 24q52 8 60 48l-56 64q-20 248 -248 288l-20 -12q-32 -16 -52 -32q-32 -16 -52 -36l-80 -52l-8 -12q-16 -44 -48 -72
q-12 -44 -36 -68q0 -24 -12 -52l-24 -112q-44 -8 -68 -28q20 -44 48 -68q0 -28 8 -44l4 -172q-32 -12 -48 -28l8 -32q80 -76 84 -176q36 -68 24 -132q-108 72 -124 180q-36 76 -32 148q40 12 48 44q-124 128 -72 296q36 -12 60 12v16q-44 52 -60 88l4 12l8 68l4 24l12 40
l4 16l48 116l28 20l12 28l16 40q80 36 120 72l32 20q28 20 52 32h52zM672 1324l8 -16l8 -28q8 -84 40 -136l-4 -8q-16 -16 -24 -36l4 -68q-24 -104 16 -184q-20 -8 -32 -20q-36 -160 16 -288q-52 -48 -56 -108l-68 -144q-120 -40 -172 -44l-20 16q-44 56 -96 88
q12 56 -24 140q-12 108 -72 184q12 8 24 28v56q0 32 -4 56l4 8v32q-8 48 -8 80l-20 44q24 16 36 32q12 156 96 256q12 32 28 56l52 28l12 12l8 4l20 16l20 16q32 12 52 32q100 -28 156 -104z" />
    <glyph glyph-name="p" unicode="p" horiz-adv-x="1106" 
d="M12 1592v-280l-8 -80l4 -28v-444l8 -8q8 -24 24 -40l-24 -16q-48 -164 24 -296l-8 -8l-24 -20l-4 -12v-72l-4 -12l4 -16l-4 -20l4 -32q0 -60 8 -100q72 -116 192 -108q64 168 -16 312q28 20 36 44q212 -152 424 -52q68 12 92 68q80 72 60 168q84 28 88 108q28 92 -12 164
l28 28q24 200 -80 340q40 56 12 116l-24 48q-12 20 -16 32l-16 28l-8 8l-36 56l-4 8l-32 40l-20 24l-68 64q-224 56 -408 -32q-68 84 -168 76q-16 -28 -24 -56zM168 1520l24 -12q200 96 392 48l8 -8q20 -16 32 -32q128 -132 172 -288l-8 -8l-24 -16q-20 36 -48 56
q-32 44 -44 84q-48 44 -72 84l-12 4l-64 4l-20 -4l-64 -20l-16 -4l-152 -52q-56 -12 -88 -32v-184q-8 -40 -4 -68v-268q0 -76 -4 -124q-56 -4 -60 -44l20 -20q64 -88 144 -132h136q32 4 60 -4q36 20 68 24l8 8l20 24q48 44 72 88q40 -20 72 -4q-4 48 -28 80l4 28
q12 32 28 52q0 36 8 64q64 20 64 44l-4 12q-32 32 -48 60l-4 68l-4 16v28l-12 100l8 8l24 12l8 -24q120 -136 92 -296q-56 0 -60 -44q100 -112 20 -228l-8 -4q-44 8 -76 -8v-32q56 -96 -40 -156q-24 -44 -68 -48q-216 -92 -412 80q-40 -16 -36 -64q-32 -8 -56 -24l4 -32
q92 -124 44 -260q-72 24 -104 88l-4 200q40 4 64 24v12q-52 72 -68 144l-4 28l4 60q8 24 8 44q52 4 60 44q-40 44 -60 84v472l4 24l4 324q72 -20 100 -80zM568 1380q4 -8 20 -28q28 -32 40 -52q24 -52 56 -84l-20 -28l4 -16l-4 -24q12 -32 12 -80l4 -16q0 -20 4 -32
q-4 -32 0 -60q12 -36 32 -56q-48 -44 -48 -104q-40 -56 -28 -120q-28 -12 -44 -28l-4 -8q-36 -56 -76 -88q-32 -4 -52 -20h-164l-16 12q-56 32 -88 72l28 24l4 20l4 40v400l4 16v164q32 16 56 20q40 12 64 28l28 8l128 40h56z" />
    <glyph glyph-name="q" unicode="q" horiz-adv-x="1090" 
d="M176 1672l-64 -132l-8 -8l-8 -28l-52 -88q0 -36 12 -64q-32 -8 -56 -28v-240l4 -24l20 -28q-16 -16 -24 -32v-108q-4 -96 8 -156l24 -28q-36 -36 -32 -84q176 -524 644 -460q64 -136 192 -136q32 -28 60 -28q120 -16 112 92q-12 44 -32 76q-48 56 -112 80q-8 56 -32 96
l32 32q28 160 -40 284q28 16 40 36v580l4 44v196q-8 24 -8 48q-48 84 -116 128q-96 8 -112 -80q-56 20 -104 20l-140 40l-20 4l-60 16h-116zM292 1640l56 -12l16 -4l28 -8l28 -8l36 -12h12l44 -16h12l80 -12q32 -32 64 -40l20 16q-16 68 28 100q64 -44 92 -100l4 -24v-780
l-4 -24q-40 -8 -56 -40q116 -172 24 -344l4 -8q28 -48 32 -96l8 -24q116 -36 140 -140q-64 -36 -116 28q-100 -32 -168 128q-492 -72 -620 436q36 12 48 44l-24 28l-28 48l-4 68l4 12v120q44 0 60 28v12l-8 8q-32 32 -48 56v12l-4 32l-4 24v44l4 28q-4 44 4 72q48 -12 76 12
v12q-28 44 -32 88l56 96q0 8 12 24l8 20l24 40q12 40 24 60q40 4 68 -4zM328 1476l-8 -20l-8 -12l-12 -24q-28 -64 -52 -100l-28 -48q-48 0 -80 -12q-4 -20 -4 -32q52 -112 28 -224l-12 -12q-32 4 -48 -24q96 -140 56 -288q-32 -8 -44 -32l8 -20q40 -44 56 -80l12 -24
l12 -28q24 -64 56 -100q236 -116 388 56l8 8q24 16 36 28l4 16l-4 20v164l16 8q40 0 48 32l-16 24q-32 28 -44 60l-4 540l-4 28l-52 52h-16l-28 8q-24 4 -28 8q-28 4 -44 12l-24 4l-20 8h-12q-64 28 -120 24zM500 1408l16 -4l100 -28l20 -20l4 -344q4 -24 4 -40v-176
q12 -32 32 -52l-28 -16l-12 -56v-36l4 -28v-88l-28 -24q-48 -64 -112 -88q-112 -12 -204 32l-12 16l-16 28q-4 16 -20 44q-24 64 -56 100l20 20q32 164 -28 296l28 20q24 136 -8 248l56 16l32 56l4 12l28 48q12 28 24 44q12 32 28 52z" />
    <glyph glyph-name="r" unicode="r" horiz-adv-x="945" 
d="M0 1532q0 -80 48 -136v-320l-4 -16l4 -296q12 -28 28 -44q-20 -20 -32 -40q-24 -152 32 -272q-24 -24 -36 -44q4 -24 0 -44v-168l24 -60q112 -148 192 -60q36 152 -24 280q24 16 32 36q28 156 -32 280l36 32q4 24 0 44v168l20 20l28 68l60 172q32 48 40 84q44 52 64 68
l64 72q24 24 36 40l24 -24q48 -136 172 -168q80 -8 60 120l-12 16q-72 164 -192 264q-44 16 -80 20q-20 -12 -28 -24q-56 40 -116 44q-8 -4 -24 -20q-12 -28 -40 -60l-4 -8q-40 -36 -60 -64q-48 168 -204 164q-56 -56 -76 -124zM228 1416l20 -20l24 8l12 12q16 24 48 52
l84 88l12 32q52 -16 80 -56q48 -16 64 36l28 -8q4 -8 24 -20l36 -40q12 -24 28 -36l60 -80q0 -20 4 -32l8 -4l28 -52v-36q-116 32 -144 152l-8 4l-16 20q-24 28 -36 48l-12 4l-20 -4q-12 -32 -16 -60l-60 -60q-24 -32 -40 -48l-64 -68l-8 -12q-20 -60 -44 -96
q-28 -144 -104 -248v-184l-4 -24q-40 -4 -60 -24l4 -24q84 -108 64 -232q-4 -24 -12 -40q-48 8 -56 -36q64 -80 68 -172q0 -64 -24 -108q-72 44 -104 116l4 184q56 4 56 48q-52 60 -60 128l4 136q36 8 60 32l-8 20q-32 40 -48 68v172q0 32 -4 56l4 304q-4 56 4 92
q-44 64 -56 116q28 52 56 84q140 -40 124 -188z" />
    <glyph glyph-name="s" unicode="s" horiz-adv-x="949" 
d="M104 1560q-60 -96 -12 -188q-48 -44 -40 -104q32 -228 212 -332l28 -48l12 -8q28 -32 52 -48q12 -8 16 -12q32 -20 52 -44l112 -96l44 -4l8 -32q12 -20 16 -32l12 -28v-16l4 -8v-112q-20 -16 -28 -40q0 -40 12 -68q-40 -20 -60 -60l-8 -4h-32q-112 -36 -212 -20l-12 16
l-12 24l-32 64q-20 88 -68 148q-148 128 -168 8v-48q4 -12 8 -40l28 -80l80 -156q36 -56 64 -88q196 -164 424 -84q208 0 172 180q40 8 68 28l4 12q8 48 0 88v16q0 32 -4 52l-4 108q-28 188 -180 280h-32l-16 48l-100 108l-24 20l-32 32l-8 4q-60 56 -120 80l-8 4l-24 40
q-8 88 -48 148q16 12 32 16l12 40q4 12 8 16l28 64q20 0 32 4l56 -4l12 -4q44 -8 76 -24q24 -8 60 -36q24 -44 52 -68q72 -224 240 -168v92l-20 44q-12 32 -26 54t-26 38q-20 36 -36 56l-16 28q-24 32 -52 80q-24 40 -52 60l-8 4q-52 24 -92 28q-164 88 -324 76
q-92 -24 -100 -104zM504 1536q52 -4 96 -28l8 -8q36 -44 56 -80l8 -16l8 -8l16 -24l4 -16l16 -16l92 -168q0 -20 -4 -32q-44 8 -72 36l-12 16l-32 52l-4 12q-44 72 -64 92l-4 8q-16 28 -32 44q-160 92 -304 40q-24 -72 -44 -112q-44 0 -68 -24v-16q68 -88 76 -184
q20 -36 28 -60l44 -20l44 -28l16 -16l8 -4l44 -32l76 -76q44 -36 68 -76q12 -32 4 -60h-20l-8 8l-16 12l-24 20l-20 16l-4 8l-24 20l-32 32q-80 48 -120 124q-204 124 -204 340q64 4 76 24l-8 24q-84 88 -16 180q8 68 84 76q152 -4 264 -80zM648 728q168 -136 140 -332
q12 -36 4 -68q8 -36 4 -64q-56 -8 -92 -24v-24q56 -72 -8 -132l-12 -4l-64 -4l-32 -4q-96 -32 -180 -20q-228 48 -288 260q-64 100 -68 200q56 -16 88 -56l24 -44q12 -36 16 -64l20 -32v-12l8 -8q20 -56 48 -88q140 -28 260 16q36 -4 64 12l32 48q32 0 56 12l4 8l-4 20
q-20 36 -24 68q24 16 32 32v44l-4 12l-4 124q-36 64 -40 124h20z" />
    <glyph glyph-name="t" unicode="t" horiz-adv-x="867" 
d="M196 1620l-4 -16l-4 -36l-4 -28l-4 -52l-16 -100l-44 -4h-92l-28 -20q-8 -172 140 -228q-4 -56 -4 -88t-4 -56v-52l4 -28v-72l32 -56l-28 -28q-28 -180 60 -312q-24 -20 -32 -44q64 -292 320 -368l16 20q108 -72 232 -52l8 4q36 28 60 56l4 28v72q-28 28 -48 40l-8 8
q-32 40 -60 56q-36 8 -64 24q-36 -8 -52 -36h-28q-52 8 -96 -4l-28 28l-20 24l-16 24q-20 40 -40 60q16 16 20 32q20 160 -44 284l8 4l20 16l4 28l4 52q0 24 -4 40q8 48 6 82t2 58q-4 48 8 84l-4 8q8 32 4 60l20 -4h156q24 0 40 -4h68q52 -4 88 4q28 40 28 84
q-44 108 -132 160h-16l-44 4h-12q-96 -4 -156 8q60 284 -184 300q-20 -20 -32 -64zM352 1368l4 -24q16 -12 32 -16l36 -4l196 -4q68 -48 96 -116l-4 -28h-104q-36 8 -64 4h-80q-72 12 -128 0q-12 -16 -16 -36v-36l-4 -16q0 -20 -4 -32v-64l-4 -16v-108q-8 -48 0 -84l-4 -32
q-36 -8 -56 -28l8 -28q88 -128 60 -268q-32 -12 -44 -44l12 -16q24 -20 36 -36q56 -108 144 -168q24 12 36 36q84 -28 128 24q24 -12 44 -16l12 -12l20 -16l20 -24l36 -32q-8 -28 -8 -44q-108 -88 -248 36q-24 -8 -36 -28q-88 32 -132 104q-92 88 -112 196q44 12 52 48
q-116 128 -84 288q48 8 52 48l-12 16q-32 36 -44 64v96l-4 16l4 12v80l4 28q-4 40 4 72l-12 20q-120 36 -136 148l12 4q84 -8 148 12q12 28 12 52t8 44q4 28 8 60l4 32q0 60 16 100q164 -48 96 -264z" />
    <glyph glyph-name="u" unicode="u" horiz-adv-x="1070" 
d="M0 1608v-852q8 -28 24 -48l-24 -28q-20 -188 56 -316q-8 -52 0 -96q84 -136 204 -208q80 -32 128 20q148 -96 256 32q76 -132 212 -112q28 80 -4 144q0 84 -36 148l24 16q36 168 -36 304q28 16 40 36l-8 244l4 28l-4 388l-4 12v144q-4 52 -24 92q-80 132 -200 68l-4 -32
l12 -812q8 -52 36 -88q-48 -48 -32 -144l-12 -12l-8 -28l-4 -8q-28 -28 -40 -52l-64 -60l-20 -24q-24 -44 -44 -68q-60 -4 -100 -36q-24 20 -44 28l-8 4q-36 20 -56 40q36 160 -36 288q24 16 36 40l-4 852q-60 136 -196 136q-16 -20 -20 -40zM168 1488q-4 -20 0 -36v-776
q-44 -8 -64 -36q104 -148 60 -300l4 -24q20 -28 60 -60q60 -28 96 -76q20 -8 36 -4q16 24 20 56l24 4l60 12q48 96 120 144l16 24q32 52 72 80v140q40 12 60 36l-60 92l-4 32v140l-4 32v232l-4 28v272l-4 8v76q20 8 40 8q60 -40 80 -100v-32l4 -20l-4 -44v-44l4 -28v-216
l4 -16v-208q0 -24 4 -40v-176q-40 -8 -64 -28l8 -28q100 -120 60 -268q-36 -20 -44 -52q56 -76 48 -156q24 -44 20 -88q-112 20 -152 152q-44 -4 -68 -64q-120 -96 -208 28q-52 -4 -40 -52l-16 -12q-164 56 -228 200q0 44 12 76q-64 80 -56 168q-8 24 -8 48q-8 32 -4 60
q48 0 60 36l-4 8q-40 36 -56 76l4 824q88 -28 116 -108z" />
    <glyph glyph-name="v" unicode="v" horiz-adv-x="1102" 
d="M748 1404q-36 -12 -56 -44q-44 -116 -16 -212q-36 -12 -56 -36v-28q-20 -44 -24 -76l-4 -16l-4 -16l-28 -100l-20 -68l-8 -28l-8 -24q-8 -44 -20 -76l-4 -16l-4 -16l-8 -28l-16 -48q-12 -64 -36 -112q-20 36 -44 60q20 24 24 56l-4 12q-4 44 -16 76q0 12 -4 16
q0 24 -8 60l-20 100q0 12 -4 16v12l-8 48q0 12 -8 36l-12 64l-4 16l-4 28q-4 28 -12 52q-4 44 -16 76v12l-8 24q-4 44 -16 72l-4 24q-4 36 -16 60v12l-16 40q-20 96 -60 156q-60 68 -140 60q-52 -20 -36 -104v-12l8 -8q4 -20 12 -32v-12l32 -112l4 -32l8 -12l4 -20l8 -56
l4 -16q8 -24 8 -44l8 -24q4 -40 16 -88l4 -20l4 -24l4 -20l4 -20v-20l8 -24l4 -16l4 -36l4 -16l4 -16v-20q4 -8 4 -28l8 -16q4 -32 12 -56q0 -28 8 -48q4 -44 16 -72q20 -40 48 -60l-16 -16v-68l4 -16l4 -28q8 -52 20 -88l4 -12l44 -88q32 -48 56 -72q24 -76 56 -120
q68 -76 156 -52q68 124 36 244l48 32l36 124l4 24l8 24l4 16l44 156q8 20 8 36q12 32 16 52l36 124l4 16l8 28l8 28v12l12 60q-4 28 -16 48q60 40 64 104q32 80 4 152q64 24 82 154t-82 202h-4l-36 16l-16 4h-52q-76 -128 -44 -256zM936 1480l-4 -8q-4 -76 -40 -132
q-40 8 -64 -8q-4 -20 0 -32q56 -80 12 -156q0 -36 -16 -60q-44 16 -72 -12q16 -52 40 -80v-32l-48 -168v-16l-8 -24l-4 -12q-12 -32 -16 -56l-24 -84l-4 -8l-8 -44l-4 -16l-8 -16l-12 -56l-12 -32l-4 -16l-28 -100l-12 -8q-40 16 -64 -12l4 -28q68 -108 -4 -212
q-96 12 -120 148q-128 144 -132 316l8 8l24 12l4 -8l8 -24q76 -72 88 -164l16 -20h32q36 -12 60 -12q24 48 -24 88l-8 32l4 16v16q28 84 32 112l12 36l48 164q8 36 16 56q8 44 16 68l4 8l24 96q20 48 24 84l8 8q40 -4 68 12l4 20q-68 100 0 228q48 -20 76 8q-72 132 -4 248
q104 -28 112 -128zM128 1564q4 -24 20 -36q12 -28 18 -46t10 -34l36 -112v-12l20 -80l4 -28l4 -32l16 -56l4 -8q0 -40 12 -72l4 -28l4 -28l12 -56l4 -16q4 -32 12 -56l4 -44q4 -40 16 -64q4 -16 8 -44q0 -28 8 -52q0 -28 12 -44q0 -24 4 -40l-36 -40v28l-68 68l-16 40l-4 36
l-4 24l-4 24l-12 60l-12 48l-4 28l-4 24l-4 28l-4 28q-8 24 -8 44l-8 20v12l-12 60q0 8 -4 28l-4 28q-12 28 -12 52l-12 56l-4 20q-8 44 -16 68l-4 16l-12 44l-4 12l-4 20l-12 48q-24 52 -20 92q44 0 76 -28z" />
    <glyph glyph-name="w" unicode="w" horiz-adv-x="1183" 
d="M4 1692l-4 -12l4 -176l4 -24v-48l4 -24v-40q4 -16 4 -32t8 -44v-52l4 -12q0 -32 4 -56l8 -60l36 -48q-16 -12 -24 -24q-20 -176 56 -308l-28 -28q-20 -176 56 -308q-20 -12 -28 -24q0 -28 -4 -48l4 -20l4 -28v-40l4 -28v-48l4 -24q12 -20 16 -32q12 -28 24 -44
q80 -84 176 -52l4 20q12 32 20 84l16 68q4 32 12 56v16l8 16q0 12 4 16l4 28l4 24l16 68q0 12 4 16v12q4 32 12 56l12 48l8 100q-8 24 -20 36q68 48 60 124l20 -68q4 -36 16 -64l4 -24l4 -24l24 -72q4 -40 16 -68l4 -16q8 -24 12 -60l12 -36l12 -56l12 -32l12 -28
q20 -8 32 -24q48 -52 104 -80q76 -32 116 36q76 92 40 196l20 12l4 8l20 56v12q12 36 12 68q4 84 -36 148q32 16 44 64v84l4 28v88l4 32l16 384l4 12q8 40 8 68v112q-52 88 -128 132q-48 0 -84 -28l-4 -16l-8 -36v-28l-4 -12q-4 -44 -12 -76l-4 -56q0 -48 -4 -80l-4 -24v-52
q0 -36 -4 -64v-68l-4 -16v-120q0 -32 -4 -56v-120q12 -36 28 -56q-52 -80 -44 -172l-16 44l-4 20l-4 24l-12 28l-24 100l-4 16l-8 24q-4 40 -12 64l-12 40q-12 32 -16 56l-8 44l-8 24q-8 72 -60 168q-56 60 -128 72l-68 -4q-80 -136 -32 -268q-68 -36 -72 -148
q-24 56 -44 88q20 16 32 32v52q-12 60 -8 100l-8 24v64l-4 32q0 36 -8 64l-4 96l-4 8v16l-4 28v24l-4 12l-4 36q-68 128 -196 120zM148 1588q16 -32 20 -80l4 -68l4 -24l4 -72l4 -20v-36q8 -32 4 -56l4 -12v-28l4 -12l4 -32l4 -100q-40 -12 -52 -44q96 -128 88 -276l4 -16
q-120 -44 8 -92q40 40 12 84l36 28q40 -8 64 16l-8 28q-32 40 -36 80v32l16 56l4 44q12 12 24 16q32 -8 52 16q-72 136 -4 256h28q60 -20 96 -64l12 -20l32 -96l4 -24l4 -28l4 -24l16 -52l4 -24q24 -84 32 -136q16 -36 20 -64l8 -20q4 -36 16 -64q0 -12 4 -16v-16l8 -20
q0 -8 4 -28l8 -24l4 -16l12 -32q8 -44 16 -68q52 -20 100 -12q8 12 12 32q-64 88 -36 184q-4 44 8 80q36 -4 56 20v12l-8 12l-20 24l-24 44l4 172q0 32 -4 52l4 64q0 32 4 56v64l4 12v84l4 16v64l4 16v20l24 164l20 12q64 -48 96 -104v-68l-12 -32l4 -12l-8 -40
q0 -48 -8 -80q0 -48 -8 -80l4 -20q-8 -36 -4 -68v-96q-4 -40 -4 -68v-76q0 -24 -8 -40l4 -8v-68l-4 -36q-36 -4 -64 -16l4 -36q88 -108 36 -232l-8 -20q-36 8 -60 -12v-24q96 -88 -20 -212l-20 4q-148 84 -164 236l-4 24l-24 76l-4 20q-4 44 -20 76l-4 28l-12 44
q-12 28 -12 52l-4 16l-12 40l-4 20l-8 28q-4 20 -12 36l-4 24q-12 40 -16 68q-36 28 -72 32q-20 -16 -20 -40q76 -120 8 -240q-40 4 -64 -16q12 -52 44 -88v-12l-4 -32l-4 -28l-4 -24l-8 -28q-20 -72 -24 -120l-16 -52l-4 -32l-4 -24q-12 -32 -12 -60l-24 -96q0 -40 -16 -68
q-84 20 -112 96l-4 16l-4 112l-4 8l-4 64q40 8 56 32q-104 144 -84 304q40 8 52 36q-100 140 -80 296q40 8 52 40l-12 16q-24 24 -52 68l-4 20l-8 52v28q0 12 -4 16q0 60 -8 100v36l-4 16v32l-4 20l-4 68l-4 32v100q64 -24 96 -68z" />
    <glyph glyph-name="x" unicode="x" 
d="M0 1480l20 -24l60 -108l4 -12l52 -88l12 -24l44 -76q12 -24 24 -40q8 -24 20 -40l52 -92q16 -36 32 -56l4 -8q24 -56 52 -88q-16 -48 -8 -88q-72 -24 -92 -92q-36 -60 -28 -120q-140 -72 -36 -216q60 -72 136 -56q76 44 52 128q100 40 124 164l4 -8l16 -24q24 -36 44 -56
l60 -56q0 -116 88 -224q60 -172 216 -176q24 24 32 56q-12 80 -56 136q-12 36 -36 64q-44 112 -128 172q4 28 0 52l-20 40l-40 80l-12 20l-60 104q12 48 12 84q28 0 44 16l120 212l12 16l20 44l12 16l60 108l12 20l72 132q8 76 -24 136q-64 76 -152 88q-24 -20 -36 -36
l-64 -112q-24 -36 -36 -64l-40 -68l-20 -36q-16 -28 -24 -52l-104 -184q-12 -24 -16 -44q-28 40 -40 72l-12 16l-12 24l-48 84q-4 12 -24 40l-12 24l-84 148l-4 12l-16 28l-4 12l-52 84l-40 36q-56 24 -112 20q-28 -60 -20 -120zM132 1504l16 -24q4 -12 12 -22t16 -34l8 -12
l12 -16q20 -44 40 -72l44 -80l12 -24q28 -44 40 -72l12 -16l12 -20l20 -36v-12l8 -8l12 -16l16 -36q32 -44 44 -80q40 -32 76 -44q40 24 0 116l76 136l12 24q20 28 28 52l28 48q16 40 36 64l100 180q12 24 24 40l40 -16q68 -52 72 -124l-16 -24l-8 -24l-24 -40l-8 -8
q-8 -20 -16 -32l-24 -44l-12 -20l-8 -20l-52 -88l-4 -12l-44 -76q-4 -12 -8 -16l-36 -60q-20 -48 -44 -76q-52 36 -84 4v-28q44 -56 16 -124l132 -236q4 -24 -4 -44q-120 84 -168 204q-40 24 -80 28q-12 -24 -12 -44q64 -88 -40 -184q-44 12 -76 -4q52 -140 -24 -132
q-76 52 -80 132l12 24q52 -8 88 0l4 24q-52 80 0 148q20 72 92 44l20 16q-8 36 -24 64q12 56 12 88l-32 48l-4 12l-68 120q-4 12 -20 36l-52 100q-16 20 -28 48l-88 152q-4 12 -8 16l-32 60q-32 44 -44 80q-4 20 4 40q48 -16 76 -48zM236 460l12 8q40 -8 -12 -8zM764 364
l28 -40l8 -16l8 -8l44 -80l12 -20l12 -28l16 -24q24 -40 36 -72l-4 -24q-28 4 -48 12l-8 8l-24 20l-16 20l-32 64l-4 12l-20 28l-4 12l-12 24q-12 20 -16 32q-28 32 -40 68l4 36q32 -4 60 -24zM136 -36h60q112 68 116 180q-56 132 -184 152q-216 -180 8 -332zM256 136
q-52 -216 -176 -40q-16 92 64 144q80 -32 112 -104z" />
    <glyph glyph-name="y" unicode="y" horiz-adv-x="1024" 
d="M0 1584l12 -32l8 -16l12 -44l20 -64q8 -32 20 -52q8 -52 28 -92q12 -28 12 -52l12 -32l4 -16q12 -36 24 -56l28 -88l4 -28l52 -152q12 -52 28 -88l4 -16l4 -16l16 -36q0 -28 12 -48l4 -12q12 -28 16 -48q32 -24 52 -52q-36 -120 48 -208l-16 -36q-8 -32 -28 -56h-144
q-96 4 -156 -8q-48 -96 20 -176q40 -40 72 -60h364q20 4 36 16l20 36q40 64 52 120q100 156 40 304l36 20q44 168 -8 280q20 12 40 40v56l8 20v44q12 44 8 72l-20 48q24 20 40 44q36 212 144 364v60l-32 28q-64 104 -176 112l-16 -16l-20 -32l-28 -48l-16 -52l-28 -56
l-20 -64q-4 -32 -16 -60l-20 -88l4 -12q4 -36 20 -64q-20 -8 -32 -20q-52 -148 4 -276l-28 -16l-16 -40v-24q-8 -76 -8 -124l-8 16q-8 36 -20 64q-12 48 -28 80q-4 28 -12 44l-24 72q-8 44 -24 72l-4 24q-12 28 -16 48l-16 48l-4 16l-36 108l-4 16l-4 16l-4 16
q-20 44 -24 64q-12 52 -28 88l-4 12q-24 96 -60 156q-68 72 -160 64q-28 -56 -20 -112zM136 1604l-4 -8q28 -32 36 -64l16 -60q20 -48 24 -84l8 -8v-12l8 -20q16 -36 20 -64q24 -52 28 -92l8 -8l36 -124q16 -36 16 -64l12 -16l8 -24v-20q16 -32 24 -60l4 -16l4 -16l48 -136
l4 -16l4 -20l28 -80q-4 -28 -24 -40l-12 20q-48 32 -68 68l-12 36l-12 28q-12 52 -28 88l-24 72v12l-24 68l-4 20l-60 188l-12 32l-24 64v12l-20 64l-8 12l-8 24v12l-20 64l-12 36l-16 44q0 12 -4 16l-28 92l8 24q48 -16 80 -44zM856 1512l24 -16l-12 -28l-16 -20l-44 -76
l-4 -16q-12 -20 -16 -32l-16 -40q-4 -32 -16 -52v-12l-8 -20l-16 -80q-48 8 -72 -16l4 -28q32 -32 44 -68v-48l-4 -16l-4 -16q0 -60 -12 -100q-36 4 -64 -16v-20q96 -100 40 -264q-40 8 -64 -16l4 -24q100 -140 -16 -292q-20 -84 -64 -144l-32 -4l-52 4l-264 8
q-68 48 -68 120l16 12h200q52 -4 88 4q52 76 64 148q-68 80 -60 172l12 12q92 -112 112 -4q56 -8 60 40q-32 32 -48 68l4 64q-4 72 12 124q40 -4 64 20q-92 140 -32 276q40 -8 64 20l-4 16q-36 44 -48 84v24l4 16l20 68q12 28 12 52q12 24 16 44l16 40l8 12l12 28
q20 52 44 88q80 -28 112 -96z" />
    <glyph glyph-name="z" unicode="z" horiz-adv-x="952" 
d="M372 1668l-80 -8l-28 -4l-24 -4l-40 -8l-60 -4l-28 -4l-44 -4q-20 -20 -28 -36q16 -140 128 -208l20 -4l44 4l88 8l44 4l40 8h24l12 4l44 4q44 8 72 8q-88 -104 -68 -220q-68 -20 -80 -84q-44 -72 -24 -144q-28 -4 -44 -16l-24 -40l-12 -28l-24 -52q-20 -52 -36 -72
l-20 -52q-8 -20 -16 -32l-12 -28l-20 -52l-8 -12l-64 -152q-32 -56 -44 -100q4 -32 16 -56q-100 -40 -76 -156q48 -96 136 -128q124 -20 168 40q148 -80 264 16q24 -24 56 -32h28q24 8 56 4l44 4l28 4q36 0 88 12q60 148 -120 244h-44l-20 -4h-40l-12 -4l-116 -8
q-20 -16 -32 -36q-72 44 -164 24l8 12q24 64 44 100l8 24l16 28l60 140q12 20 16 36l76 172q0 36 -12 60q68 28 80 92q36 72 20 140q72 28 84 92q40 72 20 140q108 48 104 176q-124 244 -452 200zM788 1472q0 -132 -104 -108l-20 -20l4 -28q48 -64 4 -128q-4 -32 -20 -56
q-12 -4 -16 -8q-44 16 -76 -8q60 -124 -16 -220l-8 -4l-64 12q-8 -12 -16 -16l4 -32q28 -28 36 -64l-4 -16l-8 -20l-8 -12l-20 -44l-8 -12q0 -8 -8 -28l-16 -20q-8 -40 -24 -68l-28 -64q-12 -20 -16 -32l-64 -148q-32 -56 -40 -104q12 -12 24 -16l16 4l132 4q40 -24 60 -52
l24 -16q36 16 32 76q24 0 40 4h64l24 8l64 4q84 -52 104 -136l-12 -12h-24l-16 -4q-24 0 -28 -4l-128 -4q-28 16 -44 32l-36 32q-36 -8 -36 -72q-136 -40 -228 56q-44 -16 -28 -64l-12 -12q-148 -20 -196 112q0 40 28 64q48 -28 80 4v12q-32 48 -40 96l12 32l24 44
q12 24 16 40q20 32 24 56l24 48l4 12q12 32 24 52l4 16l44 88l4 12l28 56l8 24q24 64 48 100q48 -16 76 8q-52 120 20 216q52 -4 84 12l4 16q-52 80 -4 152q20 72 92 48q12 16 16 32q-28 48 -56 76h-56l-20 -4q-40 0 -68 -8q-32 0 -56 -4l-12 -4l-56 -8h-24l-8 -4h-16
l-28 -4h-24l-48 -8q-80 56 -104 140q12 8 20 8h20q12 4 32 4l20 4h16q40 4 68 12h12l24 4q36 0 64 8l48 8q256 36 372 -152z" />
    <glyph glyph-name="braceleft" unicode="{" horiz-adv-x="550" 
d="M96 1631l-4 -16q0 -24 -4 -28q0 -24 -8 -44q12 -48 0 -92l4 -12l8 -156q-40 -132 -8 -244q-68 8 -56 -152q-92 -36 -144 -104v-76q52 -84 120 -128q16 -88 60 -148l4 -28v-72q-92 -480 212 -584q24 -20 56 -32h76l12 36q4 160 -148 224v88l4 12l4 28l4 88q4 252 -120 440
q36 52 24 108q40 0 60 20l8 148q24 24 32 44v56l12 64q8 28 12 80v56l-4 12v68l-4 32l8 148q32 60 96 56l28 12q16 20 16 40q0 160 -152 200h-100q-72 -64 -108 -144zM408 1619q0 -24 -8 -40q-92 -12 -136 -88q0 -16 -4 -40q-8 -44 -4 -76q-4 -24 0 -44v-64q8 -28 0 -48
q16 -108 -20 -200q8 -32 0 -56q-176 64 -92 280v80l-4 28v48l-4 24v120q12 36 8 64l4 8q32 68 80 108q128 4 180 -104zM100 955l16 -8q52 -40 88 -60q4 -52 -8 -92q-44 12 -76 -8v-24q48 -64 -12 -112v-24q176 -280 112 -568q12 -56 0 -104l12 -20q132 -48 140 -168
q-348 84 -252 552l-4 132l-20 28l-20 44q-16 40 -20 72l-16 24q-88 56 -108 140q24 28 52 36q48 48 104 28l16 12l4 24q-40 52 -16 104z" />
    <glyph glyph-name="bar" unicode="|" horiz-adv-x="448" 
d="M41 1755q-16 -28 -18 -50t-6 -34q8 -32 4 -60v-484l-4 -44q4 -8 0 -16v-16q-4 -8 0 -16v-144q8 -36 32 -64q-16 -12 -24 -24q-36 -160 24 -296l-8 -4l-20 -16l-4 -16v-192q8 -24 4 -48l24 -36q-20 -12 -28 -28l4 -208q68 -132 192 -108q40 140 -16 252q20 24 32 44
l-4 236q-16 28 -28 40q20 20 32 40q20 136 -20 248q-16 36 24 64v860q-60 132 -188 128zM181 1619v-824q-40 -12 -56 -40q80 -136 52 -276q-40 -12 -56 -40l52 -72l4 -172l-4 -36q-40 0 -52 -36q80 -112 44 -228q-68 28 -96 88v156q32 8 52 20q-12 56 -48 88q0 32 -4 56v152
q40 8 52 40q-84 136 -48 276q44 0 56 32l-4 8q-40 44 -56 88v160l4 16v480q-8 96 8 156q72 -24 100 -92z" />
    <glyph glyph-name="braceright" unicode="}" horiz-adv-x="589" 
d="M123 1555v-32l4 -16q-4 -40 8 -72q-12 -76 12 -144q-48 -224 84 -372q-40 -80 12 -144q-104 -108 -44 -228q-28 -20 -40 -44l-4 -44v-12q-16 -44 -16 -80q-4 -72 8 -124v-56q0 -20 4 -32v-120l-20 -24q-12 -28 -32 -52q-68 4 -120 -24l-4 -12v-80q32 -60 68 -96
q104 -56 212 -36q80 64 112 148v12q12 36 12 68v104q-4 24 -4 68q-12 44 -8 80v56q20 96 16 156l-24 44l4 8q32 32 48 68q40 40 52 88q52 -4 88 24q8 176 -148 228l-28 28l12 24v16l-8 32q-16 48 -16 84q20 100 -4 184q28 344 -176 580q-80 32 -156 24q-68 -140 96 -280z
M143 1771q200 -248 160 -536q16 -48 16 -84v-24q0 -12 -4 -16l-4 -28q0 -44 -4 -72q20 -48 24 -84q-24 -24 -24 -48l20 -20q28 -20 40 -40q124 -36 132 -152q-36 -4 -64 16l-28 -4q-12 -40 -4 -76l-20 -32q-36 -40 -52 -72q-24 4 -44 0l-16 -24l8 -20q36 -32 52 -64l-4 -8
l4 -20l-4 -44q-12 -36 -16 -64l4 -20v-124l8 -32l-4 -20q4 -16 8 -44v-32q0 -48 -4 -80q-32 -144 -146 -142t-154 106q0 20 12 36h80q20 12 36 32l16 28q12 20 20 28l16 24l4 128l-4 12q0 24 -4 40v64q-8 44 -4 76q-4 52 12 92l4 60q40 8 64 28l-4 24q-96 120 28 208l8 32
q-72 64 -16 132v16l-12 16q-48 48 -72 100l-16 72q-8 36 -4 64q4 56 12 88l4 20l-4 16l-4 16q-8 24 -8 44v88l-4 12l-8 124q-128 92 -112 200q48 -4 80 -16z" />
    <glyph glyph-name="asciitilde" unicode="~" horiz-adv-x="1110" 
d="M722 1229l-12 4h-28l-20 -4q-56 -12 -72 -14t-44 2l-32 4q-24 8 -44 8q-208 64 -400 12q-56 -44 -80 -96q-4 -132 108 -192h64q52 24 84 56q64 0 108 12l92 -4q228 -100 416 4q92 28 96 112l-8 12q-16 20 -28 48l-76 132h-60q-48 -44 -64 -96zM812 1270l36 -64l4 -12
l20 -32q12 -32 24 -52q-20 -20 -36 -28q-20 36 -40 56l-28 -4q-12 -44 4 -84q-108 -40 -204 -20q-80 12 -136 40l-112 4l-24 -4q-60 -12 -100 -8q-48 -48 -100 -60q-60 40 -88 100v16q28 52 73 87q143 26 264 4l42 -17l17 -6l44 -12q16 0 48 -8l68 -4l16 4l24 4l68 12
q36 -32 76 -36l16 20q-28 68 16 112z" />
    <glyph glyph-name="bullet" horiz-adv-x="746" 
d="M39 1072l-48 -84v-216q104 -204 304 -208q260 8 220 200q72 76 16 176q-112 168 -292 152q-60 20 -112 12q-56 -12 -88 -32zM227 1036q168 20 252 -116q28 -52 16 -100q-32 20 -60 0l4 -32q80 -112 -56 -156q-160 -48 -268 60q-148 148 -32 344q44 8 72 20q44 0 72 -20z
M287 884l-20 -16q-24 -116 32 -120q48 56 112 56q8 28 0 48l-20 16h-28l-20 4q-24 16 -48 16z" />
    <glyph glyph-name="bullet" unicode="&#x2022;" horiz-adv-x="746" 
d="M39 1072l-48 -84v-216q104 -204 304 -208q260 8 220 200q72 76 16 176q-112 168 -292 152q-60 20 -112 12q-56 -12 -88 -32zM227 1036q168 20 252 -116q28 -52 16 -100q-32 20 -60 0l4 -32q80 -112 -56 -156q-160 -48 -268 60q-148 148 -32 344q44 8 72 20q44 0 72 -20z
M287 884l-20 -16q-24 -116 32 -120q48 56 112 56q8 28 0 48l-20 16h-28l-20 4q-24 16 -48 16z" />
    <glyph glyph-name="copyright" unicode="&#xa9;" horiz-adv-x="1284" 
d="M259 1236q-40 16 -76 8q-280 -228 -196 -552q96 -224 280 -348q40 -4 72 8q48 -56 104 -76l24 -4h96q32 -4 60 4q28 20 40 48q88 -24 148 28q64 40 60 108q152 40 130 298t-206 410q-208 168 -448 140q-68 -16 -88 -72zM859 1024q144 -240 56 -480l-32 -28q-28 4 -44 16
h-24q-28 -32 8 -92q-84 -124 -184 -32q-48 -4 -36 -80q-168 -36 -252 100q-40 8 -52 -32h-12q-184 136 -252 328q-56 308 184 472q40 -32 88 -44l16 20q-28 56 20 80l68 8q292 -20 448 -236zM347 1060q48 -12 60 32q-32 40 -76 48q-28 -48 16 -80zM459 1048l32 -4
q36 0 64 -8q112 -60 120 -172l-12 -4q-100 60 -204 52q-36 -44 -40 -88q-4 -52 8 -92q48 -12 76 -12q120 -24 140 -144q-208 -16 -328 136q-8 24 -8 44l-4 12v112l-8 28q4 48 0 80q-28 20 -52 8q-172 -216 -48 -424q36 -44 64 -68q20 -12 24 -24q12 -28 32 -40q32 8 44 32
h12q80 -12 140 -4q40 -36 80 -44q12 8 16 16q-12 52 32 76q60 56 136 28l16 8q4 52 -16 92q36 84 44 116q76 348 -320 356q-80 -12 -40 -68zM747 712q-28 -44 -20 -88l-36 -12q-60 164 -220 168q0 44 16 80q92 -8 160 -56q172 32 0 232q212 -92 100 -324zM251 852v-28
q-4 -80 16 -140q124 -140 292 -172h-12q-64 16 -116 4q-56 16 -104 0q-212 168 -84 380z" />
    <glyph glyph-name="paragraph" unicode="&#xa7;" horiz-adv-x="2060" 
d="M56 1479q12 -148 116 -236l-32 -44h-12l-16 -12l-92 -84q-12 -44 -12 -76q-100 -276 112 -448h12q40 -20 76 -24q32 -28 68 -40q32 0 56 16q72 -96 176 -120l-4 -24q16 -72 -4 -132h-64l-16 -4q-16 0 -30 -2t-18 -6h-16l-24 -8h-12l-80 -12q-16 16 -32 20
q-84 100 -172 136l-20 -24q0 -108 48 -192q52 -116 144 -188h180l12 4q44 0 72 12q148 -4 164 76q132 -32 96 216q-20 72 -64 120l16 20q-16 196 -196 224l-8 4l-120 40q-20 -4 -32 -12q-56 72 -124 108l12 28v12q12 40 16 72q44 44 84 64q32 32 48 64l20 -20q32 -24 48 -40
l8 -8l16 -12q28 -16 48 -40q8 -52 8 -88l-4 -20q12 -16 28 -20l32 -56q8 -24 20 -40q24 -56 44 -88l8 -4l52 4q28 32 44 60q16 164 -80 280q-36 168 -180 228q-60 60 -96 76l-8 8q-28 96 -88 156q28 44 64 72q124 44 244 -100q48 -4 84 12l16 16q8 44 4 72
q-176 292 -484 264q-168 -96 -156 -260zM644 1459q0 -20 -8 -32h-20q-236 240 -392 -20v-24q80 -76 100 -168l8 -12q68 -32 116 -88q104 -44 144 -140l12 -60q112 -128 64 -268l-12 24q-28 60 -40 76l-20 36q-12 32 -32 56l-8 92l-92 80q-28 28 -52 44l-40 36
q-52 -4 -84 -80q-64 -36 -100 -76q-12 -32 -12 -56q-12 -28 -12 -52q-20 -36 -16 -68q104 -60 156 -152l12 -4q-12 -24 -24 -36q-36 16 -56 36l-12 4q-32 4 -56 12q-216 156 -108 388l8 68l12 8l68 60l24 8l12 12l4 8l48 72v20q-272 236 4 428q276 -4 404 -232zM380 631
l104 -36l8 -4q40 -4 72 -24l36 -36q44 -68 4 -128q116 -136 64 -288q-68 36 -96 20l-4 -28q12 -24 8 -44q-36 -12 -68 -12l-24 -4l-64 -12l-12 -4q-20 0 -32 -4h-144q-112 104 -156 240l-4 28q12 -16 32 -24l-4 -8q12 -4 16 -8l24 -24l8 -4q40 -40 72 -60l68 8q16 4 44 8
q40 4 68 12q52 8 88 4l40 -28l24 8q8 12 8 20l-4 64q0 8 4 28l4 20v36q0 20 -4 32l4 64q-144 44 -216 160q12 16 16 32z" />
    <glyph glyph-name="Aogonek" unicode="&#xa5;" horiz-adv-x="1168" 
d="M392 1536l-16 -4h-28q-12 0 -32 -4l-24 -4q-20 0 -32 -4q-60 4 -100 -12q-56 -168 124 -244l124 8l44 4l40 8h40l8 4q96 12 156 4q8 -76 44 -128l-20 -20q-32 -144 8 -268l-12 -4l-24 4q-60 16 -80 16q-68 16 -96 16l-16 4l-44 8l-260 8l-20 -8l-48 -8l-24 -8
q-56 -32 -88 -80q0 -32 12 -60q-84 -36 -72 -124q-16 -104 32 -184q-24 -12 -36 -28v-204q32 -88 92 -144q72 -28 136 0l24 -20l24 -16q40 -8 68 -20l120 -36q20 -8 36 -8l60 -16l84 -4q60 -288 296 -268q64 120 -44 208q8 48 -20 80q56 12 88 36l8 20v44l4 28v84l8 32v112
l-4 28q-12 40 -32 68q24 16 36 36v236q-16 32 -32 52q24 16 28 44q24 156 -40 276l32 32q36 236 -128 372l-20 28l-44 16q-36 12 -64 16h-260zM872 1136q-44 -8 -60 -44q100 -128 68 -280q-36 -16 -44 -48l8 -8l36 -60v-204q-32 -4 -56 -28l4 -20q36 -44 56 -112
q0 -28 4 -48l-4 -16v-28l-8 -28q0 -60 -2 -102t-18 -70q-80 24 -108 -12q16 -60 48 -96q-16 -16 -20 -36q104 -76 80 -156q-172 16 -216 268l-20 8q-52 -8 -92 0l-12 4l-72 16l-16 4l-28 12l-104 28q-28 12 -48 16l-20 16l-28 28l-16 24q-16 4 -28 2t-16 -10q0 -60 -64 -32
q-52 56 -72 120v156q40 4 64 28l-4 20q-104 120 -40 260q52 -16 80 12v12q-28 40 -32 80q32 28 60 44q184 44 344 0l12 4l48 -12q32 4 56 -8q24 0 40 -8h16l24 -4l20 -8q44 -4 72 -12l28 8q16 20 12 40q-72 120 -40 248q36 8 56 28l-8 24q-68 88 -72 184l-24 8h-144l-12 -4
l-24 -4q-32 0 -56 -4h-16l-24 -8h-12l-44 -4l-92 -4q-100 52 -92 144l16 4q72 -4 124 8q16 4 36 0l12 4q40 4 68 12q440 44 416 -356zM136 688l-24 -16q0 -44 24 -76q0 -24 -4 -40v-24l-8 -4q0 -60 -4 -100q-44 -4 -60 -40l4 -8q52 -64 64 -132l12 -20l12 -4q24 8 48 4
l36 -12l92 -24q160 -60 300 -8q84 32 128 88v72l4 8l4 116q36 8 60 20l4 16q-60 72 -64 156l-12 20l-16 4l-16 4l-52 12l-48 8h-384q-48 -36 -100 -20zM552 652q96 0 156 -16l4 -8q8 -60 36 -104l-36 -32q-4 -32 -4 -56v-60l-4 -12q0 -48 -4 -80q-192 -124 -380 -32h-12
l-28 8l-104 32l-4 8q-12 44 -32 72l20 8q20 60 16 112q20 72 8 132q36 12 60 28h308z" />
    <glyph glyph-name="Aogonek" unicode="&#x104;" horiz-adv-x="1168" 
d="M392 1536l-16 -4h-28q-12 0 -32 -4l-24 -4q-20 0 -32 -4q-60 4 -100 -12q-56 -168 124 -244l124 8l44 4l40 8h40l8 4q96 12 156 4q8 -76 44 -128l-20 -20q-32 -144 8 -268l-12 -4l-24 4q-60 16 -80 16q-68 16 -96 16l-16 4l-44 8l-260 8l-20 -8l-48 -8l-24 -8
q-56 -32 -88 -80q0 -32 12 -60q-84 -36 -72 -124q-16 -104 32 -184q-24 -12 -36 -28v-204q32 -88 92 -144q72 -28 136 0l24 -20l24 -16q40 -8 68 -20l120 -36q20 -8 36 -8l60 -16l84 -4q60 -288 296 -268q64 120 -44 208q8 48 -20 80q56 12 88 36l8 20v44l4 28v84l8 32v112
l-4 28q-12 40 -32 68q24 16 36 36v236q-16 32 -32 52q24 16 28 44q24 156 -40 276l32 32q36 236 -128 372l-20 28l-44 16q-36 12 -64 16h-260zM872 1136q-44 -8 -60 -44q100 -128 68 -280q-36 -16 -44 -48l8 -8l36 -60v-204q-32 -4 -56 -28l4 -20q36 -44 56 -112
q0 -28 4 -48l-4 -16v-28l-8 -28q0 -60 -2 -102t-18 -70q-80 24 -108 -12q16 -60 48 -96q-16 -16 -20 -36q104 -76 80 -156q-172 16 -216 268l-20 8q-52 -8 -92 0l-12 4l-72 16l-16 4l-28 12l-104 28q-28 12 -48 16l-20 16l-28 28l-16 24q-16 4 -28 2t-16 -10q0 -60 -64 -32
q-52 56 -72 120v156q40 4 64 28l-4 20q-104 120 -40 260q52 -16 80 12v12q-28 40 -32 80q32 28 60 44q184 44 344 0l12 4l48 -12q32 4 56 -8q24 0 40 -8h16l24 -4l20 -8q44 -4 72 -12l28 8q16 20 12 40q-72 120 -40 248q36 8 56 28l-8 24q-68 88 -72 184l-24 8h-144l-12 -4
l-24 -4q-32 0 -56 -4h-16l-24 -8h-12l-44 -4l-92 -4q-100 52 -92 144l16 4q72 -4 124 8q16 4 36 0l12 4q40 4 68 12q440 44 416 -356zM136 688l-24 -16q0 -44 24 -76q0 -24 -4 -40v-24l-8 -4q0 -60 -4 -100q-44 -4 -60 -40l4 -8q52 -64 64 -132l12 -20l12 -4q24 8 48 4
l36 -12l92 -24q160 -60 300 -8q84 32 128 88v72l4 8l4 116q36 8 60 20l4 16q-60 72 -64 156l-12 20l-16 4l-16 4l-52 12l-48 8h-384q-48 -36 -100 -20zM552 652q96 0 156 -16l4 -8q8 -60 36 -104l-36 -32q-4 -32 -4 -56v-60l-4 -12q0 -48 -4 -80q-192 -124 -380 -32h-12
l-28 8l-104 32l-4 8q-12 44 -32 72l20 8q20 60 16 112q20 72 8 132q36 12 60 28h308z" />
    <glyph glyph-name="aogonek" unicode="&#xb9;" horiz-adv-x="1196" 
d="M392 1536l-16 -4h-28q-12 0 -32 -4l-24 -4q-20 0 -32 -4q-60 4 -100 -12q-56 -168 124 -244l124 8l44 4l40 8h40l8 4q96 12 156 4q8 -76 44 -128l-20 -20q-32 -144 8 -268l-12 -4l-24 4q-60 16 -80 16q-68 16 -96 16l-16 4l-44 8l-260 8l-20 -8l-48 -8l-24 -8
q-56 -32 -88 -80q0 -32 12 -60q-84 -36 -72 -124q-16 -104 32 -184q-24 -12 -36 -28v-204q32 -88 92 -144q72 -28 136 0l24 -20l24 -16q40 -8 68 -20l120 -36q20 -8 36 -8l60 -16l84 -4q60 -288 296 -268q64 120 -44 208q8 48 -20 80q56 12 88 36l8 20v44l4 28v84l8 32v112
l-4 28q-12 40 -32 68q24 16 36 36v236q-16 32 -32 52q24 16 28 44q24 156 -40 276l32 32q36 236 -128 372l-20 28l-44 16q-36 12 -64 16h-260zM872 1136q-44 -8 -60 -44q100 -128 68 -280q-36 -16 -44 -48l8 -8l36 -60v-204q-32 -4 -56 -28l4 -20q36 -44 56 -112
q0 -28 4 -48l-4 -16v-28l-8 -28q0 -60 -2 -102t-18 -70q-80 24 -108 -12q16 -60 48 -96q-16 -16 -20 -36q104 -76 80 -156q-172 16 -216 268l-20 8q-52 -8 -92 0l-12 4l-72 16l-16 4l-28 12l-104 28q-28 12 -48 16l-20 16l-28 28l-16 24q-16 4 -28 2t-16 -10q0 -60 -64 -32
q-52 56 -72 120v156q40 4 64 28l-4 20q-104 120 -40 260q52 -16 80 12v12q-28 40 -32 80q32 28 60 44q184 44 344 0l12 4l48 -12q32 4 56 -8q24 0 40 -8h16l24 -4l20 -8q44 -4 72 -12l28 8q16 20 12 40q-72 120 -40 248q36 8 56 28l-8 24q-68 88 -72 184l-24 8h-144l-12 -4
l-24 -4q-32 0 -56 -4h-16l-24 -8h-12l-44 -4l-92 -4q-100 52 -92 144l16 4q72 -4 124 8q16 4 36 0l12 4q40 4 68 12q440 44 416 -356zM136 688l-24 -16q0 -44 24 -76q0 -24 -4 -40v-24l-8 -4q0 -60 -4 -100q-44 -4 -60 -40l4 -8q52 -64 64 -132l12 -20l12 -4q24 8 48 4
l36 -12l92 -24q160 -60 300 -8q84 32 128 88v72l4 8l4 116q36 8 60 20l4 16q-60 72 -64 156l-12 20l-16 4l-16 4l-52 12l-48 8h-384q-48 -36 -100 -20zM552 652q96 0 156 -16l4 -8q8 -60 36 -104l-36 -32q-4 -32 -4 -56v-60l-4 -12q0 -48 -4 -80q-192 -124 -380 -32h-12
l-28 8l-104 32l-4 8q-12 44 -32 72l20 8q20 60 16 112q20 72 8 132q36 12 60 28h308z" />
    <glyph glyph-name="aogonek" unicode="&#x105;" horiz-adv-x="1196" 
d="M392 1536l-16 -4h-28q-12 0 -32 -4l-24 -4q-20 0 -32 -4q-60 4 -100 -12q-56 -168 124 -244l124 8l44 4l40 8h40l8 4q96 12 156 4q8 -76 44 -128l-20 -20q-32 -144 8 -268l-12 -4l-24 4q-60 16 -80 16q-68 16 -96 16l-16 4l-44 8l-260 8l-20 -8l-48 -8l-24 -8
q-56 -32 -88 -80q0 -32 12 -60q-84 -36 -72 -124q-16 -104 32 -184q-24 -12 -36 -28v-204q32 -88 92 -144q72 -28 136 0l24 -20l24 -16q40 -8 68 -20l120 -36q20 -8 36 -8l60 -16l84 -4q60 -288 296 -268q64 120 -44 208q8 48 -20 80q56 12 88 36l8 20v44l4 28v84l8 32v112
l-4 28q-12 40 -32 68q24 16 36 36v236q-16 32 -32 52q24 16 28 44q24 156 -40 276l32 32q36 236 -128 372l-20 28l-44 16q-36 12 -64 16h-260zM872 1136q-44 -8 -60 -44q100 -128 68 -280q-36 -16 -44 -48l8 -8l36 -60v-204q-32 -4 -56 -28l4 -20q36 -44 56 -112
q0 -28 4 -48l-4 -16v-28l-8 -28q0 -60 -2 -102t-18 -70q-80 24 -108 -12q16 -60 48 -96q-16 -16 -20 -36q104 -76 80 -156q-172 16 -216 268l-20 8q-52 -8 -92 0l-12 4l-72 16l-16 4l-28 12l-104 28q-28 12 -48 16l-20 16l-28 28l-16 24q-16 4 -28 2t-16 -10q0 -60 -64 -32
q-52 56 -72 120v156q40 4 64 28l-4 20q-104 120 -40 260q52 -16 80 12v12q-28 40 -32 80q32 28 60 44q184 44 344 0l12 4l48 -12q32 4 56 -8q24 0 40 -8h16l24 -4l20 -8q44 -4 72 -12l28 8q16 20 12 40q-72 120 -40 248q36 8 56 28l-8 24q-68 88 -72 184l-24 8h-144l-12 -4
l-24 -4q-32 0 -56 -4h-16l-24 -8h-12l-44 -4l-92 -4q-100 52 -92 144l16 4q72 -4 124 8q16 4 36 0l12 4q40 4 68 12q440 44 416 -356zM136 688l-24 -16q0 -44 24 -76q0 -24 -4 -40v-24l-8 -4q0 -60 -4 -100q-44 -4 -60 -40l4 -8q52 -64 64 -132l12 -20l12 -4q24 8 48 4
l36 -12l92 -24q160 -60 300 -8q84 32 128 88v72l4 8l4 116q36 8 60 20l4 16q-60 72 -64 156l-12 20l-16 4l-16 4l-52 12l-48 8h-384q-48 -36 -100 -20zM552 652q96 0 156 -16l4 -8q8 -60 36 -104l-36 -32q-4 -32 -4 -56v-60l-4 -12q0 -48 -4 -80q-192 -124 -380 -32h-12
l-28 8l-104 32l-4 8q-12 44 -32 72l20 8q20 60 16 112q20 72 8 132q36 12 60 28h308z" />
    <glyph glyph-name="Cacute" unicode="&#xc6;" horiz-adv-x="1045" 
d="M472 1652l-12 -28l-24 -28l-28 -48h-24q-76 8 -124 4l-12 -4q-36 0 -64 -8q-24 -32 -32 -64q-128 -128 -84 -272l-8 -4l-32 -28q-48 -144 8 -268q-24 -12 -36 -32v-244q28 -52 44 -68q-60 -76 0 -152q4 -48 20 -80q224 -500 716 -252q20 44 16 80q84 8 104 88l-4 116
l-32 20q-8 4 -24 20q-36 20 -60 40l-8 4q-32 24 -56 36q-44 -28 -40 -76q-24 -44 -20 -88q-24 8 -40 4q-156 -88 -316 -56l-8 20q-12 52 -36 88q-12 80 -60 132l24 28l-4 16v96l4 12v96l-28 52q44 48 48 108q16 92 -16 168q24 12 40 24l12 44l44 72l20 24l36 52h24
q80 -40 160 -20l8 -8l24 -16q32 -28 48 -52l12 -16l20 -24q32 -20 52 -40q56 -12 104 12q12 40 12 76q-68 136 -176 216q68 164 -100 248h-76zM604 1440q0 -24 8 -44q124 -88 176 -208l-4 -16l-32 -4l-60 52l-12 16l-12 16q-48 52 -88 76q-48 0 -80 -8q-88 32 -156 28
q-16 -16 -20 -32l-20 -28l-12 -16l-16 -16l-8 -12l-12 -20q-24 -56 -44 -88q-40 8 -64 -16q64 -132 28 -256q-60 -16 -64 -40l8 -16q28 -32 44 -60q0 -12 4 -16v-48l-4 -12v-120q-28 -20 -36 -48q60 -64 76 -140v-12l28 -48q12 -36 16 -64l16 -24q208 -44 372 52
q48 -28 88 -16l4 20q-32 72 0 136q8 -4 28 -20l32 -20l8 -8l56 -40q0 -64 -36 -112q-48 36 -92 16v-32q24 -36 16 -72q-440 -212 -624 224q-20 40 -20 72v12q-24 44 -32 76q36 20 56 52l-20 24q-36 36 -52 72v192q48 -8 72 24q-100 136 -40 276q52 -16 72 24q-88 116 4 216
l4 12q40 52 56 96l20 4l92 4q28 -8 52 -4q36 -8 64 -4l16 28q28 64 64 104q164 -60 80 -184z" />
    <glyph glyph-name="Cacute" unicode="&#x106;" horiz-adv-x="1045" 
d="M472 1652l-12 -28l-24 -28l-28 -48h-24q-76 8 -124 4l-12 -4q-36 0 -64 -8q-24 -32 -32 -64q-128 -128 -84 -272l-8 -4l-32 -28q-48 -144 8 -268q-24 -12 -36 -32v-244q28 -52 44 -68q-60 -76 0 -152q4 -48 20 -80q224 -500 716 -252q20 44 16 80q84 8 104 88l-4 116
l-32 20q-8 4 -24 20q-36 20 -60 40l-8 4q-32 24 -56 36q-44 -28 -40 -76q-24 -44 -20 -88q-24 8 -40 4q-156 -88 -316 -56l-8 20q-12 52 -36 88q-12 80 -60 132l24 28l-4 16v96l4 12v96l-28 52q44 48 48 108q16 92 -16 168q24 12 40 24l12 44l44 72l20 24l36 52h24
q80 -40 160 -20l8 -8l24 -16q32 -28 48 -52l12 -16l20 -24q32 -20 52 -40q56 -12 104 12q12 40 12 76q-68 136 -176 216q68 164 -100 248h-76zM604 1440q0 -24 8 -44q124 -88 176 -208l-4 -16l-32 -4l-60 52l-12 16l-12 16q-48 52 -88 76q-48 0 -80 -8q-88 32 -156 28
q-16 -16 -20 -32l-20 -28l-12 -16l-16 -16l-8 -12l-12 -20q-24 -56 -44 -88q-40 8 -64 -16q64 -132 28 -256q-60 -16 -64 -40l8 -16q28 -32 44 -60q0 -12 4 -16v-48l-4 -12v-120q-28 -20 -36 -48q60 -64 76 -140v-12l28 -48q12 -36 16 -64l16 -24q208 -44 372 52
q48 -28 88 -16l4 20q-32 72 0 136q8 -4 28 -20l32 -20l8 -8l56 -40q0 -64 -36 -112q-48 36 -92 16v-32q24 -36 16 -72q-440 -212 -624 224q-20 40 -20 72v12q-24 44 -32 76q36 20 56 52l-20 24q-36 36 -52 72v192q48 -8 72 24q-100 136 -40 276q52 -16 72 24q-88 116 4 216
l4 12q40 52 56 96l20 4l92 4q28 -8 52 -4q36 -8 64 -4l16 28q28 64 64 104q164 -60 80 -184z" />
    <glyph glyph-name="cacute" unicode="&#xe6;" horiz-adv-x="1006" 
d="M472 1652l-12 -28l-24 -28l-28 -48h-24q-76 8 -124 4l-12 -4q-36 0 -64 -8q-24 -32 -32 -64q-128 -128 -84 -272l-8 -4l-32 -28q-48 -144 8 -268q-24 -12 -36 -32v-244q28 -52 44 -68q-60 -76 0 -152q4 -48 20 -80q224 -500 716 -252q20 44 16 80q84 8 104 88l-4 116
l-32 20q-8 4 -24 20q-36 20 -60 40l-8 4q-32 24 -56 36q-44 -28 -40 -76q-24 -44 -20 -88q-24 8 -40 4q-156 -88 -316 -56l-8 20q-12 52 -36 88q-12 80 -60 132l24 28l-4 16v96l4 12v96l-28 52q44 48 48 108q16 92 -16 168q24 12 40 24l12 44l44 72l20 24l36 52h24
q80 -40 160 -20l8 -8l24 -16q32 -28 48 -52l12 -16l20 -24q32 -20 52 -40q56 -12 104 12q12 40 12 76q-68 136 -176 216q68 164 -100 248h-76zM604 1440q0 -24 8 -44q124 -88 176 -208l-4 -16l-32 -4l-60 52l-12 16l-12 16q-48 52 -88 76q-48 0 -80 -8q-88 32 -156 28
q-16 -16 -20 -32l-20 -28l-12 -16l-16 -16l-8 -12l-12 -20q-24 -56 -44 -88q-40 8 -64 -16q64 -132 28 -256q-60 -16 -64 -40l8 -16q28 -32 44 -60q0 -12 4 -16v-48l-4 -12v-120q-28 -20 -36 -48q60 -64 76 -140v-12l28 -48q12 -36 16 -64l16 -24q208 -44 372 52
q48 -28 88 -16l4 20q-32 72 0 136q8 -4 28 -20l32 -20l8 -8l56 -40q0 -64 -36 -112q-48 36 -92 16v-32q24 -36 16 -72q-440 -212 -624 224q-20 40 -20 72v12q-24 44 -32 76q36 20 56 52l-20 24q-36 36 -52 72v192q48 -8 72 24q-100 136 -40 276q52 -16 72 24q-88 116 4 216
l4 12q40 52 56 96l20 4l92 4q28 -8 52 -4q36 -8 64 -4l16 28q28 64 64 104q164 -60 80 -184z" />
    <glyph glyph-name="cacute" unicode="&#x107;" horiz-adv-x="1006" 
d="M472 1652l-12 -28l-24 -28l-28 -48h-24q-76 8 -124 4l-12 -4q-36 0 -64 -8q-24 -32 -32 -64q-128 -128 -84 -272l-8 -4l-32 -28q-48 -144 8 -268q-24 -12 -36 -32v-244q28 -52 44 -68q-60 -76 0 -152q4 -48 20 -80q224 -500 716 -252q20 44 16 80q84 8 104 88l-4 116
l-32 20q-8 4 -24 20q-36 20 -60 40l-8 4q-32 24 -56 36q-44 -28 -40 -76q-24 -44 -20 -88q-24 8 -40 4q-156 -88 -316 -56l-8 20q-12 52 -36 88q-12 80 -60 132l24 28l-4 16v96l4 12v96l-28 52q44 48 48 108q16 92 -16 168q24 12 40 24l12 44l44 72l20 24l36 52h24
q80 -40 160 -20l8 -8l24 -16q32 -28 48 -52l12 -16l20 -24q32 -20 52 -40q56 -12 104 12q12 40 12 76q-68 136 -176 216q68 164 -100 248h-76zM604 1440q0 -24 8 -44q124 -88 176 -208l-4 -16l-32 -4l-60 52l-12 16l-12 16q-48 52 -88 76q-48 0 -80 -8q-88 32 -156 28
q-16 -16 -20 -32l-20 -28l-12 -16l-16 -16l-8 -12l-12 -20q-24 -56 -44 -88q-40 8 -64 -16q64 -132 28 -256q-60 -16 -64 -40l8 -16q28 -32 44 -60q0 -12 4 -16v-48l-4 -12v-120q-28 -20 -36 -48q60 -64 76 -140v-12l28 -48q12 -36 16 -64l16 -24q208 -44 372 52
q48 -28 88 -16l4 20q-32 72 0 136q8 -4 28 -20l32 -20l8 -8l56 -40q0 -64 -36 -112q-48 36 -92 16v-32q24 -36 16 -72q-440 -212 -624 224q-20 40 -20 72v12q-24 44 -32 76q36 20 56 52l-20 24q-36 36 -52 72v192q48 -8 72 24q-100 136 -40 276q52 -16 72 24q-88 116 4 216
l4 12q40 52 56 96l20 4l92 4q28 -8 52 -4q36 -8 64 -4l16 28q28 64 64 104q164 -60 80 -184z" />
    <glyph glyph-name="Eogonek" unicode="&#xca;" horiz-adv-x="1110" 
d="M161 1550l-36 -72q-116 -120 -68 -264q-24 -16 -40 -32q-40 -160 28 -288q-132 -64 -24 -192q0 -80 44 -140q-28 -28 -40 -56q8 -72 44 -128q36 -160 132 -264q128 -120 284 -136q64 -112 160 -164q264 -40 248 108q-24 16 -36 32q-36 64 -84 96q52 48 44 112l48 16
q156 236 -72 352q-80 -4 -96 -80q-36 -72 -32 -140h-32q-152 -112 -312 -56l-28 44l-16 48q-8 84 -60 140q52 44 24 148l12 4h452q96 -4 156 8q24 48 12 96q32 24 48 48v44q-4 24 -4 40q4 40 -4 68q0 28 -4 48v12l-12 48q-16 28 -32 44q32 40 28 84q-20 64 -48 104
q-36 140 -136 216q-88 228 -440 188q-80 -56 -108 -136zM661 1466q112 -84 132 -204q8 -12 20 -32q20 -36 28 -64l-8 -28q-36 -8 -48 -36l4 -8q12 -20 24 -24l32 -36l12 -56q0 -40 8 -60l-4 -12q8 -60 4 -100q-44 4 -68 -24q28 -48 24 -92h-616l-12 -12q-12 -76 4 -136
q-52 -8 -56 -52q36 -32 52 -60l20 -40q16 -104 72 -172q0 -12 8 -20q204 -52 360 60q48 -32 88 -12l4 20q-56 92 20 208l16 4q160 -88 48 -260q-48 20 -84 4l-4 -16q24 -44 24 -84q-52 -44 -72 -80l12 -16q84 -40 116 -120l20 -16l-8 -8q-192 -92 -320 148q-344 52 -396 380
q-32 40 -40 84l8 16q52 4 56 44q-68 76 -68 168q-40 48 -48 100q48 24 92 28l8 28q-104 132 -56 280q44 -20 72 8l-4 24q-96 140 32 248q0 4 8 24l12 24l16 28l24 64l8 4q28 32 56 52q304 36 368 -168zM385 1478q-24 -32 -44 -48l-4 -12l-16 -28q-16 -44 -32 -72
q-64 -76 -80 -156q-80 -4 -72 -40q72 -124 36 -252l8 -28l24 -8h468q52 -4 88 4l8 20q-20 48 -24 84l-4 100q-16 64 44 84l4 20l-8 12q-36 32 -56 64l-20 52q-4 24 -16 40l-32 92q-4 36 -20 60l-48 16l-28 4l-56 4h-72q-32 -4 -48 -12zM489 1438l12 -4h32l12 -4q28 0 52 -8
l4 -16l16 -44l4 -16l12 -28q12 -44 24 -68q12 -52 36 -84l20 -16q-36 -40 -32 -88q4 -8 8 -28v-44l4 -8l4 -92h-460l-4 8q16 112 -20 200q24 12 40 24q24 100 80 164l16 28q28 72 72 120q20 0 32 4h36z" />
    <glyph glyph-name="Eogonek" unicode="&#x118;" horiz-adv-x="1110" 
d="M161 1550l-36 -72q-116 -120 -68 -264q-24 -16 -40 -32q-40 -160 28 -288q-132 -64 -24 -192q0 -80 44 -140q-28 -28 -40 -56q8 -72 44 -128q36 -160 132 -264q128 -120 284 -136q64 -112 160 -164q264 -40 248 108q-24 16 -36 32q-36 64 -84 96q52 48 44 112l48 16
q156 236 -72 352q-80 -4 -96 -80q-36 -72 -32 -140h-32q-152 -112 -312 -56l-28 44l-16 48q-8 84 -60 140q52 44 24 148l12 4h452q96 -4 156 8q24 48 12 96q32 24 48 48v44q-4 24 -4 40q4 40 -4 68q0 28 -4 48v12l-12 48q-16 28 -32 44q32 40 28 84q-20 64 -48 104
q-36 140 -136 216q-88 228 -440 188q-80 -56 -108 -136zM661 1466q112 -84 132 -204q8 -12 20 -32q20 -36 28 -64l-8 -28q-36 -8 -48 -36l4 -8q12 -20 24 -24l32 -36l12 -56q0 -40 8 -60l-4 -12q8 -60 4 -100q-44 4 -68 -24q28 -48 24 -92h-616l-12 -12q-12 -76 4 -136
q-52 -8 -56 -52q36 -32 52 -60l20 -40q16 -104 72 -172q0 -12 8 -20q204 -52 360 60q48 -32 88 -12l4 20q-56 92 20 208l16 4q160 -88 48 -260q-48 20 -84 4l-4 -16q24 -44 24 -84q-52 -44 -72 -80l12 -16q84 -40 116 -120l20 -16l-8 -8q-192 -92 -320 148q-344 52 -396 380
q-32 40 -40 84l8 16q52 4 56 44q-68 76 -68 168q-40 48 -48 100q48 24 92 28l8 28q-104 132 -56 280q44 -20 72 8l-4 24q-96 140 32 248q0 4 8 24l12 24l16 28l24 64l8 4q28 32 56 52q304 36 368 -168zM385 1478q-24 -32 -44 -48l-4 -12l-16 -28q-16 -44 -32 -72
q-64 -76 -80 -156q-80 -4 -72 -40q72 -124 36 -252l8 -28l24 -8h468q52 -4 88 4l8 20q-20 48 -24 84l-4 100q-16 64 44 84l4 20l-8 12q-36 32 -56 64l-20 52q-4 24 -16 40l-32 92q-4 36 -20 60l-48 16l-28 4l-56 4h-72q-32 -4 -48 -12zM489 1438l12 -4h32l12 -4q28 0 52 -8
l4 -16l16 -44l4 -16l12 -28q12 -44 24 -68q12 -52 36 -84l20 -16q-36 -40 -32 -88q4 -8 8 -28v-44l4 -8l4 -92h-460l-4 8q16 112 -20 200q24 12 40 24q24 100 80 164l16 28q28 72 72 120q20 0 32 4h36z" />
    <glyph glyph-name="eogonek" unicode="&#xea;" horiz-adv-x="1182" 
d="M161 1550l-36 -72q-116 -120 -68 -264q-24 -16 -40 -32q-40 -160 28 -288q-132 -64 -24 -192q0 -80 44 -140q-28 -28 -40 -56q8 -72 44 -128q36 -160 132 -264q128 -120 284 -136q64 -112 160 -164q264 -40 248 108q-24 16 -36 32q-36 64 -84 96q52 48 44 112l48 16
q156 236 -72 352q-80 -4 -96 -80q-36 -72 -32 -140h-32q-152 -112 -312 -56l-28 44l-16 48q-8 84 -60 140q52 44 24 148l12 4h452q96 -4 156 8q24 48 12 96q32 24 48 48v44q-4 24 -4 40q4 40 -4 68q0 28 -4 48v12l-12 48q-16 28 -32 44q32 40 28 84q-20 64 -48 104
q-36 140 -136 216q-88 228 -440 188q-80 -56 -108 -136zM661 1466q112 -84 132 -204q8 -12 20 -32q20 -36 28 -64l-8 -28q-36 -8 -48 -36l4 -8q12 -20 24 -24l32 -36l12 -56q0 -40 8 -60l-4 -12q8 -60 4 -100q-44 4 -68 -24q28 -48 24 -92h-616l-12 -12q-12 -76 4 -136
q-52 -8 -56 -52q36 -32 52 -60l20 -40q16 -104 72 -172q0 -12 8 -20q204 -52 360 60q48 -32 88 -12l4 20q-56 92 20 208l16 4q160 -88 48 -260q-48 20 -84 4l-4 -16q24 -44 24 -84q-52 -44 -72 -80l12 -16q84 -40 116 -120l20 -16l-8 -8q-192 -92 -320 148q-344 52 -396 380
q-32 40 -40 84l8 16q52 4 56 44q-68 76 -68 168q-40 48 -48 100q48 24 92 28l8 28q-104 132 -56 280q44 -20 72 8l-4 24q-96 140 32 248q0 4 8 24l12 24l16 28l24 64l8 4q28 32 56 52q304 36 368 -168zM385 1478q-24 -32 -44 -48l-4 -12l-16 -28q-16 -44 -32 -72
q-64 -76 -80 -156q-80 -4 -72 -40q72 -124 36 -252l8 -28l24 -8h468q52 -4 88 4l8 20q-20 48 -24 84l-4 100q-16 64 44 84l4 20l-8 12q-36 32 -56 64l-20 52q-4 24 -16 40l-32 92q-4 36 -20 60l-48 16l-28 4l-56 4h-72q-32 -4 -48 -12zM489 1438l12 -4h32l12 -4q28 0 52 -8
l4 -16l16 -44l4 -16l12 -28q12 -44 24 -68q12 -52 36 -84l20 -16q-36 -40 -32 -88q4 -8 8 -28v-44l4 -8l4 -92h-460l-4 8q16 112 -20 200q24 12 40 24q24 100 80 164l16 28q28 72 72 120q20 0 32 4h36z" />
    <glyph glyph-name="eogonek" unicode="&#x119;" horiz-adv-x="1182" 
d="M161 1550l-36 -72q-116 -120 -68 -264q-24 -16 -40 -32q-40 -160 28 -288q-132 -64 -24 -192q0 -80 44 -140q-28 -28 -40 -56q8 -72 44 -128q36 -160 132 -264q128 -120 284 -136q64 -112 160 -164q264 -40 248 108q-24 16 -36 32q-36 64 -84 96q52 48 44 112l48 16
q156 236 -72 352q-80 -4 -96 -80q-36 -72 -32 -140h-32q-152 -112 -312 -56l-28 44l-16 48q-8 84 -60 140q52 44 24 148l12 4h452q96 -4 156 8q24 48 12 96q32 24 48 48v44q-4 24 -4 40q4 40 -4 68q0 28 -4 48v12l-12 48q-16 28 -32 44q32 40 28 84q-20 64 -48 104
q-36 140 -136 216q-88 228 -440 188q-80 -56 -108 -136zM661 1466q112 -84 132 -204q8 -12 20 -32q20 -36 28 -64l-8 -28q-36 -8 -48 -36l4 -8q12 -20 24 -24l32 -36l12 -56q0 -40 8 -60l-4 -12q8 -60 4 -100q-44 4 -68 -24q28 -48 24 -92h-616l-12 -12q-12 -76 4 -136
q-52 -8 -56 -52q36 -32 52 -60l20 -40q16 -104 72 -172q0 -12 8 -20q204 -52 360 60q48 -32 88 -12l4 20q-56 92 20 208l16 4q160 -88 48 -260q-48 20 -84 4l-4 -16q24 -44 24 -84q-52 -44 -72 -80l12 -16q84 -40 116 -120l20 -16l-8 -8q-192 -92 -320 148q-344 52 -396 380
q-32 40 -40 84l8 16q52 4 56 44q-68 76 -68 168q-40 48 -48 100q48 24 92 28l8 28q-104 132 -56 280q44 -20 72 8l-4 24q-96 140 32 248q0 4 8 24l12 24l16 28l24 64l8 4q28 32 56 52q304 36 368 -168zM385 1478q-24 -32 -44 -48l-4 -12l-16 -28q-16 -44 -32 -72
q-64 -76 -80 -156q-80 -4 -72 -40q72 -124 36 -252l8 -28l24 -8h468q52 -4 88 4l8 20q-20 48 -24 84l-4 100q-16 64 44 84l4 20l-8 12q-36 32 -56 64l-20 52q-4 24 -16 40l-32 92q-4 36 -20 60l-48 16l-28 4l-56 4h-72q-32 -4 -48 -12zM489 1438l12 -4h32l12 -4q28 0 52 -8
l4 -16l16 -44l4 -16l12 -28q12 -44 24 -68q12 -52 36 -84l20 -16q-36 -40 -32 -88q4 -8 8 -28v-44l4 -8l4 -92h-460l-4 8q16 112 -20 200q24 12 40 24q24 100 80 164l16 28q28 72 72 120q20 0 32 4h36z" />
    <glyph glyph-name="Lslash" unicode="&#xa3;" horiz-adv-x="724" 
d="M4 1600q44 -204 236 -208l-4 -16l-4 -40q-8 -44 -8 -72l-4 -20v-16q0 -24 -4 -60l-4 -28q-4 -60 -4 -100q16 -20 24 -40l-12 -4q-24 -12 -44 -16q-44 -8 -68 -16q-28 -48 -24 -92l8 -4q36 -88 108 -132l28 -52l-8 -8l-20 -24l4 -244q16 -32 32 -48q-48 -48 -40 -112
l-16 -4h-144q-52 -52 -36 -116q48 -84 112 -128h472q8 12 16 16q16 208 -184 228l-8 8l-16 28q52 100 28 200q0 68 -32 116l28 20v12l8 32v104l12 8l64 20q12 0 16 4q24 4 32 8t28 4l20 4l72 16v48l-16 32q-12 20 -16 32l-16 24l-4 8q-24 64 -56 100h-28l-8 -4l-84 -4v12
l4 20l4 16v32l8 28l4 28l4 28l4 28l4 44l-4 44v40l-4 12l-8 116l-12 16q-28 60 -68 96l-48 20h-296q-20 -20 -28 -44zM312 1596l36 -20l8 -8l12 -16l36 -60l4 -68q0 -36 8 -60q0 -88 -8 -120q0 -56 -16 -92l4 -24q-12 -60 -8 -112l16 -12h28l100 12q24 -40 36 -68
q12 -20 16 -32l28 -44l-28 -8q-120 -12 -212 -68l-4 -12l4 -12v-112l-12 -16q-48 8 -52 -36q64 -68 56 -148q16 -72 0 -128q-48 0 -52 -44q44 -44 64 -92q152 -8 176 -140l-28 -4l-384 -4q-64 44 -92 108l8 32h84q60 -4 100 8l12 12q-8 56 4 100q36 12 56 28l-4 24l-28 28
q-12 24 -24 36v52l-4 16v136q52 -4 60 40q-48 48 -68 100q-76 56 -108 124l4 20l8 8h12q24 8 44 8q44 24 84 28l16 24v12q-36 44 -44 84l4 28q0 32 4 56l4 16l4 108l4 12l4 28l8 56q8 32 4 60l-24 12q-176 -20 -212 144h252z" />
    <glyph glyph-name="Lslash" unicode="&#x141;" horiz-adv-x="724" 
d="M4 1600q44 -204 236 -208l-4 -16l-4 -40q-8 -44 -8 -72l-4 -20v-16q0 -24 -4 -60l-4 -28q-4 -60 -4 -100q16 -20 24 -40l-12 -4q-24 -12 -44 -16q-44 -8 -68 -16q-28 -48 -24 -92l8 -4q36 -88 108 -132l28 -52l-8 -8l-20 -24l4 -244q16 -32 32 -48q-48 -48 -40 -112
l-16 -4h-144q-52 -52 -36 -116q48 -84 112 -128h472q8 12 16 16q16 208 -184 228l-8 8l-16 28q52 100 28 200q0 68 -32 116l28 20v12l8 32v104l12 8l64 20q12 0 16 4q24 4 32 8t28 4l20 4l72 16v48l-16 32q-12 20 -16 32l-16 24l-4 8q-24 64 -56 100h-28l-8 -4l-84 -4v12
l4 20l4 16v32l8 28l4 28l4 28l4 28l4 44l-4 44v40l-4 12l-8 116l-12 16q-28 60 -68 96l-48 20h-296q-20 -20 -28 -44zM312 1596l36 -20l8 -8l12 -16l36 -60l4 -68q0 -36 8 -60q0 -88 -8 -120q0 -56 -16 -92l4 -24q-12 -60 -8 -112l16 -12h28l100 12q24 -40 36 -68
q12 -20 16 -32l28 -44l-28 -8q-120 -12 -212 -68l-4 -12l4 -12v-112l-12 -16q-48 8 -52 -36q64 -68 56 -148q16 -72 0 -128q-48 0 -52 -44q44 -44 64 -92q152 -8 176 -140l-28 -4l-384 -4q-64 44 -92 108l8 32h84q60 -4 100 8l12 12q-8 56 4 100q36 12 56 28l-4 24l-28 28
q-12 24 -24 36v52l-4 16v136q52 -4 60 40q-48 48 -68 100q-76 56 -108 124l4 20l8 8h12q24 8 44 8q44 24 84 28l16 24v12q-36 44 -44 84l4 28q0 32 4 56l4 16l4 108l4 12l4 28l8 56q8 32 4 60l-24 12q-176 -20 -212 144h252z" />
    <glyph glyph-name="lslash" unicode="&#xb3;" horiz-adv-x="751" 
d="M4 1600q44 -204 236 -208l-4 -16l-4 -40q-8 -44 -8 -72l-4 -20v-16q0 -24 -4 -60l-4 -28q-4 -60 -4 -100q16 -20 24 -40l-12 -4q-24 -12 -44 -16q-44 -8 -68 -16q-28 -48 -24 -92l8 -4q36 -88 108 -132l28 -52l-8 -8l-20 -24l4 -244q16 -32 32 -48q-48 -48 -40 -112
l-16 -4h-144q-52 -52 -36 -116q48 -84 112 -128h472q8 12 16 16q16 208 -184 228l-8 8l-16 28q52 100 28 200q0 68 -32 116l28 20v12l8 32v104l12 8l64 20q12 0 16 4q24 4 32 8t28 4l20 4l72 16v48l-16 32q-12 20 -16 32l-16 24l-4 8q-24 64 -56 100h-28l-8 -4l-84 -4v12
l4 20l4 16v32l8 28l4 28l4 28l4 28l4 44l-4 44v40l-4 12l-8 116l-12 16q-28 60 -68 96l-48 20h-296q-20 -20 -28 -44zM312 1596l36 -20l8 -8l12 -16l36 -60l4 -68q0 -36 8 -60q0 -88 -8 -120q0 -56 -16 -92l4 -24q-12 -60 -8 -112l16 -12h28l100 12q24 -40 36 -68
q12 -20 16 -32l28 -44l-28 -8q-120 -12 -212 -68l-4 -12l4 -12v-112l-12 -16q-48 8 -52 -36q64 -68 56 -148q16 -72 0 -128q-48 0 -52 -44q44 -44 64 -92q152 -8 176 -140l-28 -4l-384 -4q-64 44 -92 108l8 32h84q60 -4 100 8l12 12q-8 56 4 100q36 12 56 28l-4 24l-28 28
q-12 24 -24 36v52l-4 16v136q52 -4 60 40q-48 48 -68 100q-76 56 -108 124l4 20l8 8h12q24 8 44 8q44 24 84 28l16 24v12q-36 44 -44 84l4 28q0 32 4 56l4 16l4 108l4 12l4 28l8 56q8 32 4 60l-24 12q-176 -20 -212 144h252z" />
    <glyph glyph-name="lslash" unicode="&#x142;" horiz-adv-x="751" 
d="M4 1600q44 -204 236 -208l-4 -16l-4 -40q-8 -44 -8 -72l-4 -20v-16q0 -24 -4 -60l-4 -28q-4 -60 -4 -100q16 -20 24 -40l-12 -4q-24 -12 -44 -16q-44 -8 -68 -16q-28 -48 -24 -92l8 -4q36 -88 108 -132l28 -52l-8 -8l-20 -24l4 -244q16 -32 32 -48q-48 -48 -40 -112
l-16 -4h-144q-52 -52 -36 -116q48 -84 112 -128h472q8 12 16 16q16 208 -184 228l-8 8l-16 28q52 100 28 200q0 68 -32 116l28 20v12l8 32v104l12 8l64 20q12 0 16 4q24 4 32 8t28 4l20 4l72 16v48l-16 32q-12 20 -16 32l-16 24l-4 8q-24 64 -56 100h-28l-8 -4l-84 -4v12
l4 20l4 16v32l8 28l4 28l4 28l4 28l4 44l-4 44v40l-4 12l-8 116l-12 16q-28 60 -68 96l-48 20h-296q-20 -20 -28 -44zM312 1596l36 -20l8 -8l12 -16l36 -60l4 -68q0 -36 8 -60q0 -88 -8 -120q0 -56 -16 -92l4 -24q-12 -60 -8 -112l16 -12h28l100 12q24 -40 36 -68
q12 -20 16 -32l28 -44l-28 -8q-120 -12 -212 -68l-4 -12l4 -12v-112l-12 -16q-48 8 -52 -36q64 -68 56 -148q16 -72 0 -128q-48 0 -52 -44q44 -44 64 -92q152 -8 176 -140l-28 -4l-384 -4q-64 44 -92 108l8 32h84q60 -4 100 8l12 12q-8 56 4 100q36 12 56 28l-4 24l-28 28
q-12 24 -24 36v52l-4 16v136q52 -4 60 40q-48 48 -68 100q-76 56 -108 124l4 20l8 8h12q24 8 44 8q44 24 84 28l16 24v12q-36 44 -44 84l4 28q0 32 4 56l4 16l4 108l4 12l4 28l8 56q8 32 4 60l-24 12q-176 -20 -212 144h252z" />
    <glyph glyph-name="Nacute" unicode="&#xd1;" horiz-adv-x="1096" 
d="M464 1800q-32 -68 4 -128l-44 -24q-32 -16 -52 -32q-48 -36 -84 -48q-80 92 -188 96q-28 -32 -36 -64l-16 -16q-32 -28 -48 -52q-4 -116 68 -188q-4 -16 -4 -40q8 -36 4 -64v-456q8 -40 32 -64l-32 -40q0 -12 -4 -16l4 -44q0 -144 8 -192l8 -8l16 -28q-20 -16 -28 -36
q-8 -36 -8 -64v-12l4 -32l4 -88l4 -32l8 -28l8 -8q12 -32 40 -56q148 -96 160 36q20 124 -28 228l-8 8l28 24q44 168 -32 296q24 8 36 28l4 504q96 72 144 160l16 4l44 28q24 12 40 24l84 48l24 -12q-16 -52 4 -96l52 -188l28 -44q-44 -68 -20 -140q-8 -96 32 -172
q-32 -24 -36 -52l4 -8q-8 -40 -4 -72v-20q0 -32 -4 -80l-4 -32v-72q0 -24 -4 -40v-108l-4 -28v-88l4 -8q36 -20 52 -36l36 -20q20 -20 36 -28q36 -20 56 -40h24l16 12l4 100l4 32v132q8 48 4 80v252l-24 36q16 8 24 20q40 180 -44 312q20 12 28 28q8 228 -140 368
q28 124 -68 196l8 8l32 20l12 4q40 36 76 48q20 60 12 108q-64 136 -196 128zM788 1732l-76 -48l-8 -8q-48 -20 -76 -52l8 -36q116 -72 76 -192q148 -144 140 -328q-44 -8 -48 -44q108 -124 72 -284q-52 0 -60 -44l8 -8q32 -32 48 -56l4 -124q0 -40 -4 -68v-60l-4 -12v-136
q0 -12 -4 -16v-52q-8 -28 -4 -48l-28 20l-24 20q-44 24 -68 44v56l4 20v100l4 28l4 172l4 12l4 128q40 8 56 36q-68 104 -56 208q-8 40 -4 72q52 12 52 52q-80 72 -80 172l-20 56q-16 36 -20 68q12 20 16 44q-32 36 -64 56q-24 0 -44 -8l-108 -60l-8 -8l-28 -16
q-20 -12 -32 -16l-28 -12l-20 -36q-24 -48 -56 -76l-8 -8l-64 -48l-4 -24v-476l-8 -12q-44 4 -56 -32q96 -132 64 -280q-40 -8 -60 -28v-16q96 -128 56 -268q-156 28 -112 288l52 16l8 20q-52 52 -64 112v68q4 60 0 100q48 0 64 36l-20 24l-20 24l-24 44v400q0 32 4 84
q-8 52 -4 92q-60 64 -72 140l16 20q28 32 52 44l12 44q92 -36 140 -104q84 20 144 72l12 4l44 28q48 8 72 36l-4 24q-36 40 -32 88l12 12q32 16 52 36l36 20l64 48q120 -32 120 -144z" />
    <glyph glyph-name="Nacute" unicode="&#x143;" horiz-adv-x="1096" 
d="M464 1800q-32 -68 4 -128l-44 -24q-32 -16 -52 -32q-48 -36 -84 -48q-80 92 -188 96q-28 -32 -36 -64l-16 -16q-32 -28 -48 -52q-4 -116 68 -188q-4 -16 -4 -40q8 -36 4 -64v-456q8 -40 32 -64l-32 -40q0 -12 -4 -16l4 -44q0 -144 8 -192l8 -8l16 -28q-20 -16 -28 -36
q-8 -36 -8 -64v-12l4 -32l4 -88l4 -32l8 -28l8 -8q12 -32 40 -56q148 -96 160 36q20 124 -28 228l-8 8l28 24q44 168 -32 296q24 8 36 28l4 504q96 72 144 160l16 4l44 28q24 12 40 24l84 48l24 -12q-16 -52 4 -96l52 -188l28 -44q-44 -68 -20 -140q-8 -96 32 -172
q-32 -24 -36 -52l4 -8q-8 -40 -4 -72v-20q0 -32 -4 -80l-4 -32v-72q0 -24 -4 -40v-108l-4 -28v-88l4 -8q36 -20 52 -36l36 -20q20 -20 36 -28q36 -20 56 -40h24l16 12l4 100l4 32v132q8 48 4 80v252l-24 36q16 8 24 20q40 180 -44 312q20 12 28 28q8 228 -140 368
q28 124 -68 196l8 8l32 20l12 4q40 36 76 48q20 60 12 108q-64 136 -196 128zM788 1732l-76 -48l-8 -8q-48 -20 -76 -52l8 -36q116 -72 76 -192q148 -144 140 -328q-44 -8 -48 -44q108 -124 72 -284q-52 0 -60 -44l8 -8q32 -32 48 -56l4 -124q0 -40 -4 -68v-60l-4 -12v-136
q0 -12 -4 -16v-52q-8 -28 -4 -48l-28 20l-24 20q-44 24 -68 44v56l4 20v100l4 28l4 172l4 12l4 128q40 8 56 36q-68 104 -56 208q-8 40 -4 72q52 12 52 52q-80 72 -80 172l-20 56q-16 36 -20 68q12 20 16 44q-32 36 -64 56q-24 0 -44 -8l-108 -60l-8 -8l-28 -16
q-20 -12 -32 -16l-28 -12l-20 -36q-24 -48 -56 -76l-8 -8l-64 -48l-4 -24v-476l-8 -12q-44 4 -56 -32q96 -132 64 -280q-40 -8 -60 -28v-16q96 -128 56 -268q-156 28 -112 288l52 16l8 20q-52 52 -64 112v68q4 60 0 100q48 0 64 36l-20 24l-20 24l-24 44v400q0 32 4 84
q-8 52 -4 92q-60 64 -72 140l16 20q28 32 52 44l12 44q92 -36 140 -104q84 20 144 72l12 4l44 28q48 8 72 36l-4 24q-36 40 -32 88l12 12q32 16 52 36l36 20l64 48q120 -32 120 -144z" />
    <glyph glyph-name="nacute" unicode="&#xf1;" horiz-adv-x="1096" 
d="M464 1800q-32 -68 4 -128l-44 -24q-32 -16 -52 -32q-48 -36 -84 -48q-80 92 -188 96q-28 -32 -36 -64l-16 -16q-32 -28 -48 -52q-4 -116 68 -188q-4 -16 -4 -40q8 -36 4 -64v-456q8 -40 32 -64l-32 -40q0 -12 -4 -16l4 -44q0 -144 8 -192l8 -8l16 -28q-20 -16 -28 -36
q-8 -36 -8 -64v-12l4 -32l4 -88l4 -32l8 -28l8 -8q12 -32 40 -56q148 -96 160 36q20 124 -28 228l-8 8l28 24q44 168 -32 296q24 8 36 28l4 504q96 72 144 160l16 4l44 28q24 12 40 24l84 48l24 -12q-16 -52 4 -96l52 -188l28 -44q-44 -68 -20 -140q-8 -96 32 -172
q-32 -24 -36 -52l4 -8q-8 -40 -4 -72v-20q0 -32 -4 -80l-4 -32v-72q0 -24 -4 -40v-108l-4 -28v-88l4 -8q36 -20 52 -36l36 -20q20 -20 36 -28q36 -20 56 -40h24l16 12l4 100l4 32v132q8 48 4 80v252l-24 36q16 8 24 20q40 180 -44 312q20 12 28 28q8 228 -140 368
q28 124 -68 196l8 8l32 20l12 4q40 36 76 48q20 60 12 108q-64 136 -196 128zM788 1732l-76 -48l-8 -8q-48 -20 -76 -52l8 -36q116 -72 76 -192q148 -144 140 -328q-44 -8 -48 -44q108 -124 72 -284q-52 0 -60 -44l8 -8q32 -32 48 -56l4 -124q0 -40 -4 -68v-60l-4 -12v-136
q0 -12 -4 -16v-52q-8 -28 -4 -48l-28 20l-24 20q-44 24 -68 44v56l4 20v100l4 28l4 172l4 12l4 128q40 8 56 36q-68 104 -56 208q-8 40 -4 72q52 12 52 52q-80 72 -80 172l-20 56q-16 36 -20 68q12 20 16 44q-32 36 -64 56q-24 0 -44 -8l-108 -60l-8 -8l-28 -16
q-20 -12 -32 -16l-28 -12l-20 -36q-24 -48 -56 -76l-8 -8l-64 -48l-4 -24v-476l-8 -12q-44 4 -56 -32q96 -132 64 -280q-40 -8 -60 -28v-16q96 -128 56 -268q-156 28 -112 288l52 16l8 20q-52 52 -64 112v68q4 60 0 100q48 0 64 36l-20 24l-20 24l-24 44v400q0 32 4 84
q-8 52 -4 92q-60 64 -72 140l16 20q28 32 52 44l12 44q92 -36 140 -104q84 20 144 72l12 4l44 28q48 8 72 36l-4 24q-36 40 -32 88l12 12q32 16 52 36l36 20l64 48q120 -32 120 -144z" />
    <glyph glyph-name="nacute" unicode="&#x144;" horiz-adv-x="1096" 
d="M464 1800q-32 -68 4 -128l-44 -24q-32 -16 -52 -32q-48 -36 -84 -48q-80 92 -188 96q-28 -32 -36 -64l-16 -16q-32 -28 -48 -52q-4 -116 68 -188q-4 -16 -4 -40q8 -36 4 -64v-456q8 -40 32 -64l-32 -40q0 -12 -4 -16l4 -44q0 -144 8 -192l8 -8l16 -28q-20 -16 -28 -36
q-8 -36 -8 -64v-12l4 -32l4 -88l4 -32l8 -28l8 -8q12 -32 40 -56q148 -96 160 36q20 124 -28 228l-8 8l28 24q44 168 -32 296q24 8 36 28l4 504q96 72 144 160l16 4l44 28q24 12 40 24l84 48l24 -12q-16 -52 4 -96l52 -188l28 -44q-44 -68 -20 -140q-8 -96 32 -172
q-32 -24 -36 -52l4 -8q-8 -40 -4 -72v-20q0 -32 -4 -80l-4 -32v-72q0 -24 -4 -40v-108l-4 -28v-88l4 -8q36 -20 52 -36l36 -20q20 -20 36 -28q36 -20 56 -40h24l16 12l4 100l4 32v132q8 48 4 80v252l-24 36q16 8 24 20q40 180 -44 312q20 12 28 28q8 228 -140 368
q28 124 -68 196l8 8l32 20l12 4q40 36 76 48q20 60 12 108q-64 136 -196 128zM788 1732l-76 -48l-8 -8q-48 -20 -76 -52l8 -36q116 -72 76 -192q148 -144 140 -328q-44 -8 -48 -44q108 -124 72 -284q-52 0 -60 -44l8 -8q32 -32 48 -56l4 -124q0 -40 -4 -68v-60l-4 -12v-136
q0 -12 -4 -16v-52q-8 -28 -4 -48l-28 20l-24 20q-44 24 -68 44v56l4 20v100l4 28l4 172l4 12l4 128q40 8 56 36q-68 104 -56 208q-8 40 -4 72q52 12 52 52q-80 72 -80 172l-20 56q-16 36 -20 68q12 20 16 44q-32 36 -64 56q-24 0 -44 -8l-108 -60l-8 -8l-28 -16
q-20 -12 -32 -16l-28 -12l-20 -36q-24 -48 -56 -76l-8 -8l-64 -48l-4 -24v-476l-8 -12q-44 4 -56 -32q96 -132 64 -280q-40 -8 -60 -28v-16q96 -128 56 -268q-156 28 -112 288l52 16l8 20q-52 52 -64 112v68q4 60 0 100q48 0 64 36l-20 24l-20 24l-24 44v400q0 32 4 84
q-8 52 -4 92q-60 64 -72 140l16 20q28 32 52 44l12 44q92 -36 140 -104q84 20 144 72l12 4l44 28q48 8 72 36l-4 24q-36 40 -32 88l12 12q32 16 52 36l36 20l64 48q120 -32 120 -144z" />
    <glyph glyph-name="Oacute" unicode="&#xd3;" horiz-adv-x="1095" 
d="M476 1940q-28 -20 -44 -40l-24 -24l-24 -24q-20 -12 -36 -32q-28 -28 -48 -44q-16 -12 -24 -24q-32 -28 -48 -52q0 -52 16 -92l-8 -8l-20 -24q-28 -20 -44 -40q-36 -52 -84 -84q-12 -56 -44 -104l4 -12l-4 -12q-4 -40 -4 -64q-44 -116 4 -212q-40 -48 -44 -104
q-12 -116 36 -204q-24 -16 -36 -40q-28 -204 88 -332q-56 -104 48 -204q72 -148 216 -144l24 -8h12l44 -4l28 -8h144q40 36 64 72q16 4 24 20l40 40q20 20 40 48q36 44 56 80l-12 64q36 20 52 44q60 132 4 248q16 12 24 24q44 176 -40 312q24 20 32 36v76l-4 24l-4 36l-4 16
v16l-4 44v100l-4 8q0 36 -8 64l-36 52l-24 20l-92 84l-24 20q-56 56 -112 80l100 96q28 168 -128 224h-60zM624 1752l-20 -20q-32 -24 -48 -44q-40 -32 -60 -56l4 -28q24 -12 40 -16l8 -8l60 -36q20 -20 32 -28l16 -16q32 -24 48 -44l12 -8l80 -72q4 -20 16 -32v-16l4 -28
l4 -44l16 -248q-44 -12 -56 -44q100 -128 72 -268l-8 -24q-32 4 -52 -24l8 -28q56 -60 48 -136q-8 -64 -40 -104q-40 12 -64 -4l-4 -12q8 -28 20 -48l12 -44l-12 -16l-48 -64l-12 -12l-88 -92q-20 -24 -40 -40l-96 4l-12 4l-24 4q-32 0 -52 8q-136 -8 -192 108
q-68 68 -76 148l28 24l4 -16l16 -12l16 -16l64 -84q32 -8 56 -8l12 -4l56 -8l12 -4h24l48 -8l8 4l12 12q16 24 36 40l20 24l76 76l12 12l40 52q40 -16 72 0q-4 52 -24 88q0 52 16 92q-4 32 4 60l12 12q40 -4 56 24v12q-36 40 -52 80l-8 48v24l-8 64l4 24l4 36l8 8
q24 0 40 12v28l-16 16q-24 16 -36 36l-4 8l-16 60v12l-4 28v72l-4 20q-4 56 0 92q-144 172 -288 64q-204 -128 -212 -344l-4 -8l-12 -64l-60 -24l4 -36q76 -120 40 -248q-40 -8 -56 -36l4 -20q60 -72 52 -160q28 -72 -12 -124q-136 136 -108 312q52 4 64 44
q-104 132 -44 276q32 -4 52 16q-8 32 -28 52l-20 32q-12 80 16 148q0 160 120 240q12 32 40 44q20 36 52 48l4 28q-24 40 -28 76l124 120q12 4 16 12l92 88q116 -40 112 -148zM644 1352l4 -8v-48l4 -24q0 -24 4 -40q-4 -120 44 -212q-52 -168 20 -312q-56 -40 -48 -104
q-24 -72 -12 -136q-24 -8 -52 -36l-28 -36q-12 -20 -32 -36l-68 -68q-24 -32 -40 -48q-24 8 -60 8l-28 8h-12l-32 4l-28 4q-28 52 -64 76q48 160 -24 304q24 24 36 44q20 144 -28 260l36 28l16 64l4 24v28l4 12l4 24l4 28l4 24q20 32 24 56l84 88q20 28 40 44l28 8
q28 28 60 40q80 -16 136 -68z" />
    <glyph glyph-name="oacute" unicode="&#xf3;" horiz-adv-x="1058" 
d="M476 1940q-28 -20 -44 -40l-24 -24l-24 -24q-20 -12 -36 -32q-28 -28 -48 -44q-16 -12 -24 -24q-32 -28 -48 -52q0 -52 16 -92l-8 -8l-20 -24q-28 -20 -44 -40q-36 -52 -84 -84q-12 -56 -44 -104l4 -12l-4 -12q-4 -40 -4 -64q-44 -116 4 -212q-40 -48 -44 -104
q-12 -116 36 -204q-24 -16 -36 -40q-28 -204 88 -332q-56 -104 48 -204q72 -148 216 -144l24 -8h12l44 -4l28 -8h144q40 36 64 72q16 4 24 20l40 40q20 20 40 48q36 44 56 80l-12 64q36 20 52 44q60 132 4 248q16 12 24 24q44 176 -40 312q24 20 32 36v76l-4 24l-4 36l-4 16
v16l-4 44v100l-4 8q0 36 -8 64l-36 52l-24 20l-92 84l-24 20q-56 56 -112 80l100 96q28 168 -128 224h-60zM624 1752l-20 -20q-32 -24 -48 -44q-40 -32 -60 -56l4 -28q24 -12 40 -16l8 -8l60 -36q20 -20 32 -28l16 -16q32 -24 48 -44l12 -8l80 -72q4 -20 16 -32v-16l4 -28
l4 -44l16 -248q-44 -12 -56 -44q100 -128 72 -268l-8 -24q-32 4 -52 -24l8 -28q56 -60 48 -136q-8 -64 -40 -104q-40 12 -64 -4l-4 -12q8 -28 20 -48l12 -44l-12 -16l-48 -64l-12 -12l-88 -92q-20 -24 -40 -40l-96 4l-12 4l-24 4q-32 0 -52 8q-136 -8 -192 108
q-68 68 -76 148l28 24l4 -16l16 -12l16 -16l64 -84q32 -8 56 -8l12 -4l56 -8l12 -4h24l48 -8l8 4l12 12q16 24 36 40l20 24l76 76l12 12l40 52q40 -16 72 0q-4 52 -24 88q0 52 16 92q-4 32 4 60l12 12q40 -4 56 24v12q-36 40 -52 80l-8 48v24l-8 64l4 24l4 36l8 8
q24 0 40 12v28l-16 16q-24 16 -36 36l-4 8l-16 60v12l-4 28v72l-4 20q-4 56 0 92q-144 172 -288 64q-204 -128 -212 -344l-4 -8l-12 -64l-60 -24l4 -36q76 -120 40 -248q-40 -8 -56 -36l4 -20q60 -72 52 -160q28 -72 -12 -124q-136 136 -108 312q52 4 64 44
q-104 132 -44 276q32 -4 52 16q-8 32 -28 52l-20 32q-12 80 16 148q0 160 120 240q12 32 40 44q20 36 52 48l4 28q-24 40 -28 76l124 120q12 4 16 12l92 88q116 -40 112 -148zM644 1352l4 -8v-48l4 -24q0 -24 4 -40q-4 -120 44 -212q-52 -168 20 -312q-56 -40 -48 -104
q-24 -72 -12 -136q-24 -8 -52 -36l-28 -36q-12 -20 -32 -36l-68 -68q-24 -32 -40 -48q-24 8 -60 8l-28 8h-12l-32 4l-28 4q-28 52 -64 76q48 160 -24 304q24 24 36 44q20 144 -28 260l36 28l16 64l4 24v28l4 12l4 24l4 28l4 24q20 32 24 56l84 88q20 28 40 44l28 8
q28 28 60 40q80 -16 136 -68z" />
    <glyph glyph-name="Sacute" unicode="&#x152;" horiz-adv-x="991" 
d="M420 1896l-44 -64l-12 -16l-24 -40q-24 -32 -36 -56q0 -52 20 -88q-316 -128 -248 -292q-24 -24 -36 -44q-36 -236 136 -368l36 -4l4 -8q20 -68 56 -112q68 -40 108 -88l104 -80q52 -20 96 -4q72 -124 64 -248q-24 -56 -60 -88l-12 -24l-16 -4l-12 -8l-28 -4l-88 -12
q-16 -16 -20 -32q-84 48 -172 44q4 8 4 28l-12 48l-4 20q0 28 -4 72l-8 8l-60 40l-8 8l-112 72l-28 -8q-32 -212 128 -324q-12 -84 44 -136q112 -116 280 -84q20 16 28 36q184 -96 328 68q120 232 4 460q-16 108 -84 180q-80 48 -156 40l-36 40q-44 44 -84 68l-8 8l-24 20
q-20 20 -32 28l-16 16l-52 40l-44 12l-12 40q4 100 -24 176q20 4 32 12q104 136 260 140l8 -8q20 -12 36 -32q40 -228 208 -224q20 20 32 40q-24 296 -256 440l72 108q-12 144 -124 204h-76zM580 1720l-8 -8l-24 -40l-8 -8q-36 -48 -44 -72l4 -16q248 -148 264 -400
q-104 20 -140 200q-36 40 -72 60q-204 0 -316 -152q-40 0 -68 -16v-24q64 -92 40 -188q20 -40 12 -76q-180 88 -120 304q40 -8 64 12l-4 28q-44 40 -48 92q112 132 264 172l16 12l4 16q-32 48 -36 96q8 8 16 24l44 64q32 40 44 64q112 -28 116 -144zM288 960l20 -12l64 -56
q24 -16 40 -36l16 -12l72 -56l8 -8q32 -48 60 -76l-28 -28h-12l-76 52l-16 12l-28 28q-24 16 -40 36q-88 64 -108 156h28zM764 544q112 -224 -4 -416q-156 -144 -284 -8l-24 4q-28 -32 -16 -68q-228 -36 -256 148l4 12q24 -8 36 -16q116 12 184 -60l36 -4q16 28 20 60
q52 8 88 8l56 20q204 244 -20 480q16 16 20 32q156 -36 160 -192zM68 464q20 -12 28 -20l72 -48l4 -44v-12q12 -44 12 -80l-8 -8q-124 88 -128 228z" />
    <glyph glyph-name="Sacute" unicode="&#x15a;" horiz-adv-x="991" 
d="M420 1896l-44 -64l-12 -16l-24 -40q-24 -32 -36 -56q0 -52 20 -88q-316 -128 -248 -292q-24 -24 -36 -44q-36 -236 136 -368l36 -4l4 -8q20 -68 56 -112q68 -40 108 -88l104 -80q52 -20 96 -4q72 -124 64 -248q-24 -56 -60 -88l-12 -24l-16 -4l-12 -8l-28 -4l-88 -12
q-16 -16 -20 -32q-84 48 -172 44q4 8 4 28l-12 48l-4 20q0 28 -4 72l-8 8l-60 40l-8 8l-112 72l-28 -8q-32 -212 128 -324q-12 -84 44 -136q112 -116 280 -84q20 16 28 36q184 -96 328 68q120 232 4 460q-16 108 -84 180q-80 48 -156 40l-36 40q-44 44 -84 68l-8 8l-24 20
q-20 20 -32 28l-16 16l-52 40l-44 12l-12 40q4 100 -24 176q20 4 32 12q104 136 260 140l8 -8q20 -12 36 -32q40 -228 208 -224q20 20 32 40q-24 296 -256 440l72 108q-12 144 -124 204h-76zM580 1720l-8 -8l-24 -40l-8 -8q-36 -48 -44 -72l4 -16q248 -148 264 -400
q-104 20 -140 200q-36 40 -72 60q-204 0 -316 -152q-40 0 -68 -16v-24q64 -92 40 -188q20 -40 12 -76q-180 88 -120 304q40 -8 64 12l-4 28q-44 40 -48 92q112 132 264 172l16 12l4 16q-32 48 -36 96q8 8 16 24l44 64q32 40 44 64q112 -28 116 -144zM288 960l20 -12l64 -56
q24 -16 40 -36l16 -12l72 -56l8 -8q32 -48 60 -76l-28 -28h-12l-76 52l-16 12l-28 28q-24 16 -40 36q-88 64 -108 156h28zM764 544q112 -224 -4 -416q-156 -144 -284 -8l-24 4q-28 -32 -16 -68q-228 -36 -256 148l4 12q24 -8 36 -16q116 12 184 -60l36 -4q16 28 20 60
q52 8 88 8l56 20q204 244 -20 480q16 16 20 32q156 -36 160 -192zM68 464q20 -12 28 -20l72 -48l4 -44v-12q12 -44 12 -80l-8 -8q-124 88 -128 228z" />
    <glyph glyph-name="sacute" unicode="&#x153;" horiz-adv-x="996" 
d="M420 1896l-44 -64l-12 -16l-24 -40q-24 -32 -36 -56q0 -52 20 -88q-316 -128 -248 -292q-24 -24 -36 -44q-36 -236 136 -368l36 -4l4 -8q20 -68 56 -112q68 -40 108 -88l104 -80q52 -20 96 -4q72 -124 64 -248q-24 -56 -60 -88l-12 -24l-16 -4l-12 -8l-28 -4l-88 -12
q-16 -16 -20 -32q-84 48 -172 44q4 8 4 28l-12 48l-4 20q0 28 -4 72l-8 8l-60 40l-8 8l-112 72l-28 -8q-32 -212 128 -324q-12 -84 44 -136q112 -116 280 -84q20 16 28 36q184 -96 328 68q120 232 4 460q-16 108 -84 180q-80 48 -156 40l-36 40q-44 44 -84 68l-8 8l-24 20
q-20 20 -32 28l-16 16l-52 40l-44 12l-12 40q4 100 -24 176q20 4 32 12q104 136 260 140l8 -8q20 -12 36 -32q40 -228 208 -224q20 20 32 40q-24 296 -256 440l72 108q-12 144 -124 204h-76zM580 1720l-8 -8l-24 -40l-8 -8q-36 -48 -44 -72l4 -16q248 -148 264 -400
q-104 20 -140 200q-36 40 -72 60q-204 0 -316 -152q-40 0 -68 -16v-24q64 -92 40 -188q20 -40 12 -76q-180 88 -120 304q40 -8 64 12l-4 28q-44 40 -48 92q112 132 264 172l16 12l4 16q-32 48 -36 96q8 8 16 24l44 64q32 40 44 64q112 -28 116 -144zM288 960l20 -12l64 -56
q24 -16 40 -36l16 -12l72 -56l8 -8q32 -48 60 -76l-28 -28h-12l-76 52l-16 12l-28 28q-24 16 -40 36q-88 64 -108 156h28zM764 544q112 -224 -4 -416q-156 -144 -284 -8l-24 4q-28 -32 -16 -68q-228 -36 -256 148l4 12q24 -8 36 -16q116 12 184 -60l36 -4q16 28 20 60
q52 8 88 8l56 20q204 244 -20 480q16 16 20 32q156 -36 160 -192zM68 464q20 -12 28 -20l72 -48l4 -44v-12q12 -44 12 -80l-8 -8q-124 88 -128 228z" />
    <glyph glyph-name="sacute" unicode="&#x15b;" horiz-adv-x="996" 
d="M420 1896l-44 -64l-12 -16l-24 -40q-24 -32 -36 -56q0 -52 20 -88q-316 -128 -248 -292q-24 -24 -36 -44q-36 -236 136 -368l36 -4l4 -8q20 -68 56 -112q68 -40 108 -88l104 -80q52 -20 96 -4q72 -124 64 -248q-24 -56 -60 -88l-12 -24l-16 -4l-12 -8l-28 -4l-88 -12
q-16 -16 -20 -32q-84 48 -172 44q4 8 4 28l-12 48l-4 20q0 28 -4 72l-8 8l-60 40l-8 8l-112 72l-28 -8q-32 -212 128 -324q-12 -84 44 -136q112 -116 280 -84q20 16 28 36q184 -96 328 68q120 232 4 460q-16 108 -84 180q-80 48 -156 40l-36 40q-44 44 -84 68l-8 8l-24 20
q-20 20 -32 28l-16 16l-52 40l-44 12l-12 40q4 100 -24 176q20 4 32 12q104 136 260 140l8 -8q20 -12 36 -32q40 -228 208 -224q20 20 32 40q-24 296 -256 440l72 108q-12 144 -124 204h-76zM580 1720l-8 -8l-24 -40l-8 -8q-36 -48 -44 -72l4 -16q248 -148 264 -400
q-104 20 -140 200q-36 40 -72 60q-204 0 -316 -152q-40 0 -68 -16v-24q64 -92 40 -188q20 -40 12 -76q-180 88 -120 304q40 -8 64 12l-4 28q-44 40 -48 92q112 132 264 172l16 12l4 16q-32 48 -36 96q8 8 16 24l44 64q32 40 44 64q112 -28 116 -144zM288 960l20 -12l64 -56
q24 -16 40 -36l16 -12l72 -56l8 -8q32 -48 60 -76l-28 -28h-12l-76 52l-16 12l-28 28q-24 16 -40 36q-88 64 -108 156h28zM764 544q112 -224 -4 -416q-156 -144 -284 -8l-24 4q-28 -32 -16 -68q-228 -36 -256 148l4 12q24 -8 36 -16q116 12 184 -60l36 -4q16 28 20 60
q52 8 88 8l56 20q204 244 -20 480q16 16 20 32q156 -36 160 -192zM68 464q20 -12 28 -20l72 -48l4 -44v-12q12 -44 12 -80l-8 -8q-124 88 -128 228z" />
    <glyph glyph-name="Zacute" horiz-adv-x="981" 
d="M536 1964l-16 -24l-28 -28l-20 -28l-12 -16l-20 -20q-36 -44 -52 -80q20 -112 100 -176l-20 4l-20 4l-20 4l-24 4l-88 16h-12l-44 12q-40 0 -68 12l-28 4q-52 8 -88 8q-24 -16 -40 -32q4 -128 92 -200l80 -28l36 -4h24q36 -16 68 -16h12l20 -8l44 -4l32 -8h24l60 -16
l16 -40q-72 -24 -84 -88q-40 -68 -24 -136q-64 -24 -84 -88q-44 -64 -24 -136q-32 -8 -48 -16l-28 -52q-12 -32 -24 -56l-32 -60q-4 -16 -16 -44l-8 -12l-12 -24q-12 -32 -28 -52l-8 -24l-4 -8q-20 -36 -40 -84q-16 -24 -24 -44l-16 -40l-12 -28l-28 -52v-96
q100 -204 308 -160q44 20 64 56q80 -36 156 -8q64 4 92 52q24 -16 48 -24h28l16 4l24 4l20 4h28l8 8h24l20 8l28 4l24 4q16 16 20 36q12 100 -56 160q-32 32 -60 48q-144 4 -252 -44q-12 -16 -16 -28q-112 36 -212 -8l32 64q12 20 16 36l40 84l8 12q20 52 40 84q20 52 40 84
q0 40 -12 68q68 24 84 88q40 72 24 140q72 20 84 84q40 68 28 136l28 8q84 108 104 224q-68 184 -252 180l24 12q12 20 36 44l44 56l20 24l44 64l-4 8q0 32 -8 60q-36 116 -144 132h-44zM688 1780q-36 -44 -52 -60l-64 -84q-60 -28 -100 56q-24 36 -28 68l28 40q8 12 16 16
l16 24q20 20 28 32q28 28 40 48q116 -28 116 -140zM122 1602l42 -6l100 -16l28 -8l60 -8l20 -4q24 -8 44 -8q36 -12 64 -16h16l24 -4l20 -8q28 0 72 -12q52 -4 88 -20q52 -52 72 -108q-24 -96 -76 -164q-48 20 -80 -4q64 -128 -28 -220q-48 20 -80 -4v-32q60 -68 0 -132
q-8 -36 -28 -60q-40 24 -76 4v-24q24 -48 32 -84l-12 -24l-24 -44q-16 -44 -32 -72l-12 -20l-16 -40l-4 -16l-52 -100l-4 -12l-12 -24q-28 -60 -40 -80l4 -20q40 -48 84 -60q28 32 12 72q128 68 220 -28h20q24 36 8 76q184 72 236 -4q60 -40 40 -104l-16 -4q-20 -4 -40 -4
l-32 -8q-24 -8 -44 -8l-40 -8q-44 24 -72 56h-24q-12 -8 -16 -16q12 -80 -84 -76q-80 -8 -128 48h-20q-24 -32 -16 -68q-180 -88 -268 108q0 28 -4 48q12 20 16 32l36 72l8 24l32 64q12 32 24 52q16 28 24 52l24 44q12 32 24 52l4 16l24 44l12 24q32 72 48 92q52 -28 84 4
q-68 120 24 220q48 -24 80 0v20q-52 76 -4 144q16 80 88 52q16 16 24 32q-36 48 -32 96l-16 24l-20 4q-32 4 -72 16l-40 4q-32 8 -56 8q-40 12 -68 16q-12 0 -16 4q-80 8 -132 24q-76 56 -72 140q12 -4 26 -6z" />
    <glyph glyph-name="Zacute" unicode="&#x179;" horiz-adv-x="981" 
d="M536 1964l-16 -24l-28 -28l-20 -28l-12 -16l-20 -20q-36 -44 -52 -80q20 -112 100 -176l-20 4l-20 4l-20 4l-24 4l-88 16h-12l-44 12q-40 0 -68 12l-28 4q-52 8 -88 8q-24 -16 -40 -32q4 -128 92 -200l80 -28l36 -4h24q36 -16 68 -16h12l20 -8l44 -4l32 -8h24l60 -16
l16 -40q-72 -24 -84 -88q-40 -68 -24 -136q-64 -24 -84 -88q-44 -64 -24 -136q-32 -8 -48 -16l-28 -52q-12 -32 -24 -56l-32 -60q-4 -16 -16 -44l-8 -12l-12 -24q-12 -32 -28 -52l-8 -24l-4 -8q-20 -36 -40 -84q-16 -24 -24 -44l-16 -40l-12 -28l-28 -52v-96
q100 -204 308 -160q44 20 64 56q80 -36 156 -8q64 4 92 52q24 -16 48 -24h28l16 4l24 4l20 4h28l8 8h24l20 8l28 4l24 4q16 16 20 36q12 100 -56 160q-32 32 -60 48q-144 4 -252 -44q-12 -16 -16 -28q-112 36 -212 -8l32 64q12 20 16 36l40 84l8 12q20 52 40 84q20 52 40 84
q0 40 -12 68q68 24 84 88q40 72 24 140q72 20 84 84q40 68 28 136l28 8q84 108 104 224q-68 184 -252 180l24 12q12 20 36 44l44 56l20 24l44 64l-4 8q0 32 -8 60q-36 116 -144 132h-44zM688 1780q-36 -44 -52 -60l-64 -84q-60 -28 -100 56q-24 36 -28 68l28 40q8 12 16 16
l16 24q20 20 28 32q28 28 40 48q116 -28 116 -140zM122 1602l42 -6l100 -16l28 -8l60 -8l20 -4q24 -8 44 -8q36 -12 64 -16h16l24 -4l20 -8q28 0 72 -12q52 -4 88 -20q52 -52 72 -108q-24 -96 -76 -164q-48 20 -80 -4q64 -128 -28 -220q-48 20 -80 -4v-32q60 -68 0 -132
q-8 -36 -28 -60q-40 24 -76 4v-24q24 -48 32 -84l-12 -24l-24 -44q-16 -44 -32 -72l-12 -20l-16 -40l-4 -16l-52 -100l-4 -12l-12 -24q-28 -60 -40 -80l4 -20q40 -48 84 -60q28 32 12 72q128 68 220 -28h20q24 36 8 76q184 72 236 -4q60 -40 40 -104l-16 -4q-20 -4 -40 -4
l-32 -8q-24 -8 -44 -8l-40 -8q-44 24 -72 56h-24q-12 -8 -16 -16q12 -80 -84 -76q-80 -8 -128 48h-20q-24 -32 -16 -68q-180 -88 -268 108q0 28 -4 48q12 20 16 32l36 72l8 24l32 64q12 32 24 52q16 28 24 52l24 44q12 32 24 52l4 16l24 44l12 24q32 72 48 92q52 -28 84 4
q-68 120 24 220q48 -24 80 0v20q-52 76 -4 144q16 80 88 52q16 16 24 32q-36 48 -32 96l-16 24l-20 4q-32 4 -72 16l-40 4q-32 8 -56 8q-40 12 -68 16q-12 0 -16 4q-80 8 -132 24q-76 56 -72 140q12 -4 26 -6z" />
    <glyph glyph-name="zacute" unicode="&#x178;" horiz-adv-x="987" 
d="M536 1964l-16 -24l-28 -28l-20 -28l-12 -16l-20 -20q-36 -44 -52 -80q20 -112 100 -176l-20 4l-20 4l-20 4l-24 4l-88 16h-12l-44 12q-40 0 -68 12l-28 4q-52 8 -88 8q-24 -16 -40 -32q4 -128 92 -200l80 -28l36 -4h24q36 -16 68 -16h12l20 -8l44 -4l32 -8h24l60 -16
l16 -40q-72 -24 -84 -88q-40 -68 -24 -136q-64 -24 -84 -88q-44 -64 -24 -136q-32 -8 -48 -16l-28 -52q-12 -32 -24 -56l-32 -60q-4 -16 -16 -44l-8 -12l-12 -24q-12 -32 -28 -52l-8 -24l-4 -8q-20 -36 -40 -84q-16 -24 -24 -44l-16 -40l-12 -28l-28 -52v-96
q100 -204 308 -160q44 20 64 56q80 -36 156 -8q64 4 92 52q24 -16 48 -24h28l16 4l24 4l20 4h28l8 8h24l20 8l28 4l24 4q16 16 20 36q12 100 -56 160q-32 32 -60 48q-144 4 -252 -44q-12 -16 -16 -28q-112 36 -212 -8l32 64q12 20 16 36l40 84l8 12q20 52 40 84q20 52 40 84
q0 40 -12 68q68 24 84 88q40 72 24 140q72 20 84 84q40 68 28 136l28 8q84 108 104 224q-68 184 -252 180l24 12q12 20 36 44l44 56l20 24l44 64l-4 8q0 32 -8 60q-36 116 -144 132h-44zM688 1780q-36 -44 -52 -60l-64 -84q-60 -28 -100 56q-24 36 -28 68l28 40q8 12 16 16
l16 24q20 20 28 32q28 28 40 48q116 -28 116 -140zM122 1602l42 -6l100 -16l28 -8l60 -8l20 -4q24 -8 44 -8q36 -12 64 -16h16l24 -4l20 -8q28 0 72 -12q52 -4 88 -20q52 -52 72 -108q-24 -96 -76 -164q-48 20 -80 -4q64 -128 -28 -220q-48 20 -80 -4v-32q60 -68 0 -132
q-8 -36 -28 -60q-40 24 -76 4v-24q24 -48 32 -84l-12 -24l-24 -44q-16 -44 -32 -72l-12 -20l-16 -40l-4 -16l-52 -100l-4 -12l-12 -24q-28 -60 -40 -80l4 -20q40 -48 84 -60q28 32 12 72q128 68 220 -28h20q24 36 8 76q184 72 236 -4q60 -40 40 -104l-16 -4q-20 -4 -40 -4
l-32 -8q-24 -8 -44 -8l-40 -8q-44 24 -72 56h-24q-12 -8 -16 -16q12 -80 -84 -76q-80 -8 -128 48h-20q-24 -32 -16 -68q-180 -88 -268 108q0 28 -4 48q12 20 16 32l36 72l8 24l32 64q12 32 24 52q16 28 24 52l24 44q12 32 24 52l4 16l24 44l12 24q32 72 48 92q52 -28 84 4
q-68 120 24 220q48 -24 80 0v20q-52 76 -4 144q16 80 88 52q16 16 24 32q-36 48 -32 96l-16 24l-20 4q-32 4 -72 16l-40 4q-32 8 -56 8q-40 12 -68 16q-12 0 -16 4q-80 8 -132 24q-76 56 -72 140q12 -4 26 -6z" />
    <glyph glyph-name="zacute" unicode="&#x17a;" horiz-adv-x="987" 
d="M536 1964l-16 -24l-28 -28l-20 -28l-12 -16l-20 -20q-36 -44 -52 -80q20 -112 100 -176l-20 4l-20 4l-20 4l-24 4l-88 16h-12l-44 12q-40 0 -68 12l-28 4q-52 8 -88 8q-24 -16 -40 -32q4 -128 92 -200l80 -28l36 -4h24q36 -16 68 -16h12l20 -8l44 -4l32 -8h24l60 -16
l16 -40q-72 -24 -84 -88q-40 -68 -24 -136q-64 -24 -84 -88q-44 -64 -24 -136q-32 -8 -48 -16l-28 -52q-12 -32 -24 -56l-32 -60q-4 -16 -16 -44l-8 -12l-12 -24q-12 -32 -28 -52l-8 -24l-4 -8q-20 -36 -40 -84q-16 -24 -24 -44l-16 -40l-12 -28l-28 -52v-96
q100 -204 308 -160q44 20 64 56q80 -36 156 -8q64 4 92 52q24 -16 48 -24h28l16 4l24 4l20 4h28l8 8h24l20 8l28 4l24 4q16 16 20 36q12 100 -56 160q-32 32 -60 48q-144 4 -252 -44q-12 -16 -16 -28q-112 36 -212 -8l32 64q12 20 16 36l40 84l8 12q20 52 40 84q20 52 40 84
q0 40 -12 68q68 24 84 88q40 72 24 140q72 20 84 84q40 68 28 136l28 8q84 108 104 224q-68 184 -252 180l24 12q12 20 36 44l44 56l20 24l44 64l-4 8q0 32 -8 60q-36 116 -144 132h-44zM688 1780q-36 -44 -52 -60l-64 -84q-60 -28 -100 56q-24 36 -28 68l28 40q8 12 16 16
l16 24q20 20 28 32q28 28 40 48q116 -28 116 -140zM122 1602l42 -6l100 -16l28 -8l60 -8l20 -4q24 -8 44 -8q36 -12 64 -16h16l24 -4l20 -8q28 0 72 -12q52 -4 88 -20q52 -52 72 -108q-24 -96 -76 -164q-48 20 -80 -4q64 -128 -28 -220q-48 20 -80 -4v-32q60 -68 0 -132
q-8 -36 -28 -60q-40 24 -76 4v-24q24 -48 32 -84l-12 -24l-24 -44q-16 -44 -32 -72l-12 -20l-16 -40l-4 -16l-52 -100l-4 -12l-12 -24q-28 -60 -40 -80l4 -20q40 -48 84 -60q28 32 12 72q128 68 220 -28h20q24 36 8 76q184 72 236 -4q60 -40 40 -104l-16 -4q-20 -4 -40 -4
l-32 -8q-24 -8 -44 -8l-40 -8q-44 24 -72 56h-24q-12 -8 -16 -16q12 -80 -84 -76q-80 -8 -128 48h-20q-24 -32 -16 -68q-180 -88 -268 108q0 28 -4 48q12 20 16 32l36 72l8 24l32 64q12 32 24 52q16 28 24 52l24 44q12 32 24 52l4 16l24 44l12 24q32 72 48 92q52 -28 84 4
q-68 120 24 220q48 -24 80 0v20q-52 76 -4 144q16 80 88 52q16 16 24 32q-36 48 -32 96l-16 24l-20 4q-32 4 -72 16l-40 4q-32 8 -56 8q-40 12 -68 16q-12 0 -16 4q-80 8 -132 24q-76 56 -72 140q12 -4 26 -6z" />
    <glyph glyph-name="Zdot" unicode="&#xaf;" horiz-adv-x="944" 
d="M316 1712l-12 -4h-64l-44 4h-32q-72 0 -120 -16q-20 -36 -20 -68q44 -112 132 -168h356q-68 -104 -48 -208q-40 -16 -64 -48q-48 -96 -32 -184q-36 -12 -56 -40l-4 -8l-12 -28l-16 -44l-12 -24l-48 -120q-4 -20 -16 -44q-16 -28 -20 -52l-120 -284q0 -44 12 -72
q-104 -56 -76 -176q48 -84 112 -128q68 -8 104 32l24 -4q32 -4 52 0h84l16 4h88q32 0 56 4l8 4h112l20 4q68 -44 140 -32l28 24q0 192 -176 256h-244l-12 -4l-96 -4q28 68 40 88l16 40l4 16l36 92q12 20 16 36l12 32q20 36 28 64l24 64l8 12l32 80q0 44 -12 72q64 28 76 92
q40 72 20 144l36 16q80 104 60 220q20 8 36 8q60 88 72 180q-52 152 -200 172q-16 128 -120 184h-216q-64 -80 32 -184zM560 1684l12 -24q148 0 192 -124q0 -16 -8 -40l-40 -88q-44 12 -76 -8v-24q52 -80 0 -148q-4 -32 -28 -56q-44 16 -76 0l4 -36q68 -68 -16 -196
q-44 4 -76 -8v-12q28 -64 28 -108l-24 -56l-8 -12l-28 -76q-28 -60 -40 -100l-16 -28q-4 -28 -14 -46t-22 -42q-4 -24 -12 -40q-28 -52 -36 -92q-16 -32 -28 -48l4 -28l16 -12h56q32 0 52 4h68q32 0 52 4h84l12 -4q24 12 48 8l52 -24q104 -60 92 -160l-20 4l-32 8
q-28 20 -56 24h-36l-28 -4h-88l-12 -4l-160 -4q-84 -12 -156 12l-20 -12q-40 -84 -128 68q-8 108 84 92l20 20q-28 56 -32 108l12 24l12 24l88 216q4 8 6 18t6 14l28 64v12q28 48 36 84l4 12l56 120q40 -16 72 -4l4 24q-64 108 20 216q48 -16 76 12q-52 92 -4 168
q12 68 96 52l8 32l-44 52h-420q-68 52 -96 120q0 12 12 20l284 4q24 4 36 16q4 16 0 28q-88 60 -96 148q252 40 244 -164z" />
    </font>
</defs>
</svg>
