<?xml version="1.0" standalone="no"?>
<!DOCTYPE svg PUBLIC "-//W3C//DTD SVG 1.1//EN" "http://www.w3.org/Graphics/SVG/1.1/DTD/svg11.dtd" >
<svg>
<metadata>
Created by FontForge 20120731 at Mon Jan  4 10:48:33 2021
 By ffonts
</metadata>
<defs>
<font id="BlocksNBolts-Regular" horiz-adv-x="250" >
  <font-face 
    font-family="Blocks N Bolts"
    font-weight="400"
    font-stretch="normal"
    units-per-em="1000"
    panose-1="2 0 5 3 0 0 0 0 0 0"
    ascent="800"
    descent="-200"
    x-height="350"
    cap-height="685"
    bbox="33 -200 854 797"
    underline-thickness="50"
    underline-position="-100"
    unicode-range="U+000D-00A0"
  />
<missing-glyph horiz-adv-x="364" 
d="M33 0v666h265v-666h-265zM66 33h199v600h-199v-600z" />
    <glyph glyph-name=".notdef" horiz-adv-x="364" 
d="M33 0v666h265v-666h-265zM66 33h199v600h-199v-600z" />
    <glyph glyph-name=".null" 
 />
    <glyph glyph-name=".null" 
 />
    <glyph glyph-name="nonmarkingreturn" horiz-adv-x="333" 
 />
    <glyph glyph-name="CR" unicode="&#xd;" 
 />
    <glyph glyph-name="space" unicode=" " 
 />
    <glyph glyph-name="exclam" unicode="!" horiz-adv-x="203" 
d="M134 -20q0 3 -12 3q-8 0 -10 -2t-2 -10q0 -12 3 -12t12 9t9 12zM93 -29q0 8 -2 10t-11 2q-15 0 0 -16q8 -8 10.5 -7.5t2.5 11.5zM130 8q-6 7 -13 13q-7 -2 -7 -8q0 -9 1.5 -10.5t10.5 -1.5t10.5 1t-2.5 6zM78 1q8 -1 10.5 -0.5t4 4t-0.5 10.5l-1 12q-16 -16 -24 -25z
M73 35q11 7 27 7q32 0 47 -23q6 -9 6 -26q0 -21 -7 -29q-17 -24 -45 -24q-23 0 -37 13.5t-14 35.5q0 32 23 46zM131 122v571h-59v-571h59zM55 104v606h93v-606h-93z" />
    <glyph glyph-name="quotedbl" unicode="&#x22;" horiz-adv-x="220" 
d="M134 693q-6 0 -7 -3.5t-1 -24.5q0 -28 3 -28q2 0 8.5 22.5t6.5 29.5q0 4 -10 4zM85 689q0 4 -9 4q-7 0 -8 -4t-1 -25q0 -26 3 -25q2 2 8.5 23.5t6.5 26.5zM50 620v90h61q59 0 59 -4q0 -2 -2 -8.5t-5.5 -18.5t-5.5 -20l-11 -39h-37l-1 39v39q-4 -13 -11.5 -38.5
t-10.5 -37.5q-6 0 -18 -1t-18 -1z" />
    <glyph glyph-name="quotesingle" unicode="'" horiz-adv-x="159" 
d="M85 689q0 4 -9 4q-7 0 -8 -4t-1 -25q0 -26 3 -25q2 2 8.5 23.5t6.5 26.5zM50 620v90h29q30 0 30 -2q0 -3 -11 -45l-12 -43h-36z" />
    <glyph glyph-name="comma" unicode="," horiz-adv-x="189" 
d="M105 124q-5 4 -9 4q-5 0 -12 -17l-10 -30q0 -4 9 -7q11 -4 12 0q13 32 13 43q0 5 -3 7zM76 144q4 9 5 9t27.5 -9.5t26.5 -10.5q0 -7 -15 -45.5t-18 -38.5t-27.5 8.5t-24.5 9.5q0 13 26 77z" />
    <glyph glyph-name="period" unicode="." horiz-adv-x="191" 
d="M110 74q4 3 5.5 4.5t3 4t-0.5 3.5t-7 1q-9 0 -9 -9q0 -7 1.5 -7.5t6.5 3.5zM85 80q0 7 -7 7q-11 0 -5 -8t11 -4q1 2 1 5zM113 116q-7 6 -9 5.5t-2 -8.5q0 -9 9 -9q16 0 2 12zM85 113q0 8 -1.5 8.5t-6.5 -5.5q-12 -12 1 -12q7 0 7 9zM72 136q10 6 22 6q18 0 32 -13t14 -32
q0 -40 -38 -46q-1 0 -3.5 -0.5t-3.5 -0.5q-19 0 -32 13.5t-13 33.5q0 25 22 39z" />
    <glyph glyph-name="zero" unicode="0" horiz-adv-x="702" 
d="M604 -41q0 4 -7 4t-7 -7q0 -13 11 -1zM572 -44q0 7 -6 7q-7 0 -7 -4q0 -3 7 -7q4 -2 5 -1.5t1 5.5zM603 -13q-10 12 -13 2q0 -9 8 -9q6 0 7 1t-2 6zM553 -18q2 0 6.5 -1t5.5 -1t4.5 1t3 3.5t-0.5 6.5l-1 8l-9 -9zM560 13q10 5 20 5q18 0 31 -13t13 -31q0 -20 -12 -33
t-29 -13q-11 0 -23 6q-22 10 -22 39t22 40zM147 -41q0 4 -7 4t-7 -7q0 -13 11 -1zM116 -44q0 7 -7 7q-9 0 -4 -7q7 -10 10 -4zM147 -13q-7 13 -12 8q-2 -2 -2 -6q0 -9 9 -9q6 0 6.5 1t-1.5 6zM116 -11q0 8 -1 8q-4 0 -10 -8l-8 -9h9q10 0 10 9zM103 11q10 7 22 7
q17 0 30 -13t13 -32q0 -29 -23 -40q-12 -5 -20 -5q-18 0 -31 12.5t-13 31.5q0 25 22 39zM589 585q9 4 9 10q1 4 -6 4q-9 0 -9 -8q0 -6 0.5 -7t5.5 1zM566 590q0 9 -7 9t-7 -2q0 -5 7 -10q7 -6 7 3zM595 624q-5 6 -9 6q-3 0 -3 -6q0 -7 9 -7t3 7zM557 617q5 -1 7.5 1.5
t0.5 7.5q-1 6 -8 -1t0 -8zM546 640q12 11 29 11q15 0 26 -8q19 -13 19 -35q0 -18 -13.5 -32t-31.5 -14q-10 0 -18 4q-26 11 -26 40q0 20 15 34zM150 598q0 1 -8 1q-5 0 -7 -1.5t-2 -7.5v-9l9 8q8 6 8 9zM116 590q0 9 -7 9t-7 -2q0 -5 7 -10q7 -6 7 3zM140 617q11 0 5 8
t-11 4q-1 -2 -1 -5q0 -7 7 -7zM116 624q0 10 -8.5 4t-4.5 -10q2 -1 6 -1q7 0 7 7zM101 646q10 6 23 6q25 0 38 -19q6 -9 6 -23q0 -20 -9 -31q-15 -16 -35 -16q-17 0 -30 11.5t-13 30.5q0 30 20 41zM635 -93v142h-118v-142h118zM500 -93v142h-298v-142h298zM185 -93v142h-118
v-142h118zM185 66v454h-118v-454h118zM635 66v457h-118v-457h118zM500 66v457h-298v-457h298zM635 540v132h-118v-132h118zM500 540v132h-298v-132h298zM185 540v132h-118v-132h118zM50 -110v799h602v-799h-602z" />
    <glyph glyph-name="one" unicode="1" horiz-adv-x="551" 
d="M292 -47q10 5 8 11q-1 2 -7 2q-8 0 -8 -9q0 -6 1.5 -6.5t5.5 2.5zM268 -43q0 9 -10 9h-9l8 -9q6 -8 9 -8q2 0 2 8zM268 -8q0 16 -12 2q-6 -7 -5.5 -9t8.5 -2q9 0 9 9zM302 -14q0 4 -9 11l-8 8v-11q0 -11 8 -11q9 0 9 3zM245 10q11 11 30 11q21 0 29 -7q19 -15 19 -37
q0 -21 -15 -34q-13 -12 -32 -12t-31 12q-15 15 -15 33q0 19 15 34zM302 638q0 3 -9 3q-8 0 -8 -9q0 -8 3 -8q2 0 8 6t6 8zM268 632q0 9 -9 9q-10 0 -6 -7q2 -4 8 -7q3 -2 4.5 -2t2 1.5t0.5 5.5zM296 670q-7 6 -9 5.5t-2 -8.5q0 -9 8 -9q17 0 3 12zM249 660q17 -2 18 1
q2 2 0 8l-1 8l-9 -8zM254 690q12 6 23 6q19 0 32.5 -13.5t13.5 -33.5q0 -29 -23 -40q-6 -2 -9.5 -5.5t-5.5 -4t-13 0.5q-17 2 -30 17.5t-13 33.5q0 10 7.5 22t17.5 17zM482 -93v139h-125v-139h125zM340 -93v139h-124v-139h124zM198 -93v139h-128v-139h128zM340 63v505h-124
v-505h124zM340 585v139h-124v-139h124zM198 585v142h-45v-142h45zM136 568v177h221v-682h142v-173h-446v173h145v505h-62z" />
    <glyph glyph-name="two" unicode="2" horiz-adv-x="600" 
d="M501 606q4 5 3.5 6t-7.5 1q-9 0 -9 -9q0 -16 13 2zM471 603q0 7 -1.5 8.5t-8.5 1.5t-8 -1.5t1 -5.5q3 -7 10 -10q4 -2 5.5 -1t1.5 8zM495 630q11 0 5 8q-6 9 -11 4q-1 -1 -1 -5q0 -7 7 -7zM471 639q0 10 -10 3q-17 -12 1 -12q9 0 9 9zM433 621q0 44 47 44q19 0 30 -11
q15 -14 15 -34q0 -18 -13 -31.5t-33 -13.5q-21 0 -33.5 12.5t-12.5 33.5zM126 -76q-1 0 -5 3t-11 8.5t-13 9.5l-27 18v-42h30q27 0 26 3zM159 -24q19 14 2 14q-5 0 -6.5 -1.5t-1.5 -6.5q0 -6 0.5 -7t5.5 1zM135 -18q0 5 -1.5 6.5t-6.5 1.5q-10 0 -6 -7l8 -7q5 -2 5.5 -1
t0.5 7zM164 19q-7 6 -9 5.5t-2 -8.5q0 -5 1.5 -6.5t6.5 -1.5q15 0 3 11zM135 16q0 15 -11 3q-6 -7 -5.5 -9t8.5 -2q5 0 6.5 1.5t1.5 6.5zM101 18q5 7 2 7q-1 0 -14 -19.5t-13 -21.5t40 -29l39 -27l17 25q16 26 6 16q-17 -16 -36 -16q-11 0 -20 5q-25 13 -25 44q0 9 4 16z
M533 -79v125h-277q-38 -59 -83 -125h360zM230 43q0 3 -35 3h-37l11 -7q21 -13 21 -40v-6v-11q3 3 21.5 30t18.5 31zM123 42q7 4 0 4q-9 0 -14 -10q-5 -7 -4.5 -7.5t5.5 3.5q7 7 13 10zM90 44q0 2 -10 2q-7 0 -8.5 -2t-1.5 -14q0 -15 1 -15t10 14t9 15zM523 430q8 -2 9.5 1.5
t-0.5 12.5l-1 12l-7 -12q-3 -5 -4.5 -7t-1.5 -4t1 -2.5t4 -0.5zM435 412h-43q0 7 -1 21t-1 21l-128 -190q-28 -42 -63 -94t-51.5 -76.5t-16.5 -25.5q-1 -2 3 -3q7 -2 52 -2h59l116 172q116 170 116 175h-5q-5 1 -15 1.5t-22 0.5zM516 467q1 2 1 4q0 6 -38 31l-41 27l-15 -22
q-10 -15 -12 -22t-2 -28v-27h82l10 15q12 16 15 22zM533 489v51h-39l-37 -1l5 -3q5 -3 15.5 -10.5t18.5 -12.5zM417 532q5 6 4.5 7t-5.5 1q-7 0 -7 -8q0 -9 1 -9q2 0 7 9zM533 558v124h-124v-124h124zM391 558v124h-321v-124h321zM52 540v160h498v-288h-47l-115 -172
q-113 -166 -117 -174q-1 -1 17.5 -1.5t52 -1t69.5 -0.5h140v-159h-497l-1 39q0 5 -0.5 18t-0.5 21q0 7 0.5 21t0.5 19l1 41q8 1 26 1t26 1q134 199 286 427v48h-339z" />
    <glyph glyph-name="three" unicode="3" horiz-adv-x="641" 
d="M535 -23q0 3 -6 3q-7 0 -7 -9t7 -3q6 5 6 9zM504 -29q0 9 -8 9q-15 0 -3 -11q5 -4 7 -5t3 0.5t1 6.5zM535 4q-10 12 -13 2q0 -9 8 -9q6 0 7 1.5t-2 5.5zM504 6q0 17 -17 -3q-3 -5 -2 -5.5t9 -0.5q6 0 8 1.5t2 7.5zM492 32q8 3 17 3q29 0 41 -20q6 -11 6 -26q0 -19 -9 -29
q-14 -17 -36 -17q-5 0 -13 2q-32 9 -32 44q0 18 10 29q11 13 16 14zM535 292q0 3 -6 3q-7 0 -7 -7q0 -12 9 -3q4 4 4 7zM504 286q0 9 -9 9q-16 0 2 -13q5 -4 6 -3.5t1 7.5zM535 320q-13 18 -13 1q0 -9 9 -9q7 0 7.5 1.5t-3.5 6.5zM482 314q10 -2 15 -2q8 0 8 7l-1 2v3l-1 10
q-7 -6 -21 -20zM494 351q0 3 17 3q22 0 39 -25q6 -9 6 -24q0 -21 -9 -31q-13 -16 -36 -16q-25 0 -37 19q-8 11 -8 27q0 29 20 40q8 4 8 7zM535 610q3 4 2 5.5t-7 1.5q-8 0 -8 -9q0 -12 8 -4zM504 608q0 4 -0.5 5.5t-2.5 2.5t-7 1q-7 0 -8.5 -1t1.5 -5q17 -22 17 -3zM532 643
q-6 8 -9 8q-1 0 -1 -8q0 -9 9 -9h9zM504 643q0 14 -11 2q-6 -7 -5.5 -9t8.5 -2t8 9zM492 667q12 5 19 5t19 -5q26 -12 26 -42q0 -19 -12 -32q-8 -9 -13 -11t-20 -2t-20 2t-13 11q-12 13 -12 32q0 30 26 42zM573 -72v121h-124v-121h124zM432 -75v124h-364v-124h364zM573 66
v156h-124v-156h124zM573 239v128h-124v-128h124zM432 239v128h-36q-40 -2 -112 -2l-77 -1v-125h225zM573 385v159h-124v-159h124zM573 561v121h-124v-121h124zM432 561v121h-364v-121h364zM51 544v156h540v-793h-540v159h381v156h-243v159l11 2q12 2 121 2h111v159h-381z
" />
    <glyph glyph-name="four" unicode="4" horiz-adv-x="529" 
d="M427 -19q0 2 -7 2t-7 -9t7 -3q7 5 7 10zM396 -26q0 9 -7 9t-7 -2q0 -5 7 -10q7 -6 7 3zM420 1q9 0 4 7q-7 10 -10 4q-1 -2 -1 -4q0 -7 7 -7zM387 1q5 -1 7.5 1.5t0.5 7.5q-1 4 -1.5 4t-5.5 -5q-7 -7 -1 -8zM361 -7q0 17 12 29t31 12h6q17 -1 27.5 -13.5t10.5 -29.5
q0 -24 -18 -36q-8 -7 -27 -7q-13 0 -20 4q-9 4 -15.5 16.5t-6.5 24.5zM427 340q0 3 -7 3t-7 -7q0 -12 10 -2q4 4 4 6zM396 336q0 7 -7 7q-11 0 -5 -8t11 -4q1 2 1 5zM420 361q10 0 4 8t-10 3l-1 -5q0 -6 7 -6zM396 367q0 10 -8 4.5t-4 -9.5l5 -1q7 0 7 6zM382 389q10 7 22 7
q17 0 30.5 -13t13.5 -31q0 -19 -13 -31.5t-31 -12.5q-12 0 -22 6q-20 10 -20 36q0 28 20 39zM154 340q0 3 -7 3t-7 -7t3 -7q2 0 6.5 4.5t4.5 6.5zM123 336q0 7 -7 7q-11 0 -5 -8t11 -4q1 2 1 5zM154 364q0 4 -7 7t-7 -4q0 -6 7 -6t7 3zM123 367q0 10 -8 4.5t-4 -9.5l5 -1
q7 0 7 6zM108 390q11 6 22 6q18 0 31.5 -12.5t13.5 -31.5t-13 -31.5t-31 -12.5q-12 0 -22 6q-21 10 -21 38q0 27 20 38zM462 -79v128h-114v-128h114zM330 -79v128h-263v-128h263zM462 66v205h-114v-205h114zM462 288v128h-114v-128h114zM330 288v128h-117v-128h117zM195 288
v128h-128v-128h128zM462 433v249h-114v-249h114zM195 433v249h-128v-249h128zM50 266v434h163v-267h117v267h149v-796h-429v162h280v205l-140 -2z" />
    <glyph glyph-name="five" unicode="5" horiz-adv-x="560" 
d="M451 -26q0 2 -7 2q-6 0 -6 -6q0 -7 2 -7t6.5 4.5t4.5 6.5zM420 -32q0 5 -1.5 6.5t-6.5 1.5q-10 0 -6 -7q2 -4 8 -7q4 -2 5 -1t1 7zM447 3q-9 9 -9 -2q0 -7 6 -7q12 0 3 9zM401 -4q19 -4 20 3q0 2 -1 6l-1 8l-9 -9zM416 29q8 2 12 2q18 0 31 -13.5t13 -32.5t-12.5 -31
t-32.5 -12t-32 12t-12 30q0 12 5 22q8 17 28 23zM451 271q0 3 -7 3q-6 0 -6 -9q0 -7 0.5 -7t5.5 4q7 5 7 9zM420 265q0 9 -9 9q-16 0 2 -13q5 -4 6 -3.5t1 7.5zM444 291q8 0 4 7q-6 9 -9 4q-1 -1 -1 -4q0 -7 6 -7zM401 293q2 0 6.5 -1t5.5 -1t4.5 1t3 3.5t-0.5 6.5l-1 7
q-3 -2 -9 -7.5t-9 -8.5zM397 314q13 12 29 12q30 0 41 -23q5 -12 5 -21q0 -19 -13 -32.5t-31 -13.5q-8 0 -15 3q-29 10 -29 44q0 19 13 31zM157 603q0 3 -7 3t-7 -7t3 -7q2 0 6.5 4.5t4.5 6.5zM126 599q0 7 -9 7t-3 -7q5 -7 9 -7q3 0 3 7zM157 626q0 5 -7 10q-7 6 -7 -3
t7 -9t7 2zM107 625q15 -3 18 0q1 2 0.5 4.5t-1 7.5t-0.5 6l-8 -9zM113 655q10 6 22 6q17 0 30 -13t13 -30q0 -46 -42 -46h-7q-18 1 -29.5 14.5t-11.5 30.5q0 10 7.5 21.5t17.5 16.5zM493 -82v135h-132v-135h132zM344 -82v135h-277v-135h277zM493 70v128h-132v-128h132z
M493 215v135h-132v-135h132zM344 215v135h-277v-135h277zM202 367v167h-135v-167h135zM493 551v131h-273v-131h273zM202 551v131h-135v-131h135zM50 198v502h460v-166h-290v-167h290v-467h-460v170h294v128h-294z" />
    <glyph glyph-name="six" unicode="6" horiz-adv-x="491" 
d="M395 -35q4 5 3.5 6.5t-7.5 1.5q-9 0 -9 -9q0 -17 13 1zM365 -36q0 9 -9 9q-14 0 -2 -11q5 -4 7 -5t3 0.5t1 6.5zM393 -1q-7 9 -10 9q-1 0 -1 -9t10 -9h9zM365 -1q0 10 -10 3q-17 -12 1 -12q9 0 9 9zM360 29q8 2 12 2q20 0 33.5 -16.5t13.5 -36.5q0 -23 -20 -36
q-10 -7 -24 -7q-30 0 -43 24q-5 10 -5 24q0 12 4 19q4 8 13.5 17t15.5 10zM150 -35q4 5 3.5 6.5t-7.5 1.5q-9 0 -9 -9q0 -17 13 1zM119 -36q0 9 -8 9q-15 0 -3 -11q5 -4 7 -5t3 0.5t1 6.5zM147 -1q-7 9 -9 9q-1 0 -1 -9t9 -9h9zM119 -1q0 8 -0.5 8t-8.5 -5q-17 -12 1 -12
q8 0 8 9zM106 23q9 4 20 4q19 0 32.5 -13t13.5 -32q0 -9 -3 -18q-10 -28 -41 -28h-6q-18 2 -29.5 13.5t-11.5 29.5q0 33 25 44zM399 287q0 1 -8 1q-5 0 -7 -1.5t-2 -7.5v-9l9 8q8 6 8 9zM365 279q0 9 -9 9q-17 0 1 -13q5 -4 6.5 -3.5t1.5 7.5zM395 313q-13 18 -13 1
q0 -9 9 -9q7 0 7.5 1.5t-3.5 6.5zM365 314q0 16 -12 2q-6 -7 -5.5 -9t8.5 -2q9 0 9 9zM349 336q11 7 25 7q31 0 42 -26q4 -8 4 -19q0 -19 -14.5 -33t-33.5 -14q-11 0 -19 4q-26 12 -26 41q0 27 22 40zM154 287q0 1 -9 1q-5 0 -6.5 -1.5t-1.5 -7.5v-9l8 8q9 7 9 9zM119 279
q0 9 -9 9q-16 0 2 -13q5 -4 6 -3.5t1 7.5zM150 313q-13 18 -13 1q0 -9 9 -9q7 0 7.5 1.5t-3.5 6.5zM119 314q0 14 -11 2q-6 -7 -5.5 -9t8.5 -2t8 9zM90 326q14 17 35 17q19 0 33.5 -13t14.5 -32q0 -5 -2 -13q-5 -15 -17 -24.5t-27 -9.5q-8 0 -17 3q-29 11 -29 45q0 15 9 27z
M136 578q19 14 2 14q-5 0 -6.5 -1.5t-1.5 -6.5q0 -8 2 -8q1 0 4 2zM112 584q0 5 -1.5 6.5t-6.5 1.5q-10 0 -6 -7l8 -7q4 -2 5 -1t1 7zM141 621q-7 6 -9 5.5t-2 -8.5q0 -5 1.5 -6.5t6.5 -1.5q15 0 3 11zM112 618q0 15 -11 3q-6 -7 -5.5 -9t8.5 -2q5 0 6.5 1.5t1.5 6.5z
M96 641q11 7 24 7q31 0 43 -27q4 -9 4 -20q0 -19 -13 -32t-32 -13q-9 0 -21 5q-27 12 -27 42q0 25 22 38zM424 -79v125h-101v-125h101zM306 -79v125h-104v-125h104zM185 -17q0 62 -2 62l-9 -1q-8 0 -22 -0.5t-28 -0.5l-57 -1v-121h118v62zM424 63v135h-101v-135h101zM306 63
v135h-104v-135h104zM185 63v135h-118v-135h118zM424 215v152h-101v-152h101zM306 215v152h-104v-152h104zM185 215v152h-118v-152h118zM185 385v131h-118v-131h118zM420 534v138h-218v-138h218zM185 534v138h-118v-138h118zM50 -96v785h388v-173h-236v-131h239v-481h-391z
" />
    <glyph glyph-name="seven" unicode="7" horiz-adv-x="651" 
d="M535 552q-29 1 -63 1q-46 0 -54.5 -1t-12.5 -6q-7 -11 -117.5 -203t-110.5 -193t-41.5 -74t-52.5 -91l-6 -10l47 -27q41 -24 49 -24h1q2 3 60 103.5t60 105.5q1 4 121 210.5t120 208.5zM511 596q4 3 5.5 4.5t3 4t-0.5 3.5t-7 1q-9 0 -9 -9q0 -7 1.5 -7.5t6.5 3.5z
M486 600q0 9 -9 9h-9l8 -9q8 -8 9 -8t1 8zM481 574q-22 9 -30 30l-6 14q-8 -17 -17 -32l-9 -15h36q29 0 29 2q-1 1 -3 1zM573 617q3 5 -4 9q-5 2 -6 1t-1 -12q0 -10 2 -11q3 2 9 13zM545 605q0 34 -3 37q-3 1 -1 -16v-6q0 -38 -32 -47q-3 -1 1 -1q4 -1 14 -1h21v34zM486 635
q0 15 -11 3t2 -12q9 0 9 9zM521 633q-4 7 -11 11q-4 2 -5.5 1t-1.5 -8t2 -9t9 -2t8 1t-1 6zM499 666q-18 12 -20 8q-1 0 -2 -4q-2 -5 -1 -6t11 0zM545 675q0 7 -2.5 8.5t-17.5 1.5h-20l17 -10q17 -10 21 -10q2 0 2 10zM461 683q0 2 -181 2h-183v-114h300l32 54q32 56 32 58z
M562 557q0 -1 -123 -211.5t-123 -213.5q0 -5 -68.5 -120t-71.5 -115t-34 17.5t-60.5 35t-29.5 18.5t25.5 45t51 89.5t26.5 48.5l115 201l115 200q0 1 -152 1h-153v150h482v-51l18 -10q19 -11 19 -12q0 -3 -9.5 -21t-18.5 -35z" />
    <glyph glyph-name="eight" unicode="8" horiz-adv-x="576" 
d="M508 -84q0 11 -1 12l-5 -7q-4 -8 -16 -12l-11 -4l17 -1h16v12zM154 -84q0 11 -1 12l-5 -7q-4 -8 -16 -12l-11 -4l17 -1h16v12zM444 -89q-13 9 -17 14q-5 -3 -5 -6v-15h33zM90 -89q-13 9 -17 14q-6 -3 -6 -6v-15h33zM491 -60q0 2 -9 2q-5 0 -6.5 -1.5t-1.5 -6.5q0 -9 2 -9
t8.5 6.5t6.5 8.5zM456 -66q0 5 -1.5 6.5t-6.5 1.5q-6 0 -7 -1t2 -6q10 -12 13 -1zM137 -60q0 2 -9 2t-9 -8q0 -9 3 -9q2 0 8.5 6.5t6.5 8.5zM102 -66q0 5 -1.5 6.5t-7.5 1.5h-9l8 -8q2 -2 4 -4.5t4 -3.5l1 -1q1 0 1 9zM485 -29q-7 6 -9 5.5t-2 -8.5q0 -5 1.5 -6.5t6.5 -1.5
q15 0 3 11zM437 -39q9 -2 15 -1t4 11l-1 8zM131 -29q-12 11 -12 -3q0 -8 9 -8q15 0 3 11zM84 -39q16 -2 18 2q0 2 -1 7l-1 9q-2 -3 -7.5 -9t-8.5 -9zM444 -7l11 5h-33v-30l5 10q6 9 17 15zM404 -96v94h-232v-94h232zM154 -13q0 8 -2 9.5t-12 1.5q-12 0 -12 -1t4 -3
q7 -3 22 -18v11zM93 -6q1 3 -9 4h-17v-29l10 12q9 11 16 13zM508 -27v28l-24 -5q-4 -2 2 -3q10 -5 15 -11zM508 19v215h-86v-215h86zM404 20v214h-232v-219h72q41 0 116 3zM154 15v219h-87v-219h87zM508 262v10q-3 0 -13 -10l-11 -11h12q8 0 10 1.5t2 9.5zM440 258
q-11 8 -15 13q-3 -3 -3 -6v-14h29zM110 255q-17 0 -30 12l-13 11v-27h87v14q0 9 -1 9q-1 1 -3 -2q-13 -17 -40 -17zM491 287q0 3 -9 3q-8 0 -8 -11q0 -7 1 -8t5 2q11 9 11 14zM456 281q0 9 -9 9q-7 0 -7.5 -1.5t3.5 -6.5q13 -18 13 -1zM136 285q1 2 -1.5 3.5t-6.5 1.5
q-9 0 -9 -9q0 -7 1.5 -8t6.5 3q7 5 9 9zM102 283q0 7 -7 7q-11 0 -5 -8q6 -9 11 -4q1 1 1 5zM456 314q0 7 -3 7q-4 0 -9 -7q-6 -7 3 -7t9 7zM488 314q-7 13 -12 8q-2 -2 -2 -6q0 -9 8 -9q6 0 7 1.5t-1 5.5zM102 316q0 7 -2.5 8t-6.5 -4q-9 -13 0 -13t9 9zM130 307q17 0 3 13
l-7 4q-4 2 -5.5 1t-1.5 -8t2 -8.5t9 -1.5zM508 331q0 8 -2 9.5t-11 1.5h-12q17 -12 21 -18q4 -2 4 7zM440 336q-2 5 -6 6q-9 0 -10.5 -2t-1.5 -11q0 -10 1 -11l4 5q6 7 13 13zM404 251v91h-232v-91h232zM154 332q0 10 -9 10q-13 0 -5 -5q7 -5 10 -9q3 0 4 4zM84 338
q2 4 -6 4t-9.5 -2t-1.5 -9q0 -8 1 -9t5 4q7 9 11 12zM508 359v215h-86v-215h86zM404 359v215h-232v-215h232zM154 359v215h-87v-215h87zM508 604q0 11 -1 12l-5 -7q-4 -8 -16 -12l-11 -5h33v12zM154 604q0 11 -2 12q-1 0 -3 -5q-1 -4 -13 -12l-11 -7h15q10 0 12 1.5t2 10.5z
M447 595q-5 1 -16 14l-9 11v-28h16q18 0 9 3zM90 598q-12 8 -17 15q-6 -2 -6 -7v-14h33zM491 627q0 3 -9 3q-8 0 -8 -9t2 -9t8.5 6.5t6.5 8.5zM456 621q0 9 -8 9q-10 0 -6 -7q2 -4 8 -7t6 5zM137 627q0 3 -9 3t-9 -9t3 -9q2 0 8.5 6.5t6.5 8.5zM102 621q0 9 -9 9h-9l8 -9
q2 -2 4 -4.5t4 -3.5l1 -1q1 0 1 9zM485 659q-7 6 -9 5.5t-2 -8.5q0 -9 8 -9q16 0 3 12zM437 649q2 0 6.5 -1t6 -1t4.5 1t2.5 3.5t-0.5 6.5l-1 8l-9 -8zM131 659q-12 11 -12 -3q0 -9 9 -9q17 0 3 12zM102 656q0 9 -1 9l-9 -9l-8 -9h9q9 0 9 9zM508 660v25h-33l11 -4
q11 -5 22 -21zM447 682q9 3 -9 3h-16v-28l9 11q11 13 16 14zM404 592v93h-232v-93h232zM154 673v12h-29l11 -6q10 -6 14 -13q4 -2 4 7zM90 679l10 6h-33v-14q0 -12 1 -12t5 5q6 7 17 15zM50 -113v816h476v-816h-476z" />
    <glyph glyph-name="nine" unicode="9" horiz-adv-x="544" 
d="M446 -45q0 1 -9 1q-5 0 -7 -1.5t-2 -7.5v-9l9 8q2 2 4.5 4t3.5 4zM411 -51q0 7 -7 7q-9 0 -4 -7q7 -10 10 -4q1 2 1 4zM411 -19q0 10 -8.5 4t-4.5 -10q2 -1 6 -1q7 0 7 7zM443 -20q-8 14 -13 8l-2 -6q0 -8 9 -8t6 6zM409 9q3 1 9 1q30 0 43 -25q5 -12 5 -21
q0 -18 -12 -30t-31 -12q-31 0 -41 22q-5 12 -5 22q0 35 32 43zM442 346q0 3 -7 3t-7 -7q0 -13 10 -3q4 4 4 7zM411 340q0 9 -9 9h-9l8 -9q2 -2 4 -4.5t3 -3.5l2 -1q1 0 1 9zM435 366q11 0 5 8q-6 9 -11 4q-1 -1 -1 -5q0 -7 7 -7zM411 373q0 7 -3 7q-4 0 -9 -7q-6 -7 3 -7
t9 7zM389 389q12 12 27 12q47 0 47 -44q0 -11 -6.5 -23t-14.5 -17q-7 -4 -20 -4q-20 0 -28 7q-19 13 -19 36q0 19 14 33zM144 346q0 3 -7 3t-7 -7t3 -7q2 0 6.5 4.5t4.5 6.5zM112 340q0 9 -9 9h-9l8 -9q2 -2 4 -4.5t4 -3.5l1 -1q1 0 1 9zM137 366q11 0 5 8q-6 9 -11 4
q-1 -1 -1 -5q0 -7 7 -7zM112 373q0 7 -2 7q-5 0 -10 -7q-6 -7 3 -7t9 7zM90 389q12 12 27 12q48 0 48 -44q0 -11 -7 -23t-15 -17q-7 -4 -20 -4q-19 0 -27 7q-20 14 -20 37q0 18 14 32zM435 612q19 14 2 14q-9 0 -9 -8q0 -6 1 -7t6 1zM411 619q0 7 -7 7q-11 0 -5 -8t11 -4
q1 2 1 5zM441 651q-5 7 -10 7q-3 0 -3 -7t10 -7q9 0 3 7zM411 651l-1 7q-3 0 -8 -7q-6 -7 1 -7q8 0 8 7zM402 675q8 4 18 4q27 0 40 -22q6 -11 6 -22q0 -18 -12.5 -32t-31.5 -14q-11 0 -20 4q-26 11 -26 41t26 41zM144 624q0 2 -7 2t-7 -9t7 -3q7 5 7 10zM112 618
q0 5 -1.5 6.5t-6.5 1.5q-10 0 -6 -7l8 -7q4 -2 5 -1t1 7zM137 644q9 0 4 7q-7 10 -10 4l-1 -4q0 -7 7 -7zM112 651q0 7 -2 7q-5 0 -10 -7q-6 -7 3 -7t9 7zM96 672q11 7 25 7q18 0 31 -12.5t13 -32.5t-13 -32.5t-30 -12.5q-18 0 -32 14t-14 33q0 24 20 36zM477 -85v100h-118
v-100h118zM342 -84v99h-275v-104h41q10 0 32 0.5t53 1.5t52 1zM477 33v257h-118v-257h118zM477 307v101h-118v-101h118zM342 307v101h-153v-101h153zM172 307v101h-101v-101h101zM477 425v142h-118v-142h118zM342 425v142h-153v-142h153zM172 425v142h-101v-142h101z
M477 585v100h-118v-100h118zM342 585v100h-153v-100h153zM172 585v100h-101v-100h101zM51 290v413h443v-809l-52 -1q-4 0 -34 -0.5t-53 -0.5q-19 0 -65 0.5t-70 0.5l-170 1v139h292v257h-291z" />
    <glyph glyph-name="colon" unicode=":" horiz-adv-x="172" 
d="M96 276l2 -3q2 3 0 5q-1 1 -1.5 0.5t-0.5 -2.5zM78 276q0 3 -4 3q-2 -1 3 -7q1 0 1 4zM99 298q0 2 -2 2q-1 0 -1 -2q0 -1 1 -1q2 0 2 1zM72 298q1 -1 3 -1q3 1 2 2l-2 1q-2 -1 -3 -2zM59 310q10 11 26 11q35 0 35 -35t-34 -35q-16 0 -26 10.5t-10 24.5q0 15 9 24zM99 392
q0 2 -2 2q-1 0 -1 -2t1 -2q2 0 2 2zM78 390q0 4 -4 4q-5 0 1 -6q1 -1 2 -1t1 3zM99 413q0 2 -2 2q-1 0 -1 -2t1 -2q2 0 2 2zM78 415q0 3 -1 3q-2 0 -4 -4q-1 -3 1 -3q4 0 4 4zM69 435q12 4 17 4q14 0 24 -10t10 -26q0 -31 -27 -36h-6q-22 0 -31 14q-5 6 -5 19q0 27 18 35z
" />
    <glyph glyph-name="semicolon" unicode=";" horiz-adv-x="200" 
d="M112 323q1 2 -2 4.5t-7 3.5q-8 3 -10 1t-7 -16q-9 -27 -9 -30q0 -4 7 -7q6 -2 7 -2q6 0 14 23q7 22 7 23zM51 271q0 13 31 87l26 -9q25 -9 27 -11v-1q0 -6 -12 -42.5t-16 -40.5h-1q-4 0 -29.5 7t-25.5 10zM127 382q0 1 -3 1q-4 0 -4 -3q0 -6 6 -1q1 2 1 3zM103 382
q0 1 -2 1t-2 -1q0 -2 2 -2t2 2zM103 402q0 2 -2 2t-2 -2q0 -1 2 -1t2 1zM124 401q2 1 -2 7q-2 0 -2 -4q0 -3 4 -3zM78 393q0 14 10.5 24.5t24.5 10.5q15 0 25 -9.5t10 -25.5q0 -15 -9 -25.5t-24 -10.5q-9 0 -14 2q-23 7 -23 34z" />
    <glyph glyph-name="question" unicode="?" horiz-adv-x="427" 
d="M167 14q0 1 -2 1t-2 -1q0 -2 2 -2t2 2zM146 14q0 1 -2 1t-2 -1q0 -2 2 -2t2 2zM167 33q2 1 -3 7q-1 0 -1 -4q0 -3 4 -3zM146 36q0 4 -2 4l-4 -6l2 -1q4 0 4 3zM130 52q8 8 24 8q17 0 26.5 -10t9.5 -24t-10 -25t-26 -11t-26 10.5t-10 24.5q0 15 12 27zM174 99v270h-42
v-270h42zM358 387v41h-46v-41h46zM295 387v41h-163v-41h163zM358 446v153h-46v-153h46zM358 616v42h-46v-42h46zM295 616v42h-226v-42h226zM52 599v76h323v-306h-184v-288h-77v365h181v153h-243z" />
    <glyph glyph-name="A" unicode="A" horiz-adv-x="500" 
d="M397 216q0 1 -8 1q-9 0 -9 -10v-9l9 8q8 8 8 10zM362 208q0 9 -11 9h-10l8 -9q9 -9 11 -9t2 9zM390 243q-8 8 -9 8t-1 -8q0 -9 9 -9h9zM362 243q0 8 -2 8q-3 0 -11 -8l-8 -9h10q11 0 11 9zM347 266q11 6 22 6q18 0 32 -13.5t14 -33.5q0 -22 -13 -34t-32 -12t-32.5 12.5
t-13.5 33.5q0 27 23 41zM147 202q6 4 8.5 8.5t-6.5 6.5q-9 0 -9 -9q0 -6 1 -7t6 1zM123 208q0 9 -9 9q-16 0 -2 -12q7 -6 9 -5.5t2 8.5zM153 241q-10 12 -13 2q0 -9 9 -9q6 0 6.5 1t-2.5 6zM123 243q0 15 -12 2q-6 -7 -5.5 -9t8.5 -2q9 0 9 9zM106 265q11 7 24 7
q18 0 32.5 -13.5t14.5 -31.5q0 -5 -2 -13q-10 -35 -45 -35q-14 0 -24 7q-21 14 -21 39q0 26 21 40zM376 553q19 14 2 14q-9 0 -9 -8q0 -6 1.5 -7t5.5 1zM352 559q0 8 -9 8q-14 0 -2 -11q7 -6 9 -5.5t2 8.5zM383 592q-13 15 -14 2q0 -9 9 -9q7 0 7.5 1t-2.5 6zM352 593
q0 15 -11 3q-4 -5 -5 -7t0.5 -3t6.5 -1q9 0 9 8zM336 616q10 6 23 6q19 0 34 -13t15 -32q0 -18 -15 -33t-32 -15q-21 0 -34 14.5t-13 33.5q0 26 22 39zM158 566q0 1 -9 1q-5 0 -7 -1.5t-2 -7.5v-9l9 8q2 2 4.5 4t3.5 3zM123 559q0 8 -9 8q-14 0 -2 -11q7 -6 9 -5.5t2 8.5z
M155 591q-8 14 -13 8q-2 -2 -2 -6q0 -8 9 -8q6 0 7 0.5t-1 5.5zM123 593q0 17 -12 3q-6 -7 -5.5 -9t8.5 -2q9 0 9 8zM105 615q11 8 27 8q28 0 40 -26q5 -13 5 -22q0 -14 -9 -26q-15 -19 -38 -19q-18 0 -31.5 13t-13.5 33q0 26 20 39zM432 -85v236h-125v-236h125zM192 -85
v236h-125v-236h125zM430 277l-3 16h-120v-125h125v47q0 44 -2 62zM290 168v125h-80v-125h80zM192 168v125h-125v-125h125zM428 310v188h-126l3 -34q2 -38 2 -94v-60h121zM288 482l-3 16h-75v-188h80v78q0 76 -2 94zM192 310v188h-125v-188h125zM428 515v125h-125v-125h125z
M286 515v125h-81l2 -37q3 -60 3 -62v-26h76zM190 624l-2 16h-121v-125h125v47q0 44 -2 62zM50 -103v761h396v-117q0 -91 2 -381l2 -263h-160v254h-80v-254h-160z" />
    <glyph glyph-name="B" unicode="B" horiz-adv-x="570" 
d="M140 -75q0 10 -2 10q-1 0 -3 -5q-1 -4 -13 -10l-11 -5h15q8 0 10 0.5t3 2t1 7.5zM90 -81q-10 5 -23 21v-25h33zM477 -58q0 4 -3 4q-4 0 -4 -4q0 -3 4 -3q3 0 3 3zM453 -58q0 4 -4 4q-3 0 -3 -4q0 -3 3 -3q4 0 4 3zM123 -56q0 2 -5 2q-6 0 -6 -6q0 -8 11 4zM95 -58
q0 4 -4 4q-5 0 1 -6q1 -1 2 -1t1 3zM474 -37q2 1 -2 7q-2 0 -2 -3q0 -4 4 -4zM453 -33q0 3 -2 3l-4 -6l2 -1q4 0 4 4zM116 -37q6 0 1 6q-2 1 -3 1q-2 0 -2 -3q0 -4 4 -4zM95 -33q0 3 -1 3q-2 0 -4 -4q-1 -3 1 -3q4 0 4 4zM461 -9q37 0 37 -37q0 -18 -9 -26q-12 -10 -15 -11
q-2 -1 0 -1l11 -1h16v79h-79v-79h16l12 2h-1q-5 1 -14 11q-10 9 -10 26t10 27t26 10zM404 -85v79h-246v-79h246zM140 -27v21h-73v-23l10 10q11 11 26 11q14 0 27 -10zM404 12v260h-246v-260h246zM140 12v260h-7q-1 0 -14.5 -1t-22.5 -1l-29 -2v-256h73zM104 297
q-17 0 -27 10l-10 10v-27h73v27l-10 -10q-10 -10 -26 -10zM119 323q0 1 -3 1q-4 0 -4 -4q0 -5 6 1q1 1 1 2zM95 321q0 3 -4 3q-2 -1 3 -7q1 0 1 4zM116 342q4 1 -2 7q-2 0 -2 -4q0 -3 4 -3zM95 345q0 4 -1 4l-4 -6l1 -1q4 0 4 3zM483 294q-3 4 -40 44l-21 23v-349h79v261z
M404 324q0 35 -1 35q-46 -46 -70 -69h71v34zM390 375q0 1 -31 1h-31v-64l31 31zM310 290v86h-152v-86h152zM140 351v25h-73v-27l10 10q11 11 26 11q14 0 27 -10zM310 394v146h-152v-146h152zM140 394v146h-73v-146h73zM130 574q-10 -10 -26 -10q-24 0 -32 18q-4 7 -5 3v-11
v-17h73v27zM119 590q0 2 -3 2q-4 0 -4 -4q0 -6 6 -1q1 2 1 3zM95 588q0 4 -4 4q-5 0 1 -6q1 -1 2 -1t1 3zM404 394v146q-12 13 -37.5 39t-38.5 39v-224h76zM95 612q0 4 -1 4l-4 -6l1 -1q4 0 4 3zM118 609q8 0 -4 10q-2 0 -2 -5t6 -5zM310 557v83h-152v-83h152zM140 629
q0 8 -2 9.5t-11 1.5h-13l11 -6q12 -8 13 -12q1 4 2 7zM90 637q0 2 -8 3q-11 0 -13 -1.5t-2 -10.5v-13l8 9q9 12 15 13zM181 658q72 1 136 1q3 -1 8 -1q3 0 3 -6q0 -5 47 -54l47 -49v-158q32 -35 96 -107l1 -193v-194h-469v761h131z" />
    <glyph glyph-name="C" unicode="C" horiz-adv-x="510" 
d="M158 -29q0 3 -9 3t-9 -9t3 -9q2 0 8.5 6.5t6.5 8.5zM123 -35q0 9 -11 9h-11l8 -9q9 -9 11 -9q3 0 3 9zM149 -9q15 1 -2 17q-3 2 -4.5 2.5t-2 -1.5t-0.5 -7q0 -11 9 -11zM111 -8q9 -2 11 0t0 11l-1 10l-20 -20zM85 -19q0 48 48 48q19 0 32 -13t13 -31q0 -49 -46 -49h-5
q-20 2 -31 14t-11 31zM158 592q0 3 -9 3q-6 0 -7.5 -2.5t-1.5 -10.5l1 -13l8 10q9 9 9 13zM123 583q0 8 -1.5 10t-9.5 2q-10 0 -10 -2q0 -7 15 -18q5 2 6 8zM151 624q-7 6 -9 5.5t-2 -8.5q0 -9 9 -9q15 0 2 12zM123 621q0 9 -3 9q-2 0 -11 -9l-8 -9h11q11 0 11 9zM99 638
q13 13 22 13q1 0 5.5 -0.5t7.5 -0.5q20 -1 31 -12q12 -11 13 -34v-12q0 -12 -13 -25q-10 -10 -14.5 -12t-18.5 -2q-20 0 -34 14q-9 9 -11 14t-2 21q0 15 2 20.5t12 15.5zM442 -82v129h-229v-129h229zM196 -82v129h-129v-129h129zM196 64v455h-129v-455h129zM442 536v132
h-229v-132h229zM196 536v132h-129v-132h129zM50 -99v784h410v-166h-247v-455h247v-163h-410z" />
    <glyph glyph-name="D" unicode="D" horiz-adv-x="794" 
d="M158 -29q0 3 -9 3t-9 -9t3 -9q2 0 8.5 6.5t6.5 8.5zM123 -35q0 9 -9 9q-16 0 -2 -12q7 -6 9 -5.5t2 8.5zM151 -9q17 0 3 13q-4 3 -7 4q-5 2 -6 1t-1 -8t2 -8.5t9 -1.5zM110 -8q10 -2 12 0t0 12l-1 10l-10 -11l-11 -10zM111 26q13 6 20 6q5 0 20 -5q28 -12 28 -42
q0 -20 -13.5 -35t-34.5 -15q-20 0 -33 14t-13 35q0 30 26 42zM157 589q2 5 1.5 5.5t-7.5 0.5t-9 -1.5t-2 -8.5q3 -9 7 -6.5t10 10.5zM123 584q0 11 -9 11q-8 0 -8 -3t8 -11l9 -8v11zM154 621q-9 9 -11 9q-3 0 -3 -9t11 -9h11zM123 621q0 17 -12 3q-11 -12 3 -12q9 0 9 9z
M85 606q1 44 50 44q17 0 30 -13t13 -33q0 -21 -13 -34t-33 -13q-14 0 -19 2t-15 12q-13 13 -13 25v10zM442 -70v117h-47q-22 -24 -34 -35q54 -54 81 -82zM333 12q12 11 34 35h-154v-129h214zM196 -82v129h-129v-129h129zM717 187l-44 44q-1 0 -1 -45v-44q21 24 45 45z
M654 125q-12 1 -36 1t-36 1q0 17 -1 52t-1 52l-167 -167h47v-134q130 130 194 195zM641 263q-13 13 -15 13q-1 0 -15 -14l-12 -13v-105h55v106zM654 291q0 11 -1 11.5t-7 -5.5q-6 -7 1 -13q7 2 7 7zM607 297q-7 7 -8 5v-11q0 -10 1 -11l6 4q7 6 1 13zM695 419l-22 23
q-1 0 -1 -45v-46l44 44zM654 333q0 22 -1 66t-1 66q-9 1 -26.5 1t-26.5 1v-134l13 -14l14 -13q10 9 28 27zM581 322q-32 34 -97.5 100t-98.5 100h-172v-458h172l196 196v62zM196 64v458h-129v-458h129zM581 484q8 0 24.5 1t24.5 1l-170 170v-133l-22 -1l-23 -2
q28 -28 83.5 -84.5t82.5 -85.5v134zM442 597q0 57 -1 57l-80 -80l34 -34h47v57zM333 574l94 94h-214v-128h154zM196 540v128h-129v-128h129zM449 688q1 0 103.5 -102t111.5 -102q8 0 8 -8t10 -18q8 -8 36 -38l24 -27l-70 -70v-63l34 -35q35 -35 35 -38t-143 -146l-143 -142
q-68 1 -203 1t-202 1v784l199 1q198 0 200 2z" />
    <glyph glyph-name="E" unicode="E" horiz-adv-x="513" 
d="M161 -29q0 3 -9 3q-8 0 -8 -12v-10l8 8q9 9 9 11zM126 -37q0 7 -1.5 9t-8.5 2t-8 -1t1 -6q4 -8 10 -11q5 -2 6 -1t1 8zM157 -1q-13 18 -13 1q0 -9 9 -9q7 0 7.5 1.5t-3.5 6.5zM126 0q0 19 -17 -3q-3 -5 -2 -5.5t9 -0.5q6 0 8 1.5t2 7.5zM114 26q9 3 18 3q31 0 44 -24
q6 -12 6 -24q0 -19 -14 -33t-35 -14q-20 0 -33.5 13.5t-13.5 32.5q0 17 12 32q11 13 16 14zM154 593q0 2 -9 2q-8 0 -8 -9q0 -8 3 -8q2 0 8 6.5t6 8.5zM119 586q0 6 -1.5 7.5t-8.5 1.5t-8.5 -1t1.5 -5q17 -22 17 -3zM148 624q-7 6 -9 5.5t-2 -8.5q0 -9 8 -9q17 0 3 12z
M98 614q5 -1 13 -1q9 0 9 7v2q-1 2 -1 3l-1 9zM102 645q8 5 25 5q16 0 24 -4q10 -5 17 -17.5t7 -24.5q0 -21 -14 -34t-37 -13q-16 0 -29 13q-14 14 -14 32q0 31 21 43zM446 -82v129h-229v-129h229zM199 -78v125h-132v-125h132zM199 64v132h-132v-132h132zM199 213v129h-132
v-129h132zM362 213v132l-49 -1q-60 0 -73 -1l-23 -2v-128h145zM199 362v160h-132v-164l29 2q32 2 66 2h37zM446 540v128h-229v-128h229zM199 540v128h-132v-128h132zM50 -99v784h413v-163h-246v-160h163v-166h-163v-132h246v-163h-413z" />
    <glyph glyph-name="F" unicode="F" horiz-adv-x="594" 
d="M154 307q0 3 -7 3t-7 -7q0 -11 11 0q3 3 3 4zM123 303q0 7 -9 7t-3 -7q5 -6 9 -6q3 0 3 6zM155 334q-8 14 -13 8q-2 -2 -2 -6q0 -8 9 -8t6 6zM123 336q0 16 -12 3q-6 -7 -5.5 -9t8.5 -2q9 0 9 8zM111 361q8 4 19 4q19 0 33.5 -13.5t14.5 -31.5q0 -16 -15 -30t-31 -14
q-24 0 -40 19q-8 9 -7 28q3 28 26 38zM158 601q0 1 -9 1q-5 0 -7 -1.5t-2 -7.5v-9l9 8q2 2 4.5 4t3.5 4zM123 593q0 9 -9 9q-17 0 1 -13q5 -4 6.5 -3.5t1.5 7.5zM152 626q-5 7 -9 7q-3 0 -3 -7t10 -7q6 0 6.5 1t-4.5 6zM123 626q0 10 -11 4q-7 -4 -6 -7.5t8 -3.5q9 0 9 7z
M107 649q12 6 24 6q19 0 32.5 -13t13.5 -31t-14 -32q-12 -12 -29 -12q-16 0 -28 6q-21 11 -21 38q0 28 22 38zM192 -85v329h-12q-1 0 -24 -1t-39 -1l-50 -1v-326h125zM432 262v118h-222v-118h222zM192 262v118h-125v-118h125zM192 397v139h-125v-139h125zM522 553v115h-312
v-115h312zM192 553v115h-125v-115h125zM50 -103v788h490v-149h-330v-139h239v-153h-239v-347h-160z" />
    <glyph glyph-name="G" unicode="G" horiz-adv-x="541" 
d="M154 -35l8 9h-11q-11 0 -11 -9t3 -9q2 0 11 9zM123 -35q0 9 -9 9q-11 0 -6 -8l8 -7q4 -2 5.5 -1t1.5 7zM151 -9q17 0 3 13q-4 3 -7 4q-5 2 -6 1t-1 -8t2 -8.5t9 -1.5zM123 1q0 6 -0.5 8t-2.5 1t-7 -6q-13 -13 1 -13q6 0 7.5 1.5t1.5 8.5zM112 26q9 5 22 5
q19 0 32.5 -14.5t13.5 -33.5q0 -11 -4 -19q-12 -28 -43 -28q-12 0 -24 6q-24 14 -24 41q0 29 27 43zM158 588q2 4 1 5.5t-8 1.5t-9 -1.5t-2 -8.5t1 -8t6 1q8 4 11 10zM123 586q0 9 -9 9q-14 0 -2 -11q5 -4 7 -5t3 0.5t1 6.5zM123 621q0 17 -12 3q-11 -12 3 -12q9 0 9 9z
M158 619q-4 7 -11 11q-5 2 -6 1t-1 -8t2 -9t9 -2t8 1t-1 6zM107 644q14 7 26 7t26 -7q8 -5 15.5 -18t7.5 -23q0 -9 -8.5 -23t-15.5 -18q-8 -5 -24 -5t-25 5q-24 12 -24 41q0 28 22 41zM408 -59q-11 7 -17 14l-8 9v-46h91v22q0 18 -1 18t-5 -5q-11 -17 -38 -17q-12 0 -22 5z
M456 -29q0 3 -8 3q-9 0 -9 -9t3 -9q2 0 8 6.5t6 8.5zM422 -35q0 9 -12 9h-10l8 -9q9 -9 11 -9q3 0 3 9zM448 -9q14 1 -3 17q-5 3 -5.5 2.5t-0.5 -8.5q0 -11 9 -11zM409 -8q10 -2 11.5 0t0.5 12l-1 10l-21 -21zM474 8v42h-91v-47l9 11q13 18 40 18q2 0 4.5 -0.5t3.5 -0.5
q8 -1 22 -13zM366 -82v132h-149v-132h149zM199 -82v132h-128v-132h128zM474 67v91h-91v-91h91zM468 207q-14 -18 -38 -18q-29 0 -41 20q-5 7 -6 4v-16v-22h91v20q0 16 -2 16q-1 1 -4 -4zM456 225q0 2 -8 2q-9 0 -9 -9q0 -8 3 -8q2 0 8 6.5t6 8.5zM422 217q0 7 -2 8.5t-9 1.5
q-16 0 -4 -11q2 -3 6 -5q6 -4 7.5 -3t1.5 9zM450 256q-7 6 -9 5.5t-2 -8.5q0 -9 9 -9q16 0 2 12zM409 245q10 -1 11.5 0.5t0.5 11.5l-1 10l-11 -10l-10 -11zM474 277v20h-91v-22q0 -19 1 -19t5 6q12 21 41 21q26 0 38 -18q5 -7 6 -1v13zM366 175v122h-56v-122h56zM199 67
v455h-132v-455h132zM474 540v128h-257v-128h257zM199 540v128h-132v-128h132zM50 -99v784h441v-163h-274v-455h149v91h-73v156h198v-413h-441z" />
    <glyph glyph-name="H" unicode="H" horiz-adv-x="586" 
d="M476 278q4 5 3.5 6.5t-7.5 1.5q-9 0 -9 -9q0 -17 13 1zM446 277q0 9 -11 9q-8 0 -8 -3q0 -4 7 -9t10 -5q2 0 2 8zM474 315q-7 6 -9 5.5t-2 -8.5q0 -9 9 -9q15 0 2 12zM433 304q10 -2 11.5 0t0.5 12l-1 10l-21 -21zM404 296q0 20 14.5 33t37.5 13q18 0 30 -12
q15 -15 15 -35q0 -19 -13 -33t-34 -14q-14 0 -26 6q-8 5 -16 19t-8 23zM158 284q0 2 -9 2t-9 -9q0 -8 3 -8q2 0 8.5 6.5t6.5 8.5zM123 277q0 9 -11 9q-5 0 -7 -0.5t-1.5 -1.5t2.5 -4q17 -22 17 -3zM158 306q0 2 -9 11l-9 8v-10q0 -12 9 -12t9 3zM110 304q10 -2 12 0t0 12
l-1 10l-21 -21zM103 335q12 7 28 7q18 0 28 -8q20 -15 20 -40q0 -13 -7 -24q-13 -22 -40 -22q-16 0 -30 9.5t-18 26.5q-1 3 -1 11q0 28 20 40zM519 -82v295h-132v-295h132zM196 -82v295h-129v-295h129zM519 231v128h-132v-128h132zM369 231v128h-156v-128h156zM196 231v128
h-129v-128h129zM519 376v292h-132v-292h132zM196 376v292h-129v-292h129zM50 -99v784h163v-309h156v309h167v-784h-167v312h-156v-312h-163z" />
    <glyph glyph-name="I" unicode="I" horiz-adv-x="402" 
d="M227 -15q0 3 -9 3q-8 0 -8 -12v-10l8 8q9 9 9 11zM192 -23q0 7 -1.5 9t-8.5 2q-17 0 -2 -14q6 -5 8 -6t3 1t1 8zM224 11q-7 13 -12 9q-2 -2 -2 -6q0 -9 8 -9q6 0 7 0.5t-1 5.5zM192 14q0 8 -2 8q-4 0 -12 -8l-8 -9h11q11 0 11 9zM175 35q13 8 24 8q19 0 34 -15t15 -34
q0 -11 -8 -24q-16 -23 -41 -23q-18 0 -32.5 13.5t-14.5 34.5q0 25 23 40zM227 585q0 3 -9 3q-8 0 -8 -11v-11l8 8q9 9 9 11zM192 578q0 7 -1.5 8.5t-8.5 1.5t-8 -1t1 -6q3 -7 10 -10q5 -2 6 -1t1 8zM224 612q-7 13 -12 8q-2 -2 -2 -6q0 -5 1.5 -6.5t6.5 -1.5q9 0 6 6z
M192 614q0 20 -17 -2q-3 -4 -2 -5t9 -1q7 0 8.5 1.5t1.5 6.5zM182 641q7 3 16 3q20 0 35 -14t15 -34q0 -22 -15 -35t-35 -13q-39 0 -46 38q0 1 -0.5 3.5t-0.5 3.5q0 14 9 29t22 19zM335 -78v145h-56v-145h56zM262 -78v145h-129v-145h129zM116 -78v145h-49v-145h49zM262 85
v420h-129v-420h129zM335 522v146h-56v-146h56zM262 522v146h-129v-146h129zM116 522v146h-49v-146h49zM50 505v180h302v-180h-73v-420h73v-181h-67q-59 0 -151 -2l-84 -2v185h66v420h-66z" />
    <glyph glyph-name="J" unicode="J" horiz-adv-x="714" 
d="M420 -25q0 9 -9 9h-9l8 -9q8 -8 9 -8t1 8zM458 -15q0 2 -2 2q-9 -2 -12 -4t-3 -8v-9l9 8q8 8 8 11zM451 14q-8 8 -9 8t-1 -8q0 -9 9 -9h9zM420 14q0 8 -1 8t-9 -8l-8 -9h9q9 0 9 9zM406 35q10 7 23 7q19 0 34.5 -13.5t15.5 -32.5q0 -10 -6 -22q-13 -27 -43 -27
q-18 0 -32.5 13t-14.5 35q0 26 23 40zM150 -29q4 3 5.5 4.5t3 4t-0.5 3.5t-7 1q-9 0 -9 -9q0 -7 1.5 -7.5t6.5 3.5zM125 -25q0 9 -9 9q-17 0 1 -13q5 -4 6.5 -3.5t1.5 7.5zM153 16q-5 4 -7 5t-3 -0.5t-1 -6.5q0 -9 9 -9q14 0 2 11zM125 14q0 10 -10 3q-17 -12 1 -12q9 0 9 9
zM112 38q12 5 22 5q19 0 32.5 -14t13.5 -35t-13 -34t-32 -13q-13 0 -23 5q-26 12 -26 43t26 43zM455 585q0 3 -11 3q-7 0 -8.5 -2t-1.5 -9q2 -8 4 -8q17 11 17 16zM417 577q0 11 -9 11t-9 -3q0 -2 9 -11l9 -8v11zM451 612q-14 14 -16 9q-1 -2 -1 -7q0 -8 11 -8q10 0 6 6z
M397 607q16 -3 19 0q1 2 0.5 4.5t-1 7.5t-0.5 6zM403 638q11 6 23 6q20 0 32 -12q17 -16 17 -37q0 -19 -13.5 -33t-33.5 -14q-4 0 -14 2q-16 4 -25.5 17.5t-9.5 29.5q0 27 24 41zM496 -78v145h-132v-145h132zM347 -78v145h-128v-145h128zM198 -78v145h-129v-145h129zM198 85
v156h-129v-156h129zM493 447v58h-133l2 -23q2 -26 2 -210v-187h133l-2 151q-2 166 -2 211zM493 522v146h-132v-146h132zM344 522v146h-129v-146h129zM639 522v150l-39 -1q-12 0 -35 -1t-29 -1l-26 -1v-146h129zM301 686q91 0 229 2l125 1l2 -44q3 -75 3 -92v-48h-150l2 -300
l3 -301h-463v358h167v-177h128v204q0 204 -2 210t-75 6h-72v180z" />
    <glyph glyph-name="K" unicode="K" horiz-adv-x="610" 
d="M197 191q0 3 0.5 10.5t0.5 11.5t-0.5 11.5t-0.5 10.5l-1 23q-30 -26 -45 -40q19 -23 45 -49zM144 196q-13 13 -28 29t-24 25.5t-11 11.5l-8 8v-324h125v193zM448 54q-37 39 -87.5 97t-81.5 92l-45 49q-3 -2 -9.5 -7t-9.5 -8v-127l20 -23l37 -42q38 -42 66 -72l83 -91
l27 25q27 25 38 38q8 10 8 13q0 6 -46 56zM166 282q6 4 8.5 8.5t-6.5 6.5q-8 0 -8 -9q0 -8 2 -8q1 0 4 2zM142 288q0 9 -8 9q-16 0 -3 -12q7 -6 9 -5.5t2 8.5zM197 292q2 2 0 6q-2 0 -2 -4zM198 305q0 2 -2 2t-2 -2t2 -2t2 2zM170 323q-8 8 -9 8t-1 -8q0 -9 9 -9h9zM142 323
q0 10 -10 3q-17 -12 2 -12q8 0 8 9zM107 325q6 10 -2 3l-13 -14l-17 -17l29 -31q30 -32 31 -32q2 0 14 12l12 12h-12q-24 0 -38 22q-7 10 -7 28q0 11 3 17zM197 345q0 34 -2 50l-2 14l-32 -31q-26 -25 -26 -28q0 -1 2 -1l1 1h3q3 1 9 1q14 0 27 -9t17 -23l1 -3q2 0 2 29z
M194 437v224h-126l2 -70q3 -117 3 -169v-98l11 9q13 11 61 57zM505 574l24 24q-10 11 -30.5 33t-31.5 33l-127 -117q-126 -117 -128 -124v-8q0 -30 1 -51l3 -54l9 6q7 5 13 10q39 39 267 248zM339 572q126 117 129 117t45 -45.5t42 -48.5q0 -2 -16.5 -19t-43 -42t-59 -54.5
t-64.5 -59t-58.5 -53t-43.5 -39.5l-17 -15q-3 -3 -3 -5q0 -7 111 -129q86 -94 94 -104q12 -15 43 -48l27 -29l-19 -20q-15 -17 -49.5 -49t-36.5 -32t-99.5 105.5t-100.5 111.5v1q-3 0 -4 -90l-1 -97h-160v182q0 184 -3 185q-4 3 0 7q3 4 3 102v89l-2 185h159v-111l1 -111z
" />
    <glyph glyph-name="L" unicode="L" horiz-adv-x="653" 
d="M158 -29q0 3 -9 3t-9 -9t3 -9q2 0 8.5 6.5t6.5 8.5zM123 -35q0 9 -9 9q-16 0 -2 -12q7 -6 9 -5.5t2 8.5zM151 2q-5 4 -7 5t-3 -0.5t-1 -6.5q0 -9 9 -9q14 0 2 11zM123 0q0 15 -12 2q-6 -7 -5.5 -9t8.5 -2q9 0 9 9zM109 28q13 5 25 5q20 0 32 -13.5t12 -36.5
q0 -27 -20 -40q-11 -8 -26 -8q-19 0 -33 13.5t-14 33.5q0 12 7.5 26.5t16.5 19.5zM585 -82v132h-372v-132h372zM196 -82v132h-129v-132h129zM196 67v594h-129v-594h129zM50 -99v777h163v-611h389v-166h-552z" />
    <glyph glyph-name="M" unicode="M" horiz-adv-x="737" 
d="M397 381q0 2 -10 2q-7 0 -9 -1.5t-2 -8.5q0 -11 3 -11q2 0 10 8.5t8 10.5zM359 373q0 7 -2 8.5t-9 1.5q-16 0 -2 -13q6 -5 8.5 -6t3.5 1t1 8zM387 401q17 0 3 13l-7 4q-5 2 -6 1t-1 -8t2 -8.5t9 -1.5zM346 401q1 0 2.5 -0.5t2.5 -0.5q8 0 8 8q0 3 -2 15l-21 -21zM350 437
q9 3 18 3q29 0 42 -20q8 -13 8 -26q0 -20 -14.5 -36t-34.5 -16q-23 0 -37 15t-14 35q0 33 32 45zM508 368q0 8 -3 8t-61 -47l-58 -48l15 -13q15 -13 19 -13q5 0 46.5 53t41.5 60zM295 328q-61 48 -62 48q-6 0 -6 -10q0 -3 13 -20t28 -35t29 -34.5t14 -17.5l6 -8q19 16 38 29
zM486 391q0 2 -57.5 47.5t-60.5 45.5q-4 0 -60.5 -46.5t-55.5 -48.5l60 -49l58 -47l37 31q79 64 79 67zM661 213l-1 292q-4 -1 -68.5 -55.5t-65.5 -57.5q-2 -5 6 -11q7 -5 7 -9t-7 -12q-6 -8 -6 -112v-112v-214h135v291zM210 389q0 7 -68 62l-68 54v-583h136v431l-16 16
q16 13 16 20zM508 501q0 98 -1 98q-28 -23 -62 -50l-61 -50l59 -47q60 -47 62 -47q3 0 3 96zM350 498q0 3 -29 27t-59 47l-29 22q-1 1 -2 1q-4 0 -4 -92q0 -96 5 -97q1 0 30 21t58.5 44t29.5 27zM657 528q0 4 -9 17t-22 29.5t-26 32t-24 27.5l-10 13q-9 -7 -20 -16l-20 -16
v-194l16 13q15 13 46 37.5t50 39.5t19 17zM210 421v193q-7 6 -20.5 17t-20.5 16l-46 -57q-45 -56 -45 -60q0 -3 51 -45q15 -13 39 -31t27 -21zM661 612v49h-80l37 -46q39 -49 40 -49q3 0 3 46zM550 660q0 1 -12 1q-8 0 -10 -1.5t-2 -9.5v-10l12 9q12 9 12 11zM210 651
q0 7 -2 8.5t-13 1.5h-14l13 -10q13 -11 14 -11q2 0 2 11zM152 658q0 3 -38 3h-40v-101l37 46q41 51 41 52zM57 608v70h170v-54q24 -19 71.5 -56t70.5 -56q23 19 69.5 56.5t69.5 56.5v53h170v-67q0 -65 6 -76q6 -8 0 -10t-6 -312v-309h-170v424l-38 -47q-32 -41 -43 -52h-1
q-5 0 -30 19l-26 21l-12 -10q-22 -18 -28 -23l-16 -13q-42 50 -85 106q-1 -70 -1 -212t-1 -212l-32 -2q-34 -2 -85 -2h-53v307q0 307 -4 314t0 11t4 75z" />
    <glyph glyph-name="N" unicode="N" horiz-adv-x="647" 
d="M517 -10q5 8 -6 8q-7 0 -8.5 -1.5t-1.5 -8.5q0 -16 11 -4q3 2 5 6zM484 -13q0 7 -2 9t-9 2q-16 0 -4 -11l7.5 -6t4.5 -2t2.5 2t0.5 6zM518 22q-4 6 -10 10q-4 2 -5.5 1.5t-1.5 -7.5t1.5 -9t8.5 -2t8 1.5t-1 5.5zM471 16q10 -2 11.5 0t0.5 12l-1 10l-21 -21zM478 55
q3 1 10 1q24 0 40 -18q11 -12 11 -30q0 -32 -27 -45q-10 -5 -22 -5q-19 0 -33 14.5t-14 34.5q0 10 2 16q3 11 13 20.5t20 11.5zM182 547q2 5 1 5.5t-8 0.5t-9 -1.5t-2 -8.5t1 -8t6 1q7 4 11 11zM147 543q0 7 -2 8.5t-9 1.5q-18 0 0 -13l2 -2q6 -4 7.5 -3t1.5 8zM175 571
q17 0 3 13q-4 3 -7 4q-5 2 -6 1t-1 -8t2 -8.5t9 -1.5zM134 572q10 -2 12 0t0 12l-1 9q-14 -14 -21 -20zM134 608q12 5 22 5q20 0 34 -14t14 -35q0 -30 -22 -43q-8 -5 -26 -5q-20 0 -27 5q-22 13 -22 42q0 33 27 45zM440 -92q9 0 -3 14q-2 0 -2 -7t5 -7zM567 -66q0 25 -4 25
q-1 0 -6 -3q-9 -6 -44 -26l-38 -22h92v26zM503 110q-64 110 -67 113v-9q-1 -8 -1 -29.5v-38.5v-52v-130l12 -22l13 -20l14 8q3 2 11.5 7t21 11.5t20.5 11.5q39 22 39 30q0 10 -63 120zM155 411q-13 23 -30.5 52.5t-26 44t-9.5 16.5h-1q-4 0 -4 -298v-304h132v383zM418 127
v130q-85 144 -184 319v-263l89 -155q90 -156 92 -158q1 -1 1.5 15.5t1 47t0.5 64.5zM205 625q-12 20 -13 20q-6 0 -55 -28q-34 -20 -43 -26.5t-9 -11.5q0 -10 65 -122l64 -112l2 130v131zM216 653q0 8 -5 8q-6 -1 4 -13zM140 640l36 21h-92v-52l10 5q14 8 46 26zM567 351
v314l-55 -1q-54 0 -66 -2l-11 -1v-396l65 -112q63 -110 66 -113v21q1 21 1 73v92.5v124.5zM52 589q2 1 5 3q7 4 8.5 8.5t1.5 25.5v13v39h167v-64q85 -144 184 -319v387h166v-337q0 -242 1 -291t7 -60q8 -14 2 -17q-3 -3 -7 -3q-3 0 -3 -42v-42h-166v66l-183 315l-1 -183
v-184h-167v660q-3 4 -8 12.5t-7 12.5z" />
    <glyph glyph-name="O" unicode="O" horiz-adv-x="550" 
d="M143 580q3 6 2.5 7t-6.5 1q-4 0 -5.5 -0.5t-2.5 -2.5t-1 -7q0 -14 7 -7q3 3 6 9zM112 578q0 7 -1.5 8.5t-6.5 1.5q-8 0 -8.5 -2.5t5.5 -10.5q11 -16 11 3zM143 613q-13 18 -13 2q0 -9 9 -9q7 0 7.5 1t-3.5 6zM112 614q0 15 -11 3q-6 -7 -5.5 -9t8.5 -2q5 0 6.5 1.5
t1.5 6.5zM96 637q10 7 24 7q31 0 42 -26q5 -12 5 -22q0 -26 -23 -41q-13 -8 -25 -8q-10 0 -19 4q-26 11 -26 44q0 29 22 42zM411 -28q-9 6 -15 15q-5 8 -6 2v-20v-27h91v27q0 22 -1 23l-5 -5q-13 -21 -42 -21q-13 0 -22 6zM459 -3q4 5 3.5 6.5t-7.5 1.5q-9 0 -9 -9
q0 -17 13 1zM428 -4q0 4 -0.5 5.5t-2.5 2.5t-7 1q-8 0 -8 -4q0 -3 6.5 -8t9.5 -5q2 0 2 8zM144 2q0 3 -9 3t-9 -9q0 -8 3 -8q2 0 8.5 6t6.5 8zM109 -4q0 9 -9 9q-16 0 -2 -12q7 -6 9 -5.5t2 8.5zM460 25q0 4 -7 9q-7 0 -7 -2q0 -10 7 -10t7 3zM428 31q0 14 -11 2
q-6 -7 -5.5 -9t8.5 -2t8 9zM137 31q-9 9 -10 9t-1 -9t10 -9h9zM109 31q0 10 -10 3q-17 -12 1 -12q9 0 9 9zM481 32v49h-91v-49l12 12q16 16 35 16q20 0 35 -17zM373 -58v139h-184v-139h184zM172 -58v139h-101v-54l6 10q13 22 39 22t41 -23q8 -13 8 -24q0 -18 -13.5 -31.5
t-33.5 -13.5q-26 0 -39 20l-8 12v-57h101zM481 99v406h-91v-406h91zM373 99v406h-184v-406h184zM172 99v406h-105v-406h105zM472 568q-15 -17 -36 -17q-23 0 -37 17l-9 10v-56h91v56zM463 587q0 1 -8 1q-5 0 -7 -1.5t-2 -7.5v-9l9 8q8 8 8 9zM428 580q0 5 -1.5 6.5t-6.5 1.5
q-15 0 -3 -11q7 -6 9 -5.5t2 8.5zM459 612q-10 12 -13 2q0 -8 9 -8q8 0 4 6zM428 614q0 9 -2 9t-11 -9l-8 -8h10q11 0 11 8zM481 616v49h-91v-49l12 13q8 9 13 11t20 2t20.5 -2t13.5 -11zM373 522v146h-184v-146h184zM172 522v146h-101v-146h101zM50 -75v760h450v-380
l-1 -382h-63q-136 0 -225 1z" />
    <glyph glyph-name="P" unicode="P" horiz-adv-x="555" 
d="M460 603q0 3 -9 3t-9 -9t3 -9q2 0 8.5 6.5t6.5 8.5zM425 597q0 9 -9 9q-16 0 -2 -12q7 -6 9 -5.5t2 8.5zM451 623q15 0 -1 13q-5 4 -6.5 3.5t-1.5 -7.5q0 -9 9 -9zM425 632q0 14 -11 2q-4 -5 -5 -7t0.5 -3t6.5 -1q9 0 9 9zM412 656q12 5 21 5q20 0 34 -14t14 -35
q0 -19 -14.5 -32t-36.5 -13q-15 0 -28 12t-14 30v6q0 30 24 41zM158 603q0 3 -9 3t-9 -9t3 -9q2 0 8.5 6.5t6.5 8.5zM123 597q0 9 -9 9q-16 0 -2 -12q7 -6 9 -5.5t2 8.5zM155 630q-8 14 -13 8q-2 -2 -2 -6q0 -9 9 -9q6 0 7 1.5t-1 5.5zM123 632q0 16 -12 2q-6 -7 -5.5 -9
t8.5 -2q9 0 9 9zM110 656q9 4 21 4q27 0 41 -24q6 -12 6 -24q0 -19 -14 -32t-36 -13q-15 0 -28 12t-14 30v6q0 30 24 41zM196 -68v292h-129v-292h129zM449 272q19 14 2 14q-9 0 -9 -9q0 -6 1 -6.5t6 1.5zM425 277q0 9 -9 9q-17 0 1 -13q5 -4 6.5 -3.5t1.5 7.5zM147 272
q19 14 2 14q-9 0 -9 -9q0 -6 1 -6.5t6 1.5zM123 277q0 9 -9 9q-17 0 1 -13q5 -4 6.5 -3.5t1.5 7.5zM453 315q-7 6 -9 5.5t-2 -8.5q0 -9 9 -9q15 0 2 12zM151 315q-7 6 -9 5.5t-2 -8.5q0 -9 9 -9q16 0 2 12zM425 314q0 9 -1.5 9.5t-8.5 -7.5q-13 -13 1 -13q9 0 9 11zM123 314
q0 12 -10 3q-16 -14 1 -14q9 0 9 11zM402 330l13 12h-35v-101h108v101h-36l9 -8q19 -16 19 -38q0 -11 -6 -23q-12 -25 -42 -25q-24 0 -38 21q-6 8 -6 22v9q1 18 14 30zM362 241v101h-149v-101h149zM100 330l12 12h-45v-101h129v101h-46l9 -8q19 -16 19 -38q0 -11 -6 -23
q-12 -25 -42 -25q-24 0 -38 21q-6 8 -6 22v9q1 18 14 30zM488 359v188h-108v-188h108zM362 359v188h-149v-188h149zM196 359v188h-129v-188h129zM488 564v101h-108v-101h108zM362 564v101h-149v-101h149zM196 564v101h-129v-101h129zM50 -85v767h455v-458h-292v-309h-163z
" />
    <glyph glyph-name="Q" unicode="Q" horiz-adv-x="743" 
d="M158 -11q0 2 -9 2t-9 -9q0 -8 3 -8q2 0 8.5 6.5t6.5 8.5zM123 -18q0 9 -9 9q-14 0 -2 -11q5 -4 7 -5t3 0.5t1 6.5zM151 20q-7 6 -9 5.5t-2 -8.5q0 -9 9 -9q16 0 2 12zM123 17q0 15 -12 2q-6 -7 -5.5 -9t8.5 -2q9 0 9 9zM107 40q11 7 25 7q19 0 32.5 -13.5t13.5 -33.5
t-13.5 -33.5t-32.5 -13.5q-21 0 -34 14.5t-13 33.5q0 26 22 39zM501 586q0 2 -8 2q-9 0 -9 -11q0 -7 1 -8t5 2q11 9 11 15zM467 580q0 8 -9 8q-14 0 -2 -11q7 -6 9 -5.5t2 8.5zM495 617q-7 6 -9 5.5t-2 -8.5t9 -8q14 0 2 11zM448 607q15 -3 18 0q1 2 0.5 4.5t-1 7.5t-0.5 6
l-9 -9zM453 638q12 6 23 6q19 0 32.5 -14t13.5 -36q0 -17 -13 -30q-14 -14 -30 -14q-31 0 -44 22q-7 10 -7 24q0 30 25 42zM158 585q0 3 -9 3t-9 -11v-11l9 8q9 9 9 11zM123 580q0 8 -9 8q-14 0 -2 -11q7 -6 9 -5.5t2 8.5zM151 617q-7 6 -9 5.5t-2 -8.5t9 -8q14 0 2 11z
M123 614q0 10 -10 3q-16 -11 1 -11q9 0 9 8zM109 638q9 5 23 5q28 0 40 -21q6 -10 5 -30t-13 -31t-32 -11q-29 0 -42 24q-5 10 -5 21q0 32 24 43zM463 -45q0 1 -2 1q-1 0 -1 -1q0 -2 1 -2q2 0 2 2zM456 -66q0 1 -20.5 15t-22.5 14t-2 -15v-16h23q22 0 22 2zM505 -15
q1 6 -7 6q-6 0 -8 -1.5t-2 -7.5q0 -19 17 3zM470 -18q0 9 -9 9q-7 0 -7.5 -1.5t3.5 -6.5q13 -18 13 -1zM664 -70l-7 5l-21 15t-26 18l-53 37v-94q-5 -1 -15.5 -1t-15.5 -1l42 -28q41 -28 43 -28t15.5 19.5t26 38.5t11.5 19zM428 -23q10 -7 12 -7v1q0 1 -3 9t-4 12l-3 13
l-6 -10q-5 -7 -4 -10t8 -8zM505 15q-16 13 -17 2q0 -4 0.5 -5.5t2.5 -2.5t7 -1q8 0 9 1t-2 6zM470 17q0 7 -2.5 8.5t-6.5 -3.5q-3 -4 -4.5 -6.5t-2 -4.5t1.5 -2.5t5 -0.5q9 0 9 9zM540 -25l-1 42l-14 10l-14 9l7 -9q8 -11 8 -31v-8q0 -6 -12 -20q-11 -13 -30 -15l-19 -2
l15 -9q15 -10 37 -10h23v43zM490 51q-12 10 -16.5 10.5t-8.5 -6.5l-5 -9q0 -1 19 -1q15 0 16 1t-5 5zM540 40v31h-22q-18 0 -18 -3q2 -2 22 -16zM442 55l11 16h-42v-60l10 13q5 7 21 31zM394 -72v143h-181v-143h181zM196 -68v139h-129v-139h129zM540 88v420h-129v-420h129z
M394 88v420h-181v-420h181zM196 88v420h-129v-420h129zM540 526v142h-129v-142h129zM394 526v142h-181v-142h181zM196 526v142h-129v-142h129zM50 -89v774h507v-658l66 -45q66 -46 66 -48q0 -4 -36 -55t-39 -51q-5 0 -64 41l-60 42h-440z" />
    <glyph glyph-name="R" unicode="R" horiz-adv-x="599" 
d="M447 299q0 1 -9 1q-5 0 -6.5 -1.5t-1.5 -7.5v-9l8 8q2 2 4.5 4t3.5 4zM412 291q0 9 -8 9q-13 0 -5 -8q2 -3 6 -5q5 -3 6 -2.5t1 6.5zM443 325q-13 18 -13 1q0 -9 9 -9q7 0 7.5 1.5t-3.5 6.5zM412 326q0 7 -2.5 8.5t-6.5 -3.5q-3 -4 -4.5 -6.5t-2 -4.5t1.5 -2.5t5 -0.5
q9 0 9 9zM399 350q9 4 21 4q20 0 34 -13t14 -31q0 -11 -8 -24q-15 -23 -39 -23q-16 0 -27 10q-19 15 -19 39q0 28 24 38zM436 591q6 4 8.5 8.5t-6.5 6.5q-8 0 -8 -9q0 -8 2 -8zM412 597q0 9 -8 9q-11 0 -6 -8l8 -7q4 -2 5 -1t1 7zM444 630q-7 13 -12 8q-2 -2 -2 -6
q0 -9 8 -9q6 0 7 1.5t-1 5.5zM393 625q2 0 6.5 -1t6 -1t4.5 1t2.5 3.5t-0.5 6.5l-1 8l-9 -9zM374 615q0 17 14 31.5t33 14.5q18 0 32.5 -14.5t14.5 -32.5q0 -16 -13 -29.5t-30 -16.5h-5q-17 0 -31.5 14.5t-14.5 32.5zM145 591q5 4 7.5 8.5t-5.5 6.5q-9 0 -9 -9q0 -6 1 -7
t6 1zM121 597q0 9 -10 9h-9l8 -9q9 -9 10 -9t1 9zM149 634q-5 4 -7 5t-3 -0.5t-1 -6.5q0 -9 9 -9q14 0 2 11zM102 625q1 0 6 -0.5t7.5 -1t4.5 0.5q1 2 0.5 4.5t-1 7.5t-0.5 6zM112 658q7 3 16 3q19 0 33.5 -14t14.5 -33q0 -18 -14 -31.5t-31 -13.5h-5q-17 2 -30 15.5
t-13 29.5q0 5 1 7q2 11 11 22.5t17 14.5zM146 193q-34 34 -41.5 39.5t-19.5 5.5h-16v-289h121v200zM518 18q-120 123 -219 221q-15 1 -45.5 1t-46.5 1v-82q76 -75 226 -225q29 28 85 84zM190 177v64l-13 -1q-12 0 -30 -2l-16 -2zM77 265q-5 7 -7 7q-1 -3 -1 -7q0 -7 7 -7
q5 0 5.5 1t-4.5 6zM173 299q0 1 -9 1q-5 0 -7 -1.5t-2 -7.5v-9l9 8q2 2 4.5 4t3.5 4zM138 291q0 9 -9 9q-10 0 -6 -7q2 -4 8 -7q3 -2 4.5 -2t2 1.5t0.5 5.5zM102 307v17q-7 -6 -14 -14l-14 -13q12 -13 38 -39h78v32l-9 -10q-13 -16 -33 -16q-21 0 -36 16q-10 11 -10 27z
M280 259q-16 18 -36 38l-37 36v-75h37q36 0 36 1zM170 324q-8 14 -13 8q-2 -2 -2 -6q0 -9 9 -9q6 0 7 1.5t-1 5.5zM138 326q0 14 -11 2q-4 -5 -5 -7t0.5 -3t6.5 -1q9 0 9 9zM176 365q-15 15 -17 15q-1 0 -15 -14q-11 -11 -10 -12l3 1q2 1 7 1q21 0 36 -15l10 -10v9
q0 11 -14 25zM475 258v129h-108v-129h108zM350 258v129h-143v-13q0 -9 8 -19t44 -46l51 -51h40zM190 383q0 4 -4 4q-5 0 1 -6q1 -1 2 -1t1 3zM135 386q0 1 -33 1h-33v-68l33 33zM475 404v143h-108v-143h108zM350 404v143h-143v-143h143zM190 405v142h-121v-143l60 1h61z
M475 564v101h-108v-101h108zM350 564v101h-143v-101h143zM190 564v101h-121v-101h121zM51 490v192h441v-441q-28 -1 -83 -1t-82 -1q99 -98 219 -221q-76 -74 -113 -112l-226 226v-200h-156v183q0 23 -0.5 86.5t-0.5 99.5t0.5 100t0.5 89z" />
    <glyph glyph-name="S" unicode="S" horiz-adv-x="649" 
d="M525 -17q1 2 -1.5 3.5t-6.5 1.5q-9 0 -9 -10q0 -7 1.5 -7.5t6.5 3.5q7 5 9 9zM491 -21q0 9 -9 9h-9l8 -9q2 -2 4 -4.5t3 -3.5l2 -1q1 0 1 9zM517 5q17 0 1 15l-2 2q-6 4 -7 3t-1 -9q0 -7 1.5 -9t7.5 -2zM491 15q0 6 -0.5 8t-2.5 1t-7 -6q-13 -13 1 -13q6 0 7.5 1.5
t1.5 8.5zM481 40q14 7 21 7t19 -6q25 -12 25 -43q0 -32 -26 -44q-12 -5 -20 -5q-10 0 -23 8q-23 17 -23 41q0 28 27 42zM516 262q3 2 5 4t3.5 4.5t-0.5 4t-7 1.5q-9 0 -9 -9q0 -7 1.5 -8t6.5 3zM491 267q0 9 -9 9h-9l8 -9q2 -2 4 -4.5t3 -3.5l2 -1q1 0 1 9zM517 293
q15 0 4 13l-5 4q-6 4 -7 3t-1 -9q0 -7 1.5 -9t7.5 -2zM491 303q0 6 -0.5 8t-2.5 1t-7 -6q-13 -13 1 -13q6 0 7.5 1.5t1.5 8.5zM481 328q14 7 21 7t19 -6q25 -12 25 -43q0 -32 -26 -44q-12 -5 -20 -5q-10 0 -23 8q-23 17 -23 41q0 28 27 42zM154 261q5 4 7.5 8.5t-5.5 6.5
q-9 0 -9 -9q0 -6 1.5 -7t5.5 1zM130 267q0 9 -9 9q-11 0 -6 -8l8 -7q5 -2 6 -1t1 7zM165 296q0 2 -9 11l-9 8v-11q0 -11 9 -11t9 3zM130 303q0 9 -2 10t-9 -6q-14 -14 2 -14q5 0 7 1.5t2 8.5zM116 328q10 6 23 6q25 0 39 -24q7 -11 7 -24q0 -19 -14 -33.5t-33 -14.5
q-12 0 -22 6q-24 14 -24 42q0 30 24 42zM154 550q6 4 8 8t-6 6q-9 0 -9 -9q0 -6 1.5 -6.5t5.5 1.5zM130 555q0 9 -9 9q-10 0 -6 -7l8 -7q3 -2 4.5 -2t2 1.5t0.5 5.5zM165 588q0 2 -9 11l-9 8v-11q0 -11 9 -11t9 3zM130 595q0 9 -2 10t-9 -6q-14 -14 2 -14q5 0 7 1.5t2 8.5z
M116 620q10 6 22 6t22 -7q25 -16 25 -43t-25 -43q-10 -7 -23 -7q-18 0 -31.5 14.5t-13.5 35.5q0 31 24 44zM567 -75v146h-135v-146h135zM415 -75v146h-348v-146h348zM571 88v111h-139v-111h139zM571 217v145h-139v-145h139zM415 217v145h-188v-145h188zM210 220v142h-139
v-142h139zM210 380v104h-143v-104h143zM581 501v150h-354v-150h354zM210 501v150h-143v-150h143zM52 201q0 78 -1 233.5t-1 233.5h549v-184h-372v-104h361v-472h-538v180h365v111q-61 1 -182 1t-181 1z" />
    <glyph glyph-name="T" unicode="T" horiz-adv-x="657" 
d="M342 578q0 3 -7 3t-7 -7q0 -11 11 0q3 3 3 4zM311 574q0 7 -9 7t-3 -7q5 -7 9 -7q3 0 3 7zM343 605q-8 14 -13 8l-2 -6q0 -8 9 -8q6 0 7 0.5t-1 5.5zM311 607q0 17 -12 3q-6 -7 -5.5 -9t8.5 -2q9 0 9 8zM298 632q12 5 21 5q19 0 33 -14t14 -32q0 -17 -14 -31
q-13 -13 -33 -13q-23 0 -37 17q-10 11 -10 28q0 29 26 40zM384 313v202h-126l2 -214q2 -236 2 -293v-80h126l-2 92q-2 100 -2 293zM585 533v118h-184v-118h184zM384 533v118h-125v-118h125zM242 533v118h-171v-118h171zM54 597v71h549v-153h-203q0 -101 1.5 -302.5
t2.5 -301.5h-159v107q0 86 -2 302l-3 195h-91q-91 0 -93 6t-2 76z" />
    <glyph glyph-name="U" unicode="U" horiz-adv-x="586" 
d="M481 -16q2 4 1 5.5t-8 1.5t-9 -1.5t-2 -8.5t1.5 -8t5.5 1q8 4 11 10zM446 -20q0 11 -9 11q-6 0 -6.5 -1t1.5 -5q6 -9 8 -11q4 -3 5 -2t1 8zM474 20q-7 6 -9 5.5t-2 -8.5q0 -9 9 -9q16 0 2 12zM428 10q1 0 5.5 -0.5t7 -1t4.5 0.5q1 2 0.5 4.5t-1 7.5t-0.5 6l-8 -8zM409 9
q4 15 17 26.5t29 11.5q11 0 22 -6q24 -12 24 -43t-25 -43q-9 -5 -21 -5q-20 0 -33.5 15.5t-13.5 34.5q0 6 1 9zM154 -11q0 2 -9 2q-5 0 -6.5 -1.5t-1.5 -8.5q0 -9 4 -9q3 0 8 7t5 10zM119 -20q0 11 -8 11q-9 0 -9 -3q0 -2 9 -11l8 -8v11zM148 20q-7 6 -9 5.5t-2 -8.5
q0 -9 8 -9q17 0 3 12zM119 17q0 7 -2.5 8.5t-6.5 -3.5q-3 -4 -4.5 -6.5t-2 -4.5t1.5 -2.5t5 -0.5q9 0 9 9zM103 40q11 7 24 7q19 0 33.5 -13.5t14.5 -33.5q0 -22 -13 -36t-32 -14q-12 0 -21 5q-27 15 -27 45q0 26 21 40zM519 -75v146h-125v-146h125zM376 -75v146h-166v-146
h166zM192 -75v146h-125v-146h125zM519 88v590h-125v-590h125zM192 88v590h-125v-590h125zM50 -92v788h160v-608h166v608h160v-788h-486z" />
    <glyph glyph-name="V" unicode="V" horiz-adv-x="909" 
d="M430 -46q0 2 -11 10.5t-22 15.5t-11 6q0 -4 12 -25l13 -22l10 6q3 1 5.5 3t3.5 3.5t0 2.5zM508 -3q0 1 -3 7q-3 5 -11 -6q-6 -7 -6 -12q0 -1 1 -1zM455 26q0 3 -6 3q-7 0 -7 -7t2 -7t6.5 4.5t4.5 6.5zM424 22q0 7 -7 7q-11 0 -5 -8q6 -9 11 -4q1 1 1 5zM476 55q0 2 -1 2
q-2 0 -2 -2t2 -2q1 0 1 2zM451 56q-9 9 -9 -3q0 -6 7 -6q11 0 2 9zM424 53q0 10 -8 4.5t-4 -9.5q1 -1 5 -1q7 0 7 6zM457 87q-8 14 -19 32l-9 15l-34 -48q-35 -48 -35 -52q0 -6 44 -36l45 -31l16 23q24 33 24 39q0 3 -5 11l-8 12v-13q0 -19 -12.5 -32t-31.5 -13
q-18 0 -30.5 12t-12.5 31q0 20 13 32.5t31 12.5q11 0 23 -6l11 -6zM80 518q0 -1 83.5 -146t83.5 -147q0 -3 25 -45.5t50 -83.5t26 -40t31 43t36 51q3 4 -11 28q-13 22 -21 37q-2 5 -103.5 180.5t-103.5 177.5q-1 1 -2 1q-4 0 -48 -25q-48 -28 -46 -31zM829 513q1 2 -6 8.5
t-18.5 15t-22.5 16t-20 13.5t-10 7l-11 9l-20 -27q-58 -83 -120 -172t-101.5 -146t-41.5 -60l-17 -25l31 -53q30 -52 32 -52t47 64t49 73q1 3 114 164t115 165zM595 408q138 198 141 198q118 -75 118 -83q0 -10 -111 -169q-90 -128 -172 -247l-57 -81l11 -18l10 -19l-63 -36
q-65 -37 -67 -37q-1 0 -31 50q-31 53 -36 55q-5 3 -5 9q0 3 -55 100l-54 97q-2 5 -87 152q-82 142 -82 151q0 2 31.5 20t63.5 35l31 17q1 0 112 -191t125 -218l11 -22l8 10q7 7 14 19q6 11 144 208z" />
    <glyph glyph-name="W" unicode="W" horiz-adv-x="867" 
d="M453 293q2 5 1 6t-8 1t-8.5 -1.5t-1.5 -8.5t1 -8t6 1q7 3 10 10zM419 291q0 9 -9 9q-7 0 -8 -1.5t3 -6.5q12 -12 14 -1zM419 328q0 20 -12 3q-10 -14 3 -14q9 0 9 11zM451 330q-15 23 -15 0q0 -6 0.5 -8.5t2.5 -3.5t7 -1q9 0 10 2.5t-5 10.5zM419 360q1 0 3.5 0.5
t4.5 0.5q16 0 27 -7q20 -14 20 -43q0 -35 -26 -47q-10 -5 -22 -5q-19 0 -30.5 15t-11.5 36q0 37 35 50zM474 -18q0 2 -2 2q-1 0 -1 -2q0 -1 1 -1q2 0 2 1zM600 -22q13 42 12 43q-2 0 -49.5 -26t-47.5 -29q0 -2 37 -16l35 -13zM238 24q0 -7 10 -38.5t12 -31.5l16 5
q17 5 32.5 11t15.5 8q0 1 -21.5 13.5t-43 23t-21.5 9.5zM585 68q0 3 -8 3q-9 0 -9 -11q0 -10 3 -10t8.5 7t5.5 11zM550 60q0 11 -8 11t-8.5 -2.5t5.5 -10.5q11 -16 11 2zM325 68q0 3 -9 3t-9 -11q0 -10 4 -10q3 0 8.5 7t5.5 11zM290 60q0 11 -9 11q-8 0 -8 -2q0 -4 4 -10
t8 -7q3 -1 4 0.5t1 7.5zM580 105q-12 17 -12 -3q0 -6 2 -8t7 -2q8 0 8.5 2.5t-5.5 10.5zM550 102q0 19 -11 3q-6 -8 -5.5 -10.5t8.5 -2.5q5 0 6.5 1.5t1.5 8.5zM323 96q-1 5 -5 10t-7 5q-4 0 -4 -11q0 -8 1.5 -10t7.5 -2t7 1.5t0 6.5zM290 100q0 20 -11 2q-4 -7 -5 -9.5
t0.5 -3.5t6.5 -1q6 0 7.5 2t1.5 10zM566 174q-20 46 -22 46v-1l-2 -9q-3 -9 -8.5 -26t-10.5 -32q-6 -19 -17.5 -56t-14.5 -46l-11 -37l7 -16l8 -16l21 11q5 3 62 34l41 22l-7 16q-4 10 -6 9q0 -3 -7 -19q-13 -25 -41 -25q-27 0 -39 24q-7 16 -7 28q0 32 23 46q12 7 27 7
q9 0 17 -4q6 -4 6 -2q0 3 -19 46zM331 158q-16 58 -17 58q-5 0 -20 -37q-21 -49 -21 -51l1 -1q1 0 2 1q2 2 3 2q6 3 17 3q15 0 25 -5q24 -12 24 -47q0 -15 -6 -27q-13 -25 -39 -25q-31 0 -43 30l-7 17l-5 -14l-7 -14l24 -12q4 -2 25.5 -14t32.5 -18q31 -17 41 -17q9 0 9 13
q0 14 -11 53q-3 12 -8 31t-11 42t-9 32zM526 265q-8 18 -10 18q-3 0 -39 -87q-35 -79 -35 -89q0 -3 2 -9q11 -26 15 -36l10 -23l5 17q1 4 6 19t12.5 40l13.5 45l27 88zM383 190q-40 92 -43 92q-2 0 -7 -14l-8 -19l12 -43q3 -12 21.5 -82t24.5 -88q3 -4 9 9q5 13 16 39l11 26
zM506 416q-29 15 -31 15q0 -12 10.5 -35.5t20.5 -40.5l10 -17q3 0 13.5 25t10.5 33q0 2 -1 2q-9 4 -33 18zM381 424q4 8 0 8q-2 0 -33.5 -16.5t-31.5 -19.5q0 -5 12 -32q12 -26 14 -26t3 4q2 5 18 41t18 41zM440 452q-11 8 -22 1q-6 -4 -36 -73l-30 -70l37 -86
q38 -87 40 -87q3 0 39 87l38 86l-30 69q-29 68 -36 73zM770 600q-5 2 -27 10t-32 12l-36 14l-4 -16q-1 -4 -61 -194l-56 -177l37 -85q6 -13 12 -26.5t10.5 -23.5t8.5 -17.5t6 -11.5l3 -4q10 19 152 480l10 30zM304 253q0 2 -52 195l-52 192q-4 14 -8 14t-58 -18.5t-54 -20.5
l142 -533l4 -16l10 24q6 16 39 92q29 67 29 71zM55 628q40 13 81 27t54.5 18.5t14.5 4.5q4 0 58 -198l54 -199q3 5 7.5 15t6.5 14l-20 46q-17 37 -17 49q0 1 52 30q50 27 57 40q6 13 13 11q14 -5 25 -1q7 2 14 -10q7 -13 57 -40q52 -29 52 -31q0 -11 -17 -48l-20 -46l8 -17
l7 -18l60 191q59 188 63 192q148 -50 148 -57q0 -5 -43.5 -144t-86 -275.5t-40.5 -138.5q-41 -123 -44 -126h-1q-8 0 -74.5 24t-71.5 29q-3 3 2 23l6 19l-12 28q-15 36 -19 36q-3 0 -18 -33q-15 -34 -15 -48v-5.5v-4.5t-0.5 -3t-2 -3t-4.5 -2q-9 -3 -12 -12q-5 -12 -17 -5
q-4 2 -7 2q-10 0 -54 -15q-14 -5 -27 -9t-20.5 -6t-7.5 -1l-4 12q-3 12 -10 37.5t-12 45.5q-103 383 -163 602z" />
    <glyph glyph-name="X" unicode="X" horiz-adv-x="727" 
d="M372 280q4 3 5.5 4.5t3 4t-0.5 3.5t-7 1q-9 0 -9 -9q0 -7 1.5 -7.5t6.5 3.5zM347 284q0 9 -10 9h-9l8 -9q8 -8 10 -8q1 0 1 8zM347 319q0 7 -3 8.5t-7 -3.5q-10 -14 1 -14q9 0 9 9zM381 317q-4 6 -10 10q-5 2 -6 1.5t-1 -7.5t1.5 -9t8.5 -2t8 1t-1 6zM310 303
q0 20 12.5 33t33.5 13q20 0 33 -13t13 -33q0 -21 -12 -33.5t-33 -12.5t-34 12.5t-13 33.5zM531 142q-89 140 -91 140q-3 0 -38 -55l-36 -55l64 -101q62 -100 62 -102q0 -1 14 -23l13 -21l22 15q12 8 25.5 18t31.5 21q22 14 22 18q-8 16 -89 145zM311 223q-20 34 -36 57
q0 1 -1 1q-7 0 -83 -117l-80 -122l28 -19q21 -13 30 -22q1 -1 24 -17l22 -14l9 17q11 20 65 100l55 85zM425 309q-2 4 -34 55t-34 51t-38 -56l-36 -56l72 -114l37 56q34 52 34 60q0 3 -1 4zM266 564q-79 128 -83 128q-2 0 -27.5 -16t-50 -33t-23.5 -19q0 -1 12.5 -20.5
t37 -58.5t46.5 -74l94 -149q40 60 74 113zM644 632q2 3 -46.5 35t-52.5 32q-172 -248 -172 -262q0 -9 28 -54q6 -9 37 -56q0 -1 2 -1q5 0 77 108q16 25 26 40q88 132 101 158zM466 617q73 110 74 110q2 0 67.5 -43.5t65.5 -44.5t-53.5 -83t-108 -165t-56.5 -86
q-2 -4 94 -157q22 -36 47 -75.5t37.5 -59.5t12.5 -21q1 -2 -12 -11t-26.5 -18.5t-13.5 -10.5q-4 -4 -39 -26t-44 -22q-2 0 -2 1q-7 11 -22 36q0 1 -75 121l-57 91l-45 -68q-76 -117 -85 -132l-6 -9l-44 29q-48 32 -50 34q-7 7 -22 17q-17 11 -17 13q0 3 87 135l87 132
l-93 148q-97 157 -103 165q-11 17 -6 20q3 1 68 43q57 36 63 36q2 0 4 -2q7 -10 84 -133l81 -129l18 28q10 15 90 137z" />
    <glyph glyph-name="Y" unicode="Y" horiz-adv-x="735" 
d="M362 338q-1 0 -33 -19l-31 -20v-395h125v200q0 198 -3 198q-2 0 -29.5 18t-28.5 18zM371 368q0 1 -7 1l-5 -2q2 -4 9 -3q3 1 3 4zM423 357q0 19 -2 19t-17.5 -10t-19.5 -14q-2 -2 14 -14q12 -9 15 -10t6 4q4 6 4 25zM344 352q0 1 -20.5 16t-22.5 15l-3 -26v-3
q0 -30 3 -29q6 2 24.5 13.5t18.5 13.5zM397 384q16 12 16 13q0 11 -7 4q-2 -2 -4 -6zM385 402q5 6 -6 6t-11 -9q0 -19 17 3zM350 399q0 9 -9 9q-7 0 -7.5 -1.5t3.5 -6.5q13 -18 13 -1zM315 401q0 15 -5 16q-2 0 -3 -4q-2 -6 4 -12q4 -2 4 0zM377 425q15 1 -2 13q-5 4 -6 3.5
t-1 -7.5q0 -9 9 -9zM350 434q0 8 -1 8t-9 -8l-8 -9h9q9 0 9 9zM344 461q4 1 13 2t14 2q-8 12 -12 19l-8 -11q-9 -10 -7 -12zM423 459v39h-24q-24 0 -24 -2q41 -73 45 -73q3 0 3 36zM341 494q1 2 -3 3t-17 1h-23v-32q0 -28 3 -28q8 8 40 56zM652 656q1 2 -25.5 22.5t-54 40
t-28.5 19.5l-10 -14q-10 -13 -31.5 -43t-39.5 -54l-80 -110q9 -1 29 -1t29 -1v-75l1 -76l105 144q101 140 105 148zM267 630q-71 111 -72 111q-115 -68 -115 -71q0 -2 97 -157t101 -159q3 -3 3 24v137h28q28 0 28 2q0 1 -70 113zM128 723q70 45 73 45t66 -102
q65 -104 79 -125l14 -23l80 110q77 106 89 126q7 12 12 12t21 -15q9 -8 66 -49q52 -38 52 -41t-119 -167l-120 -164v-443h-160v425l-113 179q-112 177 -112 183q2 4 72 49z" />
    <glyph glyph-name="Z" unicode="Z" horiz-adv-x="696" 
d="M182 -106q0 3 -9 3t-3 -5q12 -9 12 2zM220 -42q0 2 -1 2q-2 0 -2 -2t2 -2q1 0 1 2zM203 -29q0 3 -7 3t-7 -7t3 -7q2 0 6.5 4.5t4.5 6.5zM172 -33q0 7 -7 7q-11 0 -5 -8q6 -9 11 -4q1 1 1 5zM200 0q-8 8 -10 8q-1 0 -1 -8q0 -9 9 -9h9zM172 0q0 11 -8 2q-11 -11 1 -11
q7 0 7 9zM115 -74v6v36l-1 40l-16 -29q-17 -30 -17 -32q0 -3 14.5 -12t18.5 -9h1zM568 -85v132h-137q-137 0 -140 -5q-4 -4 -38 -63q-35 -60 -35 -62t174 -2h176zM269 45q0 1 -43 1q-88 0 -90 -2t-2 -66v-63h61q3 6 10 18.5t11 18.5l-11 -7q-11 -6 -23 -6q-29 0 -40 21
q-5 10 -5 22q0 19 9 29q14 17 35 17q16 0 28.5 -11.5t14.5 -30.5l2 -17l21 37q22 37 22 39zM548 526l9 17h-134l-126 -219q-124 -215 -138 -240l-12 -20h134l129 223zM554 617q0 2 -9 2t-9 -8q0 -9 3 -9q2 0 8.5 6.5t6.5 8.5zM519 610q0 9 -7 9t-7 -2q0 -5 7 -10q7 -6 7 3z
M548 647q-5 7 -9 7q-3 0 -3 -7t10 -7q6 0 6.5 1t-4.5 6zM519 645q0 8 -1.5 8.5t-6.5 -5.5q-11 -11 1 -11q7 0 7 8zM620 657q-6 4 -14 8l-14 7v-34q0 -32 1 -32zM563 689q-11 7 -33 7h-21l-16 -30q-13 -24 -37 -66q-20 -35 -20 -38q0 -2 66 -2h11q45 0 53.5 3.5t8.5 24.5v8
q0 17 -1 18t-5 -7q-10 -24 -38 -24q-18 0 -32.5 12t-14.5 31q0 22 14.5 35.5t32.5 13.5q24 0 37 -22l7 -11v20q0 14 -2 17.5t-10 9.5zM482 686l6 10h-348v-136h271l19 33q7 13 25.5 46.5t26.5 46.5zM505 725q7 13 10 13q4 0 24 -13q21 -12 37 -12q12 0 14 -1t2 -8
q0 -10 20 -21q31 -17 31 -23q0 -2 -9 -20q-3 -7 -13.5 -25t-13.5 -24q-15 -27 -15 -37q0 -11 -6 -11q-8 0 -144 -238l-138 -239q47 0 140.5 -1t140.5 -1v-167h-379l-9 -17q-10 -18 -12 -18q-131 73 -131 76t31 56q31 57 31 63q0 7 5 7q4 0 142 239l138 238q-47 1 -139 1
t-139 1v170h374z" />
    <glyph glyph-name="a" unicode="a" horiz-adv-x="599" 
d="M389 -47q3 0 4 6q1 4 -2 4t-3 -5t1 -5zM370 -42q0 5 -3 5t-3 -3t3 -5t3 3zM392 -19q2 1 -3 7q-1 0 -1 -4q0 -3 4 -3zM370 -16q0 4 -1 4l-4 -6q0 -1 2 -1q3 0 3 3zM343 -30q0 17 10 29t25 12q10 0 20 -6q18 -12 18 -37q0 -12 -11.5 -24t-23.5 -12q-17 0 -27.5 10t-10.5 28
zM131 -38q0 1 -5 1q-6 0 -6 -5q1 -9 11 4zM103 -40q0 3 -4 3q-2 -1 3 -7q1 0 1 4zM103 -16q0 4 -1 4l-4 -6l1 -1q4 0 4 3zM127 -16q0 4 -4 5q-2 -1 -3 -3q0 -5 4 -5q3 0 3 3zM94 5q12 7 18 7q5 0 17 -5q21 -9 21 -35q0 -18 -12 -30q-10 -10 -24 -10q-29 0 -37 29q-1 2 -1 8
q0 23 18 36zM395 368q0 1 -4 1q-3 0 -3 -3q1 -4 7 2zM370 366q0 3 -3 3q-4 -1 2 -7q1 0 1 4zM395 390q0 4 -4 5l-3 -3q0 -5 3 -5q4 0 4 3zM366 394q-2 -3 -1 -5q1 -5 5 0q2 2 0 5q-1 5 -4 0zM343 380q0 17 9.5 27.5t25.5 10.5q17 0 27.5 -11t10.5 -26q0 -11 -6 -22
q-9 -17 -33 -17q-14 0 -24 10t-10 28zM127 366q0 3 -3 3q-4 0 -4 -3q0 -4 4 -4q3 0 3 4zM103 366q0 3 -4 3q-2 -1 3 -7q1 0 1 4zM103 390q0 4 -1 4l-4 -6l1 -1q4 0 4 3zM126 387q8 0 -4 10q-2 0 -2 -5t6 -5zM90 409q10 9 24 9q26 0 34 -26q2 -5 2 -13q0 -16 -12 -28
q-8 -9 -25 -9t-26 9q-11 11 -11 28q0 19 14 30zM530 -82v108h-90v-108h90zM423 -82v108h-87v-108h87zM318 -82v108h-142v-108h142zM159 -82v108h-91v-108h91zM423 43v264h-87v-264h87zM318 43v264h-142v-264h142zM159 43v264h-91v-264h91zM423 324v111h-87v-111h87zM318 324
v111h-142v-111h142zM159 324v111h-91v-111h91zM51 -99v552h389v-410h108v-142h-497z" />
    <glyph glyph-name="b" unicode="b" horiz-adv-x="591" 
d="M151 -46q0 2 -9 2t-9 -8q0 -9 3 -9q2 0 8.5 6.5t6.5 8.5zM116 -52q0 8 -11 8h-11l8 -8q9 -9 11 -9q3 0 3 9zM496 -45q1 3 -0.5 4t-7.5 1q-11 0 -11 -9t2 -9q4 0 9.5 4.5t7.5 8.5zM460 -51q0 7 -1.5 9t-7.5 2h-9l6 -11q5 -10 9 -10q3 0 3 10zM460 -14q0 15 -12 2
q-6 -7 -5.5 -9t8.5 -2q9 0 9 9zM144 -11q-7 6 -9 5t-2 -10q0 -6 1.5 -8t7.5 -2q5 0 7 2t0.5 5.5t-5.5 7.5zM494 -16q-3 7 -10 10q-4 2 -5.5 1.5t-1.5 -7.5t2 -9t9 -2t7.5 1.5t-1.5 5.5zM116 -14l-1 12q-2 -1 -8 -6.5t-8 -9.5q-3 -6 -2 -7t9 -1q7 0 8.5 1.5t1.5 10.5z
M522 -78v90h-27l10 -11q12 -13 12 -30q0 -14 -5 -24q-8 -18 -13 -21q5 -4 9 -4h14zM438 5l9 7h-29v-90h27l-10 9q-12 14 -12 35q0 26 15 39zM401 -78v90h-202v-90h202zM182 -78v90h-32l7 -8q15 -16 15 -37q0 -26 -19 -40q-7 -4 -2 -5h13h18zM95 7q-1 4 -11 5h-17v-90h32
l-10 12q-11 13 -11 32q0 27 17 41zM522 29v177h-104v-177h104zM401 29v177h-202v-177h202zM182 29v177h-115v-177h115zM496 253q1 3 -0.5 4t-7.5 1q-11 0 -11 -8q0 -9 2 -9q4 0 10 4t7 8zM460 249q0 9 -9 9q-7 0 -7.5 -1t3.5 -6q13 -18 13 -2zM151 256q0 2 -9 2
q-4 0 -5.5 -0.5t-2.5 -2.5t-1 -7q0 -8 4 -8t9 6.5t5 9.5zM116 248q0 7 -1.5 8.5t-8.5 1.5t-8 -1t1 -6q3 -7 10 -10q5 -2 6 -1t1 8zM460 284q0 16 -12 3q-6 -7 -5.5 -9t8.5 -2q9 0 9 8zM148 282q-8 14 -13 8q-2 -2 -2 -6q0 -8 9 -8t6 6zM116 284q0 15 -11 3q-4 -5 -5 -7
t0.5 -3t6.5 -1q9 0 9 8zM494 283q-3 7 -10 10q-4 2 -5.5 1t-1.5 -8t2 -8.5t9 -1.5t7.5 1t-1.5 6zM522 224v86h-27l10 -10q12 -14 12 -32q0 -22 -16 -37l-8 -7h29zM438 303l9 7h-29v-86h27l-10 10q-12 14 -12 33q0 24 15 36zM401 224v86h-202v-86h202zM182 224v86h-35l10 -10
q14 -14 14 -35q0 -20 -12 -32l-9 -9h32zM96 305q7 4 2 5h-13h-18v-86h28l-9 12q-8 11 -8 29q0 27 18 40zM182 328v448h-115v-448h115zM50 -96v889h149v-465h341v-424h-490z" />
    <glyph glyph-name="c" unicode="c" horiz-adv-x="501" 
d="M153 -26q0 3 -7 3t-7 -9t7 -3q7 5 7 9zM121 -32q0 9 -8 9q-6 0 -7 -1.5t2 -5.5q10 -12 13 -2zM146 -6q11 0 5 8q-6 9 -11 4q-1 -1 -1 -5q0 -7 7 -7zM121 1q0 10 -8 4t-3 -10q1 -1 5 -1q6 0 6 7zM103 21q10 8 27 8q12 0 22 -5q21 -10 21 -38q0 -30 -24 -42q-8 -4 -19 -4
q-18 0 -30.5 12.5t-12.5 30.5q0 25 16 38zM149 391q0 3 -7 3t-7 -10q0 -6 1 -6.5t6 4.5q7 5 7 9zM118 384q0 10 -7 10t-7 -3q0 -4 7 -9q7 0 7 2zM142 411q11 0 5 8q-6 9 -11 4q-1 -1 -1 -5q0 -7 7 -7zM118 420q0 11 -8 2q-11 -11 1 -11q7 0 7 9zM109 444q10 4 18 4
q13 0 23 -6q8 -4 14 -16.5t6 -23.5q0 -20 -12.5 -32.5t-29.5 -12.5q-19 0 -34 15q-10 10 -10 21v11q2 17 7 25.5t18 14.5zM434 -68v104h-229v-104h229zM187 -68v104h-114v-104h114zM184 265v70h-116l3 -18q2 -20 2 -141v-123h115l-2 71q-2 78 -2 141zM434 352v104h-233v-104
h233zM184 352v104h-115v-104h115zM53 369l-2 105h400v-139h-250v-91q0 -60 3 -141l2 -50h245v-138h-395v174q0 106 -3 280z" />
    <glyph glyph-name="d" unicode="d" horiz-adv-x="546" 
d="M160 -63q0 16 -2 16t-2 -5q0 -6 -10 -16l-10 -10h12q9 0 10.5 1.5t1.5 13.5zM441 -58q6 4 8 8t-6 6q-9 0 -9 -8q0 -6 1 -7t6 1zM417 -53q0 9 -7 9t-4 -6q9 -11 11 -3zM135 -50q3 6 -3 6q-7 0 -7 -9q0 -15 10 3zM108 -53q0 9 -9 9q-7 0 -8 -1t3 -6q13 -15 14 -2zM85 -69
q-8 8 -12 20l-2 6q-1 0 -1 -15l-1 -20h26zM417 -18q0 7 -3.5 8t-7.5 -6t-3 -8.5t7 -1.5q7 0 7 8zM134 -15q-9 12 -9 -3q0 -8 7 -8q11 0 2 11zM448 -20q-6 9 -8 11q-4 3 -5 1.5t-1 -8.5q0 -6 2 -8t7 -2q6 0 6.5 1t-1.5 5zM90 -25q14 -3 17 0q2 2 0 11l-1 10q-6 -7 -16 -21z
M479 -78v86h-29l8 -8q12 -14 12 -33q0 -22 -14 -36l-9 -9h32zM395 -2l8 10h-28v-86h30l-10 10q-13 15 -13 32q0 18 13 34zM358 -78v86h-181v-86h181zM159 -8q0 12 -1 14t-9 2h-11l7 -8q8 -8 11 -16l3 -5v13zM84 0l7 8h-22l1 -19l1 -15q1 1 2 6q2 11 11 20zM479 26v180h-104
v-180h104zM358 26v180h-181v-180h181zM160 26v180h-91v-180h91zM447 247q4 5 3.5 6.5t-7.5 1.5q-9 0 -9 -9q0 -17 13 1zM417 245q0 10 -7 10t-7 -3q0 -4 7 -9q7 0 7 2zM160 239q0 16 -2 16t-2 -5t-9 -16l-9 -10h11q8 0 9.5 2t1.5 13zM139 256q0 2 -7 2t-7 -8q0 -9 3 -9
q2 0 6.5 5.5t4.5 9.5zM108 248q0 6 -2 8t-7 2q-10 0 -6 -6t9 -11q4 -3 5 -1.5t1 8.5zM84 232q-9 9 -11 20q-3 8 -3 -8l-1 -20h22zM447 280q-13 18 -13 1q0 -9 9 -9q7 0 7.5 1.5t-3.5 6.5zM417 281q0 11 -8 2q-11 -11 1 -11q7 0 7 9zM135 282q-10 18 -10 3q0 -9 7 -9q6 0 3 6
zM90 277q14 -3 17 0q1 2 0.5 4.5t-1 7.5t-0.5 6q-3 -3 -8.5 -9t-7.5 -9zM479 224v83h-16q-13 0 -13 -1l4 -5q16 -12 16 -39q0 -11 -8 -27l-7 -11h24zM395 297l8 10h-28v-83h25l-7 9q-10 13 -10 31q0 20 12 33zM358 224v83h-181v-83h181zM159 292q0 11 -1 13t-7 2h-9l7 -9
q1 -2 4 -7.5t4 -7.5q1 -3 1 1q1 3 1 8zM83 299l8 8h-11q-8 0 -9 -2.5t-1 -15.5l1 -14q0 1 2 6q2 10 10 18zM479 324v455h-104v-455h104zM358 324v473h138v-893h-444v420h306z" />
    <glyph glyph-name="e" unicode="e" horiz-adv-x="552" 
d="M152 395q0 2 -9 2q-5 0 -7 -1.5t-2 -8.5q0 -11 3 -11q2 0 8.5 8t6.5 11zM117 386q0 11 -7 11q-13 0 0 -14l7 -8v11zM148 422q-13 15 -14 2q0 -9 9 -9q7 0 8 1t-3 6zM109 415q7 -3 7.5 4.5t-1.5 14.5l-6 -9q-7 -9 0 -10zM101 445q11 8 25 8q16 0 28 -10q16 -16 16 -41
q0 -17 -9 -29q-13 -17 -34 -17q-26 0 -38 25q-6 13 -6 27q0 22 18 37zM140 -44q18 18 3 18q-9 0 -9 -11q0 -7 1 -8.5t5 1.5zM117 -36q0 10 -7 10t-7 -3q0 -5 7 -10q7 -6 7 3zM117 0q0 5 -1.5 7t-4 0.5t-4.5 -5.5q-4 -7 -3.5 -9t6.5 -2q7 0 7 9zM149 -3q-4 6 -9 11q-4 3 -5 2
t-1 -8q0 -11 9 -11q10 0 6 6zM485 -68v104h-285v-104h285zM183 -68v104h-115v-104h54l-12 6q-27 14 -27 43q0 11 6 25q13 26 37 26q17 0 31 -14t14 -34q0 -5 -2 -15q-7 -24 -26 -32q-8 -4 -4 -5h19h25zM183 53v70h-115v-70h115zM485 159q0 19 -2 19q-1 0 -1 -4t-10 -16
q-12 -14 -30 -14q-24 0 -37 21l-7 12v-37h87v19zM464 182q0 3 -7 3t-7 -11l1 -11q13 17 13 19zM433 175q0 7 -1.5 8.5t-7.5 1.5t-6.5 -1t1.5 -5q6 -9 8 -11q4 -3 5 -1.5t1 8.5zM149 179q4 6 -6 6q-5 0 -7 -1.5t-2 -8.5t1 -8.5t5 1.5q5 5 9 11zM117 177q0 8 -7 8
q-6 0 -6.5 -1.5t3.5 -8.5t7 -6t3 8zM461 214q-4 7 -7.5 6t-3.5 -9t7 -8q10 0 4 11zM117 211q0 8 -1.5 8.5t-6.5 -5.5q-11 -11 1 -11q7 0 7 8zM415 205q14 -4 17 -1q2 2 0 11l-1 10q-2 -3 -7.5 -10t-8.5 -10zM149 209q-4 6 -9 11q-4 3 -5 2t-1 -8q0 -11 9 -11q10 0 6 6z
M485 208v36h-20l-14 -2h1q17 -6 27 -24zM424 239l11 5h-37v-33l7 12q7 10 19 16zM381 140v104h-181v-104h181zM111 240l1 1q7 3 3 3h-9h-11h-27v-104h115v104h-25h-10l-11 -1q1 0 5 -2l1 -1q27 -11 27 -47q0 -23 -15 -37q-11 -11 -28 -11q-20 0 -31.5 15t-11.5 35
q0 33 27 45zM485 262v73h-87v-73h87zM381 262v73h-181v-73h181zM183 262v73h-115v-73h115zM485 371q0 19 -1 19q-3 -4 -5 -10q-9 -23 -37 -23q-29 0 -40 25q-3 8 -3 -12l-1 -18h87v19zM464 393q0 4 -7 4t-7 -11q0 -8 1 -8t6 4q7 5 7 11zM433 386q0 11 -9 11q-6 0 -6.5 -1
t1.5 -5q6 -9 8 -11q4 -3 5 -2t1 8zM464 417q0 5 -7 10q-7 6 -7 -3t7 -9t7 2zM433 423q0 9 -3 9q-4 0 -9 -9q-6 -8 3 -8t9 8zM485 436v20h-87v-33l7 10q13 20 37 20q27 0 38 -26q4 -10 5 -5v14zM381 352v104h-181v-104h181zM183 352v104h-115v-104h115zM51 -85v559h451v-351
h-302v-70h302v-138h-451z" />
    <glyph glyph-name="f" unicode="f" horiz-adv-x="514" 
d="M205 248q3 4 5 7t-1 7q-6 0 -6 -7t2 -7zM186 256q0 6 -4 6q-3 0 -3 -3q0 -4 4 -6zM181 286q-4 -7 2 -7t2 7q-1 5 -4 0zM209 279q8 0 -4 14q-2 0 -2 -7t6 -7zM174 307q8 7 23 7q10 0 17 -4q17 -9 17 -42q0 -15 -5 -24q-9 -17 -32 -17q-16 0 -25.5 13.5t-9.5 31.5
q0 23 15 35zM205 595q3 4 5 7t-1 7q-6 0 -6 -7t2 -7zM186 603q0 6 -4 6q-3 0 -3 -3q0 -4 4 -6zM181 634q-5 -8 1.5 -8t2.5 8q-1 5 -4 0zM209 626q8 0 -4 14q-2 0 -2 -7t6 -7zM161 602q-2 10 -2 15q0 18 9.5 32t25.5 14q8 0 15 -3q11 -5 17 -16q5 -8 5 -26q0 -17 -4 -24
q-11 -20 -31 -20q-26 0 -35 28zM245 -78v277h-97v-277h97zM332 217v104h-70v-104h70zM245 217v104h-97v-104h97zM130 217v104h-59v-104h59zM245 338v198h-97v-198h97zM443 553v132h-181v-132h181zM245 553v132h-97v-132h97zM130 338v365h330v-167h-198v-198h87v-139h-87
v-295h-132v295h-76v139h76z" />
    <glyph glyph-name="g" unicode="g" horiz-adv-x="497" 
d="M138 -167q0 5 -2 5l-5 -5t1 -5q6 0 6 5zM74 -172q6 1 -5 13l-1 -6q0 -7 6 -7zM398 -146q0 2 -5 2t-5 -6q0 -8 10 4zM370 -152q0 8 -5 8t-5 -4t5 -7q4 -2 4.5 -2t0.5 5zM115 -158q3 4 5 7t-1 7q-5 0 -5 -7t1 -7zM96 -152q0 8 -5 8t-5 -4t5 -7q4 -2 4.5 -2t0.5 5zM398 -124
q0 4 -5 7t-5 -3q0 -7 5 -7t5 3zM124 -124q0 4 -5 7t-5 -3q0 -7 5 -7t5 3zM362 -126q8 -3 8.5 4t-1.5 14l-7 -9q-6 -8 0 -9zM96 -118q0 10 -6 4q-4 -4 -4 -8.5t5 -4.5t5 9zM429 -172v76h-28l8 -11q8 -11 8 -27t-8 -27l-8 -11h28zM346 -107l7 11h-24v-76h24l-7 11q-7 12 -7 27
t7 27zM311 -172v76h-156v-76h156zM138 -101q0 5 -5 5q-6 0 -6 -1q3 -4 5.5 -6t5.5 2zM70 -110q3 4 5 7t-1 7q-6 0 -6 -7t2 -7zM138 -78v72h-70v-72h70zM429 -78v232h-100v-232h100zM398 200q0 3 -5 3t-5 -8q0 -5 0.5 -5t4.5 2q5 3 5 8zM370 194q0 9 -6 9q-8 0 -4 -7
q9 -13 10 -2zM129 189q3 4 5 7t-1 7q-6 0 -6 -7t2 -7zM110 194q0 9 -7 9t-3 -7q9 -13 10 -2zM133 220q8 0 -4 11q-2 0 -2 -6q0 -5 6 -5zM393 220q9 0 -3 14q-2 0 -2 -7t5 -7zM370 227q0 9 -6 3q-10 -10 1 -10q5 0 5 7zM110 227l-1 7q-3 0 -8 -7q-5 -5 -4.5 -6t5.5 -1
q8 0 8 7zM429 172v79h-31l8 -10q12 -14 12 -32q0 -16 -10 -29l-7 -8h28zM350 243l8 8h-29v-79h24l-8 12q-6 10 -6 25q0 23 11 34zM311 172v79h-128v-79h128zM166 172v79h-29l9 -10q11 -12 11 -32t-11 -31q2 -6 7 -6h13zM88 241l9 10h-29v-79h25l-7 11q-7 11 -7 28q0 19 9 30
zM429 269v93h-100v-93h100zM311 269v93h-128v-93h128zM166 269v93h-98v-93h98zM390 397q3 4 5 7t-2 7q-5 0 -5 -7t2 -7zM370 404q0 7 -5 7t-5 -3q0 -4 5 -7t5 3zM138 410q0 1 -5 1q-6 0 -6 -5q1 -9 11 4zM110 404q0 7 -8 7q-5 0 -5.5 -1t4.5 -6q5 -7 8 -7q1 3 1 7zM398 432
q0 4 -5 7t-5 -3q0 -8 5 -8t5 4zM133 428q8 0 -4 14q-2 0 -2 -7t6 -7zM362 429q7 -3 8 4.5t-1 14.5l-7 -9q-7 -9 0 -10zM102 429q7 -3 7.5 4.5t-1.5 14.5l-6 -9q-7 -9 0 -10zM429 380v80h-28l7 -9q10 -13 10 -29q0 -18 -12 -32l-8 -10h31zM345 448l8 12h-24v-80h29l-8 9
q-11 11 -11 34q0 15 6 25zM311 380v80h-128v-80h128zM166 380v80h-13q-14 0 -7 -7q11 -11 11 -31t-11 -32l-9 -10h29zM86 449l7 11h-25v-80h29l-9 11q-9 11 -9 30q0 17 7 28zM51 154v323h396v-667h-396v202h104v-90h156v232h-260z" />
    <glyph glyph-name="h" unicode="h" horiz-adv-x="545" 
d="M477 -92v243h-90v-243h90zM172 -92v243h-105v-243h105zM397 181q-7 12 -9 14l-1 -12q0 -10 1 -12.5t7 -2.5h9zM139 189q6 7 -3 7q-10 0 -10 -7t3 -7q5 0 10 7zM109 189q0 7 -8 7q-7 0 -1 -7q5 -7 8 -7q1 3 1 7zM453 198q-3 1 -7 1q-7 0 -7 -7q0 -5 1 -5.5t6 4.5q7 5 7 7z
M422 192q0 7 -8 7q-5 0 -5.5 -1t4.5 -6q5 -7 7 -7q2 3 2 7zM109 222q0 5 -3 5q-4 0 -7 -5t3 -5q7 0 7 5zM446 217q11 0 5 8t-11 4q-1 -2 -1 -5q0 -7 7 -7zM422 224q0 10 -8.5 4t-4.5 -10q2 -1 6 -1q7 0 7 7zM140 220q0 4 -7 7t-7 -3q0 -7 7 -7t7 3zM477 168v76h-18l7 -9
q8 -11 8 -25q0 -16 -9 -27q-6 -7 -7 -10t1 -4t8 -1h10zM402 242q-3 1 -5 2q-7 0 -8.5 -2t-1.5 -9v-11l6 9q6 9 9 11zM369 168v76h-180v-76h180zM172 168v76h-28l8 -9q11 -11 11 -30q0 -20 -11 -31q-4 -4 -3 -5t10 -1h13zM84 234l8 10h-25v-76h24l-8 13q-8 13 -8 25
q0 16 9 28zM172 262v392h-105v-392h105zM50 -110v782h139v-410h305v-372h-125v261h-180v-261h-139z" />
    <glyph glyph-name="i" unicode="i" horiz-adv-x="214" 
d="M146 -78v354h-77v-354h77zM52 -96v389h111v-389h-111zM119 381q2 -2 5 0q-2 1 -3 2q-4 0 -2 -2zM101 380q0 3 -6 3q-5 0 -5 -1q0 -3 8 -4q2 1 3 2zM124 401q8 0 0 6l-3 1q-3 0 -3 -4q0 -3 6 -3zM101 406q0 7 -9 0q-7 -5 1 -5t8 5zM84 424q8 4 24 4t24 -4q17 -9 17 -31
q0 -13 -7 -21q-11 -14 -34 -14q-24 0 -35 14q-7 10 -7 20q0 22 18 32z" />
    <glyph glyph-name="j" unicode="j" horiz-adv-x="464" 
d="M336 -162q-5 7 -8 7q-1 -3 -1 -7q0 -7 8 -7q7 0 1 7zM79 -162q-5 7 -8 7q-1 -3 -1 -7q0 -7 8 -7q5 0 5.5 1t-4.5 6zM397 -160q0 10 -8 0q-5 -6 -4.5 -7.5t5.5 -1.5q7 0 7 9zM140 -160q0 10 -8 0q-5 -6 -4.5 -7.5t5.5 -1.5q7 0 7 9zM376 -124q0 4 -4 4q-3 0 -3 -4
q0 -3 3 -3q4 0 4 3zM352 -124q0 4 -2 4l-4 -6q0 -1 2 -1q4 0 4 3zM119 -124q0 4 -3 4q-4 0 -4 -4q0 -3 4 -3q3 0 3 3zM95 -124q0 4 -2 4l-4 -6q0 -1 2 -1q4 0 4 3zM397 -110q0 7 -7 7q-5 0 -5.5 -1t4.5 -6l7 -7q1 0 1 7zM338 -106q4 3 -3 3q-8 0 -8 -7q0 -8 3 -4zM310 -169
v66h-153v-66h153zM140 -110q0 7 -8 7q-5 0 -5.5 -1t4.5 -6q5 -7 8 -7q1 3 1 7zM81 -106q5 3 -3 3t-8 -7q0 -8 3 -4zM140 -85v97h-70v-97h70zM397 -85v399h-70v-399h70zM310 -85v416h104v-517h-361v215h104v-114h153zM377 440q4 3 5.5 4.5t3 4t-0.5 3.5t-7 1q-9 0 -9 -9
q0 -7 1.5 -7.5t6.5 3.5zM352 446q0 7 -7 7q-11 0 -5 -8q6 -9 11 -4q1 1 1 5zM378 470q15 0 -1 13q-5 4 -6.5 3.5t-1.5 -7.5q0 -9 9 -9zM352 479q0 11 -8 2q-11 -11 1 -11q7 0 7 9zM325 435q-8 11 -8 26q0 19 12.5 32.5t31.5 13.5q11 0 20 -4q26 -12 26 -42q0 -20 -14 -32.5
t-32 -12.5q-23 0 -36 19z" />
    <glyph glyph-name="k" unicode="k" horiz-adv-x="469" 
d="M128 185q0 -3 1 -3q2 2 1 6q-1 -1 -2 -3zM391 -39q0 2 -51 69.5t-102 133.5l-51 66q-4 0 -21 -12l-17 -13l-1 -24v-23l91 -120q91 -120 93 -120q59 38 59 43zM131 222q0 8 -0.5 8.5t-4.5 -3.5q-2 -2 -23 -5q1 -1 2 -3q9 -14 18 -10q8 3 8 13zM131 -85v234q-33 43 -62 83
v-317h62zM173 249q0 4 -12 18l-12 14l-1 -25q0 -25 2 -25q3 0 13 8t10 10zM131 283q0 9 -0.5 9t-8.5 -6l-8 -6l9 -4q6 -3 7 -2t1 9zM372 402q0 3 -17.5 25t-20.5 22q-5 0 -93 -68q-85 -64 -85 -71q0 -2 1 -3q5 -5 5 -9q0 -1 13 -18.5t14 -17.5q2 0 17 10.5t22 17.5
q10 10 76 60q68 51 68 52zM131 325v211h-62v-261l13 9q7 5 18 16q2 2 8.5 7.5t9.5 7.5zM204 244q0 -2 106.5 -142.5t106.5 -141.5q0 -5 -44 -37q-39 -30 -46 -30q-2 0 -3 1q-7 11 -89 117l-85 113q0 -38 -1 -113.5t-1 -113.5h-97v182q0 24 -0.5 82t-0.5 89q0 32 0.5 85.5
t0.5 71.5v146h97v-219l93 71q92 70 97 70t32 -35.5t27 -41.5q0 -3 -66 -52q-62 -46 -73 -57q-12 -12 -32 -27q-22 -16 -22 -18z" />
    <glyph glyph-name="l" unicode="l" horiz-adv-x="232" 
d="M133 -23q0 4 -5 4t-5 -8q0 -5 0.5 -5t4.5 2q5 3 5 7zM106 -27q0 8 -6 8t-1 -6q1 -1 3 -4q3 -3 3 -4zM101 5q-2 -3 -1 -5q1 -5 5 0q2 2 0 5q-1 5 -4 0zM133 1q0 4 -5 7q-4 2 -4.5 2t-0.5 -5q0 -7 5 -7t5 3zM78 -8q1 18 10.5 29t25.5 11q8 0 17 -3q23 -8 23 -41
q0 -20 -13 -32q-10 -10 -26 -10q-15 0 -27 13q-10 12 -10 24v9zM133 616q0 3 -5 3t-5 -7q0 -4 0.5 -4.5t4.5 1.5q5 3 5 7zM106 612q0 7 -6 7q-5 0 -1 -5q1 -1 3 -4q3 -3 3 -4zM101 644q-2 -3 -1 -5q1 -5 5 0q2 2 0 5q-1 5 -4 0zM133 640q0 4 -5 7q-4 2 -4.5 2t-0.5 -5
q0 -7 5 -7t5 3zM116 585q-37 0 -37 41v10q1 17 12 26q11 10 24 10q15 0 26.5 -12.5t11.5 -31.5v-6q-3 -37 -37 -37zM165 -72v764h-98v-363q0 -362 2 -382l3 -19h93zM50 360v350h132v-799h-127l-3 50q-2 54 -2 399z" />
    <glyph glyph-name="m" unicode="m" horiz-adv-x="633" 
d="M145 281q0 2 -5 2q-6 0 -6 -6q0 -8 11 4zM117 276q0 7 -8 7q-7 0 -1 -7q5 -7 8 -7q1 3 1 7zM143 307q-5 7 -8 7q-1 -3 -1 -7q0 -7 8 -7q5 0 5.5 1t-4.5 6zM117 307q0 11 -8 5q-9 -6 -4 -11q1 -1 5 -1q7 0 7 7zM166 293q0 -19 -11.5 -30.5t-30.5 -11.5q-17 0 -30 13
q-11 11 -11 21v10q1 19 13 30q11 10 28 10q19 0 30.5 -11.5t11.5 -30.5zM565 -78v298h-66v-298h66zM360 -78v298h-59v-298h59zM179 -78v298h-111v-298h111zM354 264q-7 -7 -21 -7q-11 0 -19 4l-13 7v-30h59v16q0 13 -1 13zM534 257q-13 0 -24 8l-11 8v-35h66v35l-9 -8
q-8 -8 -22 -8zM542 280q1 -1 3 -1q1 2 -1 4q-1 0 -2 -1t0 -2zM523 281q0 2 -2 2q-1 0 -1 -2t1 -2q2 0 2 2zM340 280q1 -1 3 -1q2 2 0 4q-1 0 -2.5 -1t-0.5 -2zM322 281q0 2 -2 2t-2 -2t2 -2t2 2zM544 300q4 1 -2 7q-1 0 -1 -4q0 -3 3 -3zM523 303q0 4 -1 4l-4 -6l1 -1
q4 0 4 3zM343 300q2 1 -2 7q-2 0 -2 -4q0 -3 4 -3zM322 303q0 4 -2 4l-4 -6l2 -1q4 0 4 3zM565 313v36h-66v-35l10 8q10 7 23 7q16 0 25 -9zM482 238v111h-105v-111h105zM360 332v17h-59v-31l12 6q10 5 20 5q12 0 21 -7q6 5 6 10zM284 238v111h-87v-111h87zM179 238v111
h-111v-111h111zM179 366v87h-111v-87h111zM51 -96v566h146v-104h385v-462h-100v316h-105v-316h-93v316h-87v-316h-146z" />
    <glyph glyph-name="n" unicode="n" horiz-adv-x="536" 
d="M426 277q0 -9 8 -1.5t-2 7.5q-6 0 -6 -6zM409 277q0 6 -8 6q-10 0 -1 -8l6 -3q3 0 3 5zM433 300q11 0 0 11q-3 3 -4 3q-3 0 -3 -7t7 -7zM409 307q0 11 -8 5q-9 -6 -4 -11q1 -1 5 -1q7 0 7 7zM393 328q12 7 26 7q11 0 21 -5q7 -4 14 -16t7 -21t-7 -20.5t-14 -15.5
q-8 -5 -24 -5t-23 5q-18 12 -18 36q0 23 18 35zM145 282q-3 1 -7 1q-7 0 -7 -8q0 -7 7 -1q7 5 7 8zM114 277q0 6 -6 6q-5 0 -5 -2q3 -3 5.5 -5t5.5 1zM138 300q11 0 5 8q-6 9 -11 4q-1 -1 -1 -5q0 -7 7 -7zM114 307l-2 7q-2 0 -7 -7q-5 -5 -4.5 -6t5.5 -1q8 0 8 7zM82 293
q0 19 11.5 30.5t30.5 11.5q20 0 31 -11.5t11 -30.5t-11.5 -30.5t-30.5 -11.5t-30.5 11.5t-11.5 30.5zM468 -78v298h-104v-298h104zM179 -78v298h-111v-298h111zM468 238v111h-104v-111h104zM346 238v111h-149v-111h149zM179 238v111h-111v-111h111zM179 366v87h-111v-87h111
zM51 -96v566h146v-104h288v-462h-139v316h-149v-316h-146z" />
    <glyph glyph-name="o" unicode="o" horiz-adv-x="505" 
d="M436 -75v31q-1 0 -8 -11q-8 -12 -16 -15q1 -4 8 -5h16zM370 -69q-9 6 -15 17l-5 10v-33h29zM155 -59q0 15 -1 15q-3 -3 -5 -9q-4 -10 -14 -16l-9 -6h29v16zM93 -70q-10 4 -17 15l-8 12v-32h17q13 0 13 2q0 1 -5 3zM416 -41q-3 1 -7 1q-7 0 -7 -8q0 -5 1 -5.5t6 4.5
q7 5 7 8zM384 -47q0 7 -7 7q-11 0 0 -11q3 -3 4 -3q3 0 3 7zM120 -47q0 -9 7 -4q10 7 4 10q-2 1 -4 1q-7 0 -7 -7zM103 -47q0 7 -8 7q-7 0 -1 -7q5 -7 8 -7q1 3 1 7zM410 -16q-5 7 -7 7q-1 -3 -1 -7q0 -7 7 -7t1 7zM384 -16l-1 7q-2 0 -7 -7q-6 -7 1 -7t7 7zM129 -16
q-5 7 -8 7q-1 -3 -1 -7q0 -7 8 -7q5 0 5.5 1t-4.5 6zM103 -16l-1 7q-3 0 -8 -7q-6 -7 1 -7q8 0 8 7zM436 -6v18l-19 -1l-15 -2l4 -1q18 -5 26 -22q1 -1 1 -3q2 -3 2 -4l1 7v8zM375 7l11 4l-18 1h-18v-33l7 11q8 12 18 17zM332 -75v87h-159v-87h159zM155 -21v33h-18l-18 -1
l11 -4q10 -5 18 -17zM99 8q2 3 -11 3l-20 1v-18l1 -15q1 1 4 7q8 17 26 22zM436 29v222h-86v-222h86zM332 29v222h-159v-222h159zM155 29v222h-87v-222h87zM377 271q-5 2 -14 10.5t-10 13.5q-3 0 -3 -10v-16h16l12 2h-1zM155 284q0 16 -2 16q-1 0 -1 -5q0 -4 -9.5 -13
t-15.5 -11q-2 -1 1 -1q3 -1 11 -1h16v15zM93 273q-9 3 -17 16l-8 12v-32h17q13 0 13 1t-5 3zM436 286q0 17 -1 17q-2 -4 -4 -10q-3 -8 -16 -17l-12 -7h33v17zM416 302q-3 1 -7 1q-7 0 -7 -7q0 -5 1 -5.5t6 4.5q7 5 7 7zM384 297q0 6 -7 6q-9 0 -4 -7q7 -8 10 -2q1 1 1 3z
M120 297q0 -9 7 -4q9 6 4 9q-2 1 -4 1q-7 0 -7 -6zM103 297q0 6 -8 6q-5 0 -5 -0.5t4 -5.5q5 -7 8 -7q1 3 1 7zM410 328q-5 7 -7 7q-1 -3 -1 -7q0 -7 7 -7t1 7zM384 328l-1 7q-2 0 -7 -7q-6 -7 1 -7t7 7zM129 328q-5 7 -8 7q-1 -3 -1 -7q0 -7 8 -7q5 0 5.5 1t-4.5 6z
M103 328l-1 7q-3 0 -8 -7q-6 -7 1 -7q8 0 8 7zM436 319v37h-36l12 -7q13 -5 18 -18zM375 350l11 5l-18 1h-18v-33l7 11q7 10 18 16zM332 269v87h-159v-87h159zM155 323v33h-18l-18 -1l11 -5q11 -6 18 -16zM93 349l12 7h-37v-37l7 12q5 13 18 18zM51 -92v465h403v-465h-403z
" />
    <glyph glyph-name="p" unicode="p" horiz-adv-x="484" 
d="M155 -190v278h-87v-278h87zM416 118q0 11 -2 12q-1 0 -3 -5q-2 -6 -13 -13l-12 -6h15q11 0 13 1.5t2 10.5zM354 109q-4 1 -14 13l-8 9v-13q0 -9 2 -10.5t13 -1.5q16 0 7 3zM155 119q0 13 -2 14q-1 0 -3 -7q-2 -6 -13 -14l-11 -6h29v13zM395 138q0 2 -7 2t-7 -7t3 -7
q2 0 6.5 5t4.5 7zM364 133q0 7 -8 7q-5 0 -5.5 -1t4.5 -6q5 -7 7 -7q2 3 2 7zM134 138q0 2 -7 2t-7 -7q0 -13 10 -2q4 5 4 7zM103 133q0 7 -8 7q-7 0 -1 -7q5 -7 8 -7q1 3 1 7zM96 108q-18 6 -23 24l-4 6q-1 0 -1 -14v-18h17l12 2h-1zM364 163q0 4 -1 5q-4 3 -8.5 -3.5
t3.5 -6.5q6 0 6 5zM395 161q0 3 -7 7t-7 -3t7 -7t7 3zM134 161q0 3 -7 7t-7 -3t7 -7t7 3zM103 165l-1 7q-3 0 -8 -7q-6 -7 1 -7q8 0 8 7zM416 176q0 9 -2 11t-10 2q-11 0 -4 -6q7 -5 11 -13q4 -3 5 6zM349 185q2 4 -6 4q-7 0 -9 -1.5t-2 -9.5t1 -9t5 4q7 9 11 12zM315 106
v83h-142v-83h142zM155 176q0 9 -1.5 11t-9.5 2q-10 0 -9 -2q0 -1 3 -3q6 -4 11 -12l6 -9v13zM73 167q5 10 21 22h-26v-16l1 -17zM416 206v91h-84v-91h84zM315 206v91h-142v-91h142zM155 206v91h-87v-91h87zM155 323l-1 8q-1 0 -4 -3q-5 -4 -8 -6l-12 -8h13q8 0 10 1.5t2 7.5
zM354 319q-10 5 -22 21v-26h33zM416 328q0 14 -2 13q-2 0 -5 -8t-15 -14l-11 -5h33v14zM395 346q0 3 -7 3t-7 -7q0 -13 10 -3q4 4 4 7zM364 341q0 8 -6 8q-5 0 -5 -4t6 -8q5 -3 5 4zM141 348q-3 1 -7 1q-7 0 -7 -8q0 -7 7 -1q7 5 7 8zM110 342q0 7 -8 7q-5 0 -5.5 -1t4.5 -6
q5 -7 8 -7q1 3 1 7zM388 366q11 0 5 8q-6 9 -11 4q-1 -1 -1 -5q0 -7 7 -7zM364 373l-2 7q-2 0 -7 -7q-5 -5 -4.5 -6t5.5 -1q8 0 8 7zM134 366q9 0 4 7q-7 10 -10 4l-1 -4q0 -7 7 -7zM110 373q0 11 -8 5q-9 -6 -4 -11q1 -1 5 -1q7 0 7 7zM416 388v13h-30l11 -7q11 -8 15 -13
q4 -2 4 7zM351 394l11 7h-30v-13q0 -9 1 -10q1 0 3 3q4 5 15 13zM315 314v87h-142v-87h142zM155 391q0 7 -2 8t-11 1l-9 -2h1q7 -2 21 -16v9zM95 395l10 5l-18 1h-19v-87h20q16 1 13 3q-25 9 -25 40q0 26 19 38zM155 418v70h-87v-70h87zM51 -200v705h122v-87h260v-330h-260
v-288h-122z" />
    <glyph glyph-name="q" unicode="q" horiz-adv-x="480" 
d="M413 -179v280h-87v-280h87zM413 130l-1 12l-12 -12l-11 -12h12q8 0 10 2t2 10zM153 130v12l-12 -12l-11 -12h12q8 0 9.5 2t1.5 10zM89 124q-10 7 -14 13q-5 -3 -5 -6q0 -9 2 -11t11 -2q10 0 10.5 1t-4.5 5zM396 152q0 1 -9 1q-5 0 -7 -1.5t-2 -7.5v-9l9 8q9 7 9 9z
M361 146q0 7 -8 7q-7 0 -1 -7q5 -7 8 -7q1 3 1 7zM133 150q0 3 -7 3t-7 -7q0 -13 10 -2q4 4 4 6zM101 146q0 7 -6 7q-8 0 -4 -7q6 -9 9 -4q1 1 1 4zM344 127q-10 8 -14 20l-2 6l-1 -15l-1 -20h29zM361 175q0 8 -6 4q-8 -5 -3 -8l4 -1q5 0 5 5zM101 175q0 8 -6 4q-8 -5 -3 -8
l4 -1q5 0 5 5zM387 177q-5 7 -8 7q-1 -3 -1 -7q0 -7 8 -7q5 0 5.5 1t-4.5 6zM127 177q-5 7 -7 7q-1 -3 -1 -7q0 -7 7 -7q5 0 5.5 1t-4.5 6zM413 189q0 9 -2 10.5t-11 1.5l-10 -1q1 -1 4 -3l1 -1q7 -6 13 -13q5 3 5 6zM345 195q-2 6 -5 6h-14v-18l1 -18l5 12q5 12 13 18z
M309 118v83h-138v-83h138zM153 189q0 9 -1.5 10.5t-10.5 1.5q-10 0 -11 -1l5 -4q7 -6 13 -13q5 3 5 6zM87 196q2 5 -5 5q-8 0 -10 -1.5t-2 -9.5q0 -9 2 -9q1 0 3 4q4 5 12 11zM413 219v93h-87v-93h87zM309 219v93h-138v-93h138zM153 219v93h-83v-93h83zM352 329
q-17 12 -21 18q-4 2 -5 -6q0 -8 2 -10t11 -2h13zM89 336q-11 8 -15 13q-4 1 -4 -6v-14h30zM153 343q0 13 -2 14q-1 0 -3 -7q-2 -6 -13 -14l-11 -7h29v14zM389 363q-3 1 -7 1q-7 0 -7 -8q0 -5 1 -5.5t6 4.5q7 5 7 8zM357 357q0 7 -6 7q-10 0 -4.5 -8t9.5 -4zM133 361
q0 3 -7 3t-7 -7t3 -7q2 0 6.5 4.5t4.5 6.5zM101 357q0 7 -7 7q-5 0 -5.5 -1t4.5 -6q5 -7 7 -7q1 3 1 7zM383 388q-5 7 -7 7q-1 -3 -1 -7q0 -7 7 -7q5 0 5.5 1t-4.5 6zM349 382q5 -2 7 0.5t1 7.5q-1 7 -8 0t0 -8zM133 385q0 3 -7 7t-7 -4q0 -7 7 -7t7 4zM101 388l-1 7
q-2 0 -7 -7q-5 -5 -4.5 -6t5.5 -1q7 0 7 7zM413 329v87h-36l11 -7q21 -13 21 -37q0 -9 -8 -21t-16 -17q0 -5 10 -5h18zM351 413q3 1 -2 2l-8 1q-11 0 -13 -1.5t-2 -9.5v-11l10 9q7 7 15 10zM309 329v87h-138v-87h138zM153 401v15h-33l12 -6q9 -5 17 -15l1 -1l2 -5zM89 409
l11 7h-30v-13q0 -9 1 -10l3 3q4 5 15 13zM413 433v69h-87v-69h87zM309 433v87h121v-717h-121v298h-256v332h256z" />
    <glyph glyph-name="r" unicode="r" horiz-adv-x="486" 
d="M158 -82v339h-90v-339h90zM158 288q0 12 -1 13l-5 -7q-4 -8 -14 -14l-9 -6h29v14zM88 280q-9 5 -14 14l-5 9l-1 -14v-15h30zM127 294q5 4 7.5 8.5t-5.5 6.5q-9 0 -9 -9q0 -6 1 -7t6 1zM103 302q0 7 -7 7q-11 0 -5 -8q6 -9 11 -4q1 1 1 5zM131 337q-5 4 -7 5t-3 -0.5
t-1 -6.5q0 -9 9 -9q14 0 2 11zM85 328q1 0 5.5 -0.5t7 -1t4.5 0.5q1 2 0.5 4.5t-1 7.5t-0.5 6l-8 -9zM418 274v90h-242v-90h242zM158 348v16h-16q-14 0 -12 -2l2 -1q6 -2 14 -10.5t10 -14.5q1 -2 1 1zM94 361q9 3 -9 3h-17v-28l10 11q11 13 16 14zM158 381v56h-90v-56h90z
M51 -100v554h125v-73h259v-124h-259v-357h-125z" />
    <glyph glyph-name="s" unicode="s" horiz-adv-x="416" 
d="M317 -70q0 1 -1 1q-2 0 -2 -1q0 -2 2 -2q1 0 1 2zM349 -89v59h-26l8 -8q7 -8 7 -22q0 -15 -7 -22l-7 -7h25zM287 -33q2 1 -0.5 1.5t-7.5 0.5l-13 1v-59h11q7 0 8 0.5t-3 5.5q-8 10 -8 23q0 20 13 27zM248 -89v59h-180v-59h180zM349 -13v131h-83v-131h83zM317 155
q0 1 -1 1q-2 0 -2 -1q0 -2 2 -2q1 0 1 2zM349 136v58h-26l8 -7q7 -8 7 -22q0 -15 -7 -22l-7 -7h25zM287 192q2 1 -0.5 1.5t-7.5 0.5h-13v-58h11q10 0 5 6q-8 10 -8 23q0 21 13 27zM248 136v58h-180v-58h180zM134 212v128h-66v-128h66zM134 364l-1 7q-3 0 -8 -7
q-5 -5 -4.5 -6t5.5 -1q8 0 8 7zM81 362q-6 4 -9 12q-3 1 -3 -4q0 -9 1 -11t8 -2q6 0 6.5 1t-3.5 4zM113 397q0 2 -1 2q-2 0 -2 -2t2 -2q1 0 1 2zM349 357v59h-198v-59h198zM134 408q0 8 -8 8t-3 -3l8 -8q2 1 3 3zM76 407q6 9 -1 9t-7 -11l1 -9q3 3 7 11zM51 118v315h315v-93
h-215v-128h215v-319h-315v94h197v131h-197z" />
    <glyph glyph-name="t" unicode="t" horiz-adv-x="544" 
d="M237 -46q0 -7 3 -7t6 4t3 8t-5 4q-7 0 -7 -9zM220 -46q0 9 -7 9q-15 0 -1 -12q8 -8 8 3zM251 -17q0 4 -7 9q-7 6 -7 -3t7 -9t7 3zM220 -11q0 11 -8 2q-11 -11 1 -11q7 0 7 9zM215 14q10 2 15 2q18 0 29.5 -12.5t11.5 -32.5v-6q-1 -18 -13.5 -29t-29.5 -11q-10 0 -19 4
q-23 11 -23 42q0 35 29 43zM476 -86v114h-173v-114h173zM286 -86v114h-114v-114h114zM286 46v328h-114v-328h114zM251 419q0 4 -7 4t-7 -7q0 -13 11 -1q3 3 3 4zM220 416q0 7 -7 7q-11 0 -5 -8q6 -9 11 -4q1 1 1 5zM244 440q11 0 5 8q-6 9 -11 4q-1 -1 -1 -5q0 -7 7 -7z
M220 447q0 11 -8 5q-9 -6 -4 -11q1 -1 5 -1q7 0 7 7zM379 392v79h-76v-79h76zM286 392v79h-31l8 -12q9 -13 9 -28q0 -21 -17 -35q-4 -3 3 -4h10h18zM194 459l8 12h-30v-79h18q14 0 15 2q0 1 -2 2q-17 14 -17 36q0 16 8 27zM154 392v79h-83v-79h83zM286 489v96h-114v-96h114z
M154 489v114h149v-114h94v-115h-94v-328h190v-149h-339v477h-100v115h100z" />
    <glyph glyph-name="u" unicode="u" horiz-adv-x="445" 
d="M87 -75q-8 4 -19 18v-11q0 -8 2 -9.5t11 -1.5q8 0 9 1t-1 2zM376 -67q0 12 -2 11q-1 0 -3 -6t-11 -12l-10 -5h13q9 0 11 1.5t2 10.5zM318 -74q-7 6 -13 13q-5 -3 -5 -5q0 -9 2 -11t11 -2l10 1q-1 1 -4 3zM144 -65q0 13 -2 14q-1 0 -3 -7q-2 -6 -11 -14l-9 -7h13
q9 0 10.5 2t1.5 12zM355 -51q0 3 -3 3t-3 -5q0 -7 4 -1q2 1 2 3zM331 -53q0 5 -5 5t-5 -3q0 -4 6 -5q4 -1 4 3zM124 -49q0 1 -6 1q-5 0 -5 -5q0 -9 11 4zM96 -53q0 5 -5 5t-5 -1q0 -3 6 -7q3 1 4 3zM352 -30q5 0 1 4l-3 2q-1 0 -1 -3t3 -3zM331 -27q0 3 -3 3t-5 -3t3 -3t5 3
zM120 -27q0 3 -3 3q-4 0 -4 -3t4 -3q3 0 3 3zM96 -27q0 3 -1 3l-3 -6q4 0 4 3zM376 -14q0 8 -2 9.5t-9 1.5q-8 0 -8 -1t3 -3q5 -4 11 -11q5 2 5 4zM318 -5q-2 1 -6 2q-8 0 -10 -2t-2 -11v-13l7 11q8 12 11 13zM283 -79v76h-121v-76h121zM144 -17q0 11 -1.5 12.5t-10.5 1.5
h-13l10 -7q10 -8 12 -15q3 -4 3 8zM89 -3h-10q-7 0 -9 -1.5t-2 -7.5v-9l10 8q5 4 11 10zM376 15v318h-76v-318h76zM144 15v318h-76v-318h76zM51 -96v446h111v-335h121v335h111v-446h-343z" />
    <glyph glyph-name="v" unicode="v" horiz-adv-x="454" 
d="M259 -25q-10 -14 -30 -14q-23 0 -32 17l-7 10l-3 -12q-2 -10 -2 -12q0 -12 22 -18q11 -3 18 -3t21 3q25 6 25 18q0 6 -2 10l-3 10zM245 -11q0 1 -3 1q-4 0 -4 -3q0 -6 6 -1zM221 -15q0 5 -5 5q-6 0 -6 -1q3 -4 5.5 -6t5.5 2zM242 8q2 1 -2 7q-2 0 -2 -4q0 -3 4 -3z
M221 13q0 5 -2 5l-5 -5t1 -5q6 0 6 5zM243 75q-13 46 -13 49l-1 1q-2 0 -16 -52l-12 -44l14 6q13 4 26 0l14 -6zM300 396h-1l-4 -15q-4 -15 -12 -45.5t-15 -56.5l-30 -114q8 -27 22 -82t22 -82l49 187q11 41 24 90t19 72.5t6 25.5t-37.5 11t-42.5 9zM188 282
q-31 116 -33 116q-79 -20 -79 -24q0 -2 49 -187l50 -187q18 66 43 166zM107 404q54 15 59 15q4 0 32 -105q27 -106 30 -106q1 0 15 51t28 103.5t16 54.5h2q13 0 57 -13q38 -10 47 -13.5t8 -7.5q-108 -414 -108 -417q0 -4 2 -16q0 -1 1 -3v-2q0 -5 -7 -9t-8 -11
q-3 -14 -10 -14q-3 0 -10.5 2t-11.5 3q-20 4 -21 4q-3 0 -21 -4q-15 -4 -21 -4q-7 0 -10 13q-4 13 -10 13q-7 0 -7 1q1 6 3 13v2q1 2 1 3q0 9 -53 213q-13 48 -27 102t-21.5 82t-7.5 29q-1 4 7 7z" />
    <glyph glyph-name="w" unicode="w" horiz-adv-x="696" 
d="M356 372q0 -8 7.5 -1t-1.5 7q-6 0 -6 -6zM339 372q0 6 -5 6q-6 0 -6 -2q3 -3 5.5 -5t5.5 1zM363 395q11 1 -4 11q-3 0 -3 -6q0 -5 7 -5zM339 400q0 6 -2 6q-3 -3 -5 -5.5t1 -5.5q6 0 6 5zM350 426q38 0 38 -41q0 -18 -11 -28t-28 -10q-12 0 -21 5q-20 11 -20 34t18 35
q7 5 24 5zM228 -24q-8 0 -19 13l-11 12l-3 -16q-2 -17 0 -19q8 -4 23 -8q18 -4 20 -4q3 0 23 4q15 4 20 7.5t5 11.5q0 7 -1 12q-2 12 -6 11q-2 0 -4 -6q-6 -18 -39 -18h-8zM495 1q-8 -26 -39 -26q-22 0 -33 18l-8 11l-2 -15q-2 -18 -1 -20q3 -6 23 -11q13 -4 21 -4
q10 0 23 4q15 3 19.5 6t4.5 11t-2.5 17.5t-4.5 9.5q-1 0 -1 -1zM470 -3q5 0 6 8q0 3 -4 3q-5 0 -5 -6q0 -5 3 -5zM449 1q0 7 -7 7q-5 0 -5.5 -1t4.5 -6q5 -7 7 -7q1 3 1 7zM249 2q0 -9 7 -1.5t-2 7.5q-5 0 -5 -6zM231 2q0 6 -5 6q-9 0 -2 -7.5t7 1.5zM472 25q9 0 -4 10
q-1 0 -1 -5t5 -5zM449 30q0 5 -1 5l-5 -5t1 -5q5 0 5 5zM254 25q9 0 -4 10q-1 0 -1 -5t5 -5zM231 30q0 5 -1 5l-5 -5t1 -5q5 0 5 5zM475 90q-12 40 -14 54q-2 7 -3.5 7.5t-2.5 -3.5q-26 -95 -26 -100q0 -2 9 3q10 5 17 5t20 -5l12 -5zM270 46l-2 7q-2 7 -6 22t-7 27l-15 55
l-13 -49q-13 -50 -15 -56q-2 -5 0 -5q2 1 9 4q7 5 19 5t19 -5zM446 193q0 6 -20 82l-20 76l-23 -87q-24 -89 -24 -91q0 -8 20 -79.5t22 -71.5q3 0 24 84t21 87zM319 97l20 75q-8 30 -24 89.5t-24 89.5l-11 -43q-14 -55 -21 -78l-10 -36l23 -86q22 -87 25 -87q2 0 22 76z
M374 426q-16 5 -27 5q-9 0 -20 -4q-13 -4 -15.5 -7t-5.5 -16q-2 -10 -2 -14q0 -13 21 -92q23 -83 25 -83t13.5 43.5t21.5 87.5l10 43q0 3 -4 19q-2 9 -5.5 12.5t-11.5 5.5zM621 415q0 3 -41 14t-45 11h-1q-1 0 -36 -130l-31 -117l23 -87q6 -23 12 -43t10 -31t4 -10
q1 2 52 195t53 198zM197 319q-32 121 -38 121q-5 0 -44 -11q-15 -4 -23.5 -7t-12 -5t-2.5 -4q0 -2 52.5 -197t53.5 -195t23.5 83.5t22.5 88.5q0 7 -32 126zM113 448q57 16 61 16t35 -117l31 -118q7 26 21 79t21 79l-6 22q-6 22 -5 22q5 2 12 4q14 4 16 17q1 4 2 6.5t2.5 3.5
t2.5 1q5 -2 25 -6q12 -3 19 -3q2 0 22 4q20 6 22 4q4 -4 5 -13q2 -12 14 -14q12 -3 12 -8q0 -3 -5 -21q-3 -9 -3 -15q0 -9 19 -80q20 -76 21 -77q1 0 32 115q31 114 35 114q3 0 61 -16t58 -18q0 -3 -58 -220t-58 -240v-6.5t0.5 -4.5t0 -3t-2 -2.5t-3.5 -1.5
q-5 -1 -8.5 -14.5t-6.5 -14.5t-26 5q-13 4 -22 4q-8 0 -20 -3q-21 -4 -21 -7t-6 -3t-9 13q-3 15 -10 18l-8 5v2q0 1 0.5 4t1.5 6q1 2 1 8q0 9 -17 77q-18 78 -21 78q-2 0 -22 -71q-18 -67 -18 -85v-6q2 -15 -5 -17q-7 -1 -10 -15q-3 -17 -10 -17q-4 0 -22 5q-20 5 -25 5
q-8 0 -20 -4q-20 -5 -24 -5q-8 0 -9 14q-3 16 -11 17q-6 2 -5 8t1 10q0 24 -57.5 238.5t-57.5 220.5q0 5 58 21z" />
    <glyph glyph-name="x" unicode="x" horiz-adv-x="507" 
d="M277 137q5 8 5 8.5t-8 -5.5q-4 -4 -18 -4q-15 0 -27 5l-2 -1l11 -17l15 -21l9 13q13 19 15 22zM239 85q0 3 -25 39t-28 36q-2 0 -55.5 -76t-54.5 -80l12 -9q3 -2 4 -3q3 -2 36 -26l19 -14l46 65q46 66 46 68zM374 85l-55 77l-1 -1q-1 -1 -4 -5t-7 -9.5t-10.5 -15
t-14.5 -21.5l-17 -25l39 -55q9 -13 20 -28.5t18 -25.5t9 -12l8 -11l34 24q35 24 35 28t-54 80zM213 162q0 1 -1 1q-2 0 -2 -1q0 -2 2 -2q1 0 1 2zM262 163q0 -9 7 -4q10 7 4 10l-4 1q-7 0 -7 -7zM244 163q0 7 -6 7q-12 0 -3 -9t9 2zM210 179q0 12 -1 12t-5 -4q-9 -9 1 -17
q4 2 5 9zM303 174q4 6 -2 14l-6 9v-18q0 -13 1 -14l6 7zM269 188q8 0 3 7q-6 8 -9 3q-1 -2 -1 -4q0 -6 7 -6zM244 194q0 12 -9 3t3 -9q6 0 6 6zM277 221q-2 3 -15 22l-9 13l-15 -21q-15 -21 -9 -18q12 5 25 5q14 0 21 -5l9 -6zM427 352q0 5 -33 29l-35 24l-8 -11
q-2 -2 -9 -12t-18 -25.5t-20 -28.5q-36 -51 -36 -57q0 -2 2 -6q1 -2 5 -8t10.5 -15t11.5 -16l22 -30l54 75q54 78 54 81zM239 273l-92 133q-1 -1 -34 -24.5t-34 -24.5q-4 -3 49.5 -81t57.5 -78q2 0 27.5 35.5t25.5 39.5zM99 395q50 35 52 35q4 0 52 -70l50 -71l50 71
q48 68 54 68q4 0 28.5 -17.5t47.5 -34.5t23 -18q0 -2 -63 -91q-62 -87 -60 -91l122 -174q-85 -73 -98 -73q-6 0 -54 69l-50 71l-50 -71q-49 -68 -54 -68q-4 0 -50.5 34.5t-46.5 38.5q0 3 61 88q60 84 60 88q0 1 -60.5 85.5t-60.5 90.5q0 8 47 40z" />
    <glyph glyph-name="y" unicode="y" horiz-adv-x="497" 
d="M164 -153q10 20 26 52.5t50 101t55.5 114.5t20.5 46l-18 -11q-19 -10 -38 -21l-18 -11q-2 0 -17 22l-13 22l-6 -13l-62 -129q-63 -129 -63 -131q0 -4 37.5 -23t44.5 -19h1zM285 213q0 2 -1 2q-2 0 -2 -2q0 -1 2 -1q1 0 1 1zM265 213q0 2 -2 2t-2 -2q0 -1 2 -1t2 1z
M292 249q-19 32 -20 32q-2 0 -17 -32q-11 -25 -8 -24q10 13 26 13q13 0 23 -9.5t10 -23.5q0 -16 -9.5 -24.5t-22.5 -8.5t-23 9t-11 25q0 8 -1 7.5t-8 -14.5l-9 -17l12 -19l12 -20l5 3q5 2 16.5 9.5t19.5 11.5l40 25l-8 12q-2 3 -12 19.5t-15 25.5zM258 302q0 2 -29 49
t-30 48q-2 2 -42 -21l-40 -25q15 -26 46.5 -76.5t47.5 -75.5l23 49q24 50 24 52zM409 376q-34 17 -43 21l-32 15l-26 -54q-25 -52 -25 -57q2 -5 16 -27.5t27.5 -43t14.5 -19.5q4 4 41 81l38 79zM297 379q28 58 30 58q1 0 59 -28t58 -29q0 -2 -134.5 -280t-136.5 -279
q-117 50 -117 55l143 304q0 5 -54 91q-51 84 -51 90q0 3 27 19t54 31l27 15q3 0 35 -52l33 -52z" />
    <glyph glyph-name="z" unicode="z" horiz-adv-x="445" 
d="M125 -44q-12 0 -16 4q-3 0 -4 -4q0 -5 2.5 -6t11.5 -1q15 0 16 3q1 1 -0.5 2t-4 1.5t-5.5 0.5zM88 -30l-1 13q-1 0 -6 -10q-1 -1 -1 -3q-3 -7 1 -10q5 -3 6 -1t1 11zM337 -51v66h-145l-14 -25q-7 -12 -15 -24.5t-10 -16.5h184zM168 12q0 3 -32 3q-31 0 -31 -6t4 -2t15 4
q15 0 22 -7q8 -8 8 -11q0 -5 7 6t7 13zM180 32q25 43 74.5 129.5t74.5 129.5h-64l-7 -11q-5 -8 -67.5 -116.5t-66.5 -116.5l-9 -15h65zM334 317q-10 -4 -14 -4q-14 0 -22 13l-8 10q-3 -5 -8.5 -14t-7.5 -14l34 1q34 1 35 7q1 5 -1 5zM368 356q0 1 -3 1q-4 0 -4 -4q0 -5 6 1
q1 1 1 2zM344 367q0 7 -22 7h-11l12 -3q3 0 9 -2t8.5 -2.5t3.5 0.5zM289 373q0 1 -90 1h-90v-65h143l19 31q18 31 18 33zM301 392q9 17 10 17q2 0 16 -9q13 -8 25 -8q9 0 9 -7t3 -7q1 0 15 -8l13 -8l-15 -27q-16 -27 -16 -35q0 -7 -5 -9q-6 -2 -79 -129l-74 -128
q25 0 75.5 -1t75.5 -1v-101h-210l-6 -10q-5 -10 -7 -10t-35.5 19t-39.5 23q-3 1 -3 5q0 3 16 32q19 34 19 37t3 6q2 1 75.5 127t73.5 129q0 2 -74 2h-75v101h210z" />
    <glyph glyph-name="nbsp" unicode="&#xa0;" 
 />
  </font>
</defs>
</svg>
