<?xml version="1.0" standalone="no"?>
<!DOCTYPE svg PUBLIC "-//W3C//DTD SVG 1.1//EN" "http://www.w3.org/Graphics/SVG/1.1/DTD/svg11.dtd" >
<svg>
<metadata>
Created by FontForge 20090914 at Fri Feb 24 05:14:03 2012
 By root
Copyright (c) 2005 by !Exclamachine. All rights reserved.
</metadata>
<defs>
<font id="!SketchyTimes" horiz-adv-x="440" >
  <font-face 
    font-family="!Sketchy Times"
    font-weight="400"
    font-stretch="normal"
    units-per-em="1000"
    panose-1="2 0 5 6 2 0 0 2 0 4"
    ascent="750"
    descent="-250"
    x-height="407"
    cap-height="602"
    bbox="-117 -326 918 837"
    underline-thickness="50"
    underline-position="-50"
    unicode-range="U+0020-U+2212"
  />
<missing-glyph horiz-adv-x="220" 
 />
    <glyph glyph-name=".notdef" horiz-adv-x="220" 
 />
    <glyph glyph-name="nonbreakingspace" unicode=" " horiz-adv-x="220" 
 />
    <glyph glyph-name="nonbreakingspace" unicode="&#xa0;" horiz-adv-x="220" 
 />
    <glyph glyph-name="E" unicode="E" horiz-adv-x="540" 
d="M441 594l6 1q2 -24 13 -44l22 -42q0 -2 0.5 -2.5t0.5 -1.5q0 -10 -10 -10q-3 0 -8.5 9.5t-11 22.5l-11 26.5t-9.5 21.5q-13 0 -25 0.5t-25 0.5q-66 0 -129.5 -2.5t-129.5 -2.5q0 -7 -9 -8q-8 1 -15.5 1.5t-15.5 0.5t-15 -0.5t-15 -1.5q22 -15 37.5 -35.5t24.5 -45.5
t13 -53t4 -56q-3 -8 -10 -8q-3 0 -6 2.5t-4 7.5q1 9 1.5 18t0.5 18q0 26 -4.5 49.5t-15.5 43.5q-2 -81 -3.5 -160.5t-1.5 -160.5q0 -40 0.5 -79t1.5 -81q18 7 43.5 9t45.5 5q-17 54 -18.5 110.5t-4.5 113.5l8 -1q-2 42 -5 83t-3 83q0 31 2.5 60.5t7.5 57.5l9 -3l1 1
q54 12 109 15t110 7l2 -20q-17 1 -33 1.5t-33 0.5q-38 0 -74.5 -5t-74.5 -19q-6 -28 -8.5 -55.5t-2.5 -55.5q0 -57 6.5 -111.5t8.5 -111.5q0 -11 -9 -11q-3 0 -4 1q0 -35 5 -69.5t21 -69.5q8 1 16.5 1h17.5q54 0 101 -10q2 5 6.5 6.5t10.5 1.5h13h15h11t12 -2q0 2 2 8
q26 29 47 58.5t44 58.5l14 -14q-2 -2 -3 -2.5t-2 -2.5h7q-2 -21 -9 -40.5t-15 -39t-14.5 -40.5t-6.5 -45q-3 -8 -10 -8q-3 0 -6 2.5t-4 7.5q0 1 0.5 4t1.5 8q-5 19 -20.5 26t-34.5 7q-6 0 -12 -0.5t-12 -1.5q5 -1 15 -3.5t10 -11.5t-13 -9q-77 30 -153 30q-7 0 -13.5 -0.5
t-12.5 -0.5q-3 -8 -9 -8t-10 7q-22 -3 -46 -7.5t-47 -12.5v-20t1 -21q0 -6 -3 -8.5t-6 -2.5q-10 0 -11 10q0 9 0.5 18.5t0.5 17.5l-25.5 -7.5t-24.5 -5.5q2 2 3 3.5t2 2.5l-18 4q11 11 28.5 13.5t34.5 7.5q3 145 3 287q0 52 -0.5 103t-1.5 105l15 -2q-13 21 -35 34.5
t-54 17.5l4 20q9 -2 17 -5l16 -6l1 9q2 0 13.5 -1.5t25.5 -1.5q15 0 29 3q0 10 11 10q27 -2 53.5 -3t54.5 -1q48 0 100 2t115 6v-1zM409 266q1 -6 2 -10.5t2 -8.5q0 -6 -3 -8.5t-6 -2.5q-10 0 -11 10v14q-7 20 -29 27.5t-50 7.5q-27 0 -53.5 -6.5t-40.5 -6.5q-9 0 -9 9l2 6
q-8 -1 -14.5 -1t-13.5 -1l1 20h22.5t35 1t41.5 3.5t42 6.5q11 0 11 -10q0 -6 -5 -9q35 -3 59 -18l-2 46.5t-3 46.5l20 -2q-3 -29 -3 -54q0 -16 1.5 -30t6.5 -29zM467 453q-4 25 -20 38t-37 19.5t-45 9t-43 5.5q-7 4 -7 11q0 9 11 9q22 -6 47 -11t47.5 -14t40.5 -23.5
t26 -39.5zM457 15q9 29 21.5 59t14.5 55q-21 -22 -37.5 -46l-33.5 -50q10 -3 19 -7t16 -11z" />
    <glyph glyph-name="F" unicode="F" horiz-adv-x="470" 
d="M391 583l14 3q1 -8 6 -23.5l11.5 -34t14.5 -38t15 -34.5q0 -2 0.5 -2.5t0.5 -1.5q0 -10 -10 -10q-7 0 -10 7v1l-8 -3q-2 8 -3 15.5t-6 13.5q-12 18 -33.5 30t-48.5 18.5t-57 9.5t-58 3q-10 -2 -19.5 -3.5t-19.5 -3.5q-2 -58 -7.5 -112t-5.5 -97q51 0 92 9.5t84 42.5
q-2 4 -2.5 7.5t-2.5 8.5l19 7l3.5 -20t1.5 -19q0 -9 -1 -18.5l-2 -19.5q-2 -26 -2.5 -45.5t-0.5 -36.5v-30q2 -7 3 -14t3 -14l-6 -1q1 -5 1 -10t1 -10q0 -6 -3 -8.5t-6 -2.5q-8 0 -10 7t-2 17q0 9 0.5 18t1.5 18q-6 40 -29 74q-11 1 -21 1h-19q-29 0 -52 -4t-51 -15
q1 -42 3 -81t5 -81q0 -11 -10 -11h-2q2 -20 10.5 -35.5t27.5 -23.5q16 0 33.5 -2.5t22.5 -13.5l-18 -7q1 -1 2.5 -2t3.5 -3q-3 1 -5.5 2t-4.5 2q-4 -4 -9 -4q-7 0 -15.5 4t-13.5 8q-8 1 -14.5 1.5t-13.5 0.5q-22 0 -43.5 -4t-43.5 -10v-3q-5 -8 -12 -8q-5 0 -8 6
q-11 -4 -25.5 -10t-24.5 -6q-9 0 -9 8q0 7 8 12h2q-1 0 -1 1l7 19q10 -7 23 -7q9 0 20 8q2 45 4.5 90.5t4.5 90.5q-2 7 -8 19.5t-6 22.5q0 9 10 9q5 0 6 -1q0 10 0.5 19.5t0.5 19.5q-3 3 -3 8q4 29 5 67.5t1 73.5v46l5 -1q-1 8 -1.5 15t-2.5 14q-26 -3 -53 -5t-53 -3
q-5 1 -7.5 4t-2.5 6q0 7 8 10q10 0 19 -0.5t19 -0.5q33 0 66 3q-5 17 -15 28.5t-22 11.5q-7 0 -12.5 -6t-13.5 -8l-5 20q8 2 15 7t15 5q17 0 29.5 -18t19.5 -39q6 0 12 0.5t12 1.5q-3 3 -3 6q0 5 5.5 7.5t14 4t17.5 1.5h15v5l20 4q0 -6 8.5 -8t19.5 -2q7 0 13.5 0.5
t11.5 0.5q4 1 14 3q37 9 72 22t73 16zM156 424q1 18 1 35.5v34.5v32q-35 -6 -69 -9q2 -8 3 -15.5t3 -15.5h3q0 -5 -0.5 -10.5t-0.5 -10.5q1 -12 1.5 -24t0.5 -25q0 -18 -0.5 -38t-1.5 -37.5t-3 -30t-5 -15.5q-1 -21 -1.5 -41.5t-1.5 -40.5q4 -23 8 -53.5t4 -60.5
q0 -23 -3.5 -44.5t-12.5 -35.5v-2q25 5 50 8.5t49 4.5q-18 18 -26 43t-11 54h11q0 33 0.5 65.5t0.5 65.5q-5 -3 -13.5 -7t-13.5 -4q-9 0 -9 8q0 9 12 13l24 8v26h-4l-2 20q2 0 3 -0.5t3 -0.5q0 26 0.5 51.5t0.5 51.5zM416 502l-15.5 34.5t-13.5 36.5q-28 -2 -55 -9.5
t-63 -15.5q20 -3 41 -8t43 -12q10 -4 29 -10t34 -16zM346 352q-14 -8 -28 -13.5l-27 -10.5q18 -18 30 -38t22 -44q2 18 3.5 35.5t1.5 35.5v14v10.5t-2 10.5zM167 279q31 8 63 13t64 8q-5 5 -11.5 10t-6.5 10v3q-26 -8 -53 -13t-56 -7v-24zM87 103q-1 14 -1.5 26t-2.5 23
q-1 -24 -1.5 -48t-0.5 -48q4 12 5 24t1 23z" />
    <glyph glyph-name="G" unicode="G" horiz-adv-x="640" 
d="M207 585h1l31.5 7.5t40 8.5t44 7t43.5 3q18 0 30 -2.5t22.5 -7t20.5 -11.5l23 -16q9 5 20 10.5t11 15.5q0 2 -0.5 2.5t-0.5 2.5h1q0 1 -1 2l17 10q11 -21 17.5 -44.5t12 -48l11 -49t13.5 -46.5q0 -11 -9 -11q-8 0 -10 8.5t-5 8.5q-8 0 -21 11.5t-26 26.5t-23.5 28.5
t-14.5 17.5q-30 32 -58 46t-54 14q-37 0 -70.5 -25.5t-65.5 -68.5q-3 -5 -8 -5q-10 0 -10 10l2 6l29.5 33.5t33 31.5t36.5 23.5t40 9.5q30 0 60.5 -15.5t58 -37.5t50.5 -45l39 -39l-16 70.5t-19 59.5q-3 -4 -8.5 -9.5t-11 -10l-10 -8t-6.5 -3.5q-5 0 -8 5l-3 -5
q-24 20 -42 31.5t-51 11.5q-39 0 -79.5 -12t-70.5 -22q-1 0 -2 -0.5t-2 -0.5q-5 0 -6 3q-31 -16 -54.5 -52.5t-41.5 -79.5t-30.5 -86.5l-21.5 -74.5q-5 -8 -12 -8q-8 0 -8 9v4l28 77.5t30.5 78t36.5 74.5t46 67q6 6 14 8.5t16 6.5zM477 54q-18 -17 -41 -27t-48.5 -16
t-51.5 -9l-50 -6q-6 2 -7 3q-3 -3 -10 -3l-50 20t-54 24.5t-51 30.5t-40 38l9 -18q0 -2 0.5 -2.5t0.5 -1.5q0 -10 -10 -10q-7 0 -10 7q-19 45 -30 92t-11 95q0 51 13.5 97.5t44.5 89.5l16 -11q-33 -42 -48 -85.5t-15 -88.5q0 -65 29 -137l16 6q8 -29 30 -49.5t50.5 -35.5
t59.5 -25t57 -17l3 -3q2 2 3 2.5t2 1.5l48.5 2t48 5.5t44.5 14.5t38 30zM475 311q-1 -11 -1 -22.5v-22.5q0 -51 4.5 -97.5t13.5 -97.5q0 -6 -3 -8.5t-6 -2.5q-6 0 -10 16.5t-6 39.5t-3 46t-2 37q-1 -1 -5 -1q-6 0 -9 7q-3 18 -6.5 34.5t-9.5 31t-16.5 28t-28.5 26.5
q-26 -2 -47 -3t-30 -1q-5 1 -7.5 4t-2.5 6q0 7 8 10q17 -1 34.5 -1t35.5 -1l11 10q2 -3 4.5 -5t5.5 -5h127q9 0 22.5 1.5t27.5 1.5t26 -3t20 -12l-15 -13q-8 8 -39.5 11t-73.5 3q-20 0 -41 -0.5t-41 -1.5q7 -3 14.5 -14t13.5 -25.5t11 -29l8 -23.5l-2 38.5l-2 37.5zM219 90
q-51 58 -73 118t-22 137v13.5t1 14.5q0 6 1 17t3.5 23.5t6 23.5t9.5 17l14 -14q-6 -6 -10.5 -22t-7.5 -34t-4 -35t-1 -26q0 -70 30.5 -128.5t84.5 -109.5q3 -5 3 -8q0 -4 -5 -7q8 -8 22 -13.5t27.5 -9.5t23.5 -7.5t10 -8.5q0 -9 -13 -9q-14 6 -29 11.5t-29 13t-25 18
t-17 25.5zM594 302q-15 -14 -24.5 -26.5t-16.5 -32.5q-2 -31 -3.5 -61t-1.5 -60v-24t1 -24q-3 -8 -10 -8q-3 0 -4 1l7 -15l-84 -40t-89 -28q-5 1 -7.5 4t-2.5 6q0 7 8 10q26 1 47 6.5t40.5 14t38 20l39.5 24.5q-3 1 -3 7l4 66t3 66h-2q-10 0 -10 9q0 5 4.5 12t7.5 13
q0 6 -0.5 12.5t-0.5 12.5l13 -2q7 14 15 26.5t17 24.5zM537 453l1 -5v5h-1z" />
    <glyph glyph-name="H" unicode="H" horiz-adv-x="640" 
d="M16 600q1 -1 2 -1t2 -1v2q0 10 11 10q54 -8 108 -13t108 -16l-4 -20h-3q-18 -1 -31.5 -7t-23.5 -15q-3 -55 -6.5 -110t-8.5 -110q73 -2 145.5 -5t144.5 -8q2 17 2 33.5v33.5v45v5q0 24 -1 51t-7.5 50.5t-20 39.5t-37.5 18l-1 2q-10 1 -10 11q0 3 2.5 6t8.5 3
q29 -4 56 -5.5t53 -1.5q42 0 87 3l1 -14q1 1 3 1l2 -20q-11 0 -19 -1.5t-16 -6.5l-10 -233.5t-13 -233.5h2q0 -20 3.5 -35.5t13.5 -30.5q49 -13 65 -37l-15 -9q0 -10 -9 -10q-6 0 -13 5.5t-13.5 12.5t-12.5 14.5l-9 11.5q-21 6 -45 9t-49 4q0 -7 -0.5 -17.5t-2 -20.5
t-4.5 -17t-8 -7q-3 0 -6 2.5t-4 7.5q2 14 3.5 26t3.5 26q-24 0 -45.5 -1t-36.5 -2q-5 1 -7.5 4t-2.5 6q0 7 8 10q15 -1 37.5 -1t48.5 -2q8 63 12 123.5t6 123.5q-48 8 -101 10.5t-110 2.5h-40t-40 -1q-8 -114 -12 -228l12 1q0 -17 6 -35t29 -29q15 -2 29.5 -2.5t25.5 -0.5
l2 -20q-5 0 -12 0.5t-15 1.5q-3 -6 -12 -6q-23 12 -34 15t-19 3h-14q-5 -6 -10 -6t-6.5 3t-10.5 3q-35 0 -68.5 -5t-67.5 -13h-4q-9 0 -9 8q0 13 20 13l-1 1h3q23 0 42.5 19.5t33.5 42.5q-9 0 -9 10v3q20 54 26 107.5t6 110.5q0 60 -3 119q0 6 -1.5 18.5t-4 28t-4 32.5
t-1.5 32q-10 26 -27.5 38.5t-46.5 14.5zM477 285h-4q-2 -63 -5.5 -122.5t-8.5 -122.5l42 -4t41 -7q-8 13 -12 27h-3q-8 0 -9 10q14 106 20 207t6 206v65l-9 -9t-11 -6q-10 0 -10 10q0 7 11 12t19 12v8l12 -1l10.5 6t11.5 5q-36 1 -72.5 1.5t-72.5 0.5q9 -8 16 -19t12 -22v7
l20 -2q-2 -61 -3.5 -121.5t-3.5 -120.5h4zM206 568q-42 8 -81.5 13.5t-81.5 7.5q13 -7 24 -17t21 -22q3 20 14 20q2 0 6 -3.5t4 -9.5l-13 -1l4 -2l4 -2q-1 -3 -1 -9v-22q2 -6 6 -12t4 -12q0 -7 -8 -9q2 -51 3.5 -101.5t1.5 -101.5q0 -45 -3 -87t-12 -84l6 2q10 0 10 -12
q-8 -18 -27.5 -46.5t-42.5 -49.5q23 2 46 2.5t46 0.5q3 73 8.5 145l10.5 144h-2q-10 1 -10 11q0 3 2.5 6t8.5 3h2q7 97 9 195q-9 -14 -11.5 -26.5t-13.5 -12.5q-8 0 -8 9q0 5 4 12t9.5 14.5t11 14t9.5 10.5v20l18 -2q5 4 10 7zM181 10q-15 16 -25 38v-37q5 -1 9 -1h9h7z
M595 -7q-5 4 -7.5 5.5t-3.5 2.5q2 -2 11 -8z" />
    <glyph glyph-name="I" unicode="I" horiz-adv-x="280" 
d="M246 582h-54q-1 -10 -1 -19.5t-1 -17.5q13 8 25 16.5t25 16.5l5 -20q-31 -10 -55 -31l-10 -233t-7 -233q6 -16 16.5 -28.5t21.5 -23.5q26 -2 46.5 -7.5t31.5 -15.5l-15 -13q-6 8 -16.5 12.5t-23.5 6.5q17 -11 17 -18q0 -9 -9 -9q-7 0 -18 10.5t-19 19.5h-28q-2 0 -3 0.5
t-3 0.5v-119q-3 -8 -10 -8q-3 0 -6 2.5t-4 7.5q1 29 1.5 58.5t2.5 58.5q-9 1 -16.5 1h-15.5q-20 0 -34.5 -2t-28.5 -6l-10 -15t-12 -16.5t-12 -13t-10 -5.5q-9 0 -9 9q0 6 10.5 15.5t17.5 16.5q-15 -6 -32 -13.5l-42 -18.5h-4q-9 0 -9 8q0 7 15.5 15t35 15t36 11.5t18.5 4.5
q15 22 25 46t18 51q1 26 1 51.5v51.5q0 66 -1.5 129.5t-3.5 129.5q-3 3 -4.5 15.5t-4 29t-6 33t-9.5 27.5q-15 -3 -33.5 -8.5t-35.5 -5.5q-9 0 -9 8q0 6 6.5 9.5t15.5 5t19 2.5t17 2l-6 14q5 4 8 5t5 1q5 0 10 -6t8 -11l85.5 11.5t85.5 8.5zM172 580q-46 -3 -91 -12
q7 -17 12 -33l17 1q-1 -17 -1 -33v-32q0 -2 1 -3q0 -16 -0.5 -32t-0.5 -32q0 -69 1.5 -137t3.5 -138l11 -2q-2 -6 -5 -12.5t-5 -12.5q0 -2 0.5 -3t0.5 -3q0 -10 -7 -11l-18 -41t-20 -40q18 2 39.5 4t44.5 3q0 11 0.5 22.5t1.5 23.5q-2 5 -5 11t-5 14l11 2q5 109 9 213.5
t5 213.5l-1 -1l-6 -2q-10 0 -10 10q0 6 7 9.5t10 5.5v47zM190 11q-11 10 -18 21v-21h18z" />
    <glyph glyph-name="J" unicode="J" horiz-adv-x="350" 
d="M130 10q25 22 39 60q-2 32 -2 65t-1 65l-6 -2q-8 0 -9 10q3 16 6.5 39t6.5 50t5 56.5t2 58.5q0 49 -8 90t-31 60q-5 5 -13 7l-16 4l7 19l10.5 -4l10.5 -4q1 7 10 7t29.5 -0.5t46.5 -0.5q22 0 45 0.5t44 2.5v-7q8 2 10 2q9 0 18 -6l-15 -13q-3 5 -8 5h-3l-4 -1
q-20 -9 -33.5 -27t-22 -41.5t-12 -49.5t-3.5 -50q0 -54 9.5 -110t13.5 -107q0 -9 -8 -11q-3 -16 -8 -32t-11 -32q10 0 10 -11q-19 -42 -47 -77t-75 -46l-1 7q-17 -13 -31 -13q-12 0 -20 11h-1q-9 2 -18.5 1.5t-17.5 5.5l-15.5 12.5t-7 7t-5 9t-8.5 17.5t-6 27q0 28 13.5 39
t26.5 11q12 0 26 -7t26.5 -17.5t21.5 -23.5t12 -25l-20 -4q-1 12 -10.5 23.5t-22 21t-26 15t-22.5 5.5q-13 -13 -13 -34q0 -33 18.5 -47t48.5 -17q8 -3 8 -9v-3l8 4h12q14 0 22 4q-5 1 -13.5 3.5t-16.5 6t-13.5 7.5t-5.5 8q0 9 10 9h4q9 -9 17.5 -14.5t19.5 -5.5q7 0 13 2
v-6zM233 234q-2 42 -6.5 87t-4.5 90q0 24 2 47.5t7 45.5q-4 4 -4 7l2.5 5.5t6.5 13l8.5 16l8.5 15.5l10 -5q5 5 10 9.5t10 8.5q-12 1 -23.5 1h-22.5q-43 0 -88 -3q20 -25 26.5 -73.5t6.5 -103.5q0 -35 -2 -69t-4 -63h8q-2 -25 -3 -48.5t-1 -46.5q0 -20 1 -40.5t4 -40.5
q7 -1 7 -11q-1 -2 -1.5 -4t-2.5 -4l2 -10q0 -11 -9 -11q-5 0 -6 1q-8 -11 -18 -23t-21 -23q26 7 43 25.5t28 43.5q-9 0 -9 10v3l24 51.5t13 55.5q0 22 -10 38z" />
    <glyph glyph-name="K" unicode="K" horiz-adv-x="620" 
d="M244 571h-5l1 -4q-33 -2 -48 -23.5t-20 -50.5q-2 -57 -4.5 -114t-2.5 -114v-30.5t1 -30.5h1q0 -4 -0.5 -8.5t-0.5 -8.5q0 -5 0.5 -9t0.5 -8q0 -1 -1 -1q0 -7 1 -30.5t4.5 -49t9.5 -45.5t16 -20q4 -6 11.5 -10t15.5 -7t16 -4t13 -1l-1 -20q-18 2 -32 10.5t-33 14.5
q-42 14 -78 14q-18 0 -34 -3q-5 -6 -11 -10.5t-14 -4.5q-5 0 -9 1t-9 1h-3q-9 -4 -15 -4q-9 0 -9 8q0 6 6 10t15 6t18.5 3.5t16.5 2.5q19 21 27.5 51t8.5 62q0 33 -7 58q0 -6 0.5 -11.5t0.5 -10.5q-3 -8 -10 -8q-3 0 -6 2.5t-4 7.5q3 60 5 119.5t2 119.5v37.5t-1 37.5l6 -1
q-2 14 -6 27t-11 24q-5 -1 -9 -1.5t-6 -0.5q-5 1 -7.5 4t-2.5 6q0 7 8 10h2q-11 9 -21 9q-9 0 -9 -4l-20 5q0 8 9.5 12t15.5 4q12 0 22 -7.5t19 -19.5q23 0 45 1t44 6q20 5 40 13t41 8h8zM550 565q-37 -8 -67.5 -29.5t-57.5 -49.5t-51.5 -58.5t-49.5 -55.5q-4 -2 -7 -2
q-9 0 -9 9q0 3 2 7q25 21 49.5 48l50 53.5t52.5 50t57 37.5h-12q-26 0 -50 -2.5t-50 -5.5q-6 -21 -18 -43.5t-27 -44.5t-31 -42l-30 -36q-4 -2 -7 -2t-5 2l-60.5 -56t-42.5 -49l138.5 -139.5l142.5 -136.5q0 -1 13.5 -1.5t30.5 -1t34 -0.5h23q-66 45 -124 98.5l-115 108.5
q37 -51 79.5 -96.5l79.5 -87.5v-4q0 -10 -9 -10q-4 0 -8 4l-57.5 74.5l-57.5 74.5l-56 66t-49 71l6 4q-3 2 -3.5 4t-2.5 4l12 4q-1 1 -9 1q7 4 13.5 12t12 15.5l10 13.5t9.5 6q9 0 9 -9q0 -3 -4.5 -9t-11 -13l-13 -14.5l-10.5 -12.5q6 -14 14 -27.5l17 -27.5l6 7
q68 -72 135.5 -135.5t152.5 -114.5q4 -4 5 -7q4 0 8 0.5t9 0.5l-1 -20q-32 2 -63 5t-61 3q-8 0 -15.5 -1.5t-15.5 -1.5q-4 0 -5 1q-17 -1 -38 -2.5t-34 -11.5l-1 4q-7 -2 -15 -5t-14 -3q-9 0 -9 8q0 10 8.5 12t18 3.5t18 6.5t8.5 22q0 9 -4 16.5t-8.5 13.5t-8.5 10.5t-4 7.5
v2l-96.5 93l-96.5 93q-1 1 -3 5l-6 6l3 4q-1 5 -1 9v7l-2 2q27 34 60 61t59 60q3 3 7 3t7 -3q13 12 27.5 30t27.5 37.5t22 38t11 31.5h-5l-1 2q-9 -1 -18.5 -10t-19.5 -9q-9 0 -9 8q0 6 7 11t16 9t16 6l7 2v1q6 -1 11.5 -1h11.5q32 0 61.5 4t61.5 7q11 0 11 -10v-1q3 0 4 1z
M158 510q8 17 18.5 33t25.5 27q-29 -4 -63 -11t-62 -12l9.5 -17.5t10 -21t8 -20.5t3.5 -17q0 -11 -10 -11q-2 0 -3 1q-2 -54 -3.5 -105.5t-1.5 -105.5l4 2q5 -14 8.5 -40t3.5 -56q0 -33 -5 -66.5t-16 -56.5h8q19 0 37 -2.5t37 -5.5q-6 35 -10 70t-7 70q-3 1 -3 7
q0 5 0.5 9.5t0.5 9.5q-1 2 -1 15h1l4 119t2 119v36q-4 1 -4 7q0 3 1 6t2 5v13zM404 14q10 1 19 1.5t19 1.5q-9 9 -17.5 18.5t-17.5 18.5q1 -4 1 -7.5v-6.5q0 -17 -4 -26z" />
    <glyph glyph-name="L" unicode="L" horiz-adv-x="520" 
d="M-4 578q-10 1 -10 11q0 3 2.5 6t8.5 3q7 -1 13.5 -1.5t13.5 -0.5v2l9 -3l77 -6t76 -3h18t18 1v-2q5 0 10 -0.5t10 -2.5l-10 -17l-1 1q-4 0 -7.5 0.5t-7.5 0.5q-17 0 -29 -5.5t-24 -18.5h4v-18.5t-1 -18.5v18q0 -29 -1 -46.5t-1 -31.5q0 -15 1 -28t2 -35.5t2 -59.5t1 -99
q0 -16 1.5 -30.5t6.5 -35.5q0 -11 -9 -11q-5 0 -8 3q1 -25 4.5 -48t11.5 -41v-4q0 -5 -2 -7q3 -3 13 -7q3 5 10 5q10 -1 29.5 -3.5l43 -5.5l49.5 -6.5t49 -7.5l-4 17q34 3 58 21.5t41 45.5q4 10 10.5 24l13 27t12 21.5t7.5 8.5q10 0 10 -12q-2 -4 -3.5 -7.5t-3.5 -7.5h1
q-7 -7 -15.5 -24t-17.5 -39l-18.5 -47.5l-18.5 -49.5q3 -5 3 -8t-3.5 -8t-8 -9.5t-9 -7.5t-5.5 -3q-8 0 -8 9v4l8 16q-18 9 -47 15.5t-59.5 10t-59 5t-46.5 1.5q-1 -4 -8 -6q7 0 14 0.5t14 0.5q8 -3 8 -10q0 -3 -2 -6t-7 -4q-8 2 -15.5 2h-15.5h-21q-38 0 -75 -3.5t-75 -7.5
l-2 20q7 -1 13.5 -1h13.5q37 0 72.5 3.5t73.5 5.5q-17 11 -26 20.5t-17 22.5l4 1q-2 5 -2 10.5v10.5v14v34q0 31 -3 61.5t-5 60.5l11 -1v10q0 66 -3.5 128.5t-5.5 126.5l-3 -6q-3 -5 -8 -5q-10 0 -10 10q0 4 5.5 11t13.5 14.5t17 14t16 10.5l-58 4l-58 4q17 -16 25 -38.5
t8 -47.5q0 -1 -1 -1q9 -55 13 -110.5t4 -112.5q0 -52 -2.5 -102.5t-5.5 -99.5q-3 -8 -10 -8q-3 0 -6 2.5t-4 7.5q5 54 9.5 108.5t4.5 109.5q0 63 -7 123t-24 120l9 2q-3 19 -15.5 32t-36.5 15h-27zM377 24q14 -4 26.5 -7t21.5 -6q7 15 13 30l12 30q-32 -35 -73 -47z" />
    <glyph glyph-name="M" unicode="M" horiz-adv-x="780" 
d="M770 567q-5 0 -26.5 -5.5t-38.5 -20.5q-6 -47 -6 -94v-17t1 -18q10 0 10 -11q-2 -9 -3 -18t-3 -17q2 -8 3 -16t3 -16q0 -11 -10 -11h-1q-5 -38 -8 -74.5t-3 -74.5v-31l2.5 -36t4 -44t6.5 -39t11 -21q12 -2 30 -4t34 -5t27.5 -7t11.5 -10q0 -8 -9 -8h-3q-23 5 -47.5 11.5
t-50.5 11.5l-3 -6q-15 10 -28 11.5t-30 1.5q-26 0 -50.5 -6t-47.5 -22l-4 9q-11 -9 -12 -9q-12 0 -12 10q0 5 5 8q27 14 45.5 33t24.5 46q-5 1 -7 10q8 63 10.5 123.5t2.5 121.5v55t-1 56q-37 -75 -70 -150l-66 -151l-40.5 -88.5t-31.5 -91.5q-5 -8 -11 -8q-8 0 -9 7l-5 -5
q-5 5 -11 26t-14 38q-5 11 -10.5 21.5l-11.5 21.5q-3 -3 -6 -3t-8 5q-25 34 -43 70t-32.5 73.5t-26 76.5l-23.5 79q-2 4 -6.5 25.5t-11.5 45t-15.5 42.5t-17.5 19q-2 0 -4 -4t-3.5 -9t-2 -9t-0.5 -5l-10 1q3 -22 4.5 -43.5t3.5 -43.5q0 -8 -4 -9q-1 -17 -1.5 -37.5
t-0.5 -45.5q0 -54 3.5 -117.5t13.5 -123.5l3 1q3 -15 16.5 -21t29 -9l27.5 -5.5t12 -8.5l-2 -6q8 -3 19 -6.5t11 -11.5q0 -9 -13 -9q-35 17 -63 23.5t-56 6.5q-6 0 -12 -0.5t-12 -0.5q-5 -6 -10 -6t-8 5l-29 -2t-32 -3l-2 20q16 -1 31.5 -1h31.5q10 67 13.5 131.5t3.5 130.5
q0 54 -1.5 108t-3.5 111h9q-5 32 -17.5 54t-35.5 22q-10 0 -22 -5l1 1l-20 5q6 12 16 15l-1 9q8 -1 16 -1h16q21 0 42 1t43 1h13q10 0 18.5 -2t8.5 -11q0 -8 -9 -8q-16 0 -31.5 3.5t-31.5 3.5q-22 0 -43 -3q15 -8 23.5 -18.5t13.5 -22.5t7.5 -24t5.5 -24q4 7 11 14t15 7
q11 0 19.5 -14t14.5 -31t9 -31.5t4 -16.5l36.5 -127t46.5 -121q0 8 9 8q5 0 10 -5q23 -51 47.5 -98.5t47.5 -98.5q17 56 45 105.5t51 102.5l63.5 149t64.5 149l20 -5q0 -13 -1 -26t-1 -26v13q-2 -88 -2.5 -171t-5.5 -171l8 -1q-5 -27 -19 -49t-33 -40q16 5 33.5 7t36.5 2
q26 0 55 -3q-4 11 -6.5 26t-3.5 30t-1 28v20q0 15 -0.5 29.5t-0.5 29.5q0 51 2.5 100.5t7.5 100.5q-1 13 -1.5 25.5t-0.5 25.5q0 26 1.5 51.5t3.5 51.5q-21 -29 -26 -66.5t-6 -73.5q-3 -8 -10 -8q-3 0 -6 2.5t-4 7.5q2 20 5 42t9 43.5t15.5 41t24.5 34.5q0 2 0.5 3.5
t0.5 3.5q-9 -1 -18.5 -1.5t-19.5 -0.5q-28 0 -53 3q-5 -7 -12 -21.5t-14.5 -32l-15 -34.5t-13.5 -29q-40 -78 -84 -155t-77 -158l9 -13t5 -10q0 -10 -9 -10q-4 0 -6 2t-8 10q0 -2 -0.5 -2.5t-0.5 -1.5l-20 5l9 18q-51 78 -90 160t-74 167q-3 8 -10 22l-14.5 30t-13.5 31
t-7 25l20 1q1 -9 6.5 -23.5t12 -30l12.5 -29.5t8 -20q32 -85 70 -162t89 -152v1q-2 6 -2 5q0 9 10.5 22.5t15.5 22.5l17 38l22.5 50t21.5 43.5t15 18.5t8 -5q14 26 26.5 52l25.5 52q5 10 9.5 24.5t10 30.5t11.5 31.5t13 27.5h-9q-10 1 -10 11q0 3 2.5 6t8.5 3
q23 -4 45.5 -7.5t44.5 -3.5q17 0 34 3q2 12 6 23.5t4 23.5l20 -2q-2 -11 -6 -21t-7 -21q12 5 23 11t24 9v-5q2 1 14 1zM89 6q17 -1 33.5 -1.5t33.5 -2.5l-14 6t-13 7q-3 -4 -7 -4q-8 0 -12 14t-6.5 33t-3.5 39t-2 32q-2 -63 -9 -123z" />
    <glyph glyph-name="N" unicode="N" horiz-adv-x="640" 
d="M107 91q0 94 -6 183.5t-10 183.5l-3 -1q-8 32 -23 50t-48 34q-4 4 -4 8q0 9 10 9h4q45 -35 71 -79l12 1q-1 -13 -1 -25.5v-24.5q0 -57 3 -112.5t8 -112.5q0 75 6 131t6 105l20 -2q-1 -2 -1 -11l11 7q2 -4 14 -18.5l26.5 -31l27.5 -31t16 -18.5l108.5 -143.5t117.5 -136.5
l6 3q4 -5 15.5 -18t26.5 -28l31.5 -30t30.5 -25q3 -5 3 -8q0 -9 -10 -9l-6 2l-41 38.5l-40 39.5q-2 -2 -4 -2q-3 0 -8 5q-65 73 -122 152t-120 153q-6 7 -17 18.5l-23.5 24l-24.5 25t-19 21.5q-6 -57 -12.5 -112t-6.5 -113q0 -38 1 -76t3 -77q14 -20 37 -31l2 -2q8 1 16 1.5
t16 1.5l2 -20q-10 1 -19 1h-18q-1 -1 -3 -1q-3 0 -4 1h-13.5t-13.5 -1v-6q0 -6 -3 -8.5t-6 -2.5q-10 0 -11 10v5q-28 -3 -55.5 -9.5t-56.5 -18.5h-4q-9 0 -9 8q0 7 7.5 11t18 7t22 4.5t19.5 3.5l23 37.5t14 41.5q3 4 8 6q-1 2 -2 5t-2 7h7zM475 560q-7 -1 -13.5 -1t-13.5 -1
l-2 20q57 0 111 8.5t111 13.5q12 0 12 -10q0 -6 -9 -8.5t-21.5 -3t-25.5 -0.5t-22 -1l3 -12q-20 -2 -30 -17t-15 -32h2q-2 -94 -4.5 -184t-2.5 -183q0 -32 0.5 -64.5t1.5 -64.5q0 -6 -3 -8.5t-6 -2.5q-10 0 -11 10l3 126q-3 -4 -8 -4q-10 0 -10 10l2.5 62t1.5 80
q0 36 -1.5 72.5t-5.5 69.5t-11.5 60.5t-18.5 44.5q-3 5 -8 7.5t-10 6.5zM-12 581q11 -1 33.5 -1.5t46 -1.5t41.5 -2.5t19 -4.5l8 7q32 -38 60.5 -77l57.5 -79l5 5q39 -33 72.5 -71.5t64.5 -79.5l61.5 -82t64.5 -79q3 -5 3 -8q0 -9 -9 -9q-5 0 -9 4q-28 35 -53.5 71.5l-52 72
t-55.5 70t-62 64.5l10.5 -13l13.5 -16.5t12 -16.5t5 -12q0 -10 -9 -10q-4 0 -8 4l-85 125.5t-96 116.5q-2 -2 -6 -2q-21 4 -41.5 5.5t-41.5 1.5q-13 0 -25.5 -0.5t-25.5 -1.5zM493 563q9 -6 12 -13q15 -43 22 -88t10 -91t3 -92t1 -91q3 90 3 180q0 32 -0.5 64.5t-1.5 65.5
q-5 2 -5 9q0 6 5 15.5t12.5 19.5t15 19t13.5 14zM117 2q0 11 0.5 22.5t0.5 22.5q-1 3 -8 10q-8 -14 -16 -31.5l-13 -28.5q9 2 18 2.5t18 2.5zM136 4q3 0 6 0.5t6 0.5q-3 4 -6.5 7t-5.5 7v-15z" />
    <glyph glyph-name="O" unicode="O" horiz-adv-x="640" 
d="M80 477q34 49 82 79.5t108 38.5l2 -19q20 11 38 11v-4q4 4 9 4q14 -2 27 -5t25 -8l-2 9q8 3 15.5 7.5t15.5 4.5q15 0 35.5 -11.5t42.5 -28t43 -35.5l36 -33l1 1q11 -8 17 -18l7 -7q2 -2 2 -7v-4q6 -14 10 -32.5t6.5 -38.5t3.5 -39.5t1 -35.5q0 -10 -1.5 -30.5t-4.5 -41
t-8.5 -36t-12.5 -15.5q-19 -34 -42 -66t-51 -57.5t-61.5 -44t-73.5 -25.5l-2 15h-12q-8 -2 -15 -2h-15h-19q-30 0 -57 3.5t-57 14.5q0 -10 -10 -10l-6 2q-68 65 -95.5 142t-27.5 165q0 20 1.5 39.5t3.5 39.5q1 10 5.5 22.5l9 24t8.5 20.5t4 13zM414 55q48 42 66 89t18 101
q0 45 -9 90t-20 91h-6q-2 30 -13.5 55.5t-31 44.5t-45 30t-55.5 11q-4 0 -7 3l1 -3q-27 0 -50.5 -13.5t-43 -34t-34.5 -45t-25.5 -47t-16 -39.5t-5.5 -23q-1 -8 -1.5 -16.5t-0.5 -16.5q0 -72 25 -137t70 -125v-8q12 -25 40 -33t58 -8l16.5 4l16.5 4q6 0 10 -4q5 0 6 1l-1 9
q11 1 20.5 7t17.5 13zM55 397q-5 -25 -6.5 -48t-1.5 -46q0 -75 23.5 -138t80.5 -120q26 -6 52.5 -18.5t62.5 -12.5h10q-24 7 -43 20t-27 35h1q-42 63 -64 136t-22 148q0 19 4.5 33.5t8.5 31.5l1 4q0 8 1 9l4 -1q10 16 24 36.5t31 41t35.5 38.5t38.5 29q-129 -6 -185 -128
q-3 -5 -8 -5h-2q-5 -11 -11 -22t-8 -23zM548 471l-26 29.5t-33 33.5t-38.5 27t-41.5 11q-10 0 -25 -5q34 -19 58.5 -51t35.5 -70q7 0 12.5 -24t9.5 -55t6 -61.5t2 -43.5q0 -48 -10 -91.5t-36 -91.5q-9 -16 -31 -35t-40 -26q65 19 106.5 69.5t67.5 114.5q19 28 24 56t5 52
q0 11 -1.5 24.5t-3.5 29.5v-2l-7 43t-14 43q-6 6 -9.5 10.5l-8.5 10.5z" />
    <glyph glyph-name="P" unicode="P" horiz-adv-x="500" 
d="M350 275q9 1 14 3t10 5.5l12.5 9t21.5 13.5q33 29 49.5 53.5t16.5 48.5q0 46 -71 108q-5 3 -5 7t4 8q-17 9 -31.5 17.5t-30 15.5t-33 12t-39.5 6q0 -8 -9 -9q-29 4 -61 9.5t-64 5.5q-20 0 -39 -3.5t-37 -12.5q15 -9 24 -25.5t14.5 -36t7 -40t1.5 -36.5q0 -23 -2 -47
t-5 -47q3 -44 3 -87q0 -45 -1.5 -89.5t-2.5 -89.5l7 -10q-2 -1 -3.5 -2t-3.5 -2v-22q-3 -8 -10 -8q-3 0 -6 2.5t-4 7.5v2q-8 -8 -14.5 -16.5t-14.5 -16.5q32 4 64 9t64 11q12 0 12 -10q0 -8 -10.5 -9.5t-21.5 -1.5h-16q20 -3 36 -6t31 -3q12 0 24 2.5t26 10.5l5 -20
q-11 -3 -22.5 -4t-23.5 -1q-15 0 -30.5 0.5t-30.5 0.5h-17q-10 3 -10 11q0 6 6 8q-29 -2 -56 -8t-67 -13l-2 20q6 0 12 0.5t12 1.5q-3 1 -3 6q0 1 5.5 7t13 13.5l16 16t13.5 14.5q2 43 5.5 85t3.5 85q0 32 -3 67q-8 2 -9 10q1 6 1.5 12.5t2.5 13.5q-1 6 -1.5 12.5t-2.5 13.5
l11 2q4 20 7 41t3 41q0 15 -4 35.5t-13 39t-22 31t-31 12.5q-5 -8 -12 -8q-5 0 -5 3t-4 7l14 3l-12 3q11 8 23 8h7q22 11 47.5 15t51.5 4q32 0 63.5 -3t60.5 -5l1 -1l1 10q15 -3 41.5 -11.5t53 -19t45.5 -20.5t19 -16q0 -5 -3 -6q33 -32 50 -61t17 -58q0 -55 -68 -117
q-14 -13 -30 -23.5t-35 -14.5zM170 322q5 0 8.5 -0.5t8.5 -0.5q42 0 78.5 10t78.5 29q0 -1 1 -1t2 -0.5t3 -0.5q12 9 20.5 25.5t8.5 36.5q0 25 -14.5 48t-36.5 40.5t-48 28t-50 10.5t-33 -13l-21 -31q0 -7 0.5 -13.5t0.5 -13.5q0 -26 -1.5 -53.5t-1.5 -53.5v-15.5t1 -15.5
q0 -6 -3 -8.5t-6 -2.5q-10 0 -11 10q2 29 4.5 59t2.5 59q0 22 -2.5 43t-8.5 42l20 4q1 -5 1.5 -8t0.5 -5q13 16 29 25t37 9q23 0 50 -16t50 -38.5t38 -47.5t15 -44q0 -8 -1.5 -14.5t-1.5 -14.5q0 -12 -11.5 -26t-27 -25.5t-31 -19t-22.5 -7.5q-10 0 -10 10
q-29 -7 -57.5 -12.5t-57.5 -7.5zM151 32v163q1 5 4 7.5t6 2.5q10 0 10 -12v-163zM162 286q12 -2 20 -9t20 -12q13 -5 27.5 -7.5t28.5 -2.5q20 0 40 3t39 7q12 0 12 -10q0 -8 -16.5 -10t-31.5 -2h-8q-22 0 -44 1.5t-43 5.5q-12 2 -22.5 9t-22.5 7z" />
    <glyph glyph-name="Q" unicode="Q" horiz-adv-x="640" 
d="M291 30l4 9q19 -9 39 -9q24 0 46 12t40 31t32 41.5t23 43.5l-3 1q3 29 10 51.5t7 54.5q0 93 -34.5 160.5t-116.5 122.5q-4 4 -4 8q0 9 10 9h4q44 -32 74 -68.5t48 -78t26 -88.5t8 -101q0 -17 -5 -32.5t-7 -32.5q4 -3 4 -6l-2 -6q-13 -23 -31.5 -48t-41 -45.5t-49 -34
t-55.5 -13.5q-11 0 -18 4l-8 4v-4q-24 4 -41.5 16.5t-31.5 30t-25 37.5l-23 40q-19 31 -27.5 67.5t-8.5 78.5q0 41 9 82.5t25.5 79t41 68.5t55.5 52q-11 -4 -23.5 -12t-24 -16.5l-20 -14.5t-11.5 -6q-9 0 -9 9q0 3 2 7q13 11 31.5 22.5t39.5 20.5t43 14.5t43 5.5q15 0 33 -5
l-2 -4q1 -1 3 -1q1 0 1 -1l1 3q33 -8 63 -27.5t56.5 -45t49.5 -54l43 -55.5v-3q0 -5 -1 -7q21 -71 21 -143q0 -20 -1.5 -42t-9.5 -39q1 -1 1 -4q0 -6 -7 -16l-1 -2q-30 -48 -69 -88t-87 -69l89.5 -97t96.5 -85l18 -2.5t21 -3.5t17 -6t7 -10q0 -8 -9 -8q-4 0 -7 1t-7 2
l24 -14t14 -16q0 -9 -9 -9q-6 0 -15.5 6t-20.5 14t-20.5 16l-15.5 13q-51 13 -101 28.5t-96.5 36.5t-89 49.5t-78.5 66.5q-1 0 -1.5 -0.5t-1.5 -0.5q-3 0 -7 4q-3 3 -9 5.5t-13.5 5t-15 5.5t-12.5 6q-28 19 -53.5 42.5t-47 51.5t-37 59t-22.5 64h2q-7 29 -7 65
q0 58 19.5 115t51.5 102l16 -11q-34 -42 -53 -90.5t-19 -102.5q0 -23 4 -46.5t14 -46.5v-4q0 -5 -2 -7q15 -57 54 -102.5t88 -74.5q7 -5 25 -9.5t28 -9.5l4 3q33 -41 70.5 -70t79.5 -50t87.5 -35.5t93.5 -24.5q-46 39 -87.5 82.5l-86.5 86.5l-2 -2q0 1 1 2l-8 8l-6 1
q3 11 16 12l3 2q0 -2 2 -2h2q24 6 45.5 21.5t40.5 36.5t35 44.5t28 44.5q2 11 9.5 21t9.5 21q3 17 4 32t1 29q0 36 -7.5 70t-22.5 71v5q-16 25 -35 50.5t-41 47.5t-47.5 38.5t-55.5 24.5q-1 -1 -7 -1l-3 3q-1 1 -4 1v3q-2 1 -2.5 2t-2.5 1l-1 -2l-6 3q-1 0 -1.5 -0.5
t-1.5 -0.5v2q-9 4 -25 4q-10 0 -21 -2t-22 -5q4 -4 4 -8q0 -7 -6 -10q-34 -18 -59 -46.5t-42 -64t-25.5 -75.5t-8.5 -80q0 -39 8 -76.5t25 -67.5l19 -34t25 -35.5t30.5 -28.5t36.5 -13zM224 565q-33 -6 -57 -26t-40.5 -47t-26 -59t-14.5 -62q-5 -8 -12 -8q-8 0 -8 9v4
q8 31 20.5 63.5t31.5 61.5t44 51.5t57 32.5z" />
    <glyph glyph-name="R" unicode="R" horiz-adv-x="590" 
d="M157 409q0 20 -3.5 42t-3.5 44v9q0 10 2 15q-7 -2 -15.5 -5.5t-14.5 -3.5q-9 0 -9 8q0 7 15.5 13.5t36.5 10.5t41.5 6.5t31.5 2.5q19 0 40.5 -4t40 -19t30.5 -43t12 -76q0 -27 -9 -39q8 -5 8 -10q0 -3 -4 -7q-38 -33 -81 -45.5t-92 -17.5q0 -2 0.5 -2.5t0.5 -2.5
q0 -8 -6.5 -8.5t-6.5 -7.5q13 5 25 8t26 3h5q8 0 16 -2t8 -10v-2q9 -1 18 -11t17.5 -22.5t14.5 -24t9 -16.5q23 -51 51 -100.5t65 -91.5h10q15 0 30 -3.5t30 -3.5h19t19 1l-21 16t-18 18l17 10q8 -17 20 -26.5t27 -15.5q18 2 36 3t37 3q12 0 12 -10q0 -3 -2.5 -6t-7.5 -4
q-13 1 -25.5 1h-24.5q0 -1 0.5 -1.5t0.5 -1.5q0 -9 -13 -9l-10 6l-10 6q-20 -1 -39.5 -1.5t-39.5 -1.5q-7 0 -14 1t-15 1q7 -7 18.5 -15.5l22.5 -16.5t19 -15t8 -10q0 -9 -9 -9q-8 0 -18.5 7.5t-22 18t-21 21l-15.5 17.5q-1 0 -1 -1l-1 3q-34 38 -60.5 83t-50.5 90
l-26.5 49.5t-36.5 41.5q1 1 1.5 2t1.5 2l-17 2v4q0 1 0.5 2t0.5 2q-13 7 -26 7q-11 0 -21.5 -5.5t-21.5 -14.5l-2 4q-4 -16 -5 -32t-1 -33q0 -32 3.5 -64t5.5 -59q0 -11 -10 -11h-2q11 -13 28.5 -28.5t36.5 -15.5q9 0 16 4l1 -5q1 0 1.5 0.5t1.5 0.5l2 -20q-8 1 -16 1h-16
q-26 0 -51 -2t-51 -5q-10 3 -10 10q0 5 5 8q-23 -2 -46.5 -6l-47.5 -8l-2 20h1q4 4 7 6q30 5 42 26.5t12 48.5l6 -1q3 24 3 45q0 8 -0.5 16.5t-1.5 16.5q-5 2 -5 8v28q0 42 -2 81t-2 78v23v16.5t2 17.5l7 -1q6 33 6 58q0 31 -11 61l10 2q-9 15 -25.5 27t-38.5 12
q-5 0 -10 -4t-10 -6l-5 20q7 1 12.5 3.5t13.5 2.5q11 0 22 -4q4 6 10 6q34 -8 61.5 -11t54.5 -3q30 0 62 3t75 6q3 5 10 5h4q6 0 11.5 0.5t10.5 0.5q11 0 18 -4q22 -9 42 -24t35 -34.5t24 -42t9 -45.5q0 -26 -12 -51v-1q0 -5 -1 -7l-23 -29.5t-28 -32t-32 -27.5t-34 -16
q24 -19 48 -50t46.5 -64l43 -63.5t37.5 -49.5v-4q0 -10 -9 -10q-4 0 -8 4q-17 24 -37.5 59.5t-43.5 70t-50 63.5t-57 40l7 19l6 -3l1 6q2 -1 10 -1q17 0 33 10t29.5 25t24.5 31.5t18 29.5l3 3l-3 2q14 25 14 55q0 20 -8 41.5t-22 39t-33 29t-41 11.5q-7 0 -15 -0.5t-19 -0.5
h-3l1 -4q-11 0 -21 0.5t-21 0.5q-30 0 -60.5 -1t-61.5 -1q-40 0 -79 3q20 -17 32.5 -40.5t18.5 -43.5q0 -11 -9 -11q-7 0 -11 7l-3 15q0 -5 0.5 -10t0.5 -10q0 -66 -7.5 -100t-7.5 -49q0 -39 4 -76.5t6 -79.5q0 -4 -1 -5h5q-2 -17 -3.5 -32t-1.5 -31q0 -19 3 -38
q0 -11 -9 -11q-3 0 -4 1q-11 -31 -36 -50q30 2 59 7t60 7l-20.5 17.5t-11.5 14.5q0 10 10 10l6 -2v1q0 21 -1 54t-1 67q0 30 1.5 57.5t6.5 44.5l9 -3v1q-5 18 -6 35.5t-1 34.5v43v13zM337 381l-5 15q8 -5 11 5t3 24q0 33 -7.5 55t-20.5 35.5t-31 19t-38 5.5t-39.5 -4.5
t-39.5 -10.5l5 -1q-6 -19 -8.5 -44t-2.5 -54q0 -32 3 -63t10 -55q5 0 10 -0.5t10 -0.5q43 0 75.5 11.5t64.5 43.5q-1 0 -1.5 0.5t-1.5 0.5zM195 2l-12.5 6.5t-11.5 8.5q2 -4 2 -9q0 -4 -3 -7q6 0 12 0.5t13 0.5zM165 1q-7 0 -13 0.5t-12 0.5t-12 -0.5t-11 -0.5q6 -1 12 -1
h12h12t12 1z" />
    <glyph glyph-name="S" unicode="S" horiz-adv-x="490" 
d="M155 566q12 4 39 7.5t55 3.5q20 0 37 -5.5t26 -5.5q17 0 28.5 6.5t28.5 14.5l5 -20q-17 -2 -32 -9t-32 -12q-8 0 -9 6v-1q-5 8 -17 11t-27 3q-20 0 -41.5 -3.5t-37.5 -8.5q5 2 9 2h9h12q48 0 88.5 -25.5t68.5 -71.5q2 -4 4.5 -7.5l5.5 -7.5q-1 7 -1 14v14q0 28 2 55.5
t2 54.5l20 -2q-4 -35 -7.5 -61.5t-3.5 -51.5q0 -19 3.5 -38t13.5 -42q0 -2 0.5 -2.5t0.5 -1.5q0 -10 -10 -10q-5 0 -8.5 5.5t-5.5 13t-3 15.5t-1 13l-14 4v3q0 5 -5 11.5t-7 11.5q-48 92 -134 92q-44 0 -87 -25h-2q-18 -29 -18 -55q0 -22 10.5 -41t28 -35t39.5 -29.5
t45 -24.5q5 -5 5 -10q0 -9 -9 -9l-6 2q-23 14 -46 31.5t-41 37.5t-29 44t-11 52q0 24 7 33.5t16 23.5l2 -2q6 2 14 5.5t16 6.5q-4 1 -6 7q-22 -4 -38.5 -14.5t-27.5 -24.5q-3 -11 -7.5 -19.5l-9 -17t-7.5 -18.5t-3 -23q0 -24 8 -43t20.5 -35.5t29.5 -30t35 -25.5v1
q0 10 11 10q30 -10 61.5 -24t59 -33.5t49 -45.5t32.5 -59q2 6 2.5 14t8.5 8q10 0 10 -12q-5 -29 -18.5 -57.5t-34.5 -51t-49.5 -36.5t-64.5 -14h-7q-4 0 -7 1.5t-9 7.5l17 10q0 -1 8 -1q52 0 87 26.5t49 65.5l-2 9q-3 -3 -4 -3v7q0 12 -4 25t-8 21q-24 52 -70 79.5t-98 39.5
q3 -4 6.5 -6t3.5 -7q0 -9 -9 -9l-6 2q-26 20 -48 39t-37.5 40t-24 46.5t-8.5 58.5v13q-9 1 -9 9q0 4 4 9.5t9 11.5t9.5 12.5t5.5 13.5l8 -2q18 19 39.5 33.5t47.5 19.5v-8zM44 186q1 9 9 9q3 0 6 -3l9 3q6 -14 6.5 -28t4.5 -29q8 -35 21 -58.5t32 -40.5t44 -29t57 -24
q6 -5 6 -10q0 -9 -13 -9q-33 16 -59.5 31.5t-47.5 36.5q-1 -3 -7 -5t-14 -5t-16 -7t-13 -11q1 -7 1.5 -13.5t1.5 -14.5q0 -3 -1 -4v-1q0 -2 -3.5 -4t-5.5 -2q-7 0 -7 4l-3 3v3l-11 1q2 12 7 18.5t5 19.5q0 42 -3.5 84.5t-5.5 84.5zM170 397q20 -20 47.5 -32.5t51.5 -26.5
l86.5 -50t83.5 -52q5 -5 5 -10q0 -9 -9 -9q8 -8 10.5 -21.5t2.5 -24.5q0 -26 -11.5 -52.5t-29.5 -50t-40.5 -41.5t-43.5 -26q-8 -4 -17.5 -5.5t-18.5 -3.5l-5 20q9 2 18 2t17 3q19 6 40 21t37.5 35t27.5 43.5t11 46.5q0 24 -10.5 38.5t-25.5 32.5q-2 6 -2 5q0 4 1 5
q-26 20 -52 37.5t-55 33.5q-32 18 -67.5 31t-64.5 36zM68 24q18 17 40 24q-14 15 -28.5 41.5t-18.5 54.5v-13q0 -28 2 -54.5t5 -52.5z" />
    <glyph glyph-name="T" unicode="T" horiz-adv-x="540" 
d="M104 541l2 -5q-20 0 -31 -18t-17 -39.5t-10 -39.5t-11 -18q-4 0 -5 1q-3 -6 -9 -6q-9 0 -10.5 9.5t-1.5 17.5q0 27 8 54.5t8 54.5q-1 1 -1 6v8h20q26 0 44.5 -1.5t35.5 -1.5q30 0 55 7t53 12q1 9 11 9q38 -8 71.5 -14t65.5 -9q2 1 4 1t4 1q6 0 16 -2t18 -2q40 0 79 10
l1 -6l11 -1v-8q0 -14 1.5 -41t8.5 -52q0 -11 -9 -11t-11 10t-2 21v10q-4 -7 -9 -7q-4 0 -8 4q-10 21 -22.5 33.5t-34.5 21.5l1 2q-8 0 -15.5 0.5t-15.5 0.5q-2 -1 -3.5 -2t-3.5 -1q-8 1 -15.5 1.5t-15.5 0.5q-15 0 -28 -2.5t-21 -10.5l8 -2q-6 -8 -6 -15h8l-8 -76t-4 -78
q0 -85 9.5 -169.5t12.5 -169.5q7 0 18.5 -0.5t21.5 -2.5t17.5 -5.5t7.5 -9.5q0 -8 -9 -8q-14 0 -30 5t-28 7q-3 -5 -8 -5q-6 0 -9 6q-7 1 -13.5 1h-13.5q-18 0 -37.5 -2.5t-40.5 -10.5q-12 -5 -22 -13.5t-24 -13.5l-5 20q8 2 11 3l-1 2q0 3 3 8q20 17 31.5 32.5t19.5 38.5
l4 -2q5 23 6.5 44.5t1.5 46.5q0 27 -1.5 58.5l-3.5 70.5h3q-3 60 -8.5 117t-9.5 117q-3 -1 -13 -1q-7 0 -13.5 0.5t-11.5 0.5q-13 0 -29.5 -6t-30.5 -13h-4q-9 0 -9 8q0 9 15 12t35 5.5l38.5 5t26.5 10.5l14 -14q-5 -5 -10 -6l12 1q0 -60 4.5 -118l9.5 -118h1q0 -2 -0.5 -5
t-0.5 -5q2 -21 3.5 -41.5t3.5 -41.5q0 -9 -6 -10v-47q0 -17 -0.5 -35t-2.5 -32.5t-6 -24t-10 -9.5q-3 0 -5 2q-6 -9 -12.5 -17.5t-12.5 -17.5q0 1 1 1q2 0 4 1q23 7 46 9.5t46 2.5h16q-14 30 -22 63l-16 65v3q0 9 8 9q9 0 12 -8q2 -36 5 -56.5t14 -40.5q0 38 -0.5 76
t-2.5 76q-2 48 -7.5 103t-5.5 106q0 20 1.5 39t2.5 38q-6 1 -6 10q0 5 3 8.5t3 8.5q0 9 -1 12l2 -1l-7 8q5 5 12.5 7.5t16.5 4.5l-35.5 4l-34.5 4l1 -4q-34 0 -69.5 -5.5t-73.5 -7.5q3 -3 3 -7q0 -5 -5 -10zM29 439l10 27.5t14 33.5t18 31t22 20q-12 -1 -24 -1.5t-25 -2.5
q-4 -24 -10.5 -43.5t-6.5 -42.5v-9q0 -8 2 -13zM502 506q-2 11 -3 23.5t-3 24.5q-10 -1 -19.5 -1.5t-19.5 -0.5q12 -11 23 -22.5z" />
    <glyph glyph-name="U" unicode="U" horiz-adv-x="640" 
d="M197 107q0 -5 -3 -8q8 -24 23 -40t34.5 -25t43 -13t49.5 -5l-2 11q27 5 47 12t41 24q1 1 5 1q47 31 60.5 70t13.5 89q0 10 -0.5 19.5t-0.5 20.5l6 -1q-1 67 -5.5 133.5t-7.5 132.5l-8 -1q0 16 -10.5 20.5t-22.5 5.5t-22.5 2t-10.5 10q0 3 2.5 6t8.5 3l1 -1h3v5
q11 -1 23.5 -1.5t26.5 -0.5q34 0 72.5 6t80.5 26q12 0 12 -10q0 -8 -12.5 -12t-19.5 -6l2 -5q-35 -4 -54.5 -27t-30.5 -54q3 -20 4 -41.5t1 -42.5v-63q0 -42 1.5 -80.5t1.5 -80.5q0 -20 -1 -42t-4 -41t-7.5 -31t-10.5 -12q-3 0 -4 1q1 -1 1 -4q0 -5 -3 -8q-43 -35 -95 -53
t-109 -18q-12 0 -25.5 1t-23.5 5h-2l-49 17t-46.5 22t-37.5 32t-22 46l10 2q-1 8 -1.5 16t-1.5 16q-1 -1 -5 -1q-7 0 -8 10q4 40 6 81l-8 92t-13 92l11 2v3l-7 36.5t-9.5 42t-11.5 36.5t-13 20q-5 3 -8.5 3.5t-8.5 3.5l2 3q-19 0 -33.5 -1t-24.5 -2q-5 1 -7.5 4t-2.5 6
q0 7 8 10q23 0 56 -1t68 -1q27 0 53.5 1t47.5 5q9 10 17 16t15 6v-10q2 1 3.5 2t3.5 2q4 0 8.5 -4t4.5 -6q0 -5 -1 -7l2 -2q-6 -4 -22 -6t-25 -11l-22 -21t-18 -21h2q-2 -22 -9 -42.5t-9 -42.5q-2 -9 -2 -16.5v-15.5v-22q0 -70 11 -136.5t28 -135.5zM172 127
q-12 72 -19.5 143.5t-7.5 143.5q-5 -6 -10 -6q-6 0 -9 10q1 12 1.5 20t3.5 17t8.5 21t17.5 32q1 2 1 12l6 -1l16 22.5l16 22.5q-27 -2 -59 -2.5t-61 -1.5q1 -1 1.5 -2t1.5 -2q15 -25 24.5 -68t14.5 -93t7 -101.5t2 -93.5q3 -32 7 -63.5t12 -63.5q0 -5 -3 -8q12 -20 30.5 -31
t38 -17.5t37 -9.5t26.5 -6l1 1v-2q0 -1 20.5 -4.5t42.5 -3.5h5q48 0 89 19t74 52q3 3 8 3q3 0 4 -1q-2 6 -2 5q0 1 0.5 1.5t0.5 1.5q6 16 8.5 27t3.5 25q-1 1 -1 4q0 8 1 9q-1 7 -1.5 15.5t-1.5 18.5l6 -1q2 27 3 54t1 54q0 45 -2.5 89.5t-6.5 90.5q-6 -2 -8 -2
q2 -63 6 -125l8 -125q0 -11 -10 -11h-2q-6 -48 -24.5 -86.5t-66.5 -70.5h-5q-14 -6 -29 -11.5l-30 -11.5h3q8 -3 8 -10q0 -3 -2 -6t-7 -4q-34 3 -66.5 9.5t-60 21t-47 38t-27.5 61.5zM521 546q-1 -12 -1 -23.5v-22.5l8 1q10 20 21.5 37.5t26.5 31.5q-23 -4 -47 -6l-47 -4
q13 -6 22 -15zM520 484q1 0 1 1q0 2 1 4q-1 2 -1 4.5t-1 4.5v-14z" />
    <glyph glyph-name="V" unicode="V" horiz-adv-x="640" 
d="M480 350q10 31 22.5 63t28 62t34 56t41.5 45q-29 -2 -58 -4.5t-58 -4.5q13 -11 19.5 -29.5t6.5 -38.5q0 -16 -4.5 -29.5t-13.5 -21.5l-4 6q-8 -17 -13.5 -36.5t-10.5 -33.5q-20 -51 -42.5 -99l-45.5 -97q-14 -33 -20 -33q-5 0 -9 4q-54 81 -99 170t-69 186
q-3 -10 -11 -10q-10 0 -10 10l2 6l14 14q-3 14 -5.5 29t-4.5 29q-33 -4 -63 -9t-57 -11q15 -3 33 -23.5t36.5 -49.5t36 -63l32.5 -64q1 0 6.5 -11.5l12 -25.5l12 -26t6.5 -13q0 -2 0.5 -2.5t0.5 -1.5q0 -5 -3 -7.5t-6 -2.5q22 -75 48.5 -148.5t72.5 -136.5l-17 -10
q-27 43 -44 89l-34 94l-34.5 97l-36.5 96q0 1 -0.5 1.5t-0.5 1.5q0 3 3 6q-11 27 -23.5 53t-27.5 50t-33.5 44t-42.5 34l-10.5 -4l-10.5 -4l-5 17l-14 14q6 6 18 10t27 6t31 2.5t30 0.5q35 5 69 12t68 13q12 0 12 -10q0 -6 -8 -9t-19.5 -4.5t-23.5 -2t-21 -1.5l2 -23t3 -22
q21 18 40.5 33t24.5 15t5.5 -2t4.5 -6l-16 -6q2 -1 5 -2t5 -2q-26 -13 -40.5 -23.5t-25.5 -22.5q18 -97 61.5 -184.5t100.5 -166.5q9 16 22 42l27 54.5l27 57.5t21 52q4 11 7.5 26.5t8 30.5t10.5 29t14 22l5 -6q0 2 0.5 5t0.5 5q0 20 -10 38t-24 26q-7 -2 -14.5 -8.5
l-15 -13l-14 -12t-10.5 -5.5q-9 0 -9 9q0 3 4 9t11 12.5t15 12.5t16 9l1 8q5 -1 14 -1.5t21 -0.5q27 0 63 3.5t69 11.5q12 0 12 -10q0 -11 -21 -11l12 -12q-37 -29 -60 -62t-38 -70t-25.5 -77.5l-22.5 -83.5q-5 -8 -11 -8q-3 0 -4 1l-46.5 -134.5t-47.5 -130.5q-5 -8 -12 -8
q-8 0 -8 9v4q39 85 71.5 171t49.5 177z" />
    <glyph glyph-name="W" unicode="W" horiz-adv-x="830" 
d="M505 70q-8 38 -18 76t-24 75q-11 29 -27.5 56t-21.5 59q-17 -54 -40 -105t-37 -106q6 -6 6 -13q0 -10 -12 -10q-2 -10 -5 -27t-6.5 -33.5t-8 -30t-8.5 -15.5q2 -3 5 -9.5t3 -11.5q0 -10 -10 -10q-5 0 -12 18t-14.5 42t-14 48t-10.5 36q-21 39 -39 80l-35 82.5l-34 82.5
t-37 82q-5 10 -13.5 25.5t-18.5 31.5l-20 30.5t-19 23.5q-14 -1 -27.5 -1.5t-27.5 -1.5q-10 1 -10 11q0 3 2.5 6t8.5 3q5 -1 11.5 -1h13.5l10 17l12 -8t11 -9q40 0 87.5 5t86.5 19l2 -8q2 1 5.5 2t7.5 2l2 -20q-56 -2 -60 -48l5 2q36 -82 68 -164.5l68 -167.5l25.5 121
t36.5 115q-4 21 -11 38t-16 33l-18.5 32.5t-18.5 36.5h-13l-2 20q8 -1 16 -1h16q55 0 108 5t110 8q12 0 12 -10q0 -3 -2.5 -6t-7.5 -4h-59l10 -2q-10 -20 -21.5 -31t-14.5 -17q8 -100 33.5 -201t68.5 -195q6 7 10.5 19l9 23.5t8.5 20t9 8.5h3l-2 6q0 1 0.5 1.5t0.5 1.5
q29 81 51 162t42 166l20 -5q-26 -82 -48 -162.5l-45 -165.5q-5 -8 -11 -8h-2q2 -8 2 -7q-12 -18 -20 -38.5t-20 -38.5q2 -5 4.5 -9.5l5.5 -9.5q42 103 79 203l76 203l15 -4q9 18 19.5 35t22.5 31q-8 -1 -17 -1h-17q-29 0 -58.5 1.5t-58.5 1.5l1 20q35 -4 62 -8.5t52 -4.5
q10 0 18 1t15.5 3t16.5 6l21 9l1 -5q4 2 7.5 3.5l8.5 3.5q12 0 12 -10t-13.5 -12.5t-22.5 -4.5q-19 -9 -32.5 -27.5t-23.5 -41t-17.5 -45.5l-13.5 -41q-5 -8 -12 -8q-3 0 -5 2q-42 -103 -79 -203.5l-75 -203.5q-4 -7 -11 -7q-6 0 -7 3q-3 -5 -9 -5q-8 0 -14.5 23.5
t-15.5 61.5zM534 33q0 -2 -0.5 -3t-0.5 -2q2 -7 5 -13t5 -13q6 16 13 32l14 32q0 8 -8 22.5t-11 22.5l-3 3l1 1q-30 81 -54.5 168t-42.5 172q-3 -3 -8 -3q-10 0 -10 9q0 4 9 39q-1 5 -1.5 11t-1.5 11h9q1 2 2 6t3 9q4 10 11.5 17.5t9.5 18.5q-37 -2 -73.5 -5t-72.5 -5
q12 -35 29 -66.5t28 -66.5l10 -4q-1 -4 -6 -10q2 -6 3 -12.5t3 -12.5q0 -11 -10 -11q-7 0 -10 7q-22 -54 -32 -110.5t-18 -113.5q-1 -1 -1.5 -2t-2.5 -3q2 -5 4 -9l4 -8l37.5 104t29.5 106l20 -5l-3 -9l20 1q2 -30 16 -57t24 -56l24.5 -77t23.5 -77h3v-8zM151 488
q0 46 30 73q-31 -5 -63 -8t-64 -5q34 -37 54.5 -85.5l40.5 -94.5l25 -57l24 -57l13 5l42 -117q4 -8 12.5 -20.5t8.5 -19.5t-5 -9l12 -35l12 -35l13.5 45t14.5 45l-73 185.5t-79 183.5q-3 -4 -8 -4q-10 0 -10 10z" />
    <glyph glyph-name="X" unicode="X" horiz-adv-x="640" 
d="M574 570q10 2 23.5 7t13.5 17q0 5 -4.5 6.5t-10.5 1.5q-17 0 -17 -4q4 1 8 1t9 1l2 -20q-11 1 -22.5 1.5t-22.5 0.5q-4 -3 -8.5 -8t-10.5 -5q-9 0 -9 9q0 -1 2 5q-24 2 -48 2.5t-47 2.5q20 -20 25 -48l15 -3q-5 -9 -8 -19t-6 -19t-7 -15t-11 -6q-20 -38 -41.5 -73
l-44.5 -69l7 3q17 -54 51 -102l66 -93v-4q0 -7 -3 -8q27 -33 56.5 -61.5t66.5 -53.5l-10 -17q29 2 57 7.5t55 15.5q12 0 12 -10q0 -9 -20 -14t-46.5 -7.5t-53.5 -3t-40 -0.5q-26 0 -51 0.5t-51 0.5q-20 0 -37.5 -3.5t-37.5 -3.5l-5 2l-4 1q-11 1 -19.5 5.5t-8.5 12.5
q0 6 4.5 9.5t9.5 3.5q7 -1 12 -5t10 -7l1 -1q2 0 4.5 -0.5t4.5 -0.5q9 0 17 1.5t14 7.5t10 17t4 31q0 11 -1 21t-2 15q-28 42 -58 80.5t-61 74.5l-71 -89.5l-72 -89.5q-1 -7 -1 -13.5t-2 -12.5l-6 1q4 -11 20 -22q8 1 16 1h16q8 -3 8 -10q0 -3 -2 -6t-7 -4q-8 1 -15 1.5
t-15 0.5l-2 -4q-1 1 -2 1.5t-3 2.5q-48 0 -93 -8t-93 -13v2q-11 0 -11 9q0 4 8 9t19 10l22.5 10.5t18.5 10.5q-5 -2 -10.5 -4.5t-11.5 -2.5q-9 0 -9 8q0 7 8 12q45 8 75.5 28t54.5 57l2 -2l50 69.5l50 68.5l10 -10q5 5 10.5 11.5t10.5 13.5q-10 10 -20.5 26t-20.5 33.5
l-18.5 33t-13.5 23.5q-9 15 -21 30.5t-24 29.5l-22 25.5t-16 17.5l-15.5 13t-23 18t-24.5 15.5t-21 6.5h-3l-1 -1l-18 8q7 12 20 12t29 -10.5t25 -15.5q24 -16 45.5 -38.5t40.5 -48t36.5 -51.5l33.5 -49q3 -4 7.5 -12.5t10.5 -18.5t12.5 -19t12.5 -13q9 13 21.5 35l25 43
t23.5 36.5t17 15.5q9 0 9 -9q0 -4 -3 -8l-20 -23t-16 -20.5l-19.5 -28l-30.5 -45.5l-1 -1q5 -5 5 -10q0 -8 -8 -8q-1 0 -7 2q-4 -6 -7.5 -12t-8.5 -12q1 0 2 0.5t2 0.5q10 0 10 -10q2 4 5 7.5t6 7.5q-2 2 -3.5 4t-3.5 4l15 13q1 -1 1.5 -2t1.5 -2l12 18l16 -11
q-5 -6 -9 -11.5t-9 -11.5l54 -75l56 -75l2 7q11 -2 15 -11t4 -21l10.5 -12.5l12.5 -15t10.5 -14.5t4.5 -12q0 -10 -9 -10q-7 0 -15.5 15t-15.5 26q-4 -18 -10.5 -35t-13.5 -27h23q25 -2 50 -3t50 -1h21t21 1q-40 35 -76.5 73l-73.5 76l-2 6q0 8 8 10l-23 39t-19 32
q-14 22 -29.5 43t-26.5 44q-4 -5 -7.5 -11t-8.5 -6q-10 0 -10 10l2 6l39 49t31 44t26.5 47t26.5 59q1 3 1 6.5v6.5q0 31 -21.5 42t-58.5 16q-10 1 -10 11q0 3 2.5 6t8.5 3q5 -2 11 -2.5t11 -1.5l1 2q35 -8 70.5 -10.5t71.5 -2.5q17 0 34 8.5t33 8.5q10 0 16 -5t6 -19
q0 -16 -12 -22.5t-29 -12.5q-35 -20 -61 -45.5t-47.5 -54.5t-41 -60.5l-41.5 -64.5q-3 -5 -8 -5q-10 0 -10 10q0 7 11.5 20t17.5 21l1 1l64 91.5t75 80.5l-6 6q6 6 14 8.5t16 4.5l9 6zM-8 581q14 13 51.5 17.5t79.5 4.5h21q21 0 41 -0.5t35.5 -2t25 -4.5t9.5 -8q0 -3 -2 -6
t-7 -4q-28 4 -65.5 8t-73.5 4q-35 0 -62.5 -5t-38.5 -18zM17 7q35 2 69 7.5t69 8.5q-11 14 -15 27t-4 14q0 4 1 11t3 15q-2 -3 -7 -9t-11 -12t-11 -10.5t-7 -4.5q-10 0 -10 10l-6 -4t-7 -4l5 -9q-18 -9 -35 -19.5zM253 576q1 -2 2 -3.5t2 -3.5l3 16q12 0 12 -13
q-5 -9 -14 -13.5t-18 -9.5t-16 -12.5t-7 -22.5q0 -16 9 -32t22 -30.5t27.5 -27.5l24.5 -22q3 -5 3 -8q0 -9 -9 -9q-5 0 -9 4l-26.5 32t-25 33t-19 35.5t-8.5 39.5q0 11 7.5 20t17 15.5t17 10t7.5 4.5q0 -1 -2 -3zM231 214l-40 -53.5l-40 -52.5q-2 -2 -4 -6q2 2 5 2l6 -2
q2 3 3.5 6l3.5 7q17 29 38.5 56l42.5 53q-4 -3 -7 -6t-7 -5zM267 223l-45.5 -50t-39.5 -55l44 52z" />
    <glyph glyph-name="Y" unicode="Y" horiz-adv-x="640" 
d="M622 565h-5q-18 -16 -39.5 -26t-39.5 -27q-23 -23 -41 -48t-33.5 -51.5t-29.5 -54.5t-29 -55q-3 -5 -8 -5q-10 0 -10 13l65.5 109t75.5 101q16 17 33.5 28t34.5 24l-9 3q-10 3 -21 4t-22 1q-23 0 -47.5 -4t-48.5 -9q19 -5 31.5 -14.5t12.5 -25.5h2q-29 -63 -62 -122
l-68 -119q0 -1 -2 -5t-5 -8.5t-6.5 -8t-6.5 -3.5q-10 0 -10 13q1 2 2.5 4.5t5.5 7.5l-33.5 41l-37.5 48l-37 50.5t-32 49.5q0 -1 0.5 -1t0.5 -1q0 -6 -3 -8.5t-6 -2.5q-10 0 -11 10q0 22 4 34q-4 6 -6 14l12 4q9 26 28 39q-13 1 -25 1h-25q-29 0 -57 -1.5t-57 -5.5
q38 -32 67 -73.5t54.5 -86.5l50 -91t54.5 -87q-4 15 -15 37l17 10q10 -22 13 -50.5t3 -59.5q0 -17 -0.5 -35t-1.5 -35q8 0 8 -11q-9 -16 -11 -28t-2 -25v-14q57 0 114 3q-9 3 -18.5 5.5t-17.5 7.5q-1 -1 -5 -1q-5 0 -8.5 7t-7.5 17l5 1q-5 30 -6 59.5t-1 59.5v27v28.5
t-1 28.5l20 -2l-4 -50t-2 -48q0 -29 3.5 -58t13.5 -59v-2q4 -4 17 -4q5 0 9.5 0.5t9.5 1.5q8 -3 8 -11q0 -4 -3 -7q2 0 4.5 0.5t4.5 0.5l2 -20q-29 2 -57 3t-56 1h-24v-4q-3 -8 -10 -8q-3 0 -6 2.5t-4 7.5v1q-38 -3 -75 -9q-5 1 -7.5 4t-2.5 6q0 8 9 9.5t17 1.5l1 1
q-2 0 -3.5 0.5t-3.5 0.5q13 1 24.5 7.5t21 15.5t17 19t11.5 18q3 20 5 41t2 41q0 36 -7 64q0 -11 -9 -11q-4 0 -8 4q-29 44 -52 91.5t-48 93t-56 87t-76 73.5q-5 -1 -8.5 -1.5t-8.5 -1.5q-10 1 -10 9q0 4 1 5l-4 17q1 1 7 1q13 0 27 -10q54 3 108.5 4.5t108.5 4.5l2 -20h-10
l2 -7q-20 -2 -31 -13t-15 -27q9 -30 25.5 -58.5t37.5 -55t43.5 -51.5l43.5 -48q37 55 68 111t53 119l4 -1q0 1 0.5 2t0.5 2q0 9 -13 14t-29 5q-8 0 -16 -2.5t-14 -2.5q-7 0 -9 5l-10.5 -2t-8.5 -1q-9 0 -9 8q0 7 8 12q42 5 93 13t95 8q19 0 30.5 -2.5l26.5 -5.5zM275 9
q1 8 1.5 15.5t2.5 15.5q-9 -9 -18.5 -16l-19.5 -15h34z" />
    <glyph glyph-name="Z" unicode="Z" horiz-adv-x="530" 
d="M76 590v-1q6 1 12.5 1.5t12.5 0.5q10 0 19 -0.5t16 -0.5q54 0 104 2.5t102 7.5q8 0 10 -6q23 5 46.5 9t45.5 4q7 0 17 -1t19 -3t15.5 -5.5t6.5 -9.5q0 -12 -6 -27t-20 -21q-17 -26 -38 -52t-38 -53l-51.5 -83l-49.5 -83q-5 -6 -8 -6q-10 0 -10 13l-53.5 -76l-51.5 -77
q-4 -6 -9 -15.5l-10.5 -20.5l-11 -21.5t-10.5 -17.5q12 -9 22.5 -14t21 -8t22 -5t27.5 -4l83.5 5.5t66.5 4.5q34 24 61 55t33 74l13 -4l17 -1q-4 -38 -9 -74t-23 -69q4 -4 4 -9q0 -10 -9 -10q-2 0 -3.5 1t-3.5 1q-1 -1 -5 -1q-5 0 -7 5q-11 2 -21 3.5t-20 1.5
q-6 0 -12.5 -0.5t-12.5 -1.5v6q-8 -2 -7 -2q-4 0 -7 6q-14 0 -27.5 0.5t-27.5 0.5t-27 -0.5t-27 -0.5q1 -1 1 -5q0 -9 -13 -9q-10 4 -19.5 6.5t-19.5 5.5q-23 -2 -47 -3.5t-47 -3.5q-15 -2 -40.5 -6t-48.5 -4q-22 0 -37 6h-2q-9 0 -9 10v2q45 85 99 162t117 149l12 -12
l61 72.5t55 78.5q14 23 25 48t27 48l-10 -4l3 -3q-9 3 -18 3q-6 0 -12 -0.5t-12 -0.5q-16 1 -31.5 1h-31.5q-58 0 -118 -3q-29 -24 -50 -50t-26 -67q-5 -8 -12 -8q-8 0 -8 9v4q10 32 29 59t41 52q-8 -1 -15 -1h-15q-10 1 -10 11q0 3 2.5 6t8.5 3q8 -1 17 -1t17 -1h-7
q4 -1 8 -1h8l3 3l2 -3q15 -1 29.5 -1h29.5q23 0 44.5 1t56.5 3l-2 6q0 6 7 10q-57 -1 -113.5 -3t-113.5 -10q-2 -12 -4.5 -31t-6.5 -37t-8.5 -31t-9.5 -13q-8 0 -8 9v4q11 34 16 55.5t5 47.5l-5 6q1 2 2 2.5t3 2.5v10zM116 40l-60 3q53 36 90 73t57 67l45 71l41 66q3 3 7 3
q10 0 10 -9l39 58.5l39.5 60l37 56l31.5 47.5q5 8 9 20t15 14l1 -4l4 10.5l4 10.5q-15 9 -38 9q-29 0 -64 -10.5l-61 -18.5h14q28 0 38 -7q2 2 3.5 4t3.5 4l14 -14q-21 -21 -35 -48t-31 -53q-34 -51 -70.5 -99.5l-73.5 -97.5q-3 -5 -8 -5q-10 0 -10 10l2 6v1
q-50 -55 -87 -112t-75 -125l-1 -1q-2 -5 -3.5 -9.5t-3.5 -9.5q15 -4 49 -4q26 0 59 2l68 4q-16 5 -31.5 11t-29.5 15zM402 25q4 -5 4 -9v-2q10 -2 21 -3t23 -1q21 23 28 44.5t7 47.5q0 6 -0.5 12.5t-0.5 13.5q-13 -30 -35.5 -55t-46.5 -48z" />
    <glyph glyph-name="bracketleft" unicode="[" horiz-adv-x="290" 
d="M250 561q-22 0 -45 -8t-43 -18q-1 0 -2 -0.5t-2 -0.5q-5 0 -6 3q0 -17 -2.5 -41.5t-5.5 -49l-5.5 -45.5t-2.5 -30q-6 -123 -6 -243q0 -110 3 -221q1 0 1.5 0.5t2.5 0.5q5 0 12.5 -5.5l16.5 -12l18.5 -13t17.5 -8.5h20.5t17.5 1q12 0 12 -10q0 -3 -2.5 -6t-7.5 -4
q-2 1 -12 1q-2 0 -2.5 -0.5t-2.5 -0.5q-9 0 -21 2t-25 2q-32 0 -61.5 -7t-37.5 -27v-11q-3 -8 -10 -8q-3 0 -6 2.5t-4 7.5v15q3 60 7.5 119t4.5 119q-2 75 -8.5 148.5t-9.5 148.5l19 1q-1 8 -1.5 15.5t-1.5 15.5q-1 4 -3.5 23l-5.5 43.5t-5 51t-2 47.5q0 26 4 33l18 -8
q0 -63 4.5 -125.5t11.5 -124.5l14 -124t12 -125q2 72 2.5 144.5t1.5 144.5q1 37 5.5 73t4.5 73v7v19l17 11q1 -2 1 -3.5t1 -3.5q2 4 14 8t27.5 8.5t31 8.5t24.5 7zM80 -154q8 6 18.5 9.5t21.5 6.5q-5 1 -7 9q1 35 1.5 69.5t1.5 69.5q-1 -1 -4 -1q-9 0 -10 10q0 88 -8.5 171
t-19.5 168q0 -94 5 -184t5 -184q0 -36 -1 -71.5t-3 -72.5zM248 584q-10 0 -19.5 -5t-20.5 -7q-7 -2 -13.5 -2h-13.5h-18h-41h-15.5t-15.5 -1q-10 1 -10 11q0 3 2.5 6t8.5 3l40.5 -4t40.5 -2q15 0 25 2.5t17.5 6l14.5 7t16 5.5zM171 -132q-12 6 -21.5 12t-16.5 10v-21
q-1 -1 -1.5 -2t-2.5 -3q10 2 20.5 2.5t21.5 1.5z" />
    <glyph glyph-name="backslash" unicode="\" horiz-adv-x="240" 
d="M253 63q1 -1 1 -4q0 -4 -2.5 -6t-4.5 -4q2 -4 6.5 -10.5l9.5 -13.5t8.5 -13t3.5 -10q0 -10 -10 -10q-7 0 -9 5l-1 -1q-19 19 -43 19q-8 0 -17 -3q0 -2 1 -3t1 -3q0 -10 -10 -10q-7 0 -10 6q-3 -1 -4 -2.5t-3 -1.5q-12 0 -12 10q0 3 2.5 6t10.5 5q-30 88 -55 176t-55 176
q-10 28 -22.5 56l-24 56t-20.5 56.5t-12 58.5h6v12q5 -2 9 -3t8 -3v2l19 7q1 -2 1 -4t1 -4q1 0 2 1q11 0 11 -10q0 -7 -7 -10q14 -38 31 -74l34 -72l83 -185.5t73 -191.5zM220 102q-23 75 -52 145.5t-62 142.5q-23 51 -49.5 99.5t-46.5 100.5q-1 1 -8 1q2 -28 10 -55t19 -54
l22 -53t19 -53l55 -177t63 -174q5 1 9 1h9q15 0 37 -5l-17.5 39t-14.5 42h7z" />
    <glyph glyph-name="bracketright" unicode="]" horiz-adv-x="290" 
d="M199 610q0 -2 -0.5 -4t-0.5 -4q2 -6 2 -5q0 -1 -2 -7q1 -6 1 -12t1 -12l9 1v-45q2 -8 2.5 -14.5t2.5 -14.5q0 -7 -5 -10q2 -91 3.5 -179.5t1.5 -179.5q0 -72 -2 -141t-7 -141q1 -1 1 -6t-11 -8t-26 -5.5t-31.5 -3.5t-27.5 -1q-19 0 -37.5 3.5t-38.5 3.5l1 16q-5 3 -5 8
q0 7 8 10q20 0 44.5 7.5t47.5 9.5q1 29 1 58v58q0 99 -4.5 193.5t-15.5 194.5q1 5 4 7t6 2q7 0 10 -8q8 -129 12 -252.5t7 -252.5q4 0 10 -2.5t6 -8.5q0 -5 -1 -6l-2 -2l-15 7q1 -1 1 -2q0 -3 1 -5q-5 1 -10 1.5t-10 0.5q-20 0 -38.5 -6t-38.5 -11q13 -5 28 -9t29 -4
q19 0 37.5 5.5t37.5 10.5q8 79 11 157t3 156q0 100 -3.5 198.5t-6.5 198.5l-6 30q-10 -1 -23 -1h-27q-29 0 -57 0.5t-42 0.5q1 -1 1 -4q-5 -5 -5 -8q14 2 26 2.5t25 0.5h26h8t15 -0.5t14.5 -1t6.5 -1.5q-1 -1 -2 -1l-2 -1l20 -5q-5 -11 -21 -11q-10 0 -19 3q0 -54 9 -105.5
l18 -105.5q0 -6 -3 -8.5t-6 -2.5q-10 0 -11 10q-3 55 -11.5 108.5t-14.5 107.5q-7 2 -11 2.5t-9 0.5q-14 0 -28.5 -4t-28.5 -9q-1 0 -2 -0.5t-2 -0.5q-9 0 -9 10l2 6l-7 2q5 5 5 7t-3 7q1 9 9 9l-3 12q1 1 8 1q20 0 37.5 -6t36.5 -6q41 0 77 10q-1 1 -1 6z" />
    <glyph glyph-name="a" unicode="a" horiz-adv-x="390" 
d="M249 49l-6 -2q-8 0 -9 10q2 16 5.5 39t6.5 50t5.5 56.5t2.5 56.5q-9 -19 -23 -30t-30.5 -17.5t-34.5 -11t-36 -10.5l5 -5q-17 -17 -29 -38t-12 -41q0 -16 9 -29t30 -23q5 -5 5 -10q0 -9 -9 -9l-6 2q-21 13 -30 30t-9 37t7 39.5t18 38.5q-24 -11 -45.5 -31t-36.5 -60
q-5 -8 -12 -8q-8 0 -8 9v4q11 22 22.5 38t24.5 27.5t29 20t37 16.5l1 1v-1q15 6 33 11t34.5 12.5t29.5 18.5t18 28l18 -5q-1 32 -6 58t-19 40q-5 5 -11 6t-11 3l7 18q-19 2 -38.5 4.5t-38.5 2.5q-48 0 -69 -21t-21 -54q0 -23 11 -28q2 2 6 4l4 -19q3 7 9 7q2 0 2.5 -0.5
t2.5 -0.5l2 -2q7 9 10.5 21t6 24.5l5 25t7.5 22.5l18 -8l-6.5 -8t-5 -7t-4.5 -10.5t-5 -17.5q-2 -6 -3.5 -16.5t-4 -20.5t-7 -17t-12.5 -7q-9 2 -12 4t-3 7v2q-6 -2 -11 -2q-13 0 -19 13t-6 30q0 34 13.5 52.5t34.5 27.5t45.5 10.5t45.5 1.5h28q14 0 26.5 -1.5t12.5 -9.5
q0 -3 -2 -6t-7 -4q-4 0 -7 0.5t-7 0.5q32 -12 41 -42.5t9 -88.5q0 -30 -1.5 -66t-4 -67t-5.5 -52.5t-5 -22.5l20 1v-9q0 -43 23 -43q16 0 43 21q-8 -3 -15 -3q-13 0 -20 15l19 7q0 -9 9 -9q7 0 14 5t13 11l11.5 11t9.5 5q8 0 8 -10q0 -8 -14 -14.5t-27 -14.5q8 0 8 -9
q0 -7 -8 -12t-18.5 -8.5t-19.5 -5t-11 -1.5q-18 0 -29 15t-16 48zM256 400q22 -5 37.5 -23t24.5 -42t13 -49t4 -44q0 -43 -6.5 -87t-6.5 -89q-3 -8 -10 -8q-3 0 -6 2.5t-4 7.5q3 42 13 87t10 90q0 15 -4 37.5t-12.5 43.5t-22.5 36.5t-34 17.5zM231 47q-31 -25 -53.5 -37
t-42.5 -12q-22 0 -45.5 13t-57.5 38q-4 4 -4 9q0 9 9 9q3 0 8 -3l43 -38.5t42 -16.5q17 0 37.5 11.5t49.5 40.5z" />
    <glyph glyph-name="asciicircum" unicode="^" horiz-adv-x="410" 
d="M211 595q32 -28 56 -65.5l48 -71.5q18 -26 40 -53.5l41.5 -50l33 -38t13.5 -18.5q0 -9 -9 -9q-5 0 -9 4l-6 6l-1 -2q-10 10 -26 10q-11 0 -15 -2t-5.5 -5l-2.5 -5t-5 -2q-5 0 -9 4l-1 1q-6 -2 -12.5 -4.5t-9.5 -2.5q-9 0 -9 8q0 6 4 9t18 5l-30.5 54t-35 59t-39 53.5
t-42.5 38.5q-14 -14 -25.5 -33.5t-21.5 -41.5t-17.5 -44.5l-13.5 -41.5q4 2 7 3q12 0 12 -10q0 -8 -10.5 -10.5l-14.5 -3.5q-2 -7 -4 -16.5t-5 -18t-6.5 -14.5t-9.5 -6q-8 0 -8 9q0 8 4 18.5l7 18.5q-16 -8 -30.5 -18.5t-31.5 -18.5h-2l-1 -1q1 0 -5 2l-6 -2q-9 0 -9 13
q21 34 44.5 67l46 67t41.5 69t31 73l20 -5q-14 -35 -35.5 -66t-41.5 -63l-41 -66t-39 -68h1q17 5 33 15.5l32 20.5l32.5 78l33.5 74q10 21 20.5 32t12.5 25l20 -5l-4 -8t-4 -9q26 -20 44 -49.5l35 -55.5l37 -56l39 -56q9 2 18.5 3t17.5 1q-35 43 -67 89.5l-66 91.5
l-32.5 41.5t-37.5 37.5z" />
    <glyph glyph-name="underscore" unicode="_" 
d="M4 -160q19 3 40 3q37 0 74.5 -5.5t72.5 -5.5q57 0 112.5 6t112.5 15q12 0 12 -10q0 -5 -17 -9t-43.5 -6t-59.5 -3.5t-64.5 -2.5t-58 -1h-40.5q-23 0 -44.5 1.5t-43.5 1.5q-31 0 -51 -4z" />
    <glyph glyph-name="grave" unicode="`" horiz-adv-x="280" 
d="M37 578l2 4q13 13 44 13q18 0 26 -5l8.5 -17.5l17 -35l18.5 -38l13 -26.5q3 -3 6.5 -6t6.5 -6l-15 -13q-5 5 -10 13t-10 14q-17 25 -36 46.5t-48 36.5q-5 3 -5 7t4 8h-2zM70 575q17 -12 30.5 -26.5l27.5 -30.5l-15.5 42.5t-19.5 18.5q-12 0 -23 -4z" />
    <glyph glyph-name="b" unicode="b" 
d="M85 60l15.5 -12t14.5 -11v1q2 57 7 114t21 111q-2 5 -2.5 11t-2.5 12q-1 -1 -5 -1q-8 0 -8 8q0 3 2.5 8.5t5.5 10.5q-4 25 -5.5 49t-1.5 49q0 54 4 106t4 106l20 -2l-10 -100t-5 -100q0 -49 7 -87q20 29 45.5 53.5t57.5 38.5l-3 -3h4q12 0 29 -10t36 -26l6 5
q8 -11 18.5 -20l20.5 -18q38 -36 54 -70.5t16 -83.5v-5q0 -7 -1.5 -12t-8.5 -5q-3 0 -6 2.5t-4 7.5q2 5 2 10v10v13v17q0 -4 -0.5 -7t-0.5 -7v-9h-2q-8 -63 -33 -114.5t-71 -96.5l-6 -2q-11 0 -11 10q0 1 0.5 1.5t0.5 1.5h-17l2 -6q0 -6 -9 -10.5t-20.5 -7.5t-23.5 -4
t-18 -1q-44 0 -90 31q-10 6 -18.5 14t-19.5 13zM156 247q-14 -38 -18.5 -76t-4.5 -80v-16l12 5q4 -15 15 -24.5t26 -15t31.5 -7.5t31.5 -2q17 0 30 1.5t18 2.5q7 0 10 -5q45 40 63.5 83.5t21.5 102.5l-1 11q1 0 1 1q0 2 1 4v14l19 -2q-3 20 -10.5 35t-18.5 29q-3 -5 -7 -5
q-8 0 -18.5 17.5t-24.5 32.5l-13.5 12l-13.5 13l2 1q-13 11 -26.5 18t-28.5 8l-2 -1q-11 -8 -29 -15t-27 -15q-17 -15 -27 -31t-17 -35q1 -5 2 -9t2 -9l18 -4q-3 -5 -5 -10l-4 -10q0 -1 1.5 -4t1.5 -6q0 -5 -3.5 -7t-7.5 -2zM78 423q0 -88 9 -173t14 -173q0 -6 -3 -8.5
t-6 -2.5q-11 0 -11 20q0 85 -9 168t-14 168zM295 69q8 23 15 56.5t7 68.5q0 21 -4 42.5t-13.5 39.5t-25.5 29t-40 11q-6 0 -12 -0.5t-12 -0.5q-10 1 -10 11q0 3 2.5 6t8.5 3h23q12 0 22 -5q42 -26 58 -67.5t16 -89.5q0 -28 -4 -55.5t-11 -53.5zM128 592q-20 -8 -37 -15.5
t-34 -18.5q10 -7 14.5 -20.5t6 -29t1.5 -32t1 -30.5q-3 -8 -10 -8q-3 0 -6 2.5t-4 7.5l3 21.5t2 30.5q0 17 -4 31.5t-16 18.5q-7 -4 -12 -9.5t-10 -5.5q-10 0 -10 10q0 4 3 7l-1 7q29 11 53.5 22t51.5 29zM126 28q17 -14 32.5 -22t35.5 -8q26 0 62 16q-34 2 -68.5 11.5
t-53.5 34.5v-10.5t1 -10.5q0 -10 -9 -11z" />
    <glyph glyph-name="c" unicode="c" horiz-adv-x="390" 
d="M293 49q5 8 8 16l6 16q-42 -20 -76 -20q-30 0 -58.5 14t-54.5 46q-2 -2 -6 -2q-8 0 -14 14.5t-10 33.5t-6 38t-2 27q0 58 28 114q-2 2 -2 4q0 5 4 5t7 9l2 -1q58 34 126 34q17 0 33.5 -2t33.5 -6l-1 -3q1 1 4 1q1 0 6.5 -4t10.5 -11.5t9.5 -17.5t4.5 -21q0 -9 -6.5 -18
t-15.5 -16t-19 -11.5t-17 -4.5q-24 0 -30 13.5t-8.5 30t-7.5 31t-27 16.5l2 9q-23 -3 -45 -11.5t-44 -25.5q-38 -59 -38 -109q0 -36 18 -78l6 1q0 -9 9 -19t9 -11q20 -31 44 -44t50 -13q23 0 45.5 8.5t43.5 22.5q5 16 6.5 32t1.5 35v14l20 -2q-2 -17 -4.5 -33t-6.5 -33l6 6
q4 3 8 3q9 0 9 -9q0 -8 -11 -14.5t-19 -12.5q-2 -8 -6 -20.5t-8.5 -24.5t-10 -21t-10.5 -9q-9 0 -9 9q-29 -24 -62 -24q-5 0 -19.5 2.5t-30 6.5t-27.5 10t-12 13q0 3 1 4q7 -2 15.5 -4t18.5 -3q14 -8 28 -13t28 -5q-2 -5 -9 -6q-33 4 -58 10t-45 17.5t-36.5 31.5t-32.5 53
l-17 36t-8 35q0 16 7 29l1 -1q3 25 11 54t22 55.5t34.5 47t47.5 27.5q0 -2 -4 -2l14 -14q-7 -5 -16.5 -6.5t-17.5 -7.5q-42 -29 -58 -69.5t-17 -88.5h3q-1 -3 -3 -7q0 -20 3 -39q0 -8 -4 -9q14 -54 41.5 -83.5t51.5 -37.5q2 5 9 5q5 0 12.5 -5t12.5 -7q5 -1 14.5 -1.5
t19 -1.5t16.5 -3.5t7 -8.5q0 -2 -1 -3q17 0 32.5 10t29.5 33zM308 372q-1 1 -1 3l-2 -5q-18 7 -35 10t-34 4q15 -13 21 -32.5t13 -39.5l4 2q4 -16 23 -16q14 0 24 8.5t10 22.5q0 15 -7 23t-16 20z" />
    <glyph glyph-name="d" unicode="d" 
d="M54 282q18 58 61.5 93t115.5 35q20 0 36 -10l17 -12l4 54t2 54q0 21 -3.5 33.5t-8.5 20t-10 10t-9 3.5v1q-8 -8 -17.5 -19.5t-15.5 -11.5q-9 0 -9 9q0 6 12.5 18t30 24.5t35 23t27.5 14.5l-1 1q18 18 29 18q9 0 14.5 -20.5t8.5 -52t4 -70t1 -74.5q0 -46 -1 -79.5
t-1 -36.5h3v-214q0 -6 -3 -8.5t-6 -2.5q-10 0 -11 10v141q-2 2 -2 6q0 8 0.5 15.5t1.5 16.5v38h2q2 32 4 69t2 74q0 51 -4.5 96t-15.5 74q-3 -3 -4.5 -5t-2.5 -3l2 -8q-20 -2 -37 -10.5t-32 -20.5l15.5 -18t17.5 -17v-8h3l-6 -77.5t-3 -77.5l3 -2l-3 -5v-13.5t1 -13.5
q-3 -8 -10 -8q-3 0 -6 2.5t-4 7.5q0 5 0.5 10.5t1.5 11.5q-34 29 -74 29q-36 0 -69 -20.5t-53 -50.5q-8 -12 -11.5 -21t-5.5 -17.5t-2.5 -18.5t-2.5 -23q-5 -8 -11 -8h-2q-4 -20 -4 -42q0 -29 8 -58.5t23 -55.5t36.5 -46t49.5 -29q6 -5 6 -10q0 -9 -13 -9q-32 13 -55.5 38.5
t-38.5 57t-22.5 66.5t-7.5 68q0 17 3.5 33t3.5 33zM85 233q3 24 9.5 48.5t18.5 44t31 32t46 12.5q28 0 41 -5t20.5 -12t14 -14t23.5 -11l-2 -10l18 1q-1 -12 -1 -24v-23v-23q0 -48 -4 -95.5t-25 -92.5q-3 -5 -8 -5q-10 0 -10 13q20 35 26.5 71t6.5 73q0 24 -1.5 48t-3.5 50
v-3q-14 3 -23.5 11l-19.5 17t-23.5 15.5t-34.5 6.5q-23 0 -38 -11.5t-24.5 -29.5t-14 -40t-5.5 -43h1q0 -51 12.5 -93t51.5 -72q-4 4 -9 13l-10 18.5t-8.5 19.5t-3.5 16q0 12 9 12q7 0 12 -15.5t12 -34t16.5 -34t25.5 -15.5q17 0 36 16l11 -16q-22 -14 -40 -14q-17 0 -33 13
q-4 -7 -10 -7q1 0 -5 2q-34 27 -53 64t-27 79q-7 1 -7 9v12.5t1 14.5q-1 1 -1 11h2zM314 -13v-6q0 -10 -9 -10q-6 0 -10 7q0 2 0.5 2t0.5 1q0 2 -1 3q0 -1 -1 -1t-2 -0.5t-2 -0.5l2 13q-2 8 -3 17.5t-1 18.5q0 12 1 15q-17 -24 -39.5 -44t-49.5 -31h-4q-9 0 -9 8q0 7 8 12
q31 5 50.5 23.5t30.5 47.5l15 -7q3 6 7 10l11 -16q-7 -3 -7 -19q0 -11 3 -21q8 11 19.5 24.5t17.5 13.5q9 0 9 -9q0 -7 -7 -10.5t-10 -5.5q13 4 21.5 7t15 6.5t14 9l19.5 14.5l8 -18q-20 -8 -38.5 -17.5t-37.5 -22.5h-3q-10 0 -10 8v2q-5 -6 -6.5 -12t-1.5 -12h-1z" />
    <glyph glyph-name="e" unicode="e" horiz-adv-x="390" 
d="M255 276l2 -14h-15q-38 0 -73.5 -7t-73.5 -10q-10 3 -10 10q0 6 7 9q-7 1 -7 10v3q24 46 54 73.5t58 27.5q24 0 43 -23.5t29 -77.5zM350 239q-9 -10 -26 -10q-8 0 -17 1.5t-16 1.5q-51 -1 -96 -5.5t-93 -19.5q5 -57 33.5 -85.5t88.5 -30.5q8 -3 8 -10q0 -3 -2 -6t-7 -4
q-63 10 -98.5 49.5t-43.5 102.5h8q1 1 2 1.5t2 1.5q29 6 58 8.5t58 4l58.5 3t59.5 6.5h1q1 0 1.5 0.5t1.5 0.5q-2 30 -9 58t-20.5 51.5t-34.5 41t-52 25.5l1 -4q-29 -2 -53 -13t-43.5 -29t-34.5 -41.5t-26 -48.5q-5 -8 -12 -8q-8 0 -8 9v4q15 24 31.5 47t36.5 42t43.5 33.5
t51.5 21.5q1 9 11 9q33 -11 57.5 -32.5t41 -49t26 -59.5t13.5 -65h1v-2h-2zM53 67l-24 90.5t-12 92.5q0 21 5.5 40t5.5 39l20 -2q-4 -22 -11 -40t-7 -44q0 -48 13.5 -90t31.5 -87v-7q20 -23 40.5 -37t55.5 -18q7 -3 8 -7l8 6q3 -4 6.5 -4t8.5 -1q31 3 59 15.5t49.5 32t34 46
t12.5 58.5v9q1 5 4 7t6 2q7 0 10 -8q0 -55 -32.5 -95t-80.5 -66q-11 -6 -29.5 -13t-35.5 -7q-16 0 -23 7q-2 -2 -9 -2q-36 11 -64 32t-56 46zM97 265q4 0 8 -0.5t9 -0.5q34 0 66.5 6t67.5 11q-2 15 -6 30.5t-11 28t-17 20t-23 7.5q-15 0 -28 -9t-23.5 -23t-19 -30.5
t-15.5 -32.5q-4 -6 -8 -7zM324 109q-23 -23 -52 -42.5t-59 -34.5h-4q-9 0 -9 8q0 7 8 12q21 6 35.5 12t25.5 14.5t20.5 19t20.5 25.5z" />
    <glyph glyph-name="f" unicode="f" horiz-adv-x="290" 
d="M314 525l-14.5 20.5t-16 19.5t-18.5 14.5t-22 5.5q-11 0 -18 -3t-9 -7l3 -6q-4 -2 -5 -3h-1q-32 -19 -43 -53t-11 -68v-10t1 -10h5q20 -10 38 -14.5t38 -4.5h9.5t9.5 1v-1q6 0 7 1q12 0 12 -10q0 -3 -2.5 -6t-7.5 -4q-3 0 -5.5 0.5t-4.5 0.5v-1q-5 0 -10.5 0.5t-11.5 0.5
q-16 0 -30.5 -3t-29.5 -11l3 -2q-5 -5 -8.5 -21t-5.5 -36t-3 -40t-1 -33q0 -38 3.5 -75t5.5 -77q0 1 -2 -7q2 -26 14 -41.5t38 -15.5q12 0 15 1q11 0 11 -10q0 -7 -7 -10q7 -2 16 -3.5t16.5 -3t12.5 -4.5t5 -8q0 -9 -13 -9q-30 11 -65.5 18t-70.5 7q-32 0 -61.5 -7
t-53.5 -24l-5 10q-6 0 -9 4t-3 7q0 10 10 10q3 0 7 -2t9 -3q14 4 21.5 8t12 8.5t7.5 10.5t9 14l6 -7q11 17 15 30t4 28v10t-1 10l-11 1l4 64t2 61q0 29 -3 58.5t-12 60.5q-14 3 -27 3q-5 0 -10.5 -0.5t-11.5 -1.5q-10 1 -10 11q0 3 2.5 6t8.5 3l15.5 -4t15.5 -2
q12 0 13.5 5.5t8.5 5.5q9 0 13.5 -20t7 -46t3 -52t0.5 -38v-49q5 -12 5 -36q0 -15 -1.5 -33t-4.5 -35.5t-6.5 -32.5t-7.5 -24q-2 -2 -2 -3q10 1 20 1.5t21 0.5q17 0 34.5 -1t34.5 -3q-27 9 -42 31.5t-20 52.5h2q0 10 -1 27t-1.5 38.5t-1.5 46t-1 48.5q0 32 2 61.5t8 48.5
q-10 0 -11 10q1 26 1.5 54t4.5 55t14 50.5t31 41.5q10 22 36 22q21 0 37.5 -11.5t31 -25l27 -25t25.5 -11.5q13 16 13 33q0 13 -8 24.5t-20.5 20t-29 13t-33.5 4.5t-33 -5.5t-28 -17.5q-4 -2 -7 -2q-9 0 -9 9q0 7 9 13t21.5 9.5t25 5.5t18.5 2q15 0 33.5 -5t34 -15.5
t26 -26.5t10.5 -37q0 -17 -6.5 -31.5t-21.5 -14.5h-4q-4 -7 -9 -7q-7 0 -11 8.5t-12 16.5zM201 590q-32 -20 -54.5 -44.5t-36.5 -59.5q-7 -7 -8.5 -19.5t-1.5 -25.5v-9v-12.5t1 -12.5l-9 1l-4 -13q-10 7 -19 7q-11 0 -26 -15q-13 0 -13 10q0 4 6 7t14 5.5t16.5 4t14.5 1.5
l4 33.5t7 32.5q-3 3 -3 6q0 1 6 17t14.5 34t18 33t16.5 15q9 0 9 -9q0 -4 -3 -8q18 19 40 37zM197 398q-9 2 -18 3.5t-17 3.5q0 -5 0.5 -9.5t1.5 -9.5q15 7 33 12zM83 11q1 1 7 1l-3 3z" />
    <glyph glyph-name="g" unicode="g" 
d="M16 -112q-1 1 -1 4q5 32 19 60t37 48l11 -16q-47 -27 -47 -87v-7q-1 -1 -1 -1.5t-1 -1.5q2 -20 17.5 -27t38.5 -14l3 -3q38 -5 72.5 -12t69.5 -7q31 6 62 29q1 1 6 1q9 0 9 -8q0 -1 -0.5 -1.5t-0.5 -1.5q7 1 15 3.5t15 2.5h2q17 5 30.5 14t26.5 21q-4 3 -4 8q0 3 3.5 11
t7.5 19t7.5 23t3.5 23q0 24 -17 28l2 7q-16 16 -38.5 32t-47.5 16q-14 0 -27 -4.5t-24 -4.5q-6 0 -12 3l3 5q-14 -1 -31.5 -2t-35.5 -1q-28 0 -53 4t-36 15l6 6q-5 1 -6 9q3 14 7.5 32t12.5 33q-3 2 -5.5 3.5t-5.5 3.5q-14 -15 -25 -36t-17 -53q-5 -8 -11 -8q-3 0 -4 1
q1 -8 7.5 -14t14 -10.5t13.5 -8.5t6 -8q0 -9 -13 -9q-39 22 -48 69l18 1l20.5 42.5t24.5 41.5q-8 5 -14.5 9.5t-12.5 10.5q1 -3 2.5 -5.5t1.5 -5.5q0 -10 -10 -10q-6 0 -10.5 10.5t-6.5 25t-3 29t-1 23.5q0 33 9 65t29 62l4 -3q25 22 45 29.5t40 7.5q16 0 33 -3t37 -5h1
q14 0 42 -5l4 -1q16 -5 29 -12q5 0 8.5 2t7.5 2t5 -1q23 2 44.5 2.5t42.5 11.5v-2q12 -2 12 -10t-11 -10.5t-25.5 -5t-28.5 -7t-20 -15.5q4 -17 6 -34.5t2 -35.5q0 -34 -10 -66.5t-36 -58.5l-9 8q0 -3 -14.5 -9t-35.5 -12t-45 -10.5t-43 -4.5q-21 0 -28 7l13 15q6 -7 22 -7
q14 0 32 4t35 9.5t31.5 11t21.5 8.5q6 0 9 -3q26 24 36 50.5t10 52.5q0 17 -3.5 34t-8.5 33l-9 3q1 4 5 8q-2 3 -2.5 6t-2.5 6q-1 0 -3.5 -1t-5.5 -1q-6 0 -9 4l-1 -2q-6 5 -11.5 8l-10.5 6v-3q-16 2 -29.5 5.5t-26.5 7.5q-8 -1 -15 -2t-15 -3h5q25 0 42.5 -18t34.5 -43h6
q-1 -1 -1 -7q3 -5 7.5 -11t4.5 -11t-3 -9l-2 -2l-8 8q0 -15 1 -30t1 -30q-5 -6 -6 -9.5t-1 -8.5v-8q-4 -25 -30.5 -38t-56.5 -13q-20 0 -38 6.5t-27 20.5q-5 7 -6 14.5t-4 15.5h1q-11 41 -11 75q0 25 6.5 48.5t22.5 46.5l16 -11q-18 -19 -25.5 -38.5t-7.5 -40.5
q0 -36 19 -75v-7q7 -25 23 -36t35 -11q24 0 45.5 15.5t21.5 41.5q0 5 -0.5 9.5t-0.5 9.5q0 8 7 9q1 7 1.5 13.5t0.5 12.5q0 19 -4.5 36.5t-12.5 31t-19 21.5t-24 8q-19 0 -45 -17q-13 0 -13 10q0 6 8 9.5l15 6.5q-6 -1 -12 -3t-12 -2q-9 0 -9 8q0 6 5 9t12 4.5t15.5 2
t15.5 0.5q-5 1 -9.5 1h-9.5q-19 0 -38 -9t-41 -35q-12 -6 -20 -18.5t-12.5 -27t-6.5 -29.5t-2 -25q0 -19 4 -35l9 2q1 -22 11.5 -33t26.5 -17q0 1 1 2q3 3 5 6l14 -14q-1 0 -1 -1q6 -2 10 -3q2 2 4 2.5t4 2.5l5 -20q-11 -3 -16 -12t-7 -20.5t-2.5 -22.5t-1.5 -17
q8 -8 24 -11.5t35 -3.5q26 0 52.5 4t40.5 8q8 0 10 -6q4 0 8 0.5t9 0.5q23 0 43.5 -8t39 -20.5t35.5 -27.5l33 -29q3 -5 3 -8q0 -9 -9 -9q-4 0 -5.5 1.5l-6.5 6.5v-5q0 -14 -3 -29t-6 -28l6 10t10 5q10 0 10 -8l-2 -6q-18 -23 -42 -42.5t-52 -32.5q-5 -10 -19 -15
t-31.5 -7.5t-34 -3t-26.5 -0.5q-8 -3 -16.5 -5.5t-17.5 -4.5l-1 13q-33 2 -66 6.5t-67 4.5v8q-18 11 -35 22.5t-24 31.5zM326 -129q29 19 39.5 39.5t10.5 51.5v17l20 -2q-5 -39 -18.5 -67.5t-42.5 -55.5l-6 -2q-9 0 -10 10q-21 -4 -42 -5.5t-41 -1.5q-13 0 -39.5 2t-53.5 6
t-47.5 10.5t-20.5 15.5v3q-4 -4 -7 -4q-7 0 -10 10q4 30 15.5 58.5t28.5 51.5l14 -14q-21 -19 -30 -36t-9 -46q0 -4 0.5 -7.5t0.5 -8.5q-1 0 -1 -2q3 4 7 4t5 -1q69 -28 137 -28q23 0 47 3t50 11zM363 -21q-24 16 -47 22.5t-46 6.5q-29 0 -57 -7.5t-54 -12.5q-5 1 -7.5 4
t-2.5 6q0 6 15.5 9.5t36 5.5t41.5 3t32 1q26 0 50 -4.5t49 -16.5zM351 371q-2 0 -3.5 -0.5t-3.5 -0.5q0 -2 1 -3q4 2 6 4zM303 -165q-5 -2 -8.5 -2.5t-6.5 -2.5q3 2 7 2.5t8 1.5v1z" />
    <glyph glyph-name="h" unicode="h" 
d="M273 4q-11 -4 -25.5 -11t-21.5 -7q-9 0 -9 8q0 10 19.5 16t37.5 10q3 26 8.5 50.5l11.5 49.5q-2 6 -2 5q0 7 4.5 15.5t6.5 16.5q4 17 7.5 33.5t6.5 33.5l1 1q1 5 1 11v12q0 51 -20.5 84.5t-55.5 33.5q-23 0 -44.5 -13.5t-33.5 -37.5l-8 3q-2 -5 -4 -9.5t-3 -9.5l-4 1
q-10 -24 -13.5 -51t-3.5 -55q0 -25 2 -49l4 -46v-2q3 -14 7.5 -29.5t11.5 -29t17.5 -23t25.5 -12.5l-7 -19q-2 1 -3.5 1.5t-3.5 1.5q0 -1 0.5 -1.5t0.5 -2.5q0 -8 -13 -8q-21 5 -57.5 9.5t-78.5 4.5h-16.5t-16.5 -1l1 20l168 -12q-20 17 -33 44t-21 52q-1 2 -1 4q0 1 -1 2v2
q-2 5 -2.5 5.5t-0.5 2.5q0 3 4 7q4 39 5 78t3 79h-3q-7 0 -8 10q5 79 11.5 156.5t7.5 158.5q-13 -4 -31.5 -8t-39.5 -16l-1 -1h-1q6 -8 11 -20.5t8.5 -25t5.5 -23t2 -13.5q2 -17 3 -33t1 -33q0 -48 -6 -96l-12 -97l12 3q1 -8 1.5 -16t0.5 -16q0 -15 -4 -45.5t-11 -60.5
t-16 -53t-19 -23q-8 0 -8 9v4q17 37 29.5 73.5t12.5 74.5v12t-1 12q-2 -14 -4.5 -18t-7.5 -4q-3 0 -6 2.5t-4 7.5q8 54 19 110t11 113q0 38 -7 74.5t-27 70.5l-1 -2v-5l-9 1q-6 -5 -13.5 -12.5t-15.5 -14t-17 -11.5t-16 -5q-9 0 -9 8q0 5 7.5 11t18 12t20.5 11t15 8
q2 7 7.5 13t13.5 6l8 -2l40 21.5t40 18.5l1 -6l19 -2q-5 -75 -11.5 -147t-7.5 -145q0 1 1 2l3 -1q10 20 28 38.5t39.5 32.5t46 22.5t47.5 8.5q6 0 14.5 -1t16.5 -3.5t13.5 -6t5.5 -8.5l-2 -6q17 -27 24.5 -57t7.5 -61v-16h3q-2 -25 -3 -47.5t-1 -44.5q0 -45 10.5 -85
t45.5 -80v-4q0 -10 -9 -10q-5 0 -8 4t-4 5l-2 -3q-15 11 -31 15.5t-33 4.5q-24 0 -54 -8v-8zM313 123q-6 -9 -10 -21t-6 -25.5t-3 -27.5t-2 -26q30 6 61 6q12 0 23 -1t22 -4q-23 45 -29 94.5t-7 100.5q-9 0 -9 10q0 8 3 16t5 16l1 4q3 16 3 31q0 56 -42 101l3 2q-18 8 -39 8
q-26 0 -50.5 -11t-44.5 -30q26 14 53 14q26 0 42.5 -15.5t25.5 -38t12.5 -49t3.5 -47.5q8 -2 8 -11q-8 -26 -13 -49t-11 -47z" />
    <glyph glyph-name="i" unicode="i" horiz-adv-x="240" 
d="M145 61l10 -16.5t13 -15.5q4 1 7 2t5 2q11 0 11 -10q0 -5 -4 -9q8 -4 18 -4l-4 -20q-13 4 -32 20l-70.5 -12.5t-70.5 -11.5l-2 20q5 0 10 -0.5t10 -0.5q16 0 33 3q-5 1 -6 9q3 66 5 130.5t2 130.5q-1 1 -1 4t1 4q0 13 -0.5 26t-0.5 27l7 -1q0 13 -3 22.5t-12 9.5
q-5 -1 -8.5 -4t-8.5 -5l-2 7q-5 -6 -11.5 -13t-11.5 -7q-9 0 -9 9q0 8 17 21t37.5 25.5t38 21.5t18.5 9l2 -6l19 -2q-4 -33 -6 -66.5t-2 -66.5q0 -42 3.5 -82.5t3.5 -79.5q0 -34 -6 -70zM131 413l-30.5 -14t-24.5 -13q15 -6 19.5 -26t4.5 -41q0 -14 -0.5 -27.5t-3.5 -16.5
q-2 -45 -3.5 -86.5t-1.5 -86.5q0 -22 0.5 -43.5t1.5 -43.5q-1 -4 -5 -6q17 2 33.5 6.5l33.5 9.5q-9 7 -16 16q-4 -4 -8 -4q-10 0 -10 9q0 2 1 6t2 7v1l-2 6q0 6 6 8q6 28 8.5 56.5t2.5 57.5q0 51 -4 102t-4 102v21zM143 595q12 -12 12 -28q0 -15 -7.5 -28.5t-18 -23.5
t-22 -16t-18.5 -6q-8 0 -15 7t-13 17t-10 20.5t-5 16.5q-4 -4 -5 -6t-5 -2q-10 0 -10 10t9.5 20t20.5 17.5t21 12.5t11 5q9 3 17 3q11 0 20 -5t18 -14zM137 546q2 4 2 7.5v6.5v8q0 18 -7 25.5t-18 7.5q-14 0 -30 -9.5t-29 -24.5l12 -3q-5 -10 -5 -18q0 -18 18 -28l13 3
q0 -5 5 -5q4 0 10.5 3.5t12.5 8t10.5 10t5.5 8.5z" />
    <glyph glyph-name="j" unicode="j" horiz-adv-x="240" 
d="M42 -166q5 -2 6 -5l18 21q39 39 57 76t18 91q-2 72 -5.5 141t-5.5 141q0 14 1.5 27.5t3.5 27.5l-18 2l2 10t3 10q-24 -1 -45 -11q4 -13 6 -31.5t3 -38t1.5 -39t0.5 -35.5v-29q3 -51 8 -102t9 -102q0 -5 -3 -8q-2 -17 -7.5 -40t-12.5 -44t-15 -35.5t-14 -14.5q-8 0 -8 9v4
q14 23 28 56t15 65q-1 2 -2 3.5t-1 3.5v20q-1 3 -2 5.5t-2 5.5l4 1q-2 40 -4.5 79.5t-6.5 79.5q-5 1 -6 9q0 6 0.5 13t1.5 15q-2 15 -2.5 29.5t-1.5 29.5h9q1 6 1 12.5v12.5q0 37 -11 60q-5 -3 -13 -10.5t-15.5 -16t-14.5 -14.5t-10 -6q-9 0 -9 9q0 7 11.5 17t20.5 15l-5 20
q8 2 13.5 8.5t13.5 6.5q9 0 15 -12q14 7 28 12t28 8q3 8 6 20t12 12q10 0 10 -12q-5 -7 -8.5 -13t-5.5 -12l16 -1q-3 -27 -8 -55.5t-5 -55.5q0 -69 4.5 -133.5l9.5 -130.5h2q-1 -1 -1 -8q1 -9 1.5 -18.5t1.5 -19.5q0 -11 -10 -11q-3 0 -4 1q-17 -53 -56 -106l1 -5
q-9 0 -9.5 -5.5t-8.5 -5.5q-3 0 -4 1q-7 -5 -14 -14.5l-14 -18.5t-13.5 -16t-11.5 -7q-10 0 -10 12q-12 -6 -25 -6q-5 0 -14.5 1.5t-19.5 5.5t-17.5 11.5t-7.5 19.5q0 7 3 22.5t8 31.5t13 28t18 12q19 0 27.5 -11.5t14 -26.5t12 -28t22.5 -16zM75 619v-4q17 5 29 5
q24 0 35.5 -21t11.5 -47q0 -23 -9.5 -42t-26.5 -19q-3 0 -11 3t-17.5 8t-18.5 12t-13 15q2 -14 5.5 -26.5t8.5 -24.5q0 -11 -9 -11q-6 0 -10 9t-5.5 21t-2 24.5t-0.5 20.5v10.5t1 10.5q-4 -4 -5 -9.5t-8 -5.5q-10 0 -10 13q14 25 33 41l1 1q2 10 2 9zM140 537q1 5 1 9.5v9.5
q0 25 -10.5 37t-26.5 12q-23 0 -37 -16t-14 -47q0 -8 1 -11l17 10q6 -14 18 -22.5t23 -8.5q22 0 28 27zM-22 -199q17 2 26 8t21 16q-9 6 -15.5 18.5t-11.5 25.5t-11.5 24t-15.5 14q-14 -11 -24.5 -31.5t-10.5 -40.5q0 -14 8 -24t28 -10h6zM44 360q4 2 7.5 5t8.5 5q-1 0 -1 1
q-4 0 -7.5 -3.5zM136 364q1 5 1 8t1 8q-1 -4 -1.5 -7.5t-0.5 -8.5zM145 296v10v-10z" />
    <glyph glyph-name="k" unicode="k" 
d="M250 4q8 -1 15.5 -1t15.5 -1q-14 32 -36 74.5t-52 80.5q-11 13 -23 23.5t-23 22.5q-6 -27 -6 -53v-10t1 -10q-1 -1 -1 -3q0 -1 -1 -1q10 -32 23.5 -63t32.5 -61l-5 -3h1q8 -3 8 -12q0 -8 -9 -8q-14 0 -37 7.5t-54 7.5q-8 0 -26 -4t-55 -4q-9 0 -16.5 1.5t-12.5 6.5l12 14
q-2 0 -3.5 -0.5t-3.5 -0.5q-9 0 -9 8q0 7 8 12q20 2 33.5 8t27.5 20q-4 2 -4.5 6t-0.5 9v10v15q-1 -1 -5 -1q-7 0 -8 10q4 81 7.5 161.5t11.5 161.5v1q0 14 3 33t3 35q0 20 -4.5 36t-18.5 21q-4 -2 -9 -3.5t-7 -6.5l-20 5q2 2 2.5 4t2.5 4l-6 -2q-10 0 -10 10q0 9 16.5 17.5
t38.5 16t44 12.5t34 7l2 -18l10 -1q-2 -9 -3 -17.5t-3 -17.5l17 -1q-27 -134 -27 -271q0 -16 0.5 -32t1.5 -32l63.5 58.5t76.5 60.5q2 3 5 6l6 6l2 -3l6 3q-2 8 -9.5 13.5t-19.5 16.5q-7 -1 -13.5 -1.5t-12.5 -1.5q-5 1 -7.5 4t-2.5 6q0 7 8 10q4 0 7.5 -0.5t6.5 -0.5
q27 0 55 3.5t56 3.5q26 0 43 -4q3 2 6.5 4t7.5 4l5 -20q-5 -2 -9.5 -2.5t-9.5 -2.5l-1 -3l-5 2l-19.5 -4t-19.5 -5l2 -15q-26 -3 -59 -17q0 -5 -1.5 -12.5t-4.5 -14.5t-6.5 -12t-6.5 -5q-10 0 -10 13l4 6l4 6q-17 -14 -38 -28t-33 -31l2 -6q2 2 2.5 3t2.5 3q0 -1 -0.5 -2
t-0.5 -2q0 -10 7 -24t16 -27.5t17.5 -25t11.5 -16.5q37 -51 84 -91.5t92 -85.5q4 -4 14 -7l20 -6t17.5 -6.5t7.5 -9.5q0 -9 -13 -9q-35 18 -69.5 24.5t-70.5 6.5q-8 0 -15 -0.5t-15 -0.5q0 -2 1 -3.5t1 -3.5q0 -10 -10 -10q-7 0 -10 7l-3 9h-36zM72 420q-10 -60 -13.5 -118
t-3.5 -118v-34t1 -34l11 -1q-4 -13 -4 -25q0 -10 4.5 -16t4.5 -12q0 -10 -12 -10l8 -11l-32 -16l-33 -16q2 -2 22 -3t47.5 -2t56 -1.5t46.5 -1.5l-22 49.5t-21 51.5q-2 -6 -8 -6q-10 0 -12 18.5t-2 36.5v16l-3 12q0 1 -0.5 1.5t-0.5 1.5q0 3 3 6q-1 20 -1 40.5v41.5
q0 55 2.5 109.5t8.5 109.5q-4 -4 -8 -4q-7 0 -9 11q7 22 11.5 42.5t4.5 42.5v7q0 3 -1 6t-4 3q-35 0 -57.5 -10.5t-39.5 -24.5q2 2 11.5 5t14.5 3q9 0 14.5 -9t9 -22.5t5.5 -30t3 -31.5h8q-2 -9 -3.5 -17.5t-3.5 -16.5q0 -6 0.5 -10.5t0.5 -6.5q-1 -2 -2 -3t-2 -3zM204 164
q27 -39 50.5 -79.5l46.5 -82.5q26 -1 52.5 -1.5t52.5 -3.5q-23 25 -48 49.5l-49.5 49.5t-47.5 51t-42 55q-3 5 -14.5 21.5t-16.5 33.5q-5 -3 -8 -3q-1 1 -2 1l-17.5 -16l-16.5 -16l8 -1l3 3q9 -15 24 -30.5t25 -30.5zM355 396q-5 1 -10.5 1h-11.5q-14 0 -28 -1.5t-28 -3.5
q6 -6 9 -14t5 -14l12.5 6l13.5 6q-2 2 -2 5q0 6 4.5 8.5t10.5 3.5t13 1t12 2zM129 172q3 19 3 38q-6 -6 -8 -6q0 -10 1.5 -17t3.5 -15z" />
    <glyph glyph-name="l" unicode="l" horiz-adv-x="240" 
d="M167 615q-2 -88 -1.5 -172.5t-7.5 -172.5q-4 -11 -4.5 -20t-0.5 -20q0 -45 6.5 -86.5t23.5 -86.5q0 -2 0.5 -2.5t0.5 -2.5q0 -5 -3.5 -7t-7.5 -2q6 -17 18.5 -27.5t34.5 -11.5q8 -3 8 -12q0 -8 -9 -8q-11 0 -23 7.5t-19 14.5q-1 -1 -5 -1q-5 2 -10 2h-10h-13
q-31 0 -60.5 -5.5t-61.5 -9.5l-2 20q38 0 74 5.5t73 7.5q-13 21 -19 49h9q-13 58 -16.5 116t-5.5 118l7 -1q5 38 6.5 76t1.5 76q0 66 -3 134q-10 -6 -23.5 -4.5t-24.5 -2.5q-10 -4 -18.5 -8t-15.5 -8q12 -4 19.5 -18.5t11 -34t4.5 -42t1 -42.5v-29q0 -51 -4 -102t-10 -100
q14 -36 14 -74q0 -11 -2.5 -30t-7.5 -37.5t-12.5 -32t-16.5 -13.5t-9 9q0 3 2 7q17 17 25 42t8 51q0 24 -4 39q-1 -6 -2.5 -17.5t-10.5 -11.5q-3 0 -6 2.5t-4 7.5q2 13 4.5 26t4.5 27q-2 3 -3.5 5.5t-3.5 5.5l10 6q7 45 12 89.5t5 90.5q0 11 -0.5 31.5t-3 43.5t-8.5 45
t-17 37l-1 1q-3 -3 -12 -7.5t-12 -5.5l-3 9q-5 -5 -14 -13t-14 -8q-10 0 -10 10q0 6 12.5 14.5t29 17l33 16.5t25.5 13q10 5 22.5 5.5t19.5 7.5l9 -10v14h20z" />
    <glyph glyph-name="m" unicode="m" horiz-adv-x="670" 
d="M68 329q-8 8 -17.5 18.5t-21.5 10.5q-6 0 -8 -8l-13 3q-4 -4 -10 -9.5t-9 -5.5q-12 0 -12 10q0 7 19.5 20t45.5 26.5t51.5 23.5t36.5 10l-4 -20q-3 1 -14 1q-20 0 -39 -10t-38 -24q21 -8 33.5 -24.5t19.5 -38.5t9 -49t2 -55q0 -33 -2 -66t-5 -66q2 4 3.5 13t3.5 17.5
t4.5 15t7.5 6.5t6 -1q5 70 8 140t3 142l20 -2l-2 -40l-2 -40q14 16 31.5 32.5t37 30.5t40 23t41.5 9q27 0 51.5 -19.5t42.5 -57.5l27 31.5t30 30.5t34.5 23t40.5 9q32 0 54.5 -21.5t36.5 -52t20.5 -64.5t6.5 -59q-3 -8 -10 -8q-3 0 -6 2.5t-4 7.5v10q0 23 -5.5 53.5
t-17 57.5t-30 45.5t-43.5 18.5q-18 0 -40 -12q-20 -11 -32 -22t-20 -22.5t-15.5 -24t-18.5 -26.5q0 -3 1 -4q40 27 76 27q23 0 54 -14v38q1 5 4 7.5t6 2.5q10 0 10 -12q-3 -23 -3 -45q6 -3 17 -9.5t11 -14.5q0 -9 -10 -9q-5 0 -10.5 4.5t-8.5 8.5q-2 -73 -3.5 -146.5
t-22.5 -142.5q17 -4 34.5 -6t35.5 -2q-8 13 -11 29.5t-3 34.5q0 29 4 57t4 48l1.5 50.5t1 27.5t0.5 22v34l20 -2q-1 -10 -4 -31.5t-6 -49.5t-5 -59t-2 -59q0 -34 4.5 -60t15.5 -36q0 -2 0.5 -2.5t0.5 -1.5t1 -1q18 5 35 5q6 0 13.5 -1.5t7.5 -10.5l-17 -3q1 -2 2 -2.5
t2 -2.5q-1 1 -5 1t-10 -1t-15 -1q-30 0 -60 3.5t-60 6.5q-2 0 -2 -2l-3 2q-6 1 -13.5 1.5t-14.5 1.5t-12 4t-5 9q0 9 11 9l14.5 -3.5l14.5 -3.5q12 13 19 36t11 51.5t5.5 60.5t1.5 64v43t-1 40q-31 20 -57 20q-18 0 -35.5 -8.5t-35.5 -23.5q-1 -7 -10.5 -12.5t-17.5 -13.5
q0 -26 0.5 -57.5t2.5 -66.5t5.5 -71.5t9.5 -70.5q0 -3 -1 -4q3 -1 6.5 -1h5.5q5 0 13 2l2 1l18 -5q-4 -8 -11 -11t-15 -3q-19 0 -36 3.5l-33 7l-32 7t-34 3.5h-14q-10 1 -10 11q0 3 2.5 6t8.5 3q28 -4 55 -10t55 -11q-6 75 -10 148.5t-7 148.5l20 -2v-3q2 2 4 3.5t3 2.5
q-1 4 -1 8t-2 9v2q-3 15 -10.5 30.5t-19 27.5t-26.5 20t-32 8q-22 0 -41.5 -9.5t-36 -24t-31 -32t-26.5 -33.5l45.5 35.5t47.5 17.5q15 0 34 -10t27 -36l12 -1q-1 -14 -2.5 -41t-4.5 -59t-6.5 -65.5t-8 -60.5t-11 -44.5t-13.5 -17.5q-8 0 -8 9v4q18 58 26 112.5t8 111.5v32
l-3 -2q-7 9 -9.5 23t-4.5 16q-18 18 -36 18q-14 0 -27 -7.5t-25 -18t-23.5 -22.5t-21.5 -21q-5 -3 -7 -3q-1 0 -1 0.5t-1 0.5q-4 -54 -7 -104.5t-5 -104.5l9 4q5 -17 7 -34t10 -31h16.5t16.5 1l-1 -20q-5 1 -8.5 1.5t-8.5 0.5q4 -2 7.5 -6t3.5 -8q0 -9 -9 -9q-7 0 -10 4
l-6.5 9t-9.5 9t-19 4v-50q-3 -8 -10 -8q-3 0 -6 2.5t-4 7.5q0 12 0.5 24.5t1.5 24.5h-23v-8q0 -14 -2 -29t-10 -15q-3 0 -6 2.5t-4 7.5l2 21l2 21q-41 0 -84 -12h-4q-9 0 -9 8q0 7 8 12h2v2q60 4 94 41q4 27 7 54.5t5 54.5q-3 0 -6 2.5t-4 7.5v19q0 36 -5 69.5l-10 70.5h6z
M110 13l2 39l2 39q-9 -23 -24 -41q-1 -9 -1.5 -18.5t-1.5 -18.5h23zM128 52q-1 -10 -1 -19.5v-19.5h15q-4 10 -7 19.5t-7 19.5zM70 13q1 5 1 9.5t1 9.5l-12.5 -10t-14.5 -9h25zM88 238l-2 25t-4 27q1 -26 6 -52z" />
    <glyph glyph-name="n" unicode="n" 
d="M127 418v-1q1 0 3 2l5 -20q-12 -3 -14.5 -22.5t-2.5 -36.5v-13l16 22t18 22q-4 -2 -4.5 -2.5t-4.5 -0.5q-9 0 -9 8q0 6 5.5 10t13 7.5t16.5 6t17 4.5q6 5 12 9l13 9l5 -12q18 3 37 3q27 0 52.5 -8.5t45.5 -28.5l-15 -13q-16 22 -37 31t-44 9q-26 0 -45.5 -8t-34.5 -20
t-25.5 -27t-17.5 -28l13 -2q28 26 55 47t54 21q18 0 36 -12t37 -41q0 -2 0.5 -2.5t0.5 -1.5q0 -11 -10 -11q-2 0 -3 1q5 -24 7 -57t2 -69q0 -28 -1.5 -56t-3.5 -53.5t-5.5 -47t-7.5 -36.5q17 2 32.5 3.5t32.5 3.5q-5 15 -6.5 30t-1.5 30q0 43 9 87t9 96q0 14 -1.5 30.5
t-5.5 31t-11 25.5t-18 14q5 2 10 5l-17 5q4 4 4.5 6.5t5.5 2.5q13 0 22.5 -12t14.5 -27.5t7.5 -32t2.5 -25.5q-2 -43 -10.5 -89t-8.5 -91q0 -22 3 -42.5t11 -40.5l60 6q12 0 12 -10q0 -3 -2.5 -6t-7.5 -4q-8 0 -14.5 0.5t-13.5 0.5t-14 -0.5t-14 -0.5q2 -2 3.5 -6.5
t1.5 -6.5q0 -10 -9 -10q-7 0 -10.5 8t-5.5 14q-17 -2 -34.5 -3t-35.5 -3h-4q-4 -7 -11 -7q-5 0 -7 5q-5 -2 -8.5 -2h-8.5h-11h-6q-10 0 -20 1.5t-10 8.5q0 4 9 11t21 14l24 14t18 12l5 -8q8 29 11 63.5t3 69.5q0 45 -5 87t-15 74l12 4q-13 20 -26 28.5t-26 8.5
q-26 0 -52 -24.5t-50 -51.5q-3 -17 -3 -32q0 -8 2 -15t2 -14q0 -1 -0.5 -1.5t-0.5 -1.5l1 -1q0 -15 -4 -40.5t-4 -52.5q0 -20 1.5 -39t6 -35t11 -28t17.5 -17l-7 -11q3 -3 3 -7q0 -10 -12 -10q-17 4 -33.5 7t-33.5 3q-20 0 -40.5 -5.5t-43.5 -19.5l-8 18q4 2 7 3l-4 16
q16 3 27 13.5t17 25t8.5 32t2.5 35.5q0 17 -3.5 33t-3.5 29q0 14 1 28.5t1 28.5q0 15 -1 35t-3 38t-6.5 31.5t-11.5 16.5q-8 -8 -9 -10l-5 5q-11 0 -11 9q0 4 11 9.5t26.5 11.5t32 11.5t28.5 10.5v13zM101 300l4 45t2 45l-30 -10.5t-30 -12.5q10 -15 13.5 -38t5 -48.5
l3 -49.5t7.5 -41q1 -9 1 -19v-21q0 -20 -1.5 -40.5t-6.5 -40t-13.5 -36t-22.5 -27.5q17 5 35 6.5t36 1.5q14 0 27 -0.5t26 -1.5q-9 10 -14.5 28t-9 39t-4.5 44t-1 44q0 19 0.5 35t1.5 28v8q0 13 2 26t2 25l-10 10q2 2 4.5 4t4.5 4q0 3 -0.5 6.5t-0.5 6.5q-5 -8 -10 -18
t-5 -15v-11.5t1 -10.5q-3 -8 -10 -8q-3 0 -6 2.5t-4 7.5q0 5 0.5 9t0.5 9l-2 6q0 1 0.5 1.5t0.5 1.5zM284 -1l5 10t5 14q-11 -8 -23 -13.5l-25 -11.5h19t19 1z" />
    <glyph glyph-name="o" unicode="o" 
d="M70 342q-18 -11 -25 -38.5t-7 -62.5q0 -31 4.5 -63.5t10.5 -58.5l6 1q4 -45 30.5 -69t64.5 -29q-25 34 -39 77q-3 -3 -7 -3q-8 0 -10 15t-2 31v23q0 22 2 50.5t8.5 55.5t18.5 49.5t31 33.5q14 8 30 20t27 12q21 -1 38.5 -13.5t31.5 -32t25 -42.5t19 -45q1 7 9 7
q6 0 9.5 -8t5 -19t2 -22.5t0.5 -18.5q0 -50 -21 -95q29 29 48 62t19 78q0 15 -5.5 26t-6.5 25h1q-23 48 -60 75t-97 31v-1q-27 0 -51.5 -4t-45 -14.5t-36 -28t-24.5 -45.5q-5 -8 -12 -8q-8 0 -8 9v4q25 53 70 76t100 30v3q63 -8 107 -41.5t73 -84.5h3v-5q5 -8 12 -21.5
t7 -19.5q0 -9 -10 -9q-1 -41 -25 -83q7 -1 7 -11q-31 -60 -80 -99.5t-116 -50.5l-2 12q-1 -1 -3 -1q-43 1 -80 17.5t-59 50.5q-1 -1 -6 -1t-9.5 19.5t-8 48.5t-5.5 62.5t-2 62.5q0 45 6 65.5t26 31.5zM125 145v-11q0 -35 14 -62.5t41 -51.5h7v2l19 7q0 -3 4 -3q20 0 40.5 6
t34.5 17q-1 1 -1 2q0 5 11 14t18 14q14 21 19.5 44t5.5 46q0 7 -0.5 13.5t-1.5 14.5q-1 -1 -5 -1q-5 0 -8 7l-11.5 44.5t-20 55.5t-29 47t-38.5 20q-11 0 -16 -5q-4 -8 -12.5 -13t-18.5 -9.5t-20 -10t-17 -14.5q-18 -24 -25 -52.5t-7 -58.5q0 -16 1.5 -32t3.5 -31zM357 103
q-14 -17 -28 -31.5l-28 -28.5q34 22 56 60zM296 41q-4 -4 -11 -8q5 2 8.5 5t7.5 5q-2 -1 -4 -1q-1 0 -1 -1z" />
    <glyph glyph-name="p" unicode="p" 
d="M9 356q14 1 23 1.5t16 0.5q13 0 17.5 -7t12.5 -33l2 1q8 -28 10.5 -61t2.5 -68q0 -63 -5.5 -125.5t-9.5 -116.5l4 -1q-3 -3 -4 -10.5t-1.5 -15t-2.5 -13.5t-8 -6q-4 0 -5 1q-9 -18 -19 -34.5t-22 -32.5q20 2 46 3.5t52 1.5h16v18q-1 1 -2 1l2 2l-2 94.5t-1 94.5
q0 66 2.5 131.5t10.5 132.5l-3 4q0 -7 1 -8q0 -6 -3 -8.5t-6 -2.5q-10 0 -11 10v14q0 15 -1 31.5t-1 33.5q0 23 4 36l20 -5q-11 -20 -11 -45q0 -10 1.5 -20t3.5 -21q5 7 8 10t3 8l2 -1q55 81 101 81q20 0 40 -13.5t44 -41.5l5 14q18 -8 32 -29t23 -48t13.5 -55.5t4.5 -51.5
q0 -35 -11 -61.5t-26 -55.5q-2 -2 -2.5 -3t-2.5 -2q-23 -48 -55 -78.5t-75 -30.5q-16 0 -34 5t-37 16q-8 5 -13.5 15t-12.5 17v-47q0 -19 0.5 -40.5t1.5 -39.5t3.5 -29.5t6.5 -11.5q6 -5 6 -10q0 -9 -9 -9q-1 0 -1.5 0.5t-1.5 0.5v-3q41 -1 53 -13l-15 -13q-1 2 -11.5 4
t-26.5 4l3 -63q0 -6 -3 -8.5t-6 -2.5q-10 0 -11 10v66q-30 3 -58 3q-23 0 -39 -3.5t-35 -8.5q-2 -4 -8.5 -11t-13.5 -7q-9 0 -9 9q0 4 2.5 6.5l4.5 4.5v2q0 10 19 14q24 23 38.5 49t23.5 60q6 57 13.5 113.5t7.5 114.5q0 30 -3 60.5t-10 59.5q-4 4 -4 13l-3 12h3
q0 11 -3.5 23t-13.5 12q-8 0 -17.5 -6t-17.5 -8zM350 245q0 -48 -7.5 -92.5t-24.5 -73.5q-14 -23 -23.5 -37t-21.5 -22t-29.5 -10.5t-46.5 -2.5q-8 1 -12 7t-6 13l20 4q2 -6 15 -7.5t21 -1.5q29 0 48 19.5t30.5 50t16 66.5t4.5 69q0 25 -8.5 46t-22.5 35t-32 22t-36 8
q-17 0 -33.5 -5.5t-33.5 -15.5h-5q-11 -72 -14.5 -143.5t-3.5 -143.5l13 15q11 -11 15 -21t9 -15q17 -13 32.5 -18.5t29.5 -5.5q20 0 37 10t31 26.5t25.5 37.5t19.5 42q3 4 8 6q18 29 27 55.5t9 54.5q0 14 -3 35.5t-10 43.5t-18 41.5t-26 29.5q3 -5 5.5 -7.5t2.5 -5.5
q0 -4 -2.5 -6t-4.5 -4q1 -11 2 -25l2 -27.5t3 -24t6 -14.5h1zM325 362q-23 33 -41 47.5t-34 14.5q-23 0 -42 -24t-40 -56q-1 -1 -1 -5q30 13 59 13q31 0 58 -17t47 -39q-2 18 -5.5 33.5t-3.5 26.5q0 3 3 6zM121 414q-24 -2 -44.5 -11.5t-39.5 -23t-36 -30l-33 -32.5
q-4 -2 -7 -2q-9 0 -9 9q0 3 2 7q19 14 38.5 30t40 30.5t42 26t44.5 16.5z" />
    <glyph glyph-name="q" unicode="q" 
d="M296 8q2 8 5 11t3 14q0 23 -11 43q-2 -4 -4 -8.5t-5 -8.5l9 -4q-9 -13 -27 -25.5t-38 -22t-41 -16.5t-36 -9q-10 1 -10 9q0 4 1 5q-8 1 -17 2.5t-18 5.5q0 -8 -12 -8q-15 8 -27 16t-21 21.5t-15 36t-10 59.5q-2 2 -2 6q0 5 1 6q-1 7 -1.5 13.5t-0.5 13.5q0 14 2.5 25.5
t8.5 17.5l2 -2q9 45 24 80t46 64q-2 2 -2 5t8 8t19 11t24 12t22 11l1 -6q20 7 41.5 11.5t40.5 4.5q15 0 27.5 -3.5t20.5 -12.5q13 8 26 14.5t27 11.5l2 10q6 -4 12 -9t8 -9l-4 -2q0 -2 0.5 -3.5t0.5 -2.5t1 -2h3q-2 -10 -2 -9v-13q-1 -1 -1.5 -2t-2.5 -3q-11 -54 -15 -105
t-4 -103q0 -57 3.5 -112.5t6.5 -112.5l9 1q5 -38 10.5 -70t24.5 -66q0 -2 0.5 -2.5t0.5 -1.5q0 -10 -10 -10q-2 0 -6.5 2t-4.5 7q-24 9 -47 9q-6 0 -18.5 -1.5t-25 -4t-22.5 -6.5t-11 -8l-3 3q-3 -1 -6.5 -2t-7.5 -1q-9 0 -9 8q0 5 3.5 9t14.5 4q25 30 34 62t9 67
q0 9 -2 12.5t-4 14.5l2 10l2 10q0 5 -0.5 10t-1.5 10zM243 39q-30 3 -55.5 12t-52.5 27q-4 4 -4 8q0 9 10 9h4q23 -22 41 -30.5t44 -8.5q6 0 12.5 0.5t14.5 1.5v-5q8 4 16 15.5t14.5 27.5t10.5 34.5t4 37.5v21h-3q-8 0 -9 10q1 9 2 19.5l2 21.5q-1 4 -1.5 7t-0.5 7t4 8v7
q-4 4 -4 8q1 7 1.5 13t0.5 12q0 10 -1.5 24t-6.5 20l-9 -3q-5 18 -19.5 24.5t-31.5 6.5q-14 0 -28 -3t-25 -5q-8 0 -9 6q-26 -14 -39.5 -29t-23.5 -42q3 -3 3 -8q-8 -21 -14 -45.5t-6 -48.5q0 -28 10 -53.5t35 -42.5l-10 -17q-27 24 -38 57.5t-11 68.5q0 11 1.5 24t3.5 27
q-4 4 -4 7q0 7 4.5 17t11 20.5t13 19.5l10.5 15q-23 -18 -35.5 -39.5t-19.5 -47.5t-9.5 -56.5l-5.5 -65.5q-1 -1 -1.5 -2t-2.5 -3q2 -32 8.5 -57t29.5 -42l15 9q9 -17 22 -23t27 -6q20 0 33 5q9 0 11 -8q17 3 34.5 9.5t31.5 17.5q-4 0 -7 3zM359 403q-17 -1 -35.5 -13.5
t-29.5 -21.5q9 -11 12 -30h4q-1 -1 -1 -5.5t-1 -10.5q2 -10 3 -21.5t1 -22.5q0 -3 -1 -4v-16q3 -4 4 -17.5t1 -27.5v-27q0 -26 -3.5 -50.5t-12.5 -47.5l6 4q7 -14 9.5 -29t2.5 -32q0 -54 -5.5 -110t-31.5 -105q19 4 37 6.5t36 2.5q7 0 14 -0.5t14 -1.5q-6 23 -10.5 45.5
t-10.5 45.5q-1 -1 -5 -1q-3 0 -6 2t-4 7q0 63 -2 123t-2 123q0 60 3.5 117.5t13.5 117.5zM193 387q20 0 41.5 -1.5t38.5 -10.5l1 1l6.5 4.5t7.5 4.5l-2 5q-18 6 -37 6q-14 0 -28 -2.5t-28 -6.5zM292 367q-2 -1 -2.5 -2t-1.5 -2v-1z" />
    <glyph glyph-name="r" unicode="r" horiz-adv-x="290" 
d="M162 347q-23 -29 -27 -62q0 -10 1 -19t2 -19q5 -3 5 -10l-5 -47.5t-3 -60.5q0 -35 7 -67t29 -46q5 -4 11.5 -4.5t12.5 -2.5l-7 -19q1 -1 1 -5q0 -9 -13 -9l-50.5 19t-53.5 10q-12 0 -24 -3l-6 -2q-2 -8 -3 -17t-9 -9q-3 0 -6 2.5t-4 7.5q0 2 0.5 5t0.5 5q-12 -5 -21 -6
l-2 20q13 0 27 3q12 66 22.5 130.5t10.5 133.5q0 19 -2.5 45t-10.5 38q-6 -6 -12.5 -13.5t-13.5 -14l-12.5 -11.5t-9.5 -5q-9 0 -9 9q0 5 11.5 14.5l20.5 17.5l-12 13q14 14 26 14q8 0 12 -4q20 18 41 33t46 23l5 -20q-25 -4 -45 -16t-38 -29q8 -12 12 -29.5t4 -31.5
q0 -75 -9 -146.5l-18 -146.5q2 1 12 1q32 -1 58 -6t46 -10v1q-12 8 -19.5 25.5t-12 40t-6 48t-1.5 49.5q0 18 0.5 34.5t1.5 28.5q-4 4 -4 8q1 14 1.5 26.5t1.5 26.5l-7 2q10 23 8.5 48t1.5 50l20 -2q-3 -14 -5 -26.5l-4 -24.5q24 37 62 65t78 28q8 -3 8 -11q0 -4 -1 -5
q15 -17 15 -37q0 -11 -4.5 -22.5t-12 -21t-18 -16t-23.5 -6.5q-9 0 -17.5 4.5t-17.5 10l-18 10.5t-18 6q-1 0 -3 -2zM260 408q-26 -2 -48.5 -15t-39.5 -33q10 0 19 -6t18 -13.5t18 -13.5t19 -6q19 0 28 15.5t9 29.5q0 7 -3.5 14.5t-8 13l-8 9.5t-3.5 5z" />
    <glyph glyph-name="t" unicode="t" horiz-adv-x="240" 
d="M138 365q-5 -17 -5 -41.5t-1 -42.5q-1 -17 -1.5 -35t-0.5 -37q0 -47 10 -92.5t44 -77.5q0 -2 1 -2q5 3 11.5 8.5l12.5 10.5t11.5 9t8.5 4q9 0 9 -9q0 -4 -3 -8q-26 -20 -53.5 -33.5t-50.5 -13.5q-15 0 -27.5 6.5t-20.5 22.5q-6 0 -10 12.5t-7 31.5t-4 43l-2 47t-1 42.5
v29.5q0 21 0.5 42.5t0.5 42.5q0 6 -0.5 16.5t-1.5 23.5q-12 -1 -23 -2.5t-23 -1.5q-11 0 -18 4q1 0 1 0.5t1 0.5l-12 12l3 3q4 4 8 4q5 -2 9 -3t8 -3q11 0 23 0.5t23 0.5q0 8 0.5 14.5t1.5 13.5l-15.5 -13.5t-14.5 -8.5q-10 0 -10 10q0 6 14.5 15t28.5 20q1 6 5 12l5 -3
q19 17 33.5 41t16.5 54l20 -2l-4 -12l-4 -12h4q-2 -30 -5.5 -62t-8.5 -65q32 1 63 4t63 10q12 0 12 -10q0 -6 -10.5 -9t-26 -4.5t-33.5 -2t-33 -0.5h-23q2 -2 2 -5h-1zM90 73q2 -32 13 -44.5t27 -12.5q18 0 38 11q-17 18 -27.5 41.5t-16 49.5t-7 54t-1.5 55q0 22 0.5 42
t0.5 37l-4 -49t-2 -48q0 -42 6 -82t21 -77q0 -2 0.5 -2.5t0.5 -1.5q0 -10 -10 -10q-9 0 -14.5 16t-8.5 37t-4 42.5t-1 32.5l2 51.5t3 51.5l6 102q-10 -1 -19.5 -1.5t-18.5 -1.5q-1 -22 -2 -37.5t-1.5 -28.5t-0.5 -25v-27q0 -89 16 -175h4zM118 476q-8 -11 -15.5 -19.5
t-13 -18t-9.5 -23t-5 -34.5h18.5t19.5 1q2 23 3 46.5z" />
    <glyph glyph-name="u" unicode="u" 
d="M321 127q4 27 6.5 54.5t2.5 54.5q0 16 -1 42t-7 50t-18 41.5t-34 17.5q-7 0 -12.5 -2.5t-18.5 -4.5l-2 15q-2 0 -4 -0.5t-4 -0.5q-5 1 -7.5 4t-2.5 6q0 7 5.5 8.5t12.5 1.5h9q27 0 54 -2.5t53 -2.5h10t10 1l-1 -7q6 -14 6 -36q0 -38 -7 -78t-7 -94q0 -42 7 -77t27 -53
q5 -4 11 -5t11 -3q13 9 24 9q5 0 6 -1l-7 -19q0 1 -1 1q-9 -2 -22.5 -7.5t-28.5 -13t-29.5 -16.5t-26.5 -18q-13 0 -13 10q0 5 8 9.5t18.5 9t21.5 8t17 6.5q2 2 5.5 3.5t6.5 3.5q-10 3 -14 10q-24 44 -28.5 91t-4.5 96v23q-6 1 -6 9q0 5 2 11t4 13v29q1 9 8 9q4 20 4 37
q0 13 -5 21q-17 2 -33 4.5t-33 3.5q2 -2 4 -2q15 -8 23 -23.5t12 -33.5t5 -36.5t2 -32.5q1 -13 1.5 -25.5t0.5 -25.5q0 -54 -6.5 -106t-14.5 -106q-2 -5 -6 -6.5t-8 -1.5h-2q-9 0 -10 10q1 7 1.5 13.5t0.5 13.5v13v14q-6 -9 -10.5 -18.5t-10.5 -9.5q-5 0 -10 8
q-66 -48 -113 -48q-67 0 -91 96l-6 -2q-8 0 -9 10q1 14 4 35.5t6 47t5.5 53t2.5 52.5q0 40 -7 61.5t-31 32.5l2 4h-36q-10 1 -10 11q0 3 2.5 6t8.5 3h132l1 -9l15 -1l-8 -95.5t-4 -94.5q0 -35 3.5 -70t12.5 -70l4 1q4 -20 18.5 -28.5t32.5 -8.5q17 0 30.5 10t26.5 22
q4 3 8 3h3q2 3 7 14.5t13 11.5q3 0 8 -3q5 9 9 19.5l9 22.5zM58 386q10 -11 13 -39.5t3 -64.5q0 -42 -2.5 -84t-4.5 -71l7 1q4 -63 24 -92.5t52 -29.5q16 0 43 11h-5q-21 0 -37 13q-3 -4 -7 -4q-9 0 -14.5 21.5t-8.5 50.5t-3.5 58t-0.5 43q0 48 2 93.5t2 93.5h-63zM313 75
q1 6 1.5 12t2.5 13q-4 -6 -7.5 -12t-5.5 -11z" />
    <glyph glyph-name="v" unicode="v" horiz-adv-x="430" 
d="M2 396q-1 1 -1 5v2q0 12 9 12q7 0 11 -5.5t6 -11.5q33 2 66 3.5t66 4.5l1 6q6 -2 12.5 -3.5t6.5 -6.5q0 -3 -4 -7v-7h-11q-6 -4 -11 -7t-10 -8q8 -64 34.5 -124t58.5 -117q-2 6 -2 5q0 1 0.5 1.5t0.5 1.5q17 46 41 86t42 85q5 12 9.5 25t4.5 26q0 5 -1 9.5t-6 9.5
q-5 0 -9.5 -0.5t-9.5 -0.5v7l-12 9q7 10 17 10v2q19 -3 38 -3q13 0 26 2t27 7q6 0 10 -4q0 1 1 1q2 0 3 1l5 -20q-2 -2 -4 -2v-3q0 -5 -4 -7.5t-16 -2.5q-19 -17 -31 -41.5l-23 -47.5q-16 -33 -28.5 -68.5l-26 -71.5t-29 -71t-36.5 -66q-5 -5 -10 -5l3 -6q0 -2 0.5 -2.5
t0.5 -1.5q0 -10 -10 -10q-3 0 -9 11t-12.5 26t-12.5 31t-9 27l-70.5 150.5t-76.5 147.5h-1q-5 -1 -11 -1.5t-11 -1.5q-5 1 -7.5 4t-2.5 6q0 7 8 10h10zM190 74q1 -1 1 -5q0 -3 -1.5 -4.5l-3.5 -3.5q3 -11 8.5 -21t10.5 -21q11 11 20 29l17 33q-1 1 -1.5 2t-1.5 2
q-28 63 -60 127.5t-50 132.5v-7q-5 -8 -12 -8q-8 0 -8 9q0 8 4.5 16.5t9.5 13.5v4l4 1q3 4 7 7t8 7q-27 0 -54 -1.5t-54 -5.5l73 -147.5l75 -144.5l1 -1q4 -10 7 -14zM255 135q-5 -8 -12 -8q-4 0 -7 4q4 -8 8 -15l8 -14q16 34 30 72l28 75t29.5 70.5t34.5 58.5q-8 0 -16 1
t-16 1l4 -10.5t2 -10.5q0 -13 -5 -26t-12 -26t-15 -25.5t-13 -23.5q-15 -30 -27.5 -60.5t-20.5 -62.5z" />
    <glyph glyph-name="w" unicode="w" horiz-adv-x="630" 
d="M158 384l3 -4q-2 -1 -2.5 -2t-2.5 -2v-2l-9 -3q-1 -7 -1.5 -13t-0.5 -13q0 -31 8 -62.5t20 -62t27 -59.5l30 -56q25 54 54 108q2 4 6 13t8.5 18t10.5 17t12 11l-17 35.5t-18.5 34t-20 27t-20.5 13.5l-21 -6h-4q-9 0 -9 8q0 13 22 13l4 10l8 -4l8 -4q6 1 12 1h12
q27 0 48 -8l1 3q6 -3 20 -4t30 -1q10 9 20 9q2 0 10 -2l-2 -5q14 2 25.5 2.5t15.5 1.5q8 -3 8 -10q0 -3 -2 -6t-7 -4q-22 2 -44 6l-1 -4q-1 1 -6 1q-8 0 -12.5 -10t-4.5 -26q0 -23 9 -53t24 -62t33 -63t36 -56q14 60 26.5 119.5t35.5 107.5h-1q1 8 1.5 13t0.5 10q0 10 -7 10
q-4 0 -10.5 -4.5t-17.5 -4.5q-9 0 -9 8q0 7 8 12v6q3 -1 15 -1q20 0 40.5 4t37.5 15l2 -4q5 2 9.5 3t9.5 3q12 0 12 -10t-10.5 -10.5t-18.5 -1.5q-14 -8 -24.5 -20t-19.5 -26q0 -2 0.5 -2.5t0.5 -1.5h-3q-14 -24 -23.5 -53t-17 -59.5t-13.5 -61.5t-12 -58q-1 -2 -1 -4t-1 -4
q2 -2 5 -5.5t3 -6.5q0 -11 -10 -11q-2 0 -3 1q-8 -30 -17 -60.5t-23 -53.5q-1 -1 -1 -2t-1 -2l-2 -2q-4 -4 -9 -4q-4 0 -8 3q1 0 1 -0.5t1 -0.5q-4 4 -4 8q0 6 5 9q16 21 27 51.5t20 65.5q-21 35 -37.5 71.5l-26.5 57.5l-33 68t-18 71q0 15 11 29l-19.5 -4t-18.5 -2
q-8 0 -11 1l-1 -2q-16 13 -39 13h-8q17 -17 32.5 -46t29.5 -65t27 -76.5l25 -79l23.5 -73t22.5 -59.5q0 -2 0.5 -2.5t0.5 -1.5q0 -10 -10 -10q-7 0 -18.5 32.5t-24.5 77.5l-26.5 92t-24.5 77l-2 -2q-11 -11 -23 -29.5t-24 -41t-22.5 -46.5t-17.5 -45q2 -2 3.5 -6.5t1.5 -6.5
q0 -11 -9 -11q-3 0 -4 1q-2 -6 -4 -14.5t-4.5 -16t-6 -12.5t-9.5 -5q-8 0 -8 9q0 5 2.5 12t6 15l7 15.5l6.5 13.5q-10 21 -26 57.5t-31.5 77t-26.5 79t-11 62.5q0 12 3 20v1q-15 4 -35 4q-21 0 -50 -8q30 -44 48.5 -94l36 -101t37.5 -101t52 -94v-4q0 -10 -9 -10q-4 0 -8 4
q-26 40 -45.5 95l-38 111.5t-40 107t-51.5 80.5q-7 -2 -19.5 -8t-19.5 -6q-9 0 -9 8q0 11 12 13.5t22 5.5l-2 19h2q9 0 22 -13q55 11 96 11q11 0 19 -4h1l10 -2zM553 359q3 5 6.5 9.5l7.5 9.5q-6 -2 -11.5 -3l-11.5 -2q7 -9 9 -14zM326 254q0 1 1 2l-2 6z" />
    <glyph glyph-name="x" unicode="x" 
d="M193 386l1 -4q-7 -1 -15 -2.5t-13 -7.5q2 -30 21.5 -54.5l37.5 -46.5q23 -28 44 -57t44 -57l57.5 -65t55.5 -66q1 -1 1 -6q0 -8 -10 -8h-4q-6 3 -7 7q-24 35 -52 68t-54 67l-46 60.5t-48 59.5l-18 20.5t-19 24t-15 25t-6 23.5q0 14 13 24h-12q-22 0 -45.5 -5t-46.5 -13
q42 -40 76.5 -86l69.5 -91l43.5 -55l43.5 -54q4 -1 11.5 -11l16.5 -22.5l18 -25.5t16 -21q11 1 21 1.5t21 0.5q31 0 48 -4l-7 -19q-11 5 -26.5 6.5t-33.5 1.5h-13l16.5 -21t10.5 -21q0 -10 -9 -10q-4 0 -9 6t-10.5 14t-10 16.5t-8.5 13.5q-14 -2 -30.5 -7t-27.5 -5
q-9 0 -9 8q0 6 5 9t13.5 4.5t18.5 2t20 2.5l-16.5 23l-16.5 24q-2 -21 -10 -39.5t-26 -18.5q-8 0 -18 5l10 17q7 -6 14 -6q8 0 11.5 9.5t3.5 22.5q0 19 -5 32v5q-35 48 -72 94l-75 91l-46 52t-49 49q-18 -6 -36 -13t-32 -7q-9 0 -9 8q0 6 5.5 9t14.5 5t20 4t23 6
q-3 2 -6.5 5t-6.5 5l10 17l12.5 -10.5l12.5 -10.5q31 9 65 16.5t60 7.5q16 0 29 -5zM110 98q21 23 39.5 47l33.5 44l14 -14l-40.5 -41l-41.5 -41l2 -1q-2 -8 -4.5 -15.5t-2.5 -15.5q0 -17 9 -30.5t18 -25.5q1 -1 5 -1t8 -1t7 -3t3 -6q0 -6 -6 -9v-3q0 -10 -9 -10q-5 0 -10 6
t-8 14q-12 5 -26 9.5t-27 4.5q-14 0 -31.5 -9t-31.5 -9h-4q-5 -4 -12 -8t-12 -4q-9 0 -9 8q0 11 17 16q-1 0 -1 1l10 4q24 13 48 33t47 43q0 11 8 25zM286 412q2 -1 4 -1q1 0 2 -1q1 4 9 4q36 -12 72 -12q15 0 26.5 5t21 11l17.5 11t15 5q8 0 8 -10q0 -9 -14.5 -14
t-25.5 -12l-10 -9q0 -2 2 -2q-2 0 -4.5 0.5t-4.5 0.5q-29 -17 -58.5 -39t-51.5 -46l-3 -6q-16 -16 -22 -31l-18 8q3 5 12 16t19 25t17.5 28.5t7.5 27.5q0 18 -25 21zM79 17q9 -1 18.5 -3l18.5 -4q-8 15 -14 31t-7 32q-15 -16 -29 -32.5t-30 -30.5q11 2 19.5 4.5t19.5 2.5h4z
M381 390q-17 1 -33.5 1.5t-33.5 1.5q6 -9 6 -21q0 -14 -8 -35q16 14 34 27.5z" />
    <glyph glyph-name="y" unicode="y" horiz-adv-x="420" 
d="M167 392l-9 -3q-20 -9 -20 -30q0 -5 2 -15q15 -51 39.5 -93.5l52.5 -87.5v-3q0 -6 -1 -7q8 -16 19 -27q13 22 23 49.5t17 62.5q3 6 10 6l6 -2q3 10 4 15t3 11.5t8 19l19 38.5h-4q0 17 -3 37t-12 31q-5 1 -10.5 1.5t-10.5 0.5v4q-5 -1 -13.5 -7.5t-13.5 -6.5q-10 0 -10 10
q0 4 5 8t11 6t12.5 3.5t9.5 1.5v1q22 -4 43 -9.5l42 -10.5q7 7 15 7q10 0 16 -13q6 -1 15.5 -1.5t18.5 -1.5t15.5 -3.5t6.5 -7.5q0 -3 -2 -6t-7 -4q-17 2 -32.5 5.5t-31.5 7.5q-16 -9 -26 -21.5t-18 -29.5l-1 -1q-9 -17 -19 -41.5t-20 -54l-20.5 -62l-20.5 -65.5
q3 -4 4.5 -4.5t1.5 -3.5q0 -10 -11 -10q-4 -13 -8.5 -33t-9.5 -39.5t-10 -34.5t-9 -17q-16 -42 -40.5 -75t-66.5 -64l-32 -21.5t-40 -13.5q-11 0 -19.5 6t-14.5 14.5t-9 18t-3 17.5q0 29 22 52.5t57 23.5h8q9 0 13 -2l-1 -3q13 -5 21 -12q0 2 1 2q17 20 33.5 48.5t20.5 73.5
l5 -2q-5 51 -22 97.5t-42 89.5t-56 83t-64 78q-6 -1 -11 -1h-9q-5 1 -7.5 4t-2.5 6q0 7 8 10h6l-6 6l-2 6q0 10 9 10q6 0 12.5 -8.5l11.5 -15.5h43q25 0 48 1.5t36 8.5q10 13 23 13q7 0 14 -4zM209 165l-46 88.5t-37 91.5q-2 10 -2 13q0 7 5 24q-22 -4 -50 -6t-52 -3
q31 -39 60 -80t53.5 -84.5t42.5 -90t26 -95.5l-9 -1h3q-3 -11 -10.5 -33t-17.5 -44t-20 -38.5t-18 -16.5h-3q0 -2 -5 -15l-14 14q0 9 -10 13l-1 -4q-11 3 -22 3q-12 0 -19 -5t-16 -13q-6 0 -7 1q-17 -20 -17 -43q0 -14 8.5 -27t25.5 -13t34 10.5t27 18.5q54 40 79 89.5
t36 115.5q8 13 12.5 28.5l10.5 34.5l-2 2q-2 -3 -3.5 -6t-3.5 -6l-14 14q2 2 4 4.5l5 6.5l-21.5 26.5t-15.5 24.5zM352 348q10 18 24 37q-10 2 -20 3.5t-20 3.5q5 -9 9 -20.5t7 -23.5z" />
    <glyph glyph-name="z" unicode="z" horiz-adv-x="390" 
d="M-32 -8l131 179.5t140 173.5q3 6 5.5 12t5.5 12q-23 8 -45 11t-45 3q-14 0 -30.5 -1.5t-33.5 -3.5l1 -4q-17 -2 -26 -16t-15 -30.5t-10 -29.5t-11 -13q-8 0 -9 7l-8 4q15 21 15 47q0 19 -6.5 38t-14.5 36q0 13 9 13t12.5 -15l6.5 -27l1 16q26 -1 51 -1.5t50 -0.5
q57 0 111 3t111 11q11 0 11 -10v-2l11 -10q-25 -20 -43.5 -45.5l-37.5 -51.5q-45 -63 -85 -126.5l-79 -129.5l-3 -3q31 -2 61 -3.5t61 -1.5h24t24 1q13 2 22 11.5t14 22.5t7 27t2 25q0 5 -0.5 9.5t-0.5 7.5q1 5 4 7.5t6 2.5q10 0 10 -12q-1 -5 -1.5 -10.5t-1.5 -11.5h7
q-2 -19 -3.5 -36.5t-1.5 -34.5v-13.5t1 -13.5q2 2 8 3q12 0 12 -10q0 -6 -7 -10l-12 -3q0 -1 1 -2q0 -11 -10 -11q-3 0 -6 2t-4 7q-39 -9 -78 -9q-28 0 -54 3.5t-50.5 7.5l-48 7.5t-46.5 3.5t-45 -4.5t-45 -15.5v1q-5 -5 -6 -7t-5 -2q-10 0 -10 10zM279 362v-3l-9 3
q-3 -4 -6 -8.5t-7 -9.5l4 -4q-15 -15 -30.5 -37t-29.5 -46.5t-26 -49.5l-22 -47q-3 -5 -8 -5q-10 0 -10 13l31 52l31 52q-54 -61 -100.5 -125.5t-91.5 -133.5q14 5 28.5 6.5t28.5 1.5q25 0 51 -4t51.5 -9t50.5 -9t50 -4q23 0 45 4t45 11l2 29.5t1 28.5q-7 -18 -17.5 -33
t-27.5 -21l-4 16l-1 -16q-57 3 -110 7t-110 4q-11 0 -20.5 -0.5t-19.5 -0.5q-10 1 -10 11q0 3 2.5 6t8.5 3q20 -2 38.5 -3l38.5 -2q-4 4 -4 7q0 1 0.5 1.5t0.5 1.5l67 96.5t65 98.5l48 78.5t56 72.5q-33 -2 -66.5 -3t-66.5 -3q6 -1 16.5 -2.5t21 -4t18.5 -5.5t8 -8
t-2.5 -5.5t-7.5 -5.5zM66 375q-6 1 -6 7v3q-5 0 -9.5 -0.5t-9.5 -0.5q2 -11 3 -21l2 -20q11 20 20 32z" />
    <glyph glyph-name="braceleft" unicode="{" horiz-adv-x="420" 
d="M188 9q4 19 6.5 38.5t2.5 39.5q0 10 -2 23t-6 24.5t-10.5 19t-15.5 7.5q-3 -3 -6 -3t-8 5l-1 1q-3 0 -4 1l1 4q-11 13 -22.5 20.5t-28.5 7.5v9q-5 2 -12 3.5t-13 3.5t-10.5 5t-4.5 8q0 9 11 9q26 -10 52 -21.5t53 -21.5v1q9 -2 17 -6.5t14.5 -9t11 -8.5t5.5 -5
q29 -26 41.5 -52.5t12.5 -59.5q0 -5 -0.5 -14t-2 -17.5t-5 -15t-9.5 -6.5q-4 0 -5 1q-7 -9 -9 -24t-2 -26q0 -30 13 -55t35 -48q13 -4 38 -4h13q12 0 12 -10q0 -3 -2.5 -6t-7.5 -4q-16 0 -32 3q1 -1 1 -5q0 -10 -9 -10q-7 0 -13.5 9t-11.5 15q-19 7 -37.5 18.5t-33.5 27
t-24 34.5t-9 40q0 14 5 27.5t5 27.5zM133 229q30 5 51.5 23.5t35.5 42.5t20.5 50t6.5 46v17q-4 -4 -8 -4q-7 0 -10 10q2 22 4.5 46.5t8.5 48t16.5 44.5t27.5 36q-29 -5 -48.5 -22t-32.5 -41.5t-20 -53.5t-10 -57l13 5q9 -30 9 -55q0 -39 -19 -71.5t-53 -64.5q-4 -2 -7 -2
q-9 0 -9 9q0 3 2 7q35 25 54 50t19 57q0 21 -11 52q-1 -9 -1.5 -18t-0.5 -17q0 -13 0.5 -24t1.5 -22q0 -6 -3 -8.5t-6 -2.5q-10 0 -11 10q0 39 4.5 78t16 75.5t32 69t52.5 57.5q8 7 19.5 7.5t22.5 3.5l2 -10q5 2 10 5t12 5l5 -20q-23 -4 -37.5 -16.5t-23.5 -31t-13 -40.5
t-5 -44h3q7 0 8.5 -4t1.5 -11v-6q0 -33 -6 -69.5t-20.5 -68.5t-38.5 -56.5t-60 -34.5zM253 31q5 20 5 35q0 22 -15 51t-58 51q13 -12 17.5 -37t4.5 -54q0 -24 -2 -48t-5 -43t-6 -31t-6 -13q7 -31 26 -52.5t45 -32.5q-33 46 -33 98q0 20 4 35q2 11 8.5 21t6.5 21z" />
    <glyph glyph-name="bar" unicode="|" horiz-adv-x="160" 
d="M82 81q1 16 1 32v32q0 102 -13 201.5t-21 201.5q-10 10 -10 29q0 15 7 33v5h2q7 16 17 27t23 11q14 0 21 -13t7 -28v-6q0 -7 -2 -10q-3 -108 -6.5 -211t-3.5 -209q0 -25 -0.5 -50.5t-0.5 -52.5q0 -60 4.5 -122t21.5 -119q0 -11 -9 -11q-8 0 -13.5 17t-8.5 39.5t-4.5 46
t-2.5 35.5q-1 -1 -5 -1q-7 0 -8 10v1q-1 -1 -1 -4l-11.5 -40.5t-12 -47.5t-9.5 -51t-4 -50q0 -29 7.5 -52t26.5 -37q18 4 28.5 25.5t17 45.5t11 43.5t12.5 19.5q10 0 10 -12q-5 -17 -11 -40.5t-15 -44.5t-21.5 -35.5t-30.5 -14.5q-14 0 -22.5 10.5t-13.5 25.5t-7 32t-2 30
q0 60 14.5 119.5t25.5 116.5q-2 -10 -2 -9l1 -1q2 21 3.5 29.5t2 14t1 13t0.5 27.5zM101 620q-2 12 -9 21q-11 0 -18 -7t-12 -18h4v-28t1 -28q6 -3 6 -10q0 -8 -6 -9q4 -81 11.5 -161l14.5 -161q1 103 1.5 201t0.5 201z" />
    <glyph glyph-name="braceright" unicode="}" horiz-adv-x="420" 
d="M72 592v19l58 -9q26 -5 45.5 -21t38.5 -34q26 -26 36.5 -60.5t10.5 -73.5q0 -15 -1.5 -36t-4.5 -40.5t-8 -34t-12 -15.5q10 -26 28.5 -42l32.5 -29l6 2q9 0 9 -9q0 -4 -1 -5l-23.5 -27.5t-14.5 -19.5t-10.5 -22.5t-10.5 -36.5q-9 -32 -12 -72t-10.5 -78t-25.5 -70
t-58 -48q-15 -4 -32 -5.5t-27 -15.5l-6 -2q-10 0 -10 11q-1 0 -2 -1l-2 20q6 1 11.5 1.5t10.5 1.5q14 15 28 33.5t25.5 39.5t18.5 42.5t7 42.5q0 25 -12 48l17 10q0 -1 0.5 -1.5t0.5 -1.5q10 48 32 84t61 66q-38 15 -58.5 39t-37.5 54v-8q0 -12 -1.5 -20.5t-9.5 -8.5
q-3 0 -6 2.5t-4 7.5q2 22 6 53q-3 5 -6.5 10t-3.5 10q0 9 9 9q1 0 1.5 -0.5t2.5 -0.5q2 20 3 40t1 40q0 46 -10 84t-41 54q-10 5 -20.5 6t-21.5 3zM233 334q-3 -9 -3 -17q16 57 16 108q0 58 -28 99.5t-98 58.5q16 -9 27 -27t17 -42.5t8.5 -52.5t2.5 -56q0 -21 -1 -41.5
t-2 -38.5q9 -23 16.5 -38t16.5 -26.5t22 -19.5t33 -16q-18 22 -33 50.5t-15 53.5q0 8 1 10zM187 6q-3 -4 -6 -7q-3 -40 -23.5 -82t-45.5 -75q47 5 71 33t34.5 67t13 81.5t6.5 76.5q3 23 12.5 48.5t21.5 39.5q-26 -16 -42 -34t-25.5 -40t-13 -48.5t-3.5 -59.5z" />
    <glyph glyph-name="asciitilde" unicode="~" horiz-adv-x="480" 
d="M341 207q32 9 53.5 25t35.5 48l18 -8q-20 -30 -47.5 -50.5t-61.5 -36.5h7q17 0 33.5 3.5t35.5 14.5q1 1 6 1q3 0 5 -2q12 16 19.5 32.5t7.5 32.5q0 15 -9 27l15 13q9 -14 9 -33q0 -11 -5.5 -29.5t-13.5 -35.5t-17.5 -29.5t-16.5 -12.5q-9 0 -9 11q-24 -8 -50 -8
q-29 0 -57 9t-56 21l-56 25t-56 21q-5 1 -8.5 1.5t-8.5 0.5q-16 0 -30 -6.5t-25.5 -17.5t-18.5 -25t-8 -28l-20 2q1 25 25 52q-7 3 -7 9q0 4 4.5 10.5t11 13t13.5 12t12 7.5q31 10 71 10q54 0 107.5 -19.5t98.5 -49.5zM332 185q-6 1 -6 8t7 11q-16 13 -38.5 26.5t-48 24
t-52.5 17.5t-52 7q-49 0 -78 -29q23 14 42 14q2 0 4.5 -0.5t4.5 -0.5q27 -6 54 -18l54 -25t54 -23t55 -12z" />
    <glyph glyph-name="exclamdown" unicode="&#xa1;" horiz-adv-x="290" 
d="M133 274q0 -7 -0.5 -13.5t-0.5 -13.5l19 -2q-1 -6 -1 -12t-2 -11q2 -10 2.5 -19.5t0.5 -19.5v-37q0 -60 13 -120.5t29 -118.5q0 -10 -9 -10v-20q0 -16 -2 -31.5t-7 -28t-13.5 -20t-21.5 -7.5q-17 0 -30 13.5t-13 37.5q0 14 3 29q-7 1 -7 9v3l11.5 61t7.5 59l5 97
q0 43 -1 86t-3 88zM143 13v2q0 10 9 10q-5 31 -8.5 62t-7.5 62q0 1 -0.5 1.5t-0.5 1.5q-2 -9 -2.5 -18.5t-1.5 -18.5q-1 -60 -4 -119t-14 -119q-3 -3 -3.5 -8.5t-0.5 -10.5v-7q0 -20 5.5 -36t16.5 -16q14 0 22 12t11.5 26t4.5 26.5t1 14.5q0 20 -2 34t-5.5 28.5t-8.5 31
t-11 41.5zM214 333q6 -3 6 -9q0 -3 -2 -6t-7 -4q-21 4 -53 28q-12 -17 -25.5 -29t-28.5 -12h-4q-2 0 -4.5 2t-2.5 10q0 11 8.5 27t20.5 33q-15 15 -25.5 30t-13.5 27q0 9 12 9q11 0 24.5 -10t28.5 -24q12 14 23 23v2q1 9 8 9q5 0 6 -1q2 2 6 4l5 -20l-6 -3q-2 -9 -5 -20
t-8 -22l21 -21t19 -17zM103 311q13 0 24.5 11t20.5 28l-8 6t-7 6q-13 -16 -22 -28.5t-9 -20.5q0 -1 0.5 -1t0.5 -1zM130 385q2 2 4.5 5t4.5 5q-26 27 -44 32q4 -9 13.5 -20t21.5 -22zM151 383q-4 -4 -5.5 -6t-2.5 -3q3 -2 6 -5t6 -5q1 2 2 5t2 5q-2 2 -4 4.5t-4 4.5z
M169 362l-2 -6q5 -3 8.5 -6t8.5 -5q-4 4 -7.5 8zM167 400l-7 -7q3 -1 4 -4q1 3 1.5 5.5t1.5 5.5z" />
    <glyph glyph-name="cent" unicode="&#xa2;" horiz-adv-x="390" 
d="M293 49q5 8 8 16l6 16q-42 -20 -76 -20q-30 0 -58.5 14t-54.5 46q-2 -2 -6 -2q-8 0 -14 14.5t-10 33.5t-6 38t-2 27q0 58 28 114q-2 2 -2 4q0 5 4 5t7 9l2 -1q58 34 126 34q17 0 33.5 -2t33.5 -6l-1 -3q1 1 4 1q1 0 6.5 -4t10.5 -11.5t9.5 -17.5t4.5 -21q0 -9 -6.5 -18
t-15.5 -16t-19 -11.5t-17 -4.5q-24 0 -30 13.5t-8.5 30t-7.5 31t-27 16.5l2 9q-23 -3 -45 -11.5t-44 -25.5q-38 -59 -38 -109q0 -36 18 -78l6 1q0 -9 9 -19t9 -11q20 -31 44 -44t50 -13q23 0 45.5 8.5t43.5 22.5q5 16 6.5 32t1.5 35v14l20 -2q-2 -17 -4.5 -33t-6.5 -33l6 6
q4 3 8 3q9 0 9 -9q0 -8 -11 -14.5t-19 -12.5q-2 -8 -6 -20.5t-8.5 -24.5t-10 -21t-10.5 -9q-9 0 -9 9q-29 -24 -62 -24q-5 0 -19.5 2.5t-30 6.5t-27.5 10t-12 13q0 3 1 4q7 -2 15.5 -4t18.5 -3q14 -8 28 -13t28 -5q-2 -5 -9 -6q-33 4 -58 10t-45 17.5t-36.5 31.5t-32.5 53
l-17 36t-8 35q0 16 7 29l1 -1q3 25 11 54t22 55.5t34.5 47t47.5 27.5q0 -2 -4 -2l14 -14q-7 -5 -16.5 -6.5t-17.5 -7.5q-42 -29 -58 -69.5t-17 -88.5h3q-1 -3 -3 -7q0 -20 3 -39q0 -8 -4 -9q14 -54 41.5 -83.5t51.5 -37.5q2 5 9 5q5 0 12.5 -5t12.5 -7q5 -1 14.5 -1.5
t19 -1.5t16.5 -3.5t7 -8.5q0 -2 -1 -3q17 0 32.5 10t29.5 33zM308 372q-1 1 -1 3l-2 -5q-18 7 -35 10t-34 4q15 -13 21 -32.5t13 -39.5l4 2q4 -16 23 -16q14 0 24 8.5t10 22.5q0 15 -7 23t-16 20zM198 81q1 16 1 32v32q0 102 -13 201.5t-21 201.5q-10 10 -10 29q0 15 7 33v5
h2q7 16 17 27t23 11q14 0 21 -13t7 -28v-6q0 -7 -2 -10q-3 -108 -6.5 -211t-3.5 -209q0 -25 -0.5 -50.5t-0.5 -52.5q0 -60 4.5 -122t21.5 -119q0 -11 -9 -11q-8 0 -13.5 17t-8.5 39.5t-4.5 46t-2.5 35.5q-1 -1 -5 -1q-7 0 -8 10v1q-1 -1 -1 -4l-11.5 -40.5t-12 -47.5
t-9.5 -51t-4 -50q0 -29 7.5 -52t26.5 -37q18 4 28.5 25.5t17 45.5t11 43.5t12.5 19.5q10 0 10 -12q-5 -17 -11 -40.5t-15 -44.5t-21.5 -35.5t-30.5 -14.5q-14 0 -22.5 10.5t-13.5 25.5t-7 32t-2 30q0 60 14.5 119.5t25.5 116.5q-2 -10 -2 -9l1 -1q2 21 3.5 29.5t2 14t1 13
t0.5 27.5zM217 620q-2 12 -9 21q-11 0 -18 -7t-12 -18h4v-28t1 -28q6 -3 6 -10q0 -8 -6 -9q4 -81 11.5 -161l14.5 -161q1 103 1.5 201t0.5 201z" />
    <glyph glyph-name="sterling" unicode="&#xa3;" horiz-adv-x="520" 
d="M19 44q-4 11 -4 24q0 26 13.5 47.5t34.5 36.5q0 12 17 12h4q5 2 8.5 3t8.5 3q11 0 11 -10v-1q5 -1 8.5 -1h7.5q-6 12 -11 19t-9.5 11t-10.5 7t-13 8q-7 -3 -14.5 -4.5t-13.5 -6.5q-19 -17 -32.5 -48.5t-13.5 -63.5q0 -29 13 -48q5 -6 12.5 -9.5t13.5 -8.5l-10 -17
q-24 17 -33.5 31t-9.5 38q0 25 6.5 51.5t18.5 48.5t28 36t36 14q21 0 38 -18q5 -6 6 -11.5t12 -14.5q2 25 3 49.5t1 49.5l-8 -5q-8 14 -22.5 20t-31.5 6q-18 0 -35.5 -5t-28.5 -12v-5q-3 -8 -10 -8q-3 0 -6 2.5t-4 7.5q6 8 8.5 22.5t3.5 21.5q-3 3 -3 7q0 10 9 12t18 2h9
q25 0 50 -4.5l51 -9.5q-2 24 -3.5 48.5t-4.5 48.5q1 2 2 5t2 5q-7 2 -8.5 15t-1.5 24v8q-1 -3 -1 -7q0 -2 -1 -2l-6 30q5 5 8 11q3 29 17 51t48 30l1 -4q9 -1 18 -1h18h19t19 1v-2q5 0 10 -0.5t10 -2.5l-5 -8q9 -4 16 -9q5 1 10.5 1.5t10.5 0.5q28 0 48 -16t20 -45
q0 -10 -3.5 -26t-10 -31t-15 -26t-17.5 -11q-11 0 -17 5t-10 12t-5.5 15t-2.5 14h2v3q10 21 10 42q0 28 -20 45q-11 -3 -23 -9t-22 -6q-9 0 -9 8q0 10 9.5 11.5t18.5 5.5q-2 0 -3.5 0.5t-3.5 0.5l1 8q-37 0 -58 -24h4v-18.5t-1 -18.5v18q0 -32 -1 -50t-1 -32v-21.5t0.5 -25
t1.5 -35t2 -51.5q12 -2 24 -3.5t24 -1.5q37 0 67 13l1 17q10 -4 15 -8.5t7 -10.5t3.5 -13t4.5 -16q0 -10 -9 -11l2 -6q-2 -1 -10 -1q-19 0 -38 5t-36 5q-24 0 -54 -8q0 -14 -0.5 -24.5t-0.5 -20.5q0 -16 2 -31t8 -36q0 -11 -9 -11q-5 0 -8 3q1 -25 4.5 -48t11.5 -41v-5
q4 -2 8 -4.5t8 -4.5q1 1 4 1h1q72 -28 87 -28q7 0 7 6v4l-4 17q34 3 58 21.5t41 45.5q4 10 10.5 24l13 27t12 21.5t7.5 8.5q10 0 10 -12q-2 -4 -3.5 -7.5t-3.5 -7.5h1q-7 -7 -15.5 -24t-17.5 -39l-18.5 -47.5l-18.5 -49.5q3 -5 3 -8q0 -5 -6.5 -10t-15 -9t-17 -7t-11.5 -3
q-14 0 -27.5 8.5t-26 18l-24.5 18t-23 8.5q-3 0 -11 -2h10l-2 1q-2 1 -4 1.5t-4 2.5q-1 -2 -1.5 -2t-1.5 -1q-9 5 -24 10.5t-20 19.5l-3 3q-23 17 -34 33q-2 -7 -5 -12t-5 -10l8 -2q-7 -16 -17 -27l-12 -6q-19 -28 -49 -39l-1 4q-5 -2 -10 -2.5t-7 -1.5l-2 20q2 -1 15 -1v1
q8 0 15 2.5t12 6.5q-4 0 -10.5 1t-13 3t-11 5t-4.5 8q0 10 10 10q1 0 1.5 -0.5t2.5 -0.5q20 -14 34 -14q7 0 11 7.5l8 15.5q-8 0 -8 10q2 17 3 34t3 34q-2 4 -3.5 7.5t-3.5 7.5v-12q-10 2 -17.5 5.5t-15.5 5.5q-28 -5 -47 -24.5t-19 -45.5q0 -15 6 -28zM227 569
q-7 0 -13.5 0.5t-12.5 0.5q-34 -4 -46 -21.5t-12 -40.5q0 -17 3.5 -34t8.5 -34q0 -5 -4 -9q3 -28 5 -55.5t3 -55.5q11 -3 22.5 -5.5t22.5 -4.5l-4 105l-4 105l-3 -6q-3 -5 -8 -5q-10 0 -10 10q0 4 5.5 11t13.5 14.5t17 14t16 10.5zM173 116q5 -3 5 -10l1 -2q1 0 2 -1l-1 -1
q3 -4 10 -11.5t12 -13.5q-1 5 -1 10v10q0 11 0.5 21t0.5 21q0 29 -3 58.5t-5 58.5l11 -1v15q-4 3 -4 7q0 3 4 7v14q-11 2 -22.5 4.5t-23.5 4.5v-42q0 -63 -3 -123q3 -5 3 -8q0 -7 -3 -8q-1 -8 -1 -14.5t-1 -13.5q5 20 14 20q1 0 2 -0.5t2 -0.5l1 1v-2zM332 455
q-1 -1 -1.5 -2t-1.5 -2v-4q0 -3 2.5 -7.5t13.5 -10.5q15 8 25.5 29t10.5 42t-12.5 36.5t-38.5 15.5q-12 0 -15 -1q21 -26 21 -63q0 -20 -4 -33zM145 310q-20 4 -40 6.5t-40 2.5q-17 0 -35 -3q-2 -5 -4 -9.5t-4 -9.5q12 3 26 5t28 2q20 0 37.5 -4t31.5 -15v25zM349 28
q14 -15 21.5 -20.5t12.5 -5.5t10.5 8t10.5 19.5t9.5 24t8.5 21.5q-32 -35 -73 -47zM218 288q17 0 46.5 -2.5t53.5 -2.5h5q12 0 17.5 2.5t5.5 15.5q-29 -13 -66 -13q-15 0 -30.5 2t-31.5 5v-7zM141 0q-2 0 -3 -0.5t-3 -0.5l12 9l-2 -2q-1 -1 -1.5 -2.5t-2.5 -3.5zM346 302
q0 7 -2 9z" />
    <glyph glyph-name="currency" unicode="&#xa4;" 
d="M101 132q-10 -6 -14 -19t-5.5 -26t-3.5 -23t-9 -10q-4 0 -7 3q-1 -1 -4 -1l-8 4.5t-17.5 11l-19.5 13.5t-15 12l4 2q-6 3 -6 9q0 3 6 10l13.5 15.5l15 17t11.5 13.5q-16 25 -23 56.5t-7 64.5q0 39 8.5 75.5t25.5 62.5l13 -6q-6 6 -17 15l-22 18l-19.5 16.5t-8.5 9.5
q0 4 6.5 12t10.5 14q-3 3 -3 7q0 9 9 9h4q0 2 1 3l14 -14q-1 0 -1 -1q16 -14 27 -22t24 -15l-10 -17q-14 14 -26 24t-28 19q-5 -6 -7 -13q17 -20 37 -36.5t39 -35.5v-4q0 -10 -9 -10q-5 0 -9.5 6l-8.5 11q-17 -26 -28.5 -63.5t-11.5 -75.5q0 -27 7 -52.5t22 -44.5q0 1 1 2
l14 -14q-1 -1 -1.5 -1t-1.5 -1q5 -5 14.5 -10t9.5 -12q6 10 18 14l5 -20q-2 -1 -4 -1t-4 -1q10 -2 17 -10t15 -12q28 -9 53 -9t48.5 7.5t49.5 19.5q12 0 12 -10q0 -8 -14 -13t-32 -9t-35 -5.5t-22 -1.5q-39 0 -93 23h-4zM361 402l-9 3q6 11 15 19t17 16q12 13 17.5 25
t6.5 14q2 2 3.5 3t2.5 2l-10 10t-11 7q-6 -6 -14.5 -18t-16.5 -24.5t-15 -21.5t-10 -9q-9 0 -9 8l-2 -2q-25 25 -58 37t-68 12q-24 0 -41 -4l3 -11q-18 -3 -30 -10.5t-21 -24.5q-3 -5 -8 -5q-10 0 -10 10q0 6 12 15l20 15l-5 -2.5t-8 -1.5q-9 0 -9 8q0 7 9 11.5t22 7.5t27 4
t24 1q42 0 80.5 -11.5t70.5 -33.5q10 12 18.5 24.5l17.5 26.5q-4 3 -4 7q0 7 8 12q8 0 15.5 -4t14.5 -9l13.5 -10t14.5 -7l-7 -12v-1q0 -5 -1 -7q-13 -20 -30.5 -36t-22.5 -30q18 -23 27.5 -58t17.5 -61q0 -12 -9 -12q-4 0 -8 4v-14q0 -59 -29 -106l-16 11q14 19 23.5 47
t9.5 58q0 32 -14.5 60t-51.5 44q-7 3 -7 10q0 10 10 10q1 0 1.5 -0.5t2.5 -0.5q51 -29 65 -85q-3 24 -11 48.5t-28 33.5zM309 392q-14 4 -24.5 14.5t-24.5 13.5l-32 5.5t-29 2.5q-96 0 -118 -100l7 1q-1 -14 -1 -26.5v-23.5q0 -56 14.5 -82t64.5 -26q14 0 31.5 2t39.5 6
q12 0 12 -10q0 -5 -6.5 -7.5t-15.5 -4t-19.5 -2t-17.5 -0.5h-7q-35 0 -55.5 7.5t-32.5 23t-17 40t-8 58.5q-1 -1 -4 -1q-9 0 -10 10q5 33 15.5 60.5t29.5 47t48 30.5t71 11q22 0 40 -5t38 -16l15 -9zM213 151q64 3 106 30t42 80q0 26 -11 58q0 13 9 13q6 0 10.5 -9.5
t7.5 -21t4.5 -22t1.5 -13.5q0 -30 -17 -53.5t-42.5 -40t-55 -27t-53.5 -14.5zM412 109q11 0 11 -9q0 -5 -4 -8.5t-8.5 -7l-8.5 -6.5t-4 -6l-20 5l5 5h-4q-3 0 -5 2q-10 9 -16 17.5t-11.5 15t-12.5 10.5t-19 4l4 20q10 -4 20 -11.5t18 -15.5l15 -14.5t12 -8.5q5 -5 5 -10
q0 -3 -3 -6q5 4 10 8.5t9 10.5q-8 4 -18 10.5t-18.5 13t-14.5 11.5t-6 6q0 10 10 10q7 0 13.5 -5.5l13 -11.5t14 -11.5t16.5 -5.5zM15 105q6 -13 20 -18.5t26 -11.5q3 14 7 29t12 27q-8 0 -16 7t-13 13q-11 -11 -19 -22z" />
    <glyph glyph-name="yen" unicode="&#xa5;" horiz-adv-x="640" 
d="M371 258h14.5t14.5 1q12 0 12 -10q0 -3 -2.5 -6t-7.5 -4q-51 1 -106 11t-112 15q6 -20 8.5 -44.5t2.5 -50.5q9 0 18.5 0.5t18.5 0.5v87l16 -3q-2 -22 -3 -43l-2 -41h22h25.5t25.5 -1q15 2 32 3t32 1q25 0 36 -4l-4 -10q2 0 4 -2l-10 -17q-7 5 -19.5 8t-26 4.5t-25 2
t-17.5 0.5q-8 -1 -16 -1.5t-15 -0.5h-44q0 -27 3 -53.5t11 -52.5v-3q4 -4 14 -4q3 0 6.5 0.5t8.5 1.5q6 -3 6 -10q0 -1 -2 -7q2 0 3.5 0.5t3.5 0.5l1 -19q-41 3 -82 3h-27v-3q-3 -8 -9 -8q-7 0 -7 9v1q-15 -2 -30 -3.5t-30 -5.5q-9 1 -9 10q0 8 7 9.5t15 1.5l-5 1
q10 1 19.5 7.5t17 15.5t13.5 18.5t9 17.5q2 17 3.5 36t1.5 37q-4 0 -7 0.5t-6 0.5q-38 -5 -75.5 -11.5t-75.5 -17.5h-4q-9 0 -9 8q0 9 9.5 11.5t20.5 4.5q-3 0 -7 -0.5t-9 -1.5q-5 1 -7.5 4t-2.5 6q0 8 15 10t31 2h23q45 0 92 -3q2 1 12 1q0 14 -1.5 27.5t-3.5 27.5
q0 -11 -7 -11q-3 0 -7.5 6t-9 15t-8.5 18t-7 15q-35 -1 -67 -8t-61 -24l-8 18l16 10.5t18 7.5l21 3l-34 -2t-34 -3q-5 1 -7.5 4t-2.5 6q0 8 15 10t30 2h8q23 0 47.5 -1.5t49.5 -3.5l-29 71.5t-30.5 69t-38.5 65t-53 58.5q-4 -1 -7 -1.5t-7 -0.5q-8 0 -8 9q0 3 1 4l-3 17
q1 1 5 1q12 0 22 -10q45 2 87 3.5t87 5.5l1 -20h-8l2 -7q-16 -2 -25 -12.5t-12 -25.5q7 -30 20 -57.5t29.5 -53.5t35 -50l35.5 -46q29 54 54.5 108.5t42.5 114.5l3 -1q0 1 0.5 2t0.5 2q0 8 -10.5 13t-23.5 5q-6 0 -12.5 -2t-11.5 -2q-6 0 -7 4q-5 -1 -9 -2t-6 -1q-8 0 -8 9
q0 7 7 11q33 5 74.5 13t76.5 8q13 0 23 -3.5t22 -4.5l-1 -20h-4q-14 -15 -31 -25t-32 -27q-36 -43 -59.5 -95.5l-46.5 -106.5q-3 -4 -7 -4q-8 0 -8 12l52 106t61 97q13 17 26.5 27.5t27.5 23.5l-7 3q-12 4 -31 4t-39.5 -3.5t-40.5 -8.5q15 -5 25 -14t10 -25h2
q-19 -60 -48.5 -118t-55.5 -115q0 -3 -3 -7t-4 -7q20 0 42.5 2t54.5 2q15 0 28.5 -2t21.5 -9zM22 527q20 -26 36.5 -55t31 -60.5l29 -64l29.5 -63.5q37 -5 72 -6q0 5 7 13l-26.5 38.5l-29.5 45.5l-29.5 49t-25.5 48q0 -10 -7 -10q-8 0 -9 9q0 16 3 33q-1 2 -2.5 6t-2.5 7
l10 5q7 22 22 37q-11 1 -22.5 1h-22.5q-43 0 -86 -6q8 -8 14 -15.5zM238 61q-6 45 -6 93q-10 0 -19 0.5t-18 0.5q0 -15 -0.5 -29.5t-1.5 -28.5q6 0 6 -10q-7 -17 -8.5 -30t-1.5 -26v-9q23 0 45.5 0.5t45.5 1.5q-8 4 -15 6.5t-14 7.5q-1 -1 -3 -1q-5 0 -8 7.5l-6 15.5z
M174 22q0 13 3 30q-8 -9 -15.5 -15.5t-15.5 -14.5h28zM180 226q-2 10 -5 18.5t-7 17.5l6 4q-5 1 -8.5 1h-8.5l10.5 -20t12.5 -21zM279 264q43 -4 88 -6q-5 2 -15.5 3t-23 2t-26 1h-23.5z" />
    <glyph glyph-name="section" unicode="&#xa7;" 
d="M285 531q-2 -16 -4.5 -24.5t-2.5 -16.5q0 -7 4.5 -19t24.5 -19q11 10 17.5 26t6.5 33q0 22 -13.5 40t-41.5 18q0 -1 0.5 -1.5t0.5 -2.5q0 -8 -13 -8l-25.5 10t-27.5 5q-14 0 -25 -8l2 -7q-13 -5 -17 -18.5t-4 -28.5q0 -29 5 -48.5t13.5 -33t19 -22.5t21.5 -17l-13 -15
q-7 6 -14 11t-12 13q-13 20 -23 51.5t-10 61.5q0 6 0.5 11.5t1.5 10.5q-1 -1 -2.5 -3t-3.5 -4q-15 -19 -21.5 -38.5t-6.5 -39.5q0 -22 7 -43.5t18 -41.5l6 3l5 -19q3 -5 8.5 -11.5t5.5 -11.5q0 -10 -9 -10q-6 0 -11.5 8.5l-10.5 16.5l-6.5 -5t-4.5 -4l11 -2q-12 -33 -12 -59
t9.5 -47.5t26 -40.5t38 -36l45.5 -35q3 -5 3 -8q0 -9 -10 -9l-6 2l-46 42.5t-39 42.5t-27 47t-10 55q0 14 3 29q-10 -16 -13.5 -36t-3.5 -40q0 -21 3 -37q0 -11 -9 -11q-4 0 -5 1l-2 -8q0 -1 2 -7q11 -28 29.5 -48.5t41 -37.5t46 -32.5t45.5 -34.5t40 -43t28 -58v-2
q10 21 10 43q0 39 -34.5 68t-92.5 58q-4 4 -4 8q0 9 10 9h4l40.5 -26t33.5 -25q5 26 16.5 49.5t26.5 44.5q-2 43 -22.5 70.5t-64.5 58.5l-32 22t-26 29l17 10q9 -20 29 -36l42 -34.5t42.5 -42t30.5 -57.5q4 4 8.5 9t9.5 5q3 0 4 -1q1 3 1 6.5v6.5q0 24 -15.5 49t-37 47.5
t-44.5 40.5t-39 29q-4 4 -4 8q0 9 10 9h4q24 -19 48.5 -41t44.5 -47.5t32.5 -54.5t12.5 -61q0 -15 -6 -22.5t-13 -18.5l-11 4v-12q0 -11 -1.5 -21t-9.5 -10q-3 0 -6 2.5t-4 7.5q0 5 0.5 10.5t0.5 10.5q-13 -18 -19.5 -38t-6.5 -46h-3q19 -19 29.5 -39t10.5 -43
q0 -49 -51 -115l-14 14q13 15 23 29t17 28q-3 -3 -7 -3q-6 0 -6.5 2.5t-4.5 7.5q-2 -7 -5.5 -15.5t-8 -16t-9.5 -13t-10 -5.5q-9 0 -9 9q0 3 2 7q13 8 21.5 21.5t8.5 27.5q0 16 -10 26l3 2q-18 33 -46.5 56t-59 44.5t-58.5 46t-44 59.5q-2 2 -2 7v5q0 11 3.5 23.5t4.5 21.5
l4 -1q2 35 13.5 72.5t37.5 57.5q-11 21 -17.5 45t-6.5 49q0 24 7 46t22 41l17.5 23t26.5 18l3 3q9 6 22 8.5t20 2.5q11 0 24 -7q2 8 11 8q19 -5 27.5 -6.5t13.5 -4t10.5 -8t17.5 -18.5q8 -8 11 -25.5t3 -25.5q0 -26 -17 -44.5t-34 -18.5q-11 0 -22 12t-11 40q0 11 2 20.5
t2 20.5zM165 -145q-12 10 -12 34q0 11 1.5 22.5t1.5 22.5q0 17 -9.5 28t-23.5 11q-13 0 -20.5 -11t-7.5 -26t9.5 -31t30.5 -27q5 -5 5 -10q0 -9 -9 -9q-12 0 -21 9.5t-15.5 22t-9.5 25.5t-3 20q0 19 9.5 33t29.5 14q16 0 25 -4.5t13.5 -12.5t6 -18t1.5 -20v-17
q0 -13 1.5 -23.5t9.5 -17.5zM151 -142q1 -19 10 -26t23 -7t29.5 6t27.5 12q12 0 12 -10q0 -5 -7 -9t-16.5 -6.5t-20.5 -3.5t-18 -1q-20 0 -36.5 9t-23.5 32z" />
    <glyph glyph-name="dieresis" unicode="&#xa8;" horiz-adv-x="320" 
d="M172 488q-7 10 -7 24q0 20 14.5 41t33.5 32q0 8 8 9.5t18 1.5h12q15 0 25.5 -7t17.5 -17t10 -20.5t3 -16.5q0 -15 -7 -29t-18.5 -25.5t-25.5 -18t-28 -6.5t-30.5 10.5t-25.5 21.5zM257 560q-2 8 -4.5 11t-11.5 3q-26 0 -43.5 -20.5t-17.5 -43.5q0 -17 12.5 -30t41.5 -13
q10 0 21 6.5t19.5 16.5t14 22.5t5.5 24.5t-5 19.5t-16 15.5q1 -2 1.5 -2.5t1.5 -2.5zM25 497q-10 10 -10 27q0 12 5.5 22.5t14 19t19 13.5t21.5 5q28 0 38 -12.5t10 -26.5q0 -12 -5.5 -25.5t-15 -24t-21.5 -17.5t-25 -7q-9 0 -13.5 2.5t-7.5 6.5t-5 8.5t-5 8.5zM72 561
q-4 0 -9 5q-11 -2 -20.5 -12.5t-9.5 -27.5q0 -1 1 -8t3.5 -14.5t6 -14t9.5 -6.5q20 0 36.5 17t16.5 37q0 13 -9 24h-6l-1 -2q-1 0 -3 2h-15z" />
    <glyph glyph-name="copyright" unicode="&#xa9;" horiz-adv-x="670" 
d="M387 583q35 -15 68 -32t64 -40v1q24 -9 44.5 -36.5t35 -59.5t23 -62t8.5 -45v-9q0 -10 -1 -20t-6 -12q-10 -60 -35 -113t-63 -101q-4 -2 -7 -2q-4 0 -7 4q-40 -27 -82 -39t-90 -12q6 -3 6 -9q0 -3 -2 -6t-7 -4q-27 5 -52.5 13t-51.5 13q4 -4 4 -9q0 -9 -12 -9l-26 12
l-21 10t-20.5 11.5t-23.5 15.5q-32 25 -53 62.5t-34.5 79.5t-20.5 84t-11 75l20 1q1 -15 3.5 -29.5t4.5 -29.5v-8q2 33 9 71t19.5 74.5t30.5 67.5t42 50l11 9.5t11 8.5q22 9 50 15t58 10t59.5 6.5l53.5 4.5zM364 575q-56 0 -98.5 -6t-86.5 -26l3 -10q-8 -2 -15.5 -2.5
t-14.5 -5.5q-25 -14 -42.5 -43t-28 -64.5t-15.5 -72.5t-5 -67v-11.5t1 -10.5q0 -11 -9 -11l-6 2q6 -43 15.5 -76t26 -59.5t43 -47t67.5 -38.5l3 12q24 -6 45.5 -14t44.5 -13q-3 3 -3 8q0 9 11 9q40 -8 66 -8q42 0 78 15t71 49l5 -6q45 49 66 103t21 121l4 -1q1 8 1.5 15.5
t0.5 15.5q-1 13 -6 29.5t-12.5 34t-17.5 34t-22 30.5q-8 0 -17 11t-15 17q-4 2 -6.5 3t-4.5 2l1 5q-17 16 -33.5 27t-34.5 18.5t-38 14t-44 13.5zM451 475q0 8 3 16l18 -8q-5 -5 -6.5 -11.5t-1.5 -12.5q0 -20 7.5 -33.5t7.5 -15.5q0 -10 -10 -10q-5 0 -8 4l-9 -3
q-4 14 -20 28.5t-27 22.5h-1q-8 1 -10 8q-32 18 -64 18q-26 0 -40.5 -11t-23.5 -30l1 -1l-3 -3q-3 -6 -5 -13l-4 -14t-5.5 -11.5t-8.5 -4.5q-8 0 -8 9q-17 -21 -24.5 -42t-7.5 -48q0 -9 1 -19.5t3 -21.5q0 -7 -5 -10q4 -18 10 -39t17 -40t27.5 -33t41.5 -17l-1 -5q1 0 2 0.5
t3 0.5q22 -5 41 -5q21 0 41.5 4.5t37.5 14t29.5 24.5t16.5 35l20 -5q-7 -20 -21.5 -35.5t-34 -27t-42 -18t-45.5 -8.5h1q12 0 12 -10q0 -9 -12 -10.5t-23 -1.5q-36 0 -73.5 15t-63.5 49q-4 -4 -8 -4t-7 5q-23 31 -33.5 64t-10.5 68q0 81 52 149l14 -14q-56 -65 -56 -133
q0 -59 43 -114l6 7q9 -8 14 -19.5t14 -19.5q42 -36 90 -36q8 0 18 1.5l23 3.5q-5 -1 -10 -1.5t-10 -0.5q-38 0 -62 18.5t-40.5 46t-26.5 60l-19 59.5v2q0 10 8 10h2q4 45 21.5 81t46.5 71l3 -3q3 5 6.5 9l7.5 9q-7 -3 -18 -10.5l-22.5 -16t-21.5 -14.5t-14 -6q-9 0 -9 9
q0 8 13.5 17.5t31.5 18.5t37 16t30 10q9 6 19 9l1 -5q3 1 15 1q11 0 22.5 -4t22.5 -8.5t21.5 -8t19.5 -3.5q13 0 24 14zM456 429q-2 11 -3.5 20.5t-1.5 17.5q-6 -2 -12.5 -5t-13.5 -5q5 -4 13.5 -11.5t17.5 -16.5z" />
    <glyph glyph-name="ordfeminine" unicode="&#xaa;" horiz-adv-x="390" 
d="M148.813 364.972l-3.80273 -1.26367q-5.07031 0 -5.7041 6.32031q1.26758 10.1133 3.48633 24.6514q2.21777 14.5381 4.11914 31.6035q1.90137 17.0664 3.48633 35.7129q1.58398 18.6465 1.58398 35.7129q-5.7041 -12.0098 -14.5771 -18.9629t-19.3311 -11.0615
q-10.457 -4.1084 -21.8652 -6.95215q-11.4082 -2.84473 -22.8164 -6.63672l3.16895 -3.16113q-10.7744 -10.7451 -18.3799 -24.0186t-7.60547 -25.916q0 -10.1133 5.7041 -18.3301t19.0137 -14.5371q3.16895 -3.16113 3.16895 -6.32129q0 -5.68848 -5.7041 -5.68848
l-3.80273 1.26367q-13.3096 8.2168 -19.0137 18.9629q-5.7041 10.7451 -5.7041 23.3867t4.43652 24.9668q4.43652 12.3262 11.4082 24.3359q-15.2109 -6.95312 -28.8369 -19.5947q-13.627 -12.6416 -23.1338 -37.9248q-3.16895 -5.05664 -7.60547 -5.05664
q-5.07031 0 -5.07031 5.68848v2.52832q6.97168 13.9062 14.2607 24.0195q7.28809 10.1133 15.5273 17.3818t18.3799 12.6416t23.4502 10.4297l0.633789 0.631836v-0.631836q9.50684 3.79199 20.915 6.95215q11.4082 3.16113 21.8652 7.90137q10.458 4.74023 18.6973 11.6934
t11.4082 17.6982l11.4082 -3.16016q-0.633789 20.2266 -3.80273 36.6602q-3.16895 16.4346 -12.042 25.2832q-3.16895 3.16113 -6.97168 3.79297t-6.97168 1.89551l4.43652 11.3779q-12.042 1.26465 -24.4004 2.84473q-12.3594 1.58008 -24.4014 1.58008
q-30.4219 0 -43.7314 -13.2734q-13.3096 -13.2744 -13.3096 -34.1328q0 -14.5381 6.97168 -17.6982q1.26758 1.26465 3.80273 2.52832l2.53516 -12.0098q1.90137 4.4248 5.7041 4.4248q1.26758 0 1.58496 -0.316406q0.316406 -0.31543 1.58398 -0.31543l1.26758 -1.26465
q4.43652 5.68848 6.6543 13.2744q2.21875 7.58398 3.80273 15.4854l3.16992 15.8018q1.58398 7.90137 4.75293 14.2227l11.4082 -5.05664l-4.12012 -5.05664q-1.58398 -1.89648 -3.16797 -4.4248q-1.58496 -2.52832 -2.85254 -6.63672t-3.16895 -11.0615
q-1.26758 -3.79297 -2.21875 -10.4297q-0.950195 -6.63672 -2.53516 -12.957q-1.58398 -6.32129 -4.43555 -10.7461q-2.85254 -4.42383 -7.92285 -4.42383q-5.7041 1.26367 -7.60547 2.52734q-1.90137 1.26465 -1.90137 4.4248v1.26465q-3.80273 -1.26465 -6.97168 -1.26465
q-8.23926 0 -12.042 8.21777q-3.80273 8.2168 -3.80273 18.9619q0 21.4912 8.55664 33.1846q8.55566 11.6934 21.8652 17.3818t28.8379 6.63672q15.5273 0.948242 28.8369 0.948242h17.7461q8.87305 0 16.7959 -0.948242q7.92188 -0.948242 7.92188 -6.00488
q0 -1.89648 -1.26758 -3.79199q-1.26758 -1.89648 -4.43652 -2.52832q-2.53516 0 -4.43652 0.31543q-1.90137 0.316406 -4.43652 0.316406q20.2812 -7.58496 25.9854 -26.8633t5.7041 -55.9395q0 -18.9619 -0.950195 -41.7168q-0.951172 -22.7549 -2.53516 -42.3496
q-1.58496 -19.5947 -3.48633 -33.1846t-3.16895 -14.2217l12.6758 0.631836v-5.68848q0 -27.1787 14.5771 -27.1787q10.1406 0 27.2529 13.2734q-5.07031 -1.89648 -9.50684 -1.89648q-8.23926 0 -12.6758 9.48145l12.042 4.4248q0 -5.68945 5.7041 -5.68945
q4.43652 0 8.87305 3.16016q4.43652 3.16113 8.23926 6.95312l7.28809 6.95312q3.48633 3.16016 6.02148 3.16016q5.07031 0 5.07031 -6.32031q0 -5.05664 -8.87305 -9.16504t-17.1123 -9.16504q5.07031 0 5.07031 -5.68945q0 -4.42383 -5.07031 -7.58496
q-5.07031 -3.16016 -11.7256 -5.37207q-6.6543 -2.21289 -12.3584 -3.16113t-6.97168 -0.948242q-11.4082 0 -18.3799 9.48145t-10.1406 30.3398zM153.25 586.832q13.9434 -3.16016 23.7676 -14.5381q9.82324 -11.377 15.5273 -26.5469t8.23926 -30.9717
q2.53516 -15.8027 2.53516 -27.8125q0 -27.1787 -4.12012 -54.9902q-4.11914 -27.8115 -4.11914 -56.2559q-1.90137 -5.05664 -6.33789 -5.05664q-1.90137 0 -3.80273 1.58105q-1.90137 1.58008 -2.53516 4.74023q1.90137 26.5479 8.23926 54.9912t6.33789 56.8867
q0 9.48145 -2.53516 23.7031t-7.92285 27.4961q-5.38672 13.2734 -14.2598 23.0703t-21.5488 11.0615zM137.405 363.708q-19.6475 -15.8018 -33.9072 -23.3877q-14.2607 -7.58398 -26.9365 -7.58398q-13.9434 0 -28.8369 8.2168q-14.8945 8.2168 -36.4434 24.0186
q-2.53516 2.52832 -2.53516 5.68848q0 5.68945 5.7041 5.68945q1.90137 0 5.07031 -1.89648l27.2529 -24.335q12.042 -10.4297 26.6191 -10.4297q10.7744 0 23.7676 7.26953q12.9922 7.26855 31.3721 25.5986z" />
    <glyph glyph-name="guillemotleft" unicode="&#xab;" horiz-adv-x="420" 
d="M368 405q-1 -1 -1.5 -2t-2.5 -3l12 -5q-24 -43 -45.5 -87l-42.5 -89q8 -57 36.5 -112.5t66.5 -97.5q3 -5 3 -8q0 -4 -4 -8.5t-8 -4.5t-8 4q-27 48 -58 88t-68 78q-8 9 -16 16.5t-17 17.5q-3 -5 -8 -5q-10 0 -10 13q38 57 79 108t76 108zM99 247q0 -2 0.5 -3.5t0.5 -2.5
t1 -2l47 85t51 84l16 -11q-34 -43 -60 -88t-49 -93q1 -18 7 -47.5t18 -64t31 -71t48 -66.5q3 -5 3 -8q0 -9 -9 -9q-5 0 -9 4q-39 49 -63 111.5t-39 122.5q-4 -9 -8.5 -21.5t-10.5 -18.5q0 -2 1 -2q12 -22 23 -46t23.5 -47.5t26.5 -45.5t32 -40q3 -5 3 -8q0 -9 -9 -9
q-5 0 -9 4q-22 26 -37.5 56.5l-30.5 62t-32 62t-41 55.5l-12 -27q-5 -8 -12 -8q-8 0 -8 9q0 8 8.5 20t13.5 20l-3 7q2 0 3.5 0.5t2.5 0.5t2 1q18 27 39.5 53l41.5 50l37.5 46t27.5 41l18 -8q-11 -17 -24 -30l-27 -27q-29 -29 -54 -61.5t-44 -67.5q9 -6 16.5 -17.5
t13.5 -22.5l12 23t13 23q-2 5 -3.5 10.5t-5.5 14.5zM281 237q18 35 34 70l31 70l-63.5 -82.5t-58.5 -85.5q6 -8 12.5 -14.5t12.5 -14.5q6 9 11 18.5l10 18.5q-1 5 -1.5 10t-1.5 10h14zM308 110q-10 21 -18 42t-14 42q-2 -7 -5.5 -14t-8.5 -15l23.5 -27.5z" />
    <glyph glyph-name="logicalnot" unicode="&#xac;" horiz-adv-x="500" 
d="M493 352q-4 -2 -7.5 -2.5t-6.5 -1.5q-1 -11 -1.5 -20t-0.5 -18q0 -32 7 -70q0 -6 -3 -8.5t-6 -2.5q-6 0 -9 14t-3.5 33t-0.5 38.5t-1 30.5q-12 -2 -24.5 -3t-25.5 -3h9.5t9.5 1l7 -1l13 -1l-4 -37.5t-2 -36.5v-13v-9.5t2 -9.5q0 -6 -3 -8.5t-6 -2.5q-10 0 -11 10
q2 20 3.5 38.5t1.5 38.5v12q-48 2 -93.5 5t-93.5 5q-2 -6 -9 -6q-20 2 -39 3.5t-39 1.5q-27 0 -53.5 -6t-56.5 -6q-18 0 -26 5.5t-8 21.5q0 14 6 27.5t14 18.5l8 -18q-4 -2 -7.5 -9t-3.5 -15t4.5 -13.5t17.5 -5.5q9 0 24 0.5t30 2.5t28 5.5t18 8.5h-110v20h334q12 0 12 -10
q0 -1 -0.5 -2t-0.5 -2q19 2 37 3.5t36 6.5v6l15 -2q6 5 13 6zM477 199q-13 -2 -25 -3.5t-26 -4.5q-10 1 -10 11q0 3 2.5 6t8.5 3q3 -3 16 -3q14 0 29 11zM228 346q29 -3 59 -4.5t59 -2.5q0 4 3 7h-121z" />
    <glyph glyph-name="registered" unicode="&#xae;" horiz-adv-x="670" 
d="M159 484q4 1 7 1.5t7 0.5q9 0 16 -4q2 6 16 9t31.5 4.5t34.5 2t25 0.5q24 0 52 -4t52 -16t40 -35t16 -61q0 -24 -9 -41t-22 -28t-29 -17t-29 -9q17 -23 30 -47t26.5 -46t30 -41t41.5 -32l1 -1q9 -5 21 -9t12 -12q0 -9 -13 -9q-24 11 -49 13t-51 2h-23h-17q-10 1 -10 11
q0 3 2.5 6t8.5 3q1 -1 3 -1q-5 12 -15.5 35t-25 48.5t-32.5 48.5t-38 35l10 17q4 -3 8 -6.5t9 -8.5q0 5 5 8l29.5 12.5t29 16.5t22.5 23t9 33q0 14 -6.5 26.5t-17 22.5t-24 15.5t-27.5 5.5t-27.5 -6.5t-21.5 -14.5l-16 11q21 28 52 28q17 0 34.5 -8t32 -21t23.5 -29.5
t9 -33.5q0 -20 -9 -35t-23 -27t-30.5 -21l-30.5 -16h-4q14 -17 28 -38.5t26 -42.5l23 -41l19 -34q0 -2 0.5 -2.5t0.5 -1.5t-0.5 -1.5t-0.5 -1.5q21 -3 40 -3q8 0 15 0.5t15 1.5q-19 16 -34 36t-28.5 41.5l-28 43t-32.5 41.5l15 13l-3 13q8 2 17 2.5t17 3.5q24 10 35.5 30.5
t11.5 44.5q0 25 -10 43.5t-26.5 30.5t-39 18t-46.5 6q-29 0 -58 -5.5l-58 -10.5q2 -2 3.5 -5t3.5 -6h3v-7q4 -11 4 -26q0 -7 -1.5 -9.5t-3.5 -4.5q-1 -19 -1 -37.5v-36.5q0 -48 1.5 -92.5t3.5 -92.5h3q-1 -2 -1 -3.5t-1 -3.5q0 -11 0.5 -22.5t1.5 -23.5l55.5 9.5t54.5 4.5
h10q8 0 16 -1.5t8 -9.5q0 -3 -2 -6t-7 -4q-6 1 -18 1.5t-27 0.5q-21 0 -45.5 -0.5t-46.5 -2.5q-3 -4 -8 -4q-1 0 -7 2q-32 -3 -41 -7.5t-10 -4.5q-7 0 -7 6q0 3 3 5v1q1 0 3 2q17 12 32 28.5t17 37.5l1 -1q0 76 -2 150.5t-5 150.5h6q-5 12 -23 12q-3 -2 -6 -3t-6 -3z
M418 556l38.5 -18.5t43 -23.5t42 -28t35.5 -32q3 7 9 7q8 0 15 -23t11.5 -53t7 -60t2.5 -44q0 -40 -7 -72l-20 5q14 47 14 85q0 26 -4.5 51.5t-12.5 51.5l-7 -1q-6 31 -26 54t-47 39.5t-57 28t-56 20.5q-7 4 -7 10q0 9 11 9q-20 8 -44 11t-50 3h-23t-25 -1l1 -2
q-47 -20 -80 -40.5t-64 -58.5q-8 -16 -16.5 -29t-16.5 -26.5t-14.5 -28.5t-10.5 -33l6 -2q-4 -5 -6.5 -13t-4 -16t-2.5 -14.5t-4 -9.5q-1 -5 -1 -10v-10q0 -25 4.5 -50t10.5 -45l10 4q12 -40 30.5 -71t50.5 -59q2 -2 2 -7v-4q19 -24 44.5 -34t55.5 -14l10 6q2 -6 7.5 -7.5
t11.5 -1.5h8q57 0 111.5 24.5t99.5 54.5l6 2q4 0 7 -6q26 24 41 55t25 69q4 7 10 7q10 0 10 -12q-20 -51 -47 -92.5t-73 -72.5l-6 14q-21 -10 -47.5 -21t-53.5 -20t-52.5 -15t-43.5 -6q-8 0 -13 1t-10 6q-38 8 -72.5 23.5t-57.5 47.5l2 1q-14 18 -26.5 37t-23.5 39
q-2 -8 -8 -8q-7 0 -13.5 18t-12 43.5t-8.5 53t-3 46.5v13q-2 8 -2 7q11 42 25.5 74.5l32.5 69.5q-4 4 -4 8q0 6 6.5 12l11.5 11q4 9 7 18t6 19l20 -5q-1 -1 -1 -3q20 17 42 31.5l45 28.5q-5 0 -8.5 -0.5t-7.5 -0.5q-5 1 -7.5 4t-2.5 6q0 7 8 10q8 -1 15.5 -1h15.5
q14 0 28.5 0.5t28.5 0.5q36 0 71.5 -3.5t63.5 -15.5zM267 110q-12 43 -14.5 91t-2.5 98v30q0 50 -3 97q1 5 4 7t6 2q7 0 9 -8t2 -19q0 -7 -0.5 -14t-0.5 -12q1 -5 1 -9.5v-9.5q0 -15 -1.5 -29.5t-1.5 -30.5v16q0 -11 -0.5 -21t-0.5 -21q0 -42 4 -82t18 -78zM199 117
q-4 -5 -8.5 -10t-9.5 -10h9q5 0 9 1v19z" />
    <glyph glyph-name="macron" unicode="&#xaf;" 
d="M422 641q-6 6 -26 6q-12 0 -27 -1.5t-29.5 -4l-26 -4.5t-16.5 -3q-51 -8 -99 -10.5t-97 -2.5q-51 0 -98.5 2t-98.5 6q-10 1 -10 11q0 3 2.5 6t8.5 3l120 -13.5t102 -5.5q31 0 66 3t73 10q9 1 24.5 5t34 8t37.5 7t35 3q31 0 40 -12z" />
    <glyph glyph-name="degree" unicode="&#xb0;" horiz-adv-x="340" 
d="M279 522q26 -35 26 -72q0 -23 -10 -45t-33 -42q-5 -4 -14 -10t-20.5 -11.5t-23 -9.5t-21.5 -4q-16 0 -20 10l12 7q-7 -1 -13.5 -1.5t-12.5 -0.5q-46 0 -72.5 24.5t-36.5 86.5h9q0 27 5 54t18 48.5t35 35t57 13.5q9 0 21 -5l-10 -17q-8 4 -23 4q-19 0 -43 -11l23.5 3.5
t20.5 1.5q37 0 69.5 -14.5t57.5 -43.5zM253 523q-4 12 -15 20.5t-24.5 14t-27.5 8t-24 2.5q-39 0 -75 -21q-1 0 -1.5 -0.5t-1.5 -0.5l-6 2q-8 -13 -11.5 -28.5t-3.5 -29.5t2 -27.5t5 -27.5q0 -9 -8 -11q6 -37 25.5 -52t48.5 -15q33 0 75 15q11 0 11 -11q0 -5 -3 -8
q35 13 53.5 37t18.5 52q0 43 -38 81zM128 530q6 5 19 8.5t19 3.5q20 0 33 -8.5t20.5 -21.5t10.5 -28t3 -27q0 -18 -8.5 -30.5t-21.5 -21t-29 -13.5t-31 -8q-10 1 -10 11q-22 6 -31.5 21t-9.5 35q0 43 36 79zM159 412q7 0 11 -7l9 3q21 6 31.5 22t10.5 35q0 8 -2.5 18
t-7.5 18.5t-13 14.5t-18 6q-5 0 -11.5 -1t-7.5 -3l3 3q-61 -6 -61 -65q0 -17 10.5 -31t33.5 -14q9 0 12 1zM182 346q2 0 2.5 -0.5t2.5 -0.5q7 0 16 4q-12 -2 -21 -3zM165 523v-1l1 1h-1z" />
    <glyph glyph-name="plusminus" unicode="&#xb1;" horiz-adv-x="480" 
d="M197 517q-4 -15 -4 -36q0 -34 7.5 -66t7.5 -66q0 -6 -0.5 -14t-2 -16t-5 -13.5t-9.5 -5.5q-8 0 -8 9q0 7 2 11.5t3 9.5h-17q-74 0 -146 -12q0 -2 -0.5 -5t-0.5 -5q0 -15 3 -28q34 -3 69 -3q23 0 46.5 2t48.5 8q0 -1 1 -1t2 -0.5t3 -0.5l10 1v-25q8 2 17 4.5t17 4.5
q3 26 11 31l8 -18q-2 -2 -4 -9q27 6 56 11.5t58 5.5q14 0 28.5 -1.5t28.5 -1.5h9.5t9.5 1v45q-8 -1 -15 -1h-15q-29 0 -56.5 2t-56.5 2q-5 0 -8.5 0.5t-6.5 0.5q-7 0 -11 -4t-4 -18q-5 -8 -12 -8q-8 0 -8 9q0 4 0.5 8t1.5 9q-7 -1 -14.5 -2.5t-12.5 -1.5q-9 0 -9 8
q0 10 10.5 12t21.5 2h6q0 5 0.5 9t0.5 9q0 40 -8 79t-8 66q0 3 0.5 7t1.5 9q-3 1 -12 1q-11 0 -18.5 -7.5t-12.5 -7.5q-10 0 -10 10q0 5 6 8.5t14 6t17 4.5t15 5l1 -16l1 1l20 -5q-9 -18 -9 -45q0 -30 7 -66t10 -67q31 0 58 -2.5t55 -2.5q17 0 34.5 1.5t37.5 6.5l4 -18h4
v-43q2 -4 3.5 -5t1.5 -5q0 -8 -11.5 -12t-21.5 -4q-30 0 -48.5 5t-33.5 5q-27 0 -51 -5.5t-51 -16.5q-1 -3 -1 -18t1 -32t2.5 -33.5t3.5 -30t3 -21.5v-1q29 0 58.5 -0.5t58.5 -0.5q14 0 29 0.5t30 0.5l-1 -9q6 12 15 21l11 -16q-14 -8 -18.5 -19t-4.5 -25l21 -6l-10 -17
l-9 3q-1 -7 -8 -7q-8 0 -11 10v2q-14 2 -28.5 3.5t-29.5 1.5q-44 0 -87 -9q-10 3 -10 9q0 5 6 10q-66 -2 -132.5 -7t-132.5 -8q1 -2 1 -2.5t1 -2.5q0 -6 -3 -8.5t-6 -2.5q-10 0 -11 10v13v10.5t1 12.5l-16 -3q-13 -2 -27 -5t-26 -9q3 -5 3 -8q0 -9 -8 -9q-7 0 -14 5.5
t-7 13.5q0 9 12 14.5t28 9t32.5 5.5l24.5 3q2 10 6 16.5t12 6.5q5 0 11 -2l-10 -17h4q0 -1 -4 -1t-6 -2l27 3q38 5 76.5 7.5t76.5 2.5l-2 6q8 2 9.5 15t1.5 25v12q0 23 -2.5 44.5t-5.5 44.5q-20 -2 -40 -2.5t-40 -0.5h-20h-29.5t-29.5 -1l2 -8q0 -6 -3 -8.5t-6 -2.5
q-10 0 -11 10q0 2 0.5 4t0.5 4h-3v20h3q-1 8 -1.5 16.5t-2.5 17.5l-18 -4.5t-18 -2.5q-9 0 -9 8q0 7 8 12q54 6 108.5 11l111.5 10v14q0 35 -8.5 68t-8.5 68q0 6 0.5 11.5t1.5 11.5zM316 77l28 2t28 1t27.5 -1.5t27.5 -3.5q2 7 3.5 13.5t3.5 12.5q-48 2 -94.5 3t-92.5 1
q-5 0 -10.5 0.5t-10.5 0.5q-8 0 -14.5 -2t-6.5 -10q-5 -8 -12 -8q-8 0 -8 9q0 4 1 6.5t1 3.5q-46 -2 -92 -5t-92 -11q0 -8 7 -10.5t16 -2.5q6 0 11.5 0.5t10.5 0.5q66 0 130 4.5t130 12.5q11 0 11 -10q0 -4 -3 -7zM243 121q0 10 -2 39.5t-2 61.5v15t1 15q-7 -3 -14 -5.5
t-14 -5.5h-4l2 -41t1 -41v-14.5t-1 -14.5q5 2 10.5 3.5t10.5 3.5q11 0 11 -9q0 -1 -2 -7h3z" />
    <glyph glyph-name="acute" unicode="&#xb4;" horiz-adv-x="290" 
d="M261 582q1 -1 1 -5q0 -7 -6 -10q-21 -5 -42.5 -23t-41 -38l-36.5 -36.5t-29 -17.5q-5 1 -6 6q1 18 7.5 34.5t14.5 33.5t15 34.5t9 36.5l20 -2l-3 -12l34.5 5t38.5 3q10 0 17.5 -1t11.5 -5zM114 467q9 6 23 20.5l30 31l33 33t33 26.5q-17 -1 -40 -6.5t-36 -10.5
q-11 -26 -24.5 -50t-18.5 -44z" />
    <glyph glyph-name="mu" unicode="&#xb5;" horiz-adv-x="510" 
d="M452 105q-6 -42 -23 -78.5t-54 -60.5q-13 0 -13 11q-14 3 -23.5 12.5t-16.5 21.5t-11 26t-7 26v2q-25 -35 -58 -57t-78 -29q13 -4 13 -12q0 -9 -13 -9q-8 5 -18 13.5l-19.5 17l-18.5 16t-15 10.5q-5 -18 -12 -37l-14 -39t-11.5 -40t-4.5 -39q0 -12 2.5 -24t9.5 -23
q28 0 38 13.5t10 33.5q0 13 -4 26.5t-8.5 26.5l-8 23.5t-3.5 17.5q0 12 9 12q6 0 11 -10.5t9.5 -26t7 -32.5t2.5 -30q0 -27 -12.5 -46t-46.5 -19q-8 0 -13 7t-7.5 17t-3.5 20.5t-1 18.5q0 35 10 71.5t17 66.5q-3 3 -3 7q1 27 1.5 54.5t0.5 55.5q0 66 -2 131.5l-4 132.5
q-3 -3 -7 -8.5t-10 -5.5q-9 0 -9 9q0 6 8 12t18 11t20 8t13 3q4 0 9.5 -0.5t10.5 -2.5q1 0 1.5 0.5t1.5 0.5t1 1l5 -20q-2 -1 -9 -1q-11 0 -17 3.5t-13 3.5q-8 0 -18 -9l15 -1q0 -12 -1 -24.5t-1 -25.5v13q0 -20 -0.5 -38.5t-0.5 -38.5q0 -60 2 -119.5l4 -119.5l11 -1
q-1 -3 -1 -6.5t-1 -6.5l7 12q11 -9 16 -16l9 -13t8.5 -10.5t15.5 -8.5q-1 1 -1 4q0 6 8 9q25 0 43 4t31.5 12t24 20.5t21.5 29.5q-19 -17 -39.5 -27.5t-48.5 -14.5q-5 1 -7.5 4t-2.5 6q0 7 8 10q21 0 34 3t23.5 9.5t21.5 18l28 28.5q-9 0 -9 10v3q12 32 20 79.5t8 95.5
q0 29 -3.5 55t-11.5 47l7 3l12 4l2 -6q7 -1 20.5 -2t26.5 -3t22.5 -6t9.5 -10q0 -9 -13 -9q-14 8 -25 11.5t-24 3.5q-3 0 -6 -0.5t-7 -0.5q2 -12 3 -27t1 -32q0 -26 -1.5 -55t-4.5 -56.5t-7 -51.5t-8 -39l5 5q1 1 1 2l18 -8q-5 -8 -14 -15t-17 -14l11 -4q-1 -2 -2 -3t-2 -3
q1 1 3 1q7 0 9.5 -13.5t6 -29.5t10 -29.5t21.5 -13.5q11 0 15 5t12 10q-19 26 -25.5 67.5t-6.5 89.5q0 55 4.5 109t4.5 91l20 -2q-4 -38 -11 -92.5t-7 -108.5q0 -45 8.5 -84.5t32.5 -62.5q18 21 21.5 46.5t3.5 48.5zM141 386q0 -26 -1.5 -53t-1.5 -59q0 -30 2 -61.5t8 -60.5
t16.5 -53t27.5 -40q3 -5 3 -8q0 -9 -10 -9q-15 0 -25 19.5t-16.5 50.5t-10.5 69.5t-6.5 77t-3.5 73t-2 56.5z" />
    <glyph glyph-name="paragraph" unicode="&#xb6;" horiz-adv-x="400" 
d="M323 162q1 13 1 26v26q0 67 -3.5 134.5t-3.5 134.5v31v23t2 24q-27 0 -52.5 -8t-49.5 -21l8 -1q-4 -49 -6.5 -97t-4.5 -99q1 0 1.5 0.5t2.5 0.5q8 -3 8 -10q0 -3 -2 -6t-7 -4h-4v-12q2 0 3 0.5t3 0.5q12 0 12 -10q0 -3 -2.5 -6t-7.5 -4h-8q-1 -27 -1 -54.5v-54.5
q0 -91 3 -180t10 -180q0 -6 -3 -8.5t-6 -2.5q-9 0 -11.5 22.5t-2.5 49.5q0 17 0.5 32.5t0.5 25.5q0 60 1 120t1 121q0 27 -0.5 54t-0.5 55h-45q-24 0 -50.5 1.5t-50 7t-40 15.5t-21.5 28l3 -12q0 -11 -9 -11q-6 0 -10 8t-6 19t-2.5 22.5t-0.5 17.5q0 19 4 39q2 15 12.5 38
t26 47t34 45.5t36.5 32.5q-9 0 -18 -0.5t-17 -1.5q-5 1 -7.5 4t-2.5 6q0 7 6.5 9t16.5 2q8 0 16 -0.5t16 -0.5h51.5t58.5 -1t60 -3.5t56 -6.5q0 1 0.5 2t0.5 3l20 -2q0 -2 -0.5 -3.5t-0.5 -3.5q40 -6 55 -19l1 1l2 -3h1q2 -8 2 -7q0 -9 -10 -9q-5 0 -10 5l-4 -3q-5 4 -39 9
q-3 -42 -4 -80.5t-1 -80.5q0 -37 0.5 -73t0.5 -73v-69q0 -36 -1.5 -86.5t-6.5 -129.5l-4 -52t-2 -52q0 -24 3 -48q0 -6 -3 -8.5t-6 -2.5q-8 0 -10 7.5t-2 16.5v14q0 32 3.5 63.5t5.5 63.5l6 96t5 96zM177 526q26 14 65 28.5t77 20.5q-27 6 -64.5 8t-79.5 2h-36t-35 -1l4 -13
q-19 -4 -34 -18.5t-28 -28.5q-29 -32 -43 -64t-14 -69v-9t1 -9l18 4q2 -25 10.5 -40.5t23 -24.5t34.5 -12t44 -3q23 0 44.5 2t38.5 4q0 9 -3 13.5t-8 7t-11 4.5t-12 6q-6 -2 -5 -2q-1 0 -7 2q-29 26 -41 44.5t-12 34.5q0 22 16.5 42.5t34.5 50.5v3q0 5 3 6.5t11 14.5z
M173 503q-20 -26 -38 -45.5t-18 -39.5q0 -14 9.5 -28.5t32.5 -32.5l3 4q6 -10 14.5 -17t25.5 -9v76v45v33.5t2 34.5q-8 -5 -15.5 -10.5t-15.5 -10.5zM-8 358q1 -4 2 -7.5t2 -6.5q-1 3 -1.5 6.5t-2.5 7.5z" />
    <glyph glyph-name="cedilla" unicode="&#xb8;" horiz-adv-x="260" 
d="M126 -69q0 -5 -3.5 -7t-5.5 -2q-10 0 -10 13q17 21 31.5 42.5t30.5 42.5l14 -14q-5 -4 -8.5 -7.5l-7.5 -7.5q11 5 16 10l13 13l11 -16q-5 -2 -8 -4.5t-6 -4.5l1 -1q52 -24 52 -62q0 -11 -6 -25.5t-17.5 -28t-27.5 -23t-35 -9.5q-11 0 -20.5 1.5t-20.5 3.5l-8 -8l-6 -2
q-10 0 -10 12h-5l1 20q6 -1 12 -1.5t12 -2.5q14 10 26 22.5t12 32.5q0 6 -2 10q-4 -4 -5 -6t-5 -2q-10 0 -10 10q-1 0 -3 -2zM176 -28q-4 -6 -8.5 -13.5t-9.5 -17.5q6 -11 6 -23q0 -17 -8.5 -32t-20.5 -27q13 -3 25 -3q27 0 50.5 18t23.5 47q0 19 -14 35t-37 16h-7zM150 -29
q-4 -5 -7.5 -10t-5.5 -10h6q4 8 15 19h-3q-1 1 -5 1z" />
    <glyph glyph-name="periodcentered" unicode="&#xb7;" horiz-adv-x="230" 
d="M138 310q4 -7 4 -20q0 -17 -10.5 -33t-27.5 -16q-14 0 -24 7t-16.5 17t-10 21.5t-3.5 20.5q0 16 8 27.5t24 11.5q3 0 11 -1.5t17 -5.5t17 -10t11 -15v-4zM105 308q-11 2 -11 9q0 4 4 8q-12 5 -16 5q-11 0 -16 -7.5t-5 -18.5q0 -16 11.5 -32t37.5 -18q16 10 16 33
q0 13 -9 22q-3 0 -6 -0.5t-6 -0.5z" />
    <glyph glyph-name="exclam" unicode="!" horiz-adv-x="290" 
d="M206 511q-7 -81 -18 -158t-13 -158l4 -8q-1 -1 -4 -1v-20q-5 -8 -10 -8h-1q-5 0 -7.5 2t-6.5 2q-7 0 -15 -5t-20 -8q-5 1 -7.5 4t-2.5 6q0 7 8 10q1 -1 7 -1q8 0 22 4t14 12h-8q-6 0 -11 -1.5t-10 -8.5q-4 -2 -7 -2q-9 0 -9 9q0 5 2.5 6.5t6.5 3.5q-2 7 -2.5 14.5
t-0.5 15.5q0 15 1 30t1 29q0 60 -10 120t-19 120q-5 -11 -8 -21.5t-12 -10.5q-8 0 -8 9v4q16 45 38 65.5t44 20.5q34 0 55 -41l10 -1q-1 -5 -1 -9t-1 -9q2 -4 2.5 -7.5t2.5 -7.5zM157 197q6 85 18 166t14 166q-9 28 -19.5 37.5t-23.5 9.5t-23.5 -8.5t-19.5 -22.5q4 -4 5 -7
q5 -63 11.5 -122.5t12.5 -122.5q2 -23 1.5 -49t6.5 -49q4 0 8 0.5t9 1.5zM84 -60q-10 4 -10 16q0 15 13 36.5l24 38.5q-6 2 -14.5 7t-16 11.5t-12.5 13.5t-5 15q0 2 3.5 6t6.5 4q15 -2 31.5 -11t27.5 -20q4 8 10 17.5t13.5 17.5t15.5 13t17 5q11 0 11 -7q-8 -16 -19 -30
l-22 -28q18 -8 35 -24.5t17 -32.5q0 -6 -5 -8t-10 -2q-7 0 -15.5 2.5t-16 6.5t-13 8.5t-5.5 8.5q0 9 10 9q8 0 20 -10t24 -11q-2 10 -14.5 19.5t-26.5 14.5q-1 -4 -7 -4q-2 0 -5.5 0.5t-8.5 1.5l-1 -1q0 -2 0.5 -3t0.5 -3q-1 -3 -4 -9l-6 -12t-6 -10l-3 -4l-5.5 -11t-8 -14
t-9.5 -12t-11 -5zM87 -45q6 10 12.5 24.5l13.5 31.5q-11 -11 -19 -23t-8 -26q0 -6 1 -7zM75 75q10 -22 41 -29q-10 8 -19.5 16.5t-21.5 12.5z" />
    <glyph glyph-name="quotedbl" unicode="&#x22;" horiz-adv-x="350" 
d="M264 444q-11 -31 -16.5 -62.5t-8.5 -65.5q-3 -8 -10 -8q-3 0 -6 2.5t-4 7.5q5 20 8.5 39.5t8.5 39.5q-6 -2 -5 -2q-5 0 -7.5 6.5t-4 16t-2.5 19.5t-2 17l-9 -3q-8 27 -8 55q0 23 6 44v5q7 12 10.5 18.5t6.5 10.5t7.5 6.5t14.5 7.5q1 1 4 1h2l2 -2q9 -3 15.5 -12t10 -20.5
t5 -24t1.5 -22.5v-11.5t-1 -11.5l4 -1q-6 -6 -9 -24t-6 -27zM105 363q-3 -8 -10 -8q-6 0 -9 5l-1 -3q-7 6 -13 27t-10 47t-6 52.5t-2 43.5t1.5 27.5t4.5 17t8 11.5t12 11q4 3 9 3q8 0 15 -8t12.5 -18t9.5 -20t5 -13q5 -22 5 -33h1q0 -1 -1 -1q0 -3 0.5 -6t0.5 -5
q0 -5 -3 -7.5t-6 -3.5q-11 -30 -17 -58t-6 -61zM90 395q5 29 12.5 57t14.5 57q-1 11 -3 24t-5.5 24.5t-8.5 19t-12 7.5q-14 -11 -19.5 -27.5t-5.5 -34.5q0 -36 10 -69zM268 498q4 15 4 32q0 15 -4 28t-15 21q-11 -3 -16.5 -9t-9 -12.5t-6.5 -11t-7 -4.5q-3 -12 -3 -24
q0 -27 10 -51l10 1v-13q0 -12 1.5 -22.5t6.5 -23.5q6 23 12.5 45.5t14.5 44.5z" />
    <glyph glyph-name="numbersign" unicode="#" 
d="M401 222l10 -1q-2 -7 -3 -16.5t-2.5 -18t-4 -14.5t-7.5 -6q-3 0 -4 1v-3q-16 2 -31 3.5t-29 1.5h-11h-8t-9 -2l-18.5 -73t-21.5 -72q4 -3 4 -8q0 -9 -9 -9q-3 1 -12 1q-8 0 -13 -3t-10 -11l-14 14q13 7 29 12q-8 2 -9 10q3 21 7 59t11 72q-1 -1 -4 -1q-27 5 -54 8t-54 5
q-11 -12 -16 -38.5t-8 -53t-6.5 -46.5t-12.5 -20q-8 0 -8 9v4q1 4 5 22.5t8.5 41.5t9.5 45.5t9 36.5h-33h-3q-1 -1 -1 -3l10 -1q-5 -39 -12.5 -80t-20.5 -79q21 -6 38 -6h7.5t8.5 1q8 -3 8 -10q0 -3 -2 -6t-7 -4q-12 4 -23 6.5t-22 2.5q-10 0 -14 -5t-6.5 -10.5t-4.5 -10.5
t-8 -5q-10 0 -10 13q22 36 33 75.5t14 81.5q-4 -4 -9 -4q-10 0 -10 9t4 17t6 16q-20 -4 -41 -4h-7q-6 0 -10.5 2t-4.5 11q0 12 10 23q-7 3 -7 9t8 11q3 -1 12 -1q23 0 46 10l2 -20q-3 1 -11 1t-15 -2t-17 -4l6 -6q-11 -11 -15 -18q3 0 6 -0.5t7 -0.5q8 0 17.5 0.5t17.5 1.5
q14 42 25 84l21 84q-4 1 -7.5 1h-6.5q-17 0 -33 -4.5t-33 -7.5h-2q2 -3 6.5 -8.5t4.5 -11.5q0 -10 -9 -10q-8 0 -13 10t-9 21q-4 13 -7 31q0 18 19.5 23.5t64.5 9.5v-6q5 -2 9 -2h8h9h9q9 45 16.5 89.5t12.5 90.5l20 -2l-16.5 -89t-18.5 -89h14t15 1q11 46 19 92l16 94
l20 -5q-11 -45 -21 -90.5l-20 -90.5q30 2 59.5 6t60.5 7l2 -20q-32 0 -62.5 -2t-62.5 -5l-6 -27q31 -3 61 -3q17 0 33.5 1t33.5 3l21 110l21 110q-9 0 -9 8q0 10 11 12t21 2h5q12 0 21.5 -4.5t14.5 -19.5l-17 -4l15 -3q-14 -32 -21.5 -65l-15.5 -67l-9 -36q14 0 27.5 3
t27.5 7q11 0 11 -10h4q-5 -7 -7.5 -11t-2.5 -10q0 -5 1 -7q-1 -4 -5 -6l-4 -12q-7 4 -19 4q-11 0 -22.5 -2.5l-21.5 -4.5q-8 -35 -15 -71t-15 -71q7 0 10 0.5t4.5 2t3.5 4t8 5.5q13 0 26 2.5t25 2.5q2 0 6 -0.5t9 -1.5zM139 227q-1 -1 -1.5 -2t-1.5 -2q29 -11 61.5 -13
t64.5 -2l15.5 69.5l14.5 69.5q-32 -3 -64.5 -5t-64.5 -2l-12 -57zM119 230v2q8 27 15 54l14 54h-4q-10 1 -10 11q0 3 2.5 6t8.5 3q1 -1 7 -1l6 24q-8 -1 -15 -1t-15 -1l-3 -15q3 -1 11 -3l-7 -19q-6 1 -8 3q-9 -42 -19 -82l-21 -82h1q9 -1 18 -1h18q1 1 1.5 2t1.5 2l4 -4h32
q14 0 29.5 -0.5t29 -1t22.5 -2.5t11 -5l4 13.5t4 11.5l2 -1v2q-11 0 -23.5 -0.5t-25.5 -0.5q-26 0 -51 2.5t-47 10.5zM358 579q-14 -54 -25.5 -108.5l-22.5 -109.5q10 1 14.5 3.5t6.5 6.5t2.5 9t2.5 12l-1 10q1 0 1.5 -0.5t1.5 -0.5q8 45 16.5 88t23.5 85l2 -1q-1 16 -12 16
q-10 0 -21 -7zM328 350q-5 0 -10.5 -0.5t-10.5 -1.5q-7 -35 -13 -70t-14 -70q5 0 9 0.5t8 0.5q8 32 14.5 63l13.5 63zM72 386q-9 1 -16.5 1h-13.5q-30 0 -30 -14q0 -7 7 -20q2 5 7 7q2 0 5 -0.5t5 -0.5q19 0 37.5 4t37.5 4q1 3 1.5 6.5t1.5 6.5h-33q-5 0 -9 6zM249 44
q11 30 20 60t17 60q-13 -2 -20.5 -11t-11.5 -22t-5 -27.5t-1 -28.5q0 -9 0.5 -17t0.5 -14zM387 183q4 7 5 12.5t1 12.5q-1 0 -4.5 1t-10.5 1h-4q3 -3 3 -7q0 -8 -10 -9h-29.5t-29.5 1q-1 -3 -1.5 -6.5t-1.5 -6.5h40h21t21 1zM394 377q2 5 3.5 8t2.5 6h-5q-6 0 -14 -0.5
t-15.5 -2.5t-13.5 -6.5t-7 -11.5q12 3 24.5 5t24.5 2zM278 197q-1 -5 -1.5 -9t-1.5 -8h5q5 0 8.5 2.5t5.5 13.5q-4 1 -8 1h-8z" />
    <glyph glyph-name="dollar" unicode="$" horiz-adv-x="490" 
d="M155 566q12 4 39 7.5t55 3.5q20 0 37 -5.5t26 -5.5q17 0 28.5 6.5t28.5 14.5l5 -20q-17 -2 -32 -9t-32 -12q-8 0 -9 6v-1q-5 8 -17 11t-27 3q-20 0 -41.5 -3.5t-37.5 -8.5q5 2 9 2h9h12q48 0 88.5 -25.5t68.5 -71.5q2 -4 4.5 -7.5l5.5 -7.5q-1 7 -1 14v14q0 28 2 55.5
t2 54.5l20 -2q-4 -35 -7.5 -61.5t-3.5 -51.5q0 -19 3.5 -38t13.5 -42q0 -2 0.5 -2.5t0.5 -1.5q0 -10 -10 -10q-5 0 -8.5 5.5t-5.5 13t-3 15.5t-1 13l-14 4v3q0 5 -5 11.5t-7 11.5q-48 92 -134 92q-44 0 -87 -25h-2q-18 -29 -18 -55q0 -22 10.5 -41t28 -35t39.5 -29.5
t45 -24.5q5 -5 5 -10q0 -9 -9 -9l-6 2q-23 14 -46 31.5t-41 37.5t-29 44t-11 52q0 24 7 33.5t16 23.5l2 -2q6 2 14 5.5t16 6.5q-4 1 -6 7q-22 -4 -38.5 -14.5t-27.5 -24.5q-3 -11 -7.5 -19.5l-9 -17t-7.5 -18.5t-3 -23q0 -24 8 -43t20.5 -35.5t29.5 -30t35 -25.5v1
q0 10 11 10q30 -10 61.5 -24t59 -33.5t49 -45.5t32.5 -59q2 6 2.5 14t8.5 8q10 0 10 -12q-5 -29 -18.5 -57.5t-34.5 -51t-49.5 -36.5t-64.5 -14h-7q-4 0 -7 1.5t-9 7.5l17 10q0 -1 8 -1q52 0 87 26.5t49 65.5l-2 9q-3 -3 -4 -3v7q0 12 -4 25t-8 21q-24 52 -70 79.5t-98 39.5
q3 -4 6.5 -6t3.5 -7q0 -9 -9 -9l-6 2q-26 20 -48 39t-37.5 40t-24 46.5t-8.5 58.5v13q-9 1 -9 9q0 4 4 9.5t9 11.5t9.5 12.5t5.5 13.5l8 -2q18 19 39.5 33.5t47.5 19.5v-8zM44 186q1 9 9 9q3 0 6 -3l9 3q6 -14 6.5 -28t4.5 -29q8 -35 21 -58.5t32 -40.5t44 -29t57 -24
q6 -5 6 -10q0 -9 -13 -9q-33 16 -59.5 31.5t-47.5 36.5q-1 -3 -7 -5t-14 -5t-16 -7t-13 -11q1 -7 1.5 -13.5t1.5 -14.5q0 -3 -1 -4v-1q0 -2 -3.5 -4t-5.5 -2q-7 0 -7 4l-3 3v3l-11 1q2 12 7 18.5t5 19.5q0 42 -3.5 84.5t-5.5 84.5zM170 397q20 -20 47.5 -32.5t51.5 -26.5
l86.5 -50t83.5 -52q5 -5 5 -10q0 -9 -9 -9q8 -8 10.5 -21.5t2.5 -24.5q0 -26 -11.5 -52.5t-29.5 -50t-40.5 -41.5t-43.5 -26q-8 -4 -17.5 -5.5t-18.5 -3.5l-5 20q9 2 18 2t17 3q19 6 40 21t37.5 35t27.5 43.5t11 46.5q0 24 -10.5 38.5t-25.5 32.5q-2 6 -2 5q0 4 1 5
q-26 20 -52 37.5t-55 33.5q-32 18 -67.5 31t-64.5 36zM68 24q18 17 40 24q-14 15 -28.5 41.5t-18.5 54.5v-13q0 -28 2 -54.5t5 -52.5zM248 81q1 16 1 32v32q0 102 -13 201.5t-21 201.5q-10 10 -10 29q0 15 7 33v5h2q7 16 17 27t23 11q14 0 21 -13t7 -28v-6q0 -7 -2 -10
q-3 -108 -6.5 -211t-3.5 -209q0 -25 -0.5 -50.5t-0.5 -52.5q0 -60 4.5 -122t21.5 -119q0 -11 -9 -11q-8 0 -13.5 17t-8.5 39.5t-4.5 46t-2.5 35.5q-1 -1 -5 -1q-7 0 -8 10v1q-1 -1 -1 -4l-11.5 -40.5t-12 -47.5t-9.5 -51t-4 -50q0 -29 7.5 -52t26.5 -37q18 4 28.5 25.5
t17 45.5t11 43.5t12.5 19.5q10 0 10 -12q-5 -17 -11 -40.5t-15 -44.5t-21.5 -35.5t-30.5 -14.5q-14 0 -22.5 10.5t-13.5 25.5t-7 32t-2 30q0 60 14.5 119.5t25.5 116.5q-2 -10 -2 -9l1 -1q2 21 3.5 29.5t2 14t1 13t0.5 27.5zM267 620q-2 12 -9 21q-11 0 -18 -7t-12 -18h4
v-28t1 -28q6 -3 6 -10q0 -8 -6 -9q4 -81 11.5 -161l14.5 -161q1 103 1.5 201t0.5 201z" />
    <glyph glyph-name="ampersand" unicode="&#x26;" horiz-adv-x="680" 
d="M319 570q-12 3 -24 5t-23 2q-35 0 -60 -19l-6 -2q-10 0 -10 10q0 6 8 10.5t18.5 7.5t22 4.5t19.5 1.5q43 0 87 -18t75 -39q3 6 8 6t10.5 -7.5t10 -17t7.5 -19.5t3 -14q0 -30 -18 -52.5t-44.5 -40.5t-56.5 -32.5t-53 -29.5l14 -30l15 -32l3 1q6 -25 18.5 -45.5l26.5 -41.5
l32.5 30.5t37.5 39.5t30.5 43t12.5 40q0 14 -9 23l-15 -7.5t-17 -4.5q-9 0 -9 8q0 6 4 8.5t13 5.5l6 16q5 -2 10 -4.5t9 -5.5q34 8 68.5 11.5t69.5 6.5l2 -20q-14 1 -26 1.5t-23 0.5q-23 0 -41 -2.5t-38 -9.5q8 -14 8 -27q0 -20 -17.5 -50.5t-40 -59t-42.5 -49t-26 -20.5
q-8 0 -22 29.5t-37 68.5q-4 1 -8 9t-8 19.5t-7 22.5l-5 18l-11 16q1 1 2 1.5t2 1.5q-10 32 -16.5 64.5t-6.5 65.5q0 20 2.5 40t9.5 40l20 -5q-11 -27 -15.5 -51t-4.5 -47q0 -27 6 -52t16 -50q20 10 48 22.5t54 28.5t44.5 35t18.5 42q0 17 -8.5 28.5t-15.5 24.5l-1 1l-6 -11
q-23 20 -60 40q28 -19 28 -52q0 -26 -15 -55t-36 -56q-4 -2 -7 -2q-9 0 -9 9q0 3 2 7q20 22 37 48.5t17 49.5q0 18 -13.5 30.5t-48.5 16.5zM374 83q18 -21 32 -35.5t28 -25t31 -18t41 -13.5q1 3 9.5 6.5l20 8.5t23.5 11.5t21 14.5q12 11 16.5 20t10.5 23q-33 -15 -71 -15
q-13 0 -31.5 3.5t-36.5 10.5t-32 18t-19 27q-1 -1 -3 -1q-10 0 -10 14q21 30 39 66t40 69.5t49 59.5t66 37l5 -20q-36 -7 -61.5 -28t-45 -49.5t-34.5 -61l-30 -62.5q7 -38 34 -54.5t60 -16.5q29 0 58 10.5t49 29.5q4 3 8 3q9 0 9 -9q0 -8 -11.5 -15t-20.5 -11l10 -10
q-1 0 -6.5 -10t-12.5 -17q-36 -36 -82 -61l2 -6q0 -9 -12 -9q-48 18 -84 43.5t-74 59.5zM361 62q-17 -2 -28.5 -11t-19.5 -23q1 -1 1 -5q0 -3 -3.5 -7.5t-7.5 -9t-7.5 -7.5t-4.5 -3q-5 0 -10 8q-26 -8 -60.5 -15t-68.5 -7q-45 0 -72 14t-48 46q-3 24 -3 47q0 86 43.5 147
t121.5 109l8 -18q-75 -40 -116 -92t-41 -128q0 -28 4 -48q1 1 1.5 1t1.5 1q-1 -1 -1 -6q0 -19 13.5 -31t31.5 -19t36.5 -10t28.5 -3q35 0 68.5 11t67.5 27q12 16 26.5 31t32.5 21zM208 287q-35 -25 -49 -55t-14 -68q0 -17 3 -36q0 -3 -1 -4q1 0 1 -0.5t1 -0.5q6 -11 13 -22
t16.5 -20t21.5 -15t28 -6q26 0 47.5 15t26.5 34l20 -5q-9 -27 -36.5 -39.5t-54.5 -12.5q-30 0 -53 16.5t-46 44.5q-4 5 -4 14q0 51 15 95.5t51 78.5zM179 345q-7 20 -11 42t-4 43q0 42 16.5 77.5t56.5 58.5l6 2q8 0 8 -10q0 -6 -6 -10q-38 -17 -53.5 -45t-15.5 -61
q0 -45 22 -90zM310 109q-18 51 -44 96.5l-53 93.5l-2 6q0 9 9 9q5 0 10 -5q22 -51 48.5 -97.5t50.5 -95.5z" />
    <glyph glyph-name="quotesingle" unicode="'" horiz-adv-x="140" 
d="M69 577l7 -6q-2 0 -2.5 0.5t-1.5 0.5q-2 0 -2 -11q1 -3 1 -5.5t3 -2.5q0 -6 -3 -8.5t-6 -2.5q-10 0 -11 10q2 7 3 12.5t3 11.5h-5q-15 -6 -15 -16q0 -13 9.5 -25.5t9.5 -23.5q0 -4 -2.5 -6t-4.5 -4q5 -22 9 -43.5l8 -44.5l10 49.5l10 49.5l-3 7q3 0 6 11t3 22
q0 7 -3 10.5t-6 6t-6 4.5t-3 6q0 10 10 10q11 0 16 -15t5 -29q0 -19 -6 -32l8 -2q-14 -46 -23 -85.5t-9 -85.5q-5 -8 -11 -8t-9 7v4q0 10 0.5 18t0.5 16q0 18 -1.5 32t-5 28.5t-9 30.5l-13.5 38v2q0 5 6 10q-5 20 -5 37t5.5 29t21.5 12q11 0 20 -4zM58 578l1 1h-1l-2 -2
q1 0 2 1z" />
    <glyph glyph-name="parenleft" unicode="(" horiz-adv-x="290" 
d="M16 267q10 81 47.5 143.5t91.5 121.5l13 -13q18 22 40.5 40t55.5 39l6 2q8 0 8 -10q0 -6 -6 -10q-26 -14 -46 -26.5t-36 -28t-30.5 -36.5t-29.5 -51l9 -1q-3 -31 -14 -59.5t-16 -59.5q-9 -62 -9 -123q0 -37 3.5 -73.5t10.5 -72.5l19 1q2 -61 28 -107.5t69 -88.5
q5 -8 14 -13.5t17.5 -10t14.5 -8.5t6 -8q0 -9 -13 -9q-33 16 -61 36.5t-54 44.5q-5 0 -14.5 9.5t-20.5 23.5t-22.5 30.5l-20.5 30.5l-15 23.5t-5 8.5q-1 -1 -5 -1q-5 0 -10 15.5t-9 40t-8 54.5t-7 58.5t-5 52l-3 35.5h7zM84 -8q20 -39 47 -67q-23 66 -32.5 135.5t-9.5 141.5
q0 32 3 64.5t3 64.5l-16 -3q-1 3 -1 11q0 24 11.5 45.5l22.5 43.5q13 26 24.5 46t24.5 36q-31 -29 -54 -55.5t-38.5 -56t-24 -64t-9.5 -79.5q-3 -6 -7 -7q0 -51 7 -97t18 -94l1 1q12 -14 17 -31.5t13 -34.5zM192 -130q-37 51 -60 109q10 -36 30 -79q0 -1 0.5 -1.5t0.5 -1.5
t-0.5 -1.5t-0.5 -1.5zM113 402q-6 -15 -11 -30t-5 -30l8 30z" />
    <glyph glyph-name="parenright" unicode=")" horiz-adv-x="290" 
d="M94 497l-15 28.5t-16 25t-21.5 20t-31.5 13.5l4 20q1 -1 3 -1l-2 2l-2 6q0 10 9 10q4 0 9 -4.5t10 -11t9.5 -13.5t8.5 -11q21 -15 40.5 -35.5t37.5 -43.5l34.5 -46l31.5 -42l3 2q23 -45 32 -89.5t9 -92.5q0 -27 -2.5 -54t-6.5 -55h3q-2 -11 -4 -28t-5.5 -34t-8 -29.5
t-11.5 -13.5q-26 -45 -55 -88.5t-65 -80.5l-13 -12.5t-17 -14t-19 -11t-20 -4.5q-7 0 -13 3l2 8l-3 14q36 13 62.5 52t45.5 86.5t31 96l20 82.5q7 13 8.5 24.5t1.5 25.5v11q0 72 -20.5 136.5t-50.5 130.5q0 13 9 13q5 0 10 -6q26 -69 46 -139t20 -145q0 -12 -1 -26t-4 -27
q1 -1 1 -3q-5 -15 -7.5 -35t-2.5 -37l-11 1q-20 -64 -47.5 -126t-69.5 -113q24 11 48.5 39t45.5 61t37.5 64t24.5 48q5 11 7.5 17t5.5 15q-6 1 -6 9v3q10 42 16 78.5t6 71.5q0 41 -10 75t-31 76l-23 38l-25.5 40.5t-28.5 39.5t-32 34q11 -20 26 -38z" />
    <glyph glyph-name="asterisk" unicode="*" horiz-adv-x="420" 
d="M212 586l-11 8q-1 0 -5 -6l7 -6q-5 -3 -6.5 -11.5t-1.5 -19.5q0 -19 3.5 -43.5t7.5 -47.5q0 2 2 4q9 17 14.5 35t5.5 36q0 25 -13 50l19 7q8 -26 8 -45q0 -20 -4.5 -38.5t-10.5 -37.5q19 8 31.5 19.5t24.5 30.5l7 -7q12 10 27 15l2 11q20 -7 28 -16t8 -20
q0 -12 -8.5 -25.5t-21.5 -24.5t-29 -18.5t-32 -8.5q15 -15 34.5 -21t37 -13t30 -18t12.5 -35q0 -7 -4 -16t-10.5 -17t-13.5 -13.5t-13 -5.5q-11 0 -20 13t-18 31t-17.5 37.5t-17.5 32.5q-14 4 -27.5 9.5t-25.5 13.5q0 -3 0.5 -5t0.5 -4q-5 -8 -11 -8t-9 7q-13 -12 -30.5 -20
t-28.5 -20q-4 -4 -9.5 -17l-12 -27.5t-14 -25.5t-16.5 -11t-19 19.5t-10 42.5q1 5 4 7.5t6 2.5q6 0 8 -8t3 -18t2.5 -19t7.5 -12q16 11 21 29t13 35q-12 -3 -24 -4.5t-25 -3.5q-5 1 -7.5 4t-2.5 6q0 7 8 10q5 -1 9 -1h9q18 0 31 4t23.5 10.5t20.5 15t21 16.5l1 -2l6 9l5 -4
v2q0 28 -5.5 64.5t-5.5 64.5q0 12 1 17q-6 3 -6 7q0 5 4.5 8t10 5t10.5 2.5t7 0.5h6t8 -1zM226 387q2 -24 5.5 -47l7.5 -47h4v-35q0 -11 -9 -11q-3 0 -4 1q0 -1 0.5 -2t0.5 -2q0 -9 -9 -9q-13 0 -21.5 7.5t-14 18.5t-7.5 23t-2 21q0 26 5 52.5t7 47.5l20 -2l-3 -12q3 5 9 5
q8 0 11 -9zM48 485q-5 2 -5 8q0 18 12.5 25.5t21.5 7.5q12 0 25 -6.5t25 -16t21 -21t13 -21.5l-9 -2l13.5 -6t14.5 -5l-10 -17q-13 8 -25 14.5l-24 12.5q-5 -6 -10 -6h-2q-15 8 -31.5 15.5t-30.5 16.5zM303 452q14 5 25 19t11 27q0 15 -13 19l-2 -5q-2 1 -7 1q-8 0 -13.5 -5
t-10.5 -11.5t-9.5 -11.5t-8.5 -5t-6 2l-24.5 -18t-26.5 -17l-5 -14l8 9q3 -3 6.5 -5.5t7.5 -4.5q-3 3 -3 7q0 10 9 10l6 -2h2q11 0 17.5 -1t11.5 -1q10 0 25 7zM334 311l1 -1l20.5 17t9.5 26q-17 20 -38 29t-44 15q9 -16 17 -32t19 -31l4 3q3 -11 5 -14t8 -11zM206 387
q-5 -18 -10.5 -41t-5.5 -43q0 -17 6.5 -30t25.5 -17l1 -1v21h-2q0 5 0.5 10.5t0.5 10.5q0 44 -16 86v4zM139 465q-3 8 -10 16.5t-15 16t-17 12t-16 4.5q-15 0 -18 -20q7 -9 16 -13q-1 1 -1 3q0 10 11 10q4 0 10.5 -4t13.5 -9t14 -9.5t12 -6.5z" />
    <glyph glyph-name="plus" unicode="+" horiz-adv-x="500" 
d="M242 33l-19.5 -3.5t-22.5 -14.5q-13 0 -13 10q0 5 5 8l6 3q3 54 10 106t7 106v21l17 -2q-26 5 -52 9t-52 4q-40 0 -77 -9q-13 -3 -21.5 -6.5t-13.5 -4.5q-7 0 -7 17q0 11 2 30t11 28l14 -14q-3 -3 -5 -9.5t-3.5 -14t-2.5 -14t-2 -9.5q6 1 12.5 5t11.5 6q20 4 39.5 4.5
t40.5 0.5q36 0 72 -3.5t72 -9.5q0 8 -0.5 15.5t-0.5 15.5l20 -2q-1 -8 -1.5 -16t-1.5 -16q2 -1 4 -1t4 -1q5 5 12 10.5t13 11.5l1 -4q19 2 40.5 5t44.5 3q35 0 58 -10q1 7 1 14v14l-2 -2q-9 8 -30 11t-45 3q-26 0 -50.5 -2t-40.5 -3v-4q-26 5 -33.5 13t-7.5 25v10q0 5 1 11
t5 8q3 27 5 53t2 53q0 2 0.5 5t0.5 5q0 9 -11 9q-6 0 -12.5 -2l-13.5 -4q-2 -33 -3 -65t-1 -64v-28q1 0 2 0.5t2 0.5l2 -20q-2 0 -3 -0.5t-2 -0.5v-8.5t1 -8.5q0 -6 -3 -8.5t-6 -2.5q-10 0 -11 10v14q-20 -5 -39 -11t-43 -6h-18q-11 0 -22.5 0.5t-21 2t-16 4t-6.5 7.5
q0 3 2.5 6t8.5 3q21 -2 41 -6.5t40 -4.5q21 0 39 9t37 15q3 57 3 115v38q0 -1 -5 -1q-9 0 -9 8q0 6 3 7.5l11 5.5q0 4 -0.5 7.5t-0.5 8.5l20 -2q0 -3 -0.5 -5.5t-0.5 -4.5q9 2 18 3t17 2q0 4 -0.5 7t-0.5 7l20 -2l-6 -94.5t-5 -94.5q-2 -6 -10 -8q2 -2 10 -2q3 5 10 5
q10 -2 33 -2h49.5t52 -1.5t41.5 -5.5v3l20 1q-1 -2 -1 -12q1 -1 1 -6l-1 -1q-1 0 -1 1q-3 -20 -3 -39h1q5 -3 5 -8q0 -6 -5 -9q1 -2 1 -4t1 -4q0 -6 -3 -8.5t-6 -2.5q-10 0 -11 10q0 2 0.5 5.5t1.5 8.5q-13 8 -28 11.5t-31 3.5q-24 0 -47 -7.5t-38 -7.5q-2 0 -2 1
q-1 -2 -2 -2.5t-2 -2.5q1 -1 1 -6q0 -9 -8 -9q-7 0 -12 2t-9 3q-3 -30 -3 -56q0 -8 0.5 -16.5t0.5 -16.5h1q-1 -1 -1 -9q0 -3 0.5 -6.5t0.5 -6.5q-4 -4 -5 -15t-1 -21v-16q0 -18 3 -39q3 -3 3 -6q0 1 -2 -5q1 -5 1.5 -10t2.5 -10q0 -6 -3 -8.5t-6 -2.5q-10 0 -11 10v15
q-4 -1 -8 -1t-9 -1l1 -2q-2 0 -4 0.5t-4 0.5zM248 50q10 0 18 4v57q0 9 -1 17.5t-1 17.5t1 11v3q-1 1 -1 8h2q2 23 3 45.5l2 45.5q-9 2 -18 3.5t-18 3.5q-4 -57 -11 -112t-7 -112q2 0 3 1t3 1l1 6q1 -1 14 -1q2 1 5 1.5t5 1.5v-2z" />
    <glyph glyph-name="period" unicode="." horiz-adv-x="220" 
d="M53 87q10 11 23 20t24 9q2 0 2.5 -0.5t2.5 -0.5q8 -2 19 -4.5t20.5 -9t16.5 -17.5t7 -30q0 -35 -21 -54.5t-44 -19.5q-26 0 -41 23.5t-15 52.5q-8 2 -8 9q0 5 4.5 14t5.5 9zM81 91q-13 -13 -17.5 -23.5t-4.5 -26.5t8 -24l13 3l2 -10h4q8 -5 8 -10v-2q1 -1 6 -1
q12 0 22.5 4.5t18.5 12t13 16.5t5 17q0 21 -15.5 37.5t-35.5 16.5q-17 0 -27 -10z" />
    <glyph glyph-name="comma" unicode="," horiz-adv-x="220" 
d="M127 -12q-11 -2 -19.5 -5.5t-19.5 -3.5q-28 0 -39.5 17.5t-11.5 38.5q0 15 5.5 32.5t14.5 32.5t20.5 25t23.5 10q13 0 26.5 -11t23.5 -27t16.5 -34.5t6.5 -33.5q0 -8 -2.5 -15t-8.5 -9q-6 -39 -28.5 -70.5t-54.5 -57.5l-6 -2q-10 0 -10 10q0 5 5 8q35 20 54.5 46.5
t19.5 68.5l13 -2q-6 3 -6 8q0 2 3 7q0 29 -10 54.5t-33 45.5q-28 -2 -46 -24t-18 -48q0 -12 4.5 -22t10.5 -16.5t12.5 -10.5t10.5 -4q9 0 18 5t23 7z" />
    <glyph glyph-name="hyphen" unicode="-" horiz-adv-x="280" 
d="M267 258q-5 -5 -9 -17h10q8 -3 8 -10q0 -3 -2 -6t-7 -4q-3 0 -7 0.5t-7 0.5q-3 -14 -3 -30q0 -5 0.5 -11t1.5 -12q0 -11 -10 -11q-6 0 -9 5q-26 14 -59 14q-32 0 -67 -9t-67 -13v-2q-5 -8 -11 -8q-7 0 -9 8h-7q-10 1 -10 11q0 3 2.5 6t8.5 3q1 -1 9 -1q2 16 3.5 32.5
t1.5 33.5l-2 3l2 2v18l20 -2l-1.5 -7.5t-0.5 -3.5q8 1 17 1h20q19 0 40.5 -0.5t42.5 -1.5t40.5 -2.5t34.5 -2.5l4 12l4 12zM39 171q38 0 76.5 9.5t75.5 9.5q21 0 42 -6l2 20t3 20q-31 4 -72 8t-74 4q-17 0 -30 -1.5t-19 -5.5q-2 -12 -3 -23.5t-1 -24.5v-10zM256 260l6 2t7 3
l5 -20q-8 -2 -18.5 -5t-22.5 -5q-15 -16 -26 -42q32 -2 41 -9l-15 -13q-7 6 -32 9q-6 -14 -10 -27.5t-14 -13.5q-8 0 -8 9q0 5 6 14.5t10 17.5q-13 0 -39 -1.5t-52.5 -4.5t-46 -8.5t-19.5 -12.5q-5 -8 -12 -8q-8 0 -8 9v4l-2 6q0 5 2.5 6t7.5 6q6 12 12 25.5t14 25.5
q-6 3 -6 10q0 10 11 10q2 0 4 -0.5t4 -0.5q13 18 31 29l5 -20q-5 -2 -9 -4.5l-9 -5.5q33 -3 67 -3q22 0 43.5 2t43.5 7q5 7 10.5 13t12.5 11zM36 180q4 12 9 24.5t13 23.5q11 1 23 1h23h32q20 0 39 0.5t39 3.5l-11.5 -19.5t-10.5 -19.5q-18 0 -39.5 -1t-43 -3t-41 -4.5
t-32.5 -5.5z" />
    <glyph glyph-name="slash" unicode="/" horiz-adv-x="240" 
d="M275 628q-13 -3 -37 -17l18 -4q-8 -17 -12.5 -35.5t-12.5 -36.5q-48 -129 -86 -255.5l-80 -258.5q-1 -3 -4 -6q17 5 20 5q-2 -2 -4.5 -2.5t-4.5 -2.5l17 -7q0 -3 -9 -7h-7q-22 0 -46 -13.5t-38 -27.5q-3 -5 -6 -11.5t-6.5 -13t-7.5 -11t-7 -4.5q-10 0 -10 13
q59 93 95 194.5t68 205.5q4 13 12 43.5t18.5 66t22.5 71t24 58.5q-7 -7 -14.5 -15.5t-13.5 -8.5q-9 0 -9 9q0 3 2 7q29 20 56 44.5t57 39.5zM215 540q5 17 8.5 34.5t10.5 33.5q-6 -5 -12 -9.5t-12 -9.5l10 -9q-12 -15 -23 -40.5t-20 -53.5l-17 -54.5t-14 -43.5l-67 -202.5
t-77 -196.5q13 7 26.5 13l25.5 11q-9 0 -9 10v3q24 63 47 131.5l45 136.5l41.5 131z" />
    <glyph glyph-name="zero" unicode="0" 
d="M84 109q2 -29 17.5 -48.5t38.5 -30.5q-20 48 -27 97.5t-7 100.5q0 42 2.5 82.5t4.5 82.5q-2 0 -3 1v-4q-3 -8 -10 -8q-3 0 -6 2.5t-4 7.5q4 52 15 91.5t40 65.5q-40 -21 -66 -53.5t-39 -64.5l8 -2q-10 -23 -15 -46.5t-7 -47.5q0 -2 0.5 -4.5t0.5 -4.5q0 -6 -0.5 -12
t-0.5 -12q0 -51 9 -98t23 -95v-1q0 -2 1 -2q8 -22 17 -44t20 -43v-4q0 -10 -9 -10q-4 0 -8 4q-14 28 -26 65t-21 77.5t-14.5 82.5t-5.5 82q-5 3 -5 9q0 136 105 219q6 4 14 10.5t17 13t18.5 11t18.5 4.5q7 0 13 -3l-2 -4q10 4 22.5 7.5t28.5 5.5v-5q42 -13 66.5 -40
t37.5 -63l4 7q15 -10 23.5 -24t13 -30.5t6 -34t3.5 -33.5q2 -23 3 -44.5t1 -42.5q0 -36 -4.5 -71.5t-15.5 -70.5q1 0 2 0.5t2 0.5q9 0 9 -8q0 -5 -1 -6q-15 -24 -33.5 -46.5t-40.5 -41t-47 -32.5t-53 -20l-2 20q45 3 78 28.5t57 60.5q-5 3 -5 9v3q25 45 34.5 84.5t9.5 82.5
q0 39 -6 87q-2 12 -3.5 26t-4.5 27.5t-8.5 26.5t-14.5 22q8 -26 11.5 -54t6.5 -56q0 -6 -3 -8.5t-6 -2.5q-10 0 -11 10q0 33 -3 67.5t-14.5 64.5t-32.5 52t-57 30q28 -36 43 -71.5t23 -73.5l16 -1q-2 -19 -3 -38t-3 -38q1 -10 1 -20.5t1 -21.5q0 -9 -8 -11
q-2 -14 -3.5 -28.5t-3.5 -28.5l11 -1q-3 -32 -8 -62.5t-16 -58.5v-6q-16 -21 -27.5 -38t-34.5 -31q-13 0 -13 10q0 1 7.5 7.5l17 15t18.5 17.5t13 15q-1 1 -1 6q11 63 19.5 125t8.5 125q0 28 -3 53t-11 49t-23 47.5t-39 49.5l-2 -11h-5q-11 0 -24.5 -5.5t-21.5 -8.5
q-26 -13 -36 -33.5t-12 -43.5l10 -1q-4 -54 -10 -111t-6 -114q0 -42 5.5 -81.5t19.5 -77.5l12 3q2 -26 15 -37t32 -11q13 0 26.5 4t25.5 11q12 0 12 -10q0 -6 -6 -9.5t-14.5 -5.5t-17.5 -2.5t-15 -0.5q-12 0 -15 1q1 -1 1 -6q0 -9 -12 -9l-12 4l-12 4l-6 -2q-2 0 -5.5 3
t-3.5 5q-31 14 -54 37.5t-31 57.5zM236 566q-7 0 -8 1q-57 -6 -81.5 -32t-32.5 -71q4 13 13.5 30.5t24 33t33 26t40.5 10.5h3l-2 -7zM164 24q0 -5 4 -5h2h1q-2 2 -3.5 2.5t-3.5 2.5z" />
    <glyph glyph-name="one" unicode="1" 
d="M267 592q-8 -18 -12 -36l10 1q-1 -14 -1 -28.5v-28.5q0 -94 6 -186t14 -188q0 -6 -3 -8.5t-6 -2.5q-7 0 -9.5 6.5t-2.5 16.5q-1 -8 -1.5 -16t-0.5 -16q0 -14 1 -26.5t3 -21.5q0 1 -2 -7q2 -11 8 -19t26 -9q19 3 37 3q10 0 18.5 -2t8.5 -11q0 -8 -9 -8t-18 2t-19 2h-12v-6
l-8 2t-9 3q-35 -4 -69.5 -15t-68.5 -11q-16 0 -31 4.5t-15 18.5q0 3 8.5 10t20.5 13.5t24.5 12.5t20.5 8q9 37 9 79q0 35 -6 68v-17q0 -15 -1.5 -30t-9.5 -15q-3 0 -6 2.5t-4 7.5l4 53.5l4 53.5v1q9 115 9 231v16q0 7 -1.5 12.5t-7.5 5.5q-18 0 -33.5 -6.5t-27.5 -14
t-20.5 -14t-12.5 -6.5q-12 0 -12 10l21.5 15.5t51 35t61 36.5t52.5 20q0 3 1 4zM259 232q-3 69 -7 138t-6 139q-2 -15 -3 -29.5t-1 -29.5q0 -26 1.5 -52t1.5 -52q-3 -8 -10 -8q-3 0 -6 2.5t-4 7.5q6 57 5 113.5t11 113.5q-15 -2 -40 -15.5t-51 -29.5q15 4 30 4q12 0 14 -8h1
q-3 -69 -7 -135.5t-7 -135.5l5 1q5 -30 8.5 -69t3.5 -77v-18q0 -12 -0.5 -25t-2 -23.5t-5.5 -17t-10 -6.5q-8 0 -8 8q-13 -3 -26 -11t-26 -15q15 -9 36 -9q26 0 56 8l60 16q-7 5 -19 19.5t-12 27.5q0 3 4 7q0 35 3 69t3 69v24z" />
    <glyph glyph-name="four" unicode="4" 
d="M251 586q5 8 12 11q5 17 5 18l20 -2q-1 -2 -1 -4.5t-1 -5.5q5 2 9 3t8 4q12 0 12 -10q0 -3 -2.5 -6t-7.5 -4q-5 1 -10 1.5t-8 0.5t-7 -5.5t-8.5 -13t-8.5 -15.5t-7 -13q-2 -88 -3.5 -172t-4.5 -169q-3 -4 -6 -7v-1h-17q-43 0 -84 -7t-84 -10q-5 1 -7.5 4t-2.5 6q0 7 8 10
q5 0 9.5 -0.5t9.5 -0.5q39 0 76 6t79 11q7 64 9 125t2 124v56q-48 -70 -90.5 -141l-84.5 -146q-12 -21 -27 -43.5t-23 -46.5q25 11 53.5 15t59.5 4q17 0 44 -1t52.5 -4t44 -7t18.5 -10q0 -3 -2 -6t-7 -4l-18 3q-2 -17 -3 -30t-1 -24q0 -14 1.5 -27t4.5 -28q0 -6 -3 -8.5
t-6 -2.5q-10 0 -11 10q0 21 1 42t1 41v15t-1 15q-29 5 -59.5 9t-60.5 4q-31 0 -60.5 -7t-55.5 -25l-5 11q-6 6 -7 7.5t-1 6.5q8 26 26 50.5t31 46.5l47.5 76.5l46.5 73.5l46.5 76t47.5 84q0 10 -0.5 19.5t-0.5 19.5zM410 239q4 -15 4 -38q0 -22 -3 -43.5t-3 -44.5
q0 -3 0.5 -6.5t0.5 -6.5q-3 -8 -10 -8q-3 0 -6 2.5t-4 7.5l2 15.5l2 15.5q-14 2 -25 4t-23 2h-7q-4 0 -6.5 -1.5t-2.5 -8.5q0 -24 2.5 -47.5t5.5 -48.5q0 -6 -3 -8.5t-6 -2.5q-10 0 -11 10q1 7 1 13v13q0 20 -2 40.5l-4 40.5q-3 3 -3 6t2 5q0 3 -0.5 5.5t-0.5 5.5l20 1
q0 -2 -0.5 -3t-0.5 -3q15 -1 30 -3t30 -2q2 12 3 21.5t1 19.5q0 5 -5 7.5t-12 4t-14.5 1.5h-12.5q-21 0 -41 -11l-5 20q13 4 36 4h28h12t12 1v2l4 -1l-2 6l-2 6zM339 573q-3 -88 -5.5 -172t-3.5 -172q-3 -8 -10 -8q-3 0 -6 2.5t-4 7.5q5 66 7.5 128t2.5 125v45.5t-1 45.5z
M342 3h-11q-30 0 -54.5 -10t-52.5 -24h-4q-9 0 -9 8q0 6 15.5 13.5t36.5 14t42.5 11.5t34.5 7z" />
    <glyph glyph-name="two" unicode="2" 
d="M243 581q23 0 38.5 -9t28 -25.5t25.5 -39.5t30 -50q10 0 10 -11q-3 -31 -12.5 -56.5t-24 -49t-32 -46l-35.5 -46.5l-40.5 -54t-49.5 -45l-4 9l-38 -47.5l-39 -46.5q55 0 108.5 5t107.5 9v-1q30 16 52.5 34t22.5 37l11 -1v6l20 -2q-3 -18 -9.5 -34t-14 -32t-14 -32
t-9.5 -34q-2 -2 -3 -3.5t-2 -2.5q14 0 14 -13q0 -8 -9 -8q-16 0 -37.5 6.5l-38.5 11.5h-1q-18 3 -36 5t-36 3q-7 -3 -12 -6t-8 -3q-10 0 -10 9q-48 0 -97 -6q-11 -6 -27 -10t-32 -7l-32.5 -37t-21.5 -17q-9 0 -9 9q0 7 13.5 19t22.5 22q-2 0 -2.5 -0.5t-2.5 -0.5l-2 20
q25 0 37 12l27 27q-3 3 -3 6q0 5 9 10q2 0 4 -0.5t4 -0.5l49.5 57.5t44.5 58.5t35 57t21 52l15 -4q13 22 23.5 49t16.5 59l10 -3q-3 14 -10 35t-17 41.5t-23 37.5t-29 23q3 -5 3 -8q0 -9 -9 -9q-4 0 -6 2q-28 19 -53 19q-36 0 -54.5 -24t-26.5 -72q-5 -8 -12 -8q-8 0 -8 8
l-15 2q2 17 15.5 35.5t21.5 26.5q23 48 63 69t103 27zM262 255q41 50 66 92.5t27 92.5l-2 -1q-13 27 -23 50.5t-20.5 41t-24 27.5t-33.5 10q-28 0 -77 -25q2 -1 5 -1t6 -1l-1 6q7 3 15 3q22 0 42.5 -19t36.5 -45.5t27 -53.5t14 -43q0 -11 -10 -11q-3 0 -4 1
q-15 -42 -34.5 -81.5t-42.5 -77.5q-3 -5 -8 -5h-3l-12.5 -18l-13.5 -18q21 15 37.5 36zM355 24q9 25 21.5 47.5t20.5 46.5q-14 -16 -35 -30t-45 -27l1 -3h-6q-32 -17 -61 -29q26 -2 52.5 -5t52.5 -8q-2 6 -2 5q0 1 0.5 1.5t0.5 1.5zM209 31l28 11t39 16q-48 -1 -95.5 -5.5
t-96.5 -7.5q-6 -6 -11.5 -12.5l-10.5 -12.5q29 8 62.5 9.5t64.5 1.5h20zM168 562l11.5 4l10.5 4q-54 -9 -81 -42q25 15 55 15q-4 3 -4 7q0 7 8 12z" />
    <glyph glyph-name="three" unicode="3" 
d="M259 563q-23 13 -43.5 18.5t-38.5 5.5q-42 0 -73 -26t-51 -71q36 23 65.5 37t63.5 14q29 0 59 -10l4 4q24 -31 36 -58t12 -53q0 -19 -6 -38q16 12 23.5 31t7.5 40q0 25 -10 48.5t-30 38.5q-4 4 -4 9q0 9 9 9q10 0 19 -12t15 -28.5t9.5 -34t3.5 -28.5q0 -32 -13 -60
t-41 -42q-7 -17 -26 -42l-2 -2q21 -8 40 -17.5t33 -24.5q6 2 5 2q6 0 10.5 -11t7 -26t3.5 -31.5t1 -26.5q0 -27 -5 -54t-16 -51t-29 -43t-44 -30q-5 -2 -10.5 -3t-11.5 -3q0 -4 -9.5 -7t-25.5 -4.5t-36.5 -2.5t-42.5 -1q-21 0 -42.5 1.5t-39 6t-29 11t-13.5 17.5q1 6 2 10.5
t2 8.5l1 2q10 28 38 36q-4 4 -9.5 8.5t-5.5 10.5q0 10 9 10q3 0 8 -3q24 -32 57.5 -52t71.5 -20q24 0 48 9l5 -20q-25 -5 -39 -5q-32 0 -61 10.5t-55 28.5l-4 -2q-8 12 -22 12q-9 0 -17 -6t-10 -19h5q-1 -5 -1 -9t-1 -9q17 -14 39.5 -19.5t48.5 -5.5q27 0 54.5 4t50.5 9
l-1 6q11 2 21.5 2t20.5 4q23 8 39 23t25.5 35t14 43t4.5 47q0 17 -2 33.5t-6 33.5l-2 -1q-7 36 -29.5 48.5t-56.5 16.5q-7 4 -7 11q0 5 5 7q-3 1 -3 6q0 3 5 10l11 15.5l11.5 16t7.5 11.5v3q3 0 6 6.5t4.5 15t2.5 16.5t1 10q0 41 -40 87q-39 17 -69 17q-35 0 -60 -17
t-49 -36l-11 15q-5 -9 -8.5 -21.5t-13.5 -12.5q-8 0 -8 9v4q27 63 68 97t96 34q41 0 83 -19zM216 40q27 4 43.5 19.5t25.5 37.5t12 47.5t3 50.5q-3 -6 -9 -6q-7 0 -10 7q-16 48 -47.5 72.5t-82.5 26.5v3q-6 3 -6 9q0 5 17.5 13.5t39 20.5t39 27t17.5 35q0 6 -3 14l19 7
q1 -3 1 -11q0 -15 -9 -30t-23 -28.5t-31 -25t-33 -20.5q42 -12 71 -39t49 -66q0 5 -0.5 10.5t-0.5 10.5q1 5 4 7t6 2q7 0 10 -8q0 -29 -3.5 -61t-13.5 -61.5t-29.5 -52t-50.5 -31.5z" />
    <glyph glyph-name="seven" unicode="7" 
d="M88 598l-3 -15q32 -4 63 -5t63 -1q54 0 105 2t105 2q8 -3 8 -10q0 -3 -2 -6t-7 -4h-6q-37 -60 -65 -123.5t-50 -129.5t-40.5 -133.5l-36.5 -134.5q-5 -8 -12 -8q-8 0 -8 9v4l39.5 132t42 132.5t49 129.5t60.5 123q-17 1 -34 1h-34q-39 0 -78 -1t-78 -1q-44 0 -87 3
q-5 -21 -9.5 -42t-9.5 -42q18 17 38 33.5t37 35.5l14 -14l-33 -25t-31 -25q16 3 38 9.5t46 12.5t49 11t46 5q32 0 51 -13l-5 -8l13 -3l-82 -243l-79 -245q27 12 58 18l2 -20q-17 0 -33.5 -4t-31.5 -9l-6 -21q-5 -8 -12 -8q-8 0 -8 9q0 2 -0.5 2.5t-0.5 1.5t2 3
q-17 -9 -31.5 -22t-20.5 -13q-10 0 -10 10q0 4 8 10t19 12t22.5 11.5l19.5 9.5l85.5 246.5t76.5 248.5q-10 7 -22 9.5t-26 2.5q-21 0 -43.5 -5t-45 -12t-42.5 -14.5t-35 -11.5q-1 -1 -4 -1q-9 0 -9 10v2q-11 -11 -18 -24.5t-14 -13.5q-4 -7 -9 -17.5t-11 -10.5q-10 0 -10 13
q5 8 10.5 15.5t12.5 14.5q8 24 13.5 43t9.5 36t5.5 33.5t1.5 34.5z" />
    <glyph glyph-name="five" unicode="5" 
d="M74 356q0 -1 -1 -1v-2q-3 -7 -10 -7q-9 0 -9 10q0 9 4 18.5t10 19t12.5 18.5t11.5 17q-2 6 -2 7q0 9 11 9l1 -1q34 60 53 123l20 -5q-18 -40 -40 -80l16 18t20.5 21l18.5 17.5t10 7.5v-1q-3 -3 -4 -3l18 -8q-5 -8 -15 -13.5t-18 -11.5l22 6t22 3q26 -2 51 -6l51 -8
q5 18 11 36.5t14 35.5q-32 -2 -64.5 -5.5t-64.5 -3.5q-8 0 -18.5 -0.5t-23.5 -0.5t-26.5 0.5t-24.5 2t-18 4t-7 7.5q0 3 2.5 6t8.5 3q36 -3 62 -5.5t51 -2.5q22 0 45 2t55 7q5 1 18 2t18 6l3 -4q18 -3 18 -15q-4 -10 -16 -16l-3 9q-11 -14 -16 -31t-7 -40q7 -1 19.5 -1.5
t24 -2t20 -4t8.5 -7.5q0 -3 -2 -6t-7 -4q-36 3 -64 9v-1q-5 -8 -12 -8q-8 0 -8 9v5l-46 9.5t-44 4.5q-17 0 -32.5 -7.5t-41.5 -10.5l-1 3q-11 -12 -18 -25.5t-12 -24.5q30 -6 59.5 -13.5t57 -19t52.5 -27.5t45 -39q3 8 9 8q8 0 13.5 -12.5t8.5 -29t4.5 -33t1.5 -24.5
q0 -22 -3.5 -49.5t-10.5 -54.5t-16.5 -50.5t-21.5 -36.5v-3q0 -5 -7 -11.5t-17 -13t-21.5 -12.5t-20.5 -10q-1 -4 -15.5 -9t-34 -10t-40 -8.5t-33.5 -3.5q-22 0 -40 5t-30 22q-3 -1 -12 -1q-18 0 -26.5 10.5t-8.5 20.5t6 20.5t15 19.5t18.5 14.5t17.5 5.5q9 0 19 -8
t20 -17.5l18.5 -17.5t16.5 -9l-1 -3q18 -13 27.5 -21t25.5 -8h6.5t12.5 1t13.5 3t10.5 6h1q17 8 30.5 17t23.5 17l-1 7q16 8 28.5 30t20.5 48.5t12.5 52.5t4.5 42q0 12 -1.5 23.5t-3.5 22.5l-16 -3q-2 9 -2 19t-4 18q-10 28 -34.5 47.5t-56 32t-65.5 19t-63 9.5
q-5 -6 -10 -6q-6 0 -9 6l-14.5 -31.5l-11.5 -26.5q61 -11 116.5 -41.5t98.5 -75.5l9 3q7 -17 18 -31t11 -24q0 -11 -9 -11q-3 0 -6 3v-16q0 -35 -12 -68t-35 -68q-3 -5 -8 -5q-10 0 -10 10l2 6q26 32 39 58t13 55q0 40 -22 73t-55.5 57t-74 38t-77.5 17v12zM130 32
q-8 6 -14 14.5t-12.5 16t-14.5 13t-18 5.5q-16 0 -26 -15.5t-10 -29.5q0 -17 19 -17q14 0 28 6t26 8q12 0 12 -10q0 -9 -8.5 -9t-20.5 -5q17 -20 50 -20q12 0 25 2.5t27 6.5q-18 5 -33 16t-31 16z" />
    <glyph glyph-name="six" unicode="6" 
d="M174 -4q-43 14 -78.5 39t-48.5 70q-9 33 -15 68.5t-6 71.5v8v15t1 15q-9 0 -9 10q0 9 6.5 20t6.5 19q2 14 6 25.5t4 24.5l17 -2q21 36 49 72.5t59.5 66.5t65.5 49t67 19h8.5t8.5 -1q10 4 19.5 6.5t18.5 2.5q15 0 25 -7l-10 -17q-9 6 -20 6q-2 0 -6 -0.5t-9 -1.5l-7 -12
q-7 4 -14 5q-45 -15 -77 -43.5t-55 -64.5t-38 -77.5t-26 -81.5q19 18 42 29.5t48 19.5q-3 3 -3 7q0 9 17 13.5t29 4.5q7 0 10 -1q35 -7 60 -23t42 -38.5t26.5 -51t14.5 -60.5q3 5 9 5q10 0 10 -11q-11 -69 -41 -114.5t-95 -78.5q-18 -9 -33.5 -14t-31.5 -5q-22 0 -47 13z
M194 331q-18 -5 -34 -13.5t-30 -23.5l5 -2q-17 -31 -17 -70q0 -26 7 -54.5t18.5 -55.5t27 -50.5t32.5 -39.5q69 6 99.5 39.5t30.5 99.5v12.5t-1 13.5q1 5 4 7t6 2q7 0 10 -8q0 -81 -35 -126.5t-113 -58.5q10 -3 22 -3q14 0 27.5 4t27.5 10q30 13 50.5 29.5t33.5 34.5t20 38
t11 41h-7q-1 38 -7 73.5t-20 62.5t-38 43.5t-61 16.5q-5 0 -8.5 -0.5t-8.5 -0.5l3 -10h-1q28 -11 44.5 -34.5t24 -52.5t9.5 -60t2 -57q-3 -8 -10 -8q-3 0 -6 2.5t-4 7.5q2 15 3 30.5t1 30.5q0 25 -7 48.5t-19 41.5t-27.5 29t-33.5 11q-14 0 -27 -8zM70 90q12 -37 45 -54.5
t71 -23.5q-15 19 -29.5 45t-26 56t-18.5 61.5t-7 60.5q0 7 0.5 13t1.5 13l-6 -2q-9 0 -9 13q1 1 1.5 2t1.5 2q-4 1 -4 7q0 1 0.5 2t0.5 2l28 80t39 84.5t53.5 73t71.5 46.5q-35 -3 -71.5 -30t-67.5 -61.5t-53 -67.5t-28 -48q-12 -30 -18 -55.5t-6 -57.5q0 -36 6 -71.5
t20 -70.5l1 -2q1 -3 3 -6t2 -7q0 -2 -2 -4z" />
    <glyph glyph-name="eight" unicode="8" 
d="M260 9q5 1 12.5 5.5t15 10t14.5 9.5t11 4q8 0 8 -10q0 -5 -11 -11.5t-26.5 -12.5t-32 -11t-26.5 -7v-7q-13 2 -23.5 4t-20.5 2h-6q2 -6 2 -7q0 -9 -12 -9q-5 2 -9.5 5t-9.5 5h-3q-7 0 -9 8q-43 28 -68.5 69.5t-25.5 86.5q0 30 13.5 59.5t42.5 55.5q9 8 19 19t21 18
q-25 36 -44 76t-34 82q0 13 9 13q5 0 10 -6q17 -64 45 -117t80 -95q2 8 9 8q1 0 2 -0.5t3 -0.5q25 -11 35.5 -15t17 -7.5t13 -10.5t23.5 -24q12 -12 17 -28.5t5 -35.5t-5 -38.5t-13.5 -36t-21 -30t-27.5 -20.5zM255 29q28 11 44 39.5t16 60.5q0 30 -9.5 47.5t-24.5 28.5
t-33 17t-34 12l-8 -13l-11.5 10l-10.5 10q-50 -59 -50 -105q0 -32 23 -61.5t68 -61.5q5 -5 5 -10q15 0 30 6zM107 246q-29 -24 -42 -51t-13 -55q0 -42 25.5 -80t70.5 -61q14 0 26.5 -0.5t24.5 -0.5h13q-45 37 -67.5 70.5t-22.5 70.5q0 49 48 115q-6 5 -11.5 11.5t-10.5 13.5
q-11 -5 -21.5 -15zM245 325q11 24 33 39.5t44.5 29t39 28.5t16.5 38q0 20 -11.5 39t-24.5 38l-1 1l-5 -2q-6 22 -31.5 28t-53.5 6q24 -20 37 -49.5t13 -61.5q0 -17 -5 -35.5t-14 -34.5t-21.5 -27t-27.5 -14l-2 20q13 1 23.5 12.5t18 27t12 32.5t4.5 29q0 26 -14.5 54.5
t-44.5 45.5q-8 -1 -15.5 -1.5t-12.5 -0.5q-8 1 -10 8q-8 -5 -15.5 -12.5l-14.5 -15t-13 -13t-10 -5.5q-9 0 -9 9q0 5 6 11.5t11 14.5q-48 -5 -69.5 -32t-22.5 -78q-3 -8 -10 -8q-3 0 -6 2.5t-4 7.5q8 54 38 87t84 42l1 -10q5 5 18.5 11t24.5 6q7 0 12 -2t11 -4
q38 -3 75 -9.5t60 -29.5l22.5 -42t12.5 -41q0 -24 -17.5 -42t-40 -34.5l-43.5 -32.5t-28 -35zM135 524q-5 -11 -9.5 -18t-4.5 -18q0 -26 21 -56.5t50.5 -61t62 -58.5l55.5 -49l6 11q75 -54 75 -115q0 -50 -50 -105q-4 -2 -7 -2q-9 0 -9 9q0 3 2 7q54 48 54 93t-51 81v-3
q0 -9 -10 -9q-5 0 -8 4q-20 23 -55 56t-69.5 69t-60 72t-25.5 65q0 9 5 17t8 16z" />
    <glyph glyph-name="nine" unicode="9" 
d="M82 527q6 9 16.5 20t24 20t28 15.5t28.5 6.5q13 0 20 -4q63 -9 111 -41t87 -80v-4q0 -10 -9 -10q-6 0 -9 5.5t-7 10.5q10 -19 16.5 -40t11.5 -43l-11 -1q-2 -28 -6.5 -60t-15.5 -69.5t-30 -80.5t-50 -91q7 5 17.5 15.5l21 21.5t19.5 19t13 8q9 0 9 -9t-13 -21.5
t-30.5 -25.5t-35.5 -24t-27 -17q-9 -11 -19.5 -19.5t-18.5 -8.5q-4 0 -8 3q-78 -35 -160 -44l-2 14q-5 -2 -10.5 -2.5t-10.5 -2.5l-2 20q51 5 87 24t62 50q0 4 2 5.5t6 5.5q18 23 32 51t27 60q-1 1 -4 1q-16 -4 -32 -6.5t-32 -2.5q-31 0 -58 11.5t-47 40.5q-4 2 -5 6
q-11 39 -18 74t-7 68q0 32 8.5 64t30.5 67zM117 329q0 -2 0.5 -2.5t0.5 -2.5t-2 -4q17 -42 49.5 -65t77.5 -34q14 5 24.5 9.5t10.5 28.5l14 -2l-3 14q5 2 8.5 27.5t3.5 60.5q0 40 -6 80.5t-22 66.5q-6 10 -11 16t-10 10l-10.5 8l-13.5 10h-18q-6 -5 -13.5 -7t-15.5 -3.5
l-15.5 -3t-13.5 -5.5q-30 -22 -42.5 -50.5t-12.5 -60.5q0 -11 1.5 -22t3.5 -22l1 -3l6 -22t8 -22zM376 408q-10 54 -40 91.5t-79 47.5q34 -38 46.5 -85.5t12.5 -101.5v-18t-1 -18q0 -5 -0.5 -15t-2 -21.5t-5 -21t-10.5 -13.5q-1 -4 -1 -7t-1 -6q6 -3 6 -9t-5.5 -8.5
t-5.5 -8.5h10q8 -3 8 -10q0 -3 -2 -6t-7 -4q-5 0 -8.5 0.5t-7.5 1.5q-25 -72 -88 -121q-3 -3 -7 -3q-1 1 -2 1q-22 -25 -48 -43t-59 -30q78 7 143 39q-1 0 -1 1q8 0 17 7.5t17.5 18t16 21.5t12.5 19q48 69 66.5 140.5t19.5 152.5q0 7 6 9zM189 569q-3 0 -6 0.5t-6 0.5
q-20 0 -39.5 -11.5t-36 -29t-28 -37.5t-15.5 -38q-4 -17 -4 -42q0 -38 10 -75.5t21 -72.5l1 1v-2q0 -1 1 -2v-4q5 -12 15 -21t22 -15.5t25 -9.5t25 -3q20 0 43 6q-38 15 -68 40.5t-48 63.5q-1 1 -1.5 2t-1.5 2l-3 9q-7 19 -12 44h3q-3 18 -3 35q0 31 8.5 60.5t29.5 52.5
q14 16 32 23l32 12q0 6 7 9h-3v2zM221 118q37 34 49 81h-3q-11 -22 -22.5 -42z" />
    <glyph glyph-name="colon" unicode=":" horiz-adv-x="240" 
d="M89 96q6 8 14.5 11.5t17.5 3.5q17 0 32.5 -8.5t21.5 -22.5q15 -8 21 -19.5t6 -23.5q0 -14 -7 -28t-18 -25t-24.5 -18t-26.5 -7q-15 0 -26 8t-18.5 19.5t-11 24.5t-3.5 22q0 32 22 63zM87 295q-23 20 -23 45q0 15 7 29.5t17.5 26t24 18.5t25.5 7q9 0 19 -7.5t18.5 -18
t14.5 -22t6 -19.5q0 -13 -7 -25.5t-18 -22t-25 -15.5t-28 -6q-18 0 -31 10zM145 71q-7 3 -7 11q0 4 4 7q-12 5 -19 5q-21 0 -33.5 -20t-12.5 -48q0 -21 10.5 -37t36.5 -16q25 0 43.5 19t18.5 40q0 13 -9 23.5t-32 15.5zM154 382q-8 5 -8 10q0 3 2 5q-7 7 -16 7t-19 -6
t-18 -16t-13.5 -22t-5.5 -24q0 -14 10 -27t30 -13q11 0 22.5 4.5t20.5 12t15 17t6 19.5q0 15 -16 27l-6 -1q-2 6 -2 5z" />
    <glyph glyph-name="semicolon" unicode=";" horiz-adv-x="240" 
d="M66 -23q-26 20 -26 48q0 15 7 29t18 25t24.5 17.5t26.5 6.5t25 -7.5t21 -16.5l1 2q9 -3 14.5 -12t8 -19.5t3.5 -20.5t1 -15q0 -25 -11.5 -38.5t-29.5 -25.5l-41 -26.5t-47 -41.5q-4 -2 -7 -2q-9 0 -9 9q0 3 2 7q16 15 38.5 26.5t43.5 24t35.5 28t14.5 37.5q0 17 -6 32
q-2 -20 -12 -36q-1 -17 -10.5 -30.5t-23.5 -24.5t-29.5 -20l-28.5 -17h-4q-9 0 -9 8q0 6 11 11.5l25 12.5t28 16t20 22q-20 -15 -49 -15q-7 0 -13.5 1t-11.5 5zM155 391q16 -16 16 -35q0 -12 -6 -22.5t-15.5 -18.5t-21.5 -12.5t-23 -4.5q-14 0 -24 8t-16.5 19.5t-9.5 23
t-3 19.5q0 28 17.5 48t41.5 20q32 0 57 -37zM147 15q10 16 10 32q0 15 -12 23l-7 -3l-3 6h-16q-10 1 -10 9q0 3 1 4q-20 -4 -38.5 -23t-18.5 -43q0 -16 12 -29t29 -13q14 0 26 8.5t22 21.5q0 2 -0.5 3t-0.5 3zM130 387q-4 4 -4 8q0 9 10 9q3 0 4 -1t3 -1q-15 19 -33 19
q-19 0 -33.5 -19.5t-14.5 -42.5q0 -16 11 -32t34 -16q18 0 32 13t14 29q0 20 -23 34z" />
    <glyph glyph-name="less" unicode="&#x3c;" horiz-adv-x="500" 
d="M119 318q10 3 18 10t18 12q5 3 18.5 9l30 13l33 14l27.5 12q61 25 122.5 42.5t124.5 37.5q12 0 12 -10q0 -6 -7 -10l-90 -22t-87.5 -25t-87 -32.5t-86.5 -43.5q13 -1 23 -8q39 -26 72.5 -58.5t64.5 -67.5l61 -71.5t62 -70.5q6 -3 16.5 -7t20 -8.5t16.5 -9t7 -8.5
q0 -9 -13 -9q-3 0 -5 2q8 -8 10 -9.5t2 -6.5q0 -9 -10 -9q-4 0 -10.5 5.5t-13.5 13l-14 15.5t-11 13q-26 15 -50 33l-48 35q-60 43 -120.5 81.5t-127.5 71.5l-26 13.5t-53 19.5l7 19q35 -9 78 -32.5t87.5 -52.5l86.5 -58.5t75 -50.5l28.5 -20t29.5 -19l-54.5 67.5t-56 66
t-58.5 57t-61 39.5q-9 4 -19 5t-20 3q-11 -11 -17 -11zM463 500v-1q-15 -1 -31 -7t-31.5 -14t-30 -16.5t-27.5 -14.5l-153.5 -76.5t-158.5 -64.5h-4q-9 0 -9 8q0 7 8 12q85 23 159 57t152 76q6 3 21 12.5t34 20t38 18.5t32 8q7 0 11 -2z" />
    <glyph glyph-name="equal" unicode="=" horiz-adv-x="500" 
d="M69 262q-15 -2 -24 -7q55 6 109 5.5t109 1.5q32 1 64 2.5t64 2.5q43 0 87 -6q1 4 6 10l14 -14q-6 -5 -14.5 -17.5t-8.5 -29.5v-4h-3q-5 -5 -9 -5t-7 5l-65 -2t-65 -1q-49 0 -106.5 6.5t-117.5 6.5q-42 0 -81 -6.5t-71 -26.5q-13 0 -13 10q0 4 6.5 8t15.5 8t18.5 7t16.5 5
q12 17 31 35.5t39 25.5zM465 396l16 -1q-2 -6 -2.5 -15.5l-1 -18.5t-2.5 -16t-6 -9v-2q0 -8 -9 -9q-31 2 -74 8.5t-90.5 13t-95.5 12t-88 5.5q-32 0 -56.5 -4t-39.5 -14l-8 18l4 2l4 2q-1 1 -1 5q0 7 8 10q26 1 50 6.5t49 8.5q25 2 48.5 2t48.5 1q61 2 122 7t122 7zM22 232
q-1 -1 -2 -2.5l-3 -4.5q14 2 29 3t29 1q54 0 105 -6t102 -6q45 0 88.5 3t89.5 5q2 5 4 9l4 8q-45 7 -92.5 10t-96.5 3q-133 0 -254 -23h-3zM455 347q5 8 7 14t2 12q0 7 -3 22q-31 0 -61 0.5t-61 0.5q-61 0 -119 -4.5t-118 -12.5q45 0 89.5 -5t88 -11l87 -11.5t88.5 -6.5v2z
" />
    <glyph glyph-name="greater" unicode="&#x3e;" horiz-adv-x="500" 
d="M9 513q12 -2 34 -11t46 -20l45.5 -21.5t32.5 -14.5l124 -51.5t124 -48.5q4 -1 17.5 -3t28 -5.5t26 -9t11.5 -13.5q0 -9 -13 -9q-2 1 -4.5 2t-4.5 2l4 -15q-5 0 -8 -5t-5.5 -10.5t-5.5 -10.5t-9 -5q-3 0 -5 2q-13 -2 -28 -6.5t-30 -14.5q-9 -4 -18 -4q-1 0 -2 0.5t-3 0.5
q-43 -14 -93.5 -32.5t-99 -39t-89.5 -41.5t-64 -39q1 -1 1 -4q0 -8 -10 -9h-10q-10 0 -10 9q0 8 15 17.5t26 15.5q-10 0 -10 9q0 5 2 7q29 26 61.5 44t66 32.5t69 26.5t70.5 26q2 1 4.5 2t6.5 3q-20 14 -38 29t-33 26q-45 31 -91.5 58.5l-94.5 54.5q-8 5 -18.5 8.5
t-20.5 8.5q-5 -8 -12 -8q-8 0 -8 9q0 4 0.5 4.5t2.5 4.5l-1 1l8 14q4 11 5.5 20.5t3.5 17.5zM162 434l-35 14l-45 18l-43.5 17t-29.5 10q-2 -4 -2 -10q0 -5 5.5 -9.5t13 -8.5t15.5 -7.5t13 -6.5l107 -67.5l107 -69.5q11 -8 24 -18.5t28 -18.5l33 15t33 10l2 1q2 0 3 -0.5
t3 -0.5l2 -2l2 -2t2 -3q0 -6 -3 -9l-3 -2q-1 0 -1 -0.5t-1 -0.5h-1q-13 -3 -25.5 -7t-24.5 -9q17 -5 24 -5h5q20 8 40.5 14.5t41.5 11.5l9 13t10 11q-15 5 -31 9t-31 10l-123.5 52zM197 189q35 14 69.5 29.5l70.5 30.5q-9 3 -18 9q-39 -15 -76 -27t-72 -26.5t-67.5 -33.5
t-62.5 -47q37 20 78 35t78 30z" />
    <glyph glyph-name="question" unicode="?" horiz-adv-x="410" 
d="M339 366q-5 -5 -9 -5q-3 0 -6 3q0 -1 -1 -1.5t-1 -1.5l9 -8q-20 -22 -42.5 -43t-43 -44.5t-37 -51t-23.5 -61.5q10 1 13 3l-1 -20q-5 1 -8 2l-6 2q-3 -6 -3 -11t-8 -5q-3 0 -6 2.5t-4 7.5v2l-4 -4h-4q-9 0 -9 8q0 6 3.5 8t7.5 3t7.5 2t3.5 5l-9 4q18 30 37.5 58.5t37 57
t32.5 58.5t24 64q3 7 3.5 9.5t0.5 9.5q0 22 -4.5 48.5t-15 50t-29.5 39t-47 15.5q-17 0 -31 -7l-29 -14l1 -1q-14 -10 -27 -22t-13 -29q0 -11 5 -19.5t10.5 -16.5l10.5 -15.5t5 -15.5q0 -12 -5.5 -21.5t-13 -16t-16.5 -10t-16 -3.5q-18 0 -34 14q0 -2 0.5 -5.5t1.5 -8.5
q0 -6 -3 -8.5t-6 -2.5q-8 0 -10 8t-2 16v5q0 71 30.5 121.5t105.5 66.5v-5q8 4 17 4l1 12q35 -5 67.5 -14t59 -25.5t45.5 -41.5t28 -62q1 -1 1 -7q0 -26 -13.5 -44zM241 68l1 -2q0 -1 1 -1q0 -2 -0.5 -3t-0.5 -2q1 -4 1.5 -7.5t0.5 -8.5q0 -21 -12 -41.5t-31 -20.5
q-14 0 -24 6.5t-16.5 16t-9.5 19.5t-3 18q0 14 4.5 27.5t12.5 24t18.5 17t22.5 6.5q3 0 10.5 -2.5t15.5 -7.5t14 -13t6 -19q0 -5 -6 -11zM339 395q14 14 20.5 30.5t6.5 30.5q0 26 -15 46t-36 34.5t-44.5 23.5t-41.5 14q23 -11 39 -30t26 -42t14.5 -49.5t4.5 -51.5
q-5 -15 -13 -30.5l-15 -28.5q7 7 12.5 13.5t12.5 13.5v-1q7 8 12.5 16l11.5 17zM98 537q4 5 8 9.5t9 9.5q-40 -17 -56.5 -50t-16.5 -78v-13q1 1 5 1q5 0 15 -10t24 -10q12 0 21.5 8t9.5 26q0 9 -4 16.5t-9 14t-11 13t-9 13.5q-1 -2 -1 -8q0 -10 6 -19.5t21 -17.5q5 -5 5 -10
q0 -9 -9 -9t-15.5 7t-10.5 16t-6 18t-2 13q0 14 5.5 30t14.5 33zM223 83q4 -2 6 -4q-8 20 -23 20q-9 0 -17.5 -5.5t-15 -14t-11 -19.5t-4.5 -22q0 -5 2 -12.5t6.5 -14.5t12.5 -12t19 -5q12 0 22.5 15t10.5 30q0 11 -7 18t-24 7h-5q-5 1 -7.5 4t-2.5 6q0 8 9.5 9.5t17.5 1.5
q5 0 11 -2zM266 309q4 4 7 7.5l7 8.5l-3 3q-2 -5 -5 -9.5t-6 -9.5z" />
    <glyph glyph-name="at" unicode="@" horiz-adv-x="810" 
d="M72 57q-5 34 -8.5 69.5t-3.5 71.5q0 46 9.5 88.5t37.5 77.5l4 -5q29 66 69 116t100 95l19.5 14.5t19.5 10.5q0 4 2.5 7.5t8.5 3.5q38 -2 76 -2.5t76 -2.5q14 -1 27 -6.5t27 -5.5l-1 -6q6 2 5 2q2 0 2.5 -0.5t2.5 -0.5l39.5 -20t42 -24t39 -28.5t30.5 -34.5q2 8 9 8
q8 0 13.5 -25t9 -58t5 -65.5t1.5 -48.5q0 -36 -3 -70q5 5 9 5q10 0 10 -11l-10.5 -38t-16.5 -36q-9 -12 -26 -32t-38 -41t-43.5 -39t-42.5 -27q0 -7 -7 -8.5t-15 -1.5h-5q-26 0 -46.5 4t-35 15.5t-22 31t-7.5 50.5v8t1 8q-17 -18 -39 -35t-45 -32q3 -3 3 -8q0 -10 -9 -10
q-1 0 -1.5 0.5t-1.5 0.5l-13 3q-9 -5 -16 -11v-2q0 -8 -9 -10t-14 -2l-2 -2q-4 0 -5 1q-11 -3 -19 -3q-2 0 -3 0.5t-3 0.5v-4q0 -8 -9 -8q-8 0 -16.5 11.5t-12.5 16.5h1q-14 23 -20 49.5t-6 54.5q0 45 13.5 86t37.5 70l4 -4q8 21 22.5 47.5t35.5 50t49.5 40t63.5 16.5
q32 0 54 -19l-6 -7q15 -2 28.5 -9t19.5 -20q2 10 5 19t5 19l-6 2q3 5 7 8.5t6 17.5l20 -6q3 0 6 0.5t6 0.5q9 0 19.5 -1t20 -3t16 -5.5t6.5 -8.5q0 -9 -13 -9q-2 2 -8 3l13 -12q-20 -20 -40 -62.5t-36.5 -93t-26.5 -102t-10 -88.5q0 -17 3 -29q0 -11 -9 -11t-11 10.5
t-2 21.5v5q0 28 6 58t15 59.5t19 57.5l18 52q5 15 10.5 33.5t12.5 37.5t15.5 35.5t20.5 28.5q-8 4 -19.5 7.5t-22.5 3.5q-8 0 -14 -3l-44.5 -131l-44.5 -131q0 -2 0.5 -3t0.5 -3h2q-2 -5 -4.5 -15.5t-5 -23t-4.5 -25.5t-2 -23q0 -22 13 -38.5t53 -16.5q3 0 6 0.5t7 0.5l5 12
q6 -2 14 -2q28 0 57.5 20.5t54 46.5t41 49.5t19.5 30.5l-15 4q10 34 14 67.5t4 65.5q0 38 -5 75t-14 75l-12 -4q-6 28 -25 48.5t-42 34.5t-46.5 23t-38.5 14q-13 5 -26.5 12.5t-26.5 9.5q-16 2 -31.5 2.5t-31.5 0.5q-18 0 -36 -1l-37 -2l1 -3q-16 -2 -30.5 -9t-28.5 -16
q-30 -18 -52 -36.5t-39 -39t-31.5 -44.5t-29.5 -54q0 -1 -1 -2q-2 -6 -5.5 -19.5t-8.5 -27t-10.5 -24t-11.5 -10.5q-8 0 -8 8q-12 -25 -17 -52t-5 -56q0 -45 8 -88.5t17 -82.5q0 -7 -5 -9q17 -85 89 -132l6 5q56 -62 132 -85t157 -23l4 17q9 -2 18 -4.5t18 -2.5
q34 1 63.5 19t54 45t44.5 58.5l36 58.5l-5 2q13 17 21 31t11 34q4 7 10 7q10 0 10 -12q-6 -11 -12.5 -21.5t-11.5 -21.5q5 -3 5 -7l-2 -6q-12 -19 -31.5 -46.5t-43.5 -55.5t-50.5 -52.5t-53.5 -37.5h3q12 0 12 -10q0 -8 -10.5 -10t-23.5 -2q-7 0 -13 0.5t-11 0.5
q-43 0 -86.5 4t-85 14t-80.5 28t-72 45q-4 0 -5 1q-51 32 -81.5 84t-39.5 110h4zM433 135q25 54 45 109t37 112h-14v3q-23 30 -50 30q-18 0 -36.5 -12t-35 -29t-30 -36t-21.5 -33q-5 -6 -9 -6q-2 0 -4 2q-1 -2 -2 -3.5t-2 -3.5q-7 -11 -14.5 -27.5t-14 -36t-11 -40.5
t-4.5 -40q0 -33 14.5 -54.5t52.5 -26.5q29 17 56.5 37.5t42.5 46.5q0 2 -0.5 2.5t-0.5 2.5q0 1 0.5 1.5t0.5 1.5zM237 228q-14 -24 -22 -52t-8 -57q0 -26 7.5 -51.5t21.5 -45.5l2 1q7 -16 24 -16q8 0 10 3t9 6l28 14l-5 1q-26 6 -36 28.5t-10 52.5q0 23 4.5 47.5t10.5 46.5
t13 40t12 28q9 18 22.5 33t17.5 35l11 -3q19 22 44.5 40.5t56.5 18.5q-19 8 -34 8q-31 0 -56.5 -13.5t-45 -34.5t-33.5 -47t-21 -51l1 -1l-2 -2q-10 -33 -14 -67.5l-8 -66.5q-3 -8 -10 -8q-3 0 -6 2.5t-4 7.5l3.5 24t3.5 19.5l4 19.5l5 24q1 4 1.5 8t2.5 8z" />
    <glyph glyph-name="guillemotright" unicode="&#xbb;" horiz-adv-x="420" 
d="M200 406q3 3 8 3h4q15 -9 27 -23.5t22.5 -30.5l20.5 -32.5t20 -29.5q6 -7 21.5 -21l32 -29.5t29.5 -29t13 -17.5q0 -9 -10 -9l-6 2l-48 -57l-43 -50t-38 -48t-33 -52q-3 -5 -8 -5q-10 0 -10 13q1 1 1 2t1 2q-1 1 -1 2q0 3 3 6q18 22 29.5 46.5t21 50l18.5 51.5t21 50
l-7 -1q-12 49 -40.5 87.5t-59.5 76.5q-2 2 -2 6q0 3 2 5v1q6 15 6 25q0 6 -1 7zM28 394q0 13 9 13q1 0 1.5 -0.5t1.5 -0.5l14 5q2 -5 7.5 -11t13 -13l15 -14.5l13.5 -13.5q16 -21 28.5 -44l24.5 -45.5t25.5 -44t31.5 -40.5q3 -5 3 -8q0 -9 -9 -9q-3 0 -6 2.5t-5 2.5
q-18 -12 -34.5 -30.5t-32 -39.5t-29.5 -42l-27 -39l-13.5 -18.5t-17.5 -22.5l-16 -19t-9 -8q-10 0 -10 10q0 4 4 10t10 13t12 13l10 10q-3 1 -3 6q0 1 0.5 2t0.5 2q28 52 50.5 105.5t41.5 108.5l-16 -6q-6 23 -16.5 44t-23 41l-25.5 40t-24 41zM330 222q-28 -35 -41.5 -74.5
l-28.5 -81.5l56 66.5t52 69.5q-20 21 -42.5 49.5l-44 56.5t-41 50.5t-33.5 30.5q-1 -1 -1 -5q0 -5 3 -8q0 -4 -2 -6q23 -38 51 -75t46 -79q2 4 4.5 8l5.5 9zM75 46q27 34 52 74t59 68q-8 12 -15.5 24.5t-14.5 25.5q-8 -23 -19.5 -44t-21.5 -43q-12 -27 -22.5 -54.5
l-21.5 -55.5q1 2 2 2.5t2 2.5zM156 238l-45 80.5t-60 69.5q16 -40 40.5 -75t42.5 -75q1 2 1 2.5t1 2.5zM209 395q0 -1 -1 -2l3 1z" />
    <glyph glyph-name="ordmasculine" unicode="&#xba;" 
d="M47.793 542.221q-11.2617 -6.72949 -15.6406 -23.5527t-4.37891 -38.2354q0 -18.9639 2.81543 -38.8457q2.81445 -19.8828 6.56836 -35.7881l3.75391 0.611328q2.50195 -27.5283 19.0811 -42.2109q16.5781 -14.6816 40.3516 -17.7402q-15.6396 20.7988 -24.3984 47.1045
q-1.87695 -1.83496 -4.37891 -1.83496q-5.00586 0 -6.25684 9.17676q-1.25098 9.17578 -1.25098 18.9639v14.0703q0 13.459 1.25098 30.8936q1.25098 17.4355 5.31836 33.9531q4.06641 16.5166 11.5732 30.2812q7.50781 13.7646 19.3945 20.4941
q8.75781 4.89355 18.7676 12.2354q10.0098 7.34082 16.8916 7.34082q13.1377 -0.612305 24.0859 -8.25879t19.707 -19.5762t15.6396 -26q6.88184 -14.0703 11.8867 -27.5283q0.625977 4.28223 5.63086 4.28223q3.75391 0 5.94336 -4.89453q2.18945 -4.89355 3.12793 -11.623
t1.25098 -13.7646q0.313477 -7.03516 0.313477 -11.3174q0 -30.5879 -13.1377 -58.1172q18.1426 17.7412 30.0293 37.9297q11.8857 20.1875 11.8857 47.7168q0 9.17578 -3.44043 15.9053q-3.44141 6.72949 -4.06641 15.2939h0.625q-14.3887 29.3643 -37.5361 45.8818
t-60.6846 18.9639v-0.611328q-16.8906 0 -32.2188 -2.44727q-15.3271 -2.44727 -28.1523 -8.87012q-12.8252 -6.42383 -22.5215 -17.1289q-9.69727 -10.7061 -15.3281 -27.835q-3.12793 -4.89453 -7.50684 -4.89453q-5.00488 0 -5.00488 5.50586v2.44727
q15.6396 32.4229 43.793 46.4932q28.1523 14.0703 62.5605 18.3525v1.83594q39.4131 -4.89453 66.9404 -25.3887q27.5264 -20.4932 45.6689 -51.6934h1.87695v-3.05859q3.12891 -4.89355 7.50781 -13.1523t4.37891 -11.9297q0 -5.50586 -6.25586 -5.50586
q-0.625977 -25.082 -15.6406 -50.7754q4.37988 -0.611328 4.37988 -6.72949q-19.3945 -36.7051 -50.0488 -60.8691q-30.6553 -24.165 -72.5713 -30.8936l-1.25098 7.34082q-0.625977 -0.612305 -1.87695 -0.612305q-26.9014 0.612305 -50.0488 10.7061t-36.9111 30.8936
q-0.625 -0.611328 -3.75391 -0.611328q-3.12793 0 -5.94238 11.9287q-2.81543 11.9297 -5.00488 29.6709q-2.19043 17.7402 -3.44141 38.2344t-1.25098 38.2344q0 27.5293 3.75391 40.0703q3.75293 12.541 16.2656 19.2705zM82.2012 421.704v-6.72852
q0 -21.4121 8.75879 -38.2354t25.6494 -31.5049h4.37988v1.22363l11.8867 4.28223q0 -1.83594 2.50195 -1.83594q12.5127 0 25.3379 3.6709q12.8242 3.6709 21.583 10.3994q-0.625 0.612305 -0.625 1.22363q0 3.05859 6.88086 8.56445q6.88184 5.50586 11.2617 8.56543
q8.75781 12.8467 12.1992 26.917q3.44043 14.0703 3.44043 28.1406q0 4.28223 -0.3125 8.25879t-0.938477 8.87012q-0.625977 -0.611328 -3.12793 -0.611328q-3.12793 0 -5.00488 4.28223l-7.19434 27.2227q-4.69238 17.4355 -12.5127 33.9531
q-7.82031 16.5166 -18.1426 28.752t-24.0859 12.2354q-6.88184 0 -10.0098 -3.05859q-2.50195 -4.89453 -7.82031 -7.95312q-5.31738 -3.05859 -11.5732 -5.81152q-6.25684 -2.75293 -12.5127 -6.11816q-6.25586 -3.36426 -10.6348 -8.87012
q-11.2617 -14.6816 -15.6406 -32.1172q-4.37891 -17.4346 -4.37891 -35.7871q0 -9.78809 0.9375 -19.5762q0.938477 -9.78809 2.19043 -18.9648zM227.343 396.011q-8.75879 -10.3994 -17.5166 -19.2705l-17.5176 -17.4346q21.2705 13.458 35.0342 36.7051zM189.181 358.082
q-2.50293 -2.44727 -6.88184 -4.89453q3.12793 1.22363 5.31738 3.05957q2.19043 1.83496 4.69238 3.05859q-1.25098 -0.612305 -2.50195 -0.612305q-0.625977 0 -0.625977 -0.611328z" />
    <glyph glyph-name="questiondown" unicode="&#xbf;" horiz-adv-x="410" 
d="M64.7871 42.3838q4.81152 5.15918 8.66016 5.15918q2.88672 0 5.77344 -3.0957q0 1.03125 0.962891 1.54785q0.961914 0.515625 0.961914 1.54785l-8.66016 8.25391q19.2451 22.6973 40.8965 44.3643t41.3779 45.9121q19.7275 24.2461 35.6045 52.6191
q15.8779 28.3721 22.6143 63.4521q-9.62305 -1.03223 -12.5098 -3.0957l0.961914 20.6348q4.81152 -1.03125 7.69824 -2.06348l5.77344 -2.06348q2.88672 6.19043 2.88672 11.3496q0 5.1582 7.69922 5.1582q2.88672 0 5.77344 -2.5791t3.84863 -7.73828v-2.06348
l3.84961 4.12695h3.84863q8.66113 0 8.66113 -8.25391q0 -6.19043 -3.36816 -8.25391t-7.2168 -3.0957q-3.84961 -1.03125 -7.21777 -2.0625q-3.36816 -1.03223 -3.36816 -5.15918l8.66113 -4.12695q-17.3213 -30.9521 -36.0859 -60.3564t-35.6045 -58.8096
q-16.8398 -29.4043 -31.2734 -60.3564q-14.4346 -30.9521 -23.0947 -66.0312q-2.8877 -7.22266 -3.36816 -9.80176q-0.481445 -2.5791 -0.481445 -9.80176q0 -22.6973 4.33008 -50.0391q4.33105 -27.3408 14.4346 -51.5869q10.1035 -24.2451 28.3867 -40.2373
q18.2842 -15.9922 45.2275 -15.9922q16.3584 0 29.8311 7.22266l27.9062 14.4434l-0.962891 1.03223q13.4727 10.3174 25.9814 22.6982q12.5098 12.3809 12.5098 29.9199q0 11.3496 -4.81152 20.1191q-4.81055 8.76953 -10.1035 17.0234l-10.1035 15.9922
q-4.81152 7.73828 -4.81152 15.9922q0 12.3809 5.29199 22.1826q5.29297 9.80176 12.5098 16.5078t15.8779 10.3174q8.66016 3.61133 15.3965 3.61133q17.3213 0 32.7178 -14.4453q0 2.06445 -0.481445 5.6748q-0.481445 3.61133 -1.44336 8.77051
q0 6.18945 2.88672 8.76953q2.88672 2.5791 5.77344 2.5791q7.69824 0 9.62305 -8.25391t1.9248 -16.5078v-5.15918q0 -73.2529 -29.3496 -125.355q-29.3496 -52.1035 -101.521 -68.6113v5.15918q-7.69824 -4.12695 -16.3594 -4.12695l-0.961914 -12.3809
q-33.6797 5.15918 -64.9541 14.4443t-56.7744 26.3096q-25.5 17.0234 -43.7842 42.8174q-18.2832 25.793 -26.9434 63.9668q-0.961914 1.03223 -0.961914 7.22266q0 26.8252 12.9902 45.3965zM159.091 349.842l-0.962891 2.06348q0 1.03223 -0.961914 1.03223
q0 2.0625 0.481445 3.09473q0.480469 1.03223 0.480469 2.06348q-0.961914 4.12695 -1.44336 7.73828t-0.481445 8.76953q0 21.666 11.5479 42.8174q11.5479 21.1504 29.8311 21.1504q13.4717 0 23.0947 -6.70605q9.62207 -6.70703 15.877 -16.5078
q6.25488 -9.80176 9.1416 -20.1191t2.88672 -18.5713q0 -14.4443 -4.33008 -28.373t-12.0283 -24.7617t-17.8018 -17.5391q-10.1045 -6.70605 -21.6514 -6.70605q-2.88672 0 -10.1045 2.5791q-7.2168 2.5791 -14.915 7.7373q-7.69824 5.15918 -13.4717 13.4131
t-5.77344 19.6025q0 5.15918 5.77344 11.3496zM64.7871 12.4629q-13.4717 -14.4434 -19.7266 -31.4678q-6.25488 -17.0234 -6.25488 -31.4678q0 -26.8252 14.4336 -47.46q14.4346 -20.6348 34.6426 -35.5947q20.208 -14.9609 42.8213 -24.2461t39.9346 -14.4443
q-22.1318 11.3486 -37.5283 30.9521t-25.0195 43.333t-13.9531 51.0713q-4.33008 27.3408 -4.33008 53.1348q4.81055 15.4756 12.5098 31.4678l14.4336 29.4043q-6.73633 -7.22168 -12.0283 -13.9287q-5.29297 -6.70605 -12.0283 -13.9277v1.03125
q-6.73633 -8.25391 -12.0283 -16.5078l-11.0664 -17.5391zM296.696 -134.043q-3.84863 -5.15918 -7.69824 -9.80176q-3.84863 -4.64355 -8.66016 -9.80176q38.4912 17.5391 54.3691 51.5869q15.877 34.0479 15.877 80.4756v13.4121q-0.961914 -1.03125 -4.81152 -1.03125
q-4.81152 0 -14.4336 10.3174q-9.62305 10.3174 -23.0947 10.3174q-11.5479 0 -20.6895 -8.25391t-9.1416 -26.8252q0 -9.28613 3.84961 -17.0234q3.84863 -7.73828 8.66016 -14.4443q4.81152 -6.70703 10.585 -13.4131t8.66016 -13.9287q0.962891 2.06445 0.962891 8.25391
q0 10.3184 -5.77344 20.1191q-5.77441 9.80176 -20.208 18.0557q-4.81152 5.15918 -4.81152 10.3174q0 9.28516 8.66016 9.28516q8.66113 0 14.916 -7.22168q6.25391 -7.22168 10.1035 -16.5078t5.77344 -18.5713q1.9248 -9.28516 1.9248 -13.4121
q0 -14.4453 -5.29297 -30.9531q-5.29199 -16.5078 -13.9521 -34.0469zM176.411 334.365q-3.84863 2.06445 -5.77344 4.12695q7.69824 -20.6348 22.1328 -20.6348q8.66016 0 16.8398 5.6748q8.17871 5.6748 14.4336 14.4443t10.5859 20.1191q4.33008 11.3496 4.33008 22.6982
q0 5.15918 -1.9248 12.8965q-1.9248 7.73828 -6.25488 14.96q-4.33008 7.22266 -12.0283 12.3809q-7.69824 5.15918 -18.2832 5.15918q-11.5479 0 -21.6514 -15.4756q-10.1045 -15.4766 -10.1045 -30.9531q0 -11.3486 6.73633 -18.5703q6.73633 -7.22266 23.0947 -7.22266
h4.81152q4.81152 -1.03125 7.2168 -4.12695q2.40625 -3.0957 2.40625 -6.19043q0 -8.25391 -9.1416 -9.80176q-9.1416 -1.54688 -16.8408 -1.54688q-4.81055 0 -10.585 2.0625zM135.033 101.193q-3.84863 -4.12695 -6.73535 -7.73828l-6.73633 -8.76953l2.88672 -3.0957
q1.9248 5.1582 4.81152 9.80176q2.88672 4.64258 5.77344 9.80176z" />
    <glyph glyph-name="Agrave" unicode="&#xc0;" horiz-adv-x="640" 
d="M375 493q11 -57 25 -112.5t33 -109.5l9 -14t5 -12q0 -5 -2 -7l12 -31.5t14 -30.5l12 5q12 -45 34 -84t40 -81q7 -1 17 -1.5t19.5 -1.5t16 -3.5t6.5 -8.5q0 -8 -9 -9l-21.5 4l-21.5 4q5 -11 8 -22.5l6 -23.5q0 -11 -10 -11q-5 0 -8.5 7.5t-6 17.5t-4 20.5t-2.5 15.5
q-18 3 -36.5 5.5t-36.5 3.5q-3 -1 -6.5 -2t-6.5 -2l3 -6q0 -11 -10 -11q-2 0 -6.5 2.5t-4.5 7.5l-31.5 -12t-32.5 -11l-2 20q17 1 32.5 5.5t30.5 11.5q-7 36 -13 72t-15 71h-2q-8 0 -13.5 11.5t-10.5 19.5q-13 0 -26 1t-26 1q-21 0 -36.5 -1.5t-29.5 -4.5t-28 -7.5
t-32 -11.5h-2q-11 0 -11 9q0 10 23.5 15t54 8t61 4t45.5 3q-2 4 -3 7t-2 7q-29 -4 -52.5 -5t-46.5 -3.5t-47.5 -9t-55.5 -20.5q-22 -23 -40 -50t-18 -55q0 -24 13 -43q15 1 28.5 1t22.5 1q8 -3 8 -11t-9 -9h-6v-11l-29 3.5t-27 1.5q-31 0 -60 -13q-13 0 -13 9q0 4 1 5
q-19 -6 -26 -16l-14 14q8 8 26 13t40 8q-6 3 -6 10q0 4 6 11.5t9 12.5q-3 1 -3 6q0 1 0.5 1.5t0.5 1.5l36 72q-4 1 -4 7q0 1 0.5 2t0.5 2q40 82 75 168q-1 0 -1 2t1 3l9 18l22 56.5l22 56.5l7 -2l21.5 52l27.5 66l7 -2q0 1 -0.5 1.5t-0.5 1.5l20 4q9 -48 27 -105.5
t44 -115.5q-10 32 -18.5 64.5l-16.5 64.5zM165 201q3 3 5.5 6t5.5 7l7 -7q45 12 94 15t92 13l-3 12q-1 -1 -4 -1q-8 0 -11 7q-5 22 -11 53t-14 64t-20 63.5t-29 51.5h-2q-11 -22 -24 -56t-21 -68q-26 -38 -44.5 -83.5l-36.5 -87.5h1l-7.5 -14.5t-6.5 -14.5q5 8 14.5 22
t14.5 18zM412 226q-1 -1 -5 -1q2 -4 2.5 -7.5t2.5 -6.5q1 0 2 0.5t2 0.5l5 -20q-1 0 -1.5 -0.5t-1.5 -0.5q11 -39 18.5 -79t18.5 -80q4 -1 7.5 -1t8.5 -1l12 6q11 0 11 -9q12 -2 23.5 -4.5t23.5 -4.5q-5 14 -11 26l-13 25q-1 -1 -4 -1q-8 0 -20 21.5t-24 49.5t-22.5 56
l-15.5 41q0 1 -0.5 1t-0.5 1q-25 51 -44 101.5l-39 104.5l-22.5 56.5t-19.5 56.5q-12 -22 -22 -44l9 4q17 -58 36.5 -115l38.5 -117v2q6 -23 13 -38l15 9l6 -15l6 3zM79 31q2 0 4 0.5t4 0.5q-1 1 -1 4q0 2 0.5 5t0.5 5l-6 -12q-2 -2 -2 -3zM106 34l-1 -1zM189 771l2 4
q13 13 44 13q18 0 26 -5l8.5 -17.5l17 -35l18.5 -38l13 -26.5q3 -3 6.5 -6t6.5 -6l-15 -13q-5 5 -10 13t-10 14q-17 25 -36 46.5t-48 36.5q-5 3 -5 7t4 8h-2zM222 768q17 -12 30.5 -26.5l27.5 -30.5l-15.5 42.5t-19.5 18.5q-12 0 -23 -4z" />
    <glyph glyph-name="Aacute" unicode="&#xc1;" horiz-adv-x="640" 
d="M375 493q11 -57 25 -112.5t33 -109.5l9 -14t5 -12q0 -5 -2 -7l12 -31.5t14 -30.5l12 5q12 -45 34 -84t40 -81q7 -1 17 -1.5t19.5 -1.5t16 -3.5t6.5 -8.5q0 -8 -9 -9l-21.5 4l-21.5 4q5 -11 8 -22.5l6 -23.5q0 -11 -10 -11q-5 0 -8.5 7.5t-6 17.5t-4 20.5t-2.5 15.5
q-18 3 -36.5 5.5t-36.5 3.5q-3 -1 -6.5 -2t-6.5 -2l3 -6q0 -11 -10 -11q-2 0 -6.5 2.5t-4.5 7.5l-31.5 -12t-32.5 -11l-2 20q17 1 32.5 5.5t30.5 11.5q-7 36 -13 72t-15 71h-2q-8 0 -13.5 11.5t-10.5 19.5q-13 0 -26 1t-26 1q-21 0 -36.5 -1.5t-29.5 -4.5t-28 -7.5
t-32 -11.5h-2q-11 0 -11 9q0 10 23.5 15t54 8t61 4t45.5 3q-2 4 -3 7t-2 7q-29 -4 -52.5 -5t-46.5 -3.5t-47.5 -9t-55.5 -20.5q-22 -23 -40 -50t-18 -55q0 -24 13 -43q15 1 28.5 1t22.5 1q8 -3 8 -11t-9 -9h-6v-11l-29 3.5t-27 1.5q-31 0 -60 -13q-13 0 -13 9q0 4 1 5
q-19 -6 -26 -16l-14 14q8 8 26 13t40 8q-6 3 -6 10q0 4 6 11.5t9 12.5q-3 1 -3 6q0 1 0.5 1.5t0.5 1.5l36 72q-4 1 -4 7q0 1 0.5 2t0.5 2q40 82 75 168q-1 0 -1 2t1 3l9 18l22 56.5l22 56.5l7 -2l21.5 52l27.5 66l7 -2q0 1 -0.5 1.5t-0.5 1.5l20 4q9 -48 27 -105.5
t44 -115.5q-10 32 -18.5 64.5l-16.5 64.5zM165 201q3 3 5.5 6t5.5 7l7 -7q45 12 94 15t92 13l-3 12q-1 -1 -4 -1q-8 0 -11 7q-5 22 -11 53t-14 64t-20 63.5t-29 51.5h-2q-11 -22 -24 -56t-21 -68q-26 -38 -44.5 -83.5l-36.5 -87.5h1l-7.5 -14.5t-6.5 -14.5q5 8 14.5 22
t14.5 18zM412 226q-1 -1 -5 -1q2 -4 2.5 -7.5t2.5 -6.5q1 0 2 0.5t2 0.5l5 -20q-1 0 -1.5 -0.5t-1.5 -0.5q11 -39 18.5 -79t18.5 -80q4 -1 7.5 -1t8.5 -1l12 6q11 0 11 -9q12 -2 23.5 -4.5t23.5 -4.5q-5 14 -11 26l-13 25q-1 -1 -4 -1q-8 0 -20 21.5t-24 49.5t-22.5 56
l-15.5 41q0 1 -0.5 1t-0.5 1q-25 51 -44 101.5l-39 104.5l-22.5 56.5t-19.5 56.5q-12 -22 -22 -44l9 4q17 -58 36.5 -115l38.5 -117v2q6 -23 13 -38l15 9l6 -15l6 3zM79 31q2 0 4 0.5t4 0.5q-1 1 -1 4q0 2 0.5 5t0.5 5l-6 -12q-2 -2 -2 -3zM106 34l-1 -1zM436 782q1 -1 1 -5
q0 -7 -6 -10q-21 -5 -42.5 -23t-41 -38l-36.5 -36.5t-29 -17.5q-5 1 -6 6q1 18 7.5 34.5t14.5 33.5t15 34.5t9 36.5l20 -2l-3 -12l34.5 5t38.5 3q10 0 17.5 -1t11.5 -5zM289 667q9 6 23 20.5l30 31l33 33t33 26.5q-17 -1 -40 -6.5t-36 -10.5q-11 -26 -24.5 -50t-18.5 -44z
" />
    <glyph glyph-name="Acircumflex" unicode="&#xc2;" horiz-adv-x="640" 
d="M375 493q11 -57 25 -112.5t33 -109.5l9 -14t5 -12q0 -5 -2 -7l12 -31.5t14 -30.5l12 5q12 -45 34 -84t40 -81q7 -1 17 -1.5t19.5 -1.5t16 -3.5t6.5 -8.5q0 -8 -9 -9l-21.5 4l-21.5 4q5 -11 8 -22.5l6 -23.5q0 -11 -10 -11q-5 0 -8.5 7.5t-6 17.5t-4 20.5t-2.5 15.5
q-18 3 -36.5 5.5t-36.5 3.5q-3 -1 -6.5 -2t-6.5 -2l3 -6q0 -11 -10 -11q-2 0 -6.5 2.5t-4.5 7.5l-31.5 -12t-32.5 -11l-2 20q17 1 32.5 5.5t30.5 11.5q-7 36 -13 72t-15 71h-2q-8 0 -13.5 11.5t-10.5 19.5q-13 0 -26 1t-26 1q-21 0 -36.5 -1.5t-29.5 -4.5t-28 -7.5
t-32 -11.5h-2q-11 0 -11 9q0 10 23.5 15t54 8t61 4t45.5 3q-2 4 -3 7t-2 7q-29 -4 -52.5 -5t-46.5 -3.5t-47.5 -9t-55.5 -20.5q-22 -23 -40 -50t-18 -55q0 -24 13 -43q15 1 28.5 1t22.5 1q8 -3 8 -11t-9 -9h-6v-11l-29 3.5t-27 1.5q-31 0 -60 -13q-13 0 -13 9q0 4 1 5
q-19 -6 -26 -16l-14 14q8 8 26 13t40 8q-6 3 -6 10q0 4 6 11.5t9 12.5q-3 1 -3 6q0 1 0.5 1.5t0.5 1.5l36 72q-4 1 -4 7q0 1 0.5 2t0.5 2q40 82 75 168q-1 0 -1 2t1 3l9 18l22 56.5l22 56.5l7 -2l21.5 52l27.5 66l7 -2q0 1 -0.5 1.5t-0.5 1.5l20 4q9 -48 27 -105.5
t44 -115.5q-10 32 -18.5 64.5l-16.5 64.5zM165 201q3 3 5.5 6t5.5 7l7 -7q45 12 94 15t92 13l-3 12q-1 -1 -4 -1q-8 0 -11 7q-5 22 -11 53t-14 64t-20 63.5t-29 51.5h-2q-11 -22 -24 -56t-21 -68q-26 -38 -44.5 -83.5l-36.5 -87.5h1l-7.5 -14.5t-6.5 -14.5q5 8 14.5 22
t14.5 18zM412 226q-1 -1 -5 -1q2 -4 2.5 -7.5t2.5 -6.5q1 0 2 0.5t2 0.5l5 -20q-1 0 -1.5 -0.5t-1.5 -0.5q11 -39 18.5 -79t18.5 -80q4 -1 7.5 -1t8.5 -1l12 6q11 0 11 -9q12 -2 23.5 -4.5t23.5 -4.5q-5 14 -11 26l-13 25q-1 -1 -4 -1q-8 0 -20 21.5t-24 49.5t-22.5 56
l-15.5 41q0 1 -0.5 1t-0.5 1q-25 51 -44 101.5l-39 104.5l-22.5 56.5t-19.5 56.5q-12 -22 -22 -44l9 4q17 -58 36.5 -115l38.5 -117v2q6 -23 13 -38l15 9l6 -15l6 3zM79 31q2 0 4 0.5t4 0.5q-1 1 -1 4q0 2 0.5 5t0.5 5l-6 -12q-2 -2 -2 -3zM106 34l-1 -1z" />
    <glyph glyph-name="s" unicode="s" horiz-adv-x="340" 
d="M52 19q-5 -5 -6.5 -7.5t-6.5 -2.5q-8 0 -8 9v4q14 23 14 48q0 12 -2.5 24.5t-4.5 26.5l20 1q-1 -2 -1 -11l4 1q6 -44 35.5 -62t67.5 -20q-2 6 -2 5q0 10 11 10q6 -2 11.5 -2.5t10.5 -1.5q35 8 41 34q-2 0 -2 2q-18 19 -38 35l-40.5 32l-40.5 32t-37 34h-3
q-8 0 -13.5 11.5t-9.5 26.5t-6 28.5t-2 16.5q0 28 14.5 53.5t41.5 56.5l-2 6q0 8 9 10.5t17 2.5q17 0 32.5 -5.5t31 -12l31 -12.5t33.5 -7l-4 -20q-15 3 -28.5 10l-26.5 13.5t-26 12t-28 5.5q-13 0 -28 -6h-1l7 -7q-4 -3 -7 -6l-6 -6l12 -7q-13 -16 -21.5 -32t-8.5 -32
q0 -12 6 -24l4 4q21 -20 54 -40.5t65.5 -43t57.5 -48t30 -55.5q0 -11 -10 -11q-7 0 -10 7q-2 -5 -2.5 -9t-2.5 -8q12 0 12 -8t-9.5 -21.5t-26 -27t-39.5 -24t-50 -13.5q-1 -7 -10 -7q-5 0 -13.5 6.5t-19.5 14t-23.5 14t-24.5 6.5q-13 0 -20 -7zM279 120q-8 21 -26.5 39.5
t-42.5 35t-50 31.5t-48 29q-4 -7 -10 -7q-8 0 -13 7.5t-8.5 17.5t-5 19.5t-1.5 14.5q0 30 17 61q-17 -18 -26.5 -34t-9.5 -34q0 -25 18 -56l6 2q6 -23 23 -42.5t39.5 -36.5t47 -33t44.5 -31q-2 3 -6 8.5t-7.5 11.5l-6.5 11.5t-3 8.5q0 9 9 9t13.5 -8.5t7.5 -19.5t4.5 -21
t4.5 -13q4 -5 4 -8q0 -1 -3 -6t-7.5 -11.5l-9 -13t-8.5 -10.5q23 4 32.5 23t9.5 57zM273 301q4 -4 4 -9q0 -1 -0.5 -1.5t-0.5 -1.5l2.5 -5t0.5 -4q0 -10 -9 -10q-5 0 -8.5 5.5t-5 13t-2 15.5t-0.5 13v12q-10 26 -33 33.5t-52 7.5q-8 0 -14.5 -0.5t-14.5 -0.5q-10 1 -10 11
q0 3 2.5 6t8.5 3q35 -4 65.5 -10t50.5 -29q2 16 4.5 30.5t2.5 29.5l20 -2q-2 -15 -7 -31t-8 -32h5q-2 -5 -2.5 -8.5t-1.5 -6.5l5 -12t5 -15zM55 36q2 1 10 1q21 0 42 -12t41 -20l4 2q0 -4 8 -4h4q16 0 34 6q-40 5 -79 17.5t-62 44.5v-14v-9q0 -8 -2 -12zM210 25q2 -2 2 -7
v-3q8 4 16 8.5t15 10.5q-14 -8 -33 -9z" />
    <glyph glyph-name="quoteleft" unicode="&#x2018;" horiz-adv-x="280" 
d="M140 448q-16 7 -28 21t-22.5 31t-20 34.5t-20.5 31.5q-8 3 -8 9q0 4 7 8.5t16.5 7.5t19.5 5t17 2q17 0 30 -10l8 5q8 -17 10 -36t3.5 -37.5t3.5 -37t10 -34.5h2q11 0 11 -11q0 -6 -4.5 -9t-9.5 -3q-8 0 -12 8t-5 16l-6 -2q-1 1 -2 1zM145 483q0 29 -2.5 47.5t-11.5 37.5
l-7 -1q-2 11 -7 14.5t-13 3.5q-9 0 -19.5 -3.5t-19.5 -8.5q8 -14 16 -30.5t17 -32t20.5 -27.5t26.5 -16v16z" />
    <glyph glyph-name="dagger" unicode="&#x2020;" horiz-adv-x="160" 
d="M193 333q1 17 1 33.5v30.5l-1 2q-7 2 -8 10v12q0 19 -3 37.5t-13 34.5q1 -1 2.5 -5t1.5 -7q0 -10 -10 -10q-5 0 -9 8.5t-7 20.5t-4.5 25t-1.5 22q0 14 6.5 30t18 29.5t27.5 22t36 8.5q11 0 20.5 -9t16 -22t10 -27t3.5 -24q0 -13 -6 -26t-6 -28l-12 1q-19 -19 -29 -36
t-12 -41v-21q9 -4 18 -4q2 0 3.5 0.5t3.5 0.5q-2 1 -11 1l1 20q9 -2 18 -5l18 -6q9 5 17.5 12.5l16.5 14.5l11 -16q-8 -4 -14.5 -8l-14.5 -9q11 -4 28 -4h7q8 -3 8 -10q0 -3 -2 -6t-7 -4q-5 0 -6 1q7 -5 15 -9t15 -4q14 0 21 12.5t7 28.5t-8 29t-25 13q-15 0 -28 -8.5
t-25 -8.5q-9 0 -9 8q0 5 7 9.5t16 7.5t18.5 5t14.5 2q23 0 36.5 -16t13.5 -40q0 -23 -10.5 -41.5t-28.5 -18.5q-8 0 -19.5 5.5t-22.5 9.5l6 17q-11 3 -21.5 6.5t-20.5 6.5q-20 -11 -39 -11q-7 0 -9 1q-1 -24 -2.5 -48.5t-1.5 -48.5v-12q-3 -8 -10 -8q-3 0 -6 2.5t-4 7.5
q1 8 1.5 16t1.5 19l-11.5 -17t-12.5 -16q0 -54 4 -105.5t10 -105.5q5 52 14 101.5t26 97.5q2 7 9.5 10.5t13.5 8.5q-11 16 -18.5 33t-12.5 34l20 1v-8q0 -14 5 -23t11.5 -15.5l11.5 -11.5t5 -10q0 -4 -3 -7t-6 -3q-1 0 -1.5 0.5t-1.5 0.5l4 -5q-14 -10 -22.5 -23t-14 -28
t-8.5 -31.5l-6 -32.5q-8 -48 -12 -94.5t-5 -94.5l3 -45q0 -7 -4 -8q0 -18 0.5 -35.5t0.5 -35.5q-3 -8 -10 -8q-3 0 -6 2.5t-4 7.5l2 41t1 43q0 81 -8 157.5t-14 157.5q0 2 -0.5 5.5t-1.5 8.5q-7 -5 -12.5 -11.5t-10.5 -6.5q-10 0 -10 10q0 6 11 12.5t20 14.5q-1 5 -1.5 9.5
t-0.5 9.5q0 14 4.5 24.5t17.5 12.5l5 -20q-5 -1 -5.5 -1t-0.5 -5v-7q9 13 15 33zM159 564q-2 -5 -2 -9v-7v-8q0 -14 6 -29l12 7q9 -16 15 -38.5t10 -43.5l2 1q2 7 8.5 21.5t14 29.5t15.5 26t13 11q4 14 8.5 26.5t4.5 24.5q0 4 -2.5 13t-8.5 17t-15.5 14.5t-22.5 6.5
q-11 0 -21 -6.5t-18 -16t-13 -20.5t-6 -20zM148 407q7 2 13 2.5t11 2.5l2 -20q-9 0 -24.5 -2t-31 -6t-28 -11t-15.5 -17q-5 -8 -12 -8q-4 0 -7 4h-3q-5 0 -8 5t-5 12t-3 14.5t-1 12.5q0 15 4 29.5t9.5 26.5t12 19.5t12.5 7.5q10 0 15.5 -8.5t11 -18t14 -18t26.5 -8.5h5z
M61 369q14 14 38 23t46 14q-25 2 -36.5 11.5t-16.5 20t-7.5 19t-9.5 8.5q-13 0 -17.5 -14.5t-4.5 -32.5q0 -31 8 -49z" />
    <glyph glyph-name="daggerdbl" unicode="&#x2021;" horiz-adv-x="160" 
d="M154 75l-8 2q0 1 2 3l-7 8q14 13 23 24t14.5 25t9 33t6.5 49q-1 1 -1 4q0 8 1 17.5t1 18.5q0 19 -2.5 36.5t-16.5 22.5q-9 3 -19 3t-19 2l-3 -3l-6 -2q-10 0 -10 10q0 5 4 7t8 6l2 4q1 -1 2 -1q29 23 46 57q-1 2 -1.5 3.5t-1.5 3.5v4q-14 -4 -25.5 -11.5l-23.5 -15.5
q-7 -18 -17 -34t-30 -18q-1 1 -2 1q-2 0 -4 1q-20 26 -28.5 57.5t-12.5 63.5q-6 1 -6 9q0 5 1.5 5.5t2.5 3.5v3h2q11 14 18.5 20t14.5 6q13 0 26 -14.5t37 -29.5q12 -8 28 -8t34 -8q0 2 3 5q-5 35 -20.5 63.5l-32.5 60.5q0 13 9 13q4 0 12 -14t16.5 -33t16 -39l11.5 -31
q0 1 0.5 4t1.5 8q-5 2 -5 8v4q16 20 22 38.5t6 41.5q0 5 -0.5 9.5t-0.5 9.5l11 -1q-10 13 -24.5 24.5t-26.5 11.5q-9 0 -15 -7.5t-7 -26.5l-20 2q6 23 17 32.5t25 9.5q17 0 36 -12t35 -29q0 -1 0.5 -2t0.5 -2q0 -11 -11 -11q-2 0 -3 1q-3 -19 -7 -37t-11 -36q4 -3 4 -8
q0 -4 -2 -5.5t-5 -3.5t-5 -6t-2 -13v-6q0 -7 2 -11q19 5 35 13.5t36 14.5l1 -14q3 0 5.5 0.5t5.5 0.5q26 0 38 -14.5t12 -33.5q0 -22 -16 -39.5t-47 -17.5q-6 0 -7.5 4.5t-7.5 14.5l5 2q-19 16 -36.5 21t-33.5 5l-2 -2q0 -9 3.5 -20t8.5 -21t12 -16.5t15 -6.5l-1 -5
q5 -3 10 -5.5t12 -3.5q-10 -4 -13 -14q-1 0 -3 2q-20 -14 -25.5 -25t-5.5 -31l3 -12l4 -16l3.5 -13.5l1.5 -5.5q0 -1 -0.5 -1.5t-0.5 -1.5v-1q0 -5 -1 -6q1 -2 1 -3.5t1 -3.5q0 -8 -4 -19.5t-4 -22.5q1 -14 4 -27.5t15 -24.5l12 -12q-13 -8 -23 -16t-18 -22q5 -8 6.5 -15
t3.5 -20q0 -8 -4.5 -9t-4.5 -6h1q0 -2 -0.5 -2.5t-0.5 -1.5q6 -1 12 -1.5t13 -0.5l5 13q9 -4 14 -10t25 -6h10.5t10.5 1q8 -3 8 -10q0 -3 -2 -6t-7 -4q-7 1 -13 2l-12 2q8 -10 16.5 -17t19.5 -7q13 0 22.5 4.5t15.5 10.5t8.5 12t2.5 9q0 9 -6 17.5t-16.5 15.5t-23.5 12
t-26 6q-8 0 -9 7q-11 -4 -20.5 -14t-22.5 -21q-13 0 -13 10q0 2 8 8.5t18.5 14t22 14t18.5 9.5l1 -9q34 -8 57 -25.5t23 -38.5q0 -14 -11.5 -27.5t-38.5 -25.5q-6 -2 -11 -2q-15 0 -28.5 14t-27.5 25l-22 2t-23 1q-2 -14 -3 -24.5t-1 -20.5q0 -17 5.5 -30.5t20.5 -28.5v-4
q0 -10 -9 -10q-6 0 -10.5 7t-8 16t-5.5 19t-3 16q-10 -37 -10 -83q4 -2 11 -2h6q20 0 36 9.5t16 27.5q0 10 -5.5 18t-11.5 15.5l-11.5 14.5t-5.5 14q0 9 9 9q5 0 10 -5l13 -20.5t8 -12.5t4.5 -9t1.5 -10q0 -29 -14 -46.5t-55 -17.5h-9q-8 0 -12 2l-2 -1q-13 0 -22 11t-9 19
q0 16 12 31t20 29l3 -2l7.5 35.5t5.5 33.5h-4v-9q-26 3 -47 9l-17 -12l-19 -13l-16 -10.5t-8 -4.5t-2 0.5t-3 0.5t-3 -1l-1 3q-20 10 -31 29t-11 41q0 11 3 22q-2 -2 -3 -2t-1.5 0.5t-2.5 0.5q-9 0 -9 8q0 11 11 13t17 2l5.5 5.5t6.5 4.5l4 -10q10 -3 16 -9q1 1 4 1
q4 0 9.5 -8l12 -18t12.5 -18t10 -8q5 2 11 3.5t11 3.5l2 2q2 -1 6 -1q1 0 2 -1l11 -5l-9 -6v-3h10t11 1v4h8q9 1 9 9l12 -1q-7 2 -8 10v21q-12 0 -12 13q2 2 3.5 4t2.5 3q-4 9 -11.5 13.5t-14.5 4.5q-10 0 -11 -7l-11 2zM139 416q-1 -2 -2 -5t-2 -7q11 6 22 13t22 12
q-13 6 -27.5 8.5t-26.5 11.5q-6 4 -12 11t-13 13.5t-14 11t-14 4.5t-11 -5t-8 -12q0 -32 3.5 -67t25.5 -60q10 3 14.5 11t7.5 19l-4 18q8 0 11 5.5t4.5 12t4 12t9.5 5.5q10 0 10 -12zM265 440q-1 -1 -5 -1q-8 0 -8 7q0 4 1 5l-18 -8t-19 -8q1 -1 1 -4h-3q26 -6 53.5 -17.5
t45.5 -29.5q14 5 25 17t11 26q0 15 -9.5 20.5t-22.5 5.5q-15 0 -30.5 -5t-21.5 -8zM61 48q-11 -14 -11 -32q0 -15 8.5 -28.5t25.5 -18.5q11 2 21.5 7t20.5 12q-5 -2 -10 -6t-11 -4q-9 0 -9 8q0 4 3.5 8.5t11.5 4.5q-7 6 -12.5 14l-10.5 16t-11 13.5t-13 5.5h-3zM198 119
q-5 -8 -11 -8q-3 0 -5 2q-3 -5 -6.5 -10t-6.5 -10q24 0 42 -23l15.5 16l14.5 16l-10 -6q-12 21 -14 50q-7 2 -8 10v5q-8 -12 -8 -21.5t-3 -20.5zM196 351q5 -17 8.5 -33t7.5 -31q2 13 5.5 25.5t10.5 23.5q-11 8 -19 18.5t-15 21.5l-9 -15q4 -2 6.5 -4t4.5 -6zM168 357
q-8 -11 -15 -18l18 -4t15 -8q-6 14 -16 21l3 6q-4 0 -5 3zM175 -150q2 20 6 38q-3 -3 -7 -8.5t-4 -12.5q0 -12 5 -17zM208 192q2 4 3 7t3 8v21q0 1 -0.5 1.5t-0.5 2.5v-11q-3 -9 -4 -15t-1 -14zM199 40q6 -3 6 -8q0 -4 -3 -8q-1 0 -1 0.5t-1 0.5q1 2 1 7q0 6 -2 8zM212 452
q1 0 2 1h-2v-1zM207 430l1 -1v1h-1z" />
    <glyph glyph-name="perthousand" unicode="&#x2030;" horiz-adv-x="880" 
d="M695 297q28 11 49 11q26 0 35.5 -14.5t19.5 -47.5q9 -8 16 -22.5t12 -32t7.5 -36.5t2.5 -35q0 -27 -6 -45t-16 -32l-7 6q-14 -11 -32.5 -21t-38.5 -18q5 -7 13.5 -16.5t8.5 -15.5q0 -9 -9 -9q-8 0 -16.5 13.5t-13.5 22.5q-15 -4 -29 -4q-17 0 -23.5 6t-13.5 24l6 2
q-18 12 -28 25t-15 27q-4 1 -6.5 7t-3.5 14t-1.5 16t-0.5 14v10q-2 11 -4.5 21t-6.5 21l16 6q2 10 4 19t5 18l-13 -13q-4 -2 -7 -2q-9 0 -9 9q0 6 12 16t29 21l7.5 15t8.5 14l14 -10q7 4 13.5 7l13.5 6v4zM426 301q-64 -8 -94 -45t-30 -91q0 -17 3 -33l3 1q5 -51 38.5 -78.5
t81.5 -34.5q-4 3 -15 14t-22.5 31.5t-20.5 51t-9 72.5q0 32 7.5 59t26.5 41l11 -16q-17 -11 -24.5 -33.5t-7.5 -49.5q0 -34 6.5 -60t16 -45t21 -31.5t21.5 -18.5q7 14 14.5 34t14.5 42.5t11.5 46t4.5 43.5t-5 36.5t-18 26.5q-5 4 -12 4.5t-14 2.5l2 5q-14 2 -17.5 5.5
t-3.5 8.5q0 9 11 9q27 -8 52.5 -23.5t45 -37.5t31.5 -48.5t12 -55.5v-8.5t-1 -8.5v-4q-35 -72 -103 -101q0 -7 -5.5 -9l-11.5 -4q-4 1 -8 1.5t-8 1.5q-5 -2 -9 -2t-9 -1l-1 8q-22 7 -44.5 20t-40.5 30.5t-29.5 39.5t-11.5 47q0 64 35 113.5t103 63.5zM746 290v-13h3
q8 -4 15.5 -6.5t14.5 -6.5q-6 18 -15 25.5t-24 7.5q-8 0 -16 -2t-17 -5q-3 -35 -6.5 -69t-3.5 -67q0 -35 6.5 -68.5t26.5 -65.5q26 8 48 26t38 34q10 23 10 53q0 34 -10.5 60.5t-26.5 42.5l-8 -1q0 10 -11 13t-24 8q1 -48 5 -93t4 -93v-13q0 -8 -1.5 -14t-8.5 -6
q-3 0 -6 2.5t-4 7.5q2 18 3 36t1 35q0 43 -4 84.5t-9 86.5zM484 568l3 -2q-51 -51 -94 -106.5l-85 -113.5l-50 -97.5l-50 -96.5q-3 -5 -8 -5q-10 0 -10 13l19.5 33.5l19.5 33.5l-66 -104.5l-64 -104.5q4 0 5 1l2 -20q-5 1 -9.5 1h-9.5q-5 -8 -12.5 -21.5l-15 -26
t-14.5 -21.5t-11 -9q-10 0 -10 13l15.5 23.5l15.5 23.5q-1 -1 -4 -1q-10 0 -10 10q0 7 11.5 11.5t20.5 7.5l111.5 172l114.5 175l51 95.5t53 95.5l9 -4q-1 1 -1 4q0 4 15 14.5t57 21.5zM695 16q2 -1 9 -1t10 1q-18 35 -23 73.5t-5 78.5q0 28 1 56t1 56q-12 -6 -23 -13
t-21 -15q-25 -44 -25 -95q0 -28 11 -59v-3q0 -2 -2 -8q20 -39 70 -52q5 -5 5 -10q0 -3 -2 -6t-6 -3zM547 118q1 1 1.5 2t1.5 2l1 1q5 12 5 27q0 29 -20 55.5t-47 44.5q5 -21 6 -35t1 -23q0 -40 -12.5 -86t-28.5 -82q56 15 83 72l-6 4q5 5 8 9.5t7 8.5zM174 308
q-5 -1 -9.5 -1.5t-9.5 -0.5q-42 0 -58 46q-5 1 -7.5 11.5t-4 26t-1.5 34v35.5q0 38 6.5 63t35.5 37l5 -20q-21 -6 -28.5 -27t-7.5 -47q0 -24 4 -48.5l7 -42.5l6 1q0 -25 6 -40t23 -15q11 0 31 9q6 0 11 -6q22 23 35 53.5t13 62.5q0 26 -10.5 49.5t-35.5 39.5q-4 4 -4 8
q0 9 10 9h4q25 -19 37 -48.5t12 -62.5q0 -39 -15.5 -76t-43.5 -60zM136 564q-26 -2 -42.5 -9.5t-25.5 -19.5t-12.5 -27.5t-3.5 -33.5q1 4 2.5 12t3.5 15.5t5.5 13.5t8.5 6q10 0 10 -12q-8 -23 -14.5 -52t-6.5 -57q0 -33 14.5 -59t53.5 -33l-4 -20q-8 2 -16.5 3t-14.5 6
q-25 21 -35.5 48t-10.5 59q0 3 0.5 6.5t0.5 7.5q-8 -2 -7 -2q-8 0 -9 10q3 29 7 55t14 47t29 35.5t51 20.5zM163 593q40 -8 61.5 -35.5t32.5 -63.5l8 1q1 -32 4.5 -53t3.5 -39q0 -19 -7 -39t-28 -50q-3 -5 -8 -5q-10 0 -10 10l2 6q23 26 31.5 43.5t8.5 34.5q0 10 -2 20
t-5 22q-9 0 -10 10q0 21 -4 42t-13.5 37.5t-25.5 27t-40 11.5zM364 447q20 29 42 56l45 53q-5 -2 -11.5 -6t-15.5 -11h-4q-15 -23 -28.5 -46zM685 18q-2 2 -4 2.5t-4 2.5v-1q2 -2 8 -4z" />
    <glyph glyph-name="guilsinglleft" unicode="&#x2039;" horiz-adv-x="290" 
d="M24 196q-1 0 -1 0.5t-1 0.5l-1 3q1 0 2 1l3 16q4 -1 7 -2t5 -2l7 7t6 7q-1 1 -1 5l2 6l43 42.5t42.5 44.5t37.5 48t28 53l9 -3l6 9l16 -11q-19 -22 -30.5 -47t-20 -51.5t-15 -54t-15.5 -54.5q-1 -1 -1.5 -2t-1.5 -2q6 -48 22.5 -92t40.5 -84h3q9 0 9 -9q0 -7 -5.5 -10
t-8.5 -3q-5 0 -8.5 4t-5.5 9h-3q-20 11 -31 26t-19.5 31t-15.5 32.5t-17.5 31.5t-27 27.5t-43.5 19.5q-3 -3 -5 -7zM147 324l-34 -42l-34 -42q0 -8 -11 -17t-16 -15q33 -14 51 -36t30.5 -45l24 -44t30.5 -33q-17 51 -36 98t-25 100l18 1q11 28 19 57t19 57
q-9 -10 -18.5 -19.5t-17.5 -19.5z" />
    <glyph glyph-name="OE" unicode="&#x152;" horiz-adv-x="1180" 
d="M318 563q-40 0 -70 -13t-52 -49q-4 -4 -5 -4q-26 -45 -36.5 -92t-10.5 -102q0 -1 -1 -1q2 -42 9.5 -82t25.5 -82q0 -1 0.5 -2t0.5 -2q0 -11 -10 -11q-2 0 -3 1q9 -41 31 -66l13 3q3 -16 12.5 -21.5t22.5 -5.5q20 0 42 9l36 15q12 0 12 -10q0 -5 -10 -10t-23.5 -8.5
t-29 -5.5t-25.5 -2q-3 0 -6 0.5t-5 0.5l-6 -11q10 -10 23 -10q11 0 22 7.5t22 17.5q1 1 6 1q8 0 8 -9q0 -1 -0.5 -2t-0.5 -2l4 2q2 -5 2 -4.5t8 -3.5q15 7 24.5 22t15.5 33t8.5 37t2.5 33q1 5 4 7.5t6 2.5q10 0 10 -12q-1 -5 -8 -28t-17.5 -49t-24 -46.5t-26.5 -20.5
q-11 0 -22 17q-26 -11 -45 -15q2 -6 2 -7q0 -9 -12 -9q-63 26 -109.5 61.5t-72.5 90.5q-3 -6 -9 -6q-7 0 -11.5 17t-6.5 40.5t-3 46.5t-1 35q0 35 3.5 68.5t10.5 68.5q2 10 7 23.5l10 27l9 24t4 13.5l18 -2q14 27 31.5 51t44.5 41l5 -12q25 16 52.5 22.5t56.5 10.5l2 -19
q8 2 16 3.5t17 3.5zM212 541q29 23 68 34q-7 1 -13 1h-11q-29 0 -45 -8.5t-33 -25.5q-2 -2 -7 -2q-9 0 -9 9q-42 -28 -59.5 -72t-25.5 -94q-5 -8 -12 -8q-8 0 -8 9q0 2 0.5 3.5t0.5 7.5q0 -1 -0.5 -1.5t-0.5 -1.5q-16 -55 -16 -114q0 -39 6 -78l11 1q6 -81 50 -126.5
t112 -71.5l6 10q-29 21 -47.5 50t-32.5 61v2q0 10 9 10h2q-13 40 -18.5 79.5t-7.5 79.5q-5 1 -7 10l2 19.5t3 18.5q-1 23 -1 45t-1 45l20 -2q0 -2 -0.5 -4t-0.5 -4q6 20 14 40.5t18 41.5l-1 1q0 3 3 6l3 3l8 16t9 16zM128 240q-7 25 -7 54q0 15 2 31t5 33q0 12 -10 12
q-8 0 -10 -15t-2 -34q0 -12 0.5 -22.5t0.5 -18.5q0 -11 0.5 -20.5t0.5 -20.5zM741 606l6 1q2 -24 13 -44l22 -42q0 -2 0.5 -2.5t0.5 -1.5q0 -10 -10 -10q-3 0 -8.5 9.5t-11 22.5l-11 26.5t-9.5 21.5q-13 0 -25 0.5t-25 0.5q-66 0 -129.5 -2.5t-129.5 -2.5q0 -7 -9 -8
q-8 1 -15.5 1.5t-15.5 0.5t-15 -0.5t-15 -1.5q22 -15 37.5 -35.5t24.5 -45.5t13 -53t4 -56q-3 -8 -10 -8q-3 0 -6 2.5t-4 7.5q1 9 1.5 18t0.5 18q0 26 -4.5 49.5t-15.5 43.5q-2 -81 -3.5 -160.5t-1.5 -160.5q0 -40 0.5 -79t1.5 -81q18 7 43.5 9t45.5 5q-17 54 -18.5 110.5
t-4.5 113.5l8 -1q-2 42 -5 83t-3 83q0 31 2.5 60.5t7.5 57.5l9 -3l1 1q54 12 109 15t110 7l2 -20q-17 1 -33 1.5t-33 0.5q-38 0 -74.5 -5t-74.5 -19q-6 -28 -8.5 -55.5t-2.5 -55.5q0 -57 6.5 -111.5t8.5 -111.5q0 -11 -9 -11q-3 0 -4 1q0 -35 5 -69.5t21 -69.5q8 1 16.5 1
h17.5q54 0 101 -10q2 5 6.5 6.5t10.5 1.5h13h15h11t12 -2q0 2 2 8q26 29 47 58.5t44 58.5l14 -14q-2 -2 -3 -2.5t-2 -2.5h7q-2 -21 -9 -40.5t-15 -39t-14.5 -40.5t-6.5 -45q-3 -8 -10 -8q-3 0 -6 2.5t-4 7.5q0 1 0.5 4t1.5 8q-5 19 -20.5 26t-34.5 7q-6 0 -12 -0.5t-12 -1.5
q5 -1 15 -3.5t10 -11.5t-13 -9q-77 30 -153 30q-7 0 -13.5 -0.5t-12.5 -0.5q-3 -8 -9 -8t-10 7q-22 -3 -46 -7.5t-47 -12.5v-20t1 -21q0 -6 -3 -8.5t-6 -2.5q-10 0 -11 10q0 9 0.5 18.5t0.5 17.5l-25.5 -7.5t-24.5 -5.5q2 2 3 3.5t2 2.5l-18 4q11 11 28.5 13.5t34.5 7.5
q3 145 3 287q0 52 -0.5 103t-1.5 105l15 -2q-13 21 -35 34.5t-54 17.5l4 20q9 -2 17 -5l16 -6l1 9q2 0 13.5 -1.5t25.5 -1.5q15 0 29 3q0 10 11 10q27 -2 53.5 -3t54.5 -1q48 0 100 2t115 6v-1zM709 278q1 -6 2 -10.5t2 -8.5q0 -6 -3 -8.5t-6 -2.5q-10 0 -11 10v14
q-7 20 -29 27.5t-50 7.5q-27 0 -53.5 -6.5t-40.5 -6.5q-9 0 -9 9l2 6q-8 -1 -14.5 -1t-13.5 -1l1 20h22.5t35 1t41.5 3.5t42 6.5q11 0 11 -10q0 -6 -5 -9q35 -3 59 -18l-2 46.5t-3 46.5l20 -2q-3 -29 -3 -54q0 -16 1.5 -30t6.5 -29zM767 465q-4 25 -20 38t-37 19.5t-45 9
t-43 5.5q-7 4 -7 11q0 9 11 9q22 -6 47 -11t47.5 -14t40.5 -23.5t26 -39.5zM757 27q9 29 21.5 59t14.5 55q-21 -22 -37.5 -46l-33.5 -50q10 -3 19 -7t16 -11z" />
    <glyph glyph-name="quoteright" unicode="&#x2019;" horiz-adv-x="290" 
d="M90 392q20 6 30.5 28.5t12.5 46.5q-6 -1 -10.5 -2t-9.5 -1q-8 0 -18 8t-19 20.5t-15 27t-6 28.5q0 16 8.5 31.5t21.5 27.5t29.5 19.5t31.5 7.5q24 0 44 -24t20 -59q0 -17 -2 -29.5t-8 -25.5l2 -1q-14 -19 -26.5 -38.5l-25.5 -38t-28.5 -36t-35.5 -32.5q-13 0 -13 10
q0 5 3 6t11 7q-5 3 -5 8q0 6 8 11zM143 519q1 -4 2 -9t2 -12h3q-3 -5 -3 -12q0 -20 -5 -42t-16 -39q15 17 26 38.5l23 43.5v3q18 28 18 64q0 28 -12 48t-36 20q-7 0 -19 -3.5t-24 -12t-21 -22t-9 -34.5q0 -24 12 -45t32 -21q8 0 9.5 4.5l3.5 10.5q-1 2 -2 5.5t-3 7.5z" />
    <glyph glyph-name="quotedblleft" unicode="&#x201c;" horiz-adv-x="390" 
d="M33 480l3 8q-2 7 -3 12t-2 9h12q13 32 39.5 56.5t61.5 33.5v-7q12 -2 12 -10q0 -5 -7 -7.5t-16 -4.5t-18.5 -3.5t-13.5 -3.5q-19 -15 -29.5 -38t-18.5 -48q2 -5 7 -9l4.5 4.5t4.5 1.5q4 0 7 -3q16 10 32 10q25 0 38.5 -21t13.5 -44q0 -25 -15 -34t-38 -9
q-47 0 -63.5 25.5t-21.5 81.5h11zM237 502q8 32 26 59.5t50 37.5l5 -20q-20 -2 -32.5 -12.5t-20.5 -26t-11.5 -33.5t-4.5 -35h3q-1 -2 -1 -5t-1 -5q2 -6 4 -7t7 -1q12 0 22 7l21 15l2 8l6 -2q5 4 10 7t10 5q12 0 12 -10q0 -4 -3 -7q18 -6 26.5 -17t8.5 -23q0 -11 -5.5 -22
t-15.5 -19.5t-22.5 -14t-27.5 -5.5q-5 0 -9 0.5t-8 4.5h-8q-32 0 -41.5 23t-9.5 51l3 24q-1 5 -2 9.5t-3 9.5q0 3 2 9l2 2zM304 464q-20 -9 -30.5 -16.5t-18.5 -7.5q-5 0 -8 4q-1 -5 -1 -8.5v-7.5q0 -12 4 -21t17 -9q5 0 7 1q-2 0 -3 3t-1 5q0 10 9 10q6 0 10 -4.5t8 -10
t9 -10t13 -4.5q17 0 30.5 15.5t13.5 31.5q0 10 -5.5 15.5t-14 8t-19 3.5zM42 440q2 -25 12.5 -38.5t34.5 -13.5q-5 3 -11 9.5l-11.5 13t-9 13t-3.5 9.5q0 9 9 9q5 0 11.5 -7.5t13 -17l12.5 -18t10 -9.5l10.5 2t11.5 3q6 0 9 -3q7 10 7 29q0 16 -7 30t-24 14q-19 0 -44 -21
l-10 9q-8 0 -15 9v-22h-6z" />
    <glyph glyph-name="quotedblright" unicode="&#x201d;" horiz-adv-x="390" 
d="M366 531q-1 -19 -13 -49.5t-29.5 -60t-38.5 -50.5t-40 -21l1 20q19 0 37 18l-13 6q8 13 15 30t7 34q0 18 -12 33q-6 0 -10.5 -2.5l-9.5 -5.5q1 -2 3 -7.5t2 -7.5q0 -10 -10 -10t-13 22q-4 3 -4 7q0 3 1 4q-4 12 -4 27t6.5 25.5t16 17.5t21 10.5t21.5 3.5q22 0 41 -11
t28 -32zM43 585h-2q-9 0 -23 -9.5t-14 -25.5q0 -9 4 -14.5t9.5 -10t11 -8.5t9.5 -10l-2 -1q3 -4 10 -4h6q11 0 20.5 1t18.5 1q13 0 23 -3.5t18 -15.5l17 6q1 -3 1 -12q0 -12 -9.5 -31.5t-23 -37.5t-27 -31.5t-21.5 -13.5q-9 0 -9 9q0 4 9 12.5l20.5 19.5l23 23t16.5 24
l-5 -1q-2 25 -9.5 33.5t-18.5 8.5t-24 -5t-27 -5q-5 0 -15.5 3.5t-10.5 12.5q-2 6 -6.5 10t-9 8.5t-8 10.5t-3.5 16q0 20 14.5 38t32.5 22q0 -1 1 -1t2 -0.5t3 -0.5l15.5 6t15.5 3q16 0 26.5 -11.5t18 -27t12 -32.5l7.5 -28q0 -11 -9 -11q-7 0 -11 7q-2 16 -5.5 32t-8.5 29
t-12 20.5t-16 7.5q-14 0 -31 -17zM253 539q-4 -8 -4 -19q0 -12 4 -21q9 4 21 4q17 0 23.5 -13t6.5 -32q0 -30 -11 -60q12 13 22 30t16.5 35t10.5 35t4 29q0 7 -6 14t-15 12t-19 8t-17 3q-11 0 -21 -5.5t-15 -19.5z" />
    <glyph glyph-name="bullet" unicode="&#x2022;" horiz-adv-x="310" 
d="M113 414q13 7 26 7q14 0 21.5 -7.5t18.5 -13.5l-7 -12q26 -2 49 -15.5t36 -35.5q-6 8 -6 17q0 12 9 12q5 0 9.5 -7t7.5 -16t5 -18.5t2 -13.5q0 -26 -13.5 -50t-35 -43t-48 -30.5t-51.5 -11.5q-26 0 -51.5 17t-31.5 56q-10 19 -10 46q0 39 19 74.5t51 47.5v-3zM262 292
q1 3 1 6t1 5l-16 2v5q0 15 -8 27t-20 21t-27.5 14t-30.5 5q-32 0 -50.5 -17.5t-33.5 -39.5q-3 -5 -8 -5h-3q-6 -20 -6 -40q0 -15 10 -24.5t22 -15.5l22 -11t10 -12q0 -9 -13 -9q-10 5 -20.5 8.5t-18.5 11.5q10 -17 27 -27.5t37 -10.5q21 0 41.5 10t38 26t29.5 35t16 36z
M145 401q-20 -3 -35.5 -15.5t-26.5 -30.5q14 14 34.5 24t43.5 10z" />
    <glyph glyph-name="endash" unicode="&#x2013;" 
d="M453 171h-14q0 -7 1 -8q-3 -8 -10 -8q-3 0 -6 2.5t-4 7.5q0 6 1 7q-42 2 -79.5 4t-74.5 2q-66 0 -130.5 -10t-136.5 -41h-4q-9 0 -9 8q0 7 8 12q91 31 181.5 37.5t184.5 6.5h63q2 8 3 15t2 15q-63 11 -127 15t-130 4q-36 0 -72 -0.5t-71 -1.5q-10 1 -10 10v3
q-8 -10 -13 -25.5l-9.5 -30.5t-9 -25.5t-11.5 -10.5q-8 0 -8 9v4q6 12 12 28t13 31.5t16 29t21 19.5l5 -20l-6 -2h1l111.5 -6t109.5 -5q45 -2 89 -1.5t89 -4.5v14l20 -2q-3 -17 -6 -32t-4 -30h14v-20z" />
    <glyph glyph-name="emdash" unicode="&#x2014;" horiz-adv-x="880" 
d="M917 259q0 -2 0.5 -3t0.5 -3q0 -7 -4 -10t-4 -8q0 -3 1 -9.5t6 -6.5l-2 -5q0 -1 2 -3q0 -9 -7 -10l-2 -1q-4 0 -8 3q-78 26 -164.5 37.5t-177.5 11.5q-133 0 -262.5 -22.5t-238.5 -64.5q-1 -1 -3 -1t-3 1q4 -5 9.5 -10.5t5.5 -11.5q0 -10 -9 -10q-2 0 -13 11.5
t-24.5 27.5t-25.5 32.5t-15 26.5q-7 3 -12 8l17 10q1 -1 4.5 -1.5t5.5 -0.5q69 0 138 4t138 9.5l138 10.5t137 7q42 6 82 6q55 0 116 -5t115 -17q1 0 8 -1.5l14 -3t12.5 -3l5.5 -1.5q0 1 -1 2zM104 237q-4 0 -13.5 -1.5l-22.5 -3.5t-27.5 -3.5t-28.5 -1.5q-3 0 -6.5 0.5
t-6.5 0.5q5 -18 18 -30l27 -26q0 8 8 13q91 32 190.5 49.5t202.5 23.5q-172 -5 -341 -21zM899 225q0 2 -0.5 5t-0.5 5h-6q-10 0 -21.5 2.5t-22 6t-19 7t-12.5 4.5q-28 6 -67 10.5t-82 4.5q-13 0 -25.5 -0.5t-25.5 -1.5q-2 -6 -5 -7q75 -2 149.5 -7.5t137.5 -28.5z" />
    <glyph glyph-name="tilde" unicode="&#x2dc;" horiz-adv-x="290" 
d="M3 474q1 11 8.5 28.5t19 34.5t26 29t28.5 12q13 0 26.5 -11.5t27 -25t28 -24.5t30.5 -11q7 0 12 4q2 2 7 12.5t11.5 22t13.5 20.5t13 9q8 0 13 -23q7 10 14 14l8 -18q-9 -5 -15 -16.5l-12 -23.5t-13 -21.5t-18 -9.5q-18 0 -35.5 10t-34 22.5t-32 22.5t-29.5 10
q-12 0 -19 -10t-12 -21.5t-11 -21.5t-15 -10q-4 0 -6 2l-2 2q-4 3 -4 8q0 9 9 9q6 6 11.5 15.5t12.5 18t15 15t20 6.5q3 0 7 -0.5t12 -4.5q-15 15 -31 15q-13 0 -24.5 -10.5t-19.5 -25t-13.5 -30.5t-6.5 -26zM231 489q8 3 13.5 15.5l11.5 26.5q-7 2 -8 10v5q-11 -17 -19 -33
t-28 -20q12 -6 22 -6z" />
    </font>
</defs>
</svg>
